<?xml version="1.0" encoding="utf-8" standalone="no"?>
<!DOCTYPE svg PUBLIC "-//W3C//DTD SVG 1.1//EN"
  "http://www.w3.org/Graphics/SVG/1.1/DTD/svg11.dtd">
<!-- Created with matplotlib (https://matplotlib.org/) -->
<svg height="288pt" version="1.1" viewBox="0 0 432 288" width="432pt" xmlns="http://www.w3.org/2000/svg" xmlns:xlink="http://www.w3.org/1999/xlink">
 <metadata>
  <rdf:RDF xmlns:cc="http://creativecommons.org/ns#" xmlns:dc="http://purl.org/dc/elements/1.1/" xmlns:rdf="http://www.w3.org/1999/02/22-rdf-syntax-ns#">
   <cc:Work>
    <dc:type rdf:resource="http://purl.org/dc/dcmitype/StillImage"/>
    <dc:date>2022-03-30T15:53:08.820244</dc:date>
    <dc:format>image/svg+xml</dc:format>
    <dc:creator>
     <cc:Agent>
      <dc:title>Matplotlib v3.3.3, https://matplotlib.org/</dc:title>
     </cc:Agent>
    </dc:creator>
   </cc:Work>
  </rdf:RDF>
 </metadata>
 <defs>
  <style type="text/css">*{stroke-linecap:butt;stroke-linejoin:round;}</style>
 </defs>
 <g id="figure_1">
  <g id="patch_1">
   <path d="M 0 288 
L 432 288 
L 432 0 
L 0 0 
z
" style="fill:none;"/>
  </g>
  <g id="axes_1">
   <g id="patch_2">
    <path d="M 65.55 246.2 
L 350.07 246.2 
L 350.07 14.8 
L 65.55 14.8 
z
" style="fill:#ffffff;"/>
   </g>
   <g id="PathCollection_1">
    <path clip-path="url(#p8d936766ca)" d="M 70.455517 184.111929 
L 70.61291 183.647114 
L 71.315832 181.710583 
L 72.970295 179.774052 
L 75.361034 178.176355 
L 75.522569 177.83752 
L 75.995182 175.900989 
L 76.343951 173.964458 
L 76.650563 172.027927 
L 76.933983 170.091396 
L 77.200822 168.154865 
L 77.307505 166.218333 
L 77.266803 164.281802 
L 77.221297 162.345271 
L 77.170166 160.40874 
L 77.113156 158.472209 
L 77.050241 156.535678 
L 76.980335 154.599146 
L 76.898384 152.662615 
L 76.788829 150.726084 
L 76.608381 148.789553 
L 76.224697 146.853022 
L 75.361034 145.228984 
L 74.844216 146.853022 
L 74.220985 148.789553 
L 73.58058 150.726084 
L 72.909477 152.662615 
L 72.192725 154.599146 
L 71.413749 156.535678 
L 70.553371 158.472209 
L 70.455517 158.67116 
L 69.045565 160.40874 
L 67.31544 162.345271 
L 65.55 164.141171 
L 65.55 164.281802 
L 65.55 166.218333 
L 65.55 168.154865 
L 65.55 170.091396 
L 65.55 172.027927 
L 65.55 173.964458 
L 65.55 175.900989 
L 65.55 177.83752 
L 65.55 179.774052 
L 65.55 181.710583 
L 65.55 183.647114 
L 65.55 185.53344 
z
" style="fill:#006428;stroke:#006428;"/>
    <path clip-path="url(#p8d936766ca)" d="M 80.266552 141.697685 
L 80.435765 141.043428 
L 80.547905 139.106897 
L 80.266552 137.369407 
L 79.016974 139.106897 
L 79.061841 141.043428 
z
" style="fill:#006428;stroke:#006428;"/>
    <path clip-path="url(#p8d936766ca)" d="M 80.266552 137.080204 
L 81.034902 135.233835 
L 81.447632 133.297304 
L 81.954543 131.360773 
L 82.537457 129.424241 
L 83.159746 127.48771 
L 83.792574 125.551179 
L 84.432286 123.614648 
L 85.098582 121.678117 
L 85.172069 121.480139 
L 85.899665 119.741586 
L 86.882646 117.805054 
L 88.034792 115.868523 
L 89.381817 113.931992 
L 90.077586 113.081134 
L 90.891999 111.995461 
L 92.588976 110.05893 
L 94.331486 108.122399 
L 94.983103 107.380697 
L 96.157463 106.185867 
L 98.666759 104.249336 
L 99.888621 103.55646 
L 103.971785 102.312805 
L 104.794138 102.037372 
L 109.699655 101.601211 
L 111.411896 102.312805 
L 114.605172 103.712994 
L 115.758855 104.249336 
L 119.51069 105.906861 
L 120.066779 106.185867 
L 124.117089 108.122399 
L 124.416207 108.255499 
L 128.357103 110.05893 
L 129.321724 110.512376 
L 133.041808 111.995461 
L 134.227241 112.478879 
L 138.296315 113.931992 
L 139.132759 114.22364 
L 144.038276 115.761759 
L 144.399125 115.868523 
L 148.943793 117.135838 
L 151.454886 117.805054 
L 153.84931 118.409289 
L 158.754828 119.560033 
L 159.592162 119.741586 
L 163.660345 120.584574 
L 168.565862 121.505851 
L 169.533944 121.678117 
L 173.471379 122.405164 
L 178.376897 123.258475 
L 180.560598 123.614648 
L 183.282414 124.102411 
L 188.187931 124.932582 
L 192.379428 125.551179 
L 193.093448 125.663389 
L 197.998966 126.406851 
L 202.904483 127.060508 
L 206.595585 127.48771 
L 207.81 127.622237 
L 212.715517 128.142851 
L 217.621034 128.616512 
L 222.526552 129.038091 
L 227.432069 129.412162 
L 227.602632 129.424241 
L 232.337586 129.689639 
L 237.243103 129.940066 
L 242.148621 130.164443 
L 247.054138 130.363758 
L 251.959655 130.540028 
L 256.865172 130.694971 
L 261.77069 130.827489 
L 266.676207 131.036275 
L 271.581724 131.14141 
L 276.487241 131.190515 
L 281.392759 131.243108 
L 286.298276 131.303189 
L 290.142562 131.360773 
L 291.203793 131.368486 
L 296.10931 131.399926 
L 301.014828 131.42644 
L 305.920345 131.446785 
L 310.825862 131.463046 
L 315.731379 131.47632 
L 320.636897 131.486452 
L 325.542414 131.493032 
L 330.447931 131.609043 
L 335.353448 131.67669 
L 340.258966 131.707987 
L 345.164483 131.72893 
L 350.07 131.742595 
L 354.975517 131.749523 
L 359.881034 131.762954 
L 364.786552 131.744243 
L 364.786552 131.360773 
L 364.786552 129.424241 
L 364.786552 128.865086 
L 359.881034 128.863456 
L 354.975517 128.856915 
L 350.07 128.844598 
L 345.164483 128.822981 
L 340.258966 128.789399 
L 335.353448 128.739132 
L 330.447931 128.686505 
L 325.542414 128.37838 
L 320.636897 127.957866 
L 316.355295 127.48771 
L 315.731379 127.467133 
L 310.825862 127.299541 
L 305.920345 127.126558 
L 301.014828 126.66803 
L 296.10931 126.411836 
L 291.203793 126.223285 
L 286.298276 126.058686 
L 281.392759 125.918583 
L 276.487241 125.783305 
L 271.581724 125.591372 
L 270.765632 125.551179 
L 266.676207 125.2753 
L 261.77069 124.932831 
L 256.865172 124.562252 
L 251.959655 124.157792 
L 247.054138 123.826979 
L 244.084014 123.614648 
L 242.148621 123.414068 
L 237.243103 122.860775 
L 232.337586 122.343433 
L 227.432069 121.849697 
L 226.12027 121.678117 
L 222.526552 121.125245 
L 217.621034 120.476408 
L 212.810699 119.741586 
L 212.715517 119.723803 
L 207.81 118.86073 
L 202.904483 117.952529 
L 202.213046 117.805054 
L 197.998966 116.958622 
L 193.450377 115.868523 
L 193.093448 115.776711 
L 188.187931 114.668938 
L 185.435103 113.931992 
L 183.282414 113.361691 
L 178.55588 111.995461 
L 178.376897 111.940455 
L 173.471379 110.563251 
L 171.750243 110.05893 
L 168.565862 109.089924 
L 165.461983 108.122399 
L 163.660345 107.524927 
L 159.699949 106.185867 
L 158.754828 105.844467 
L 154.448609 104.249336 
L 153.84931 104.012992 
L 149.637195 102.312805 
L 148.943793 102.01414 
L 145.149439 100.376274 
L 144.038276 99.86555 
L 140.96483 98.439743 
L 139.132759 97.550551 
L 137.025955 96.503212 
L 134.227241 95.058829 
L 133.267793 94.56668 
L 129.769718 92.630149 
L 129.321724 92.374561 
L 126.36252 90.693618 
L 124.416207 89.563619 
L 122.941918 88.757087 
L 119.51069 86.979814 
L 119.131757 86.820556 
L 114.605172 85.090107 
L 113.420191 84.884025 
L 109.699655 84.267463 
L 108.241675 84.884025 
L 104.794138 86.716138 
L 104.637804 86.820556 
L 101.227096 88.757087 
L 99.888621 89.455659 
L 98.36184 90.693618 
L 95.20947 92.630149 
L 94.983103 92.745646 
L 91.090978 94.56668 
L 90.077586 95.267228 
L 87.244269 96.503212 
L 85.172069 97.369272 
L 84.607188 98.439743 
L 83.750225 100.376274 
L 82.972805 102.312805 
L 82.231905 104.249336 
L 81.457023 106.185867 
L 80.266552 107.229819 
L 79.59479 108.122399 
L 79.122245 110.05893 
L 78.774356 111.995461 
L 78.458571 113.931992 
L 78.161472 115.868523 
L 77.880748 117.805054 
L 77.616858 119.741586 
L 77.644776 121.678117 
L 77.712532 123.614648 
L 77.801595 125.551179 
L 77.916009 127.48771 
L 78.058406 129.424241 
L 78.227686 131.360773 
L 78.420507 133.297304 
L 78.642106 135.233835 
z
" style="fill:#006428;stroke:#006428;"/>
   </g>
   <g id="PathCollection_2">
    <defs>
     <path d="M 66.047305 -94.67023 
L 67.916203 -96.606761 
L 70.455517 -98.197983 
L 70.660095 -98.543293 
L 72.204789 -100.479824 
L 73.244399 -102.416355 
L 74.092096 -104.352886 
L 75.135422 -106.289417 
L 75.361034 -106.45862 
L 76.730177 -108.225948 
L 77.511067 -110.16248 
L 77.939693 -112.099011 
L 78.283355 -114.035542 
L 78.594049 -115.972073 
L 78.884899 -117.908604 
L 79.161244 -119.845135 
L 79.381992 -121.781667 
L 79.582423 -123.718198 
L 79.823246 -125.654729 
L 80.118685 -127.59126 
L 80.266552 -128.421043 
L 80.494859 -129.527791 
L 80.890348 -131.464322 
L 81.284916 -133.400854 
L 81.680531 -135.337385 
L 82.078216 -137.273916 
L 82.478013 -139.210447 
L 82.8802 -141.146978 
L 83.287263 -143.083509 
L 83.705643 -145.02004 
L 84.198979 -146.956572 
L 84.644241 -148.893103 
L 85.172069 -150.809085 
L 85.177207 -150.829634 
L 85.66991 -152.766165 
L 86.18416 -154.702696 
L 86.734697 -156.639227 
L 87.339023 -158.575759 
L 88.017987 -160.51229 
L 88.798288 -162.448821 
L 89.713229 -164.385352 
L 90.077586 -165.073858 
L 90.662901 -166.321883 
L 91.635891 -168.258414 
L 92.693541 -170.194946 
L 93.93291 -172.131477 
L 94.983103 -173.431079 
L 95.657741 -174.068008 
L 97.754254 -176.004539 
L 99.709184 -177.94107 
L 99.888621 -178.120931 
L 104.707675 -179.877601 
L 104.794138 -179.911939 
L 104.916364 -179.877601 
L 109.699655 -178.717512 
L 111.311827 -177.94107 
L 114.605172 -176.432853 
L 115.579278 -176.004539 
L 119.51069 -174.239519 
L 119.972571 -174.068008 
L 124.416207 -172.457425 
L 125.333563 -172.131477 
L 129.321724 -170.828724 
L 131.134807 -170.194946 
L 134.227241 -169.272144 
L 137.250746 -168.258414 
L 139.132759 -167.718786 
L 144.005119 -166.321883 
L 144.038276 -166.312476 
L 148.943793 -164.971008 
L 151.152278 -164.385352 
L 153.84931 -163.656322 
L 158.754828 -162.459784 
L 158.803497 -162.448821 
L 163.660345 -161.44438 
L 168.051582 -160.51229 
L 168.565862 -160.417476 
L 173.471379 -159.617037 
L 178.376897 -158.836919 
L 180.077575 -158.575759 
L 183.282414 -158.208613 
L 188.187931 -157.69658 
L 193.093448 -157.233668 
L 197.998966 -156.793275 
L 199.763688 -156.639227 
L 202.904483 -156.429766 
L 207.81 -156.142611 
L 212.715517 -155.904311 
L 217.621034 -155.709134 
L 222.526552 -155.54751 
L 227.432069 -155.411674 
L 232.337586 -155.296659 
L 237.243103 -155.199618 
L 242.148621 -155.118997 
L 247.054138 -155.053902 
L 251.959655 -155.003665 
L 256.865172 -154.968006 
L 261.77069 -154.948596 
L 266.676207 -154.940968 
L 271.581724 -154.943875 
L 276.487241 -154.956078 
L 281.392759 -154.976412 
L 286.298276 -155.006088 
L 291.203793 -155.041682 
L 296.10931 -155.081812 
L 301.014828 -155.12578 
L 305.920345 -155.174327 
L 310.825862 -155.22527 
L 315.731379 -155.277542 
L 320.636897 -155.330965 
L 325.542414 -155.385297 
L 330.447931 -155.393725 
L 335.353448 -155.415549 
L 340.258966 -155.449541 
L 345.164483 -155.486084 
L 350.07 -155.524146 
L 354.975517 -155.562849 
L 359.881034 -155.59462 
L 364.786552 -155.642732 
L 364.786552 -156.255757 
L 359.881034 -156.237046 
L 354.975517 -156.250477 
L 350.07 -156.257405 
L 345.164483 -156.27107 
L 340.258966 -156.292013 
L 335.353448 -156.32331 
L 330.447931 -156.390957 
L 325.542414 -156.506968 
L 320.636897 -156.513548 
L 315.731379 -156.52368 
L 310.825862 -156.536954 
L 305.920345 -156.553215 
L 301.014828 -156.57356 
L 296.10931 -156.600074 
L 291.203793 -156.631514 
L 290.142562 -156.639227 
L 286.298276 -156.696811 
L 281.392759 -156.756892 
L 276.487241 -156.809485 
L 271.581724 -156.85859 
L 266.676207 -156.963725 
L 261.77069 -157.172511 
L 256.865172 -157.305029 
L 251.959655 -157.459972 
L 247.054138 -157.636242 
L 242.148621 -157.835557 
L 237.243103 -158.059934 
L 232.337586 -158.310361 
L 227.602632 -158.575759 
L 227.432069 -158.587838 
L 222.526552 -158.961909 
L 217.621034 -159.383488 
L 212.715517 -159.857149 
L 207.81 -160.377763 
L 206.595585 -160.51229 
L 202.904483 -160.939492 
L 197.998966 -161.593149 
L 193.093448 -162.336611 
L 192.379428 -162.448821 
L 188.187931 -163.067418 
L 183.282414 -163.897589 
L 180.560598 -164.385352 
L 178.376897 -164.741525 
L 173.471379 -165.594836 
L 169.533944 -166.321883 
L 168.565862 -166.494149 
L 163.660345 -167.415426 
L 159.592162 -168.258414 
L 158.754828 -168.439967 
L 153.84931 -169.590711 
L 151.454886 -170.194946 
L 148.943793 -170.864162 
L 144.399125 -172.131477 
L 144.038276 -172.238241 
L 139.132759 -173.77636 
L 138.296315 -174.068008 
L 134.227241 -175.521121 
L 133.041808 -176.004539 
L 129.321724 -177.487624 
L 128.357103 -177.94107 
L 124.416207 -179.744501 
L 124.117089 -179.877601 
L 120.066779 -181.814133 
L 119.51069 -182.093139 
L 115.758855 -183.750664 
L 114.605172 -184.287006 
L 111.411896 -185.687195 
L 109.699655 -186.398789 
L 104.794138 -185.962628 
L 103.971785 -185.687195 
L 99.888621 -184.44354 
L 98.666759 -183.750664 
L 96.157463 -181.814133 
L 94.983103 -180.619303 
L 94.331486 -179.877601 
L 92.588976 -177.94107 
L 90.891999 -176.004539 
L 90.077586 -174.918866 
L 89.381817 -174.068008 
L 88.034792 -172.131477 
L 86.882646 -170.194946 
L 85.899665 -168.258414 
L 85.172069 -166.519861 
L 85.098582 -166.321883 
L 84.432286 -164.385352 
L 83.792574 -162.448821 
L 83.159746 -160.51229 
L 82.537457 -158.575759 
L 81.954543 -156.639227 
L 81.447632 -154.702696 
L 81.034902 -152.766165 
L 80.266552 -150.919796 
L 78.642106 -152.766165 
L 78.420507 -154.702696 
L 78.227686 -156.639227 
L 78.058406 -158.575759 
L 77.916009 -160.51229 
L 77.801595 -162.448821 
L 77.712532 -164.385352 
L 77.644776 -166.321883 
L 77.616858 -168.258414 
L 77.880748 -170.194946 
L 78.161472 -172.131477 
L 78.458571 -174.068008 
L 78.774356 -176.004539 
L 79.122245 -177.94107 
L 79.59479 -179.877601 
L 80.266552 -180.770181 
L 81.457023 -181.814133 
L 82.231905 -183.750664 
L 82.972805 -185.687195 
L 83.750225 -187.623726 
L 84.607188 -189.560257 
L 85.172069 -190.630728 
L 87.244269 -191.496788 
L 90.077586 -192.732772 
L 91.090978 -193.43332 
L 94.983103 -195.254354 
L 95.20947 -195.369851 
L 98.36184 -197.306382 
L 99.888621 -198.544341 
L 101.227096 -199.242913 
L 104.637804 -201.179444 
L 104.794138 -201.283862 
L 108.241675 -203.115975 
L 109.699655 -203.732537 
L 113.420191 -203.115975 
L 114.605172 -202.909893 
L 119.131757 -201.179444 
L 119.51069 -201.020186 
L 122.941918 -199.242913 
L 124.416207 -198.436381 
L 126.36252 -197.306382 
L 129.321724 -195.625439 
L 129.769718 -195.369851 
L 133.267793 -193.43332 
L 134.227241 -192.941171 
L 137.025955 -191.496788 
L 139.132759 -190.449449 
L 140.96483 -189.560257 
L 144.038276 -188.13445 
L 145.149439 -187.623726 
L 148.943793 -185.98586 
L 149.637195 -185.687195 
L 153.84931 -183.987008 
L 154.448609 -183.750664 
L 158.754828 -182.155533 
L 159.699949 -181.814133 
L 163.660345 -180.475073 
L 165.461983 -179.877601 
L 168.565862 -178.910076 
L 171.750243 -177.94107 
L 173.471379 -177.436749 
L 178.376897 -176.059545 
L 178.55588 -176.004539 
L 183.282414 -174.638309 
L 185.435103 -174.068008 
L 188.187931 -173.331062 
L 193.093448 -172.223289 
L 193.450377 -172.131477 
L 197.998966 -171.041378 
L 202.213046 -170.194946 
L 202.904483 -170.047471 
L 207.81 -169.13927 
L 212.715517 -168.276197 
L 212.810699 -168.258414 
L 217.621034 -167.523592 
L 222.526552 -166.874755 
L 226.12027 -166.321883 
L 227.432069 -166.150303 
L 232.337586 -165.656567 
L 237.243103 -165.139225 
L 242.148621 -164.585932 
L 244.084014 -164.385352 
L 247.054138 -164.173021 
L 251.959655 -163.842208 
L 256.865172 -163.437748 
L 261.77069 -163.067169 
L 266.676207 -162.7247 
L 270.765632 -162.448821 
L 271.581724 -162.408628 
L 276.487241 -162.216695 
L 281.392759 -162.081417 
L 286.298276 -161.941314 
L 291.203793 -161.776715 
L 296.10931 -161.588164 
L 301.014828 -161.33197 
L 305.920345 -160.873442 
L 310.825862 -160.700459 
L 315.731379 -160.532867 
L 316.355295 -160.51229 
L 320.636897 -160.042134 
L 325.542414 -159.62162 
L 330.447931 -159.313495 
L 335.353448 -159.260868 
L 340.258966 -159.210601 
L 345.164483 -159.177019 
L 350.07 -159.155402 
L 354.975517 -159.143085 
L 359.881034 -159.136544 
L 364.786552 -159.134914 
L 364.786552 -160.51229 
L 364.786552 -161.218785 
L 359.881034 -161.360544 
L 354.975517 -161.50896 
L 350.07 -161.661255 
L 345.164483 -161.821325 
L 340.258966 -161.986724 
L 335.353448 -162.156132 
L 330.447931 -162.33387 
L 327.330362 -162.448821 
L 325.542414 -162.525337 
L 320.636897 -162.739301 
L 315.731379 -162.965918 
L 310.825862 -163.204185 
L 305.920345 -163.454253 
L 301.014828 -163.718812 
L 296.10931 -164.00068 
L 291.203793 -164.292091 
L 289.638777 -164.385352 
L 286.298276 -164.603649 
L 281.392759 -164.937098 
L 276.487241 -165.297988 
L 271.581724 -165.687037 
L 266.676207 -166.099147 
L 264.0561 -166.321883 
L 261.77069 -166.525988 
L 256.865172 -166.984525 
L 251.959655 -167.490135 
L 247.054138 -168.034699 
L 245.075231 -168.258414 
L 242.148621 -168.600572 
L 237.243103 -169.213419 
L 232.337586 -169.885677 
L 230.141587 -170.194946 
L 227.432069 -170.58576 
L 222.526552 -171.344889 
L 217.820828 -172.131477 
L 217.621034 -172.165541 
L 212.715517 -173.030952 
L 207.81 -173.977335 
L 207.350603 -174.068008 
L 202.904483 -174.995049 
L 198.406709 -176.004539 
L 197.998966 -176.099928 
L 193.093448 -177.320629 
L 190.729269 -177.94107 
L 188.187931 -178.642738 
L 183.984024 -179.877601 
L 183.282414 -180.093159 
L 178.376897 -181.711286 
L 178.08682 -181.814133 
L 173.471379 -183.519258 
L 172.884463 -183.750664 
L 168.565862 -185.531333 
L 168.20161 -185.687195 
L 163.939706 -187.623726 
L 163.660345 -187.756183 
L 159.983245 -189.560257 
L 158.754828 -190.199483 
L 156.23317 -191.496788 
L 153.84931 -192.836231 
L 152.727275 -193.43332 
L 149.404563 -195.369851 
L 148.943793 -195.655959 
L 146.063565 -197.306382 
L 144.038276 -198.581265 
L 142.926756 -199.242913 
L 139.740445 -201.179444 
L 139.132759 -201.566176 
L 136.556823 -203.115975 
L 134.227241 -204.522292 
L 133.315167 -205.052507 
L 129.9386 -206.989038 
L 129.321724 -207.34444 
L 126.208366 -208.925569 
L 124.416207 -209.8545 
L 122.061076 -210.8621 
L 119.51069 -211.975044 
L 116.628656 -212.798631 
L 114.605172 -213.349453 
L 109.699655 -213.215624 
L 109.038801 -212.798631 
L 104.794138 -210.928767 
L 104.718255 -210.8621 
L 102.748515 -208.925569 
L 100.707982 -206.989038 
L 99.888621 -206.346517 
L 97.891894 -205.052507 
L 95.269187 -203.115975 
L 94.983103 -202.879347 
L 90.077586 -201.342588 
L 89.765565 -201.179444 
L 86.265142 -199.242913 
L 85.172069 -198.618746 
L 84.200223 -197.306382 
L 82.880725 -195.369851 
L 81.658864 -193.43332 
L 80.616199 -191.496788 
L 80.266552 -190.748939 
L 79.656579 -189.560257 
L 78.864334 -187.623726 
L 78.225031 -185.687195 
L 77.668835 -183.750664 
L 77.148858 -181.814133 
L 76.435547 -179.877601 
L 76.113626 -177.94107 
L 75.837376 -176.004539 
L 75.583013 -174.068008 
L 75.361034 -172.233599 
L 75.315935 -172.131477 
L 74.522943 -170.194946 
L 73.794685 -168.258414 
L 73.109907 -166.321883 
L 72.453346 -164.385352 
L 71.813562 -162.448821 
L 71.181906 -160.51229 
L 70.552636 -158.575759 
L 70.455517 -158.275886 
L 69.751605 -156.639227 
L 68.976968 -154.702696 
L 68.252352 -152.766165 
L 67.558719 -150.829634 
L 66.871284 -148.893103 
L 66.16087 -146.956572 
L 65.55 -145.40549 
L 65.55 -145.02004 
L 65.55 -143.083509 
L 65.55 -141.146978 
L 65.55 -139.210447 
L 65.55 -137.273916 
L 65.55 -135.337385 
L 65.55 -133.400854 
L 65.55 -131.464322 
L 65.55 -129.527791 
L 65.55 -127.59126 
L 65.55 -125.654729 
L 65.55 -123.858829 
L 67.31544 -125.654729 
L 69.045565 -127.59126 
L 70.455517 -129.32884 
L 70.553371 -129.527791 
L 71.413749 -131.464322 
L 72.192725 -133.400854 
L 72.909477 -135.337385 
L 73.58058 -137.273916 
L 74.220985 -139.210447 
L 74.844216 -141.146978 
L 75.361034 -142.771016 
L 76.224697 -141.146978 
L 76.608381 -139.210447 
L 76.788829 -137.273916 
L 76.898384 -135.337385 
L 76.980335 -133.400854 
L 77.050241 -131.464322 
L 77.113156 -129.527791 
L 77.170166 -127.59126 
L 77.221297 -125.654729 
L 77.266803 -123.718198 
L 77.307505 -121.781667 
L 77.200822 -119.845135 
L 76.933983 -117.908604 
L 76.650563 -115.972073 
L 76.343951 -114.035542 
L 75.995182 -112.099011 
L 75.522569 -110.16248 
L 75.361034 -109.823645 
L 72.970295 -108.225948 
L 71.315832 -106.289417 
L 70.61291 -104.352886 
L 70.455517 -103.888071 
L 65.55 -102.46656 
L 65.55 -102.416355 
L 65.55 -100.479824 
L 65.55 -98.543293 
L 65.55 -96.606761 
L 65.55 -94.67023 
L 65.55 -94.136928 
z
M 79.061841 -146.956572 
L 79.016974 -148.893103 
L 80.266552 -150.630593 
L 80.547905 -148.893103 
L 80.435765 -146.956572 
L 80.266552 -146.302315 
z
" id="mb52628fac9" style="stroke:#2f974e;"/>
    </defs>
    <g clip-path="url(#p8d936766ca)">
     <use style="fill:#2f974e;stroke:#2f974e;" x="0" xlink:href="#mb52628fac9" y="288"/>
    </g>
   </g>
   <g id="PathCollection_3">
    <path clip-path="url(#p8d936766ca)" d="M 68.729264 195.266301 
L 70.455517 194.235908 
L 71.566389 193.32977 
L 72.491686 191.393239 
L 73.633926 189.456707 
L 75.009285 187.520176 
L 75.361034 187.009028 
L 76.351755 185.583645 
L 77.1712 183.647114 
L 77.974786 181.710583 
L 78.949361 179.774052 
L 79.499565 177.83752 
L 79.884204 175.900989 
L 80.222758 173.964458 
L 80.266552 173.69455 
L 80.720626 172.027927 
L 81.218417 170.091396 
L 81.697171 168.154865 
L 82.164297 166.218333 
L 82.621604 164.281802 
L 83.06664 162.345271 
L 83.495942 160.40874 
L 83.90811 158.472209 
L 84.305686 156.535678 
L 84.695654 154.599146 
L 85.088509 152.662615 
L 85.172069 152.264741 
L 85.506956 150.726084 
L 85.957462 148.789553 
L 86.434296 146.853022 
L 86.926022 144.916491 
L 87.42002 142.97996 
L 87.909179 141.043428 
L 88.396122 139.106897 
L 88.89481 137.170366 
L 89.429622 135.233835 
L 90.03117 133.297304 
L 90.077586 133.164035 
L 90.665999 131.360773 
L 91.378817 129.424241 
L 92.190084 127.48771 
L 93.128674 125.551179 
L 94.18771 123.614648 
L 94.983103 122.233005 
L 95.356852 121.678117 
L 96.743954 119.741586 
L 98.601419 117.805054 
L 99.888621 116.581704 
L 103.47039 115.868523 
L 104.794138 115.580938 
L 107.397196 115.868523 
L 109.699655 116.137708 
L 114.605172 117.406182 
L 115.586147 117.805054 
L 119.51069 119.279907 
L 120.78046 119.741586 
L 124.416207 121.038127 
L 126.473904 121.678117 
L 129.321724 122.60025 
L 132.927597 123.614648 
L 134.227241 123.992524 
L 139.132759 125.314788 
L 140.072775 125.551179 
L 144.038276 126.535177 
L 148.044813 127.48771 
L 148.943793 127.682487 
L 153.84931 128.752616 
L 157.125133 129.424241 
L 158.754828 129.689527 
L 163.660345 130.475253 
L 168.565862 131.253902 
L 169.370709 131.360773 
L 173.471379 131.827321 
L 178.376897 132.402194 
L 183.282414 132.89342 
L 188.187931 133.28062 
L 188.411256 133.297304 
L 193.093448 133.625968 
L 197.998966 133.951328 
L 202.904483 134.207517 
L 207.81 134.39604 
L 212.715517 134.536704 
L 217.621034 134.64191 
L 222.526552 134.717771 
L 227.432069 134.767522 
L 232.337586 134.7935 
L 237.243103 134.798072 
L 242.148621 134.783869 
L 247.054138 134.753632 
L 251.959655 134.709875 
L 256.865172 134.654239 
L 261.77069 134.586143 
L 266.676207 134.507824 
L 271.581724 134.418475 
L 276.487241 134.321469 
L 281.392759 134.230107 
L 286.298276 134.150172 
L 291.203793 134.079418 
L 296.10931 134.013852 
L 301.014828 133.950769 
L 305.920345 133.88787 
L 310.825862 133.824481 
L 315.731379 133.759539 
L 320.636897 133.691774 
L 325.542414 133.620419 
L 330.447931 133.545609 
L 335.353448 133.467062 
L 340.258966 133.380275 
L 345.164483 133.298738 
L 345.246161 133.297304 
L 350.07 133.209113 
L 354.975517 133.12478 
L 359.881034 133.047805 
L 364.786552 132.970293 
L 364.786552 132.357268 
L 359.881034 132.40538 
L 354.975517 132.437151 
L 350.07 132.475854 
L 345.164483 132.513916 
L 340.258966 132.550459 
L 335.353448 132.584451 
L 330.447931 132.606275 
L 325.542414 132.614703 
L 320.636897 132.669035 
L 315.731379 132.722458 
L 310.825862 132.77473 
L 305.920345 132.825673 
L 301.014828 132.87422 
L 296.10931 132.918188 
L 291.203793 132.958318 
L 286.298276 132.993912 
L 281.392759 133.023588 
L 276.487241 133.043922 
L 271.581724 133.056125 
L 266.676207 133.059032 
L 261.77069 133.051404 
L 256.865172 133.031994 
L 251.959655 132.996335 
L 247.054138 132.946098 
L 242.148621 132.881003 
L 237.243103 132.800382 
L 232.337586 132.703341 
L 227.432069 132.588326 
L 222.526552 132.45249 
L 217.621034 132.290866 
L 212.715517 132.095689 
L 207.81 131.857389 
L 202.904483 131.570234 
L 199.763688 131.360773 
L 197.998966 131.206725 
L 193.093448 130.766332 
L 188.187931 130.30342 
L 183.282414 129.791387 
L 180.077575 129.424241 
L 178.376897 129.163081 
L 173.471379 128.382963 
L 168.565862 127.582524 
L 168.051582 127.48771 
L 163.660345 126.55562 
L 158.803497 125.551179 
L 158.754828 125.540216 
L 153.84931 124.343678 
L 151.152278 123.614648 
L 148.943793 123.028992 
L 144.038276 121.687524 
L 144.005119 121.678117 
L 139.132759 120.281214 
L 137.250746 119.741586 
L 134.227241 118.727856 
L 131.134807 117.805054 
L 129.321724 117.171276 
L 125.333563 115.868523 
L 124.416207 115.542575 
L 119.972571 113.931992 
L 119.51069 113.760481 
L 115.579278 111.995461 
L 114.605172 111.567147 
L 111.311827 110.05893 
L 109.699655 109.282488 
L 104.916364 108.122399 
L 104.794138 108.088061 
L 104.707675 108.122399 
L 99.888621 109.879069 
L 99.709184 110.05893 
L 97.754254 111.995461 
L 95.657741 113.931992 
L 94.983103 114.568921 
L 93.93291 115.868523 
L 92.693541 117.805054 
L 91.635891 119.741586 
L 90.662901 121.678117 
L 90.077586 122.926142 
L 89.713229 123.614648 
L 88.798288 125.551179 
L 88.017987 127.48771 
L 87.339023 129.424241 
L 86.734697 131.360773 
L 86.18416 133.297304 
L 85.66991 135.233835 
L 85.177207 137.170366 
L 85.172069 137.190915 
L 84.644241 139.106897 
L 84.198979 141.043428 
L 83.705643 142.97996 
L 83.287263 144.916491 
L 82.8802 146.853022 
L 82.478013 148.789553 
L 82.078216 150.726084 
L 81.680531 152.662615 
L 81.284916 154.599146 
L 80.890348 156.535678 
L 80.494859 158.472209 
L 80.266552 159.578957 
L 80.118685 160.40874 
L 79.823246 162.345271 
L 79.582423 164.281802 
L 79.381992 166.218333 
L 79.161244 168.154865 
L 78.884899 170.091396 
L 78.594049 172.027927 
L 78.283355 173.964458 
L 77.939693 175.900989 
L 77.511067 177.83752 
L 76.730177 179.774052 
L 75.361034 181.54138 
L 75.135422 181.710583 
L 74.092096 183.647114 
L 73.244399 185.583645 
L 72.204789 187.520176 
L 70.660095 189.456707 
L 70.455517 189.802017 
L 67.916203 191.393239 
L 66.047305 193.32977 
L 65.55 193.863072 
L 65.55 195.266301 
L 65.55 197.202832 
L 67.167947 197.202832 
z
" style="fill:#75c477;stroke:#75c477;"/>
    <path clip-path="url(#p8d936766ca)" d="M 66.16087 141.043428 
L 66.871284 139.106897 
L 67.558719 137.170366 
L 68.252352 135.233835 
L 68.976968 133.297304 
L 69.751605 131.360773 
L 70.455517 129.724114 
L 70.552636 129.424241 
L 71.181906 127.48771 
L 71.813562 125.551179 
L 72.453346 123.614648 
L 73.109907 121.678117 
L 73.794685 119.741586 
L 74.522943 117.805054 
L 75.315935 115.868523 
L 75.361034 115.766401 
L 75.583013 113.931992 
L 75.837376 111.995461 
L 76.113626 110.05893 
L 76.435547 108.122399 
L 77.148858 106.185867 
L 77.668835 104.249336 
L 78.225031 102.312805 
L 78.864334 100.376274 
L 79.656579 98.439743 
L 80.266552 97.251061 
L 80.616199 96.503212 
L 81.658864 94.56668 
L 82.880725 92.630149 
L 84.200223 90.693618 
L 85.172069 89.381254 
L 86.265142 88.757087 
L 89.765565 86.820556 
L 90.077586 86.657412 
L 94.983103 85.120653 
L 95.269187 84.884025 
L 97.891894 82.947493 
L 99.888621 81.653483 
L 100.707982 81.010962 
L 102.748515 79.074431 
L 104.718255 77.1379 
L 104.794138 77.071233 
L 109.038801 75.201369 
L 109.699655 74.784376 
L 114.605172 74.650547 
L 116.628656 75.201369 
L 119.51069 76.024956 
L 122.061076 77.1379 
L 124.416207 78.1455 
L 126.208366 79.074431 
L 129.321724 80.65556 
L 129.9386 81.010962 
L 133.315167 82.947493 
L 134.227241 83.477708 
L 136.556823 84.884025 
L 139.132759 86.433824 
L 139.740445 86.820556 
L 142.926756 88.757087 
L 144.038276 89.418735 
L 146.063565 90.693618 
L 148.943793 92.344041 
L 149.404563 92.630149 
L 152.727275 94.56668 
L 153.84931 95.163769 
L 156.23317 96.503212 
L 158.754828 97.800517 
L 159.983245 98.439743 
L 163.660345 100.243817 
L 163.939706 100.376274 
L 168.20161 102.312805 
L 168.565862 102.468667 
L 172.884463 104.249336 
L 173.471379 104.480742 
L 178.08682 106.185867 
L 178.376897 106.288714 
L 183.282414 107.906841 
L 183.984024 108.122399 
L 188.187931 109.357262 
L 190.729269 110.05893 
L 193.093448 110.679371 
L 197.998966 111.900072 
L 198.406709 111.995461 
L 202.904483 113.004951 
L 207.350603 113.931992 
L 207.81 114.022665 
L 212.715517 114.969048 
L 217.621034 115.834459 
L 217.820828 115.868523 
L 222.526552 116.655111 
L 227.432069 117.41424 
L 230.141587 117.805054 
L 232.337586 118.114323 
L 237.243103 118.786581 
L 242.148621 119.399428 
L 245.075231 119.741586 
L 247.054138 119.965301 
L 251.959655 120.509865 
L 256.865172 121.015475 
L 261.77069 121.474012 
L 264.0561 121.678117 
L 266.676207 121.900853 
L 271.581724 122.312963 
L 276.487241 122.702012 
L 281.392759 123.062902 
L 286.298276 123.396351 
L 289.638777 123.614648 
L 291.203793 123.707909 
L 296.10931 123.99932 
L 301.014828 124.281188 
L 305.920345 124.545747 
L 310.825862 124.795815 
L 315.731379 125.034082 
L 320.636897 125.260699 
L 325.542414 125.474663 
L 327.330362 125.551179 
L 330.447931 125.66613 
L 335.353448 125.843868 
L 340.258966 126.013276 
L 345.164483 126.178675 
L 350.07 126.338745 
L 354.975517 126.49104 
L 359.881034 126.639456 
L 364.786552 126.781215 
L 364.786552 125.551179 
L 364.786552 124.761261 
L 359.881034 124.551094 
L 354.975517 124.331955 
L 350.07 124.108318 
L 345.164483 123.875138 
L 340.258966 123.635286 
L 339.838792 123.614648 
L 335.353448 123.371489 
L 330.447931 123.088406 
L 325.542414 122.792434 
L 320.636897 122.48536 
L 315.731379 122.163429 
L 310.825862 121.831601 
L 308.581987 121.678117 
L 305.920345 121.479986 
L 301.014828 121.101012 
L 296.10931 120.697447 
L 291.203793 120.276279 
L 286.298276 119.842185 
L 285.172146 119.741586 
L 281.392759 119.377518 
L 276.487241 118.876705 
L 271.581724 118.348235 
L 266.711381 117.805054 
L 266.676207 117.800909 
L 261.77069 117.212371 
L 256.865172 116.585384 
L 251.959655 115.922008 
L 251.567993 115.868523 
L 247.054138 115.215223 
L 242.148621 114.456341 
L 238.896055 113.931992 
L 237.243103 113.655236 
L 232.337586 112.795839 
L 228.06432 111.995461 
L 227.432069 111.873607 
L 222.526552 110.892049 
L 218.65749 110.05893 
L 217.621034 109.830395 
L 212.715517 108.693576 
L 210.398923 108.122399 
L 207.81 107.468897 
L 203.080796 106.185867 
L 202.904483 106.136754 
L 197.998966 104.711544 
L 196.489221 104.249336 
L 193.093448 103.17349 
L 190.487138 102.312805 
L 188.187931 101.520845 
L 184.963886 100.376274 
L 183.282414 99.751709 
L 179.859763 98.439743 
L 178.376897 97.849037 
L 175.135967 96.503212 
L 173.471379 95.790112 
L 170.74818 94.56668 
L 168.565862 93.555603 
L 166.653149 92.630149 
L 163.660345 91.156387 
L 162.790256 90.693618 
L 159.099006 88.757087 
L 158.754828 88.574421 
L 155.773321 86.820556 
L 153.84931 85.745628 
L 152.497886 84.884025 
L 149.365048 82.947493 
L 148.943793 82.695945 
L 146.440959 81.010962 
L 144.038276 79.437591 
L 143.498929 79.074431 
L 140.737304 77.1379 
L 139.132759 76.014446 
L 137.931779 75.201369 
L 135.244104 73.264838 
L 134.227241 72.526745 
L 132.418523 71.328307 
L 129.711461 69.391775 
L 129.321724 69.112732 
L 126.448175 67.455244 
L 124.416207 66.216228 
L 122.810694 65.518713 
L 119.51069 64.111608 
L 114.605172 63.640813 
L 109.979431 65.518713 
L 109.699655 65.622943 
L 107.196466 67.455244 
L 104.839842 69.391775 
L 104.794138 69.427401 
L 102.723707 71.328307 
L 100.685162 73.264838 
L 99.888621 74.040167 
L 98.537524 75.201369 
L 96.066162 77.1379 
L 94.983103 77.905349 
L 90.713608 79.074431 
L 90.077586 79.247085 
L 86.039802 81.010962 
L 85.172069 81.389968 
L 83.489967 82.947493 
L 81.878678 84.884025 
L 80.446144 86.820556 
L 80.266552 87.079023 
L 78.030579 88.757087 
L 76.512833 90.693618 
L 75.575052 92.630149 
L 75.361034 93.219807 
L 73.424158 94.56668 
L 71.307538 96.503212 
L 70.455517 97.729242 
L 69.873261 96.503212 
L 68.762917 94.56668 
L 66.974422 92.630149 
L 65.55 91.806559 
L 65.55 92.630149 
L 65.55 94.56668 
L 65.55 96.503212 
L 65.55 98.439743 
L 65.55 100.376274 
L 65.55 101.126915 
L 67.110128 102.312805 
L 67.893225 104.249336 
L 68.203948 106.185867 
L 68.152243 108.122399 
L 67.344023 110.05893 
L 66.028131 111.995461 
L 65.55 112.300735 
L 65.55 113.931992 
L 65.55 115.868523 
L 65.55 117.805054 
L 65.55 119.741586 
L 65.55 121.678117 
L 65.55 123.614648 
L 65.55 125.551179 
L 65.55 127.48771 
L 65.55 129.424241 
L 65.55 131.360773 
L 65.55 133.297304 
L 65.55 135.233835 
L 65.55 137.170366 
L 65.55 139.106897 
L 65.55 141.043428 
L 65.55 142.59451 
z
" style="fill:#75c477;stroke:#75c477;"/>
   </g>
   <g id="PathCollection_4">
    <path clip-path="url(#p8d936766ca)" d="M 70.455517 197.202832 
L 70.829463 197.202832 
L 72.612853 195.266301 
L 74.40599 193.32977 
L 75.361034 191.587633 
L 75.488335 191.393239 
L 76.757806 189.456707 
L 78.071625 187.520176 
L 79.184374 185.583645 
L 80.02061 183.647114 
L 80.266552 183.007417 
L 80.812204 181.710583 
L 81.562791 179.774052 
L 82.254008 177.83752 
L 82.881885 175.900989 
L 83.451085 173.964458 
L 83.977237 172.027927 
L 84.480544 170.091396 
L 84.976986 168.154865 
L 85.172069 167.388854 
L 85.488167 166.218333 
L 85.985733 164.281802 
L 86.451108 162.345271 
L 86.890583 160.40874 
L 87.312525 158.472209 
L 87.725378 156.535678 
L 88.141008 154.599146 
L 88.574707 152.662615 
L 89.038799 150.726084 
L 89.535375 148.789553 
L 90.054745 146.853022 
L 90.077586 146.768149 
L 90.480255 144.916491 
L 90.983923 142.97996 
L 91.416112 141.043428 
L 91.875022 139.106897 
L 92.384752 137.170366 
L 92.945374 135.233835 
L 93.563918 133.297304 
L 94.270159 131.360773 
L 94.983103 129.686449 
L 95.099921 129.424241 
L 96.245066 127.48771 
L 97.705726 125.551179 
L 99.11363 123.614648 
L 99.888621 122.538392 
L 103.149948 121.678117 
L 104.794138 121.345126 
L 105.693598 121.678117 
L 109.371801 123.614648 
L 109.699655 123.825699 
L 114.605172 125.095966 
L 116.352628 125.551179 
L 119.51069 126.33466 
L 123.229013 127.48771 
L 124.416207 127.833607 
L 129.321724 129.17116 
L 130.384104 129.424241 
L 134.227241 130.304207 
L 139.132759 131.277829 
L 139.614186 131.360773 
L 144.038276 132.128738 
L 148.943793 132.86156 
L 152.381507 133.297304 
L 153.84931 133.463164 
L 158.754828 133.969232 
L 163.660345 134.422254 
L 168.565862 134.815722 
L 173.471379 135.148986 
L 174.930342 135.233835 
L 178.376897 135.467935 
L 183.282414 135.791581 
L 188.187931 136.077933 
L 193.093448 136.307862 
L 197.998966 136.454962 
L 202.904483 136.53643 
L 207.81 136.57956 
L 212.715517 136.597035 
L 217.621034 136.594723 
L 222.526552 136.576073 
L 227.432069 136.54354 
L 232.337586 136.498978 
L 237.243103 136.443749 
L 242.148621 136.378751 
L 247.054138 136.304403 
L 251.959655 136.22055 
L 256.865172 136.126061 
L 261.77069 136.017696 
L 266.676207 135.892764 
L 271.581724 135.743984 
L 276.487241 135.564587 
L 281.392759 135.367693 
L 284.863679 135.233835 
L 286.298276 135.193445 
L 291.203793 135.073489 
L 296.10931 134.968872 
L 301.014828 134.874041 
L 305.920345 134.785439 
L 310.825862 134.700772 
L 315.731379 134.617598 
L 320.636897 134.533342 
L 325.542414 134.445865 
L 330.447931 134.354282 
L 335.353448 134.257691 
L 340.258966 134.111253 
L 345.164483 134.002794 
L 350.07 133.917973 
L 354.975517 133.833431 
L 359.881034 133.74442 
L 364.786552 133.647744 
L 364.786552 133.297304 
L 364.786552 132.970293 
L 359.881034 133.047805 
L 354.975517 133.12478 
L 350.07 133.209113 
L 345.246161 133.297304 
L 345.164483 133.298738 
L 340.258966 133.380275 
L 335.353448 133.467062 
L 330.447931 133.545609 
L 325.542414 133.620419 
L 320.636897 133.691774 
L 315.731379 133.759539 
L 310.825862 133.824481 
L 305.920345 133.88787 
L 301.014828 133.950769 
L 296.10931 134.013852 
L 291.203793 134.079418 
L 286.298276 134.150172 
L 281.392759 134.230107 
L 276.487241 134.321469 
L 271.581724 134.418475 
L 266.676207 134.507824 
L 261.77069 134.586143 
L 256.865172 134.654239 
L 251.959655 134.709875 
L 247.054138 134.753632 
L 242.148621 134.783869 
L 237.243103 134.798072 
L 232.337586 134.7935 
L 227.432069 134.767522 
L 222.526552 134.717771 
L 217.621034 134.64191 
L 212.715517 134.536704 
L 207.81 134.39604 
L 202.904483 134.207517 
L 197.998966 133.951328 
L 193.093448 133.625968 
L 188.411256 133.297304 
L 188.187931 133.28062 
L 183.282414 132.89342 
L 178.376897 132.402194 
L 173.471379 131.827321 
L 169.370709 131.360773 
L 168.565862 131.253902 
L 163.660345 130.475253 
L 158.754828 129.689527 
L 157.125133 129.424241 
L 153.84931 128.752616 
L 148.943793 127.682487 
L 148.044813 127.48771 
L 144.038276 126.535177 
L 140.072775 125.551179 
L 139.132759 125.314788 
L 134.227241 123.992524 
L 132.927597 123.614648 
L 129.321724 122.60025 
L 126.473904 121.678117 
L 124.416207 121.038127 
L 120.78046 119.741586 
L 119.51069 119.279907 
L 115.586147 117.805054 
L 114.605172 117.406182 
L 109.699655 116.137708 
L 107.397196 115.868523 
L 104.794138 115.580938 
L 103.47039 115.868523 
L 99.888621 116.581704 
L 98.601419 117.805054 
L 96.743954 119.741586 
L 95.356852 121.678117 
L 94.983103 122.233005 
L 94.18771 123.614648 
L 93.128674 125.551179 
L 92.190084 127.48771 
L 91.378817 129.424241 
L 90.665999 131.360773 
L 90.077586 133.164035 
L 90.03117 133.297304 
L 89.429622 135.233835 
L 88.89481 137.170366 
L 88.396122 139.106897 
L 87.909179 141.043428 
L 87.42002 142.97996 
L 86.926022 144.916491 
L 86.434296 146.853022 
L 85.957462 148.789553 
L 85.506956 150.726084 
L 85.172069 152.264741 
L 85.088509 152.662615 
L 84.695654 154.599146 
L 84.305686 156.535678 
L 83.90811 158.472209 
L 83.495942 160.40874 
L 83.06664 162.345271 
L 82.621604 164.281802 
L 82.164297 166.218333 
L 81.697171 168.154865 
L 81.218417 170.091396 
L 80.720626 172.027927 
L 80.266552 173.69455 
L 80.222758 173.964458 
L 79.884204 175.900989 
L 79.499565 177.83752 
L 78.949361 179.774052 
L 77.974786 181.710583 
L 77.1712 183.647114 
L 76.351755 185.583645 
L 75.361034 187.009028 
L 75.009285 187.520176 
L 73.633926 189.456707 
L 72.491686 191.393239 
L 71.566389 193.32977 
L 70.455517 194.235908 
L 68.729264 195.266301 
L 67.167947 197.202832 
z
" style="fill:#b8e3b2;stroke:#b8e3b2;"/>
    <path clip-path="url(#p8d936766ca)" d="M 340.258966 123.635286 
L 345.164483 123.875138 
L 350.07 124.108318 
L 354.975517 124.331955 
L 359.881034 124.551094 
L 364.786552 124.761261 
L 364.786552 123.614648 
L 364.786552 122.625602 
L 359.881034 122.339094 
L 354.975517 122.027556 
L 350.07 121.70425 
L 349.673468 121.678117 
L 345.164483 121.386285 
L 340.258966 121.069123 
L 335.353448 120.729308 
L 330.447931 120.346292 
L 325.542414 119.931063 
L 323.328126 119.741586 
L 320.636897 119.519764 
L 315.731379 119.1137 
L 310.825862 118.669715 
L 305.920345 118.173999 
L 302.478914 117.805054 
L 301.014828 117.655248 
L 296.10931 117.156349 
L 291.203793 116.607408 
L 286.298276 115.987049 
L 285.375353 115.868523 
L 281.392759 115.391321 
L 276.487241 114.756909 
L 271.581724 114.02695 
L 270.953488 113.931992 
L 266.676207 113.330959 
L 261.77069 112.570527 
L 258.454875 111.995461 
L 256.865172 111.735407 
L 251.959655 110.910838 
L 247.603958 110.05893 
L 247.054138 109.95557 
L 242.148621 109.039079 
L 237.930095 108.122399 
L 237.243103 107.977937 
L 232.337586 106.939523 
L 229.203798 106.185867 
L 227.432069 105.773738 
L 222.526552 104.561935 
L 221.343771 104.249336 
L 217.621034 103.294472 
L 214.154612 102.312805 
L 212.715517 101.907063 
L 207.81 100.440498 
L 207.60413 100.376274 
L 202.904483 98.921285 
L 201.461682 98.439743 
L 197.998966 97.278906 
L 195.822153 96.503212 
L 193.093448 95.51562 
L 190.601926 94.56668 
L 188.187931 93.625176 
L 185.752643 92.630149 
L 183.282414 91.592995 
L 181.240579 90.693618 
L 178.376897 89.398179 
L 177.014647 88.757087 
L 173.471379 87.021024 
L 173.064727 86.820556 
L 169.363898 84.884025 
L 168.565862 84.446067 
L 165.794575 82.947493 
L 163.660345 81.721282 
L 162.420638 81.010962 
L 159.154334 79.074431 
L 158.754828 78.827549 
L 156.113516 77.1379 
L 153.84931 75.693941 
L 153.091106 75.201369 
L 150.289272 73.264838 
L 148.943793 72.346671 
L 147.466397 71.328307 
L 144.77498 69.391775 
L 144.038276 68.867617 
L 142.066658 67.455244 
L 139.416998 65.518713 
L 139.132759 65.31363 
L 136.707564 63.582182 
L 134.227241 61.822296 
L 133.974077 61.645651 
L 131.103119 59.70912 
L 129.321724 58.538751 
L 127.92889 57.772588 
L 124.416207 55.969552 
L 124.024303 55.836057 
L 119.51069 54.420415 
L 114.605172 54.627385 
L 110.534047 55.836057 
L 109.699655 56.100875 
L 107.028039 57.772588 
L 104.794138 59.079377 
L 104.375845 59.70912 
L 103.021383 61.645651 
L 101.349447 63.582182 
L 99.888621 64.945858 
L 99.262817 65.518713 
L 97.289487 67.455244 
L 95.316187 69.391775 
L 94.983103 69.704211 
L 93.597046 71.328307 
L 91.20142 73.264838 
L 90.077586 73.902392 
L 86.103781 75.201369 
L 85.172069 75.570591 
L 80.266552 76.763381 
L 75.950658 75.201369 
L 75.361034 74.902157 
L 71.269291 73.264838 
L 70.455517 72.836516 
L 65.568172 71.328307 
L 65.55 71.32069 
L 65.55 71.328307 
L 65.55 73.264838 
L 65.55 75.201369 
L 65.55 77.1379 
L 65.55 79.074431 
L 65.55 81.010962 
L 65.55 82.947493 
L 65.55 84.884025 
L 65.55 86.820556 
L 65.55 88.757087 
L 65.55 90.693618 
L 65.55 91.806559 
L 66.974422 92.630149 
L 68.762917 94.56668 
L 69.873261 96.503212 
L 70.455517 97.729242 
L 71.307538 96.503212 
L 73.424158 94.56668 
L 75.361034 93.219807 
L 75.575052 92.630149 
L 76.512833 90.693618 
L 78.030579 88.757087 
L 80.266552 87.079023 
L 80.446144 86.820556 
L 81.878678 84.884025 
L 83.489967 82.947493 
L 85.172069 81.389968 
L 86.039802 81.010962 
L 90.077586 79.247085 
L 90.713608 79.074431 
L 94.983103 77.905349 
L 96.066162 77.1379 
L 98.537524 75.201369 
L 99.888621 74.040167 
L 100.685162 73.264838 
L 102.723707 71.328307 
L 104.794138 69.427401 
L 104.839842 69.391775 
L 107.196466 67.455244 
L 109.699655 65.622943 
L 109.979431 65.518713 
L 114.605172 63.640813 
L 119.51069 64.111608 
L 122.810694 65.518713 
L 124.416207 66.216228 
L 126.448175 67.455244 
L 129.321724 69.112732 
L 129.711461 69.391775 
L 132.418523 71.328307 
L 134.227241 72.526745 
L 135.244104 73.264838 
L 137.931779 75.201369 
L 139.132759 76.014446 
L 140.737304 77.1379 
L 143.498929 79.074431 
L 144.038276 79.437591 
L 146.440959 81.010962 
L 148.943793 82.695945 
L 149.365048 82.947493 
L 152.497886 84.884025 
L 153.84931 85.745628 
L 155.773321 86.820556 
L 158.754828 88.574421 
L 159.099006 88.757087 
L 162.790256 90.693618 
L 163.660345 91.156387 
L 166.653149 92.630149 
L 168.565862 93.555603 
L 170.74818 94.56668 
L 173.471379 95.790112 
L 175.135967 96.503212 
L 178.376897 97.849037 
L 179.859763 98.439743 
L 183.282414 99.751709 
L 184.963886 100.376274 
L 188.187931 101.520845 
L 190.487138 102.312805 
L 193.093448 103.17349 
L 196.489221 104.249336 
L 197.998966 104.711544 
L 202.904483 106.136754 
L 203.080796 106.185867 
L 207.81 107.468897 
L 210.398923 108.122399 
L 212.715517 108.693576 
L 217.621034 109.830395 
L 218.65749 110.05893 
L 222.526552 110.892049 
L 227.432069 111.873607 
L 228.06432 111.995461 
L 232.337586 112.795839 
L 237.243103 113.655236 
L 238.896055 113.931992 
L 242.148621 114.456341 
L 247.054138 115.215223 
L 251.567993 115.868523 
L 251.959655 115.922008 
L 256.865172 116.585384 
L 261.77069 117.212371 
L 266.676207 117.800909 
L 266.711381 117.805054 
L 271.581724 118.348235 
L 276.487241 118.876705 
L 281.392759 119.377518 
L 285.172146 119.741586 
L 286.298276 119.842185 
L 291.203793 120.276279 
L 296.10931 120.697447 
L 301.014828 121.101012 
L 305.920345 121.479986 
L 308.581987 121.678117 
L 310.825862 121.831601 
L 315.731379 122.163429 
L 320.636897 122.48536 
L 325.542414 122.792434 
L 330.447931 123.088406 
L 335.353448 123.371489 
L 339.838792 123.614648 
z
" style="fill:#b8e3b2;stroke:#b8e3b2;"/>
    <path clip-path="url(#p8d936766ca)" d="M 66.028131 111.995461 
L 67.344023 110.05893 
L 68.152243 108.122399 
L 68.203948 106.185867 
L 67.893225 104.249336 
L 67.110128 102.312805 
L 65.55 101.126915 
L 65.55 102.312805 
L 65.55 104.249336 
L 65.55 106.185867 
L 65.55 108.122399 
L 65.55 110.05893 
L 65.55 111.995461 
L 65.55 112.300735 
z
" style="fill:#b8e3b2;stroke:#b8e3b2;"/>
   </g>
   <g id="PathCollection_5">
    <path clip-path="url(#p8d936766ca)" d="M 75.361034 196.814148 
L 76.360207 195.266301 
L 77.627917 193.32977 
L 78.880384 191.393239 
L 80.089554 189.456707 
L 80.266552 189.15845 
L 81.103156 187.520176 
L 82.090579 185.583645 
L 83.039581 183.647114 
L 83.930583 181.710583 
L 84.751946 179.774052 
L 85.172069 178.663976 
L 85.437803 177.83752 
L 86.045706 175.900989 
L 86.669496 173.964458 
L 87.298453 172.027927 
L 87.906879 170.091396 
L 88.466379 168.154865 
L 88.965997 166.218333 
L 89.419213 164.281802 
L 89.851073 162.345271 
L 90.077586 161.324365 
L 90.24581 160.40874 
L 90.639645 158.472209 
L 91.079565 156.535678 
L 91.577533 154.599146 
L 92.126847 152.662615 
L 93.118914 150.726084 
L 93.591383 148.789553 
L 93.240824 146.853022 
L 93.405725 144.916491 
L 94.250532 142.97996 
L 94.660014 141.043428 
L 94.983103 139.807432 
L 95.128187 139.106897 
L 95.598729 137.170366 
L 96.099782 135.233835 
L 96.706213 133.297304 
L 97.581822 131.360773 
L 98.870887 129.424241 
L 99.888621 128.268625 
L 102.034047 127.48771 
L 104.794138 126.406381 
L 106.833189 127.48771 
L 109.699655 128.84731 
L 110.889456 129.424241 
L 113.832056 131.360773 
L 114.605172 131.94255 
L 118.037353 133.297304 
L 119.51069 133.960149 
L 123.761354 135.233835 
L 124.416207 135.401314 
L 129.321724 136.44157 
L 133.68833 137.170366 
L 134.227241 137.204947 
L 139.132759 137.506234 
L 144.038276 138.134094 
L 148.943793 138.332849 
L 153.84931 138.484064 
L 158.754828 138.704593 
L 163.660345 138.950159 
L 167.375645 139.106897 
L 168.565862 139.172311 
L 173.471379 139.396138 
L 178.376897 139.542055 
L 183.282414 139.632284 
L 188.187931 139.675033 
L 193.093448 139.674349 
L 197.998966 139.632598 
L 202.904483 139.551839 
L 207.81 139.433382 
L 212.715517 139.240771 
L 217.621034 139.11539 
L 217.945441 139.106897 
L 222.526552 138.978899 
L 227.432069 138.829454 
L 232.337586 138.670229 
L 237.243103 138.499341 
L 242.148621 138.302749 
L 247.054138 137.957878 
L 251.959655 137.783917 
L 256.865172 137.638659 
L 261.77069 137.487642 
L 266.676207 137.319589 
L 270.49654 137.170366 
L 271.581724 137.137871 
L 276.487241 136.978297 
L 281.392759 136.796764 
L 286.298276 136.488612 
L 291.203793 136.272435 
L 296.10931 136.131834 
L 301.014828 136.003858 
L 305.920345 135.878396 
L 310.825862 135.750404 
L 315.731379 135.615496 
L 320.636897 135.468119 
L 325.542414 135.299932 
L 327.21633 135.233835 
L 330.447931 135.162955 
L 335.353448 135.048319 
L 340.258966 134.842231 
L 345.164483 134.70685 
L 350.07 134.623498 
L 354.975517 134.549124 
L 359.881034 134.475443 
L 364.786552 134.398858 
L 364.786552 133.647744 
L 359.881034 133.74442 
L 354.975517 133.833431 
L 350.07 133.917973 
L 345.164483 134.002794 
L 340.258966 134.111253 
L 335.353448 134.257691 
L 330.447931 134.354282 
L 325.542414 134.445865 
L 320.636897 134.533342 
L 315.731379 134.617598 
L 310.825862 134.700772 
L 305.920345 134.785439 
L 301.014828 134.874041 
L 296.10931 134.968872 
L 291.203793 135.073489 
L 286.298276 135.193445 
L 284.863679 135.233835 
L 281.392759 135.367693 
L 276.487241 135.564587 
L 271.581724 135.743984 
L 266.676207 135.892764 
L 261.77069 136.017696 
L 256.865172 136.126061 
L 251.959655 136.22055 
L 247.054138 136.304403 
L 242.148621 136.378751 
L 237.243103 136.443749 
L 232.337586 136.498978 
L 227.432069 136.54354 
L 222.526552 136.576073 
L 217.621034 136.594723 
L 212.715517 136.597035 
L 207.81 136.57956 
L 202.904483 136.53643 
L 197.998966 136.454962 
L 193.093448 136.307862 
L 188.187931 136.077933 
L 183.282414 135.791581 
L 178.376897 135.467935 
L 174.930342 135.233835 
L 173.471379 135.148986 
L 168.565862 134.815722 
L 163.660345 134.422254 
L 158.754828 133.969232 
L 153.84931 133.463164 
L 152.381507 133.297304 
L 148.943793 132.86156 
L 144.038276 132.128738 
L 139.614186 131.360773 
L 139.132759 131.277829 
L 134.227241 130.304207 
L 130.384104 129.424241 
L 129.321724 129.17116 
L 124.416207 127.833607 
L 123.229013 127.48771 
L 119.51069 126.33466 
L 116.352628 125.551179 
L 114.605172 125.095966 
L 109.699655 123.825699 
L 109.371801 123.614648 
L 105.693598 121.678117 
L 104.794138 121.345126 
L 103.149948 121.678117 
L 99.888621 122.538392 
L 99.11363 123.614648 
L 97.705726 125.551179 
L 96.245066 127.48771 
L 95.099921 129.424241 
L 94.983103 129.686449 
L 94.270159 131.360773 
L 93.563918 133.297304 
L 92.945374 135.233835 
L 92.384752 137.170366 
L 91.875022 139.106897 
L 91.416112 141.043428 
L 90.983923 142.97996 
L 90.480255 144.916491 
L 90.077586 146.768149 
L 90.054745 146.853022 
L 89.535375 148.789553 
L 89.038799 150.726084 
L 88.574707 152.662615 
L 88.141008 154.599146 
L 87.725378 156.535678 
L 87.312525 158.472209 
L 86.890583 160.40874 
L 86.451108 162.345271 
L 85.985733 164.281802 
L 85.488167 166.218333 
L 85.172069 167.388854 
L 84.976986 168.154865 
L 84.480544 170.091396 
L 83.977237 172.027927 
L 83.451085 173.964458 
L 82.881885 175.900989 
L 82.254008 177.83752 
L 81.562791 179.774052 
L 80.812204 181.710583 
L 80.266552 183.007417 
L 80.02061 183.647114 
L 79.184374 185.583645 
L 78.071625 187.520176 
L 76.757806 189.456707 
L 75.488335 191.393239 
L 75.361034 191.587633 
L 74.40599 193.32977 
L 72.612853 195.266301 
L 70.829463 197.202832 
L 75.050659 197.202832 
z
" style="fill:#e9f7e5;stroke:#e9f7e5;"/>
    <path clip-path="url(#p8d936766ca)" d="M 350.07 121.70425 
L 354.975517 122.027556 
L 359.881034 122.339094 
L 364.786552 122.625602 
L 364.786552 121.678117 
L 364.786552 120.185357 
L 359.881034 119.886629 
L 357.407641 119.741586 
L 354.975517 119.534572 
L 350.07 119.103472 
L 345.164483 118.66762 
L 340.258966 118.251878 
L 335.353448 117.874924 
L 334.429687 117.805054 
L 330.447931 117.384254 
L 325.542414 116.85967 
L 320.636897 116.353309 
L 315.731379 115.884917 
L 315.556026 115.868523 
L 310.825862 115.276248 
L 305.920345 114.665677 
L 301.014828 114.08928 
L 299.62692 113.931992 
L 296.10931 113.426534 
L 291.203793 112.71952 
L 286.298276 112.053831 
L 285.856776 111.995461 
L 281.392759 111.267025 
L 276.487241 110.470201 
L 273.832674 110.05893 
L 271.581724 109.650586 
L 266.676207 108.751483 
L 263.105228 108.122399 
L 261.77069 107.855633 
L 256.865172 106.858251 
L 253.483881 106.185867 
L 251.959655 105.848856 
L 247.054138 104.747232 
L 244.80052 104.249336 
L 242.148621 103.606305 
L 237.243103 102.413687 
L 236.830145 102.312805 
L 232.337586 101.116826 
L 229.560336 100.376274 
L 227.432069 99.774199 
L 222.785102 98.439743 
L 222.526552 98.362023 
L 217.621034 96.83903 
L 216.5668 96.503212 
L 212.715517 95.23234 
L 210.770144 94.56668 
L 207.81 93.531677 
L 205.348045 92.630149 
L 202.904483 91.725089 
L 200.266289 90.693618 
L 197.998966 89.803243 
L 195.486555 88.757087 
L 193.093448 87.758198 
L 190.970711 86.820556 
L 188.187931 85.581485 
L 186.694162 84.884025 
L 183.282414 83.259621 
L 182.652924 82.947493 
L 178.82926 81.010962 
L 178.376897 80.784511 
L 175.182948 79.074431 
L 173.471379 78.153097 
L 171.727798 77.1379 
L 168.565862 75.282015 
L 168.438381 75.201369 
L 165.427231 73.264838 
L 163.660345 72.146187 
L 162.465743 71.328307 
L 159.788644 69.391775 
L 158.754828 68.670605 
L 157.077133 67.455244 
L 154.67421 65.518713 
L 153.84931 64.863951 
L 152.122175 63.582182 
L 149.842549 61.645651 
L 148.943793 60.831758 
L 147.505409 59.70912 
L 145.193061 57.772588 
L 144.038276 56.723945 
L 142.967899 55.836057 
L 140.74273 53.899526 
L 139.132759 52.571877 
L 138.344185 51.962995 
L 136.013933 50.026464 
L 134.227241 48.653815 
L 133.367335 48.089933 
L 130.506907 46.153401 
L 129.321724 45.340835 
L 126.724426 44.21687 
L 124.416207 43.155392 
L 121.169491 42.280339 
L 119.51069 41.823061 
L 114.605172 42.020037 
L 114.301189 42.280339 
L 110.924942 44.21687 
L 109.699655 44.698668 
L 108.99826 46.153401 
L 107.761364 48.089933 
L 106.09201 50.026464 
L 104.794138 51.196953 
L 104.229266 51.962995 
L 102.725671 53.899526 
L 101.133363 55.836057 
L 99.888621 57.372954 
L 99.682885 57.772588 
L 98.441618 59.70912 
L 95.310997 61.645651 
L 94.983103 61.966373 
L 94.551681 63.582182 
L 93.810361 65.518713 
L 92.702076 67.455244 
L 90.077586 69.337757 
L 89.693868 69.391775 
L 85.172069 70.715392 
L 82.760583 69.391775 
L 80.79586 67.455244 
L 80.266552 66.736035 
L 78.817436 65.518713 
L 76.943516 63.582182 
L 75.523125 61.645651 
L 75.361034 61.388886 
L 73.748578 59.70912 
L 72.220438 57.772588 
L 70.963922 55.836057 
L 70.455517 54.947709 
L 69.617744 53.899526 
L 68.270105 51.962995 
L 67.142791 50.026464 
L 66.184074 48.089933 
L 65.55 46.647833 
L 65.55 48.089933 
L 65.55 50.026464 
L 65.55 51.962995 
L 65.55 53.899526 
L 65.55 55.836057 
L 65.55 57.772588 
L 65.55 59.70912 
L 65.55 61.645651 
L 65.55 63.582182 
L 65.55 65.518713 
L 65.55 67.455244 
L 65.55 69.391775 
L 65.55 71.32069 
L 65.568172 71.328307 
L 70.455517 72.836516 
L 71.269291 73.264838 
L 75.361034 74.902157 
L 75.950658 75.201369 
L 80.266552 76.763381 
L 85.172069 75.570591 
L 86.103781 75.201369 
L 90.077586 73.902392 
L 91.20142 73.264838 
L 93.597046 71.328307 
L 94.983103 69.704211 
L 95.316187 69.391775 
L 97.289487 67.455244 
L 99.262817 65.518713 
L 99.888621 64.945858 
L 101.349447 63.582182 
L 103.021383 61.645651 
L 104.375845 59.70912 
L 104.794138 59.079377 
L 107.028039 57.772588 
L 109.699655 56.100875 
L 110.534047 55.836057 
L 114.605172 54.627385 
L 119.51069 54.420415 
L 124.024303 55.836057 
L 124.416207 55.969552 
L 127.92889 57.772588 
L 129.321724 58.538751 
L 131.103119 59.70912 
L 133.974077 61.645651 
L 134.227241 61.822296 
L 136.707564 63.582182 
L 139.132759 65.31363 
L 139.416998 65.518713 
L 142.066658 67.455244 
L 144.038276 68.867617 
L 144.77498 69.391775 
L 147.466397 71.328307 
L 148.943793 72.346671 
L 150.289272 73.264838 
L 153.091106 75.201369 
L 153.84931 75.693941 
L 156.113516 77.1379 
L 158.754828 78.827549 
L 159.154334 79.074431 
L 162.420638 81.010962 
L 163.660345 81.721282 
L 165.794575 82.947493 
L 168.565862 84.446067 
L 169.363898 84.884025 
L 173.064727 86.820556 
L 173.471379 87.021024 
L 177.014647 88.757087 
L 178.376897 89.398179 
L 181.240579 90.693618 
L 183.282414 91.592995 
L 185.752643 92.630149 
L 188.187931 93.625176 
L 190.601926 94.56668 
L 193.093448 95.51562 
L 195.822153 96.503212 
L 197.998966 97.278906 
L 201.461682 98.439743 
L 202.904483 98.921285 
L 207.60413 100.376274 
L 207.81 100.440498 
L 212.715517 101.907063 
L 214.154612 102.312805 
L 217.621034 103.294472 
L 221.343771 104.249336 
L 222.526552 104.561935 
L 227.432069 105.773738 
L 229.203798 106.185867 
L 232.337586 106.939523 
L 237.243103 107.977937 
L 237.930095 108.122399 
L 242.148621 109.039079 
L 247.054138 109.95557 
L 247.603958 110.05893 
L 251.959655 110.910838 
L 256.865172 111.735407 
L 258.454875 111.995461 
L 261.77069 112.570527 
L 266.676207 113.330959 
L 270.953488 113.931992 
L 271.581724 114.02695 
L 276.487241 114.756909 
L 281.392759 115.391321 
L 285.375353 115.868523 
L 286.298276 115.987049 
L 291.203793 116.607408 
L 296.10931 117.156349 
L 301.014828 117.655248 
L 302.478914 117.805054 
L 305.920345 118.173999 
L 310.825862 118.669715 
L 315.731379 119.1137 
L 320.636897 119.519764 
L 323.328126 119.741586 
L 325.542414 119.931063 
L 330.447931 120.346292 
L 335.353448 120.729308 
L 340.258966 121.069123 
L 345.164483 121.386285 
L 349.673468 121.678117 
z
" style="fill:#e9f7e5;stroke:#e9f7e5;"/>
   </g>
   <g id="matplotlib.axis_1">
    <g id="xtick_1">
     <g id="line2d_1">
      <path clip-path="url(#p8d936766ca)" d="M 65.55 246.2 
L 65.55 14.8 
" style="fill:none;stroke:#b0b0b0;stroke-linecap:square;stroke-width:0.8;"/>
     </g>
     <g id="line2d_2">
      <defs>
       <path d="M 0 0 
L 0 3.5 
" id="m85cbdc8dcb" style="stroke:#000000;stroke-width:0.8;"/>
      </defs>
      <g>
       <use style="stroke:#000000;stroke-width:0.8;" x="65.55" xlink:href="#m85cbdc8dcb" y="246.2"/>
      </g>
     </g>
     <g id="text_1">
      <!-- 0.0 -->
      <g transform="translate(57.598437 260.798437)scale(0.1 -0.1)">
       <defs>
        <path d="M 31.78125 66.40625 
Q 24.171875 66.40625 20.328125 58.90625 
Q 16.5 51.421875 16.5 36.375 
Q 16.5 21.390625 20.328125 13.890625 
Q 24.171875 6.390625 31.78125 6.390625 
Q 39.453125 6.390625 43.28125 13.890625 
Q 47.125 21.390625 47.125 36.375 
Q 47.125 51.421875 43.28125 58.90625 
Q 39.453125 66.40625 31.78125 66.40625 
z
M 31.78125 74.21875 
Q 44.046875 74.21875 50.515625 64.515625 
Q 56.984375 54.828125 56.984375 36.375 
Q 56.984375 17.96875 50.515625 8.265625 
Q 44.046875 -1.421875 31.78125 -1.421875 
Q 19.53125 -1.421875 13.0625 8.265625 
Q 6.59375 17.96875 6.59375 36.375 
Q 6.59375 54.828125 13.0625 64.515625 
Q 19.53125 74.21875 31.78125 74.21875 
z
" id="DejaVuSans-48"/>
        <path d="M 10.6875 12.40625 
L 21 12.40625 
L 21 0 
L 10.6875 0 
z
" id="DejaVuSans-46"/>
       </defs>
       <use xlink:href="#DejaVuSans-48"/>
       <use x="63.623047" xlink:href="#DejaVuSans-46"/>
       <use x="95.410156" xlink:href="#DejaVuSans-48"/>
      </g>
     </g>
    </g>
    <g id="xtick_2">
     <g id="line2d_3">
      <path clip-path="url(#p8d936766ca)" d="M 114.605172 246.2 
L 114.605172 14.8 
" style="fill:none;stroke:#b0b0b0;stroke-linecap:square;stroke-width:0.8;"/>
     </g>
     <g id="line2d_4">
      <g>
       <use style="stroke:#000000;stroke-width:0.8;" x="114.605172" xlink:href="#m85cbdc8dcb" y="246.2"/>
      </g>
     </g>
     <g id="text_2">
      <!-- 0.5 -->
      <g transform="translate(106.65361 260.798437)scale(0.1 -0.1)">
       <defs>
        <path d="M 10.796875 72.90625 
L 49.515625 72.90625 
L 49.515625 64.59375 
L 19.828125 64.59375 
L 19.828125 46.734375 
Q 21.96875 47.46875 24.109375 47.828125 
Q 26.265625 48.1875 28.421875 48.1875 
Q 40.625 48.1875 47.75 41.5 
Q 54.890625 34.8125 54.890625 23.390625 
Q 54.890625 11.625 47.5625 5.09375 
Q 40.234375 -1.421875 26.90625 -1.421875 
Q 22.3125 -1.421875 17.546875 -0.640625 
Q 12.796875 0.140625 7.71875 1.703125 
L 7.71875 11.625 
Q 12.109375 9.234375 16.796875 8.0625 
Q 21.484375 6.890625 26.703125 6.890625 
Q 35.15625 6.890625 40.078125 11.328125 
Q 45.015625 15.765625 45.015625 23.390625 
Q 45.015625 31 40.078125 35.4375 
Q 35.15625 39.890625 26.703125 39.890625 
Q 22.75 39.890625 18.8125 39.015625 
Q 14.890625 38.140625 10.796875 36.28125 
z
" id="DejaVuSans-53"/>
       </defs>
       <use xlink:href="#DejaVuSans-48"/>
       <use x="63.623047" xlink:href="#DejaVuSans-46"/>
       <use x="95.410156" xlink:href="#DejaVuSans-53"/>
      </g>
     </g>
    </g>
    <g id="xtick_3">
     <g id="line2d_5">
      <path clip-path="url(#p8d936766ca)" d="M 163.660345 246.2 
L 163.660345 14.8 
" style="fill:none;stroke:#b0b0b0;stroke-linecap:square;stroke-width:0.8;"/>
     </g>
     <g id="line2d_6">
      <g>
       <use style="stroke:#000000;stroke-width:0.8;" x="163.660345" xlink:href="#m85cbdc8dcb" y="246.2"/>
      </g>
     </g>
     <g id="text_3">
      <!-- 1.0 -->
      <g transform="translate(155.708782 260.798437)scale(0.1 -0.1)">
       <defs>
        <path d="M 12.40625 8.296875 
L 28.515625 8.296875 
L 28.515625 63.921875 
L 10.984375 60.40625 
L 10.984375 69.390625 
L 28.421875 72.90625 
L 38.28125 72.90625 
L 38.28125 8.296875 
L 54.390625 8.296875 
L 54.390625 0 
L 12.40625 0 
z
" id="DejaVuSans-49"/>
       </defs>
       <use xlink:href="#DejaVuSans-49"/>
       <use x="63.623047" xlink:href="#DejaVuSans-46"/>
       <use x="95.410156" xlink:href="#DejaVuSans-48"/>
      </g>
     </g>
    </g>
    <g id="xtick_4">
     <g id="line2d_7">
      <path clip-path="url(#p8d936766ca)" d="M 212.715517 246.2 
L 212.715517 14.8 
" style="fill:none;stroke:#b0b0b0;stroke-linecap:square;stroke-width:0.8;"/>
     </g>
     <g id="line2d_8">
      <g>
       <use style="stroke:#000000;stroke-width:0.8;" x="212.715517" xlink:href="#m85cbdc8dcb" y="246.2"/>
      </g>
     </g>
     <g id="text_4">
      <!-- 1.5 -->
      <g transform="translate(204.763955 260.798437)scale(0.1 -0.1)">
       <use xlink:href="#DejaVuSans-49"/>
       <use x="63.623047" xlink:href="#DejaVuSans-46"/>
       <use x="95.410156" xlink:href="#DejaVuSans-53"/>
      </g>
     </g>
    </g>
    <g id="xtick_5">
     <g id="line2d_9">
      <path clip-path="url(#p8d936766ca)" d="M 261.77069 246.2 
L 261.77069 14.8 
" style="fill:none;stroke:#b0b0b0;stroke-linecap:square;stroke-width:0.8;"/>
     </g>
     <g id="line2d_10">
      <g>
       <use style="stroke:#000000;stroke-width:0.8;" x="261.77069" xlink:href="#m85cbdc8dcb" y="246.2"/>
      </g>
     </g>
     <g id="text_5">
      <!-- 2.0 -->
      <g transform="translate(253.819127 260.798437)scale(0.1 -0.1)">
       <defs>
        <path d="M 19.1875 8.296875 
L 53.609375 8.296875 
L 53.609375 0 
L 7.328125 0 
L 7.328125 8.296875 
Q 12.9375 14.109375 22.625 23.890625 
Q 32.328125 33.6875 34.8125 36.53125 
Q 39.546875 41.84375 41.421875 45.53125 
Q 43.3125 49.21875 43.3125 52.78125 
Q 43.3125 58.59375 39.234375 62.25 
Q 35.15625 65.921875 28.609375 65.921875 
Q 23.96875 65.921875 18.8125 64.3125 
Q 13.671875 62.703125 7.8125 59.421875 
L 7.8125 69.390625 
Q 13.765625 71.78125 18.9375 73 
Q 24.125 74.21875 28.421875 74.21875 
Q 39.75 74.21875 46.484375 68.546875 
Q 53.21875 62.890625 53.21875 53.421875 
Q 53.21875 48.921875 51.53125 44.890625 
Q 49.859375 40.875 45.40625 35.40625 
Q 44.1875 33.984375 37.640625 27.21875 
Q 31.109375 20.453125 19.1875 8.296875 
z
" id="DejaVuSans-50"/>
       </defs>
       <use xlink:href="#DejaVuSans-50"/>
       <use x="63.623047" xlink:href="#DejaVuSans-46"/>
       <use x="95.410156" xlink:href="#DejaVuSans-48"/>
      </g>
     </g>
    </g>
    <g id="xtick_6">
     <g id="line2d_11">
      <path clip-path="url(#p8d936766ca)" d="M 310.825862 246.2 
L 310.825862 14.8 
" style="fill:none;stroke:#b0b0b0;stroke-linecap:square;stroke-width:0.8;"/>
     </g>
     <g id="line2d_12">
      <g>
       <use style="stroke:#000000;stroke-width:0.8;" x="310.825862" xlink:href="#m85cbdc8dcb" y="246.2"/>
      </g>
     </g>
     <g id="text_6">
      <!-- 2.5 -->
      <g transform="translate(302.8743 260.798437)scale(0.1 -0.1)">
       <use xlink:href="#DejaVuSans-50"/>
       <use x="63.623047" xlink:href="#DejaVuSans-46"/>
       <use x="95.410156" xlink:href="#DejaVuSans-53"/>
      </g>
     </g>
    </g>
    <g id="text_7">
     <!-- $z$ -->
     <g transform="translate(205.16 274.476562)scale(0.1 -0.1)">
      <defs>
       <path d="M 11.625 54.6875 
L 54.296875 54.6875 
L 52.6875 46.484375 
L 11.53125 7.171875 
L 45.515625 7.171875 
L 44.09375 0 
L -0.296875 0 
L 1.3125 8.203125 
L 42.484375 47.515625 
L 10.203125 47.515625 
z
" id="DejaVuSans-Oblique-122"/>
      </defs>
      <use transform="translate(0 0.3125)" xlink:href="#DejaVuSans-Oblique-122"/>
     </g>
    </g>
   </g>
   <g id="matplotlib.axis_2">
    <g id="ytick_1">
     <g id="line2d_13">
      <path clip-path="url(#p8d936766ca)" d="M 65.55 246.2 
L 350.07 246.2 
" style="fill:none;stroke:#b0b0b0;stroke-linecap:square;stroke-width:0.8;"/>
     </g>
     <g id="line2d_14">
      <defs>
       <path d="M 0 0 
L -3.5 0 
" id="mdb336ee230" style="stroke:#000000;stroke-width:0.8;"/>
      </defs>
      <g>
       <use style="stroke:#000000;stroke-width:0.8;" x="65.55" xlink:href="#mdb336ee230" y="246.2"/>
      </g>
     </g>
     <g id="text_8">
      <!-- 2.00 -->
      <g transform="translate(27.904687 249.999219)scale(0.1 -0.1)">
       <defs>
        <path d="M 10.59375 35.5 
L 73.1875 35.5 
L 73.1875 27.203125 
L 10.59375 27.203125 
z
" id="DejaVuSans-8722"/>
       </defs>
       <use xlink:href="#DejaVuSans-8722"/>
       <use x="83.789062" xlink:href="#DejaVuSans-50"/>
       <use x="147.412109" xlink:href="#DejaVuSans-46"/>
       <use x="179.199219" xlink:href="#DejaVuSans-48"/>
       <use x="242.822266" xlink:href="#DejaVuSans-48"/>
      </g>
     </g>
    </g>
    <g id="ytick_2">
     <g id="line2d_15">
      <path clip-path="url(#p8d936766ca)" d="M 65.55 217.275 
L 350.07 217.275 
" style="fill:none;stroke:#b0b0b0;stroke-linecap:square;stroke-width:0.8;"/>
     </g>
     <g id="line2d_16">
      <g>
       <use style="stroke:#000000;stroke-width:0.8;" x="65.55" xlink:href="#mdb336ee230" y="217.275"/>
      </g>
     </g>
     <g id="text_9">
      <!-- 1.75 -->
      <g transform="translate(27.904687 221.074219)scale(0.1 -0.1)">
       <defs>
        <path d="M 8.203125 72.90625 
L 55.078125 72.90625 
L 55.078125 68.703125 
L 28.609375 0 
L 18.3125 0 
L 43.21875 64.59375 
L 8.203125 64.59375 
z
" id="DejaVuSans-55"/>
       </defs>
       <use xlink:href="#DejaVuSans-8722"/>
       <use x="83.789062" xlink:href="#DejaVuSans-49"/>
       <use x="147.412109" xlink:href="#DejaVuSans-46"/>
       <use x="179.199219" xlink:href="#DejaVuSans-55"/>
       <use x="242.822266" xlink:href="#DejaVuSans-53"/>
      </g>
     </g>
    </g>
    <g id="ytick_3">
     <g id="line2d_17">
      <path clip-path="url(#p8d936766ca)" d="M 65.55 188.35 
L 350.07 188.35 
" style="fill:none;stroke:#b0b0b0;stroke-linecap:square;stroke-width:0.8;"/>
     </g>
     <g id="line2d_18">
      <g>
       <use style="stroke:#000000;stroke-width:0.8;" x="65.55" xlink:href="#mdb336ee230" y="188.35"/>
      </g>
     </g>
     <g id="text_10">
      <!-- 1.50 -->
      <g transform="translate(27.904687 192.149219)scale(0.1 -0.1)">
       <use xlink:href="#DejaVuSans-8722"/>
       <use x="83.789062" xlink:href="#DejaVuSans-49"/>
       <use x="147.412109" xlink:href="#DejaVuSans-46"/>
       <use x="179.199219" xlink:href="#DejaVuSans-53"/>
       <use x="242.822266" xlink:href="#DejaVuSans-48"/>
      </g>
     </g>
    </g>
    <g id="ytick_4">
     <g id="line2d_19">
      <path clip-path="url(#p8d936766ca)" d="M 65.55 159.425 
L 350.07 159.425 
" style="fill:none;stroke:#b0b0b0;stroke-linecap:square;stroke-width:0.8;"/>
     </g>
     <g id="line2d_20">
      <g>
       <use style="stroke:#000000;stroke-width:0.8;" x="65.55" xlink:href="#mdb336ee230" y="159.425"/>
      </g>
     </g>
     <g id="text_11">
      <!-- 1.25 -->
      <g transform="translate(27.904687 163.224219)scale(0.1 -0.1)">
       <use xlink:href="#DejaVuSans-8722"/>
       <use x="83.789062" xlink:href="#DejaVuSans-49"/>
       <use x="147.412109" xlink:href="#DejaVuSans-46"/>
       <use x="179.199219" xlink:href="#DejaVuSans-50"/>
       <use x="242.822266" xlink:href="#DejaVuSans-53"/>
      </g>
     </g>
    </g>
    <g id="ytick_5">
     <g id="line2d_21">
      <path clip-path="url(#p8d936766ca)" d="M 65.55 130.5 
L 350.07 130.5 
" style="fill:none;stroke:#b0b0b0;stroke-linecap:square;stroke-width:0.8;"/>
     </g>
     <g id="line2d_22">
      <g>
       <use style="stroke:#000000;stroke-width:0.8;" x="65.55" xlink:href="#mdb336ee230" y="130.5"/>
      </g>
     </g>
     <g id="text_12">
      <!-- 1.00 -->
      <g transform="translate(27.904687 134.299219)scale(0.1 -0.1)">
       <use xlink:href="#DejaVuSans-8722"/>
       <use x="83.789062" xlink:href="#DejaVuSans-49"/>
       <use x="147.412109" xlink:href="#DejaVuSans-46"/>
       <use x="179.199219" xlink:href="#DejaVuSans-48"/>
       <use x="242.822266" xlink:href="#DejaVuSans-48"/>
      </g>
     </g>
    </g>
    <g id="ytick_6">
     <g id="line2d_23">
      <path clip-path="url(#p8d936766ca)" d="M 65.55 101.575 
L 350.07 101.575 
" style="fill:none;stroke:#b0b0b0;stroke-linecap:square;stroke-width:0.8;"/>
     </g>
     <g id="line2d_24">
      <g>
       <use style="stroke:#000000;stroke-width:0.8;" x="65.55" xlink:href="#mdb336ee230" y="101.575"/>
      </g>
     </g>
     <g id="text_13">
      <!-- 0.75 -->
      <g transform="translate(27.904687 105.374219)scale(0.1 -0.1)">
       <use xlink:href="#DejaVuSans-8722"/>
       <use x="83.789062" xlink:href="#DejaVuSans-48"/>
       <use x="147.412109" xlink:href="#DejaVuSans-46"/>
       <use x="179.199219" xlink:href="#DejaVuSans-55"/>
       <use x="242.822266" xlink:href="#DejaVuSans-53"/>
      </g>
     </g>
    </g>
    <g id="ytick_7">
     <g id="line2d_25">
      <path clip-path="url(#p8d936766ca)" d="M 65.55 72.65 
L 350.07 72.65 
" style="fill:none;stroke:#b0b0b0;stroke-linecap:square;stroke-width:0.8;"/>
     </g>
     <g id="line2d_26">
      <g>
       <use style="stroke:#000000;stroke-width:0.8;" x="65.55" xlink:href="#mdb336ee230" y="72.65"/>
      </g>
     </g>
     <g id="text_14">
      <!-- 0.50 -->
      <g transform="translate(27.904687 76.449219)scale(0.1 -0.1)">
       <use xlink:href="#DejaVuSans-8722"/>
       <use x="83.789062" xlink:href="#DejaVuSans-48"/>
       <use x="147.412109" xlink:href="#DejaVuSans-46"/>
       <use x="179.199219" xlink:href="#DejaVuSans-53"/>
       <use x="242.822266" xlink:href="#DejaVuSans-48"/>
      </g>
     </g>
    </g>
    <g id="ytick_8">
     <g id="line2d_27">
      <path clip-path="url(#p8d936766ca)" d="M 65.55 43.725 
L 350.07 43.725 
" style="fill:none;stroke:#b0b0b0;stroke-linecap:square;stroke-width:0.8;"/>
     </g>
     <g id="line2d_28">
      <g>
       <use style="stroke:#000000;stroke-width:0.8;" x="65.55" xlink:href="#mdb336ee230" y="43.725"/>
      </g>
     </g>
     <g id="text_15">
      <!-- 0.25 -->
      <g transform="translate(27.904687 47.524219)scale(0.1 -0.1)">
       <use xlink:href="#DejaVuSans-8722"/>
       <use x="83.789062" xlink:href="#DejaVuSans-48"/>
       <use x="147.412109" xlink:href="#DejaVuSans-46"/>
       <use x="179.199219" xlink:href="#DejaVuSans-50"/>
       <use x="242.822266" xlink:href="#DejaVuSans-53"/>
      </g>
     </g>
    </g>
    <g id="ytick_9">
     <g id="line2d_29">
      <path clip-path="url(#p8d936766ca)" d="M 65.55 14.8 
L 350.07 14.8 
" style="fill:none;stroke:#b0b0b0;stroke-linecap:square;stroke-width:0.8;"/>
     </g>
     <g id="line2d_30">
      <g>
       <use style="stroke:#000000;stroke-width:0.8;" x="65.55" xlink:href="#mdb336ee230" y="14.8"/>
      </g>
     </g>
     <g id="text_16">
      <!-- 0.00 -->
      <g transform="translate(36.284375 18.599219)scale(0.1 -0.1)">
       <use xlink:href="#DejaVuSans-48"/>
       <use x="63.623047" xlink:href="#DejaVuSans-46"/>
       <use x="95.410156" xlink:href="#DejaVuSans-48"/>
       <use x="159.033203" xlink:href="#DejaVuSans-48"/>
      </g>
     </g>
    </g>
    <g id="text_17">
     <!-- $\omega(z)$ -->
     <g transform="translate(21.825 141.25)rotate(-90)scale(0.1 -0.1)">
      <defs>
       <path d="M 21.390625 -1.421875 
Q 1.125 -1.421875 6.78125 27.59375 
Q 8.984375 39.0625 19.625 54.6875 
L 29.296875 54.6875 
Q 19.234375 39.0625 17 27.34375 
Q 12.796875 6.203125 23.734375 6.203125 
Q 33.84375 6.203125 38.71875 32.46875 
L 47.015625 32.46875 
Q 41.703125 6.0625 51.8125 6.203125 
Q 62.703125 6.296875 66.796875 27.34375 
Q 69.046875 39.0625 65.140625 54.6875 
L 74.8125 54.6875 
Q 79.296875 39.0625 77.09375 27.59375 
Q 71.53125 -1.46875 51.21875 -1.421875 
Q 37.9375 -1.375 39.109375 13.1875 
Q 34.28125 -1.421875 21.390625 -1.421875 
z
" id="DejaVuSans-Oblique-969"/>
       <path d="M 31 75.875 
Q 24.46875 64.65625 21.28125 53.65625 
Q 18.109375 42.671875 18.109375 31.390625 
Q 18.109375 20.125 21.3125 9.0625 
Q 24.515625 -2 31 -13.1875 
L 23.1875 -13.1875 
Q 15.875 -1.703125 12.234375 9.375 
Q 8.59375 20.453125 8.59375 31.390625 
Q 8.59375 42.28125 12.203125 53.3125 
Q 15.828125 64.359375 23.1875 75.875 
z
" id="DejaVuSans-40"/>
       <path d="M 8.015625 75.875 
L 15.828125 75.875 
Q 23.140625 64.359375 26.78125 53.3125 
Q 30.421875 42.28125 30.421875 31.390625 
Q 30.421875 20.453125 26.78125 9.375 
Q 23.140625 -1.703125 15.828125 -13.1875 
L 8.015625 -13.1875 
Q 14.5 -2 17.703125 9.0625 
Q 20.90625 20.125 20.90625 31.390625 
Q 20.90625 42.671875 17.703125 53.65625 
Q 14.5 64.65625 8.015625 75.875 
z
" id="DejaVuSans-41"/>
      </defs>
      <use transform="translate(0 0.125)" xlink:href="#DejaVuSans-Oblique-969"/>
      <use transform="translate(83.740234 0.125)" xlink:href="#DejaVuSans-40"/>
      <use transform="translate(122.753906 0.125)" xlink:href="#DejaVuSans-Oblique-122"/>
      <use transform="translate(175.244141 0.125)" xlink:href="#DejaVuSans-41"/>
     </g>
    </g>
   </g>
   <g id="LineCollection_1">
    <path clip-path="url(#p8d936766ca)" d="M 65.55 142.59451 
L 66.16087 141.043428 
L 66.871284 139.106897 
L 67.558719 137.170366 
L 68.252352 135.233835 
L 68.976968 133.297304 
L 69.751605 131.360773 
L 70.455517 129.724114 
L 70.552636 129.424241 
L 71.181906 127.48771 
L 71.813562 125.551179 
L 72.453346 123.614648 
L 73.109907 121.678117 
L 73.794685 119.741586 
L 74.522943 117.805054 
L 75.315935 115.868523 
L 75.361034 115.766401 
L 75.583013 113.931992 
L 75.837376 111.995461 
L 76.113626 110.05893 
L 76.435547 108.122399 
L 77.148858 106.185867 
L 77.668835 104.249336 
L 78.225031 102.312805 
L 78.864334 100.376274 
L 79.656579 98.439743 
L 80.266552 97.251061 
L 80.616199 96.503212 
L 81.658864 94.56668 
L 82.880725 92.630149 
L 84.200223 90.693618 
L 85.172069 89.381254 
L 86.265142 88.757087 
L 89.765565 86.820556 
L 90.077586 86.657412 
L 94.983103 85.120653 
L 95.269187 84.884025 
L 97.891894 82.947493 
L 99.888621 81.653483 
L 100.707982 81.010962 
L 102.748515 79.074431 
L 104.718255 77.1379 
L 104.794138 77.071233 
L 109.038801 75.201369 
L 109.699655 74.784376 
L 114.605172 74.650547 
L 116.628656 75.201369 
L 119.51069 76.024956 
L 122.061076 77.1379 
L 124.416207 78.1455 
L 126.208366 79.074431 
L 129.321724 80.65556 
L 129.9386 81.010962 
L 133.315167 82.947493 
L 134.227241 83.477708 
L 136.556823 84.884025 
L 139.132759 86.433824 
L 139.740445 86.820556 
L 142.926756 88.757087 
L 144.038276 89.418735 
L 146.063565 90.693618 
L 148.943793 92.344041 
L 149.404563 92.630149 
L 152.727275 94.56668 
L 153.84931 95.163769 
L 156.23317 96.503212 
L 158.754828 97.800517 
L 159.983245 98.439743 
L 163.660345 100.243817 
L 163.939706 100.376274 
L 168.20161 102.312805 
L 168.565862 102.468667 
L 172.884463 104.249336 
L 173.471379 104.480742 
L 178.08682 106.185867 
L 178.376897 106.288714 
L 183.282414 107.906841 
L 183.984024 108.122399 
L 188.187931 109.357262 
L 190.729269 110.05893 
L 193.093448 110.679371 
L 197.998966 111.900072 
L 198.406709 111.995461 
L 202.904483 113.004951 
L 207.350603 113.931992 
L 207.81 114.022665 
L 212.715517 114.969048 
L 217.621034 115.834459 
L 217.820828 115.868523 
L 222.526552 116.655111 
L 227.432069 117.41424 
L 230.141587 117.805054 
L 232.337586 118.114323 
L 237.243103 118.786581 
L 242.148621 119.399428 
L 245.075231 119.741586 
L 247.054138 119.965301 
L 251.959655 120.509865 
L 256.865172 121.015475 
L 261.77069 121.474012 
L 264.0561 121.678117 
L 266.676207 121.900853 
L 271.581724 122.312963 
L 276.487241 122.702012 
L 281.392759 123.062902 
L 286.298276 123.396351 
L 289.638777 123.614648 
L 291.203793 123.707909 
L 296.10931 123.99932 
L 301.014828 124.281188 
L 305.920345 124.545747 
L 310.825862 124.795815 
L 315.731379 125.034082 
L 320.636897 125.260699 
L 325.542414 125.474663 
L 327.330362 125.551179 
L 330.447931 125.66613 
L 335.353448 125.843868 
L 340.258966 126.013276 
L 345.164483 126.178675 
L 350.07 126.338745 
L 354.975517 126.49104 
L 359.881034 126.639456 
L 364.786552 126.781215 
" style="fill:none;stroke:#000000;stroke-width:2;"/>
    <path clip-path="url(#p8d936766ca)" d="M 364.786552 132.357268 
L 359.881034 132.40538 
L 354.975517 132.437151 
L 350.07 132.475854 
L 345.164483 132.513916 
L 340.258966 132.550459 
L 335.353448 132.584451 
L 330.447931 132.606275 
L 325.542414 132.614703 
L 320.636897 132.669035 
L 315.731379 132.722458 
L 310.825862 132.77473 
L 305.920345 132.825673 
L 301.014828 132.87422 
L 296.10931 132.918188 
L 291.203793 132.958318 
L 286.298276 132.993912 
L 281.392759 133.023588 
L 276.487241 133.043922 
L 271.581724 133.056125 
L 266.676207 133.059032 
L 261.77069 133.051404 
L 256.865172 133.031994 
L 251.959655 132.996335 
L 247.054138 132.946098 
L 242.148621 132.881003 
L 237.243103 132.800382 
L 232.337586 132.703341 
L 227.432069 132.588326 
L 222.526552 132.45249 
L 217.621034 132.290866 
L 212.715517 132.095689 
L 207.81 131.857389 
L 202.904483 131.570234 
L 199.763688 131.360773 
L 197.998966 131.206725 
L 193.093448 130.766332 
L 188.187931 130.30342 
L 183.282414 129.791387 
L 180.077575 129.424241 
L 178.376897 129.163081 
L 173.471379 128.382963 
L 168.565862 127.582524 
L 168.051582 127.48771 
L 163.660345 126.55562 
L 158.803497 125.551179 
L 158.754828 125.540216 
L 153.84931 124.343678 
L 151.152278 123.614648 
L 148.943793 123.028992 
L 144.038276 121.687524 
L 144.005119 121.678117 
L 139.132759 120.281214 
L 137.250746 119.741586 
L 134.227241 118.727856 
L 131.134807 117.805054 
L 129.321724 117.171276 
L 125.333563 115.868523 
L 124.416207 115.542575 
L 119.972571 113.931992 
L 119.51069 113.760481 
L 115.579278 111.995461 
L 114.605172 111.567147 
L 111.311827 110.05893 
L 109.699655 109.282488 
L 104.916364 108.122399 
L 104.794138 108.088061 
L 104.707675 108.122399 
L 99.888621 109.879069 
L 99.709184 110.05893 
L 97.754254 111.995461 
L 95.657741 113.931992 
L 94.983103 114.568921 
L 93.93291 115.868523 
L 92.693541 117.805054 
L 91.635891 119.741586 
L 90.662901 121.678117 
L 90.077586 122.926142 
L 89.713229 123.614648 
L 88.798288 125.551179 
L 88.017987 127.48771 
L 87.339023 129.424241 
L 86.734697 131.360773 
L 86.18416 133.297304 
L 85.66991 135.233835 
L 85.177207 137.170366 
L 85.172069 137.190915 
L 84.644241 139.106897 
L 84.198979 141.043428 
L 83.705643 142.97996 
L 83.287263 144.916491 
L 82.8802 146.853022 
L 82.478013 148.789553 
L 82.078216 150.726084 
L 81.680531 152.662615 
L 81.284916 154.599146 
L 80.890348 156.535678 
L 80.494859 158.472209 
L 80.266552 159.578957 
L 80.118685 160.40874 
L 79.823246 162.345271 
L 79.582423 164.281802 
L 79.381992 166.218333 
L 79.161244 168.154865 
L 78.884899 170.091396 
L 78.594049 172.027927 
L 78.283355 173.964458 
L 77.939693 175.900989 
L 77.511067 177.83752 
L 76.730177 179.774052 
L 75.361034 181.54138 
L 75.135422 181.710583 
L 74.092096 183.647114 
L 73.244399 185.583645 
L 72.204789 187.520176 
L 70.660095 189.456707 
L 70.455517 189.802017 
L 67.916203 191.393239 
L 66.047305 193.32977 
L 65.55 193.863072 
" style="fill:none;stroke:#000000;stroke-width:2;"/>
   </g>
   <g id="LineCollection_2">
    <path clip-path="url(#p8d936766ca)" d="M 364.786552 133.647744 
L 359.881034 133.74442 
L 354.975517 133.833431 
L 350.07 133.917973 
L 345.164483 134.002794 
L 340.258966 134.111253 
L 335.353448 134.257691 
L 330.447931 134.354282 
L 325.542414 134.445865 
L 320.636897 134.533342 
L 315.731379 134.617598 
L 310.825862 134.700772 
L 305.920345 134.785439 
L 301.014828 134.874041 
L 296.10931 134.968872 
L 291.203793 135.073489 
L 286.298276 135.193445 
L 284.863679 135.233835 
L 281.392759 135.367693 
L 276.487241 135.564587 
L 271.581724 135.743984 
L 266.676207 135.892764 
L 261.77069 136.017696 
L 256.865172 136.126061 
L 251.959655 136.22055 
L 247.054138 136.304403 
L 242.148621 136.378751 
L 237.243103 136.443749 
L 232.337586 136.498978 
L 227.432069 136.54354 
L 222.526552 136.576073 
L 217.621034 136.594723 
L 212.715517 136.597035 
L 207.81 136.57956 
L 202.904483 136.53643 
L 197.998966 136.454962 
L 193.093448 136.307862 
L 188.187931 136.077933 
L 183.282414 135.791581 
L 178.376897 135.467935 
L 174.930342 135.233835 
L 173.471379 135.148986 
L 168.565862 134.815722 
L 163.660345 134.422254 
L 158.754828 133.969232 
L 153.84931 133.463164 
L 152.381507 133.297304 
L 148.943793 132.86156 
L 144.038276 132.128738 
L 139.614186 131.360773 
L 139.132759 131.277829 
L 134.227241 130.304207 
L 130.384104 129.424241 
L 129.321724 129.17116 
L 124.416207 127.833607 
L 123.229013 127.48771 
L 119.51069 126.33466 
L 116.352628 125.551179 
L 114.605172 125.095966 
L 109.699655 123.825699 
L 109.371801 123.614648 
L 105.693598 121.678117 
L 104.794138 121.345126 
L 103.149948 121.678117 
L 99.888621 122.538392 
L 99.11363 123.614648 
L 97.705726 125.551179 
L 96.245066 127.48771 
L 95.099921 129.424241 
L 94.983103 129.686449 
L 94.270159 131.360773 
L 93.563918 133.297304 
L 92.945374 135.233835 
L 92.384752 137.170366 
L 91.875022 139.106897 
L 91.416112 141.043428 
L 90.983923 142.97996 
L 90.480255 144.916491 
L 90.077586 146.768149 
L 90.054745 146.853022 
L 89.535375 148.789553 
L 89.038799 150.726084 
L 88.574707 152.662615 
L 88.141008 154.599146 
L 87.725378 156.535678 
L 87.312525 158.472209 
L 86.890583 160.40874 
L 86.451108 162.345271 
L 85.985733 164.281802 
L 85.488167 166.218333 
L 85.172069 167.388854 
L 84.976986 168.154865 
L 84.480544 170.091396 
L 83.977237 172.027927 
L 83.451085 173.964458 
L 82.881885 175.900989 
L 82.254008 177.83752 
L 81.562791 179.774052 
L 80.812204 181.710583 
L 80.266552 183.007417 
L 80.02061 183.647114 
L 79.184374 185.583645 
L 78.071625 187.520176 
L 76.757806 189.456707 
L 75.488335 191.393239 
L 75.361034 191.587633 
L 74.40599 193.32977 
L 72.612853 195.266301 
L 70.829463 197.202832 
" style="fill:none;stroke:#000000;stroke-width:1.5;"/>
    <path clip-path="url(#p8d936766ca)" d="M 65.55 71.32069 
L 65.568172 71.328307 
L 70.455517 72.836516 
L 71.269291 73.264838 
L 75.361034 74.902157 
L 75.950658 75.201369 
L 80.266552 76.763381 
L 85.172069 75.570591 
L 86.103781 75.201369 
L 90.077586 73.902392 
L 91.20142 73.264838 
L 93.597046 71.328307 
L 94.983103 69.704211 
L 95.316187 69.391775 
L 97.289487 67.455244 
L 99.262817 65.518713 
L 99.888621 64.945858 
L 101.349447 63.582182 
L 103.021383 61.645651 
L 104.375845 59.70912 
L 104.794138 59.079377 
L 107.028039 57.772588 
L 109.699655 56.100875 
L 110.534047 55.836057 
L 114.605172 54.627385 
L 119.51069 54.420415 
L 124.024303 55.836057 
L 124.416207 55.969552 
L 127.92889 57.772588 
L 129.321724 58.538751 
L 131.103119 59.70912 
L 133.974077 61.645651 
L 134.227241 61.822296 
L 136.707564 63.582182 
L 139.132759 65.31363 
L 139.416998 65.518713 
L 142.066658 67.455244 
L 144.038276 68.867617 
L 144.77498 69.391775 
L 147.466397 71.328307 
L 148.943793 72.346671 
L 150.289272 73.264838 
L 153.091106 75.201369 
L 153.84931 75.693941 
L 156.113516 77.1379 
L 158.754828 78.827549 
L 159.154334 79.074431 
L 162.420638 81.010962 
L 163.660345 81.721282 
L 165.794575 82.947493 
L 168.565862 84.446067 
L 169.363898 84.884025 
L 173.064727 86.820556 
L 173.471379 87.021024 
L 177.014647 88.757087 
L 178.376897 89.398179 
L 181.240579 90.693618 
L 183.282414 91.592995 
L 185.752643 92.630149 
L 188.187931 93.625176 
L 190.601926 94.56668 
L 193.093448 95.51562 
L 195.822153 96.503212 
L 197.998966 97.278906 
L 201.461682 98.439743 
L 202.904483 98.921285 
L 207.60413 100.376274 
L 207.81 100.440498 
L 212.715517 101.907063 
L 214.154612 102.312805 
L 217.621034 103.294472 
L 221.343771 104.249336 
L 222.526552 104.561935 
L 227.432069 105.773738 
L 229.203798 106.185867 
L 232.337586 106.939523 
L 237.243103 107.977937 
L 237.930095 108.122399 
L 242.148621 109.039079 
L 247.054138 109.95557 
L 247.603958 110.05893 
L 251.959655 110.910838 
L 256.865172 111.735407 
L 258.454875 111.995461 
L 261.77069 112.570527 
L 266.676207 113.330959 
L 270.953488 113.931992 
L 271.581724 114.02695 
L 276.487241 114.756909 
L 281.392759 115.391321 
L 285.375353 115.868523 
L 286.298276 115.987049 
L 291.203793 116.607408 
L 296.10931 117.156349 
L 301.014828 117.655248 
L 302.478914 117.805054 
L 305.920345 118.173999 
L 310.825862 118.669715 
L 315.731379 119.1137 
L 320.636897 119.519764 
L 323.328126 119.741586 
L 325.542414 119.931063 
L 330.447931 120.346292 
L 335.353448 120.729308 
L 340.258966 121.069123 
L 345.164483 121.386285 
L 349.673468 121.678117 
L 350.07 121.70425 
L 354.975517 122.027556 
L 359.881034 122.339094 
L 364.786552 122.625602 
" style="fill:none;stroke:#000000;stroke-width:1.5;"/>
   </g>
   <g id="LineCollection_3">
    <path clip-path="url(#p8d936766ca)" d="M 65.55 130.5 
L 359.881034 130.5 
" style="fill:none;stroke:#000000;stroke-dasharray:14.8,6.4;stroke-dashoffset:0;stroke-width:4;"/>
   </g>
   <g id="patch_3">
    <path d="M 65.55 246.2 
L 65.55 14.8 
" style="fill:none;stroke:#000000;stroke-linecap:square;stroke-linejoin:miter;stroke-width:0.8;"/>
   </g>
   <g id="patch_4">
    <path d="M 350.07 246.2 
L 350.07 14.8 
" style="fill:none;stroke:#000000;stroke-linecap:square;stroke-linejoin:miter;stroke-width:0.8;"/>
   </g>
   <g id="patch_5">
    <path d="M 65.55 246.2 
L 350.07 246.2 
" style="fill:none;stroke:#000000;stroke-linecap:square;stroke-linejoin:miter;stroke-width:0.8;"/>
   </g>
   <g id="patch_6">
    <path d="M 65.55 14.8 
L 350.07 14.8 
" style="fill:none;stroke:#000000;stroke-linecap:square;stroke-linejoin:miter;stroke-width:0.8;"/>
   </g>
   <g id="text_18">
    <!-- BAO -->
    <g transform="translate(66.531103 211.49)scale(0.13 -0.13)">
     <defs>
      <path d="M 19.671875 34.8125 
L 19.671875 8.109375 
L 35.5 8.109375 
Q 43.453125 8.109375 47.28125 11.40625 
Q 51.125 14.703125 51.125 21.484375 
Q 51.125 28.328125 47.28125 31.5625 
Q 43.453125 34.8125 35.5 34.8125 
z
M 19.671875 64.796875 
L 19.671875 42.828125 
L 34.28125 42.828125 
Q 41.5 42.828125 45.03125 45.53125 
Q 48.578125 48.25 48.578125 53.8125 
Q 48.578125 59.328125 45.03125 62.0625 
Q 41.5 64.796875 34.28125 64.796875 
z
M 9.8125 72.90625 
L 35.015625 72.90625 
Q 46.296875 72.90625 52.390625 68.21875 
Q 58.5 63.53125 58.5 54.890625 
Q 58.5 48.1875 55.375 44.234375 
Q 52.25 40.28125 46.1875 39.3125 
Q 53.46875 37.75 57.5 32.78125 
Q 61.53125 27.828125 61.53125 20.40625 
Q 61.53125 10.640625 54.890625 5.3125 
Q 48.25 0 35.984375 0 
L 9.8125 0 
z
" id="DejaVuSans-66"/>
      <path d="M 34.1875 63.1875 
L 20.796875 26.90625 
L 47.609375 26.90625 
z
M 28.609375 72.90625 
L 39.796875 72.90625 
L 67.578125 0 
L 57.328125 0 
L 50.6875 18.703125 
L 17.828125 18.703125 
L 11.1875 0 
L 0.78125 0 
z
" id="DejaVuSans-65"/>
      <path d="M 39.40625 66.21875 
Q 28.65625 66.21875 22.328125 58.203125 
Q 16.015625 50.203125 16.015625 36.375 
Q 16.015625 22.609375 22.328125 14.59375 
Q 28.65625 6.59375 39.40625 6.59375 
Q 50.140625 6.59375 56.421875 14.59375 
Q 62.703125 22.609375 62.703125 36.375 
Q 62.703125 50.203125 56.421875 58.203125 
Q 50.140625 66.21875 39.40625 66.21875 
z
M 39.40625 74.21875 
Q 54.734375 74.21875 63.90625 63.9375 
Q 73.09375 53.65625 73.09375 36.375 
Q 73.09375 19.140625 63.90625 8.859375 
Q 54.734375 -1.421875 39.40625 -1.421875 
Q 24.03125 -1.421875 14.8125 8.828125 
Q 5.609375 19.09375 5.609375 36.375 
Q 5.609375 53.65625 14.8125 63.9375 
Q 24.03125 74.21875 39.40625 74.21875 
z
" id="DejaVuSans-79"/>
     </defs>
     <use xlink:href="#DejaVuSans-66"/>
     <use x="68.603516" xlink:href="#DejaVuSans-65"/>
     <use x="135.261719" xlink:href="#DejaVuSans-79"/>
    </g>
   </g>
  </g>
  <g id="axes_2">
   <g id="patch_7">
    <path clip-path="url(#p29f04f8df9)" d="M 367.8525 246.2 
L 367.8525 199.92 
L 367.8525 61.08 
L 367.8525 14.8 
L 379.4225 14.8 
L 379.4225 61.08 
L 379.4225 199.92 
L 379.4225 246.2 
z
" style="fill:#ffffff;stroke:#ffffff;stroke-linejoin:miter;stroke-width:0.01;"/>
   </g>
   <g id="QuadMesh_1">
    <path clip-path="url(#p29f04f8df9)" d="M 367.8525 246.2 
L 379.4225 246.2 
L 379.4225 199.92 
L 367.8525 199.92 
L 367.8525 246.2 
" style="fill:#006428;"/>
    <path clip-path="url(#p29f04f8df9)" d="M 367.8525 199.92 
L 379.4225 199.92 
L 379.4225 153.64 
L 367.8525 153.64 
L 367.8525 199.92 
" style="fill:#2f974e;"/>
    <path clip-path="url(#p29f04f8df9)" d="M 367.8525 153.64 
L 379.4225 153.64 
L 379.4225 107.36 
L 367.8525 107.36 
L 367.8525 153.64 
" style="fill:#75c477;"/>
    <path clip-path="url(#p29f04f8df9)" d="M 367.8525 107.36 
L 379.4225 107.36 
L 379.4225 61.08 
L 367.8525 61.08 
L 367.8525 107.36 
" style="fill:#b8e3b2;"/>
    <path clip-path="url(#p29f04f8df9)" d="M 367.8525 61.08 
L 379.4225 61.08 
L 379.4225 14.8 
L 367.8525 14.8 
L 367.8525 61.08 
" style="fill:#e9f7e5;"/>
   </g>
   <g id="matplotlib.axis_3"/>
   <g id="matplotlib.axis_4">
    <g id="ytick_10">
     <g id="line2d_31">
      <defs>
       <path d="M 0 0 
L 3.5 0 
" id="mafa14319da" style="stroke:#000000;stroke-width:0.8;"/>
      </defs>
      <g>
       <use style="stroke:#000000;stroke-width:0.8;" x="379.4225" xlink:href="#mafa14319da" y="246.2"/>
      </g>
     </g>
    </g>
    <g id="ytick_11">
     <g id="line2d_32">
      <g>
       <use style="stroke:#000000;stroke-width:0.8;" x="379.4225" xlink:href="#mafa14319da" y="153.64"/>
      </g>
     </g>
     <g id="text_19">
      <!-- $1\sigma$ -->
      <g transform="translate(386.4225 157.439219)scale(0.1 -0.1)">
       <defs>
        <path d="M 34.671875 47.5625 
Q 27.25 47.5625 22.21875 42.1875 
Q 16.890625 36.578125 15.140625 27.296875 
Q 13.1875 17.484375 16.3125 11.8125 
Q 19.390625 6.203125 26.65625 6.203125 
Q 33.84375 6.203125 39.109375 11.859375 
Q 44.4375 17.53125 46.34375 27.296875 
Q 48.046875 36.234375 45.015625 42.1875 
Q 42.1875 47.5625 34.671875 47.5625 
z
M 36.078125 54.734375 
L 65.921875 54.6875 
L 64.15625 45.703125 
L 54.109375 45.703125 
Q 57.90625 38.09375 55.859375 27.296875 
Q 53.21875 13.875 45.0625 6.25 
Q 36.859375 -1.421875 25.140625 -1.421875 
Q 13.375 -1.421875 8.203125 6.25 
Q 3.03125 13.875 5.671875 27.296875 
Q 8.25 40.765625 16.40625 48.390625 
Q 23.1875 54.734375 36.078125 54.734375 
z
" id="DejaVuSans-Oblique-963"/>
       </defs>
       <use transform="translate(0 0.09375)" xlink:href="#DejaVuSans-49"/>
       <use transform="translate(63.623047 0.09375)" xlink:href="#DejaVuSans-Oblique-963"/>
      </g>
     </g>
    </g>
    <g id="ytick_12">
     <g id="line2d_33">
      <g>
       <use style="stroke:#000000;stroke-width:0.8;" x="379.4225" xlink:href="#mafa14319da" y="61.08"/>
      </g>
     </g>
     <g id="text_20">
      <!-- $2\sigma$ -->
      <g transform="translate(386.4225 64.879219)scale(0.1 -0.1)">
       <use transform="translate(0 0.78125)" xlink:href="#DejaVuSans-50"/>
       <use transform="translate(63.623047 0.78125)" xlink:href="#DejaVuSans-Oblique-963"/>
      </g>
     </g>
    </g>
   </g>
   <g id="patch_8">
    <path d="M 367.8525 246.2 
L 367.8525 199.92 
L 367.8525 61.08 
L 367.8525 14.8 
L 379.4225 14.8 
L 379.4225 61.08 
L 379.4225 199.92 
L 379.4225 246.2 
z
" style="fill:none;stroke:#000000;stroke-linejoin:miter;stroke-width:0.8;"/>
   </g>
  </g>
 </g>
 <defs>
  <clipPath id="p8d936766ca">
   <rect height="231.4" width="284.52" x="65.55" y="14.8"/>
  </clipPath>
  <clipPath id="p29f04f8df9">
   <rect height="231.4" width="11.57" x="367.8525" y="14.8"/>
  </clipPath>
 </defs>
</svg>
