<?xml version="1.0" encoding="utf-8" standalone="no"?>
<!DOCTYPE svg PUBLIC "-//W3C//DTD SVG 1.1//EN"
  "http://www.w3.org/Graphics/SVG/1.1/DTD/svg11.dtd">
<!-- Created with matplotlib (https://matplotlib.org/) -->
<svg height="288pt" version="1.1" viewBox="0 0 432 288" width="432pt" xmlns="http://www.w3.org/2000/svg" xmlns:xlink="http://www.w3.org/1999/xlink">
 <metadata>
  <rdf:RDF xmlns:cc="http://creativecommons.org/ns#" xmlns:dc="http://purl.org/dc/elements/1.1/" xmlns:rdf="http://www.w3.org/1999/02/22-rdf-syntax-ns#">
   <cc:Work>
    <dc:type rdf:resource="http://purl.org/dc/dcmitype/StillImage"/>
    <dc:date>2022-03-31T10:33:32.815320</dc:date>
    <dc:format>image/svg+xml</dc:format>
    <dc:creator>
     <cc:Agent>
      <dc:title>Matplotlib v3.3.3, https://matplotlib.org/</dc:title>
     </cc:Agent>
    </dc:creator>
   </cc:Work>
  </rdf:RDF>
 </metadata>
 <defs>
  <style type="text/css">*{stroke-linecap:butt;stroke-linejoin:round;}</style>
 </defs>
 <g id="figure_1">
  <g id="patch_1">
   <path d="M 0 288 
L 432 288 
L 432 0 
L 0 0 
z
" style="fill:none;"/>
  </g>
  <g id="axes_1">
   <g id="patch_2">
    <path d="M 65.55 246.2 
L 350.07 246.2 
L 350.07 14.8 
L 65.55 14.8 
z
" style="fill:#ffffff;"/>
   </g>
   <g id="PathCollection_1">
    <defs>
     <path d="M 65.677447 -136.561572 
L 66.098262 -137.713856 
L 66.566596 -138.86614 
L 67.097143 -140.018423 
L 68.319101 -141.170707 
L 68.796532 -142.32299 
L 69.097884 -143.475274 
L 69.47284 -144.627558 
L 70.292 -145.475485 
L 70.462264 -145.779841 
L 71.513101 -146.932125 
L 71.680136 -148.084409 
L 71.351769 -149.236692 
L 70.537328 -150.388976 
L 71.427152 -151.54126 
L 73.626666 -152.693543 
L 74.793778 -153.845827 
L 75.034 -154.071893 
L 75.668263 -154.99811 
L 76.532879 -156.150394 
L 77.459707 -157.302678 
L 78.470553 -158.454961 
L 79.596957 -159.607245 
L 79.776 -159.788579 
L 81.667132 -160.759529 
L 83.733034 -161.911812 
L 84.518 -162.438786 
L 86.695537 -163.064096 
L 89.26 -163.605487 
L 94.002 -164.160387 
L 95.683788 -164.21638 
L 98.744 -164.342918 
L 100.994287 -164.21638 
L 103.486 -164.073453 
L 108.228 -163.444773 
L 110.947411 -163.064096 
L 112.97 -162.806514 
L 117.712 -162.08775 
L 118.65858 -161.911812 
L 122.454 -161.27984 
L 125.209371 -160.759529 
L 127.196 -160.440679 
L 131.938 -159.665552 
L 132.206199 -159.607245 
L 136.68 -158.86736 
L 139.714072 -158.454961 
L 141.422 -158.219593 
L 146.164 -157.538295 
L 148.497055 -157.302678 
L 150.906 -156.995988 
L 155.648 -156.61046 
L 160.39 -156.425499 
L 165.132 -156.209671 
L 166.053766 -156.150394 
L 169.874 -155.919925 
L 174.616 -155.834784 
L 179.358 -155.847683 
L 184.1 -156.022519 
L 187.756261 -156.150394 
L 188.842 -156.179714 
L 193.584 -156.253802 
L 198.326 -156.309714 
L 203.068 -156.358267 
L 207.81 -156.403267 
L 212.552 -156.446297 
L 217.294 -156.487962 
L 222.036 -156.528415 
L 226.778 -156.567778 
L 231.52 -156.606458 
L 236.262 -156.645363 
L 241.004 -156.686231 
L 245.746 -156.732554 
L 250.488 -156.79122 
L 255.23 -156.861955 
L 259.972 -156.924779 
L 264.714 -156.974359 
L 269.456 -157.014893 
L 274.198 -157.049305 
L 278.94 -157.078777 
L 283.682 -157.104956 
L 288.424 -157.128646 
L 293.166 -157.150318 
L 297.908 -157.169972 
L 302.65 -157.188179 
L 307.392 -157.205243 
L 312.134 -157.22119 
L 316.876 -157.235978 
L 321.618 -157.249986 
L 326.36 -157.263217 
L 331.102 -157.275474 
L 335.844 -157.287105 
L 340.586 -157.298048 
L 342.710199 -157.302678 
L 345.328 -157.311495 
L 350.07 -157.328415 
L 354.812 -157.346257 
L 354.812 -158.454961 
L 354.812 -159.083754 
L 350.07 -159.182238 
L 345.328 -159.280524 
L 340.586 -159.37899 
L 335.844 -159.480949 
L 331.102 -159.58474 
L 330.030371 -159.607245 
L 326.36 -159.645919 
L 321.618 -159.696716 
L 316.876 -159.749241 
L 312.134 -159.805435 
L 307.392 -159.870449 
L 302.65 -159.952273 
L 297.908 -160.059416 
L 293.166 -160.185963 
L 288.424 -160.326272 
L 283.682 -160.479353 
L 278.94 -160.645057 
L 275.747344 -160.759529 
L 274.198 -160.787445 
L 269.456 -160.873954 
L 264.714 -160.976515 
L 259.972 -161.10433 
L 255.23 -161.255245 
L 250.488 -161.42745 
L 245.746 -161.621322 
L 241.004 -161.831766 
L 239.147055 -161.911812 
L 236.262 -161.987565 
L 231.52 -162.127558 
L 226.778 -162.292161 
L 222.036 -162.479981 
L 217.294 -162.687502 
L 212.552 -162.907843 
L 209.159523 -163.064096 
L 207.81 -163.110649 
L 203.068 -163.278534 
L 198.326 -163.470094 
L 193.584 -163.685737 
L 188.842 -163.925218 
L 184.1 -164.184487 
L 183.511048 -164.21638 
L 179.358 -164.421869 
L 174.616 -164.70967 
L 169.874 -165.065821 
L 166.469003 -165.368663 
L 165.132 -165.481359 
L 160.39 -165.984484 
L 156.386122 -166.520947 
L 155.648 -166.614064 
L 150.906 -167.347714 
L 149.181811 -167.673231 
L 146.164 -168.207008 
L 143.226404 -168.825514 
L 141.422 -169.176996 
L 137.858381 -169.977798 
L 136.68 -170.221254 
L 132.793787 -171.130081 
L 131.938 -171.31289 
L 127.929434 -172.282365 
L 127.196 -172.443512 
L 123.251724 -173.434649 
L 122.454 -173.618643 
L 118.376242 -174.586932 
L 117.712 -174.744916 
L 112.97 -175.701865 
L 112.482059 -175.739216 
L 108.228 -176.391213 
L 103.486 -176.777081 
L 98.744 -176.54624 
L 94.887448 -175.739216 
L 94.002 -175.543327 
L 91.358448 -174.586932 
L 89.26 -173.866961 
L 88.644717 -173.434649 
L 86.894945 -172.282365 
L 84.518 -171.589404 
L 83.671667 -171.130081 
L 82.161191 -169.977798 
L 80.725369 -168.825514 
L 79.776 -168.21653 
L 78.970563 -167.673231 
L 77.543242 -166.520947 
L 76.469698 -165.368663 
L 75.254762 -164.21638 
L 75.034 -164.097506 
L 73.421903 -163.064096 
L 72.0595 -161.911812 
L 71.100956 -160.759529 
L 70.292 -160.429731 
L 68.355748 -159.607245 
L 67.565147 -158.454961 
L 66.887287 -157.302678 
L 66.336967 -156.150394 
L 65.579977 -154.99811 
L 65.55 -154.963063 
L 65.55 -153.845827 
L 65.55 -152.693543 
L 65.55 -151.54126 
L 65.55 -150.388976 
L 65.55 -149.236692 
L 65.55 -148.084409 
L 65.55 -146.932125 
L 65.55 -145.779841 
L 65.55 -144.627558 
L 65.55 -143.475274 
L 65.55 -142.32299 
L 65.55 -141.170707 
L 65.55 -140.018423 
L 65.55 -138.86614 
L 65.55 -137.713856 
L 65.55 -136.561572 
L 65.55 -136.182766 
z
" id="me6b8c2f943" style="stroke:#006428;"/>
    </defs>
    <g clip-path="url(#p73c3817213)">
     <use style="fill:#006428;stroke:#006428;" x="0" xlink:href="#me6b8c2f943" y="288"/>
    </g>
   </g>
   <g id="PathCollection_2">
    <path clip-path="url(#p73c3817213)" d="M 65.655129 162.961264 
L 65.946676 161.808981 
L 66.25522 160.656697 
L 66.580767 159.504413 
L 66.92129 158.35213 
L 67.277077 157.199846 
L 67.653489 156.047562 
L 68.059431 154.895279 
L 68.502472 153.742995 
L 68.984513 152.590711 
L 69.502174 151.438428 
L 70.052383 150.286144 
L 70.292 149.806686 
L 70.526295 149.13386 
L 70.948905 147.981577 
L 71.395477 146.829293 
L 71.862997 145.67701 
L 72.359697 144.524726 
L 72.901241 143.372442 
L 73.578984 142.220159 
L 74.369959 141.067875 
L 75.034 139.928415 
L 75.042619 139.915591 
L 75.793849 138.763308 
L 76.544219 137.611024 
L 77.363031 136.45874 
L 78.270877 135.306457 
L 79.25422 134.154173 
L 79.776 133.564786 
L 80.592633 133.00189 
L 82.256343 131.849606 
L 84.161022 130.697322 
L 84.518 130.517309 
L 89.26 129.606949 
L 94.002 129.753985 
L 98.744 129.920116 
L 103.486 130.141505 
L 108.228 130.516508 
L 109.776234 130.697322 
L 112.97 131.055214 
L 117.712 131.620389 
L 119.561486 131.849606 
L 122.454 132.193367 
L 127.196 132.734125 
L 129.910151 133.00189 
L 131.938 133.190263 
L 136.68 133.575644 
L 141.422 133.893271 
L 146.007128 134.154173 
L 146.164 134.163599 
L 150.906 134.411729 
L 155.648 134.610723 
L 160.39 134.772958 
L 165.132 134.897901 
L 169.874 134.984301 
L 174.616 135.028396 
L 179.358 135.036794 
L 184.1 135.011977 
L 188.842 134.958274 
L 193.584 134.881369 
L 198.326 134.787544 
L 203.068 134.68294 
L 207.81 134.572969 
L 212.552 134.461876 
L 217.294 134.352451 
L 222.036 134.245991 
L 226.216761 134.154173 
L 226.778 134.137028 
L 231.52 133.987717 
L 236.262 133.844087 
L 241.004 133.708136 
L 245.746 133.581129 
L 250.488 133.46364 
L 255.23 133.355907 
L 259.972 133.256866 
L 264.714 133.165526 
L 269.456 133.080923 
L 274.198 133.002346 
L 274.225916 133.00189 
L 278.94 132.888997 
L 283.682 132.781945 
L 288.424 132.681431 
L 293.166 132.587472 
L 297.908 132.500843 
L 302.65 132.420493 
L 307.392 132.345649 
L 312.134 132.276164 
L 316.876 132.212123 
L 321.618 132.152221 
L 326.36 132.096332 
L 331.102 132.045081 
L 335.844 131.997228 
L 340.586 131.952958 
L 345.328 131.912833 
L 350.07 131.876342 
L 354.020258 131.849606 
L 354.812 131.840936 
L 354.812 130.697322 
L 354.812 130.653743 
L 350.07 130.671585 
L 345.328 130.688505 
L 342.710199 130.697322 
L 340.586 130.701952 
L 335.844 130.712895 
L 331.102 130.724526 
L 326.36 130.736783 
L 321.618 130.750014 
L 316.876 130.764022 
L 312.134 130.77881 
L 307.392 130.794757 
L 302.65 130.811821 
L 297.908 130.830028 
L 293.166 130.849682 
L 288.424 130.871354 
L 283.682 130.895044 
L 278.94 130.921223 
L 274.198 130.950695 
L 269.456 130.985107 
L 264.714 131.025641 
L 259.972 131.075221 
L 255.23 131.138045 
L 250.488 131.20878 
L 245.746 131.267446 
L 241.004 131.313769 
L 236.262 131.354637 
L 231.52 131.393542 
L 226.778 131.432222 
L 222.036 131.471585 
L 217.294 131.512038 
L 212.552 131.553703 
L 207.81 131.596733 
L 203.068 131.641733 
L 198.326 131.690286 
L 193.584 131.746198 
L 188.842 131.820286 
L 187.756261 131.849606 
L 184.1 131.977481 
L 179.358 132.152317 
L 174.616 132.165216 
L 169.874 132.080075 
L 166.053766 131.849606 
L 165.132 131.790329 
L 160.39 131.574501 
L 155.648 131.38954 
L 150.906 131.004012 
L 148.497055 130.697322 
L 146.164 130.461705 
L 141.422 129.780407 
L 139.714072 129.545039 
L 136.68 129.13264 
L 132.206199 128.392755 
L 131.938 128.334448 
L 127.196 127.559321 
L 125.209371 127.240471 
L 122.454 126.72016 
L 118.65858 126.088188 
L 117.712 125.91225 
L 112.97 125.193486 
L 110.947411 124.935904 
L 108.228 124.555227 
L 103.486 123.926547 
L 100.994287 123.78362 
L 98.744 123.657082 
L 95.683788 123.78362 
L 94.002 123.839613 
L 89.26 124.394513 
L 86.695537 124.935904 
L 84.518 125.561214 
L 83.733034 126.088188 
L 81.667132 127.240471 
L 79.776 128.211421 
L 79.596957 128.392755 
L 78.470553 129.545039 
L 77.459707 130.697322 
L 76.532879 131.849606 
L 75.668263 133.00189 
L 75.034 133.928107 
L 74.793778 134.154173 
L 73.626666 135.306457 
L 71.427152 136.45874 
L 70.537328 137.611024 
L 71.351769 138.763308 
L 71.680136 139.915591 
L 71.513101 141.067875 
L 70.462264 142.220159 
L 70.292 142.524515 
L 69.47284 143.372442 
L 69.097884 144.524726 
L 68.796532 145.67701 
L 68.319101 146.829293 
L 67.097143 147.981577 
L 66.566596 149.13386 
L 66.098262 150.286144 
L 65.677447 151.438428 
L 65.55 151.817234 
L 65.55 152.590711 
L 65.55 153.742995 
L 65.55 154.895279 
L 65.55 156.047562 
L 65.55 157.199846 
L 65.55 158.35213 
L 65.55 159.504413 
L 65.55 160.656697 
L 65.55 161.808981 
L 65.55 162.961264 
L 65.55 163.385713 
z
" style="fill:#2f974e;stroke:#2f974e;"/>
    <path clip-path="url(#p73c3817213)" d="M 65.579977 133.00189 
L 66.336967 131.849606 
L 66.887287 130.697322 
L 67.565147 129.545039 
L 68.355748 128.392755 
L 70.292 127.570269 
L 71.100956 127.240471 
L 72.0595 126.088188 
L 73.421903 124.935904 
L 75.034 123.902494 
L 75.254762 123.78362 
L 76.469698 122.631337 
L 77.543242 121.479053 
L 78.970563 120.326769 
L 79.776 119.78347 
L 80.725369 119.174486 
L 82.161191 118.022202 
L 83.671667 116.869919 
L 84.518 116.410596 
L 86.894945 115.717635 
L 88.644717 114.565351 
L 89.26 114.133039 
L 91.358448 113.413068 
L 94.002 112.456673 
L 94.887448 112.260784 
L 98.744 111.45376 
L 103.486 111.222919 
L 108.228 111.608787 
L 112.482059 112.260784 
L 112.97 112.298135 
L 117.712 113.255084 
L 118.376242 113.413068 
L 122.454 114.381357 
L 123.251724 114.565351 
L 127.196 115.556488 
L 127.929434 115.717635 
L 131.938 116.68711 
L 132.793787 116.869919 
L 136.68 117.778746 
L 137.858381 118.022202 
L 141.422 118.823004 
L 143.226404 119.174486 
L 146.164 119.792992 
L 149.181811 120.326769 
L 150.906 120.652286 
L 155.648 121.385936 
L 156.386122 121.479053 
L 160.39 122.015516 
L 165.132 122.518641 
L 166.469003 122.631337 
L 169.874 122.934179 
L 174.616 123.29033 
L 179.358 123.578131 
L 183.511048 123.78362 
L 184.1 123.815513 
L 188.842 124.074782 
L 193.584 124.314263 
L 198.326 124.529906 
L 203.068 124.721466 
L 207.81 124.889351 
L 209.159523 124.935904 
L 212.552 125.092157 
L 217.294 125.312498 
L 222.036 125.520019 
L 226.778 125.707839 
L 231.52 125.872442 
L 236.262 126.012435 
L 239.147055 126.088188 
L 241.004 126.168234 
L 245.746 126.378678 
L 250.488 126.57255 
L 255.23 126.744755 
L 259.972 126.89567 
L 264.714 127.023485 
L 269.456 127.126046 
L 274.198 127.212555 
L 275.747344 127.240471 
L 278.94 127.354943 
L 283.682 127.520647 
L 288.424 127.673728 
L 293.166 127.814037 
L 297.908 127.940584 
L 302.65 128.047727 
L 307.392 128.129551 
L 312.134 128.194565 
L 316.876 128.250759 
L 321.618 128.303284 
L 326.36 128.354081 
L 330.030371 128.392755 
L 331.102 128.41526 
L 335.844 128.519051 
L 340.586 128.62101 
L 345.328 128.719476 
L 350.07 128.817762 
L 354.812 128.916246 
L 354.812 128.392755 
L 354.812 127.983569 
L 350.07 127.894904 
L 345.328 127.812663 
L 340.586 127.731944 
L 335.844 127.64744 
L 331.102 127.558088 
L 326.36 127.462636 
L 321.618 127.356567 
L 316.985184 127.240471 
L 316.876 127.237328 
L 312.134 127.097398 
L 307.392 126.946564 
L 302.65 126.786139 
L 297.908 126.6286 
L 293.166 126.486231 
L 288.424 126.350166 
L 283.682 126.210627 
L 279.867795 126.088188 
L 278.94 126.049465 
L 274.198 125.840704 
L 269.456 125.619185 
L 264.714 125.40059 
L 259.972 125.202203 
L 255.23 125.015958 
L 253.272226 124.935904 
L 250.488 124.778933 
L 245.746 124.496825 
L 241.004 124.216295 
L 236.262 123.957861 
L 232.874783 123.78362 
L 231.52 123.688983 
L 226.778 123.345431 
L 222.036 123.003847 
L 217.294 122.681427 
L 216.544314 122.631337 
L 212.552 122.28916 
L 207.81 121.878112 
L 203.090432 121.479053 
L 203.068 121.476835 
L 198.326 120.995941 
L 193.584 120.510634 
L 191.802439 120.326769 
L 188.842 119.980836 
L 184.1 119.413456 
L 182.1519 119.174486 
L 179.358 118.8007 
L 174.616 118.14408 
L 173.761592 118.022202 
L 169.874 117.433355 
L 166.332822 116.869919 
L 165.132 116.670906 
L 160.39 115.859623 
L 159.571892 115.717635 
L 155.648 115.010504 
L 153.233895 114.565351 
L 150.906 114.120629 
L 147.256257 113.413068 
L 146.164 113.192535 
L 141.555561 112.260784 
L 141.422 112.232417 
L 136.68 111.245421 
L 136.03305 111.1085 
L 131.938 110.220333 
L 130.770536 109.956217 
L 127.196 109.14532 
L 125.742469 108.803933 
L 122.454 108.04056 
L 120.748761 107.651649 
L 117.712 106.965294 
L 115.389421 106.499366 
L 112.97 106.026375 
L 108.457015 105.347082 
L 108.228 105.31334 
L 103.486 105.079574 
L 100.788491 105.347082 
L 98.744 105.547698 
L 95.435914 106.499366 
L 94.002 106.884617 
L 92.513001 107.651649 
L 89.878772 108.803933 
L 89.26 109.063428 
L 88.215479 109.956217 
L 86.723687 111.1085 
L 85.09606 112.260784 
L 84.518 112.674763 
L 83.774129 113.413068 
L 82.593792 114.565351 
L 81.282152 115.717635 
L 79.799434 116.869919 
L 79.776 116.889006 
L 77.829782 118.022202 
L 76.253134 119.174486 
L 75.070094 120.326769 
L 75.034 120.36592 
L 72.859276 121.479053 
L 70.913486 122.631337 
L 70.292 123.072078 
L 69.188196 123.78362 
L 67.707999 124.935904 
L 66.410489 126.088188 
L 65.55 126.867813 
L 65.55 127.240471 
L 65.55 128.392755 
L 65.55 129.545039 
L 65.55 130.697322 
L 65.55 131.849606 
L 65.55 133.00189 
L 65.55 133.036937 
z
" style="fill:#2f974e;stroke:#2f974e;"/>
   </g>
   <g id="PathCollection_3">
    <path clip-path="url(#p73c3817213)" d="M 65.652571 172.179533 
L 66.01886 171.02725 
L 66.361908 169.874966 
L 66.685095 168.722682 
L 66.997753 167.570399 
L 67.311205 166.418115 
L 67.636741 165.265831 
L 67.984029 164.113548 
L 68.358449 162.961264 
L 68.75877 161.808981 
L 69.177556 160.656697 
L 69.605253 159.504413 
L 70.037502 158.35213 
L 70.292 157.683389 
L 70.424278 157.199846 
L 70.753316 156.047562 
L 71.117984 154.895279 
L 71.521665 153.742995 
L 71.948226 152.590711 
L 72.380193 151.438428 
L 72.820142 150.286144 
L 73.281437 149.13386 
L 73.762272 147.981577 
L 74.250459 146.829293 
L 74.756119 145.67701 
L 75.034 145.100697 
L 75.36784 144.524726 
L 76.080608 143.372442 
L 76.821203 142.220159 
L 77.577069 141.067875 
L 78.337485 139.915591 
L 79.119732 138.763308 
L 79.776 137.90178 
L 80.316011 137.611024 
L 82.330275 136.45874 
L 84.144344 135.306457 
L 84.518 135.067233 
L 89.26 134.398646 
L 94.002 134.323589 
L 98.744 134.672271 
L 103.486 135.112929 
L 105.253043 135.306457 
L 108.228 135.647415 
L 112.97 136.18715 
L 115.830248 136.45874 
L 117.712 136.627113 
L 122.454 137.033317 
L 127.196 137.451614 
L 129.356207 137.611024 
L 131.938 137.769872 
L 136.68 137.990498 
L 141.422 138.13535 
L 146.164 138.225967 
L 150.906 138.266519 
L 155.648 138.251739 
L 160.39 138.199671 
L 165.132 138.117101 
L 169.874 138.010145 
L 174.616 137.882298 
L 179.358 137.743564 
L 183.652299 137.611024 
L 184.1 137.595988 
L 188.842 137.42104 
L 193.584 137.240036 
L 198.326 137.054536 
L 203.068 136.86788 
L 207.81 136.685927 
L 212.552 136.515532 
L 214.169524 136.45874 
L 217.294 136.333029 
L 222.036 136.13674 
L 226.778 135.940002 
L 231.52 135.748072 
L 236.262 135.570651 
L 241.004 135.416058 
L 244.745689 135.306457 
L 245.746 135.268681 
L 250.488 135.0849 
L 255.23 134.90512 
L 259.972 134.730314 
L 264.714 134.567374 
L 269.456 134.427813 
L 274.198 134.310275 
L 278.94 134.205493 
L 281.30333 134.154173 
L 283.682 134.076815 
L 288.424 133.923919 
L 293.166 133.776212 
L 297.908 133.634313 
L 302.65 133.50418 
L 307.392 133.396115 
L 312.134 133.307175 
L 316.876 133.229963 
L 321.618 133.157958 
L 326.36 133.088199 
L 331.102 133.024117 
L 332.763814 133.00189 
L 335.844 132.927274 
L 340.586 132.814333 
L 345.328 132.705849 
L 350.07 132.597988 
L 354.812 132.49603 
L 354.812 131.849606 
L 354.812 131.840936 
L 354.020258 131.849606 
L 350.07 131.876342 
L 345.328 131.912833 
L 340.586 131.952958 
L 335.844 131.997228 
L 331.102 132.045081 
L 326.36 132.096332 
L 321.618 132.152221 
L 316.876 132.212123 
L 312.134 132.276164 
L 307.392 132.345649 
L 302.65 132.420493 
L 297.908 132.500843 
L 293.166 132.587472 
L 288.424 132.681431 
L 283.682 132.781945 
L 278.94 132.888997 
L 274.225916 133.00189 
L 274.198 133.002346 
L 269.456 133.080923 
L 264.714 133.165526 
L 259.972 133.256866 
L 255.23 133.355907 
L 250.488 133.46364 
L 245.746 133.581129 
L 241.004 133.708136 
L 236.262 133.844087 
L 231.52 133.987717 
L 226.778 134.137028 
L 226.216761 134.154173 
L 222.036 134.245991 
L 217.294 134.352451 
L 212.552 134.461876 
L 207.81 134.572969 
L 203.068 134.68294 
L 198.326 134.787544 
L 193.584 134.881369 
L 188.842 134.958274 
L 184.1 135.011977 
L 179.358 135.036794 
L 174.616 135.028396 
L 169.874 134.984301 
L 165.132 134.897901 
L 160.39 134.772958 
L 155.648 134.610723 
L 150.906 134.411729 
L 146.164 134.163599 
L 146.007128 134.154173 
L 141.422 133.893271 
L 136.68 133.575644 
L 131.938 133.190263 
L 129.910151 133.00189 
L 127.196 132.734125 
L 122.454 132.193367 
L 119.561486 131.849606 
L 117.712 131.620389 
L 112.97 131.055214 
L 109.776234 130.697322 
L 108.228 130.516508 
L 103.486 130.141505 
L 98.744 129.920116 
L 94.002 129.753985 
L 89.26 129.606949 
L 84.518 130.517309 
L 84.161022 130.697322 
L 82.256343 131.849606 
L 80.592633 133.00189 
L 79.776 133.564786 
L 79.25422 134.154173 
L 78.270877 135.306457 
L 77.363031 136.45874 
L 76.544219 137.611024 
L 75.793849 138.763308 
L 75.042619 139.915591 
L 75.034 139.928415 
L 74.369959 141.067875 
L 73.578984 142.220159 
L 72.901241 143.372442 
L 72.359697 144.524726 
L 71.862997 145.67701 
L 71.395477 146.829293 
L 70.948905 147.981577 
L 70.526295 149.13386 
L 70.292 149.806686 
L 70.052383 150.286144 
L 69.502174 151.438428 
L 68.984513 152.590711 
L 68.502472 153.742995 
L 68.059431 154.895279 
L 67.653489 156.047562 
L 67.277077 157.199846 
L 66.92129 158.35213 
L 66.580767 159.504413 
L 66.25522 160.656697 
L 65.946676 161.808981 
L 65.655129 162.961264 
L 65.55 163.385713 
L 65.55 164.113548 
L 65.55 165.265831 
L 65.55 166.418115 
L 65.55 167.570399 
L 65.55 168.722682 
L 65.55 169.874966 
L 65.55 171.02725 
L 65.55 172.179533 
L 65.55 172.488348 
z
" style="fill:#75c477;stroke:#75c477;"/>
    <path clip-path="url(#p73c3817213)" d="M 321.618 127.356567 
L 326.36 127.462636 
L 331.102 127.558088 
L 335.844 127.64744 
L 340.586 127.731944 
L 345.328 127.812663 
L 350.07 127.894904 
L 354.812 127.983569 
L 354.812 127.259108 
L 353.871669 127.240471 
L 350.07 127.135722 
L 345.328 126.998773 
L 340.586 126.860834 
L 335.844 126.721212 
L 331.102 126.582275 
L 326.36 126.443383 
L 321.618 126.29894 
L 316.876 126.14965 
L 314.964696 126.088188 
L 312.134 125.975352 
L 307.392 125.781534 
L 302.65 125.587658 
L 297.908 125.393694 
L 293.166 125.194426 
L 288.424 124.983555 
L 287.382144 124.935904 
L 283.682 124.739508 
L 278.94 124.488083 
L 274.198 124.234489 
L 269.456 123.969217 
L 266.295062 123.78362 
L 264.714 123.678941 
L 259.972 123.365087 
L 255.23 123.047579 
L 250.488 122.715129 
L 249.346882 122.631337 
L 245.746 122.343397 
L 241.004 121.960872 
L 236.262 121.561071 
L 235.323775 121.479053 
L 231.52 121.122501 
L 226.778 120.669675 
L 223.35498 120.326769 
L 222.036 120.184486 
L 217.294 119.669512 
L 212.942689 119.174486 
L 212.552 119.126777 
L 207.81 118.545723 
L 203.712779 118.022202 
L 203.068 117.934212 
L 198.326 117.283584 
L 195.405611 116.869919 
L 193.584 116.595616 
L 188.842 115.870649 
L 187.855603 115.717635 
L 184.1 115.101074 
L 180.897392 114.565351 
L 179.358 114.292459 
L 174.616 113.442324 
L 174.453338 113.413068 
L 169.874 112.543604 
L 168.40042 112.260784 
L 165.132 111.598984 
L 162.72092 111.1085 
L 160.39 110.60959 
L 157.346026 109.956217 
L 155.648 109.574384 
L 152.231511 108.803933 
L 150.906 108.492563 
L 147.334995 107.651649 
L 146.164 107.366465 
L 142.608108 106.499366 
L 141.422 106.202573 
L 138.009189 105.347082 
L 136.68 105.00947 
L 133.511081 104.194798 
L 131.938 103.794094 
L 129.118969 103.042515 
L 127.196 102.539548 
L 124.698303 101.890231 
L 122.454 101.302574 
L 120.032698 100.737948 
L 117.712 100.183165 
L 114.59985 99.585664 
L 112.97 99.280378 
L 108.228 98.596352 
L 105.200573 98.43338 
L 103.486 98.346937 
L 102.639134 98.43338 
L 98.744 98.823822 
L 96.549348 99.585664 
L 94.002 100.392672 
L 93.468762 100.737948 
L 91.735432 101.890231 
L 90.039488 103.042515 
L 89.26 103.555435 
L 88.636843 104.194798 
L 87.379741 105.347082 
L 86.055844 106.499366 
L 84.764455 107.651649 
L 84.518 107.868128 
L 83.767651 108.803933 
L 82.652631 109.956217 
L 81.369965 111.1085 
L 80.076268 112.260784 
L 79.776 112.548669 
L 78.629403 113.413068 
L 76.981413 114.565351 
L 75.141786 115.717635 
L 75.034 115.790445 
L 72.428566 116.869919 
L 70.292 117.832376 
L 69.547469 118.022202 
L 66.464666 119.174486 
L 65.55 119.679532 
L 65.55 120.326769 
L 65.55 121.479053 
L 65.55 122.631337 
L 65.55 123.78362 
L 65.55 124.935904 
L 65.55 126.088188 
L 65.55 126.867813 
L 66.410489 126.088188 
L 67.707999 124.935904 
L 69.188196 123.78362 
L 70.292 123.072078 
L 70.913486 122.631337 
L 72.859276 121.479053 
L 75.034 120.36592 
L 75.070094 120.326769 
L 76.253134 119.174486 
L 77.829782 118.022202 
L 79.776 116.889006 
L 79.799434 116.869919 
L 81.282152 115.717635 
L 82.593792 114.565351 
L 83.774129 113.413068 
L 84.518 112.674763 
L 85.09606 112.260784 
L 86.723687 111.1085 
L 88.215479 109.956217 
L 89.26 109.063428 
L 89.878772 108.803933 
L 92.513001 107.651649 
L 94.002 106.884617 
L 95.435914 106.499366 
L 98.744 105.547698 
L 100.788491 105.347082 
L 103.486 105.079574 
L 108.228 105.31334 
L 108.457015 105.347082 
L 112.97 106.026375 
L 115.389421 106.499366 
L 117.712 106.965294 
L 120.748761 107.651649 
L 122.454 108.04056 
L 125.742469 108.803933 
L 127.196 109.14532 
L 130.770536 109.956217 
L 131.938 110.220333 
L 136.03305 111.1085 
L 136.68 111.245421 
L 141.422 112.232417 
L 141.555561 112.260784 
L 146.164 113.192535 
L 147.256257 113.413068 
L 150.906 114.120629 
L 153.233895 114.565351 
L 155.648 115.010504 
L 159.571892 115.717635 
L 160.39 115.859623 
L 165.132 116.670906 
L 166.332822 116.869919 
L 169.874 117.433355 
L 173.761592 118.022202 
L 174.616 118.14408 
L 179.358 118.8007 
L 182.1519 119.174486 
L 184.1 119.413456 
L 188.842 119.980836 
L 191.802439 120.326769 
L 193.584 120.510634 
L 198.326 120.995941 
L 203.068 121.476835 
L 203.090432 121.479053 
L 207.81 121.878112 
L 212.552 122.28916 
L 216.544314 122.631337 
L 217.294 122.681427 
L 222.036 123.003847 
L 226.778 123.345431 
L 231.52 123.688983 
L 232.874783 123.78362 
L 236.262 123.957861 
L 241.004 124.216295 
L 245.746 124.496825 
L 250.488 124.778933 
L 253.272226 124.935904 
L 255.23 125.015958 
L 259.972 125.202203 
L 264.714 125.40059 
L 269.456 125.619185 
L 274.198 125.840704 
L 278.94 126.049465 
L 279.867795 126.088188 
L 283.682 126.210627 
L 288.424 126.350166 
L 293.166 126.486231 
L 297.908 126.6286 
L 302.65 126.786139 
L 307.392 126.946564 
L 312.134 127.097398 
L 316.876 127.237328 
L 316.985184 127.240471 
z
" style="fill:#75c477;stroke:#75c477;"/>
   </g>
   <g id="PathCollection_4">
    <path clip-path="url(#p73c3817213)" d="M 65.80089 179.093235 
L 66.100638 177.940952 
L 66.453943 176.788668 
L 66.879055 175.636384 
L 67.377413 174.484101 
L 67.834459 173.331817 
L 68.227563 172.179533 
L 68.570044 171.02725 
L 68.877965 169.874966 
L 69.172275 168.722682 
L 69.47451 167.570399 
L 69.803085 166.418115 
L 70.172492 165.265831 
L 70.292 164.930919 
L 70.538691 164.113548 
L 70.922919 162.961264 
L 71.309016 161.808981 
L 71.668156 160.656697 
L 71.9983 159.504413 
L 72.320672 158.35213 
L 72.66431 157.199846 
L 73.054985 156.047562 
L 73.506386 154.895279 
L 74.005583 153.742995 
L 74.515178 152.590711 
L 75.011835 151.438428 
L 75.034 151.386194 
L 75.580909 150.286144 
L 76.250854 149.13386 
L 76.943772 147.981577 
L 77.599079 146.829293 
L 78.22501 145.67701 
L 78.845632 144.524726 
L 79.489577 143.372442 
L 79.776 142.89445 
L 81.163501 142.220159 
L 83.499997 141.067875 
L 84.518 140.514118 
L 89.26 140.045955 
L 94.002 140.220786 
L 98.744 140.412693 
L 103.486 140.78519 
L 108.228 140.989235 
L 110.299335 141.067875 
L 112.97 141.166221 
L 117.712 141.423891 
L 122.454 141.605921 
L 127.196 141.70675 
L 131.938 141.730236 
L 136.68 141.701212 
L 141.422 141.61114 
L 146.164 141.483112 
L 150.906 141.324432 
L 155.648 141.129218 
L 156.955582 141.067875 
L 160.39 140.933969 
L 165.132 140.725786 
L 169.874 140.493661 
L 174.616 140.236244 
L 179.358 139.963445 
L 180.136422 139.915591 
L 184.1 139.713624 
L 188.842 139.452838 
L 193.584 139.174468 
L 198.326 138.883988 
L 200.238405 138.763308 
L 203.068 138.613966 
L 207.81 138.358119 
L 212.552 138.09204 
L 217.294 137.811752 
L 220.675359 137.611024 
L 222.036 137.540277 
L 226.778 137.306396 
L 231.52 137.080849 
L 236.262 136.841371 
L 241.004 136.585434 
L 243.523239 136.45874 
L 245.746 136.352759 
L 250.488 136.152399 
L 255.23 135.968867 
L 259.972 135.779335 
L 264.714 135.56881 
L 269.456 135.369037 
L 271.045571 135.306457 
L 274.198 135.178316 
L 278.94 135.015386 
L 283.682 134.86954 
L 288.424 134.723494 
L 293.166 134.571465 
L 297.908 134.434639 
L 302.65 134.291275 
L 306.92932 134.154173 
L 307.392 134.137436 
L 312.134 133.990118 
L 316.876 133.868525 
L 321.618 133.757541 
L 326.36 133.643156 
L 331.102 133.537633 
L 335.844 133.455422 
L 340.586 133.381081 
L 345.328 133.284456 
L 350.07 133.205516 
L 354.812 133.083165 
L 354.812 133.00189 
L 354.812 132.49603 
L 350.07 132.597988 
L 345.328 132.705849 
L 340.586 132.814333 
L 335.844 132.927274 
L 332.763814 133.00189 
L 331.102 133.024117 
L 326.36 133.088199 
L 321.618 133.157958 
L 316.876 133.229963 
L 312.134 133.307175 
L 307.392 133.396115 
L 302.65 133.50418 
L 297.908 133.634313 
L 293.166 133.776212 
L 288.424 133.923919 
L 283.682 134.076815 
L 281.30333 134.154173 
L 278.94 134.205493 
L 274.198 134.310275 
L 269.456 134.427813 
L 264.714 134.567374 
L 259.972 134.730314 
L 255.23 134.90512 
L 250.488 135.0849 
L 245.746 135.268681 
L 244.745689 135.306457 
L 241.004 135.416058 
L 236.262 135.570651 
L 231.52 135.748072 
L 226.778 135.940002 
L 222.036 136.13674 
L 217.294 136.333029 
L 214.169524 136.45874 
L 212.552 136.515532 
L 207.81 136.685927 
L 203.068 136.86788 
L 198.326 137.054536 
L 193.584 137.240036 
L 188.842 137.42104 
L 184.1 137.595988 
L 183.652299 137.611024 
L 179.358 137.743564 
L 174.616 137.882298 
L 169.874 138.010145 
L 165.132 138.117101 
L 160.39 138.199671 
L 155.648 138.251739 
L 150.906 138.266519 
L 146.164 138.225967 
L 141.422 138.13535 
L 136.68 137.990498 
L 131.938 137.769872 
L 129.356207 137.611024 
L 127.196 137.451614 
L 122.454 137.033317 
L 117.712 136.627113 
L 115.830248 136.45874 
L 112.97 136.18715 
L 108.228 135.647415 
L 105.253043 135.306457 
L 103.486 135.112929 
L 98.744 134.672271 
L 94.002 134.323589 
L 89.26 134.398646 
L 84.518 135.067233 
L 84.144344 135.306457 
L 82.330275 136.45874 
L 80.316011 137.611024 
L 79.776 137.90178 
L 79.119732 138.763308 
L 78.337485 139.915591 
L 77.577069 141.067875 
L 76.821203 142.220159 
L 76.080608 143.372442 
L 75.36784 144.524726 
L 75.034 145.100697 
L 74.756119 145.67701 
L 74.250459 146.829293 
L 73.762272 147.981577 
L 73.281437 149.13386 
L 72.820142 150.286144 
L 72.380193 151.438428 
L 71.948226 152.590711 
L 71.521665 153.742995 
L 71.117984 154.895279 
L 70.753316 156.047562 
L 70.424278 157.199846 
L 70.292 157.683389 
L 70.037502 158.35213 
L 69.605253 159.504413 
L 69.177556 160.656697 
L 68.75877 161.808981 
L 68.358449 162.961264 
L 67.984029 164.113548 
L 67.636741 165.265831 
L 67.311205 166.418115 
L 66.997753 167.570399 
L 66.685095 168.722682 
L 66.361908 169.874966 
L 66.01886 171.02725 
L 65.652571 172.179533 
L 65.55 172.488348 
L 65.55 173.331817 
L 65.55 174.484101 
L 65.55 175.636384 
L 65.55 176.788668 
L 65.55 177.940952 
L 65.55 179.093235 
L 65.55 180.226412 
z
" style="fill:#b8e3b2;stroke:#b8e3b2;"/>
    <path clip-path="url(#p73c3817213)" d="M 354.812 127.259108 
L 354.812 127.240471 
L 354.812 126.286186 
L 350.07 126.128551 
L 348.839692 126.088188 
L 345.328 125.960355 
L 340.586 125.800247 
L 335.844 125.638699 
L 331.102 125.465319 
L 326.36 125.273615 
L 321.618 125.060825 
L 318.881812 124.935904 
L 316.876 124.839792 
L 312.134 124.627241 
L 307.392 124.407481 
L 302.65 124.164438 
L 297.908 123.895938 
L 295.97335 123.78362 
L 293.166 123.619633 
L 288.424 123.346886 
L 283.682 123.052912 
L 278.94 122.725357 
L 277.613716 122.631337 
L 274.198 122.392038 
L 269.456 122.052468 
L 264.714 121.675973 
L 262.373605 121.479053 
L 259.972 121.278185 
L 255.23 120.879092 
L 250.488 120.436008 
L 249.36947 120.326769 
L 245.746 119.976822 
L 241.004 119.494103 
L 238.104065 119.174486 
L 236.262 118.970125 
L 231.52 118.43499 
L 228.162642 118.022202 
L 226.778 117.849252 
L 222.036 117.24831 
L 219.265897 116.869919 
L 217.294 116.596241 
L 212.552 115.915238 
L 211.244468 115.717635 
L 207.81 115.191745 
L 203.950209 114.565351 
L 203.068 114.417494 
L 198.326 113.60873 
L 197.22625 113.413068 
L 193.584 112.749654 
L 191.00438 112.260784 
L 188.842 111.837179 
L 185.217195 111.1085 
L 184.1 110.874712 
L 179.77696 109.956217 
L 179.358 109.863194 
L 174.622736 108.803933 
L 174.616 108.802357 
L 169.874 107.692791 
L 169.699349 107.651649 
L 165.132 106.530962 
L 165.002874 106.499366 
L 160.481352 105.347082 
L 160.39 105.322892 
L 156.08823 104.194798 
L 155.648 104.07476 
L 151.80115 103.042515 
L 150.906 102.792746 
L 147.581738 101.890231 
L 146.164 101.490476 
L 143.402951 100.737948 
L 141.422 100.179707 
L 139.234245 99.585664 
L 136.68 98.875119 
L 135.017337 98.43338 
L 131.938 97.603413 
L 130.688902 97.281097 
L 127.196 96.365525 
L 126.194848 96.128813 
L 122.454 95.2368 
L 121.295382 94.976529 
L 117.712 94.191581 
L 115.803733 93.824246 
L 112.97 93.289372 
L 108.228 92.7907 
L 103.486 92.861805 
L 98.744 93.543119 
L 97.928915 93.824246 
L 94.86806 94.976529 
L 94.002 95.311831 
L 92.547593 96.128813 
L 90.544145 97.281097 
L 89.26 98.102217 
L 89.016889 98.43338 
L 88.077627 99.585664 
L 87.022326 100.737948 
L 85.856144 101.890231 
L 84.555191 103.042515 
L 84.518 103.07342 
L 83.610273 104.194798 
L 82.761724 105.347082 
L 81.880134 106.499366 
L 80.718461 107.651649 
L 79.776 108.53633 
L 79.319432 108.803933 
L 77.581688 109.956217 
L 75.929579 111.1085 
L 75.034 111.715461 
L 70.292 111.83162 
L 65.55 111.756713 
L 65.55 112.260784 
L 65.55 113.413068 
L 65.55 114.565351 
L 65.55 115.717635 
L 65.55 116.869919 
L 65.55 118.022202 
L 65.55 119.174486 
L 65.55 119.679532 
L 66.464666 119.174486 
L 69.547469 118.022202 
L 70.292 117.832376 
L 72.428566 116.869919 
L 75.034 115.790445 
L 75.141786 115.717635 
L 76.981413 114.565351 
L 78.629403 113.413068 
L 79.776 112.548669 
L 80.076268 112.260784 
L 81.369965 111.1085 
L 82.652631 109.956217 
L 83.767651 108.803933 
L 84.518 107.868128 
L 84.764455 107.651649 
L 86.055844 106.499366 
L 87.379741 105.347082 
L 88.636843 104.194798 
L 89.26 103.555435 
L 90.039488 103.042515 
L 91.735432 101.890231 
L 93.468762 100.737948 
L 94.002 100.392672 
L 96.549348 99.585664 
L 98.744 98.823822 
L 102.639134 98.43338 
L 103.486 98.346937 
L 105.200573 98.43338 
L 108.228 98.596352 
L 112.97 99.280378 
L 114.59985 99.585664 
L 117.712 100.183165 
L 120.032698 100.737948 
L 122.454 101.302574 
L 124.698303 101.890231 
L 127.196 102.539548 
L 129.118969 103.042515 
L 131.938 103.794094 
L 133.511081 104.194798 
L 136.68 105.00947 
L 138.009189 105.347082 
L 141.422 106.202573 
L 142.608108 106.499366 
L 146.164 107.366465 
L 147.334995 107.651649 
L 150.906 108.492563 
L 152.231511 108.803933 
L 155.648 109.574384 
L 157.346026 109.956217 
L 160.39 110.60959 
L 162.72092 111.1085 
L 165.132 111.598984 
L 168.40042 112.260784 
L 169.874 112.543604 
L 174.453338 113.413068 
L 174.616 113.442324 
L 179.358 114.292459 
L 180.897392 114.565351 
L 184.1 115.101074 
L 187.855603 115.717635 
L 188.842 115.870649 
L 193.584 116.595616 
L 195.405611 116.869919 
L 198.326 117.283584 
L 203.068 117.934212 
L 203.712779 118.022202 
L 207.81 118.545723 
L 212.552 119.126777 
L 212.942689 119.174486 
L 217.294 119.669512 
L 222.036 120.184486 
L 223.35498 120.326769 
L 226.778 120.669675 
L 231.52 121.122501 
L 235.323775 121.479053 
L 236.262 121.561071 
L 241.004 121.960872 
L 245.746 122.343397 
L 249.346882 122.631337 
L 250.488 122.715129 
L 255.23 123.047579 
L 259.972 123.365087 
L 264.714 123.678941 
L 266.295062 123.78362 
L 269.456 123.969217 
L 274.198 124.234489 
L 278.94 124.488083 
L 283.682 124.739508 
L 287.382144 124.935904 
L 288.424 124.983555 
L 293.166 125.194426 
L 297.908 125.393694 
L 302.65 125.587658 
L 307.392 125.781534 
L 312.134 125.975352 
L 314.964696 126.088188 
L 316.876 126.14965 
L 321.618 126.29894 
L 326.36 126.443383 
L 331.102 126.582275 
L 335.844 126.721212 
L 340.586 126.860834 
L 345.328 126.998773 
L 350.07 127.135722 
L 353.871669 127.240471 
z
" style="fill:#b8e3b2;stroke:#b8e3b2;"/>
   </g>
   <g id="PathCollection_5">
    <path clip-path="url(#p73c3817213)" d="M 65.695319 187.159221 
L 65.89209 186.006937 
L 66.109608 184.854653 
L 66.35001 183.70237 
L 66.616255 182.550086 
L 66.912603 181.397802 
L 67.244616 180.245519 
L 67.619542 179.093235 
L 68.047374 177.940952 
L 68.544739 176.788668 
L 69.150416 175.636384 
L 69.850386 174.484101 
L 70.292 173.548149 
L 70.292 173.331817 
L 70.334731 173.321434 
L 70.490463 172.179533 
L 70.658485 171.02725 
L 70.851303 169.874966 
L 71.087836 168.722682 
L 71.387504 167.570399 
L 71.765821 166.418115 
L 72.212807 165.265831 
L 72.683434 164.113548 
L 73.13862 162.961264 
L 73.545332 161.808981 
L 73.892621 160.656697 
L 74.205851 159.504413 
L 74.529759 158.35213 
L 74.904342 157.199846 
L 75.034 156.863104 
L 75.365568 156.047562 
L 75.993986 154.895279 
L 76.689428 153.742995 
L 77.338876 152.590711 
L 77.955586 151.438428 
L 78.664163 150.286144 
L 79.594838 149.13386 
L 79.776 148.875398 
L 80.87921 147.981577 
L 82.48972 146.829293 
L 84.518 145.719945 
L 85.056312 145.67701 
L 89.26 145.244833 
L 94.002 144.975063 
L 98.744 145.350259 
L 103.486 145.48681 
L 106.691606 145.67701 
L 108.228 145.776511 
L 112.97 146.145429 
L 117.712 146.343845 
L 122.454 146.382482 
L 127.196 146.313715 
L 131.938 146.138862 
L 136.68 145.899386 
L 139.912086 145.67701 
L 141.422 145.588362 
L 146.164 145.274164 
L 150.906 144.921493 
L 155.365983 144.524726 
L 155.648 144.503874 
L 160.39 144.13933 
L 165.132 143.734095 
L 168.789582 143.372442 
L 169.874 143.28326 
L 174.616 142.883448 
L 179.358 142.449569 
L 181.510269 142.220159 
L 184.1 141.990219 
L 188.842 141.601509 
L 193.584 141.167183 
L 194.515654 141.067875 
L 198.326 140.740301 
L 203.068 140.396914 
L 207.81 139.989305 
L 208.546302 139.915591 
L 212.552 139.597901 
L 217.294 139.300384 
L 222.036 138.96891 
L 224.303483 138.763308 
L 226.778 138.576868 
L 231.52 138.300527 
L 236.262 138.052019 
L 241.004 137.718887 
L 242.55692 137.611024 
L 245.746 137.407988 
L 250.488 137.178035 
L 255.23 136.971177 
L 259.972 136.70501 
L 264.230533 136.45874 
L 264.714 136.433307 
L 269.456 136.209768 
L 274.198 136.032222 
L 278.94 135.844375 
L 283.682 135.648561 
L 288.424 135.422545 
L 291.398125 135.306457 
L 293.166 135.233073 
L 297.908 135.077859 
L 302.65 134.947849 
L 307.392 134.763817 
L 312.134 134.641572 
L 316.876 134.412698 
L 321.618 134.295159 
L 326.36 134.190169 
L 327.70185 134.154173 
L 331.102 134.051149 
L 335.844 133.948514 
L 340.586 133.86582 
L 345.328 133.735342 
L 350.07 133.667984 
L 354.812 133.447205 
L 354.812 133.083165 
L 350.07 133.205516 
L 345.328 133.284456 
L 340.586 133.381081 
L 335.844 133.455422 
L 331.102 133.537633 
L 326.36 133.643156 
L 321.618 133.757541 
L 316.876 133.868525 
L 312.134 133.990118 
L 307.392 134.137436 
L 306.92932 134.154173 
L 302.65 134.291275 
L 297.908 134.434639 
L 293.166 134.571465 
L 288.424 134.723494 
L 283.682 134.86954 
L 278.94 135.015386 
L 274.198 135.178316 
L 271.045571 135.306457 
L 269.456 135.369037 
L 264.714 135.56881 
L 259.972 135.779335 
L 255.23 135.968867 
L 250.488 136.152399 
L 245.746 136.352759 
L 243.523239 136.45874 
L 241.004 136.585434 
L 236.262 136.841371 
L 231.52 137.080849 
L 226.778 137.306396 
L 222.036 137.540277 
L 220.675359 137.611024 
L 217.294 137.811752 
L 212.552 138.09204 
L 207.81 138.358119 
L 203.068 138.613966 
L 200.238405 138.763308 
L 198.326 138.883988 
L 193.584 139.174468 
L 188.842 139.452838 
L 184.1 139.713624 
L 180.136422 139.915591 
L 179.358 139.963445 
L 174.616 140.236244 
L 169.874 140.493661 
L 165.132 140.725786 
L 160.39 140.933969 
L 156.955582 141.067875 
L 155.648 141.129218 
L 150.906 141.324432 
L 146.164 141.483112 
L 141.422 141.61114 
L 136.68 141.701212 
L 131.938 141.730236 
L 127.196 141.70675 
L 122.454 141.605921 
L 117.712 141.423891 
L 112.97 141.166221 
L 110.299335 141.067875 
L 108.228 140.989235 
L 103.486 140.78519 
L 98.744 140.412693 
L 94.002 140.220786 
L 89.26 140.045955 
L 84.518 140.514118 
L 83.499997 141.067875 
L 81.163501 142.220159 
L 79.776 142.89445 
L 79.489577 143.372442 
L 78.845632 144.524726 
L 78.22501 145.67701 
L 77.599079 146.829293 
L 76.943772 147.981577 
L 76.250854 149.13386 
L 75.580909 150.286144 
L 75.034 151.386194 
L 75.011835 151.438428 
L 74.515178 152.590711 
L 74.005583 153.742995 
L 73.506386 154.895279 
L 73.054985 156.047562 
L 72.66431 157.199846 
L 72.320672 158.35213 
L 71.9983 159.504413 
L 71.668156 160.656697 
L 71.309016 161.808981 
L 70.922919 162.961264 
L 70.538691 164.113548 
L 70.292 164.930919 
L 70.172492 165.265831 
L 69.803085 166.418115 
L 69.47451 167.570399 
L 69.172275 168.722682 
L 68.877965 169.874966 
L 68.570044 171.02725 
L 68.227563 172.179533 
L 67.834459 173.331817 
L 67.377413 174.484101 
L 66.879055 175.636384 
L 66.453943 176.788668 
L 66.100638 177.940952 
L 65.80089 179.093235 
L 65.55 180.226412 
L 65.55 180.245519 
L 65.55 181.397802 
L 65.55 182.550086 
L 65.55 183.70237 
L 65.55 184.854653 
L 65.55 186.006937 
L 65.55 187.159221 
L 65.55 188.07478 
z
" style="fill:#e9f7e5;stroke:#e9f7e5;"/>
    <path clip-path="url(#p73c3817213)" d="M 350.07 126.128551 
L 354.812 126.286186 
L 354.812 126.088188 
L 354.812 125.168884 
L 350.07 125.002141 
L 348.11248 124.935904 
L 345.328 124.800921 
L 340.586 124.588393 
L 335.844 124.367807 
L 331.102 124.136479 
L 326.36 123.911054 
L 323.537362 123.78362 
L 321.618 123.670312 
L 316.876 123.403045 
L 312.134 123.124444 
L 307.392 122.834433 
L 303.868082 122.631337 
L 302.65 122.545988 
L 297.908 122.224044 
L 293.166 121.883465 
L 288.424 121.539028 
L 287.545802 121.479053 
L 283.682 121.16967 
L 278.94 120.774858 
L 274.198 120.373038 
L 273.629063 120.326769 
L 269.456 119.939225 
L 264.714 119.476373 
L 261.582713 119.174486 
L 259.972 119.005192 
L 255.23 118.495692 
L 250.93211 118.022202 
L 250.488 117.969761 
L 245.746 117.401873 
L 241.453497 116.869919 
L 241.004 116.810792 
L 236.262 116.17976 
L 232.878235 115.717635 
L 231.52 115.521949 
L 226.778 114.82001 
L 225.069743 114.565351 
L 222.036 114.086946 
L 217.895872 113.413068 
L 217.294 113.310535 
L 212.552 112.486828 
L 211.267981 112.260784 
L 207.81 111.621624 
L 205.100638 111.1085 
L 203.068 110.707592 
L 199.350412 109.956217 
L 198.326 109.741168 
L 193.95992 108.803933 
L 193.584 108.720247 
L 188.883302 107.651649 
L 188.842 107.641933 
L 184.1 106.502971 
L 184.085274 106.499366 
L 179.534144 105.347082 
L 179.358 105.301167 
L 175.196902 104.194798 
L 174.616 104.035908 
L 171.038773 103.042515 
L 169.874 102.709113 
L 167.032899 101.890231 
L 165.132 101.322712 
L 163.154636 100.737948 
L 160.39 99.885436 
L 159.393127 99.585664 
L 155.733009 98.43338 
L 155.648 98.406016 
L 152.063492 97.281097 
L 150.906 96.902768 
L 148.420794 96.128813 
L 146.164 95.393679 
L 144.808963 94.976529 
L 141.422 93.895476 
L 141.186335 93.824246 
L 137.438625 92.671962 
L 136.68 92.431156 
L 133.536675 91.519678 
L 131.938 91.047932 
L 129.421716 90.367395 
L 127.196 89.757068 
L 124.824075 89.215111 
L 122.454 88.659535 
L 119.31792 88.062827 
L 117.712 87.746953 
L 112.97 87.077322 
L 111.388278 86.910544 
L 108.228 86.580187 
L 103.486 86.381367 
L 98.768669 86.910544 
L 98.744 86.913567 
L 95.861546 88.062827 
L 94.002 88.702784 
L 93.653028 89.215111 
L 92.752507 90.367395 
L 91.624207 91.519678 
L 90.166654 92.671962 
L 89.26 93.229631 
L 88.789703 93.824246 
L 87.88647 94.976529 
L 86.998135 96.128813 
L 86.037256 97.281097 
L 84.953346 98.43338 
L 84.518 98.872954 
L 84.029535 99.585664 
L 83.076771 100.737948 
L 81.87353 101.890231 
L 80.900047 103.042515 
L 80.1337 104.194798 
L 79.776 104.739144 
L 79.06226 105.347082 
L 76.520535 106.499366 
L 75.034 107.305182 
L 71.788657 106.499366 
L 70.292 105.906331 
L 69.046735 105.347082 
L 67.126194 104.194798 
L 65.683177 103.042515 
L 65.55 102.910442 
L 65.55 103.042515 
L 65.55 104.194798 
L 65.55 105.347082 
L 65.55 106.499366 
L 65.55 107.651649 
L 65.55 108.803933 
L 65.55 109.956217 
L 65.55 111.1085 
L 65.55 111.756713 
L 70.292 111.83162 
L 75.034 111.715461 
L 75.929579 111.1085 
L 77.581688 109.956217 
L 79.319432 108.803933 
L 79.776 108.53633 
L 80.718461 107.651649 
L 81.880134 106.499366 
L 82.761724 105.347082 
L 83.610273 104.194798 
L 84.518 103.07342 
L 84.555191 103.042515 
L 85.856144 101.890231 
L 87.022326 100.737948 
L 88.077627 99.585664 
L 89.016889 98.43338 
L 89.26 98.102217 
L 90.544145 97.281097 
L 92.547593 96.128813 
L 94.002 95.311831 
L 94.86806 94.976529 
L 97.928915 93.824246 
L 98.744 93.543119 
L 103.486 92.861805 
L 108.228 92.7907 
L 112.97 93.289372 
L 115.803733 93.824246 
L 117.712 94.191581 
L 121.295382 94.976529 
L 122.454 95.2368 
L 126.194848 96.128813 
L 127.196 96.365525 
L 130.688902 97.281097 
L 131.938 97.603413 
L 135.017337 98.43338 
L 136.68 98.875119 
L 139.234245 99.585664 
L 141.422 100.179707 
L 143.402951 100.737948 
L 146.164 101.490476 
L 147.581738 101.890231 
L 150.906 102.792746 
L 151.80115 103.042515 
L 155.648 104.07476 
L 156.08823 104.194798 
L 160.39 105.322892 
L 160.481352 105.347082 
L 165.002874 106.499366 
L 165.132 106.530962 
L 169.699349 107.651649 
L 169.874 107.692791 
L 174.616 108.802357 
L 174.622736 108.803933 
L 179.358 109.863194 
L 179.77696 109.956217 
L 184.1 110.874712 
L 185.217195 111.1085 
L 188.842 111.837179 
L 191.00438 112.260784 
L 193.584 112.749654 
L 197.22625 113.413068 
L 198.326 113.60873 
L 203.068 114.417494 
L 203.950209 114.565351 
L 207.81 115.191745 
L 211.244468 115.717635 
L 212.552 115.915238 
L 217.294 116.596241 
L 219.265897 116.869919 
L 222.036 117.24831 
L 226.778 117.849252 
L 228.162642 118.022202 
L 231.52 118.43499 
L 236.262 118.970125 
L 238.104065 119.174486 
L 241.004 119.494103 
L 245.746 119.976822 
L 249.36947 120.326769 
L 250.488 120.436008 
L 255.23 120.879092 
L 259.972 121.278185 
L 262.373605 121.479053 
L 264.714 121.675973 
L 269.456 122.052468 
L 274.198 122.392038 
L 277.613716 122.631337 
L 278.94 122.725357 
L 283.682 123.052912 
L 288.424 123.346886 
L 293.166 123.619633 
L 295.97335 123.78362 
L 297.908 123.895938 
L 302.65 124.164438 
L 307.392 124.407481 
L 312.134 124.627241 
L 316.876 124.839792 
L 318.881812 124.935904 
L 321.618 125.060825 
L 326.36 125.273615 
L 331.102 125.465319 
L 335.844 125.638699 
L 340.586 125.800247 
L 345.328 125.960355 
L 348.839692 126.088188 
z
" style="fill:#e9f7e5;stroke:#e9f7e5;"/>
   </g>
   <g id="matplotlib.axis_1">
    <g id="xtick_1">
     <g id="line2d_1">
      <path clip-path="url(#p73c3817213)" d="M 65.55 246.2 
L 65.55 14.8 
" style="fill:none;stroke:#b0b0b0;stroke-linecap:square;stroke-width:0.8;"/>
     </g>
     <g id="line2d_2">
      <defs>
       <path d="M 0 0 
L 0 3.5 
" id="m031119eddc" style="stroke:#000000;stroke-width:0.8;"/>
      </defs>
      <g>
       <use style="stroke:#000000;stroke-width:0.8;" x="65.55" xlink:href="#m031119eddc" y="246.2"/>
      </g>
     </g>
     <g id="text_1">
      <!-- 0.0 -->
      <g transform="translate(57.598437 260.798437)scale(0.1 -0.1)">
       <defs>
        <path d="M 31.78125 66.40625 
Q 24.171875 66.40625 20.328125 58.90625 
Q 16.5 51.421875 16.5 36.375 
Q 16.5 21.390625 20.328125 13.890625 
Q 24.171875 6.390625 31.78125 6.390625 
Q 39.453125 6.390625 43.28125 13.890625 
Q 47.125 21.390625 47.125 36.375 
Q 47.125 51.421875 43.28125 58.90625 
Q 39.453125 66.40625 31.78125 66.40625 
z
M 31.78125 74.21875 
Q 44.046875 74.21875 50.515625 64.515625 
Q 56.984375 54.828125 56.984375 36.375 
Q 56.984375 17.96875 50.515625 8.265625 
Q 44.046875 -1.421875 31.78125 -1.421875 
Q 19.53125 -1.421875 13.0625 8.265625 
Q 6.59375 17.96875 6.59375 36.375 
Q 6.59375 54.828125 13.0625 64.515625 
Q 19.53125 74.21875 31.78125 74.21875 
z
" id="DejaVuSans-48"/>
        <path d="M 10.6875 12.40625 
L 21 12.40625 
L 21 0 
L 10.6875 0 
z
" id="DejaVuSans-46"/>
       </defs>
       <use xlink:href="#DejaVuSans-48"/>
       <use x="63.623047" xlink:href="#DejaVuSans-46"/>
       <use x="95.410156" xlink:href="#DejaVuSans-48"/>
      </g>
     </g>
    </g>
    <g id="xtick_2">
     <g id="line2d_3">
      <path clip-path="url(#p73c3817213)" d="M 112.97 246.2 
L 112.97 14.8 
" style="fill:none;stroke:#b0b0b0;stroke-linecap:square;stroke-width:0.8;"/>
     </g>
     <g id="line2d_4">
      <g>
       <use style="stroke:#000000;stroke-width:0.8;" x="112.97" xlink:href="#m031119eddc" y="246.2"/>
      </g>
     </g>
     <g id="text_2">
      <!-- 0.5 -->
      <g transform="translate(105.018438 260.798437)scale(0.1 -0.1)">
       <defs>
        <path d="M 10.796875 72.90625 
L 49.515625 72.90625 
L 49.515625 64.59375 
L 19.828125 64.59375 
L 19.828125 46.734375 
Q 21.96875 47.46875 24.109375 47.828125 
Q 26.265625 48.1875 28.421875 48.1875 
Q 40.625 48.1875 47.75 41.5 
Q 54.890625 34.8125 54.890625 23.390625 
Q 54.890625 11.625 47.5625 5.09375 
Q 40.234375 -1.421875 26.90625 -1.421875 
Q 22.3125 -1.421875 17.546875 -0.640625 
Q 12.796875 0.140625 7.71875 1.703125 
L 7.71875 11.625 
Q 12.109375 9.234375 16.796875 8.0625 
Q 21.484375 6.890625 26.703125 6.890625 
Q 35.15625 6.890625 40.078125 11.328125 
Q 45.015625 15.765625 45.015625 23.390625 
Q 45.015625 31 40.078125 35.4375 
Q 35.15625 39.890625 26.703125 39.890625 
Q 22.75 39.890625 18.8125 39.015625 
Q 14.890625 38.140625 10.796875 36.28125 
z
" id="DejaVuSans-53"/>
       </defs>
       <use xlink:href="#DejaVuSans-48"/>
       <use x="63.623047" xlink:href="#DejaVuSans-46"/>
       <use x="95.410156" xlink:href="#DejaVuSans-53"/>
      </g>
     </g>
    </g>
    <g id="xtick_3">
     <g id="line2d_5">
      <path clip-path="url(#p73c3817213)" d="M 160.39 246.2 
L 160.39 14.8 
" style="fill:none;stroke:#b0b0b0;stroke-linecap:square;stroke-width:0.8;"/>
     </g>
     <g id="line2d_6">
      <g>
       <use style="stroke:#000000;stroke-width:0.8;" x="160.39" xlink:href="#m031119eddc" y="246.2"/>
      </g>
     </g>
     <g id="text_3">
      <!-- 1.0 -->
      <g transform="translate(152.438437 260.798437)scale(0.1 -0.1)">
       <defs>
        <path d="M 12.40625 8.296875 
L 28.515625 8.296875 
L 28.515625 63.921875 
L 10.984375 60.40625 
L 10.984375 69.390625 
L 28.421875 72.90625 
L 38.28125 72.90625 
L 38.28125 8.296875 
L 54.390625 8.296875 
L 54.390625 0 
L 12.40625 0 
z
" id="DejaVuSans-49"/>
       </defs>
       <use xlink:href="#DejaVuSans-49"/>
       <use x="63.623047" xlink:href="#DejaVuSans-46"/>
       <use x="95.410156" xlink:href="#DejaVuSans-48"/>
      </g>
     </g>
    </g>
    <g id="xtick_4">
     <g id="line2d_7">
      <path clip-path="url(#p73c3817213)" d="M 207.81 246.2 
L 207.81 14.8 
" style="fill:none;stroke:#b0b0b0;stroke-linecap:square;stroke-width:0.8;"/>
     </g>
     <g id="line2d_8">
      <g>
       <use style="stroke:#000000;stroke-width:0.8;" x="207.81" xlink:href="#m031119eddc" y="246.2"/>
      </g>
     </g>
     <g id="text_4">
      <!-- 1.5 -->
      <g transform="translate(199.858438 260.798437)scale(0.1 -0.1)">
       <use xlink:href="#DejaVuSans-49"/>
       <use x="63.623047" xlink:href="#DejaVuSans-46"/>
       <use x="95.410156" xlink:href="#DejaVuSans-53"/>
      </g>
     </g>
    </g>
    <g id="xtick_5">
     <g id="line2d_9">
      <path clip-path="url(#p73c3817213)" d="M 255.23 246.2 
L 255.23 14.8 
" style="fill:none;stroke:#b0b0b0;stroke-linecap:square;stroke-width:0.8;"/>
     </g>
     <g id="line2d_10">
      <g>
       <use style="stroke:#000000;stroke-width:0.8;" x="255.23" xlink:href="#m031119eddc" y="246.2"/>
      </g>
     </g>
     <g id="text_5">
      <!-- 2.0 -->
      <g transform="translate(247.278437 260.798437)scale(0.1 -0.1)">
       <defs>
        <path d="M 19.1875 8.296875 
L 53.609375 8.296875 
L 53.609375 0 
L 7.328125 0 
L 7.328125 8.296875 
Q 12.9375 14.109375 22.625 23.890625 
Q 32.328125 33.6875 34.8125 36.53125 
Q 39.546875 41.84375 41.421875 45.53125 
Q 43.3125 49.21875 43.3125 52.78125 
Q 43.3125 58.59375 39.234375 62.25 
Q 35.15625 65.921875 28.609375 65.921875 
Q 23.96875 65.921875 18.8125 64.3125 
Q 13.671875 62.703125 7.8125 59.421875 
L 7.8125 69.390625 
Q 13.765625 71.78125 18.9375 73 
Q 24.125 74.21875 28.421875 74.21875 
Q 39.75 74.21875 46.484375 68.546875 
Q 53.21875 62.890625 53.21875 53.421875 
Q 53.21875 48.921875 51.53125 44.890625 
Q 49.859375 40.875 45.40625 35.40625 
Q 44.1875 33.984375 37.640625 27.21875 
Q 31.109375 20.453125 19.1875 8.296875 
z
" id="DejaVuSans-50"/>
       </defs>
       <use xlink:href="#DejaVuSans-50"/>
       <use x="63.623047" xlink:href="#DejaVuSans-46"/>
       <use x="95.410156" xlink:href="#DejaVuSans-48"/>
      </g>
     </g>
    </g>
    <g id="xtick_6">
     <g id="line2d_11">
      <path clip-path="url(#p73c3817213)" d="M 302.65 246.2 
L 302.65 14.8 
" style="fill:none;stroke:#b0b0b0;stroke-linecap:square;stroke-width:0.8;"/>
     </g>
     <g id="line2d_12">
      <g>
       <use style="stroke:#000000;stroke-width:0.8;" x="302.65" xlink:href="#m031119eddc" y="246.2"/>
      </g>
     </g>
     <g id="text_6">
      <!-- 2.5 -->
      <g transform="translate(294.698437 260.798437)scale(0.1 -0.1)">
       <use xlink:href="#DejaVuSans-50"/>
       <use x="63.623047" xlink:href="#DejaVuSans-46"/>
       <use x="95.410156" xlink:href="#DejaVuSans-53"/>
      </g>
     </g>
    </g>
    <g id="xtick_7">
     <g id="line2d_13">
      <path clip-path="url(#p73c3817213)" d="M 350.07 246.2 
L 350.07 14.8 
" style="fill:none;stroke:#b0b0b0;stroke-linecap:square;stroke-width:0.8;"/>
     </g>
     <g id="line2d_14">
      <g>
       <use style="stroke:#000000;stroke-width:0.8;" x="350.07" xlink:href="#m031119eddc" y="246.2"/>
      </g>
     </g>
     <g id="text_7">
      <!-- 3.0 -->
      <g transform="translate(342.118437 260.798437)scale(0.1 -0.1)">
       <defs>
        <path d="M 40.578125 39.3125 
Q 47.65625 37.796875 51.625 33 
Q 55.609375 28.21875 55.609375 21.1875 
Q 55.609375 10.40625 48.1875 4.484375 
Q 40.765625 -1.421875 27.09375 -1.421875 
Q 22.515625 -1.421875 17.65625 -0.515625 
Q 12.796875 0.390625 7.625 2.203125 
L 7.625 11.71875 
Q 11.71875 9.328125 16.59375 8.109375 
Q 21.484375 6.890625 26.8125 6.890625 
Q 36.078125 6.890625 40.9375 10.546875 
Q 45.796875 14.203125 45.796875 21.1875 
Q 45.796875 27.640625 41.28125 31.265625 
Q 36.765625 34.90625 28.71875 34.90625 
L 20.21875 34.90625 
L 20.21875 43.015625 
L 29.109375 43.015625 
Q 36.375 43.015625 40.234375 45.921875 
Q 44.09375 48.828125 44.09375 54.296875 
Q 44.09375 59.90625 40.109375 62.90625 
Q 36.140625 65.921875 28.71875 65.921875 
Q 24.65625 65.921875 20.015625 65.03125 
Q 15.375 64.15625 9.8125 62.3125 
L 9.8125 71.09375 
Q 15.4375 72.65625 20.34375 73.4375 
Q 25.25 74.21875 29.59375 74.21875 
Q 40.828125 74.21875 47.359375 69.109375 
Q 53.90625 64.015625 53.90625 55.328125 
Q 53.90625 49.265625 50.4375 45.09375 
Q 46.96875 40.921875 40.578125 39.3125 
z
" id="DejaVuSans-51"/>
       </defs>
       <use xlink:href="#DejaVuSans-51"/>
       <use x="63.623047" xlink:href="#DejaVuSans-46"/>
       <use x="95.410156" xlink:href="#DejaVuSans-48"/>
      </g>
     </g>
    </g>
    <g id="text_8">
     <!-- $z$ -->
     <g transform="translate(205.16 274.476562)scale(0.1 -0.1)">
      <defs>
       <path d="M 11.625 54.6875 
L 54.296875 54.6875 
L 52.6875 46.484375 
L 11.53125 7.171875 
L 45.515625 7.171875 
L 44.09375 0 
L -0.296875 0 
L 1.3125 8.203125 
L 42.484375 47.515625 
L 10.203125 47.515625 
z
" id="DejaVuSans-Oblique-122"/>
      </defs>
      <use transform="translate(0 0.3125)" xlink:href="#DejaVuSans-Oblique-122"/>
     </g>
    </g>
   </g>
   <g id="matplotlib.axis_2">
    <g id="ytick_1">
     <g id="line2d_15">
      <path clip-path="url(#p73c3817213)" d="M 65.55 246.2 
L 350.07 246.2 
" style="fill:none;stroke:#b0b0b0;stroke-linecap:square;stroke-width:0.8;"/>
     </g>
     <g id="line2d_16">
      <defs>
       <path d="M 0 0 
L -3.5 0 
" id="m4cf70cbf51" style="stroke:#000000;stroke-width:0.8;"/>
      </defs>
      <g>
       <use style="stroke:#000000;stroke-width:0.8;" x="65.55" xlink:href="#m4cf70cbf51" y="246.2"/>
      </g>
     </g>
     <g id="text_9">
      <!-- 2.00 -->
      <g transform="translate(27.904687 249.999219)scale(0.1 -0.1)">
       <defs>
        <path d="M 10.59375 35.5 
L 73.1875 35.5 
L 73.1875 27.203125 
L 10.59375 27.203125 
z
" id="DejaVuSans-8722"/>
       </defs>
       <use xlink:href="#DejaVuSans-8722"/>
       <use x="83.789062" xlink:href="#DejaVuSans-50"/>
       <use x="147.412109" xlink:href="#DejaVuSans-46"/>
       <use x="179.199219" xlink:href="#DejaVuSans-48"/>
       <use x="242.822266" xlink:href="#DejaVuSans-48"/>
      </g>
     </g>
    </g>
    <g id="ytick_2">
     <g id="line2d_17">
      <path clip-path="url(#p73c3817213)" d="M 65.55 217.275 
L 350.07 217.275 
" style="fill:none;stroke:#b0b0b0;stroke-linecap:square;stroke-width:0.8;"/>
     </g>
     <g id="line2d_18">
      <g>
       <use style="stroke:#000000;stroke-width:0.8;" x="65.55" xlink:href="#m4cf70cbf51" y="217.275"/>
      </g>
     </g>
     <g id="text_10">
      <!-- 1.75 -->
      <g transform="translate(27.904687 221.074219)scale(0.1 -0.1)">
       <defs>
        <path d="M 8.203125 72.90625 
L 55.078125 72.90625 
L 55.078125 68.703125 
L 28.609375 0 
L 18.3125 0 
L 43.21875 64.59375 
L 8.203125 64.59375 
z
" id="DejaVuSans-55"/>
       </defs>
       <use xlink:href="#DejaVuSans-8722"/>
       <use x="83.789062" xlink:href="#DejaVuSans-49"/>
       <use x="147.412109" xlink:href="#DejaVuSans-46"/>
       <use x="179.199219" xlink:href="#DejaVuSans-55"/>
       <use x="242.822266" xlink:href="#DejaVuSans-53"/>
      </g>
     </g>
    </g>
    <g id="ytick_3">
     <g id="line2d_19">
      <path clip-path="url(#p73c3817213)" d="M 65.55 188.35 
L 350.07 188.35 
" style="fill:none;stroke:#b0b0b0;stroke-linecap:square;stroke-width:0.8;"/>
     </g>
     <g id="line2d_20">
      <g>
       <use style="stroke:#000000;stroke-width:0.8;" x="65.55" xlink:href="#m4cf70cbf51" y="188.35"/>
      </g>
     </g>
     <g id="text_11">
      <!-- 1.50 -->
      <g transform="translate(27.904687 192.149219)scale(0.1 -0.1)">
       <use xlink:href="#DejaVuSans-8722"/>
       <use x="83.789062" xlink:href="#DejaVuSans-49"/>
       <use x="147.412109" xlink:href="#DejaVuSans-46"/>
       <use x="179.199219" xlink:href="#DejaVuSans-53"/>
       <use x="242.822266" xlink:href="#DejaVuSans-48"/>
      </g>
     </g>
    </g>
    <g id="ytick_4">
     <g id="line2d_21">
      <path clip-path="url(#p73c3817213)" d="M 65.55 159.425 
L 350.07 159.425 
" style="fill:none;stroke:#b0b0b0;stroke-linecap:square;stroke-width:0.8;"/>
     </g>
     <g id="line2d_22">
      <g>
       <use style="stroke:#000000;stroke-width:0.8;" x="65.55" xlink:href="#m4cf70cbf51" y="159.425"/>
      </g>
     </g>
     <g id="text_12">
      <!-- 1.25 -->
      <g transform="translate(27.904687 163.224219)scale(0.1 -0.1)">
       <use xlink:href="#DejaVuSans-8722"/>
       <use x="83.789062" xlink:href="#DejaVuSans-49"/>
       <use x="147.412109" xlink:href="#DejaVuSans-46"/>
       <use x="179.199219" xlink:href="#DejaVuSans-50"/>
       <use x="242.822266" xlink:href="#DejaVuSans-53"/>
      </g>
     </g>
    </g>
    <g id="ytick_5">
     <g id="line2d_23">
      <path clip-path="url(#p73c3817213)" d="M 65.55 130.5 
L 350.07 130.5 
" style="fill:none;stroke:#b0b0b0;stroke-linecap:square;stroke-width:0.8;"/>
     </g>
     <g id="line2d_24">
      <g>
       <use style="stroke:#000000;stroke-width:0.8;" x="65.55" xlink:href="#m4cf70cbf51" y="130.5"/>
      </g>
     </g>
     <g id="text_13">
      <!-- 1.00 -->
      <g transform="translate(27.904687 134.299219)scale(0.1 -0.1)">
       <use xlink:href="#DejaVuSans-8722"/>
       <use x="83.789062" xlink:href="#DejaVuSans-49"/>
       <use x="147.412109" xlink:href="#DejaVuSans-46"/>
       <use x="179.199219" xlink:href="#DejaVuSans-48"/>
       <use x="242.822266" xlink:href="#DejaVuSans-48"/>
      </g>
     </g>
    </g>
    <g id="ytick_6">
     <g id="line2d_25">
      <path clip-path="url(#p73c3817213)" d="M 65.55 101.575 
L 350.07 101.575 
" style="fill:none;stroke:#b0b0b0;stroke-linecap:square;stroke-width:0.8;"/>
     </g>
     <g id="line2d_26">
      <g>
       <use style="stroke:#000000;stroke-width:0.8;" x="65.55" xlink:href="#m4cf70cbf51" y="101.575"/>
      </g>
     </g>
     <g id="text_14">
      <!-- 0.75 -->
      <g transform="translate(27.904687 105.374219)scale(0.1 -0.1)">
       <use xlink:href="#DejaVuSans-8722"/>
       <use x="83.789062" xlink:href="#DejaVuSans-48"/>
       <use x="147.412109" xlink:href="#DejaVuSans-46"/>
       <use x="179.199219" xlink:href="#DejaVuSans-55"/>
       <use x="242.822266" xlink:href="#DejaVuSans-53"/>
      </g>
     </g>
    </g>
    <g id="ytick_7">
     <g id="line2d_27">
      <path clip-path="url(#p73c3817213)" d="M 65.55 72.65 
L 350.07 72.65 
" style="fill:none;stroke:#b0b0b0;stroke-linecap:square;stroke-width:0.8;"/>
     </g>
     <g id="line2d_28">
      <g>
       <use style="stroke:#000000;stroke-width:0.8;" x="65.55" xlink:href="#m4cf70cbf51" y="72.65"/>
      </g>
     </g>
     <g id="text_15">
      <!-- 0.50 -->
      <g transform="translate(27.904687 76.449219)scale(0.1 -0.1)">
       <use xlink:href="#DejaVuSans-8722"/>
       <use x="83.789062" xlink:href="#DejaVuSans-48"/>
       <use x="147.412109" xlink:href="#DejaVuSans-46"/>
       <use x="179.199219" xlink:href="#DejaVuSans-53"/>
       <use x="242.822266" xlink:href="#DejaVuSans-48"/>
      </g>
     </g>
    </g>
    <g id="ytick_8">
     <g id="line2d_29">
      <path clip-path="url(#p73c3817213)" d="M 65.55 43.725 
L 350.07 43.725 
" style="fill:none;stroke:#b0b0b0;stroke-linecap:square;stroke-width:0.8;"/>
     </g>
     <g id="line2d_30">
      <g>
       <use style="stroke:#000000;stroke-width:0.8;" x="65.55" xlink:href="#m4cf70cbf51" y="43.725"/>
      </g>
     </g>
     <g id="text_16">
      <!-- 0.25 -->
      <g transform="translate(27.904687 47.524219)scale(0.1 -0.1)">
       <use xlink:href="#DejaVuSans-8722"/>
       <use x="83.789062" xlink:href="#DejaVuSans-48"/>
       <use x="147.412109" xlink:href="#DejaVuSans-46"/>
       <use x="179.199219" xlink:href="#DejaVuSans-50"/>
       <use x="242.822266" xlink:href="#DejaVuSans-53"/>
      </g>
     </g>
    </g>
    <g id="ytick_9">
     <g id="line2d_31">
      <path clip-path="url(#p73c3817213)" d="M 65.55 14.8 
L 350.07 14.8 
" style="fill:none;stroke:#b0b0b0;stroke-linecap:square;stroke-width:0.8;"/>
     </g>
     <g id="line2d_32">
      <g>
       <use style="stroke:#000000;stroke-width:0.8;" x="65.55" xlink:href="#m4cf70cbf51" y="14.8"/>
      </g>
     </g>
     <g id="text_17">
      <!-- 0.00 -->
      <g transform="translate(36.284375 18.599219)scale(0.1 -0.1)">
       <use xlink:href="#DejaVuSans-48"/>
       <use x="63.623047" xlink:href="#DejaVuSans-46"/>
       <use x="95.410156" xlink:href="#DejaVuSans-48"/>
       <use x="159.033203" xlink:href="#DejaVuSans-48"/>
      </g>
     </g>
    </g>
    <g id="text_18">
     <!-- $\omega(z)$ -->
     <g transform="translate(21.825 141.25)rotate(-90)scale(0.1 -0.1)">
      <defs>
       <path d="M 21.390625 -1.421875 
Q 1.125 -1.421875 6.78125 27.59375 
Q 8.984375 39.0625 19.625 54.6875 
L 29.296875 54.6875 
Q 19.234375 39.0625 17 27.34375 
Q 12.796875 6.203125 23.734375 6.203125 
Q 33.84375 6.203125 38.71875 32.46875 
L 47.015625 32.46875 
Q 41.703125 6.0625 51.8125 6.203125 
Q 62.703125 6.296875 66.796875 27.34375 
Q 69.046875 39.0625 65.140625 54.6875 
L 74.8125 54.6875 
Q 79.296875 39.0625 77.09375 27.59375 
Q 71.53125 -1.46875 51.21875 -1.421875 
Q 37.9375 -1.375 39.109375 13.1875 
Q 34.28125 -1.421875 21.390625 -1.421875 
z
" id="DejaVuSans-Oblique-969"/>
       <path d="M 31 75.875 
Q 24.46875 64.65625 21.28125 53.65625 
Q 18.109375 42.671875 18.109375 31.390625 
Q 18.109375 20.125 21.3125 9.0625 
Q 24.515625 -2 31 -13.1875 
L 23.1875 -13.1875 
Q 15.875 -1.703125 12.234375 9.375 
Q 8.59375 20.453125 8.59375 31.390625 
Q 8.59375 42.28125 12.203125 53.3125 
Q 15.828125 64.359375 23.1875 75.875 
z
" id="DejaVuSans-40"/>
       <path d="M 8.015625 75.875 
L 15.828125 75.875 
Q 23.140625 64.359375 26.78125 53.3125 
Q 30.421875 42.28125 30.421875 31.390625 
Q 30.421875 20.453125 26.78125 9.375 
Q 23.140625 -1.703125 15.828125 -13.1875 
L 8.015625 -13.1875 
Q 14.5 -2 17.703125 9.0625 
Q 20.90625 20.125 20.90625 31.390625 
Q 20.90625 42.671875 17.703125 53.65625 
Q 14.5 64.65625 8.015625 75.875 
z
" id="DejaVuSans-41"/>
      </defs>
      <use transform="translate(0 0.125)" xlink:href="#DejaVuSans-Oblique-969"/>
      <use transform="translate(83.740234 0.125)" xlink:href="#DejaVuSans-40"/>
      <use transform="translate(122.753906 0.125)" xlink:href="#DejaVuSans-Oblique-122"/>
      <use transform="translate(175.244141 0.125)" xlink:href="#DejaVuSans-41"/>
     </g>
    </g>
   </g>
   <g id="LineCollection_1">
    <path clip-path="url(#p73c3817213)" d="M 354.812 131.840936 
L 354.020258 131.849606 
L 350.07 131.876342 
L 345.328 131.912833 
L 340.586 131.952958 
L 335.844 131.997228 
L 331.102 132.045081 
L 326.36 132.096332 
L 321.618 132.152221 
L 316.876 132.212123 
L 312.134 132.276164 
L 307.392 132.345649 
L 302.65 132.420493 
L 297.908 132.500843 
L 293.166 132.587472 
L 288.424 132.681431 
L 283.682 132.781945 
L 278.94 132.888997 
L 274.225916 133.00189 
L 274.198 133.002346 
L 269.456 133.080923 
L 264.714 133.165526 
L 259.972 133.256866 
L 255.23 133.355907 
L 250.488 133.46364 
L 245.746 133.581129 
L 241.004 133.708136 
L 236.262 133.844087 
L 231.52 133.987717 
L 226.778 134.137028 
L 226.216761 134.154173 
L 222.036 134.245991 
L 217.294 134.352451 
L 212.552 134.461876 
L 207.81 134.572969 
L 203.068 134.68294 
L 198.326 134.787544 
L 193.584 134.881369 
L 188.842 134.958274 
L 184.1 135.011977 
L 179.358 135.036794 
L 174.616 135.028396 
L 169.874 134.984301 
L 165.132 134.897901 
L 160.39 134.772958 
L 155.648 134.610723 
L 150.906 134.411729 
L 146.164 134.163599 
L 146.007128 134.154173 
L 141.422 133.893271 
L 136.68 133.575644 
L 131.938 133.190263 
L 129.910151 133.00189 
L 127.196 132.734125 
L 122.454 132.193367 
L 119.561486 131.849606 
L 117.712 131.620389 
L 112.97 131.055214 
L 109.776234 130.697322 
L 108.228 130.516508 
L 103.486 130.141505 
L 98.744 129.920116 
L 94.002 129.753985 
L 89.26 129.606949 
L 84.518 130.517309 
L 84.161022 130.697322 
L 82.256343 131.849606 
L 80.592633 133.00189 
L 79.776 133.564786 
L 79.25422 134.154173 
L 78.270877 135.306457 
L 77.363031 136.45874 
L 76.544219 137.611024 
L 75.793849 138.763308 
L 75.042619 139.915591 
L 75.034 139.928415 
L 74.369959 141.067875 
L 73.578984 142.220159 
L 72.901241 143.372442 
L 72.359697 144.524726 
L 71.862997 145.67701 
L 71.395477 146.829293 
L 70.948905 147.981577 
L 70.526295 149.13386 
L 70.292 149.806686 
L 70.052383 150.286144 
L 69.502174 151.438428 
L 68.984513 152.590711 
L 68.502472 153.742995 
L 68.059431 154.895279 
L 67.653489 156.047562 
L 67.277077 157.199846 
L 66.92129 158.35213 
L 66.580767 159.504413 
L 66.25522 160.656697 
L 65.946676 161.808981 
L 65.655129 162.961264 
L 65.55 163.385713 
" style="fill:none;stroke:#000000;stroke-width:2;"/>
    <path clip-path="url(#p73c3817213)" d="M 65.55 126.867813 
L 66.410489 126.088188 
L 67.707999 124.935904 
L 69.188196 123.78362 
L 70.292 123.072078 
L 70.913486 122.631337 
L 72.859276 121.479053 
L 75.034 120.36592 
L 75.070094 120.326769 
L 76.253134 119.174486 
L 77.829782 118.022202 
L 79.776 116.889006 
L 79.799434 116.869919 
L 81.282152 115.717635 
L 82.593792 114.565351 
L 83.774129 113.413068 
L 84.518 112.674763 
L 85.09606 112.260784 
L 86.723687 111.1085 
L 88.215479 109.956217 
L 89.26 109.063428 
L 89.878772 108.803933 
L 92.513001 107.651649 
L 94.002 106.884617 
L 95.435914 106.499366 
L 98.744 105.547698 
L 100.788491 105.347082 
L 103.486 105.079574 
L 108.228 105.31334 
L 108.457015 105.347082 
L 112.97 106.026375 
L 115.389421 106.499366 
L 117.712 106.965294 
L 120.748761 107.651649 
L 122.454 108.04056 
L 125.742469 108.803933 
L 127.196 109.14532 
L 130.770536 109.956217 
L 131.938 110.220333 
L 136.03305 111.1085 
L 136.68 111.245421 
L 141.422 112.232417 
L 141.555561 112.260784 
L 146.164 113.192535 
L 147.256257 113.413068 
L 150.906 114.120629 
L 153.233895 114.565351 
L 155.648 115.010504 
L 159.571892 115.717635 
L 160.39 115.859623 
L 165.132 116.670906 
L 166.332822 116.869919 
L 169.874 117.433355 
L 173.761592 118.022202 
L 174.616 118.14408 
L 179.358 118.8007 
L 182.1519 119.174486 
L 184.1 119.413456 
L 188.842 119.980836 
L 191.802439 120.326769 
L 193.584 120.510634 
L 198.326 120.995941 
L 203.068 121.476835 
L 203.090432 121.479053 
L 207.81 121.878112 
L 212.552 122.28916 
L 216.544314 122.631337 
L 217.294 122.681427 
L 222.036 123.003847 
L 226.778 123.345431 
L 231.52 123.688983 
L 232.874783 123.78362 
L 236.262 123.957861 
L 241.004 124.216295 
L 245.746 124.496825 
L 250.488 124.778933 
L 253.272226 124.935904 
L 255.23 125.015958 
L 259.972 125.202203 
L 264.714 125.40059 
L 269.456 125.619185 
L 274.198 125.840704 
L 278.94 126.049465 
L 279.867795 126.088188 
L 283.682 126.210627 
L 288.424 126.350166 
L 293.166 126.486231 
L 297.908 126.6286 
L 302.65 126.786139 
L 307.392 126.946564 
L 312.134 127.097398 
L 316.876 127.237328 
L 316.985184 127.240471 
L 321.618 127.356567 
L 326.36 127.462636 
L 331.102 127.558088 
L 335.844 127.64744 
L 340.586 127.731944 
L 345.328 127.812663 
L 350.07 127.894904 
L 354.812 127.983569 
" style="fill:none;stroke:#000000;stroke-width:2;"/>
   </g>
   <g id="LineCollection_2">
    <path clip-path="url(#p73c3817213)" d="M 354.812 133.083165 
L 350.07 133.205516 
L 345.328 133.284456 
L 340.586 133.381081 
L 335.844 133.455422 
L 331.102 133.537633 
L 326.36 133.643156 
L 321.618 133.757541 
L 316.876 133.868525 
L 312.134 133.990118 
L 307.392 134.137436 
L 306.92932 134.154173 
L 302.65 134.291275 
L 297.908 134.434639 
L 293.166 134.571465 
L 288.424 134.723494 
L 283.682 134.86954 
L 278.94 135.015386 
L 274.198 135.178316 
L 271.045571 135.306457 
L 269.456 135.369037 
L 264.714 135.56881 
L 259.972 135.779335 
L 255.23 135.968867 
L 250.488 136.152399 
L 245.746 136.352759 
L 243.523239 136.45874 
L 241.004 136.585434 
L 236.262 136.841371 
L 231.52 137.080849 
L 226.778 137.306396 
L 222.036 137.540277 
L 220.675359 137.611024 
L 217.294 137.811752 
L 212.552 138.09204 
L 207.81 138.358119 
L 203.068 138.613966 
L 200.238405 138.763308 
L 198.326 138.883988 
L 193.584 139.174468 
L 188.842 139.452838 
L 184.1 139.713624 
L 180.136422 139.915591 
L 179.358 139.963445 
L 174.616 140.236244 
L 169.874 140.493661 
L 165.132 140.725786 
L 160.39 140.933969 
L 156.955582 141.067875 
L 155.648 141.129218 
L 150.906 141.324432 
L 146.164 141.483112 
L 141.422 141.61114 
L 136.68 141.701212 
L 131.938 141.730236 
L 127.196 141.70675 
L 122.454 141.605921 
L 117.712 141.423891 
L 112.97 141.166221 
L 110.299335 141.067875 
L 108.228 140.989235 
L 103.486 140.78519 
L 98.744 140.412693 
L 94.002 140.220786 
L 89.26 140.045955 
L 84.518 140.514118 
L 83.499997 141.067875 
L 81.163501 142.220159 
L 79.776 142.89445 
L 79.489577 143.372442 
L 78.845632 144.524726 
L 78.22501 145.67701 
L 77.599079 146.829293 
L 76.943772 147.981577 
L 76.250854 149.13386 
L 75.580909 150.286144 
L 75.034 151.386194 
L 75.011835 151.438428 
L 74.515178 152.590711 
L 74.005583 153.742995 
L 73.506386 154.895279 
L 73.054985 156.047562 
L 72.66431 157.199846 
L 72.320672 158.35213 
L 71.9983 159.504413 
L 71.668156 160.656697 
L 71.309016 161.808981 
L 70.922919 162.961264 
L 70.538691 164.113548 
L 70.292 164.930919 
L 70.172492 165.265831 
L 69.803085 166.418115 
L 69.47451 167.570399 
L 69.172275 168.722682 
L 68.877965 169.874966 
L 68.570044 171.02725 
L 68.227563 172.179533 
L 67.834459 173.331817 
L 67.377413 174.484101 
L 66.879055 175.636384 
L 66.453943 176.788668 
L 66.100638 177.940952 
L 65.80089 179.093235 
L 65.55 180.226412 
" style="fill:none;stroke:#000000;stroke-width:1.5;"/>
    <path clip-path="url(#p73c3817213)" d="M 65.55 111.756713 
L 70.292 111.83162 
L 75.034 111.715461 
L 75.929579 111.1085 
L 77.581688 109.956217 
L 79.319432 108.803933 
L 79.776 108.53633 
L 80.718461 107.651649 
L 81.880134 106.499366 
L 82.761724 105.347082 
L 83.610273 104.194798 
L 84.518 103.07342 
L 84.555191 103.042515 
L 85.856144 101.890231 
L 87.022326 100.737948 
L 88.077627 99.585664 
L 89.016889 98.43338 
L 89.26 98.102217 
L 90.544145 97.281097 
L 92.547593 96.128813 
L 94.002 95.311831 
L 94.86806 94.976529 
L 97.928915 93.824246 
L 98.744 93.543119 
L 103.486 92.861805 
L 108.228 92.7907 
L 112.97 93.289372 
L 115.803733 93.824246 
L 117.712 94.191581 
L 121.295382 94.976529 
L 122.454 95.2368 
L 126.194848 96.128813 
L 127.196 96.365525 
L 130.688902 97.281097 
L 131.938 97.603413 
L 135.017337 98.43338 
L 136.68 98.875119 
L 139.234245 99.585664 
L 141.422 100.179707 
L 143.402951 100.737948 
L 146.164 101.490476 
L 147.581738 101.890231 
L 150.906 102.792746 
L 151.80115 103.042515 
L 155.648 104.07476 
L 156.08823 104.194798 
L 160.39 105.322892 
L 160.481352 105.347082 
L 165.002874 106.499366 
L 165.132 106.530962 
L 169.699349 107.651649 
L 169.874 107.692791 
L 174.616 108.802357 
L 174.622736 108.803933 
L 179.358 109.863194 
L 179.77696 109.956217 
L 184.1 110.874712 
L 185.217195 111.1085 
L 188.842 111.837179 
L 191.00438 112.260784 
L 193.584 112.749654 
L 197.22625 113.413068 
L 198.326 113.60873 
L 203.068 114.417494 
L 203.950209 114.565351 
L 207.81 115.191745 
L 211.244468 115.717635 
L 212.552 115.915238 
L 217.294 116.596241 
L 219.265897 116.869919 
L 222.036 117.24831 
L 226.778 117.849252 
L 228.162642 118.022202 
L 231.52 118.43499 
L 236.262 118.970125 
L 238.104065 119.174486 
L 241.004 119.494103 
L 245.746 119.976822 
L 249.36947 120.326769 
L 250.488 120.436008 
L 255.23 120.879092 
L 259.972 121.278185 
L 262.373605 121.479053 
L 264.714 121.675973 
L 269.456 122.052468 
L 274.198 122.392038 
L 277.613716 122.631337 
L 278.94 122.725357 
L 283.682 123.052912 
L 288.424 123.346886 
L 293.166 123.619633 
L 295.97335 123.78362 
L 297.908 123.895938 
L 302.65 124.164438 
L 307.392 124.407481 
L 312.134 124.627241 
L 316.876 124.839792 
L 318.881812 124.935904 
L 321.618 125.060825 
L 326.36 125.273615 
L 331.102 125.465319 
L 335.844 125.638699 
L 340.586 125.800247 
L 345.328 125.960355 
L 348.839692 126.088188 
L 350.07 126.128551 
L 354.812 126.286186 
" style="fill:none;stroke:#000000;stroke-width:1.5;"/>
   </g>
   <g id="LineCollection_3">
    <path clip-path="url(#p73c3817213)" d="M 65.55 130.5 
L 350.07 130.5 
" style="fill:none;stroke:#0000ff;stroke-dasharray:14.8,6.4;stroke-dashoffset:0;stroke-width:4;"/>
   </g>
   <g id="patch_3">
    <path d="M 65.55 246.2 
L 65.55 14.8 
" style="fill:none;stroke:#000000;stroke-linecap:square;stroke-linejoin:miter;stroke-width:0.8;"/>
   </g>
   <g id="patch_4">
    <path d="M 350.07 246.2 
L 350.07 14.8 
" style="fill:none;stroke:#000000;stroke-linecap:square;stroke-linejoin:miter;stroke-width:0.8;"/>
   </g>
   <g id="patch_5">
    <path d="M 65.55 246.2 
L 350.07 246.2 
" style="fill:none;stroke:#000000;stroke-linecap:square;stroke-linejoin:miter;stroke-width:0.8;"/>
   </g>
   <g id="patch_6">
    <path d="M 65.55 14.8 
L 350.07 14.8 
" style="fill:none;stroke:#000000;stroke-linecap:square;stroke-linejoin:miter;stroke-width:0.8;"/>
   </g>
   <g id="text_19">
    <!-- BAO+HD+SN -->
    <g transform="translate(66.4984 211.49)scale(0.13 -0.13)">
     <defs>
      <path d="M 19.671875 34.8125 
L 19.671875 8.109375 
L 35.5 8.109375 
Q 43.453125 8.109375 47.28125 11.40625 
Q 51.125 14.703125 51.125 21.484375 
Q 51.125 28.328125 47.28125 31.5625 
Q 43.453125 34.8125 35.5 34.8125 
z
M 19.671875 64.796875 
L 19.671875 42.828125 
L 34.28125 42.828125 
Q 41.5 42.828125 45.03125 45.53125 
Q 48.578125 48.25 48.578125 53.8125 
Q 48.578125 59.328125 45.03125 62.0625 
Q 41.5 64.796875 34.28125 64.796875 
z
M 9.8125 72.90625 
L 35.015625 72.90625 
Q 46.296875 72.90625 52.390625 68.21875 
Q 58.5 63.53125 58.5 54.890625 
Q 58.5 48.1875 55.375 44.234375 
Q 52.25 40.28125 46.1875 39.3125 
Q 53.46875 37.75 57.5 32.78125 
Q 61.53125 27.828125 61.53125 20.40625 
Q 61.53125 10.640625 54.890625 5.3125 
Q 48.25 0 35.984375 0 
L 9.8125 0 
z
" id="DejaVuSans-66"/>
      <path d="M 34.1875 63.1875 
L 20.796875 26.90625 
L 47.609375 26.90625 
z
M 28.609375 72.90625 
L 39.796875 72.90625 
L 67.578125 0 
L 57.328125 0 
L 50.6875 18.703125 
L 17.828125 18.703125 
L 11.1875 0 
L 0.78125 0 
z
" id="DejaVuSans-65"/>
      <path d="M 39.40625 66.21875 
Q 28.65625 66.21875 22.328125 58.203125 
Q 16.015625 50.203125 16.015625 36.375 
Q 16.015625 22.609375 22.328125 14.59375 
Q 28.65625 6.59375 39.40625 6.59375 
Q 50.140625 6.59375 56.421875 14.59375 
Q 62.703125 22.609375 62.703125 36.375 
Q 62.703125 50.203125 56.421875 58.203125 
Q 50.140625 66.21875 39.40625 66.21875 
z
M 39.40625 74.21875 
Q 54.734375 74.21875 63.90625 63.9375 
Q 73.09375 53.65625 73.09375 36.375 
Q 73.09375 19.140625 63.90625 8.859375 
Q 54.734375 -1.421875 39.40625 -1.421875 
Q 24.03125 -1.421875 14.8125 8.828125 
Q 5.609375 19.09375 5.609375 36.375 
Q 5.609375 53.65625 14.8125 63.9375 
Q 24.03125 74.21875 39.40625 74.21875 
z
" id="DejaVuSans-79"/>
      <path d="M 46 62.703125 
L 46 35.5 
L 73.1875 35.5 
L 73.1875 27.203125 
L 46 27.203125 
L 46 0 
L 37.796875 0 
L 37.796875 27.203125 
L 10.59375 27.203125 
L 10.59375 35.5 
L 37.796875 35.5 
L 37.796875 62.703125 
z
" id="DejaVuSans-43"/>
      <path d="M 9.8125 72.90625 
L 19.671875 72.90625 
L 19.671875 43.015625 
L 55.515625 43.015625 
L 55.515625 72.90625 
L 65.375 72.90625 
L 65.375 0 
L 55.515625 0 
L 55.515625 34.71875 
L 19.671875 34.71875 
L 19.671875 0 
L 9.8125 0 
z
" id="DejaVuSans-72"/>
      <path d="M 19.671875 64.796875 
L 19.671875 8.109375 
L 31.59375 8.109375 
Q 46.6875 8.109375 53.6875 14.9375 
Q 60.6875 21.78125 60.6875 36.53125 
Q 60.6875 51.171875 53.6875 57.984375 
Q 46.6875 64.796875 31.59375 64.796875 
z
M 9.8125 72.90625 
L 30.078125 72.90625 
Q 51.265625 72.90625 61.171875 64.09375 
Q 71.09375 55.28125 71.09375 36.53125 
Q 71.09375 17.671875 61.125 8.828125 
Q 51.171875 0 30.078125 0 
L 9.8125 0 
z
" id="DejaVuSans-68"/>
      <path d="M 53.515625 70.515625 
L 53.515625 60.890625 
Q 47.90625 63.578125 42.921875 64.890625 
Q 37.9375 66.21875 33.296875 66.21875 
Q 25.25 66.21875 20.875 63.09375 
Q 16.5 59.96875 16.5 54.203125 
Q 16.5 49.359375 19.40625 46.890625 
Q 22.3125 44.4375 30.421875 42.921875 
L 36.375 41.703125 
Q 47.40625 39.59375 52.65625 34.296875 
Q 57.90625 29 57.90625 20.125 
Q 57.90625 9.515625 50.796875 4.046875 
Q 43.703125 -1.421875 29.984375 -1.421875 
Q 24.8125 -1.421875 18.96875 -0.25 
Q 13.140625 0.921875 6.890625 3.21875 
L 6.890625 13.375 
Q 12.890625 10.015625 18.65625 8.296875 
Q 24.421875 6.59375 29.984375 6.59375 
Q 38.421875 6.59375 43.015625 9.90625 
Q 47.609375 13.234375 47.609375 19.390625 
Q 47.609375 24.75 44.3125 27.78125 
Q 41.015625 30.8125 33.5 32.328125 
L 27.484375 33.5 
Q 16.453125 35.6875 11.515625 40.375 
Q 6.59375 45.0625 6.59375 53.421875 
Q 6.59375 63.09375 13.40625 68.65625 
Q 20.21875 74.21875 32.171875 74.21875 
Q 37.3125 74.21875 42.625 73.28125 
Q 47.953125 72.359375 53.515625 70.515625 
z
" id="DejaVuSans-83"/>
      <path d="M 9.8125 72.90625 
L 23.09375 72.90625 
L 55.421875 11.921875 
L 55.421875 72.90625 
L 64.984375 72.90625 
L 64.984375 0 
L 51.703125 0 
L 19.390625 60.984375 
L 19.390625 0 
L 9.8125 0 
z
" id="DejaVuSans-78"/>
     </defs>
     <use xlink:href="#DejaVuSans-66"/>
     <use x="68.603516" xlink:href="#DejaVuSans-65"/>
     <use x="135.261719" xlink:href="#DejaVuSans-79"/>
     <use x="213.972656" xlink:href="#DejaVuSans-43"/>
     <use x="297.761719" xlink:href="#DejaVuSans-72"/>
     <use x="372.957031" xlink:href="#DejaVuSans-68"/>
     <use x="449.958984" xlink:href="#DejaVuSans-43"/>
     <use x="533.748047" xlink:href="#DejaVuSans-83"/>
     <use x="597.224609" xlink:href="#DejaVuSans-78"/>
    </g>
   </g>
  </g>
  <g id="axes_2">
   <g id="patch_7">
    <path clip-path="url(#p72c8708787)" d="M 367.8525 246.2 
L 367.8525 199.92 
L 367.8525 61.08 
L 367.8525 14.8 
L 379.4225 14.8 
L 379.4225 61.08 
L 379.4225 199.92 
L 379.4225 246.2 
z
" style="fill:#ffffff;stroke:#ffffff;stroke-linejoin:miter;stroke-width:0.01;"/>
   </g>
   <g id="QuadMesh_1">
    <path clip-path="url(#p72c8708787)" d="M 367.8525 246.2 
L 379.4225 246.2 
L 379.4225 199.92 
L 367.8525 199.92 
L 367.8525 246.2 
" style="fill:#006428;"/>
    <path clip-path="url(#p72c8708787)" d="M 367.8525 199.92 
L 379.4225 199.92 
L 379.4225 153.64 
L 367.8525 153.64 
L 367.8525 199.92 
" style="fill:#2f974e;"/>
    <path clip-path="url(#p72c8708787)" d="M 367.8525 153.64 
L 379.4225 153.64 
L 379.4225 107.36 
L 367.8525 107.36 
L 367.8525 153.64 
" style="fill:#75c477;"/>
    <path clip-path="url(#p72c8708787)" d="M 367.8525 107.36 
L 379.4225 107.36 
L 379.4225 61.08 
L 367.8525 61.08 
L 367.8525 107.36 
" style="fill:#b8e3b2;"/>
    <path clip-path="url(#p72c8708787)" d="M 367.8525 61.08 
L 379.4225 61.08 
L 379.4225 14.8 
L 367.8525 14.8 
L 367.8525 61.08 
" style="fill:#e9f7e5;"/>
   </g>
   <g id="matplotlib.axis_3"/>
   <g id="matplotlib.axis_4">
    <g id="ytick_10">
     <g id="line2d_33">
      <defs>
       <path d="M 0 0 
L 3.5 0 
" id="m75438d9494" style="stroke:#000000;stroke-width:0.8;"/>
      </defs>
      <g>
       <use style="stroke:#000000;stroke-width:0.8;" x="379.4225" xlink:href="#m75438d9494" y="246.2"/>
      </g>
     </g>
    </g>
    <g id="ytick_11">
     <g id="line2d_34">
      <g>
       <use style="stroke:#000000;stroke-width:0.8;" x="379.4225" xlink:href="#m75438d9494" y="153.64"/>
      </g>
     </g>
     <g id="text_20">
      <!-- $1\sigma$ -->
      <g transform="translate(386.4225 157.439219)scale(0.1 -0.1)">
       <defs>
        <path d="M 34.671875 47.5625 
Q 27.25 47.5625 22.21875 42.1875 
Q 16.890625 36.578125 15.140625 27.296875 
Q 13.1875 17.484375 16.3125 11.8125 
Q 19.390625 6.203125 26.65625 6.203125 
Q 33.84375 6.203125 39.109375 11.859375 
Q 44.4375 17.53125 46.34375 27.296875 
Q 48.046875 36.234375 45.015625 42.1875 
Q 42.1875 47.5625 34.671875 47.5625 
z
M 36.078125 54.734375 
L 65.921875 54.6875 
L 64.15625 45.703125 
L 54.109375 45.703125 
Q 57.90625 38.09375 55.859375 27.296875 
Q 53.21875 13.875 45.0625 6.25 
Q 36.859375 -1.421875 25.140625 -1.421875 
Q 13.375 -1.421875 8.203125 6.25 
Q 3.03125 13.875 5.671875 27.296875 
Q 8.25 40.765625 16.40625 48.390625 
Q 23.1875 54.734375 36.078125 54.734375 
z
" id="DejaVuSans-Oblique-963"/>
       </defs>
       <use transform="translate(0 0.09375)" xlink:href="#DejaVuSans-49"/>
       <use transform="translate(63.623047 0.09375)" xlink:href="#DejaVuSans-Oblique-963"/>
      </g>
     </g>
    </g>
    <g id="ytick_12">
     <g id="line2d_35">
      <g>
       <use style="stroke:#000000;stroke-width:0.8;" x="379.4225" xlink:href="#m75438d9494" y="61.08"/>
      </g>
     </g>
     <g id="text_21">
      <!-- $2\sigma$ -->
      <g transform="translate(386.4225 64.879219)scale(0.1 -0.1)">
       <use transform="translate(0 0.78125)" xlink:href="#DejaVuSans-50"/>
       <use transform="translate(63.623047 0.78125)" xlink:href="#DejaVuSans-Oblique-963"/>
      </g>
     </g>
    </g>
   </g>
   <g id="patch_8">
    <path d="M 367.8525 246.2 
L 367.8525 199.92 
L 367.8525 61.08 
L 367.8525 14.8 
L 379.4225 14.8 
L 379.4225 61.08 
L 379.4225 199.92 
L 379.4225 246.2 
z
" style="fill:none;stroke:#000000;stroke-linejoin:miter;stroke-width:0.8;"/>
   </g>
  </g>
 </g>
 <defs>
  <clipPath id="p73c3817213">
   <rect height="231.4" width="284.52" x="65.55" y="14.8"/>
  </clipPath>
  <clipPath id="p72c8708787">
   <rect height="231.4" width="11.57" x="367.8525" y="14.8"/>
  </clipPath>
 </defs>
</svg>
