<?xml version="1.0" encoding="utf-8" standalone="no"?>
<!DOCTYPE svg PUBLIC "-//W3C//DTD SVG 1.1//EN"
  "http://www.w3.org/Graphics/SVG/1.1/DTD/svg11.dtd">
<!-- Created with matplotlib (https://matplotlib.org/) -->
<svg height="288pt" version="1.1" viewBox="0 0 432 288" width="432pt" xmlns="http://www.w3.org/2000/svg" xmlns:xlink="http://www.w3.org/1999/xlink">
 <metadata>
  <rdf:RDF xmlns:cc="http://creativecommons.org/ns#" xmlns:dc="http://purl.org/dc/elements/1.1/" xmlns:rdf="http://www.w3.org/1999/02/22-rdf-syntax-ns#">
   <cc:Work>
    <dc:type rdf:resource="http://purl.org/dc/dcmitype/StillImage"/>
    <dc:date>2022-03-31T15:10:09.914722</dc:date>
    <dc:format>image/svg+xml</dc:format>
    <dc:creator>
     <cc:Agent>
      <dc:title>Matplotlib v3.3.3, https://matplotlib.org/</dc:title>
     </cc:Agent>
    </dc:creator>
   </cc:Work>
  </rdf:RDF>
 </metadata>
 <defs>
  <style type="text/css">*{stroke-linecap:butt;stroke-linejoin:round;}</style>
 </defs>
 <g id="figure_1">
  <g id="patch_1">
   <path d="M 0 288 
L 432 288 
L 432 0 
L 0 0 
z
" style="fill:none;"/>
  </g>
  <g id="axes_1">
   <g id="patch_2">
    <path d="M 85.775409 223.517271 
L 345.475082 223.517271 
L 345.475082 27.82665 
L 85.775409 27.82665 
z
" style="fill:#ffffff;"/>
   </g>
   <g id="PathCollection_1">
    <path clip-path="url(#p618dee76a2)" d="M 159.356983 135.069862 
L 163.685311 155.383155 
L 168.013639 136.023423 
L 172.341967 144.139587 
L 176.670295 149.799925 
L 180.998622 138.717428 
L 185.32695 134.626246 
L 189.655278 137.291518 
L 193.983606 150.729747 
L 198.311934 135.620973 
L 202.640262 131.644633 
L 206.96859 144.172524 
L 211.296918 231.269856 
L 215.625245 171.865022 
L 219.953573 134.52314 
L 224.281901 123.022769 
L 228.610229 111.520126 
L 229.33433 110.366448 
L 228.610229 110.366448 
L 224.281901 110.366448 
L 224.107839 100.982005 
L 219.953573 91.400149 
L 215.625245 53.613047 
L 211.296918 -1.025767 
L 206.96859 88.858297 
L 202.980148 92.041698 
L 202.640262 110.366448 
L 198.311934 110.366448 
L 197.775746 81.458174 
L 193.983606 76.678445 
L 190.242876 78.686476 
L 189.655278 110.366448 
L 185.32695 110.366448 
L 180.998622 110.366448 
L 176.670295 110.366448 
L 172.341967 110.366448 
L 168.013639 110.366448 
L 163.685311 110.366448 
L 159.356983 110.366448 
L 155.028655 110.366448 
L 155.442312 132.668499 
z
" style="fill:#006428;stroke:#006428;"/>
    <path clip-path="url(#p618dee76a2)" d="M 258.908524 118.830869 
L 263.236852 142.2119 
L 267.56518 181.534536 
L 271.893508 215.253103 
L 276.221836 123.963996 
L 279.916593 110.366448 
L 276.221836 110.366448 
L 275.369618 64.419656 
L 271.893508 16.234722 
L 267.56518 46.20558 
L 263.236852 81.808954 
L 259.060973 102.147277 
L 258.908524 110.366448 
L 255.909593 110.366448 
z
" style="fill:#006428;stroke:#006428;"/>
    <path clip-path="url(#p618dee76a2)" d="M 323.833442 133.071724 
L 327.928875 122.922838 
L 328.16177 110.366448 
L 329.885427 110.366448 
L 328.16177 101.607084 
L 323.833442 88.420054 
L 321.51015 110.366448 
z
" style="fill:#006428;stroke:#006428;"/>
    <path clip-path="url(#p618dee76a2)" d="M 315.176787 110.366448 
L 316.841779 110.366448 
L 315.176787 99.176882 
L 312.923798 110.366448 
z
" style="fill:#006428;stroke:#006428;"/>
   </g>
   <g id="PathCollection_2">
    <path clip-path="url(#p618dee76a2)" d="M 211.296918 361.667311 
L 211.7034 343.725648 
L 215.625245 244.227549 
L 219.953573 188.945348 
L 224.281901 183.224493 
L 228.610229 159.45668 
L 232.938557 136.75544 
L 236.827048 134.079998 
L 237.266885 110.366448 
L 241.595213 110.366448 
L 240.613661 57.446695 
L 237.266885 54.604696 
L 234.069997 49.365558 
L 232.938557 110.366448 
L 229.33433 110.366448 
L 228.610229 111.520126 
L 224.281901 123.022769 
L 219.953573 134.52314 
L 215.625245 171.865022 
L 211.296918 231.269856 
L 206.96859 144.172524 
L 202.640262 131.644633 
L 198.311934 135.620973 
L 193.983606 150.729747 
L 189.655278 137.291518 
L 185.32695 134.626246 
L 180.998622 138.717428 
L 176.670295 149.799925 
L 172.341967 144.139587 
L 168.013639 136.023423 
L 163.685311 155.383155 
L 159.356983 135.069862 
L 155.442312 132.668499 
L 155.910279 157.898642 
L 159.356983 160.012942 
L 163.685311 204.518714 
L 168.013639 166.658369 
L 172.341967 187.746777 
L 176.670295 203.893451 
L 180.998622 179.003394 
L 185.32695 168.317986 
L 189.655278 173.247374 
L 193.983606 200.91351 
L 198.311934 173.087422 
L 202.640262 167.833918 
L 206.96859 192.433682 
L 211.108706 343.725648 
z
" style="fill:#2f974e;stroke:#2f974e;"/>
    <path clip-path="url(#p618dee76a2)" d="M 250.251868 137.17743 
L 254.580196 148.962376 
L 258.908524 167.266704 
L 263.236852 189.921494 
L 267.56518 265.70909 
L 271.893508 333.5142 
L 276.221836 166.244142 
L 280.550164 138.442931 
L 284.538468 128.698632 
L 284.878492 110.366448 
L 280.550164 110.366448 
L 279.916593 110.366448 
L 276.221836 123.963996 
L 271.893508 215.253103 
L 267.56518 181.534536 
L 263.236852 142.2119 
L 258.908524 118.830869 
L 255.909593 110.366448 
L 254.580196 110.366448 
L 250.251868 110.366448 
L 245.923541 110.366448 
L 246.385895 135.294032 
z
" style="fill:#2f974e;stroke:#2f974e;"/>
    <path clip-path="url(#p618dee76a2)" d="M 323.833442 172.460101 
L 327.163105 164.208868 
L 327.928875 122.922838 
L 323.833442 133.071724 
L 321.51015 110.366448 
L 323.833442 88.420054 
L 328.16177 101.607084 
L 329.885427 110.366448 
L 332.490098 110.366448 
L 332.171362 93.182003 
L 328.16177 72.80586 
L 323.833442 50.34816 
L 319.935351 87.170485 
L 319.505115 110.366448 
L 319.953522 134.542083 
z
" style="fill:#2f974e;stroke:#2f974e;"/>
    <path clip-path="url(#p618dee76a2)" d="M 193.983606 76.678445 
L 197.775746 81.458174 
L 196.980281 38.571189 
L 193.983606 34.794089 
L 191.027556 36.380902 
L 190.242876 78.686476 
z
" style="fill:#2f974e;stroke:#2f974e;"/>
    <path clip-path="url(#p618dee76a2)" d="M 206.96859 88.858297 
L 211.296918 -1.025767 
L 215.625245 53.613047 
L 219.953573 91.400149 
L 224.107839 100.982005 
L 223.279887 56.343467 
L 219.953573 48.671291 
L 215.625245 -13.166055 
L 211.296918 -121.85453 
L 206.96859 58.153513 
L 203.558216 60.875526 
L 202.980148 92.041698 
z
" style="fill:#2f974e;stroke:#2f974e;"/>
    <path clip-path="url(#p618dee76a2)" d="M 263.236852 81.808954 
L 267.56518 46.20558 
L 271.893508 16.234722 
L 275.369618 64.419656 
L 272.719738 -78.447068 
L 271.893508 -89.900049 
L 267.56518 -29.681138 
L 263.236852 39.025248 
L 259.933327 55.114833 
L 259.060973 102.147277 
z
" style="fill:#2f974e;stroke:#2f974e;"/>
    <path clip-path="url(#p618dee76a2)" d="M 297.863475 110.366448 
L 302.191803 110.366448 
L 306.520131 110.366448 
L 310.848459 110.366448 
L 312.923798 110.366448 
L 315.176787 99.176882 
L 316.841779 110.366448 
L 319.505115 110.366448 
L 319.122011 89.711631 
L 315.176787 63.197784 
L 310.848459 86.255519 
L 306.520131 91.783019 
L 302.191803 98.432875 
L 297.863475 103.134348 
L 293.714707 100.685603 
L 293.535147 110.366448 
z
" style="fill:#2f974e;stroke:#2f974e;"/>
   </g>
   <g id="PathCollection_3">
    <path clip-path="url(#p618dee76a2)" d="M 211.296918 487.562675 
L 214.555662 343.725648 
L 215.625245 316.590075 
L 219.953573 243.367555 
L 224.281901 243.426216 
L 228.610229 207.393233 
L 232.938557 166.735872 
L 236.263785 164.447978 
L 236.827048 134.079998 
L 232.938557 136.75544 
L 228.610229 159.45668 
L 224.281901 183.224493 
L 219.953573 188.945348 
L 215.625245 244.227549 
L 211.7034 343.725648 
L 211.296918 361.667311 
L 211.108706 343.725648 
L 206.96859 192.433682 
L 202.640262 167.833918 
L 198.311934 173.087422 
L 193.983606 200.91351 
L 189.655278 173.247374 
L 185.32695 168.317986 
L 180.998622 179.003394 
L 176.670295 203.893451 
L 172.341967 187.746777 
L 168.013639 166.658369 
L 163.685311 204.518714 
L 159.356983 160.012942 
L 155.910279 157.898642 
L 156.378245 183.128785 
L 159.356983 184.956022 
L 163.685311 253.654273 
L 168.013639 197.293316 
L 172.341967 231.353967 
L 176.670295 257.986976 
L 180.998622 219.289359 
L 185.32695 202.009725 
L 189.655278 209.20323 
L 193.983606 251.097273 
L 198.311934 210.553871 
L 202.640262 204.023203 
L 206.96859 240.69484 
L 209.788035 343.725648 
z
" style="fill:#75c477;stroke:#75c477;"/>
    <path clip-path="url(#p618dee76a2)" d="M 267.56518 351.031066 
L 271.893508 445.609304 
L 272.855367 343.725648 
L 276.221836 208.524289 
L 280.550164 168.158164 
L 283.96115 159.824378 
L 284.538468 128.698632 
L 280.550164 138.442931 
L 276.221836 166.244142 
L 271.893508 333.5142 
L 267.56518 265.70909 
L 263.236852 189.921494 
L 258.908524 167.266704 
L 254.580196 148.962376 
L 250.251868 137.17743 
L 246.385895 135.294032 
L 247.018199 169.384275 
L 250.251868 170.959632 
L 254.580196 190.799299 
L 258.908524 215.702538 
L 263.236852 237.631087 
L 267.427321 343.725648 
z
" style="fill:#75c477;stroke:#75c477;"/>
    <path clip-path="url(#p618dee76a2)" d="M 323.833442 211.848477 
L 326.397335 205.494898 
L 327.163105 164.208868 
L 323.833442 172.460101 
L 319.953522 134.542083 
L 320.845843 182.651007 
z
" style="fill:#75c477;stroke:#75c477;"/>
    <path clip-path="url(#p618dee76a2)" d="M 193.983606 34.794089 
L 196.980281 38.571189 
L 196.184817 -4.315795 
L 193.983606 -7.090268 
L 191.812237 -5.924673 
L 191.027556 36.380902 
z
" style="fill:#75c477;stroke:#75c477;"/>
    <path clip-path="url(#p618dee76a2)" d="M 206.96859 58.153513 
L 211.296918 -121.85453 
L 215.625245 -13.166055 
L 219.953573 48.671291 
L 223.279887 56.343467 
L 222.451935 11.70493 
L 219.953573 5.942433 
L 215.625245 -79.945157 
L 213.918944 -122.992752 
L 211.296918 -249.53684 
L 210.569003 -122.992752 
L 206.96859 27.448729 
L 204.136283 29.709353 
L 203.558216 60.875526 
z
" style="fill:#75c477;stroke:#75c477;"/>
    <path clip-path="url(#p618dee76a2)" d="M 237.266885 54.604696 
L 240.613661 57.446695 
L 239.267969 -15.105493 
L 237.266885 -16.804764 
L 235.355421 -19.937317 
L 234.069997 49.365558 
z
" style="fill:#75c477;stroke:#75c477;"/>
    <path clip-path="url(#p618dee76a2)" d="M 263.236852 39.025248 
L 267.56518 -29.681138 
L 271.893508 -89.900049 
L 272.719738 -78.447068 
L 271.893508 -122.992752 
L 271.893508 -200.728768 
L 268.648029 -122.992752 
L 267.56518 -105.567856 
L 263.236852 -3.758458 
L 260.805681 8.082389 
L 259.933327 55.114833 
z
" style="fill:#75c477;stroke:#75c477;"/>
    <path clip-path="url(#p618dee76a2)" d="M 297.863475 103.134348 
L 302.191803 98.432875 
L 306.520131 91.783019 
L 310.848459 86.255519 
L 315.176787 63.197784 
L 319.122011 89.711631 
L 318.359643 48.609048 
L 315.176787 27.218686 
L 310.848459 52.464026 
L 306.520131 46.486439 
L 302.191803 38.501636 
L 297.863475 40.307027 
L 294.867404 38.538643 
L 293.714707 100.685603 
z
" style="fill:#75c477;stroke:#75c477;"/>
    <path clip-path="url(#p618dee76a2)" d="M 323.833442 50.34816 
L 328.16177 72.80586 
L 332.171362 93.182003 
L 331.581567 61.383526 
L 328.16177 44.004636 
L 323.833442 12.276267 
L 320.791512 41.011086 
L 319.935351 87.170485 
z
" style="fill:#75c477;stroke:#75c477;"/>
   </g>
   <g id="PathCollection_4">
    <path clip-path="url(#p618dee76a2)" d="M 211.93964 577.084848 
L 215.625245 407.646075 
L 217.466701 343.725648 
L 219.953573 297.789762 
L 224.281901 303.62794 
L 228.610229 255.329786 
L 232.938557 196.716304 
L 235.700522 194.815958 
L 236.263785 164.447978 
L 232.938557 166.735872 
L 228.610229 207.393233 
L 224.281901 243.426216 
L 219.953573 243.367555 
L 215.625245 316.590075 
L 214.555662 343.725648 
L 211.296918 487.562675 
L 209.788035 343.725648 
L 206.96859 240.69484 
L 202.640262 204.023203 
L 198.311934 210.553871 
L 193.983606 251.097273 
L 189.655278 209.20323 
L 185.32695 202.009725 
L 180.998622 219.289359 
L 176.670295 257.986976 
L 172.341967 231.353967 
L 168.013639 197.293316 
L 163.685311 253.654273 
L 159.356983 184.956022 
L 156.378245 183.128785 
L 156.846212 208.358928 
L 159.356983 209.899102 
L 163.685311 302.789831 
L 168.013639 227.928263 
L 172.341967 274.961157 
L 176.670295 312.080502 
L 180.998622 259.575325 
L 185.32695 235.701465 
L 189.655278 245.159086 
L 193.983606 301.281036 
L 198.311934 248.02032 
L 202.640262 240.212487 
L 206.96859 288.955998 
L 208.467365 343.725648 
L 210.418603 529.731034 
L 211.296918 577.084848 
L 211.296918 630.073143 
z
" style="fill:#b8e3b2;stroke:#b8e3b2;"/>
    <path clip-path="url(#p618dee76a2)" d="M 267.56518 450.889892 
L 271.893508 557.121678 
L 273.908129 343.725648 
L 276.221836 250.804435 
L 280.550164 197.873397 
L 283.383832 190.950125 
L 283.96115 159.824378 
L 280.550164 168.158164 
L 276.221836 208.524289 
L 272.855367 343.725648 
L 271.893508 445.609304 
L 267.56518 351.031066 
L 267.427321 343.725648 
L 263.236852 237.631087 
L 258.908524 215.702538 
L 254.580196 190.799299 
L 250.251868 170.959632 
L 247.018199 169.384275 
L 247.650502 203.474518 
L 250.251868 204.741834 
L 254.580196 232.636222 
L 258.908524 264.138373 
L 263.236852 285.34068 
L 265.542912 343.725648 
z
" style="fill:#b8e3b2;stroke:#b8e3b2;"/>
    <path clip-path="url(#p618dee76a2)" d="M 323.833442 251.236854 
L 325.631565 246.780929 
L 326.397335 205.494898 
L 323.833442 211.848477 
L 320.845843 182.651007 
L 321.738163 230.75993 
z
" style="fill:#b8e3b2;stroke:#b8e3b2;"/>
    <path clip-path="url(#p618dee76a2)" d="M 193.983606 -7.090268 
L 196.184817 -4.315795 
L 195.389352 -47.202779 
L 193.983606 -48.974625 
L 192.596917 -48.230247 
L 191.812237 -5.924673 
z
" style="fill:#b8e3b2;stroke:#b8e3b2;"/>
    <path clip-path="url(#p618dee76a2)" d="M 206.96859 27.448729 
L 210.569003 -122.992752 
L 211.296918 -249.53684 
L 213.918944 -122.992752 
L 215.625245 -79.945157 
L 219.953573 5.942433 
L 222.451935 11.70493 
L 221.623983 -32.933608 
L 219.953573 -36.786425 
L 216.273472 -122.992752 
L 215.625245 -161.525982 
L 211.65865 -356.351952 
L 211.296918 -388.72174 
L 210.833719 -356.351952 
L 209.834166 -122.992752 
L 206.96859 -3.256055 
L 204.714351 -1.45682 
L 204.136283 29.709353 
z
" style="fill:#b8e3b2;stroke:#b8e3b2;"/>
    <path clip-path="url(#p618dee76a2)" d="M 237.266885 -16.804764 
L 239.267969 -15.105493 
L 237.922277 -87.657681 
L 237.266885 -88.214224 
L 236.640845 -89.240193 
L 235.355421 -19.937317 
z
" style="fill:#b8e3b2;stroke:#b8e3b2;"/>
    <path clip-path="url(#p618dee76a2)" d="M 263.236852 -3.758458 
L 267.56518 -105.567856 
L 268.648029 -122.992752 
L 271.893508 -200.728768 
L 271.893508 -313.684144 
L 267.56518 -207.296653 
L 266.261273 -122.992752 
L 263.236852 -46.542164 
L 261.678035 -38.950056 
L 260.805681 8.082389 
z
" style="fill:#b8e3b2;stroke:#b8e3b2;"/>
    <path clip-path="url(#p618dee76a2)" d="M 297.863475 40.307027 
L 302.191803 38.501636 
L 306.520131 46.486439 
L 310.848459 52.464026 
L 315.176787 27.218686 
L 318.359643 48.609048 
L 317.597276 7.506466 
L 315.176787 -8.760412 
L 310.848459 18.672533 
L 306.520131 1.18986 
L 302.191803 -21.429603 
L 297.863475 -22.520293 
L 296.020101 -23.608316 
L 294.867404 38.538643 
z
" style="fill:#b8e3b2;stroke:#b8e3b2;"/>
    <path clip-path="url(#p618dee76a2)" d="M 323.833442 12.276267 
L 328.16177 44.004636 
L 331.581567 61.383526 
L 330.991771 29.58505 
L 328.16177 15.203411 
L 323.833442 -25.795627 
L 321.647673 -5.148314 
L 320.791512 41.011086 
z
" style="fill:#b8e3b2;stroke:#b8e3b2;"/>
   </g>
   <g id="PathCollection_5">
    <path clip-path="url(#p618dee76a2)" d="M 194.167162 577.084848 
L 194.374266 343.725648 
L 198.311934 285.486769 
L 202.640262 276.401772 
L 206.96859 337.217156 
L 207.146695 343.725648 
L 207.378568 365.829398 
L 210.418603 529.731034 
L 208.467365 343.725648 
L 206.96859 288.955998 
L 202.640262 240.212487 
L 198.311934 248.02032 
L 193.983606 301.281036 
L 189.655278 245.159086 
L 185.32695 235.701465 
L 180.998622 259.575325 
L 176.670295 312.080502 
L 172.341967 274.961157 
L 168.013639 227.928263 
L 163.685311 302.789831 
L 159.356983 209.899102 
L 156.846212 208.358928 
L 157.314179 233.589071 
L 159.356983 234.842182 
L 163.525936 343.725648 
L 163.685311 343.725648 
L 163.930429 343.725648 
L 168.013639 258.56321 
L 172.341967 318.568348 
L 174.859403 343.725648 
L 176.670295 424.428331 
L 177.864736 343.725648 
L 180.998622 299.861291 
L 185.32695 269.393205 
L 189.655278 281.114942 
L 193.631464 343.725648 
L 193.778921 577.084848 
L 193.983606 577.084848 
L 194.114372 584.135038 
z
" style="fill:#e9f7e5;stroke:#e9f7e5;"/>
    <path clip-path="url(#p618dee76a2)" d="M 211.296918 810.444048 
L 211.403226 804.712514 
L 214.164241 577.084848 
L 215.625245 509.917911 
L 219.123069 388.501775 
L 219.953573 343.725648 
L 224.281901 343.725648 
L 225.508953 343.725648 
L 228.610229 303.26634 
L 232.938557 226.696736 
L 235.137259 225.183938 
L 235.700522 194.815958 
L 232.938557 196.716304 
L 228.610229 255.329786 
L 224.281901 303.62794 
L 219.953573 297.789762 
L 217.466701 343.725648 
L 215.625245 407.646075 
L 211.93964 577.084848 
L 211.296918 630.073143 
z
" style="fill:#e9f7e5;stroke:#e9f7e5;"/>
    <path clip-path="url(#p618dee76a2)" d="M 271.893508 735.74 
L 271.893508 577.084848 
L 273.653755 482.182158 
L 274.96089 343.725648 
L 276.221836 293.084581 
L 280.550164 227.58863 
L 282.806514 222.075872 
L 283.383832 190.950125 
L 280.550164 197.873397 
L 276.221836 250.804435 
L 273.908129 343.725648 
L 271.893508 557.121678 
L 267.56518 450.889892 
L 265.542912 343.725648 
L 263.236852 285.34068 
L 258.908524 264.138373 
L 254.580196 232.636222 
L 250.251868 204.741834 
L 247.650502 203.474518 
L 248.282805 237.564762 
L 250.251868 238.524037 
L 254.580196 274.473145 
L 258.908524 312.574207 
L 263.236852 333.050274 
L 263.658503 343.725648 
L 267.56518 550.748718 
L 268.617557 577.084848 
z
" style="fill:#e9f7e5;stroke:#e9f7e5;"/>
    <path clip-path="url(#p618dee76a2)" d="M 323.833442 290.625231 
L 324.865795 288.066959 
L 325.631565 246.780929 
L 323.833442 251.236854 
L 321.738163 230.75993 
L 322.630484 278.868853 
z
" style="fill:#e9f7e5;stroke:#e9f7e5;"/>
    <path clip-path="url(#p618dee76a2)" d="M 193.983606 -48.974625 
L 195.389352 -47.202779 
L 194.593888 -90.089763 
L 193.983606 -90.858981 
L 193.381598 -90.535822 
L 192.596917 -48.230247 
z
" style="fill:#e9f7e5;stroke:#e9f7e5;"/>
    <path clip-path="url(#p618dee76a2)" d="M 206.96859 -3.256055 
L 209.834166 -122.992752 
L 210.833719 -356.351952 
L 211.296918 -388.72174 
L 211.65865 -356.351952 
L 215.625245 -161.525982 
L 216.273472 -122.992752 
L 219.953573 -36.786425 
L 221.623983 -32.933608 
L 220.796031 -77.572146 
L 219.953573 -79.515284 
L 218.097544 -122.992752 
L 215.625245 -269.956284 
L 213.866257 -356.351952 
L 211.296918 -586.270238 
L 208.006877 -356.351952 
L 209.09933 -122.992752 
L 206.96859 -33.96084 
L 205.292419 -32.622993 
L 204.714351 -1.45682 
z
" style="fill:#e9f7e5;stroke:#e9f7e5;"/>
    <path clip-path="url(#p618dee76a2)" d="M 237.266885 -88.214224 
L 237.922277 -87.657681 
L 237.266885 -122.992752 
L 236.640845 -89.240193 
z
" style="fill:#e9f7e5;stroke:#e9f7e5;"/>
    <path clip-path="url(#p618dee76a2)" d="M 263.236852 -46.542164 
L 266.261273 -122.992752 
L 267.56518 -207.296653 
L 271.893508 -313.684144 
L 271.893508 -356.351952 
L 271.893508 -494.74236 
L 269.157347 -356.351952 
L 267.56518 -316.727835 
L 264.56873 -122.992752 
L 263.236852 -89.32587 
L 262.550389 -85.9825 
L 261.678035 -38.950056 
z
" style="fill:#e9f7e5;stroke:#e9f7e5;"/>
    <path clip-path="url(#p618dee76a2)" d="M 297.863475 -22.520293 
L 302.191803 -21.429603 
L 306.520131 1.18986 
L 310.848459 18.672533 
L 315.176787 -8.760412 
L 317.597276 7.506466 
L 316.834908 -33.596116 
L 315.176787 -44.73951 
L 310.848459 -15.118959 
L 306.520131 -44.10672 
L 302.191803 -81.360843 
L 297.863475 -85.347613 
L 297.172797 -85.755275 
L 296.020101 -23.608316 
z
" style="fill:#e9f7e5;stroke:#e9f7e5;"/>
    <path clip-path="url(#p618dee76a2)" d="M 323.833442 -25.795627 
L 328.16177 15.203411 
L 330.991771 29.58505 
L 330.401976 -2.213427 
L 328.16177 -13.597813 
L 323.833442 -63.867521 
L 322.503834 -51.307714 
L 321.647673 -5.148314 
z
" style="fill:#e9f7e5;stroke:#e9f7e5;"/>
   </g>
   <g id="matplotlib.axis_1">
    <g id="xtick_1">
     <g id="line2d_1">
      <path clip-path="url(#p618dee76a2)" d="M 85.775409 223.517271 
L 85.775409 27.82665 
" style="fill:none;stroke:#b0b0b0;stroke-linecap:square;stroke-width:0.8;"/>
     </g>
     <g id="line2d_2">
      <defs>
       <path d="M 0 0 
L 0 3.5 
" id="me763da96b6" style="stroke:#000000;stroke-width:0.8;"/>
      </defs>
      <g>
       <use style="stroke:#000000;stroke-width:0.8;" x="85.775409" xlink:href="#me763da96b6" y="223.517271"/>
      </g>
     </g>
     <g id="text_1">
      <!-- $\mathdefault{0}$ -->
      <g transform="translate(81.663266 242.970572)scale(0.18 -0.18)">
       <defs>
        <path d="M 42 31.640625 
C 42 37.75 41.90625 48.125 37.703125 56.109375 
C 34 63.109375 28.09375 65.59375 22.90625 65.59375 
C 18.09375 65.59375 12 63.40625 8.203125 56.203125 
C 4.203125 48.71875 3.796875 39.4375 3.796875 31.640625 
C 3.796875 25.953125 3.90625 17.28125 7 9.671875 
C 11.296875 -0.609375 19 -2 22.90625 -2 
C 27.5 -2 34.5 -0.109375 38.59375 9.375 
C 41.59375 16.28125 42 24.359375 42 31.640625 
z
M 22.90625 -0.40625 
C 16.5 -0.40625 12.703125 5.078125 11.296875 12.6875 
C 10.203125 18.5625 10.203125 27.15625 10.203125 32.75 
C 10.203125 40.4375 10.203125 46.828125 11.5 52.921875 
C 13.40625 61.390625 19 64 22.90625 64 
C 27 64 32.296875 61.296875 34.203125 53.125 
C 35.5 47.4375 35.59375 40.734375 35.59375 32.75 
C 35.59375 26.25 35.59375 18.265625 34.40625 12.375 
C 32.296875 1.484375 26.40625 -0.40625 22.90625 -0.40625 
z
" id="CMR17-48"/>
       </defs>
       <use transform="scale(0.996264)" xlink:href="#CMR17-48"/>
      </g>
     </g>
    </g>
    <g id="xtick_2">
     <g id="line2d_3">
      <path clip-path="url(#p618dee76a2)" d="M 172.341967 223.517271 
L 172.341967 27.82665 
" style="fill:none;stroke:#b0b0b0;stroke-linecap:square;stroke-width:0.8;"/>
     </g>
     <g id="line2d_4">
      <g>
       <use style="stroke:#000000;stroke-width:0.8;" x="172.341967" xlink:href="#me763da96b6" y="223.517271"/>
      </g>
     </g>
     <g id="text_2">
      <!-- $\mathdefault{1}$ -->
      <g transform="translate(168.229824 242.970572)scale(0.18 -0.18)">
       <defs>
        <path d="M 26.59375 63.40625 
C 26.59375 65.5 26.5 65.5 25.09375 65.5 
C 21.203125 61.1875 15.296875 59.796875 9.703125 59.796875 
C 9.40625 59.796875 8.90625 59.796875 8.796875 59.5 
C 8.703125 59.296875 8.703125 59.09375 8.703125 57 
C 11.796875 57 17 57.59375 21 59.984375 
L 21 7.203125 
C 21 3.6875 20.796875 2.5 12.203125 2.5 
L 9.203125 2.5 
L 9.203125 0 
C 14 0 19 0 23.796875 0 
C 28.59375 0 33.59375 0 38.40625 0 
L 38.40625 2.5 
L 35.40625 2.5 
C 26.796875 2.5 26.59375 3.59375 26.59375 7.15625 
z
" id="CMR17-49"/>
       </defs>
       <use transform="scale(0.996264)" xlink:href="#CMR17-49"/>
      </g>
     </g>
    </g>
    <g id="xtick_3">
     <g id="line2d_5">
      <path clip-path="url(#p618dee76a2)" d="M 258.908524 223.517271 
L 258.908524 27.82665 
" style="fill:none;stroke:#b0b0b0;stroke-linecap:square;stroke-width:0.8;"/>
     </g>
     <g id="line2d_6">
      <g>
       <use style="stroke:#000000;stroke-width:0.8;" x="258.908524" xlink:href="#me763da96b6" y="223.517271"/>
      </g>
     </g>
     <g id="text_3">
      <!-- $\mathdefault{2}$ -->
      <g transform="translate(254.796381 242.970572)scale(0.18 -0.18)">
       <defs>
        <path d="M 41.703125 15.453125 
L 39.90625 15.453125 
C 38.90625 8.375 38.09375 7.171875 37.703125 6.5625 
C 37.203125 5.765625 30 5.765625 28.59375 5.765625 
L 9.40625 5.765625 
C 13 9.671875 20 16.75 28.5 24.953125 
C 34.59375 30.734375 41.703125 37.53125 41.703125 47.421875 
C 41.703125 59.21875 32.296875 66 21.796875 66 
C 10.796875 66 4.09375 56.3125 4.09375 47.34375 
C 4.09375 43.4375 7 42.9375 8.203125 42.9375 
C 9.203125 42.9375 12.203125 43.546875 12.203125 47.03125 
C 12.203125 50.109375 9.59375 51 8.203125 51 
C 7.59375 51 7 50.90625 6.59375 50.703125 
C 8.5 59.21875 14.296875 63.40625 20.40625 63.40625 
C 29.09375 63.40625 34.796875 56.515625 34.796875 47.421875 
C 34.796875 38.734375 29.703125 31.25 24 24.75 
L 4.09375 2.28125 
L 4.09375 0 
L 39.296875 0 
z
" id="CMR17-50"/>
       </defs>
       <use transform="scale(0.996264)" xlink:href="#CMR17-50"/>
      </g>
     </g>
    </g>
    <g id="xtick_4">
     <g id="line2d_7">
      <path clip-path="url(#p618dee76a2)" d="M 345.475082 223.517271 
L 345.475082 27.82665 
" style="fill:none;stroke:#b0b0b0;stroke-linecap:square;stroke-width:0.8;"/>
     </g>
     <g id="line2d_8">
      <g>
       <use style="stroke:#000000;stroke-width:0.8;" x="345.475082" xlink:href="#me763da96b6" y="223.517271"/>
      </g>
     </g>
     <g id="text_4">
      <!-- $\mathdefault{3}$ -->
      <g transform="translate(341.362939 242.970572)scale(0.18 -0.18)">
       <defs>
        <path d="M 22.09375 33.703125 
C 31 33.703125 34.90625 25.96875 34.90625 17.03125 
C 34.90625 5 28.5 0.390625 22.703125 0.390625 
C 17.40625 0.390625 8.796875 3.03125 6.09375 10.828125 
C 6.59375 10.625 7.09375 10.625 7.59375 10.625 
C 10 10.625 11.796875 12.21875 11.796875 14.8125 
C 11.796875 17.703125 9.59375 19 7.59375 19 
C 5.90625 19 3.296875 18.203125 3.296875 14.46875 
C 3.296875 5.234375 12.296875 -2 22.90625 -2 
C 34 -2 42.5 6.71875 42.5 16.953125 
C 42.5 26.671875 34.5 33.703125 25 34.796875 
C 32.59375 36.375 39.90625 43.0625 39.90625 52.015625 
C 39.90625 59.6875 32 65.296875 23 65.296875 
C 13.90625 65.296875 5.90625 59.828125 5.90625 52.015625 
C 5.90625 48.59375 8.5 48 9.796875 48 
C 11.90625 48 13.703125 49.296875 13.703125 51.890625 
C 13.703125 54.46875 11.90625 55.765625 9.796875 55.765625 
C 9.40625 55.765625 8.90625 55.765625 8.5 55.578125 
C 11.40625 61.859375 19.296875 63 22.796875 63 
C 26.296875 63 32.90625 61.328125 32.90625 51.875 
C 32.90625 49.109375 32.5 44.1875 29.09375 39.84375 
C 26.09375 36 22.703125 36 19.40625 35.6875 
C 18.90625 35.6875 16.59375 35.453125 16.203125 35.453125 
C 15.5 35.359375 15.09375 35.265625 15.09375 34.5 
C 15.09375 33.796875 15.203125 33.703125 17.203125 33.703125 
z
" id="CMR17-51"/>
       </defs>
       <use transform="scale(0.996264)" xlink:href="#CMR17-51"/>
      </g>
     </g>
    </g>
    <g id="text_5">
     <!-- $z$ -->
     <g transform="translate(211.546828 262.911936)scale(0.18 -0.18)">
      <defs>
       <path d="M 12.703125 7.59375 
C 17 12.546875 20.5 15.6875 25.5 20.25 
C 31.5 25.5 34.09375 28.015625 35.5 29.546875 
C 42.5 36.53125 46 42.390625 46 43.1875 
C 46 44 45.203125 44 45 44 
C 44.296875 44 44.09375 43.640625 43.59375 42.96875 
C 41.09375 38.96875 38.703125 36.984375 36.09375 36.984375 
C 34 36.984375 32.90625 37.828125 31 40.078125 
C 28.90625 42.421875 27.203125 44 24.296875 44 
C 17 44 12.59375 35.265625 12.59375 33.25 
C 12.59375 32.9375 12.703125 32.3125 13.59375 32.3125 
C 14.40625 32.3125 14.5 32.671875 14.796875 33.328125 
C 16.5 37.0625 21.296875 37.71875 23.203125 37.71875 
C 25.296875 37.71875 27.296875 37.125 29.40625 36.359375 
C 33.203125 35 34.796875 35 35.796875 35 
C 36.5 35 36.90625 35 37.40625 35.09375 
C 34.09375 31.15625 28.703125 26.296875 24.203125 22.15625 
L 14.09375 12.75 
C 8 6.484375 4.296875 0.515625 4.296875 -0.1875 
C 4.296875 -0.796875 4.796875 -1 5.40625 -1 
C 6 -1 6.09375 -0.890625 6.796875 0.21875 
C 8.40625 2.546875 11.59375 6 15.296875 6 
C 17.40625 6 18.40625 5.34375 20.40625 3.015625 
C 22.296875 0.953125 24 -1 27.203125 -1 
C 37 -1 42.59375 11.4375 42.59375 13.6875 
C 42.59375 14.109375 42.5 14.71875 41.5 14.71875 
C 40.703125 14.71875 40.59375 14.328125 40.296875 13.359375 
C 38.09375 7.625 32.203125 5.28125 28.296875 5.28125 
C 26.203125 5.28125 24.203125 5.875 22.09375 6.640625 
C 18.09375 8 17 8 15.703125 8 
C 14.703125 8 13.59375 8 12.703125 7.59375 
z
" id="CMMI12-122"/>
      </defs>
      <use transform="scale(0.996264)" xlink:href="#CMMI12-122"/>
     </g>
    </g>
   </g>
   <g id="matplotlib.axis_2">
    <g id="ytick_1">
     <g id="line2d_9">
      <path clip-path="url(#p618dee76a2)" d="M 85.775409 223.517271 
L 345.475082 223.517271 
" style="fill:none;stroke:#b0b0b0;stroke-linecap:square;stroke-width:0.8;"/>
     </g>
     <g id="line2d_10">
      <defs>
       <path d="M 0 0 
L -3.5 0 
" id="maad8cc365c" style="stroke:#000000;stroke-width:0.8;"/>
      </defs>
      <g>
       <use style="stroke:#000000;stroke-width:0.8;" x="85.775409" xlink:href="#maad8cc365c" y="223.517271"/>
      </g>
     </g>
     <g id="text_6">
      <!-- $\mathdefault{−2.0}$ -->
      <g transform="translate(43.501604 229.743921)scale(0.18 -0.18)">
       <defs>
        <path d="M 65.90625 23 
C 67.59375 23 69.40625 23 69.40625 25 
C 69.40625 27 67.59375 27 65.90625 27 
L 11.796875 27 
C 10.09375 27 8.296875 27 8.296875 25 
C 8.296875 23 10.09375 23 11.796875 23 
z
" id="CMSY10-0"/>
        <path d="M 18.40625 4.796875 
C 18.40625 7.6875 16 9.671875 13.59375 9.671875 
C 10.703125 9.671875 8.703125 7.28125 8.703125 4.890625 
C 8.703125 2 11.09375 0 13.5 0 
C 16.40625 0 18.40625 2.390625 18.40625 4.796875 
z
" id="CMMI12-58"/>
       </defs>
       <use transform="scale(0.996264)" xlink:href="#CMSY10-0"/>
       <use transform="translate(77.487468 0)scale(0.996264)" xlink:href="#CMR17-50"/>
       <use transform="translate(123.177945 0)scale(0.996264)" xlink:href="#CMMI12-58"/>
       <use transform="translate(150.275122 0)scale(0.996264)" xlink:href="#CMR17-48"/>
      </g>
     </g>
    </g>
    <g id="ytick_2">
     <g id="line2d_11">
      <path clip-path="url(#p618dee76a2)" d="M 85.775409 174.594616 
L 345.475082 174.594616 
" style="fill:none;stroke:#b0b0b0;stroke-linecap:square;stroke-width:0.8;"/>
     </g>
     <g id="line2d_12">
      <g>
       <use style="stroke:#000000;stroke-width:0.8;" x="85.775409" xlink:href="#maad8cc365c" y="174.594616"/>
      </g>
     </g>
     <g id="text_7">
      <!-- $\mathdefault{−1.5}$ -->
      <g transform="translate(43.501604 180.821266)scale(0.18 -0.18)">
       <defs>
        <path d="M 11.40625 57.6875 
C 12.40625 57.28125 16.5 56 20.703125 56 
C 30 56 35.09375 61.109375 38 64.0625 
C 38 64.953125 38 65.5 37.40625 65.5 
C 37.296875 65.5 37.09375 65.5 36.296875 65.046875 
C 32.796875 63.40625 28.703125 62.078125 23.703125 62.078125 
C 20.703125 62.078125 16.203125 62.484375 11.296875 64.671875 
C 10.203125 65.171875 10 65.171875 9.90625 65.171875 
C 9.40625 65.171875 9.296875 65.0625 9.296875 63.078125 
L 9.296875 34.421875 
C 9.296875 32.640625 9.296875 32.140625 10.296875 32.140625 
C 10.796875 32.140625 11 32.34375 11.5 33.03125 
C 14.703125 37.515625 19.09375 39.40625 24.09375 39.40625 
C 27.59375 39.40625 35.09375 37.21875 35.09375 20.140625 
C 35.09375 16.953125 35.09375 11.171875 32.09375 6.578125 
C 29.59375 2.484375 25.703125 0.390625 21.40625 0.390625 
C 14.796875 0.390625 8.09375 5 6.296875 12.71875 
C 6.703125 12.609375 7.5 12.421875 7.90625 12.421875 
C 9.203125 12.421875 11.703125 13.125 11.703125 16.21875 
C 11.703125 18.90625 9.796875 20 7.90625 20 
C 5.59375 20 4.09375 18.59375 4.09375 15.796875 
C 4.09375 7.09375 11 -2 21.59375 -2 
C 31.90625 -2 41.703125 6.875 41.703125 19.75 
C 41.703125 31.71875 33.90625 41 24.203125 41 
C 19.09375 41 14.796875 39.109375 11.40625 35.53125 
z
" id="CMR17-53"/>
       </defs>
       <use transform="scale(0.996264)" xlink:href="#CMSY10-0"/>
       <use transform="translate(77.487468 0)scale(0.996264)" xlink:href="#CMR17-49"/>
       <use transform="translate(123.177945 0)scale(0.996264)" xlink:href="#CMMI12-58"/>
       <use transform="translate(150.275122 0)scale(0.996264)" xlink:href="#CMR17-53"/>
      </g>
     </g>
    </g>
    <g id="ytick_3">
     <g id="line2d_13">
      <path clip-path="url(#p618dee76a2)" d="M 85.775409 125.671961 
L 345.475082 125.671961 
" style="fill:none;stroke:#b0b0b0;stroke-linecap:square;stroke-width:0.8;"/>
     </g>
     <g id="line2d_14">
      <g>
       <use style="stroke:#000000;stroke-width:0.8;" x="85.775409" xlink:href="#maad8cc365c" y="125.671961"/>
      </g>
     </g>
     <g id="text_8">
      <!-- $\mathdefault{−1.0}$ -->
      <g transform="translate(43.501604 131.898611)scale(0.18 -0.18)">
       <use transform="scale(0.996264)" xlink:href="#CMSY10-0"/>
       <use transform="translate(77.487468 0)scale(0.996264)" xlink:href="#CMR17-49"/>
       <use transform="translate(123.177945 0)scale(0.996264)" xlink:href="#CMMI12-58"/>
       <use transform="translate(150.275122 0)scale(0.996264)" xlink:href="#CMR17-48"/>
      </g>
     </g>
    </g>
    <g id="ytick_4">
     <g id="line2d_15">
      <path clip-path="url(#p618dee76a2)" d="M 85.775409 76.749305 
L 345.475082 76.749305 
" style="fill:none;stroke:#b0b0b0;stroke-linecap:square;stroke-width:0.8;"/>
     </g>
     <g id="line2d_16">
      <g>
       <use style="stroke:#000000;stroke-width:0.8;" x="85.775409" xlink:href="#maad8cc365c" y="76.749305"/>
      </g>
     </g>
     <g id="text_9">
      <!-- $\mathdefault{−0.5}$ -->
      <g transform="translate(43.501604 82.975955)scale(0.18 -0.18)">
       <use transform="scale(0.996264)" xlink:href="#CMSY10-0"/>
       <use transform="translate(77.487468 0)scale(0.996264)" xlink:href="#CMR17-48"/>
       <use transform="translate(123.177945 0)scale(0.996264)" xlink:href="#CMMI12-58"/>
       <use transform="translate(150.275122 0)scale(0.996264)" xlink:href="#CMR17-53"/>
      </g>
     </g>
    </g>
    <g id="ytick_5">
     <g id="line2d_17">
      <path clip-path="url(#p618dee76a2)" d="M 85.775409 27.82665 
L 345.475082 27.82665 
" style="fill:none;stroke:#b0b0b0;stroke-linecap:square;stroke-width:0.8;"/>
     </g>
     <g id="line2d_18">
      <g>
       <use style="stroke:#000000;stroke-width:0.8;" x="85.775409" xlink:href="#maad8cc365c" y="27.82665"/>
      </g>
     </g>
     <g id="text_10">
      <!-- $\mathdefault{0.0}$ -->
      <g transform="translate(57.449345 34.0533)scale(0.18 -0.18)">
       <use transform="scale(0.996264)" xlink:href="#CMR17-48"/>
       <use transform="translate(45.690477 0)scale(0.996264)" xlink:href="#CMMI12-58"/>
       <use transform="translate(72.787654 0)scale(0.996264)" xlink:href="#CMR17-48"/>
      </g>
     </g>
    </g>
    <g id="text_11">
     <!-- $\omega(z)$ -->
     <g transform="translate(35.03342 142.28909)rotate(-90)scale(0.18 -0.18)">
      <defs>
       <path d="M 59.40625 37.421875 
C 59.40625 40.3125 58.59375 44 55.09375 44 
C 53.09375 44 50.796875 41.515625 50.796875 39.515625 
C 50.796875 38.625 51.203125 38.03125 52 37.125 
C 53.5 35.4375 55.40625 32.75 55.40625 28.078125 
C 55.40625 24.484375 53.203125 18.8125 51.59375 15.734375 
C 48.796875 10.25 44.203125 5.578125 39 5.578125 
C 32.703125 5.578125 30.296875 9.609375 29.203125 15.234375 
C 30.296875 17.859375 32.59375 24.375 32.59375 27 
C 32.59375 28.09375 32.203125 29 30.90625 29 
C 30.203125 29 29.40625 28.609375 28.90625 27.796875 
C 27.5 25.59375 26.203125 17.640625 26.296875 15.53125 
C 24.40625 11.8125 19 5.578125 12.59375 5.578125 
C 5.90625 5.578125 4.09375 11.453125 4.09375 17.125 
C 4.09375 27.46875 10.59375 36.53125 12.40625 39.015625 
C 13.40625 40.515625 14.09375 41.515625 14.09375 41.703125 
C 14.09375 42.40625 13.703125 43.5 12.796875 43.5 
C 11.203125 43.5 10.703125 42.203125 9.90625 41.015625 
C 4.796875 33.140625 1.203125 22.09375 1.203125 12.546875 
C 1.203125 6.375 3.5 -1 11 -1 
C 19.296875 -1 24.5 6.109375 26.59375 9.90625 
C 27.40625 4.296875 30.40625 -1 37.703125 -1 
C 45.296875 -1 50.09375 5.671875 53.703125 13.734375 
C 56.296875 19.515625 59.40625 31.953125 59.40625 37.421875 
z
" id="CMMI12-33"/>
       <path d="M 30.59375 -24.390625 
C 30.59375 -24.296875 30.59375 -24.09375 30.296875 -23.796875 
C 25.703125 -19.125 13.40625 -6.359375 13.40625 24.703125 
C 13.40625 55.765625 25.5 68.421875 30.40625 73.390625 
C 30.40625 73.5 30.59375 73.703125 30.59375 74 
C 30.59375 74.296875 30.296875 74.5 29.90625 74.5 
C 28.796875 74.5 20.296875 67.125 15.40625 56.15625 
C 10.40625 45.109375 9 34.359375 9 24.8125 
C 9 17.625 9.703125 5.484375 15.703125 -7.359375 
C 20.5 -17.734375 28.703125 -25 29.90625 -25 
C 30.40625 -25 30.59375 -24.796875 30.59375 -24.390625 
z
" id="CMR17-40"/>
       <path d="M 26.296875 24.703125 
C 26.296875 31.875 25.59375 44.015625 19.59375 56.859375 
C 14.796875 67.234375 6.59375 74.5 5.40625 74.5 
C 5.09375 74.5 4.703125 74.390625 4.703125 73.890625 
C 4.703125 73.703125 4.796875 73.59375 4.90625 73.390625 
C 9.703125 68.40625 21.90625 55.75 21.90625 24.75 
C 21.90625 -6.359375 9.796875 -19.015625 4.90625 -24.015625 
C 4.796875 -24.203125 4.703125 -24.3125 4.703125 -24.5 
C 4.703125 -25 5.09375 -25 5.40625 -25 
C 6.5 -25 15 -17.625 19.90625 -6.65625 
C 24.90625 4.390625 26.296875 15.140625 26.296875 24.703125 
z
" id="CMR17-41"/>
      </defs>
      <use transform="scale(0.996264)" xlink:href="#CMMI12-33"/>
      <use transform="translate(64.318346 0)scale(0.996264)" xlink:href="#CMR17-40"/>
      <use transform="translate(99.599114 0)scale(0.996264)" xlink:href="#CMMI12-122"/>
      <use transform="translate(149.354259 0)scale(0.996264)" xlink:href="#CMR17-41"/>
     </g>
    </g>
   </g>
   <g id="LineCollection_1">
    <path clip-path="url(#p618dee76a2)" d="M 85.775409 125.671961 
L 345.475082 125.671961 
" style="fill:none;stroke:#0000ff;stroke-dasharray:14.8,6.4;stroke-dashoffset:0;stroke-width:4;"/>
   </g>
   <g id="patch_3">
    <path d="M 85.775409 223.517271 
L 85.775409 27.82665 
" style="fill:none;stroke:#000000;stroke-linecap:square;stroke-linejoin:miter;stroke-width:0.8;"/>
   </g>
   <g id="patch_4">
    <path d="M 345.475082 223.517271 
L 345.475082 27.82665 
" style="fill:none;stroke:#000000;stroke-linecap:square;stroke-linejoin:miter;stroke-width:0.8;"/>
   </g>
   <g id="patch_5">
    <path d="M 85.775409 223.517271 
L 345.475082 223.517271 
" style="fill:none;stroke:#000000;stroke-linecap:square;stroke-linejoin:miter;stroke-width:0.8;"/>
   </g>
   <g id="patch_6">
    <path d="M 85.775409 27.82665 
L 345.475082 27.82665 
" style="fill:none;stroke:#000000;stroke-linecap:square;stroke-linejoin:miter;stroke-width:0.8;"/>
   </g>
   <g id="text_12">
    <!-- BAO with $\beta &lt; 0$ -->
    <g transform="translate(86.641075 194.163678)scale(0.13 -0.13)">
     <defs>
      <path d="M 8.90625 69 
L 8.90625 0 
L 33.796875 0 
C 47.40625 0 57.296875 8.96875 57.296875 18.75 
C 57.296875 26.328125 50.796875 34 39.09375 36.203125 
C 52.09375 39.96875 54.703125 47.5 54.703125 51.765625 
C 54.703125 60.671875 44.90625 69 31.203125 69 
z
M 17 39 
L 17 63.421875 
L 28.5 63.421875 
C 38.796875 63.421875 46.90625 58.1875 46.90625 51.65625 
C 46.90625 45.71875 40.5 39 27.59375 39 
z
M 17 5.578125 
L 17 32.921875 
L 30.296875 32.921875 
C 41.09375 32.921875 49.40625 26.234375 49.40625 18.84375 
C 49.40625 12.0625 42.09375 5.578125 31 5.578125 
z
" id="CMSS17-66"/>
      <path d="M 35.5 69 
L 26.90625 69 
L 2.59375 0 
L 10.203125 0 
L 17.203125 20 
L 44 20 
L 51.09375 0 
L 59.796875 0 
z
M 42.09375 25.578125 
L 19.09375 25.578125 
C 23.90625 39.5 29.90625 56.84375 30.59375 61.328125 
L 30.703125 61.328125 
C 31.40625 57.234375 33.40625 51.265625 35.09375 46.1875 
z
" id="CMSS17-65"/>
      <path d="M 64 34.03125 
C 64 54.734375 50.296875 70.265625 34.59375 70.265625 
C 18.90625 70.265625 5.203125 54.640625 5.203125 34.03125 
C 5.203125 13.234375 19.09375 -2 34.59375 -2 
C 50.09375 -2 64 13.234375 64 34.03125 
z
M 34.59375 4.265625 
C 23.59375 4.265625 13.59375 16.515625 13.59375 35.328125 
C 13.59375 53.640625 24.203125 64 34.59375 64 
C 45 64 55.59375 53.640625 55.59375 35.328125 
C 55.59375 16.421875 45.5 4.265625 34.59375 4.265625 
z
" id="CMSS17-79"/>
      <path d="M 62.703125 43 
L 55.09375 43 
L 49.796875 25.015625 
C 48.703125 21.21875 45.59375 10.703125 45.203125 5.796875 
L 45.09375 5.796875 
C 44.90625 8.8125 43.203125 16 40.40625 25.515625 
L 35.296875 43 
L 28.40625 43 
L 23.40625 25.90625 
C 20.90625 17.203125 19 9.796875 18.796875 5.796875 
L 18.703125 5.796875 
C 18.296875 11.703125 14.203125 25.515625 13.59375 27.703125 
L 9.09375 43 
L 1.296875 43 
L 14.296875 0 
L 21.90625 0 
C 27.09375 17.125 31.09375 30.359375 31.40625 37.03125 
C 31.59375 33.75 33.296875 26.671875 34.296875 23.1875 
L 40.90625 0 
L 49.703125 0 
z
" id="CMSS17-119"/>
      <path d="M 15.296875 65.359375 
L 6.90625 65.359375 
L 6.90625 57 
L 15.296875 57 
z
M 14.796875 42.796875 
L 7.40625 42.796875 
L 7.40625 0 
L 14.796875 0 
z
" id="CMSS17-105"/>
      <path d="M 16.703125 37 
L 29.703125 37 
L 29.703125 42.765625 
L 16.703125 42.765625 
L 16.703125 55 
L 9.59375 55 
L 9.59375 42.765625 
L 1.703125 42.765625 
L 1.703125 37 
L 9.40625 37 
L 9.40625 11.703125 
C 9.40625 6 10.703125 -1 17.296875 -1 
C 22.296875 -1 26.90625 0.390625 31.296875 2.6875 
L 29.703125 8.5625 
C 27.296875 6.46875 24.40625 5.265625 21.296875 5.265625 
C 16.90625 5.265625 16.703125 10.875 16.703125 13.375 
z
" id="CMSS17-116"/>
      <path d="M 40.90625 29.546875 
C 40.90625 35.8125 39.40625 44.0625 28.09375 44.0625 
C 21.796875 44.0625 17.703125 40.984375 14.796875 37.609375 
L 14.796875 69.5 
L 7.40625 69.5 
L 7.40625 0.5 
L 15 0.5 
L 15 24.578125 
C 15 30.828125 17.40625 38 24.203125 38 
C 33 38 33.296875 32.125 33.296875 28.734375 
L 33.296875 0.5 
L 40.90625 0.5 
z
" id="CMSS17-104"/>
      <path d="M 56.59375 57.828125 
C 56.59375 63.765625 51.5 70 42.40625 70 
C 29.5 70 21.296875 54.328125 18.703125 44 
L 2.90625 -18.3125 
C 2.703125 -19.109375 3.296875 -19.3125 3.796875 -19.3125 
C 4.5 -19.3125 5 -19.21875 5.09375 -18.71875 
L 12.09375 9.15625 
C 13.09375 3.578125 18.59375 -1 24.5 -1 
C 38.796875 -1 52.296875 10.15625 52.296875 24.984375 
C 52.296875 28.765625 51.40625 32.546875 49.296875 35.734375 
C 48.09375 37.625 46.59375 39.015625 45 40.21875 
C 52.203125 43.984375 56.59375 50 56.59375 57.828125 
z
M 39.203125 40.3125 
C 37.59375 39.71875 36 39.515625 34.09375 39.515625 
C 32.703125 39.515625 31.40625 39.421875 29.59375 40.015625 
C 30.59375 40.71875 32.09375 40.90625 34.203125 40.90625 
C 36 40.90625 37.796875 40.71875 39.203125 40.3125 
z
M 51.40625 58.71875 
C 51.40625 53.28125 48.703125 45.359375 42.203125 41.703125 
C 40.296875 42.46875 37.703125 43 35.5 43 
C 33.40625 43 27.40625 43 27.40625 39.921875 
C 27.40625 37.328125 32.90625 37.328125 34.59375 37.328125 
C 37.203125 37.328125 39.5 38 41.90625 38.8125 
C 45.09375 36.21875 46.5 32.828125 46.5 27.859375 
C 46.5 22.078125 44.90625 17.421875 43 13.140625 
C 39.703125 5.765625 31.90625 1 25 1 
C 17.703125 1 13.90625 6.75 13.90625 13.5 
C 13.90625 14.40625 13.90625 15.703125 14.296875 17.171875 
L 20.796875 43.296875 
C 24.09375 56.296875 32.5 68.015625 42.203125 68.015625 
C 49.40625 68.015625 51.40625 63.0625 51.40625 58.71875 
z
" id="CMMI12-12"/>
      <path d="M 65.90625 48.5 
C 67.703125 49.296875 67.90625 50 67.90625 50.59375 
C 67.90625 51.703125 67.09375 52.5 66 52.5 
C 65.796875 52.5 65.703125 52.390625 64.296875 51.796875 
L 10.203125 26.859375 
C 8.40625 26.046875 8.203125 25.34375 8.203125 24.75 
C 8.203125 24.046875 8.296875 23.453125 10.203125 22.53125 
L 64.296875 -2.40625 
C 65.59375 -3 65.796875 -3 66 -3 
C 67.09375 -3 67.90625 -2.203125 67.90625 -1.09375 
C 67.90625 -0.5 67.703125 0.203125 65.90625 1 
L 14.40625 24.703125 
z
" id="CMMI12-60"/>
     </defs>
     <use transform="scale(0.996264)" xlink:href="#CMSS17-66"/>
     <use transform="translate(62.33804 0)scale(0.996264)" xlink:href="#CMSS17-65"/>
     <use transform="translate(121.953441 0)scale(0.996264)" xlink:href="#CMSS17-79"/>
     <use transform="translate(222.206809 0)scale(0.996264)" xlink:href="#CMSS17-119"/>
     <use transform="translate(286.026354 0)scale(0.996264)" xlink:href="#CMSS17-105"/>
     <use transform="translate(308.207077 0)scale(0.996264)" xlink:href="#CMSS17-116"/>
     <use transform="translate(342.038644 0)scale(0.996264)" xlink:href="#CMSS17-104"/>
     <use transform="translate(421.4727 0)scale(0.996264)" xlink:href="#CMMI12-12"/>
     <use transform="translate(509.740724 0)scale(0.996264)" xlink:href="#CMMI12-60"/>
     <use transform="translate(613.286829 0)scale(0.996264)" xlink:href="#CMR17-48"/>
    </g>
   </g>
  </g>
  <g id="axes_2">
   <g id="patch_7">
    <path clip-path="url(#p8105682fcf)" d="M 361.706311 223.517271 
L 361.706311 184.379147 
L 361.706311 66.964774 
L 361.706311 27.82665 
L 371.490842 27.82665 
L 371.490842 66.964774 
L 371.490842 184.379147 
L 371.490842 223.517271 
z
" style="fill:#ffffff;stroke:#ffffff;stroke-linejoin:miter;stroke-width:0.01;"/>
   </g>
   <g id="QuadMesh_1">
    <path clip-path="url(#p8105682fcf)" d="M 361.706311 223.517271 
L 371.490842 223.517271 
L 371.490842 184.379147 
L 361.706311 184.379147 
L 361.706311 223.517271 
" style="fill:#006428;"/>
    <path clip-path="url(#p8105682fcf)" d="M 361.706311 184.379147 
L 371.490842 184.379147 
L 371.490842 145.241023 
L 361.706311 145.241023 
L 361.706311 184.379147 
" style="fill:#2f974e;"/>
    <path clip-path="url(#p8105682fcf)" d="M 361.706311 145.241023 
L 371.490842 145.241023 
L 371.490842 106.102899 
L 361.706311 106.102899 
L 361.706311 145.241023 
" style="fill:#75c477;"/>
    <path clip-path="url(#p8105682fcf)" d="M 361.706311 106.102899 
L 371.490842 106.102899 
L 371.490842 66.964774 
L 361.706311 66.964774 
L 361.706311 106.102899 
" style="fill:#b8e3b2;"/>
    <path clip-path="url(#p8105682fcf)" d="M 361.706311 66.964774 
L 371.490842 66.964774 
L 371.490842 27.82665 
L 361.706311 27.82665 
L 361.706311 66.964774 
" style="fill:#e9f7e5;"/>
   </g>
   <g id="matplotlib.axis_3"/>
   <g id="matplotlib.axis_4">
    <g id="ytick_6">
     <g id="line2d_19">
      <defs>
       <path d="M 0 0 
L 3.5 0 
" id="m247f93ee12" style="stroke:#000000;stroke-width:0.8;"/>
      </defs>
      <g>
       <use style="stroke:#000000;stroke-width:0.8;" x="371.490842" xlink:href="#m247f93ee12" y="223.517271"/>
      </g>
     </g>
    </g>
    <g id="ytick_7">
     <g id="line2d_20">
      <g>
       <use style="stroke:#000000;stroke-width:0.8;" x="371.490842" xlink:href="#m247f93ee12" y="145.241023"/>
      </g>
     </g>
     <g id="text_13">
      <!-- $1\sigma$ -->
      <g transform="translate(378.490842 151.467673)scale(0.18 -0.18)">
       <defs>
        <path d="M 50.796875 37.625 
C 52.09375 37.625 55.40625 37.625 55.40625 40.8125 
C 55.40625 43 53.5 43 51.703125 43 
L 29.59375 43 
C 14.59375 43 3.796875 26.34375 3.796875 14.5625 
C 3.796875 6.09375 9.296875 -1 18.296875 -1 
C 30.09375 -1 43 11.671875 43 26.640625 
C 43 30.53125 42.09375 34.3125 39.703125 37.625 
z
M 18.40625 1 
C 13.296875 1 9.59375 4.890625 9.59375 11.78125 
C 9.59375 17.765625 13.203125 37.625 27.90625 37.625 
C 32.203125 37.625 37 35.53125 37 27.828125 
C 37 24.34375 35.40625 15.953125 31.90625 10.1875 
C 28.296875 4.296875 22.90625 1 18.40625 1 
z
" id="CMMI12-27"/>
       </defs>
       <use transform="scale(0.996264)" xlink:href="#CMR17-49"/>
       <use transform="translate(45.690477 0)scale(0.996264)" xlink:href="#CMMI12-27"/>
      </g>
     </g>
    </g>
    <g id="ytick_8">
     <g id="line2d_21">
      <g>
       <use style="stroke:#000000;stroke-width:0.8;" x="371.490842" xlink:href="#m247f93ee12" y="66.964774"/>
      </g>
     </g>
     <g id="text_14">
      <!-- $2\sigma$ -->
      <g transform="translate(378.490842 73.191424)scale(0.18 -0.18)">
       <use transform="scale(0.996264)" xlink:href="#CMR17-50"/>
       <use transform="translate(45.690477 0)scale(0.996264)" xlink:href="#CMMI12-27"/>
      </g>
     </g>
    </g>
   </g>
   <g id="patch_8">
    <path d="M 361.706311 223.517271 
L 361.706311 184.379147 
L 361.706311 66.964774 
L 361.706311 27.82665 
L 371.490842 27.82665 
L 371.490842 66.964774 
L 371.490842 184.379147 
L 371.490842 223.517271 
z
" style="fill:none;stroke:#000000;stroke-linejoin:miter;stroke-width:0.8;"/>
   </g>
  </g>
 </g>
 <defs>
  <clipPath id="p618dee76a2">
   <rect height="195.690621" width="259.699673" x="85.775409" y="27.82665"/>
  </clipPath>
  <clipPath id="p8105682fcf">
   <rect height="195.690621" width="9.784531" x="361.706311" y="27.82665"/>
  </clipPath>
 </defs>
</svg>
