<?xml version="1.0" encoding="utf-8" standalone="no"?>
<!DOCTYPE svg PUBLIC "-//W3C//DTD SVG 1.1//EN"
  "http://www.w3.org/Graphics/SVG/1.1/DTD/svg11.dtd">
<!-- Created with matplotlib (https://matplotlib.org/) -->
<svg height="288pt" version="1.1" viewBox="0 0 432 288" width="432pt" xmlns="http://www.w3.org/2000/svg" xmlns:xlink="http://www.w3.org/1999/xlink">
 <metadata>
  <rdf:RDF xmlns:cc="http://creativecommons.org/ns#" xmlns:dc="http://purl.org/dc/elements/1.1/" xmlns:rdf="http://www.w3.org/1999/02/22-rdf-syntax-ns#">
   <cc:Work>
    <dc:type rdf:resource="http://purl.org/dc/dcmitype/StillImage"/>
    <dc:date>2022-03-31T15:18:48.158236</dc:date>
    <dc:format>image/svg+xml</dc:format>
    <dc:creator>
     <cc:Agent>
      <dc:title>Matplotlib v3.3.3, https://matplotlib.org/</dc:title>
     </cc:Agent>
    </dc:creator>
   </cc:Work>
  </rdf:RDF>
 </metadata>
 <defs>
  <style type="text/css">*{stroke-linecap:butt;stroke-linejoin:round;}</style>
 </defs>
 <g id="figure_1">
  <g id="patch_1">
   <path d="M 0 288 
L 432 288 
L 432 0 
L 0 0 
z
" style="fill:none;"/>
  </g>
  <g id="axes_1">
   <g id="patch_2">
    <path d="M 85.775409 223.517271 
L 345.475082 223.517271 
L 345.475082 27.82665 
L 85.775409 27.82665 
z
" style="fill:#ffffff;"/>
   </g>
   <g id="PathCollection_1">
    <path clip-path="url(#p9e4e98da72)" d="M 90.103737 170.399829 
L 90.430207 170.136751 
L 94.009625 168.102756 
L 94.432065 167.909031 
L 95.188185 166.06876 
L 95.890665 164.034765 
L 96.49871 162.00077 
L 97.066418 159.966774 
L 98.760393 158.857373 
L 99.754599 157.932779 
L 100.086552 155.898783 
L 100.34637 153.864788 
L 100.499583 151.830793 
L 100.425674 149.796797 
L 100.354399 147.762802 
L 100.290124 145.728807 
L 100.07425 143.694811 
L 99.579613 141.660816 
L 99.11923 139.62682 
L 98.760393 138.25979 
L 97.966459 139.62682 
L 96.522179 141.660816 
L 95.097283 143.694811 
L 94.432065 145.117207 
L 94.135462 145.728807 
L 93.079051 147.762802 
L 91.874515 149.796797 
L 90.414451 151.830793 
L 90.103737 152.192899 
L 88.025564 153.864788 
L 85.775409 155.546739 
L 85.775409 155.898783 
L 85.775409 157.932779 
L 85.775409 159.966774 
L 85.775409 162.00077 
L 85.775409 164.034765 
L 85.775409 166.06876 
L 85.775409 168.102756 
L 85.775409 170.136751 
L 85.775409 171.631104 
z
" style="fill:#006428;stroke:#006428;"/>
    <path clip-path="url(#p9e4e98da72)" d="M 103.088721 127.209681 
L 103.664834 125.388853 
L 104.384478 123.354857 
L 105.177335 121.320862 
L 106.02141 119.286867 
L 106.914329 117.252871 
L 107.417049 116.202581 
L 107.91266 115.218876 
L 109.11966 113.184881 
L 110.519184 111.150885 
L 111.745376 109.470989 
L 112.052756 109.11689 
L 113.897673 107.082894 
L 116.073704 105.205175 
L 116.276728 105.048899 
L 119.185829 103.014904 
L 120.402032 102.262035 
L 122.30682 100.980908 
L 124.190399 98.946913 
L 124.73036 98.257037 
L 127.650743 98.946913 
L 129.058688 99.348299 
L 130.94048 100.980908 
L 133.387016 102.992005 
L 133.425516 103.014904 
L 137.125401 105.048899 
L 137.715344 105.365221 
L 141.030083 107.082894 
L 142.043672 107.574382 
L 145.424198 109.11689 
L 146.371999 109.516347 
L 150.212305 111.150885 
L 150.700327 111.339145 
L 155.028655 113.022893 
L 155.485535 113.184881 
L 159.356983 114.542876 
L 161.560408 115.218876 
L 163.685311 115.887285 
L 168.013639 117.037318 
L 168.885256 117.252871 
L 172.341967 118.134736 
L 176.670295 119.126681 
L 177.421084 119.286867 
L 180.998622 120.018238 
L 185.32695 120.849029 
L 187.884401 121.320862 
L 189.655278 121.599487 
L 193.983606 122.266146 
L 198.311934 122.899953 
L 201.571418 123.354857 
L 202.640262 123.469884 
L 206.96859 123.939673 
L 211.296918 124.371108 
L 215.625245 124.746266 
L 219.953573 125.071294 
L 224.281901 125.380381 
L 224.393613 125.388853 
L 228.610229 125.679175 
L 232.938557 125.922381 
L 237.266885 126.106111 
L 241.595213 126.245383 
L 245.923541 126.354438 
L 250.251868 126.442716 
L 254.580196 126.515817 
L 258.908524 126.57552 
L 263.236852 126.626443 
L 267.56518 126.669958 
L 271.893508 126.706916 
L 276.221836 126.737835 
L 280.550164 126.760798 
L 284.878492 126.77471 
L 289.206819 126.74955 
L 293.535147 126.723494 
L 297.863475 126.692332 
L 302.191803 126.656927 
L 306.520131 126.617725 
L 310.848459 126.574947 
L 315.176787 126.529236 
L 319.505115 126.481368 
L 323.833442 126.431825 
L 328.16177 126.381689 
L 332.490098 126.331048 
L 336.818426 126.280474 
L 341.146754 126.231015 
L 345.475082 126.182059 
L 349.80341 126.13456 
L 349.80341 125.388853 
L 349.80341 124.466437 
L 345.475082 124.4022 
L 341.146754 124.333515 
L 336.818426 124.262322 
L 332.490098 124.18573 
L 328.16177 124.105425 
L 323.833442 124.022351 
L 319.505115 123.932901 
L 315.176787 123.839654 
L 310.848459 123.74304 
L 306.520131 123.639884 
L 302.191803 123.531677 
L 297.863475 123.419265 
L 295.480051 123.354857 
L 293.535147 123.291469 
L 289.206819 123.136198 
L 284.878492 122.965101 
L 280.550164 122.777279 
L 276.221836 122.571557 
L 271.893508 122.344659 
L 267.56518 122.101679 
L 263.236852 121.843265 
L 258.908524 121.569706 
L 255.160877 121.320862 
L 254.580196 121.28032 
L 250.251868 120.951253 
L 245.923541 120.579829 
L 241.595213 120.164377 
L 237.266885 119.709812 
L 233.455522 119.286867 
L 232.938557 119.230171 
L 228.610229 118.710259 
L 224.281901 118.111851 
L 219.953573 117.456944 
L 218.691704 117.252871 
L 215.625245 116.75109 
L 211.296918 115.948762 
L 207.600801 115.218876 
L 206.96859 115.090219 
L 202.640262 114.090791 
L 198.77101 113.184881 
L 198.311934 113.068429 
L 193.983606 111.850102 
L 191.477109 111.150885 
L 189.655278 110.582644 
L 185.32695 109.247726 
L 184.916185 109.11689 
L 180.998622 107.71135 
L 179.20587 107.082894 
L 176.670295 106.05912 
L 174.064436 105.048899 
L 172.341967 104.273277 
L 169.381742 103.014904 
L 168.013639 102.340454 
L 165.076221 100.980908 
L 163.685311 100.234384 
L 161.14656 98.946913 
L 159.356983 97.925814 
L 157.519975 96.912918 
L 155.028655 95.425363 
L 154.109077 94.878922 
L 150.836448 92.844927 
L 150.700327 92.758847 
L 147.588157 90.810931 
L 146.371999 90.038582 
L 144.372003 88.776936 
L 142.043672 87.287544 
L 141.198806 86.742941 
L 137.969002 84.708945 
L 137.715344 84.551017 
L 134.471521 82.67495 
L 133.387016 82.069042 
L 131.41149 80.640955 
L 129.058688 79.166323 
L 124.73036 79.994157 
L 124.027877 80.640955 
L 122.234262 82.67495 
L 120.668832 84.708945 
L 120.402032 85.074392 
L 118.370433 86.742941 
L 116.073704 88.28846 
L 115.506992 88.776936 
L 113.114361 90.810931 
L 111.745376 91.797752 
L 110.810782 92.844927 
L 108.686407 94.878922 
L 107.417049 96.318957 
L 107.042223 96.912918 
L 105.794071 98.946913 
L 104.270813 100.980908 
L 103.088721 102.209967 
L 102.773732 103.014904 
L 102.193651 105.048899 
L 101.769503 107.082894 
L 101.386474 109.11689 
L 101.01379 111.150885 
L 100.770007 113.184881 
L 100.755767 115.218876 
L 99.324467 117.252871 
L 98.760393 117.645754 
L 97.728692 119.286867 
L 97.500459 121.320862 
L 97.837738 123.354857 
L 98.760393 125.101895 
L 100.161152 125.388853 
z
" style="fill:#006428;stroke:#006428;"/>
   </g>
   <g id="PathCollection_2">
    <defs>
     <path d="M 90.103737 -111.497054 
L 90.354144 -111.761263 
L 92.089521 -113.795258 
L 94.432065 -115.530699 
L 94.724543 -115.829254 
L 96.001112 -117.863249 
L 96.948865 -119.897244 
L 97.771904 -121.93124 
L 98.484902 -123.965235 
L 98.760393 -124.856821 
L 99.236813 -125.99923 
L 99.982714 -128.033226 
L 101.629894 -130.067221 
L 101.903112 -132.101217 
L 102.126312 -134.135212 
L 102.305412 -136.169207 
L 102.435531 -138.203203 
L 102.61394 -140.237198 
L 102.862188 -142.271193 
L 103.088721 -143.676979 
L 103.277023 -144.305189 
L 103.895925 -146.339184 
L 104.512762 -148.37318 
L 105.126061 -150.407175 
L 105.742049 -152.44117 
L 106.373974 -154.475166 
L 107.045868 -156.509161 
L 107.417049 -157.535007 
L 107.81323 -158.543156 
L 108.680864 -160.577152 
L 109.585202 -162.611147 
L 110.482834 -164.645143 
L 111.363777 -166.679138 
L 111.745376 -167.550115 
L 112.390732 -168.713133 
L 113.640494 -170.747129 
L 115.070007 -172.781124 
L 116.073704 -174.052302 
L 117.031484 -174.815119 
L 119.673907 -176.849115 
L 120.402032 -177.427041 
L 124.73036 -178.576895 
L 129.058688 -177.283291 
L 129.839118 -176.849115 
L 133.387016 -175.01145 
L 133.75858 -174.815119 
L 137.715344 -172.804723 
L 137.767191 -172.781124 
L 142.043672 -170.920076 
L 142.483107 -170.747129 
L 146.371999 -169.25329 
L 148.001663 -168.713133 
L 150.700327 -167.847096 
L 155.028655 -166.69999 
L 155.116373 -166.679138 
L 159.356983 -165.794343 
L 163.685311 -164.933432 
L 165.352681 -164.645143 
L 168.013639 -164.251748 
L 172.341967 -163.572548 
L 176.670295 -162.994384 
L 179.73829 -162.611147 
L 180.998622 -162.455319 
L 185.32695 -161.95899 
L 189.655278 -161.574907 
L 193.983606 -161.259664 
L 198.311934 -160.967182 
L 202.640262 -160.691197 
L 204.659947 -160.577152 
L 206.96859 -160.4576 
L 211.296918 -160.280721 
L 215.625245 -160.142155 
L 219.953573 -160.031026 
L 224.281901 -159.940523 
L 228.610229 -159.86648 
L 232.938557 -159.806557 
L 237.266885 -159.759622 
L 241.595213 -159.725215 
L 245.923541 -159.703178 
L 250.251868 -159.693469 
L 254.580196 -159.696393 
L 258.908524 -159.71361 
L 263.236852 -159.741338 
L 267.56518 -159.775956 
L 271.893508 -159.812349 
L 276.221836 -159.847798 
L 280.550164 -159.884166 
L 284.878492 -159.921002 
L 289.206819 -159.958727 
L 293.535147 -159.997627 
L 297.863475 -160.038796 
L 302.191803 -160.081502 
L 306.520131 -160.12739 
L 310.848459 -160.191501 
L 315.176787 -160.254505 
L 319.505115 -160.297287 
L 323.833442 -160.336552 
L 328.16177 -160.375188 
L 332.490098 -160.414557 
L 336.818426 -160.463148 
L 341.146754 -160.495217 
L 345.475082 -160.524967 
L 349.80341 -160.554116 
L 349.80341 -160.577152 
L 349.80341 -161.86544 
L 345.475082 -161.817941 
L 341.146754 -161.768985 
L 336.818426 -161.719526 
L 332.490098 -161.668952 
L 328.16177 -161.618311 
L 323.833442 -161.568175 
L 319.505115 -161.518632 
L 315.176787 -161.470764 
L 310.848459 -161.425053 
L 306.520131 -161.382275 
L 302.191803 -161.343073 
L 297.863475 -161.307668 
L 293.535147 -161.276506 
L 289.206819 -161.25045 
L 284.878492 -161.22529 
L 280.550164 -161.239202 
L 276.221836 -161.262165 
L 271.893508 -161.293084 
L 267.56518 -161.330042 
L 263.236852 -161.373557 
L 258.908524 -161.42448 
L 254.580196 -161.484183 
L 250.251868 -161.557284 
L 245.923541 -161.645562 
L 241.595213 -161.754617 
L 237.266885 -161.893889 
L 232.938557 -162.077619 
L 228.610229 -162.320825 
L 224.393613 -162.611147 
L 224.281901 -162.619619 
L 219.953573 -162.928706 
L 215.625245 -163.253734 
L 211.296918 -163.628892 
L 206.96859 -164.060327 
L 202.640262 -164.530116 
L 201.571418 -164.645143 
L 198.311934 -165.100047 
L 193.983606 -165.733854 
L 189.655278 -166.400513 
L 187.884401 -166.679138 
L 185.32695 -167.150971 
L 180.998622 -167.981762 
L 177.421084 -168.713133 
L 176.670295 -168.873319 
L 172.341967 -169.865264 
L 168.885256 -170.747129 
L 168.013639 -170.962682 
L 163.685311 -172.112715 
L 161.560408 -172.781124 
L 159.356983 -173.457124 
L 155.485535 -174.815119 
L 155.028655 -174.977107 
L 150.700327 -176.660855 
L 150.212305 -176.849115 
L 146.371999 -178.483653 
L 145.424198 -178.88311 
L 142.043672 -180.425618 
L 141.030083 -180.917106 
L 137.715344 -182.634779 
L 137.125401 -182.951101 
L 133.425516 -184.985096 
L 133.387016 -185.007995 
L 130.94048 -187.019092 
L 129.058688 -188.651701 
L 127.650743 -189.053087 
L 124.73036 -189.742963 
L 124.190399 -189.053087 
L 122.30682 -187.019092 
L 120.402032 -185.737965 
L 119.185829 -184.985096 
L 116.276728 -182.951101 
L 116.073704 -182.794825 
L 113.897673 -180.917106 
L 112.052756 -178.88311 
L 111.745376 -178.529011 
L 110.519184 -176.849115 
L 109.11966 -174.815119 
L 107.91266 -172.781124 
L 107.417049 -171.797419 
L 106.914329 -170.747129 
L 106.02141 -168.713133 
L 105.177335 -166.679138 
L 104.384478 -164.645143 
L 103.664834 -162.611147 
L 103.088721 -160.790319 
L 100.161152 -162.611147 
L 98.760393 -162.898105 
L 97.837738 -164.645143 
L 97.500459 -166.679138 
L 97.728692 -168.713133 
L 98.760393 -170.354246 
L 99.324467 -170.747129 
L 100.755767 -172.781124 
L 100.770007 -174.815119 
L 101.01379 -176.849115 
L 101.386474 -178.88311 
L 101.769503 -180.917106 
L 102.193651 -182.951101 
L 102.773732 -184.985096 
L 103.088721 -185.790033 
L 104.270813 -187.019092 
L 105.794071 -189.053087 
L 107.042223 -191.087082 
L 107.417049 -191.681043 
L 108.686407 -193.121078 
L 110.810782 -195.155073 
L 111.745376 -196.202248 
L 113.114361 -197.189069 
L 115.506992 -199.223064 
L 116.073704 -199.71154 
L 118.370433 -201.257059 
L 120.402032 -202.925608 
L 120.668832 -203.291055 
L 122.234262 -205.32505 
L 124.027877 -207.359045 
L 124.73036 -208.005843 
L 129.058688 -208.833677 
L 131.41149 -207.359045 
L 133.387016 -205.930958 
L 134.471521 -205.32505 
L 137.715344 -203.448983 
L 137.969002 -203.291055 
L 141.198806 -201.257059 
L 142.043672 -200.712456 
L 144.372003 -199.223064 
L 146.371999 -197.961418 
L 147.588157 -197.189069 
L 150.700327 -195.241153 
L 150.836448 -195.155073 
L 154.109077 -193.121078 
L 155.028655 -192.574637 
L 157.519975 -191.087082 
L 159.356983 -190.074186 
L 161.14656 -189.053087 
L 163.685311 -187.765616 
L 165.076221 -187.019092 
L 168.013639 -185.659546 
L 169.381742 -184.985096 
L 172.341967 -183.726723 
L 174.064436 -182.951101 
L 176.670295 -181.94088 
L 179.20587 -180.917106 
L 180.998622 -180.28865 
L 184.916185 -178.88311 
L 185.32695 -178.752274 
L 189.655278 -177.417356 
L 191.477109 -176.849115 
L 193.983606 -176.149898 
L 198.311934 -174.931571 
L 198.77101 -174.815119 
L 202.640262 -173.909209 
L 206.96859 -172.909781 
L 207.600801 -172.781124 
L 211.296918 -172.051238 
L 215.625245 -171.24891 
L 218.691704 -170.747129 
L 219.953573 -170.543056 
L 224.281901 -169.888149 
L 228.610229 -169.289741 
L 232.938557 -168.769829 
L 233.455522 -168.713133 
L 237.266885 -168.290188 
L 241.595213 -167.835623 
L 245.923541 -167.420171 
L 250.251868 -167.048747 
L 254.580196 -166.71968 
L 255.160877 -166.679138 
L 258.908524 -166.430294 
L 263.236852 -166.156735 
L 267.56518 -165.898321 
L 271.893508 -165.655341 
L 276.221836 -165.428443 
L 280.550164 -165.222721 
L 284.878492 -165.034899 
L 289.206819 -164.863802 
L 293.535147 -164.708531 
L 295.480051 -164.645143 
L 297.863475 -164.580735 
L 302.191803 -164.468323 
L 306.520131 -164.360116 
L 310.848459 -164.25696 
L 315.176787 -164.160346 
L 319.505115 -164.067099 
L 323.833442 -163.977649 
L 328.16177 -163.894575 
L 332.490098 -163.81427 
L 336.818426 -163.737678 
L 341.146754 -163.666485 
L 345.475082 -163.5978 
L 349.80341 -163.533563 
L 349.80341 -164.645143 
L 349.80341 -165.282666 
L 345.475082 -165.39935 
L 341.146754 -165.517982 
L 336.818426 -165.636876 
L 332.490098 -165.760932 
L 328.16177 -165.889887 
L 323.833442 -166.024834 
L 319.505115 -166.172453 
L 315.176787 -166.332137 
L 310.848459 -166.505695 
L 306.962505 -166.679138 
L 306.520131 -166.703586 
L 302.191803 -166.946876 
L 297.863475 -167.187995 
L 293.535147 -167.427052 
L 289.206819 -167.669639 
L 284.878492 -167.917631 
L 280.550164 -168.179671 
L 276.221836 -168.465935 
L 272.878998 -168.713133 
L 271.893508 -168.802375 
L 267.56518 -169.193419 
L 263.236852 -169.578621 
L 258.908524 -169.969972 
L 254.580196 -170.382336 
L 251.063513 -170.747129 
L 250.251868 -170.848903 
L 245.923541 -171.397779 
L 241.595213 -171.949617 
L 237.266885 -172.515569 
L 235.343536 -172.781124 
L 232.938557 -173.17622 
L 228.610229 -173.896721 
L 224.281901 -174.626667 
L 223.224629 -174.815119 
L 219.953573 -175.490251 
L 215.625245 -176.395402 
L 213.533188 -176.849115 
L 211.296918 -177.39683 
L 206.96859 -178.488588 
L 205.44754 -178.88311 
L 202.640262 -179.684738 
L 198.515797 -180.917106 
L 198.311934 -180.981954 
L 193.983606 -182.410649 
L 192.41747 -182.951101 
L 189.655278 -183.958332 
L 186.988898 -184.985096 
L 185.32695 -185.650617 
L 182.092716 -187.019092 
L 180.998622 -187.497519 
L 177.643666 -189.053087 
L 176.670295 -189.518857 
L 173.549696 -191.087082 
L 172.341967 -191.71305 
L 169.713528 -193.121078 
L 168.013639 -194.048799 
L 166.128319 -195.155073 
L 163.685311 -196.592834 
L 162.74876 -197.189069 
L 159.555112 -199.223064 
L 159.356983 -199.354017 
L 156.54989 -201.257059 
L 155.028655 -202.292356 
L 153.600924 -203.291055 
L 150.766666 -205.32505 
L 150.700327 -205.374036 
L 148.057832 -207.359045 
L 146.371999 -208.644047 
L 145.341985 -209.393041 
L 142.61307 -211.427036 
L 142.043672 -211.843046 
L 139.472037 -213.461032 
L 137.715344 -214.544647 
L 135.711637 -215.495027 
L 133.387016 -216.53775 
L 129.058688 -216.850088 
L 126.195739 -215.495027 
L 124.73036 -214.958229 
L 122.24793 -213.461032 
L 120.402032 -212.229598 
L 119.389277 -211.427036 
L 116.847041 -209.393041 
L 116.073704 -208.699879 
L 114.943061 -207.359045 
L 112.918075 -205.32505 
L 111.745376 -204.42196 
L 110.567686 -203.291055 
L 108.736559 -201.257059 
L 107.417049 -199.736125 
L 107.200021 -199.223064 
L 106.343579 -197.189069 
L 104.649329 -195.155073 
L 103.115578 -193.121078 
L 103.088721 -193.07923 
L 102.257328 -191.087082 
L 101.478019 -189.053087 
L 100.798877 -187.019092 
L 100.220447 -184.985096 
L 99.780399 -182.951101 
L 99.40694 -180.917106 
L 99.048529 -178.88311 
L 98.760393 -177.244442 
L 98.562231 -176.849115 
L 97.619561 -174.815119 
L 96.826064 -172.781124 
L 95.564487 -170.747129 
L 95.041846 -168.713133 
L 94.790701 -166.679138 
L 94.557677 -164.645143 
L 94.432065 -163.807643 
L 93.917323 -162.611147 
L 93.044167 -160.577152 
L 92.159578 -158.543156 
L 91.264773 -156.509161 
L 90.377208 -154.475166 
L 90.103737 -153.833041 
L 89.350218 -152.44117 
L 88.201279 -150.407175 
L 86.919202 -148.37318 
L 85.775409 -146.787776 
L 85.775409 -146.339184 
L 85.775409 -144.305189 
L 85.775409 -142.271193 
L 85.775409 -140.237198 
L 85.775409 -138.203203 
L 85.775409 -136.169207 
L 85.775409 -134.135212 
L 85.775409 -132.453261 
L 88.025564 -134.135212 
L 90.103737 -135.807101 
L 90.414451 -136.169207 
L 91.874515 -138.203203 
L 93.079051 -140.237198 
L 94.135462 -142.271193 
L 94.432065 -142.882793 
L 95.097283 -144.305189 
L 96.522179 -146.339184 
L 97.966459 -148.37318 
L 98.760393 -149.74021 
L 99.11923 -148.37318 
L 99.579613 -146.339184 
L 100.07425 -144.305189 
L 100.290124 -142.271193 
L 100.354399 -140.237198 
L 100.425674 -138.203203 
L 100.499583 -136.169207 
L 100.34637 -134.135212 
L 100.086552 -132.101217 
L 99.754599 -130.067221 
L 98.760393 -129.142627 
L 97.066418 -128.033226 
L 96.49871 -125.99923 
L 95.890665 -123.965235 
L 95.188185 -121.93124 
L 94.432065 -120.090969 
L 94.009625 -119.897244 
L 90.430207 -117.863249 
L 90.103737 -117.600171 
L 85.775409 -116.368896 
L 85.775409 -115.829254 
L 85.775409 -113.795258 
L 85.775409 -111.761263 
L 85.775409 -109.958379 
z
" id="mc2aec8a35b" style="stroke:#2f974e;"/>
    </defs>
    <g clip-path="url(#p9e4e98da72)">
     <use style="fill:#2f974e;stroke:#2f974e;" x="0" xlink:href="#mc2aec8a35b" y="288"/>
    </g>
   </g>
   <g id="PathCollection_3">
    <path clip-path="url(#p9e4e98da72)" d="M 87.52234 182.340723 
L 90.103737 180.774746 
L 90.510834 180.306728 
L 92.686001 178.272733 
L 94.275525 176.238737 
L 94.432065 176.060225 
L 95.999095 174.204742 
L 97.630395 172.170746 
L 98.652324 170.136751 
L 98.760393 169.895145 
L 99.879156 168.102756 
L 101.020181 166.06876 
L 101.970774 164.034765 
L 102.738158 162.00077 
L 103.088721 160.840368 
L 103.38038 159.966774 
L 103.983256 157.932779 
L 104.549719 155.898783 
L 105.106436 153.864788 
L 105.673226 151.830793 
L 106.256414 149.796797 
L 106.851142 147.762802 
L 107.417049 145.846917 
L 107.448981 145.728807 
L 108.031106 143.694811 
L 108.672163 141.660816 
L 109.353525 139.62682 
L 110.059376 137.592825 
L 110.799146 135.55883 
L 111.598462 133.524834 
L 111.745376 133.174055 
L 112.594184 131.490839 
L 113.69777 129.456844 
L 114.846382 127.422848 
L 116.044245 125.388853 
L 116.073704 125.340167 
L 118.150573 123.354857 
L 120.340783 121.320862 
L 120.402032 121.262756 
L 124.73036 120.490438 
L 129.058688 120.673434 
L 130.420025 121.320862 
L 133.387016 122.600765 
L 134.927563 123.354857 
L 137.715344 124.49131 
L 140.662498 125.388853 
L 142.043672 125.807375 
L 146.371999 126.720685 
L 150.696833 127.422848 
L 150.700327 127.423426 
L 155.028655 128.03053 
L 159.356983 128.570453 
L 163.685311 129.029013 
L 168.013639 129.351865 
L 169.380032 129.456844 
L 172.341967 129.647689 
L 176.670295 129.956954 
L 180.998622 130.148069 
L 185.32695 130.29304 
L 189.655278 130.413407 
L 193.983606 130.51419 
L 198.311934 130.599502 
L 202.640262 130.669531 
L 206.96859 130.720601 
L 211.296918 130.748654 
L 215.625245 130.749626 
L 219.953573 130.719473 
L 224.281901 130.657254 
L 228.610229 130.57324 
L 232.938557 130.486482 
L 237.266885 130.406721 
L 241.595213 130.33265 
L 245.923541 130.257288 
L 250.251868 130.171626 
L 254.580196 130.067826 
L 258.908524 129.950462 
L 263.236852 129.833067 
L 267.56518 129.717966 
L 271.893508 129.610302 
L 276.221836 129.513319 
L 278.953656 129.456844 
L 280.550164 129.416432 
L 284.878492 129.311622 
L 289.206819 129.212439 
L 293.535147 129.117201 
L 297.863475 129.024918 
L 302.191803 128.933906 
L 306.520131 128.83698 
L 310.848459 128.684181 
L 315.176787 128.532874 
L 319.505115 128.447271 
L 323.833442 128.374148 
L 328.16177 128.304285 
L 332.490098 128.227859 
L 336.818426 128.090586 
L 341.146754 128.031551 
L 345.475082 127.984555 
L 349.80341 127.943635 
L 349.80341 127.445884 
L 345.475082 127.475033 
L 341.146754 127.504783 
L 336.818426 127.536852 
L 332.490098 127.585443 
L 328.16177 127.624812 
L 323.833442 127.663448 
L 319.505115 127.702713 
L 315.176787 127.745495 
L 310.848459 127.808499 
L 306.520131 127.87261 
L 302.191803 127.918498 
L 297.863475 127.961204 
L 293.535147 128.002373 
L 289.206819 128.041273 
L 284.878492 128.078998 
L 280.550164 128.115834 
L 276.221836 128.152202 
L 271.893508 128.187651 
L 267.56518 128.224044 
L 263.236852 128.258662 
L 258.908524 128.28639 
L 254.580196 128.303607 
L 250.251868 128.306531 
L 245.923541 128.296822 
L 241.595213 128.274785 
L 237.266885 128.240378 
L 232.938557 128.193443 
L 228.610229 128.13352 
L 224.281901 128.059477 
L 219.953573 127.968974 
L 215.625245 127.857845 
L 211.296918 127.719279 
L 206.96859 127.5424 
L 204.659947 127.422848 
L 202.640262 127.308803 
L 198.311934 127.032818 
L 193.983606 126.740336 
L 189.655278 126.425093 
L 185.32695 126.04101 
L 180.998622 125.544681 
L 179.73829 125.388853 
L 176.670295 125.005616 
L 172.341967 124.427452 
L 168.013639 123.748252 
L 165.352681 123.354857 
L 163.685311 123.066568 
L 159.356983 122.205657 
L 155.116373 121.320862 
L 155.028655 121.30001 
L 150.700327 120.152904 
L 148.001663 119.286867 
L 146.371999 118.74671 
L 142.483107 117.252871 
L 142.043672 117.079924 
L 137.767191 115.218876 
L 137.715344 115.195277 
L 133.75858 113.184881 
L 133.387016 112.98855 
L 129.839118 111.150885 
L 129.058688 110.716709 
L 124.73036 109.423105 
L 120.402032 110.572959 
L 119.673907 111.150885 
L 117.031484 113.184881 
L 116.073704 113.947698 
L 115.070007 115.218876 
L 113.640494 117.252871 
L 112.390732 119.286867 
L 111.745376 120.449885 
L 111.363777 121.320862 
L 110.482834 123.354857 
L 109.585202 125.388853 
L 108.680864 127.422848 
L 107.81323 129.456844 
L 107.417049 130.464993 
L 107.045868 131.490839 
L 106.373974 133.524834 
L 105.742049 135.55883 
L 105.126061 137.592825 
L 104.512762 139.62682 
L 103.895925 141.660816 
L 103.277023 143.694811 
L 103.088721 144.323021 
L 102.862188 145.728807 
L 102.61394 147.762802 
L 102.435531 149.796797 
L 102.305412 151.830793 
L 102.126312 153.864788 
L 101.903112 155.898783 
L 101.629894 157.932779 
L 99.982714 159.966774 
L 99.236813 162.00077 
L 98.760393 163.143179 
L 98.484902 164.034765 
L 97.771904 166.06876 
L 96.948865 168.102756 
L 96.001112 170.136751 
L 94.724543 172.170746 
L 94.432065 172.469301 
L 92.089521 174.204742 
L 90.354144 176.238737 
L 90.103737 176.502946 
L 85.775409 178.041621 
L 85.775409 178.272733 
L 85.775409 180.306728 
L 85.775409 182.340723 
L 85.775409 183.769654 
z
" style="fill:#75c477;stroke:#75c477;"/>
    <path clip-path="url(#p9e4e98da72)" d="M 86.919202 139.62682 
L 88.201279 137.592825 
L 89.350218 135.55883 
L 90.103737 134.166959 
L 90.377208 133.524834 
L 91.264773 131.490839 
L 92.159578 129.456844 
L 93.044167 127.422848 
L 93.917323 125.388853 
L 94.432065 124.192357 
L 94.557677 123.354857 
L 94.790701 121.320862 
L 95.041846 119.286867 
L 95.564487 117.252871 
L 96.826064 115.218876 
L 97.619561 113.184881 
L 98.562231 111.150885 
L 98.760393 110.755558 
L 99.048529 109.11689 
L 99.40694 107.082894 
L 99.780399 105.048899 
L 100.220447 103.014904 
L 100.798877 100.980908 
L 101.478019 98.946913 
L 102.257328 96.912918 
L 103.088721 94.92077 
L 103.115578 94.878922 
L 104.649329 92.844927 
L 106.343579 90.810931 
L 107.200021 88.776936 
L 107.417049 88.263875 
L 108.736559 86.742941 
L 110.567686 84.708945 
L 111.745376 83.57804 
L 112.918075 82.67495 
L 114.943061 80.640955 
L 116.073704 79.300121 
L 116.847041 78.606959 
L 119.389277 76.572964 
L 120.402032 75.770402 
L 122.24793 74.538968 
L 124.73036 73.041771 
L 126.195739 72.504973 
L 129.058688 71.149912 
L 133.387016 71.46225 
L 135.711637 72.504973 
L 137.715344 73.455353 
L 139.472037 74.538968 
L 142.043672 76.156954 
L 142.61307 76.572964 
L 145.341985 78.606959 
L 146.371999 79.355953 
L 148.057832 80.640955 
L 150.700327 82.625964 
L 150.766666 82.67495 
L 153.600924 84.708945 
L 155.028655 85.707644 
L 156.54989 86.742941 
L 159.356983 88.645983 
L 159.555112 88.776936 
L 162.74876 90.810931 
L 163.685311 91.407166 
L 166.128319 92.844927 
L 168.013639 93.951201 
L 169.713528 94.878922 
L 172.341967 96.28695 
L 173.549696 96.912918 
L 176.670295 98.481143 
L 177.643666 98.946913 
L 180.998622 100.502481 
L 182.092716 100.980908 
L 185.32695 102.349383 
L 186.988898 103.014904 
L 189.655278 104.041668 
L 192.41747 105.048899 
L 193.983606 105.589351 
L 198.311934 107.018046 
L 198.515797 107.082894 
L 202.640262 108.315262 
L 205.44754 109.11689 
L 206.96859 109.511412 
L 211.296918 110.60317 
L 213.533188 111.150885 
L 215.625245 111.604598 
L 219.953573 112.509749 
L 223.224629 113.184881 
L 224.281901 113.373333 
L 228.610229 114.103279 
L 232.938557 114.82378 
L 235.343536 115.218876 
L 237.266885 115.484431 
L 241.595213 116.050383 
L 245.923541 116.602221 
L 250.251868 117.151097 
L 251.063513 117.252871 
L 254.580196 117.617664 
L 258.908524 118.030028 
L 263.236852 118.421379 
L 267.56518 118.806581 
L 271.893508 119.197625 
L 272.878998 119.286867 
L 276.221836 119.534065 
L 280.550164 119.820329 
L 284.878492 120.082369 
L 289.206819 120.330361 
L 293.535147 120.572948 
L 297.863475 120.812005 
L 302.191803 121.053124 
L 306.520131 121.296414 
L 306.962505 121.320862 
L 310.848459 121.494305 
L 315.176787 121.667863 
L 319.505115 121.827547 
L 323.833442 121.975166 
L 328.16177 122.110113 
L 332.490098 122.239068 
L 336.818426 122.363124 
L 341.146754 122.482018 
L 345.475082 122.60065 
L 349.80341 122.717334 
L 349.80341 121.320862 
L 349.80341 120.704564 
L 345.475082 120.530973 
L 341.146754 120.348236 
L 336.818426 120.155605 
L 332.490098 119.945034 
L 328.16177 119.718239 
L 323.833442 119.47837 
L 320.561029 119.286867 
L 319.505115 119.217835 
L 315.176787 118.942257 
L 310.848459 118.669596 
L 306.520131 118.385748 
L 302.191803 118.084547 
L 297.863475 117.759675 
L 293.535147 117.404886 
L 291.788206 117.252871 
L 289.206819 117.017399 
L 284.878492 116.624777 
L 280.550164 116.221031 
L 276.221836 115.786618 
L 271.893508 115.302159 
L 271.174047 115.218876 
L 267.56518 114.789295 
L 263.236852 114.261184 
L 258.908524 113.696294 
L 255.230258 113.184881 
L 254.580196 113.088873 
L 250.251868 112.431273 
L 245.923541 111.740825 
L 242.374403 111.150885 
L 241.595213 111.009033 
L 237.266885 110.192926 
L 232.938557 109.357646 
L 231.761921 109.11689 
L 228.610229 108.409425 
L 224.281901 107.422765 
L 222.877114 107.082894 
L 219.953573 106.311785 
L 215.625245 105.145598 
L 215.27791 105.048899 
L 211.296918 103.84144 
L 208.611528 103.014904 
L 206.96859 102.457716 
L 202.640262 100.986452 
L 202.624336 100.980908 
L 198.311934 99.354585 
L 197.256223 98.946913 
L 193.983606 97.58934 
L 192.405812 96.912918 
L 189.655278 95.659818 
L 188.003585 94.878922 
L 185.32695 93.543904 
L 183.971648 92.844927 
L 180.998622 91.237635 
L 180.238083 90.810931 
L 176.741165 88.776936 
L 176.670295 88.734383 
L 173.466401 86.742941 
L 172.341967 86.043424 
L 170.270118 84.708945 
L 168.013639 83.241828 
L 167.203772 82.67495 
L 164.280766 80.640955 
L 163.685311 80.229947 
L 161.570777 78.606959 
L 159.356983 76.950782 
L 158.865048 76.572964 
L 156.224188 74.538968 
L 155.028655 73.647431 
L 153.54662 72.504973 
L 150.899848 70.470978 
L 150.700327 70.319369 
L 148.177159 68.436982 
L 146.371999 67.070997 
L 145.397854 66.402987 
L 142.4951 64.368992 
L 142.043672 64.0557 
L 138.735221 62.334996 
L 137.715344 61.824975 
L 133.387016 60.747147 
L 129.058688 61.730533 
L 128.260654 62.334996 
L 125.580878 64.368992 
L 124.73036 64.953687 
L 122.843159 66.402987 
L 120.402032 68.218257 
L 120.174913 68.436982 
L 117.882972 70.470978 
L 116.073704 72.049678 
L 115.612123 72.504973 
L 113.382499 74.538968 
L 111.745376 76.143012 
L 111.489486 76.572964 
L 110.138991 78.606959 
L 108.090241 80.640955 
L 107.417049 81.258486 
L 106.506074 82.67495 
L 105.523819 84.708945 
L 104.627871 86.742941 
L 103.75388 88.776936 
L 103.088721 90.005614 
L 102.264418 90.810931 
L 100.243395 92.844927 
L 99.473118 94.878922 
L 98.87361 96.912918 
L 98.760393 97.345119 
L 97.659058 98.946913 
L 96.435579 100.980908 
L 95.316419 103.014904 
L 94.432065 104.727943 
L 94.181081 105.048899 
L 92.806579 107.082894 
L 91.686697 109.11689 
L 90.699875 111.150885 
L 90.103737 112.440172 
L 89.582641 113.184881 
L 88.291132 115.218876 
L 87.101542 117.252871 
L 85.926848 119.286867 
L 85.775409 119.545268 
L 85.775409 121.320862 
L 85.775409 123.354857 
L 85.775409 125.388853 
L 85.775409 127.422848 
L 85.775409 129.456844 
L 85.775409 131.490839 
L 85.775409 133.524834 
L 85.775409 135.55883 
L 85.775409 137.592825 
L 85.775409 139.62682 
L 85.775409 141.212224 
z
" style="fill:#75c477;stroke:#75c477;"/>
   </g>
   <g id="PathCollection_4">
    <path clip-path="url(#p9e4e98da72)" d="M 88.198946 186.408714 
L 90.103737 184.92801 
L 90.793578 184.374719 
L 93.106411 182.340723 
L 94.432065 180.906348 
L 94.976161 180.306728 
L 96.892816 178.272733 
L 98.422335 176.238737 
L 98.760393 175.766284 
L 99.685803 174.204742 
L 100.957759 172.170746 
L 102.296702 170.136751 
L 103.088721 168.878524 
L 103.554669 168.102756 
L 104.629848 166.06876 
L 105.583342 164.034765 
L 106.448286 162.00077 
L 107.249785 159.966774 
L 107.417049 159.505808 
L 108.034595 157.932779 
L 108.712845 155.898783 
L 109.312301 153.864788 
L 109.881173 151.830793 
L 110.46414 149.796797 
L 111.098795 147.762802 
L 111.745376 145.903735 
L 111.810496 145.728807 
L 112.560442 143.694811 
L 113.294352 141.660816 
L 114.067718 139.62682 
L 114.985903 137.592825 
L 116.073704 135.724472 
L 116.216623 135.55883 
L 117.91558 133.524834 
L 119.685248 131.490839 
L 120.402032 130.746014 
L 124.73036 130.469747 
L 129.058688 131.001801 
L 132.01985 131.490839 
L 133.387016 131.677785 
L 137.715344 132.593175 
L 142.043672 133.455526 
L 142.953328 133.524834 
L 146.371999 133.791512 
L 150.700327 133.884371 
L 155.028655 134.089176 
L 159.356983 134.321781 
L 163.685311 134.295582 
L 168.013639 134.281489 
L 172.341967 134.255763 
L 176.670295 134.274022 
L 180.998622 134.223736 
L 185.32695 134.188862 
L 189.655278 134.155149 
L 193.983606 134.073752 
L 198.311934 133.939273 
L 202.640262 133.776631 
L 206.96859 133.6039 
L 209.262457 133.524834 
L 211.296918 133.455916 
L 215.625245 133.306985 
L 219.953573 133.147001 
L 224.281901 132.963014 
L 228.610229 132.729252 
L 232.938557 132.466371 
L 237.266885 132.247278 
L 241.595213 132.051963 
L 245.923541 131.88282 
L 250.251868 131.730907 
L 254.580196 131.561 
L 256.103521 131.490839 
L 258.908524 131.33985 
L 263.236852 131.119352 
L 267.56518 130.918927 
L 271.893508 130.738228 
L 276.221836 130.575561 
L 280.550164 130.389856 
L 284.878492 130.201404 
L 289.206819 130.08639 
L 293.535147 129.991816 
L 297.863475 129.906015 
L 302.191803 129.821182 
L 306.520131 129.703952 
L 310.848459 129.530433 
L 312.597586 129.456844 
L 315.176787 129.320252 
L 319.505115 129.19183 
L 323.833442 129.084849 
L 328.16177 128.983758 
L 332.490098 128.870274 
L 336.818426 128.64432 
L 341.146754 128.558319 
L 345.475082 128.494078 
L 349.80341 128.441385 
L 349.80341 127.943635 
L 345.475082 127.984555 
L 341.146754 128.031551 
L 336.818426 128.090586 
L 332.490098 128.227859 
L 328.16177 128.304285 
L 323.833442 128.374148 
L 319.505115 128.447271 
L 315.176787 128.532874 
L 310.848459 128.684181 
L 306.520131 128.83698 
L 302.191803 128.933906 
L 297.863475 129.024918 
L 293.535147 129.117201 
L 289.206819 129.212439 
L 284.878492 129.311622 
L 280.550164 129.416432 
L 278.953656 129.456844 
L 276.221836 129.513319 
L 271.893508 129.610302 
L 267.56518 129.717966 
L 263.236852 129.833067 
L 258.908524 129.950462 
L 254.580196 130.067826 
L 250.251868 130.171626 
L 245.923541 130.257288 
L 241.595213 130.33265 
L 237.266885 130.406721 
L 232.938557 130.486482 
L 228.610229 130.57324 
L 224.281901 130.657254 
L 219.953573 130.719473 
L 215.625245 130.749626 
L 211.296918 130.748654 
L 206.96859 130.720601 
L 202.640262 130.669531 
L 198.311934 130.599502 
L 193.983606 130.51419 
L 189.655278 130.413407 
L 185.32695 130.29304 
L 180.998622 130.148069 
L 176.670295 129.956954 
L 172.341967 129.647689 
L 169.380032 129.456844 
L 168.013639 129.351865 
L 163.685311 129.029013 
L 159.356983 128.570453 
L 155.028655 128.03053 
L 150.700327 127.423426 
L 150.696833 127.422848 
L 146.371999 126.720685 
L 142.043672 125.807375 
L 140.662498 125.388853 
L 137.715344 124.49131 
L 134.927563 123.354857 
L 133.387016 122.600765 
L 130.420025 121.320862 
L 129.058688 120.673434 
L 124.73036 120.490438 
L 120.402032 121.262756 
L 120.340783 121.320862 
L 118.150573 123.354857 
L 116.073704 125.340167 
L 116.044245 125.388853 
L 114.846382 127.422848 
L 113.69777 129.456844 
L 112.594184 131.490839 
L 111.745376 133.174055 
L 111.598462 133.524834 
L 110.799146 135.55883 
L 110.059376 137.592825 
L 109.353525 139.62682 
L 108.672163 141.660816 
L 108.031106 143.694811 
L 107.448981 145.728807 
L 107.417049 145.846917 
L 106.851142 147.762802 
L 106.256414 149.796797 
L 105.673226 151.830793 
L 105.106436 153.864788 
L 104.549719 155.898783 
L 103.983256 157.932779 
L 103.38038 159.966774 
L 103.088721 160.840368 
L 102.738158 162.00077 
L 101.970774 164.034765 
L 101.020181 166.06876 
L 99.879156 168.102756 
L 98.760393 169.895145 
L 98.652324 170.136751 
L 97.630395 172.170746 
L 95.999095 174.204742 
L 94.432065 176.060225 
L 94.275525 176.238737 
L 92.686001 178.272733 
L 90.510834 180.306728 
L 90.103737 180.774746 
L 87.52234 182.340723 
L 85.775409 183.769654 
L 85.775409 184.374719 
L 85.775409 186.408714 
L 85.775409 188.137818 
z
" style="fill:#b8e3b2;stroke:#b8e3b2;"/>
    <path clip-path="url(#p9e4e98da72)" d="M 85.926848 119.286867 
L 87.101542 117.252871 
L 88.291132 115.218876 
L 89.582641 113.184881 
L 90.103737 112.440172 
L 90.699875 111.150885 
L 91.686697 109.11689 
L 92.806579 107.082894 
L 94.181081 105.048899 
L 94.432065 104.727943 
L 95.316419 103.014904 
L 96.435579 100.980908 
L 97.659058 98.946913 
L 98.760393 97.345119 
L 98.87361 96.912918 
L 99.473118 94.878922 
L 100.243395 92.844927 
L 102.264418 90.810931 
L 103.088721 90.005614 
L 103.75388 88.776936 
L 104.627871 86.742941 
L 105.523819 84.708945 
L 106.506074 82.67495 
L 107.417049 81.258486 
L 108.090241 80.640955 
L 110.138991 78.606959 
L 111.489486 76.572964 
L 111.745376 76.143012 
L 113.382499 74.538968 
L 115.612123 72.504973 
L 116.073704 72.049678 
L 117.882972 70.470978 
L 120.174913 68.436982 
L 120.402032 68.218257 
L 122.843159 66.402987 
L 124.73036 64.953687 
L 125.580878 64.368992 
L 128.260654 62.334996 
L 129.058688 61.730533 
L 133.387016 60.747147 
L 137.715344 61.824975 
L 138.735221 62.334996 
L 142.043672 64.0557 
L 142.4951 64.368992 
L 145.397854 66.402987 
L 146.371999 67.070997 
L 148.177159 68.436982 
L 150.700327 70.319369 
L 150.899848 70.470978 
L 153.54662 72.504973 
L 155.028655 73.647431 
L 156.224188 74.538968 
L 158.865048 76.572964 
L 159.356983 76.950782 
L 161.570777 78.606959 
L 163.685311 80.229947 
L 164.280766 80.640955 
L 167.203772 82.67495 
L 168.013639 83.241828 
L 170.270118 84.708945 
L 172.341967 86.043424 
L 173.466401 86.742941 
L 176.670295 88.734383 
L 176.741165 88.776936 
L 180.238083 90.810931 
L 180.998622 91.237635 
L 183.971648 92.844927 
L 185.32695 93.543904 
L 188.003585 94.878922 
L 189.655278 95.659818 
L 192.405812 96.912918 
L 193.983606 97.58934 
L 197.256223 98.946913 
L 198.311934 99.354585 
L 202.624336 100.980908 
L 202.640262 100.986452 
L 206.96859 102.457716 
L 208.611528 103.014904 
L 211.296918 103.84144 
L 215.27791 105.048899 
L 215.625245 105.145598 
L 219.953573 106.311785 
L 222.877114 107.082894 
L 224.281901 107.422765 
L 228.610229 108.409425 
L 231.761921 109.11689 
L 232.938557 109.357646 
L 237.266885 110.192926 
L 241.595213 111.009033 
L 242.374403 111.150885 
L 245.923541 111.740825 
L 250.251868 112.431273 
L 254.580196 113.088873 
L 255.230258 113.184881 
L 258.908524 113.696294 
L 263.236852 114.261184 
L 267.56518 114.789295 
L 271.174047 115.218876 
L 271.893508 115.302159 
L 276.221836 115.786618 
L 280.550164 116.221031 
L 284.878492 116.624777 
L 289.206819 117.017399 
L 291.788206 117.252871 
L 293.535147 117.404886 
L 297.863475 117.759675 
L 302.191803 118.084547 
L 306.520131 118.385748 
L 310.848459 118.669596 
L 315.176787 118.942257 
L 319.505115 119.217835 
L 320.561029 119.286867 
L 323.833442 119.47837 
L 328.16177 119.718239 
L 332.490098 119.945034 
L 336.818426 120.155605 
L 341.146754 120.348236 
L 345.475082 120.530973 
L 349.80341 120.704564 
L 349.80341 119.286867 
L 349.80341 118.293289 
L 345.475082 117.999541 
L 341.146754 117.67092 
L 336.818426 117.339064 
L 335.619198 117.252871 
L 332.490098 117.051139 
L 328.16177 116.772518 
L 323.833442 116.461752 
L 319.505115 116.088015 
L 315.176787 115.663825 
L 310.848459 115.230851 
L 310.719948 115.218876 
L 306.520131 114.86531 
L 302.191803 114.460504 
L 297.863475 113.986162 
L 293.535147 113.456649 
L 291.290104 113.184881 
L 289.206819 112.955719 
L 284.878492 112.45392 
L 280.550164 111.872569 
L 276.221836 111.238602 
L 275.60646 111.150885 
L 271.893508 110.639613 
L 267.56518 109.970158 
L 263.236852 109.236689 
L 262.521083 109.11689 
L 258.908524 108.512036 
L 254.580196 107.713162 
L 251.348792 107.082894 
L 250.251868 106.865643 
L 245.923541 105.963044 
L 241.783174 105.048899 
L 241.595213 105.005561 
L 237.266885 103.961342 
L 233.532755 103.014904 
L 232.938557 102.855774 
L 228.610229 101.657557 
L 226.308045 100.980908 
L 224.281901 100.357596 
L 219.953573 98.992619 
L 219.817111 98.946913 
L 215.625245 97.503774 
L 213.979549 96.912918 
L 211.296918 95.903762 
L 208.63455 94.878922 
L 206.96859 94.1997 
L 203.693358 92.844927 
L 202.640262 92.38395 
L 199.138488 90.810931 
L 198.311934 90.426212 
L 195.001009 88.776936 
L 193.983606 88.271004 
L 191.238545 86.742941 
L 189.655278 85.877658 
L 187.713465 84.708945 
L 185.32695 83.232495 
L 184.426886 82.67495 
L 181.470917 80.640955 
L 180.998622 80.313692 
L 178.513295 78.606959 
L 176.670295 77.168688 
L 175.793591 76.572964 
L 173.030363 74.538968 
L 172.341967 73.981811 
L 170.469253 72.504973 
L 168.098809 70.470978 
L 168.013639 70.392053 
L 165.74638 68.436982 
L 163.685311 66.52159 
L 163.552226 66.402987 
L 161.386184 64.368992 
L 159.423424 62.334996 
L 159.356983 62.266226 
L 157.185413 60.301001 
L 155.274531 58.267005 
L 155.028655 58.00013 
L 152.903015 56.23301 
L 150.858229 54.199015 
L 150.700327 54.035515 
L 148.011395 52.165019 
L 146.371999 50.801012 
L 145.073073 50.131024 
L 142.043672 48.570716 
L 138.080244 48.097029 
L 137.715344 48.0599 
L 137.539568 48.097029 
L 133.387016 48.878857 
L 131.658203 50.131024 
L 129.058688 51.816913 
L 128.399898 52.165019 
L 124.750004 54.199015 
L 124.73036 54.211349 
L 123.30413 56.23301 
L 121.445016 58.267005 
L 120.402032 59.213553 
L 119.455953 60.301001 
L 117.549605 62.334996 
L 116.073704 63.961448 
L 115.906886 64.368992 
L 114.582897 66.402987 
L 112.773277 68.436982 
L 111.745376 69.490124 
L 111.150351 70.470978 
L 109.868307 72.504973 
L 108.566327 74.538968 
L 107.417049 76.178629 
L 106.96549 76.572964 
L 104.959142 78.606959 
L 103.635779 80.640955 
L 103.088721 81.823051 
L 101.851903 82.67495 
L 99.481742 84.708945 
L 98.760393 85.453784 
L 96.078094 86.742941 
L 94.432065 87.831057 
L 92.124576 88.776936 
L 90.103737 89.838751 
L 88.266157 90.810931 
L 85.775409 92.354269 
L 85.775409 92.844927 
L 85.775409 94.878922 
L 85.775409 96.912918 
L 85.775409 98.946913 
L 85.775409 100.980908 
L 85.775409 103.014904 
L 85.775409 105.048899 
L 85.775409 107.082894 
L 85.775409 109.11689 
L 85.775409 111.150885 
L 85.775409 113.184881 
L 85.775409 115.218876 
L 85.775409 117.252871 
L 85.775409 119.286867 
L 85.775409 119.545268 
z
" style="fill:#b8e3b2;stroke:#b8e3b2;"/>
   </g>
   <g id="PathCollection_5">
    <path clip-path="url(#p9e4e98da72)" d="M 86.661084 192.5107 
L 89.13039 190.476705 
L 90.103737 189.772484 
L 91.542621 188.442709 
L 93.736339 186.408714 
L 94.432065 185.816082 
L 95.656368 184.374719 
L 97.354198 182.340723 
L 98.760393 180.793858 
L 99.113217 180.306728 
L 100.480446 178.272733 
L 101.779663 176.238737 
L 103.088721 174.261477 
L 103.133492 174.204742 
L 104.589737 172.170746 
L 105.884063 170.136751 
L 107.072321 168.102756 
L 107.417049 167.463012 
L 108.468962 166.06876 
L 109.728484 164.034765 
L 110.741068 162.00077 
L 111.557711 159.966774 
L 111.745376 159.404927 
L 112.553061 157.932779 
L 112.864307 155.898783 
L 113.274873 153.864788 
L 114.328605 151.830793 
L 114.963034 149.796797 
L 115.622 147.762802 
L 116.073704 146.382971 
L 116.534769 145.728807 
L 117.93631 143.694811 
L 119.276332 141.660816 
L 120.402032 139.951728 
L 122.426156 139.62682 
L 124.73036 139.282442 
L 126.805808 139.62682 
L 129.058688 140.001991 
L 133.387016 140.305212 
L 137.715344 140.33204 
L 142.043672 141.077204 
L 144.296836 141.660816 
L 146.371999 142.247525 
L 150.700327 141.982001 
L 155.028655 141.882577 
L 159.046832 141.660816 
L 159.356983 141.648417 
L 163.685311 141.004 
L 168.013639 140.587655 
L 172.341967 140.036487 
L 174.098329 139.62682 
L 176.670295 139.222648 
L 180.998622 138.973531 
L 185.32695 138.343794 
L 189.655278 137.73896 
L 190.731595 137.592825 
L 193.983606 137.370227 
L 198.311934 137.084234 
L 202.640262 136.794815 
L 206.96859 136.376128 
L 211.296918 135.937211 
L 214.936703 135.55883 
L 215.625245 135.510172 
L 219.953573 135.199563 
L 224.281901 134.907936 
L 228.610229 134.628945 
L 232.938557 134.312071 
L 237.266885 133.958575 
L 241.595213 133.588593 
L 242.308078 133.524834 
L 245.923541 133.254887 
L 250.251868 132.997008 
L 254.580196 132.749824 
L 258.908524 132.515359 
L 263.236852 132.30652 
L 267.56518 132.102617 
L 271.893508 131.855597 
L 276.221836 131.615459 
L 278.347496 131.490839 
L 280.550164 131.352789 
L 284.878492 131.0454 
L 289.206819 130.88196 
L 293.535147 130.761185 
L 297.863475 130.662264 
L 302.191803 130.572399 
L 306.520131 130.395679 
L 310.848459 130.155955 
L 315.176787 129.951808 
L 319.505115 129.816777 
L 323.833442 129.705222 
L 328.16177 129.605192 
L 332.490098 129.497043 
L 333.168936 129.456844 
L 336.818426 129.198054 
L 341.146754 129.085087 
L 345.475082 129.0036 
L 349.80341 128.939136 
L 349.80341 128.441385 
L 345.475082 128.494078 
L 341.146754 128.558319 
L 336.818426 128.64432 
L 332.490098 128.870274 
L 328.16177 128.983758 
L 323.833442 129.084849 
L 319.505115 129.19183 
L 315.176787 129.320252 
L 312.597586 129.456844 
L 310.848459 129.530433 
L 306.520131 129.703952 
L 302.191803 129.821182 
L 297.863475 129.906015 
L 293.535147 129.991816 
L 289.206819 130.08639 
L 284.878492 130.201404 
L 280.550164 130.389856 
L 276.221836 130.575561 
L 271.893508 130.738228 
L 267.56518 130.918927 
L 263.236852 131.119352 
L 258.908524 131.33985 
L 256.103521 131.490839 
L 254.580196 131.561 
L 250.251868 131.730907 
L 245.923541 131.88282 
L 241.595213 132.051963 
L 237.266885 132.247278 
L 232.938557 132.466371 
L 228.610229 132.729252 
L 224.281901 132.963014 
L 219.953573 133.147001 
L 215.625245 133.306985 
L 211.296918 133.455916 
L 209.262457 133.524834 
L 206.96859 133.6039 
L 202.640262 133.776631 
L 198.311934 133.939273 
L 193.983606 134.073752 
L 189.655278 134.155149 
L 185.32695 134.188862 
L 180.998622 134.223736 
L 176.670295 134.274022 
L 172.341967 134.255763 
L 168.013639 134.281489 
L 163.685311 134.295582 
L 159.356983 134.321781 
L 155.028655 134.089176 
L 150.700327 133.884371 
L 146.371999 133.791512 
L 142.953328 133.524834 
L 142.043672 133.455526 
L 137.715344 132.593175 
L 133.387016 131.677785 
L 132.01985 131.490839 
L 129.058688 131.001801 
L 124.73036 130.469747 
L 120.402032 130.746014 
L 119.685248 131.490839 
L 117.91558 133.524834 
L 116.216623 135.55883 
L 116.073704 135.724472 
L 114.985903 137.592825 
L 114.067718 139.62682 
L 113.294352 141.660816 
L 112.560442 143.694811 
L 111.810496 145.728807 
L 111.745376 145.903735 
L 111.098795 147.762802 
L 110.46414 149.796797 
L 109.881173 151.830793 
L 109.312301 153.864788 
L 108.712845 155.898783 
L 108.034595 157.932779 
L 107.417049 159.505808 
L 107.249785 159.966774 
L 106.448286 162.00077 
L 105.583342 164.034765 
L 104.629848 166.06876 
L 103.554669 168.102756 
L 103.088721 168.878524 
L 102.296702 170.136751 
L 100.957759 172.170746 
L 99.685803 174.204742 
L 98.760393 175.766284 
L 98.422335 176.238737 
L 96.892816 178.272733 
L 94.976161 180.306728 
L 94.432065 180.906348 
L 93.106411 182.340723 
L 90.793578 184.374719 
L 90.103737 184.92801 
L 88.198946 186.408714 
L 85.775409 188.137818 
L 85.775409 188.442709 
L 85.775409 190.476705 
L 85.775409 192.5107 
L 85.775409 193.134507 
z
" style="fill:#e9f7e5;stroke:#e9f7e5;"/>
    <path clip-path="url(#p9e4e98da72)" d="M 336.818426 117.339064 
L 341.146754 117.67092 
L 345.475082 117.999541 
L 349.80341 118.293289 
L 349.80341 117.252871 
L 349.80341 115.734861 
L 345.475082 115.37683 
L 343.375554 115.218876 
L 341.146754 115.085407 
L 336.818426 114.761228 
L 332.490098 114.318249 
L 328.16177 113.826854 
L 323.833442 113.376952 
L 321.841656 113.184881 
L 319.505115 112.992957 
L 315.176787 112.520646 
L 310.848459 111.951237 
L 306.520131 111.398866 
L 304.438857 111.150885 
L 302.191803 110.905494 
L 297.863475 110.298919 
L 293.535147 109.640674 
L 289.927754 109.11689 
L 289.206819 109.021367 
L 284.878492 108.33533 
L 280.550164 107.585096 
L 277.608328 107.082894 
L 276.221836 106.852719 
L 271.893508 106.026248 
L 267.56518 105.162637 
L 267.005565 105.048899 
L 263.236852 104.274438 
L 258.908524 103.300746 
L 257.667379 103.014904 
L 254.580196 102.307645 
L 250.251868 101.20306 
L 249.395324 100.980908 
L 245.923541 100.083102 
L 241.967767 98.946913 
L 241.595213 98.842578 
L 237.266885 97.570579 
L 235.167665 96.912918 
L 232.938557 96.216177 
L 229.003423 94.878922 
L 228.610229 94.745551 
L 224.281901 93.210996 
L 223.306629 92.844927 
L 219.953573 91.579031 
L 218.064019 90.810931 
L 215.625245 89.81796 
L 213.263053 88.776936 
L 211.296918 87.910672 
L 208.851887 86.742941 
L 206.96859 85.83704 
L 204.760125 84.708945 
L 202.640262 83.579876 
L 200.953438 82.67495 
L 198.311934 81.120211 
L 197.466934 80.640955 
L 194.200528 78.606959 
L 193.983606 78.467569 
L 190.956708 76.572964 
L 189.655278 75.673263 
L 187.880445 74.538968 
L 185.32695 72.575851 
L 185.215083 72.504973 
L 182.288466 70.470978 
L 180.998622 69.35658 
L 179.679674 68.436982 
L 177.009456 66.402987 
L 176.670295 66.120787 
L 174.127633 64.368992 
L 172.341967 63.032337 
L 171.640464 62.334996 
L 169.476895 60.301001 
L 168.013639 59.040248 
L 167.291411 58.267005 
L 165.463074 56.23301 
L 163.685311 54.455564 
L 163.445761 54.199015 
L 161.711355 52.165019 
L 160.021216 50.131024 
L 159.356983 49.366364 
L 158.302285 48.097029 
L 156.824433 46.063033 
L 155.500251 44.029038 
L 155.028655 43.383497 
L 153.684279 41.995042 
L 151.923641 39.961047 
L 150.700327 38.147832 
L 150.404768 37.927052 
L 147.769948 35.893056 
L 146.371999 34.317046 
L 145.701642 33.859061 
L 142.430725 31.825066 
L 142.043672 31.591858 
L 137.715344 30.940962 
L 135.923994 31.825066 
L 133.387016 33.222518 
L 132.781453 33.859061 
L 130.571612 35.893056 
L 129.058688 36.997901 
L 128.434096 37.927052 
L 127.069555 39.961047 
L 125.343659 41.995042 
L 124.73036 42.571446 
L 123.489689 44.029038 
L 121.985822 46.063033 
L 120.645306 48.097029 
L 120.402032 48.477327 
L 120.067462 50.131024 
L 119.532741 52.165019 
L 117.822255 54.199015 
L 116.163283 56.23301 
L 116.073704 56.322429 
L 115.213093 58.267005 
L 114.404531 60.301001 
L 113.465564 62.334996 
L 111.943805 64.368992 
L 111.745376 64.549464 
L 109.608261 66.402987 
L 108.287069 68.436982 
L 107.417049 69.855748 
L 106.355976 70.470978 
L 103.57061 72.504973 
L 103.088721 72.938019 
L 98.760393 73.202411 
L 96.022369 72.504973 
L 94.432065 71.954074 
L 91.19778 70.470978 
L 90.103737 69.785031 
L 86.948777 68.436982 
L 85.775409 67.77897 
L 85.775409 68.436982 
L 85.775409 70.470978 
L 85.775409 72.504973 
L 85.775409 74.538968 
L 85.775409 76.572964 
L 85.775409 78.606959 
L 85.775409 80.640955 
L 85.775409 82.67495 
L 85.775409 84.708945 
L 85.775409 86.742941 
L 85.775409 88.776936 
L 85.775409 90.810931 
L 85.775409 92.354269 
L 88.266157 90.810931 
L 90.103737 89.838751 
L 92.124576 88.776936 
L 94.432065 87.831057 
L 96.078094 86.742941 
L 98.760393 85.453784 
L 99.481742 84.708945 
L 101.851903 82.67495 
L 103.088721 81.823051 
L 103.635779 80.640955 
L 104.959142 78.606959 
L 106.96549 76.572964 
L 107.417049 76.178629 
L 108.566327 74.538968 
L 109.868307 72.504973 
L 111.150351 70.470978 
L 111.745376 69.490124 
L 112.773277 68.436982 
L 114.582897 66.402987 
L 115.906886 64.368992 
L 116.073704 63.961448 
L 117.549605 62.334996 
L 119.455953 60.301001 
L 120.402032 59.213553 
L 121.445016 58.267005 
L 123.30413 56.23301 
L 124.73036 54.211349 
L 124.750004 54.199015 
L 128.399898 52.165019 
L 129.058688 51.816913 
L 131.658203 50.131024 
L 133.387016 48.878857 
L 137.539568 48.097029 
L 137.715344 48.0599 
L 138.080244 48.097029 
L 142.043672 48.570716 
L 145.073073 50.131024 
L 146.371999 50.801012 
L 148.011395 52.165019 
L 150.700327 54.035515 
L 150.858229 54.199015 
L 152.903015 56.23301 
L 155.028655 58.00013 
L 155.274531 58.267005 
L 157.185413 60.301001 
L 159.356983 62.266226 
L 159.423424 62.334996 
L 161.386184 64.368992 
L 163.552226 66.402987 
L 163.685311 66.52159 
L 165.74638 68.436982 
L 168.013639 70.392053 
L 168.098809 70.470978 
L 170.469253 72.504973 
L 172.341967 73.981811 
L 173.030363 74.538968 
L 175.793591 76.572964 
L 176.670295 77.168688 
L 178.513295 78.606959 
L 180.998622 80.313692 
L 181.470917 80.640955 
L 184.426886 82.67495 
L 185.32695 83.232495 
L 187.713465 84.708945 
L 189.655278 85.877658 
L 191.238545 86.742941 
L 193.983606 88.271004 
L 195.001009 88.776936 
L 198.311934 90.426212 
L 199.138488 90.810931 
L 202.640262 92.38395 
L 203.693358 92.844927 
L 206.96859 94.1997 
L 208.63455 94.878922 
L 211.296918 95.903762 
L 213.979549 96.912918 
L 215.625245 97.503774 
L 219.817111 98.946913 
L 219.953573 98.992619 
L 224.281901 100.357596 
L 226.308045 100.980908 
L 228.610229 101.657557 
L 232.938557 102.855774 
L 233.532755 103.014904 
L 237.266885 103.961342 
L 241.595213 105.005561 
L 241.783174 105.048899 
L 245.923541 105.963044 
L 250.251868 106.865643 
L 251.348792 107.082894 
L 254.580196 107.713162 
L 258.908524 108.512036 
L 262.521083 109.11689 
L 263.236852 109.236689 
L 267.56518 109.970158 
L 271.893508 110.639613 
L 275.60646 111.150885 
L 276.221836 111.238602 
L 280.550164 111.872569 
L 284.878492 112.45392 
L 289.206819 112.955719 
L 291.290104 113.184881 
L 293.535147 113.456649 
L 297.863475 113.986162 
L 302.191803 114.460504 
L 306.520131 114.86531 
L 310.719948 115.218876 
L 310.848459 115.230851 
L 315.176787 115.663825 
L 319.505115 116.088015 
L 323.833442 116.461752 
L 328.16177 116.772518 
L 332.490098 117.051139 
L 335.619198 117.252871 
z
" style="fill:#e9f7e5;stroke:#e9f7e5;"/>
   </g>
   <g id="matplotlib.axis_1">
    <g id="xtick_1">
     <g id="line2d_1">
      <path clip-path="url(#p9e4e98da72)" d="M 85.775409 223.517271 
L 85.775409 27.82665 
" style="fill:none;stroke:#b0b0b0;stroke-linecap:square;stroke-width:0.8;"/>
     </g>
     <g id="line2d_2">
      <defs>
       <path d="M 0 0 
L 0 3.5 
" id="me998612747" style="stroke:#000000;stroke-width:0.8;"/>
      </defs>
      <g>
       <use style="stroke:#000000;stroke-width:0.8;" x="85.775409" xlink:href="#me998612747" y="223.517271"/>
      </g>
     </g>
     <g id="text_1">
      <!-- $\mathdefault{0}$ -->
      <g transform="translate(81.663266 242.970572)scale(0.18 -0.18)">
       <defs>
        <path d="M 42 31.640625 
C 42 37.75 41.90625 48.125 37.703125 56.109375 
C 34 63.109375 28.09375 65.59375 22.90625 65.59375 
C 18.09375 65.59375 12 63.40625 8.203125 56.203125 
C 4.203125 48.71875 3.796875 39.4375 3.796875 31.640625 
C 3.796875 25.953125 3.90625 17.28125 7 9.671875 
C 11.296875 -0.609375 19 -2 22.90625 -2 
C 27.5 -2 34.5 -0.109375 38.59375 9.375 
C 41.59375 16.28125 42 24.359375 42 31.640625 
z
M 22.90625 -0.40625 
C 16.5 -0.40625 12.703125 5.078125 11.296875 12.6875 
C 10.203125 18.5625 10.203125 27.15625 10.203125 32.75 
C 10.203125 40.4375 10.203125 46.828125 11.5 52.921875 
C 13.40625 61.390625 19 64 22.90625 64 
C 27 64 32.296875 61.296875 34.203125 53.125 
C 35.5 47.4375 35.59375 40.734375 35.59375 32.75 
C 35.59375 26.25 35.59375 18.265625 34.40625 12.375 
C 32.296875 1.484375 26.40625 -0.40625 22.90625 -0.40625 
z
" id="CMR17-48"/>
       </defs>
       <use transform="scale(0.996264)" xlink:href="#CMR17-48"/>
      </g>
     </g>
    </g>
    <g id="xtick_2">
     <g id="line2d_3">
      <path clip-path="url(#p9e4e98da72)" d="M 172.341967 223.517271 
L 172.341967 27.82665 
" style="fill:none;stroke:#b0b0b0;stroke-linecap:square;stroke-width:0.8;"/>
     </g>
     <g id="line2d_4">
      <g>
       <use style="stroke:#000000;stroke-width:0.8;" x="172.341967" xlink:href="#me998612747" y="223.517271"/>
      </g>
     </g>
     <g id="text_2">
      <!-- $\mathdefault{1}$ -->
      <g transform="translate(168.229824 242.970572)scale(0.18 -0.18)">
       <defs>
        <path d="M 26.59375 63.40625 
C 26.59375 65.5 26.5 65.5 25.09375 65.5 
C 21.203125 61.1875 15.296875 59.796875 9.703125 59.796875 
C 9.40625 59.796875 8.90625 59.796875 8.796875 59.5 
C 8.703125 59.296875 8.703125 59.09375 8.703125 57 
C 11.796875 57 17 57.59375 21 59.984375 
L 21 7.203125 
C 21 3.6875 20.796875 2.5 12.203125 2.5 
L 9.203125 2.5 
L 9.203125 0 
C 14 0 19 0 23.796875 0 
C 28.59375 0 33.59375 0 38.40625 0 
L 38.40625 2.5 
L 35.40625 2.5 
C 26.796875 2.5 26.59375 3.59375 26.59375 7.15625 
z
" id="CMR17-49"/>
       </defs>
       <use transform="scale(0.996264)" xlink:href="#CMR17-49"/>
      </g>
     </g>
    </g>
    <g id="xtick_3">
     <g id="line2d_5">
      <path clip-path="url(#p9e4e98da72)" d="M 258.908524 223.517271 
L 258.908524 27.82665 
" style="fill:none;stroke:#b0b0b0;stroke-linecap:square;stroke-width:0.8;"/>
     </g>
     <g id="line2d_6">
      <g>
       <use style="stroke:#000000;stroke-width:0.8;" x="258.908524" xlink:href="#me998612747" y="223.517271"/>
      </g>
     </g>
     <g id="text_3">
      <!-- $\mathdefault{2}$ -->
      <g transform="translate(254.796381 242.970572)scale(0.18 -0.18)">
       <defs>
        <path d="M 41.703125 15.453125 
L 39.90625 15.453125 
C 38.90625 8.375 38.09375 7.171875 37.703125 6.5625 
C 37.203125 5.765625 30 5.765625 28.59375 5.765625 
L 9.40625 5.765625 
C 13 9.671875 20 16.75 28.5 24.953125 
C 34.59375 30.734375 41.703125 37.53125 41.703125 47.421875 
C 41.703125 59.21875 32.296875 66 21.796875 66 
C 10.796875 66 4.09375 56.3125 4.09375 47.34375 
C 4.09375 43.4375 7 42.9375 8.203125 42.9375 
C 9.203125 42.9375 12.203125 43.546875 12.203125 47.03125 
C 12.203125 50.109375 9.59375 51 8.203125 51 
C 7.59375 51 7 50.90625 6.59375 50.703125 
C 8.5 59.21875 14.296875 63.40625 20.40625 63.40625 
C 29.09375 63.40625 34.796875 56.515625 34.796875 47.421875 
C 34.796875 38.734375 29.703125 31.25 24 24.75 
L 4.09375 2.28125 
L 4.09375 0 
L 39.296875 0 
z
" id="CMR17-50"/>
       </defs>
       <use transform="scale(0.996264)" xlink:href="#CMR17-50"/>
      </g>
     </g>
    </g>
    <g id="xtick_4">
     <g id="line2d_7">
      <path clip-path="url(#p9e4e98da72)" d="M 345.475082 223.517271 
L 345.475082 27.82665 
" style="fill:none;stroke:#b0b0b0;stroke-linecap:square;stroke-width:0.8;"/>
     </g>
     <g id="line2d_8">
      <g>
       <use style="stroke:#000000;stroke-width:0.8;" x="345.475082" xlink:href="#me998612747" y="223.517271"/>
      </g>
     </g>
     <g id="text_4">
      <!-- $\mathdefault{3}$ -->
      <g transform="translate(341.362939 242.970572)scale(0.18 -0.18)">
       <defs>
        <path d="M 22.09375 33.703125 
C 31 33.703125 34.90625 25.96875 34.90625 17.03125 
C 34.90625 5 28.5 0.390625 22.703125 0.390625 
C 17.40625 0.390625 8.796875 3.03125 6.09375 10.828125 
C 6.59375 10.625 7.09375 10.625 7.59375 10.625 
C 10 10.625 11.796875 12.21875 11.796875 14.8125 
C 11.796875 17.703125 9.59375 19 7.59375 19 
C 5.90625 19 3.296875 18.203125 3.296875 14.46875 
C 3.296875 5.234375 12.296875 -2 22.90625 -2 
C 34 -2 42.5 6.71875 42.5 16.953125 
C 42.5 26.671875 34.5 33.703125 25 34.796875 
C 32.59375 36.375 39.90625 43.0625 39.90625 52.015625 
C 39.90625 59.6875 32 65.296875 23 65.296875 
C 13.90625 65.296875 5.90625 59.828125 5.90625 52.015625 
C 5.90625 48.59375 8.5 48 9.796875 48 
C 11.90625 48 13.703125 49.296875 13.703125 51.890625 
C 13.703125 54.46875 11.90625 55.765625 9.796875 55.765625 
C 9.40625 55.765625 8.90625 55.765625 8.5 55.578125 
C 11.40625 61.859375 19.296875 63 22.796875 63 
C 26.296875 63 32.90625 61.328125 32.90625 51.875 
C 32.90625 49.109375 32.5 44.1875 29.09375 39.84375 
C 26.09375 36 22.703125 36 19.40625 35.6875 
C 18.90625 35.6875 16.59375 35.453125 16.203125 35.453125 
C 15.5 35.359375 15.09375 35.265625 15.09375 34.5 
C 15.09375 33.796875 15.203125 33.703125 17.203125 33.703125 
z
" id="CMR17-51"/>
       </defs>
       <use transform="scale(0.996264)" xlink:href="#CMR17-51"/>
      </g>
     </g>
    </g>
    <g id="text_5">
     <!-- $z$ -->
     <g transform="translate(211.546828 262.911936)scale(0.18 -0.18)">
      <defs>
       <path d="M 12.703125 7.59375 
C 17 12.546875 20.5 15.6875 25.5 20.25 
C 31.5 25.5 34.09375 28.015625 35.5 29.546875 
C 42.5 36.53125 46 42.390625 46 43.1875 
C 46 44 45.203125 44 45 44 
C 44.296875 44 44.09375 43.640625 43.59375 42.96875 
C 41.09375 38.96875 38.703125 36.984375 36.09375 36.984375 
C 34 36.984375 32.90625 37.828125 31 40.078125 
C 28.90625 42.421875 27.203125 44 24.296875 44 
C 17 44 12.59375 35.265625 12.59375 33.25 
C 12.59375 32.9375 12.703125 32.3125 13.59375 32.3125 
C 14.40625 32.3125 14.5 32.671875 14.796875 33.328125 
C 16.5 37.0625 21.296875 37.71875 23.203125 37.71875 
C 25.296875 37.71875 27.296875 37.125 29.40625 36.359375 
C 33.203125 35 34.796875 35 35.796875 35 
C 36.5 35 36.90625 35 37.40625 35.09375 
C 34.09375 31.15625 28.703125 26.296875 24.203125 22.15625 
L 14.09375 12.75 
C 8 6.484375 4.296875 0.515625 4.296875 -0.1875 
C 4.296875 -0.796875 4.796875 -1 5.40625 -1 
C 6 -1 6.09375 -0.890625 6.796875 0.21875 
C 8.40625 2.546875 11.59375 6 15.296875 6 
C 17.40625 6 18.40625 5.34375 20.40625 3.015625 
C 22.296875 0.953125 24 -1 27.203125 -1 
C 37 -1 42.59375 11.4375 42.59375 13.6875 
C 42.59375 14.109375 42.5 14.71875 41.5 14.71875 
C 40.703125 14.71875 40.59375 14.328125 40.296875 13.359375 
C 38.09375 7.625 32.203125 5.28125 28.296875 5.28125 
C 26.203125 5.28125 24.203125 5.875 22.09375 6.640625 
C 18.09375 8 17 8 15.703125 8 
C 14.703125 8 13.59375 8 12.703125 7.59375 
z
" id="CMMI12-122"/>
      </defs>
      <use transform="scale(0.996264)" xlink:href="#CMMI12-122"/>
     </g>
    </g>
   </g>
   <g id="matplotlib.axis_2">
    <g id="ytick_1">
     <g id="line2d_9">
      <path clip-path="url(#p9e4e98da72)" d="M 85.775409 223.517271 
L 345.475082 223.517271 
" style="fill:none;stroke:#b0b0b0;stroke-linecap:square;stroke-width:0.8;"/>
     </g>
     <g id="line2d_10">
      <defs>
       <path d="M 0 0 
L -3.5 0 
" id="m872120bfc2" style="stroke:#000000;stroke-width:0.8;"/>
      </defs>
      <g>
       <use style="stroke:#000000;stroke-width:0.8;" x="85.775409" xlink:href="#m872120bfc2" y="223.517271"/>
      </g>
     </g>
     <g id="text_6">
      <!-- $\mathdefault{2.0}$ -->
      <g transform="translate(43.501604 229.743921)scale(0.18 -0.18)">
       <defs>
        <path d="M 65.90625 23 
C 67.59375 23 69.40625 23 69.40625 25 
C 69.40625 27 67.59375 27 65.90625 27 
L 11.796875 27 
C 10.09375 27 8.296875 27 8.296875 25 
C 8.296875 23 10.09375 23 11.796875 23 
z
" id="CMSY10-0"/>
        <path d="M 18.40625 4.796875 
C 18.40625 7.6875 16 9.671875 13.59375 9.671875 
C 10.703125 9.671875 8.703125 7.28125 8.703125 4.890625 
C 8.703125 2 11.09375 0 13.5 0 
C 16.40625 0 18.40625 2.390625 18.40625 4.796875 
z
" id="CMMI12-58"/>
       </defs>
       <use transform="scale(0.996264)" xlink:href="#CMSY10-0"/>
       <use transform="translate(77.487468 0)scale(0.996264)" xlink:href="#CMR17-50"/>
       <use transform="translate(123.177945 0)scale(0.996264)" xlink:href="#CMMI12-58"/>
       <use transform="translate(150.275122 0)scale(0.996264)" xlink:href="#CMR17-48"/>
      </g>
     </g>
    </g>
    <g id="ytick_2">
     <g id="line2d_11">
      <path clip-path="url(#p9e4e98da72)" d="M 85.775409 174.594616 
L 345.475082 174.594616 
" style="fill:none;stroke:#b0b0b0;stroke-linecap:square;stroke-width:0.8;"/>
     </g>
     <g id="line2d_12">
      <g>
       <use style="stroke:#000000;stroke-width:0.8;" x="85.775409" xlink:href="#m872120bfc2" y="174.594616"/>
      </g>
     </g>
     <g id="text_7">
      <!-- $\mathdefault{1.5}$ -->
      <g transform="translate(43.501604 180.821266)scale(0.18 -0.18)">
       <defs>
        <path d="M 11.40625 57.6875 
C 12.40625 57.28125 16.5 56 20.703125 56 
C 30 56 35.09375 61.109375 38 64.0625 
C 38 64.953125 38 65.5 37.40625 65.5 
C 37.296875 65.5 37.09375 65.5 36.296875 65.046875 
C 32.796875 63.40625 28.703125 62.078125 23.703125 62.078125 
C 20.703125 62.078125 16.203125 62.484375 11.296875 64.671875 
C 10.203125 65.171875 10 65.171875 9.90625 65.171875 
C 9.40625 65.171875 9.296875 65.0625 9.296875 63.078125 
L 9.296875 34.421875 
C 9.296875 32.640625 9.296875 32.140625 10.296875 32.140625 
C 10.796875 32.140625 11 32.34375 11.5 33.03125 
C 14.703125 37.515625 19.09375 39.40625 24.09375 39.40625 
C 27.59375 39.40625 35.09375 37.21875 35.09375 20.140625 
C 35.09375 16.953125 35.09375 11.171875 32.09375 6.578125 
C 29.59375 2.484375 25.703125 0.390625 21.40625 0.390625 
C 14.796875 0.390625 8.09375 5 6.296875 12.71875 
C 6.703125 12.609375 7.5 12.421875 7.90625 12.421875 
C 9.203125 12.421875 11.703125 13.125 11.703125 16.21875 
C 11.703125 18.90625 9.796875 20 7.90625 20 
C 5.59375 20 4.09375 18.59375 4.09375 15.796875 
C 4.09375 7.09375 11 -2 21.59375 -2 
C 31.90625 -2 41.703125 6.875 41.703125 19.75 
C 41.703125 31.71875 33.90625 41 24.203125 41 
C 19.09375 41 14.796875 39.109375 11.40625 35.53125 
z
" id="CMR17-53"/>
       </defs>
       <use transform="scale(0.996264)" xlink:href="#CMSY10-0"/>
       <use transform="translate(77.487468 0)scale(0.996264)" xlink:href="#CMR17-49"/>
       <use transform="translate(123.177945 0)scale(0.996264)" xlink:href="#CMMI12-58"/>
       <use transform="translate(150.275122 0)scale(0.996264)" xlink:href="#CMR17-53"/>
      </g>
     </g>
    </g>
    <g id="ytick_3">
     <g id="line2d_13">
      <path clip-path="url(#p9e4e98da72)" d="M 85.775409 125.671961 
L 345.475082 125.671961 
" style="fill:none;stroke:#b0b0b0;stroke-linecap:square;stroke-width:0.8;"/>
     </g>
     <g id="line2d_14">
      <g>
       <use style="stroke:#000000;stroke-width:0.8;" x="85.775409" xlink:href="#m872120bfc2" y="125.671961"/>
      </g>
     </g>
     <g id="text_8">
      <!-- $\mathdefault{1.0}$ -->
      <g transform="translate(43.501604 131.898611)scale(0.18 -0.18)">
       <use transform="scale(0.996264)" xlink:href="#CMSY10-0"/>
       <use transform="translate(77.487468 0)scale(0.996264)" xlink:href="#CMR17-49"/>
       <use transform="translate(123.177945 0)scale(0.996264)" xlink:href="#CMMI12-58"/>
       <use transform="translate(150.275122 0)scale(0.996264)" xlink:href="#CMR17-48"/>
      </g>
     </g>
    </g>
    <g id="ytick_4">
     <g id="line2d_15">
      <path clip-path="url(#p9e4e98da72)" d="M 85.775409 76.749305 
L 345.475082 76.749305 
" style="fill:none;stroke:#b0b0b0;stroke-linecap:square;stroke-width:0.8;"/>
     </g>
     <g id="line2d_16">
      <g>
       <use style="stroke:#000000;stroke-width:0.8;" x="85.775409" xlink:href="#m872120bfc2" y="76.749305"/>
      </g>
     </g>
     <g id="text_9">
      <!-- $\mathdefault{0.5}$ -->
      <g transform="translate(43.501604 82.975955)scale(0.18 -0.18)">
       <use transform="scale(0.996264)" xlink:href="#CMSY10-0"/>
       <use transform="translate(77.487468 0)scale(0.996264)" xlink:href="#CMR17-48"/>
       <use transform="translate(123.177945 0)scale(0.996264)" xlink:href="#CMMI12-58"/>
       <use transform="translate(150.275122 0)scale(0.996264)" xlink:href="#CMR17-53"/>
      </g>
     </g>
    </g>
    <g id="ytick_5">
     <g id="line2d_17">
      <path clip-path="url(#p9e4e98da72)" d="M 85.775409 27.82665 
L 345.475082 27.82665 
" style="fill:none;stroke:#b0b0b0;stroke-linecap:square;stroke-width:0.8;"/>
     </g>
     <g id="line2d_18">
      <g>
       <use style="stroke:#000000;stroke-width:0.8;" x="85.775409" xlink:href="#m872120bfc2" y="27.82665"/>
      </g>
     </g>
     <g id="text_10">
      <!-- $\mathdefault{0.0}$ -->
      <g transform="translate(57.449345 34.0533)scale(0.18 -0.18)">
       <use transform="scale(0.996264)" xlink:href="#CMR17-48"/>
       <use transform="translate(45.690477 0)scale(0.996264)" xlink:href="#CMMI12-58"/>
       <use transform="translate(72.787654 0)scale(0.996264)" xlink:href="#CMR17-48"/>
      </g>
     </g>
    </g>
    <g id="text_11">
     <!-- $\omega(z)$ -->
     <g transform="translate(35.03342 142.28909)rotate(-90)scale(0.18 -0.18)">
      <defs>
       <path d="M 59.40625 37.421875 
C 59.40625 40.3125 58.59375 44 55.09375 44 
C 53.09375 44 50.796875 41.515625 50.796875 39.515625 
C 50.796875 38.625 51.203125 38.03125 52 37.125 
C 53.5 35.4375 55.40625 32.75 55.40625 28.078125 
C 55.40625 24.484375 53.203125 18.8125 51.59375 15.734375 
C 48.796875 10.25 44.203125 5.578125 39 5.578125 
C 32.703125 5.578125 30.296875 9.609375 29.203125 15.234375 
C 30.296875 17.859375 32.59375 24.375 32.59375 27 
C 32.59375 28.09375 32.203125 29 30.90625 29 
C 30.203125 29 29.40625 28.609375 28.90625 27.796875 
C 27.5 25.59375 26.203125 17.640625 26.296875 15.53125 
C 24.40625 11.8125 19 5.578125 12.59375 5.578125 
C 5.90625 5.578125 4.09375 11.453125 4.09375 17.125 
C 4.09375 27.46875 10.59375 36.53125 12.40625 39.015625 
C 13.40625 40.515625 14.09375 41.515625 14.09375 41.703125 
C 14.09375 42.40625 13.703125 43.5 12.796875 43.5 
C 11.203125 43.5 10.703125 42.203125 9.90625 41.015625 
C 4.796875 33.140625 1.203125 22.09375 1.203125 12.546875 
C 1.203125 6.375 3.5 -1 11 -1 
C 19.296875 -1 24.5 6.109375 26.59375 9.90625 
C 27.40625 4.296875 30.40625 -1 37.703125 -1 
C 45.296875 -1 50.09375 5.671875 53.703125 13.734375 
C 56.296875 19.515625 59.40625 31.953125 59.40625 37.421875 
z
" id="CMMI12-33"/>
       <path d="M 30.59375 -24.390625 
C 30.59375 -24.296875 30.59375 -24.09375 30.296875 -23.796875 
C 25.703125 -19.125 13.40625 -6.359375 13.40625 24.703125 
C 13.40625 55.765625 25.5 68.421875 30.40625 73.390625 
C 30.40625 73.5 30.59375 73.703125 30.59375 74 
C 30.59375 74.296875 30.296875 74.5 29.90625 74.5 
C 28.796875 74.5 20.296875 67.125 15.40625 56.15625 
C 10.40625 45.109375 9 34.359375 9 24.8125 
C 9 17.625 9.703125 5.484375 15.703125 -7.359375 
C 20.5 -17.734375 28.703125 -25 29.90625 -25 
C 30.40625 -25 30.59375 -24.796875 30.59375 -24.390625 
z
" id="CMR17-40"/>
       <path d="M 26.296875 24.703125 
C 26.296875 31.875 25.59375 44.015625 19.59375 56.859375 
C 14.796875 67.234375 6.59375 74.5 5.40625 74.5 
C 5.09375 74.5 4.703125 74.390625 4.703125 73.890625 
C 4.703125 73.703125 4.796875 73.59375 4.90625 73.390625 
C 9.703125 68.40625 21.90625 55.75 21.90625 24.75 
C 21.90625 -6.359375 9.796875 -19.015625 4.90625 -24.015625 
C 4.796875 -24.203125 4.703125 -24.3125 4.703125 -24.5 
C 4.703125 -25 5.09375 -25 5.40625 -25 
C 6.5 -25 15 -17.625 19.90625 -6.65625 
C 24.90625 4.390625 26.296875 15.140625 26.296875 24.703125 
z
" id="CMR17-41"/>
      </defs>
      <use transform="scale(0.996264)" xlink:href="#CMMI12-33"/>
      <use transform="translate(64.318346 0)scale(0.996264)" xlink:href="#CMR17-40"/>
      <use transform="translate(99.599114 0)scale(0.996264)" xlink:href="#CMMI12-122"/>
      <use transform="translate(149.354259 0)scale(0.996264)" xlink:href="#CMR17-41"/>
     </g>
    </g>
   </g>
   <g id="LineCollection_1">
    <path clip-path="url(#p9e4e98da72)" d="M 85.775409 125.671961 
L 345.475082 125.671961 
" style="fill:none;stroke:#0000ff;stroke-dasharray:14.8,6.4;stroke-dashoffset:0;stroke-width:4;"/>
   </g>
   <g id="patch_3">
    <path d="M 85.775409 223.517271 
L 85.775409 27.82665 
" style="fill:none;stroke:#000000;stroke-linecap:square;stroke-linejoin:miter;stroke-width:0.8;"/>
   </g>
   <g id="patch_4">
    <path d="M 345.475082 223.517271 
L 345.475082 27.82665 
" style="fill:none;stroke:#000000;stroke-linecap:square;stroke-linejoin:miter;stroke-width:0.8;"/>
   </g>
   <g id="patch_5">
    <path d="M 85.775409 223.517271 
L 345.475082 223.517271 
" style="fill:none;stroke:#000000;stroke-linecap:square;stroke-linejoin:miter;stroke-width:0.8;"/>
   </g>
   <g id="patch_6">
    <path d="M 85.775409 27.82665 
L 345.475082 27.82665 
" style="fill:none;stroke:#000000;stroke-linecap:square;stroke-linejoin:miter;stroke-width:0.8;"/>
   </g>
   <g id="text_12">
    <!--  BAO with $\beta &gt; 0$ -->
    <g transform="translate(86.641075 194.163678)scale(0.13 -0.13)">
     <defs>
      <path d="M 8.90625 69 
L 8.90625 0 
L 33.796875 0 
C 47.40625 0 57.296875 8.96875 57.296875 18.75 
C 57.296875 26.328125 50.796875 34 39.09375 36.203125 
C 52.09375 39.96875 54.703125 47.5 54.703125 51.765625 
C 54.703125 60.671875 44.90625 69 31.203125 69 
z
M 17 39 
L 17 63.421875 
L 28.5 63.421875 
C 38.796875 63.421875 46.90625 58.1875 46.90625 51.65625 
C 46.90625 45.71875 40.5 39 27.59375 39 
z
M 17 5.578125 
L 17 32.921875 
L 30.296875 32.921875 
C 41.09375 32.921875 49.40625 26.234375 49.40625 18.84375 
C 49.40625 12.0625 42.09375 5.578125 31 5.578125 
z
" id="CMSS17-66"/>
      <path d="M 35.5 69 
L 26.90625 69 
L 2.59375 0 
L 10.203125 0 
L 17.203125 20 
L 44 20 
L 51.09375 0 
L 59.796875 0 
z
M 42.09375 25.578125 
L 19.09375 25.578125 
C 23.90625 39.5 29.90625 56.84375 30.59375 61.328125 
L 30.703125 61.328125 
C 31.40625 57.234375 33.40625 51.265625 35.09375 46.1875 
z
" id="CMSS17-65"/>
      <path d="M 64 34.03125 
C 64 54.734375 50.296875 70.265625 34.59375 70.265625 
C 18.90625 70.265625 5.203125 54.640625 5.203125 34.03125 
C 5.203125 13.234375 19.09375 -2 34.59375 -2 
C 50.09375 -2 64 13.234375 64 34.03125 
z
M 34.59375 4.265625 
C 23.59375 4.265625 13.59375 16.515625 13.59375 35.328125 
C 13.59375 53.640625 24.203125 64 34.59375 64 
C 45 64 55.59375 53.640625 55.59375 35.328125 
C 55.59375 16.421875 45.5 4.265625 34.59375 4.265625 
z
" id="CMSS17-79"/>
      <path d="M 62.703125 43 
L 55.09375 43 
L 49.796875 25.015625 
C 48.703125 21.21875 45.59375 10.703125 45.203125 5.796875 
L 45.09375 5.796875 
C 44.90625 8.8125 43.203125 16 40.40625 25.515625 
L 35.296875 43 
L 28.40625 43 
L 23.40625 25.90625 
C 20.90625 17.203125 19 9.796875 18.796875 5.796875 
L 18.703125 5.796875 
C 18.296875 11.703125 14.203125 25.515625 13.59375 27.703125 
L 9.09375 43 
L 1.296875 43 
L 14.296875 0 
L 21.90625 0 
C 27.09375 17.125 31.09375 30.359375 31.40625 37.03125 
C 31.59375 33.75 33.296875 26.671875 34.296875 23.1875 
L 40.90625 0 
L 49.703125 0 
z
" id="CMSS17-119"/>
      <path d="M 15.296875 65.359375 
L 6.90625 65.359375 
L 6.90625 57 
L 15.296875 57 
z
M 14.796875 42.796875 
L 7.40625 42.796875 
L 7.40625 0 
L 14.796875 0 
z
" id="CMSS17-105"/>
      <path d="M 16.703125 37 
L 29.703125 37 
L 29.703125 42.765625 
L 16.703125 42.765625 
L 16.703125 55 
L 9.59375 55 
L 9.59375 42.765625 
L 1.703125 42.765625 
L 1.703125 37 
L 9.40625 37 
L 9.40625 11.703125 
C 9.40625 6 10.703125 -1 17.296875 -1 
C 22.296875 -1 26.90625 0.390625 31.296875 2.6875 
L 29.703125 8.5625 
C 27.296875 6.46875 24.40625 5.265625 21.296875 5.265625 
C 16.90625 5.265625 16.703125 10.875 16.703125 13.375 
z
" id="CMSS17-116"/>
      <path d="M 40.90625 29.546875 
C 40.90625 35.8125 39.40625 44.0625 28.09375 44.0625 
C 21.796875 44.0625 17.703125 40.984375 14.796875 37.609375 
L 14.796875 69.5 
L 7.40625 69.5 
L 7.40625 0.5 
L 15 0.5 
L 15 24.578125 
C 15 30.828125 17.40625 38 24.203125 38 
C 33 38 33.296875 32.125 33.296875 28.734375 
L 33.296875 0.5 
L 40.90625 0.5 
z
" id="CMSS17-104"/>
      <path d="M 56.59375 57.828125 
C 56.59375 63.765625 51.5 70 42.40625 70 
C 29.5 70 21.296875 54.328125 18.703125 44 
L 2.90625 -18.3125 
C 2.703125 -19.109375 3.296875 -19.3125 3.796875 -19.3125 
C 4.5 -19.3125 5 -19.21875 5.09375 -18.71875 
L 12.09375 9.15625 
C 13.09375 3.578125 18.59375 -1 24.5 -1 
C 38.796875 -1 52.296875 10.15625 52.296875 24.984375 
C 52.296875 28.765625 51.40625 32.546875 49.296875 35.734375 
C 48.09375 37.625 46.59375 39.015625 45 40.21875 
C 52.203125 43.984375 56.59375 50 56.59375 57.828125 
z
M 39.203125 40.3125 
C 37.59375 39.71875 36 39.515625 34.09375 39.515625 
C 32.703125 39.515625 31.40625 39.421875 29.59375 40.015625 
C 30.59375 40.71875 32.09375 40.90625 34.203125 40.90625 
C 36 40.90625 37.796875 40.71875 39.203125 40.3125 
z
M 51.40625 58.71875 
C 51.40625 53.28125 48.703125 45.359375 42.203125 41.703125 
C 40.296875 42.46875 37.703125 43 35.5 43 
C 33.40625 43 27.40625 43 27.40625 39.921875 
C 27.40625 37.328125 32.90625 37.328125 34.59375 37.328125 
C 37.203125 37.328125 39.5 38 41.90625 38.8125 
C 45.09375 36.21875 46.5 32.828125 46.5 27.859375 
C 46.5 22.078125 44.90625 17.421875 43 13.140625 
C 39.703125 5.765625 31.90625 1 25 1 
C 17.703125 1 13.90625 6.75 13.90625 13.5 
C 13.90625 14.40625 13.90625 15.703125 14.296875 17.171875 
L 20.796875 43.296875 
C 24.09375 56.296875 32.5 68.015625 42.203125 68.015625 
C 49.40625 68.015625 51.40625 63.0625 51.40625 58.71875 
z
" id="CMMI12-12"/>
      <path d="M 65.90625 22.640625 
C 67.796875 23.546875 67.90625 24.140625 67.90625 24.84375 
C 67.90625 25.4375 67.703125 26.140625 65.90625 26.953125 
L 11.796875 51.90625 
C 10.5 52.5 10.296875 52.5 10.09375 52.5 
C 8.90625 52.5 8.203125 51.5 8.203125 50.703125 
C 8.203125 49.5 9 49.09375 10.296875 48.5 
L 61.703125 24.84375 
L 10.203125 1.015625 
C 8.203125 0.09375 8.203125 -0.609375 8.203125 -1.203125 
C 8.203125 -2 8.90625 -3 10.09375 -3 
C 10.296875 -3 10.40625 -2.890625 11.796875 -2.296875 
z
" id="CMMI12-62"/>
     </defs>
     <use transform="scale(0.996264)" xlink:href="#CMSS17-66"/>
     <use transform="translate(62.33804 0)scale(0.996264)" xlink:href="#CMSS17-65"/>
     <use transform="translate(121.953441 0)scale(0.996264)" xlink:href="#CMSS17-79"/>
     <use transform="translate(222.206809 0)scale(0.996264)" xlink:href="#CMSS17-119"/>
     <use transform="translate(286.026354 0)scale(0.996264)" xlink:href="#CMSS17-105"/>
     <use transform="translate(308.207077 0)scale(0.996264)" xlink:href="#CMSS17-116"/>
     <use transform="translate(342.038644 0)scale(0.996264)" xlink:href="#CMSS17-104"/>
     <use transform="translate(421.4727 0)scale(0.996264)" xlink:href="#CMMI12-12"/>
     <use transform="translate(509.740724 0)scale(0.996264)" xlink:href="#CMMI12-62"/>
     <use transform="translate(613.286829 0)scale(0.996264)" xlink:href="#CMR17-48"/>
    </g>
   </g>
  </g>
  <g id="axes_2">
   <g id="patch_7">
    <path clip-path="url(#pab5888247b)" d="M 361.706311 223.517271 
L 361.706311 184.379147 
L 361.706311 66.964774 
L 361.706311 27.82665 
L 371.490842 27.82665 
L 371.490842 66.964774 
L 371.490842 184.379147 
L 371.490842 223.517271 
z
" style="fill:#ffffff;stroke:#ffffff;stroke-linejoin:miter;stroke-width:0.01;"/>
   </g>
   <g id="QuadMesh_1">
    <path clip-path="url(#pab5888247b)" d="M 361.706311 223.517271 
L 371.490842 223.517271 
L 371.490842 184.379147 
L 361.706311 184.379147 
L 361.706311 223.517271 
" style="fill:#006428;"/>
    <path clip-path="url(#pab5888247b)" d="M 361.706311 184.379147 
L 371.490842 184.379147 
L 371.490842 145.241023 
L 361.706311 145.241023 
L 361.706311 184.379147 
" style="fill:#2f974e;"/>
    <path clip-path="url(#pab5888247b)" d="M 361.706311 145.241023 
L 371.490842 145.241023 
L 371.490842 106.102899 
L 361.706311 106.102899 
L 361.706311 145.241023 
" style="fill:#75c477;"/>
    <path clip-path="url(#pab5888247b)" d="M 361.706311 106.102899 
L 371.490842 106.102899 
L 371.490842 66.964774 
L 361.706311 66.964774 
L 361.706311 106.102899 
" style="fill:#b8e3b2;"/>
    <path clip-path="url(#pab5888247b)" d="M 361.706311 66.964774 
L 371.490842 66.964774 
L 371.490842 27.82665 
L 361.706311 27.82665 
L 361.706311 66.964774 
" style="fill:#e9f7e5;"/>
   </g>
   <g id="matplotlib.axis_3"/>
   <g id="matplotlib.axis_4">
    <g id="ytick_6">
     <g id="line2d_19">
      <defs>
       <path d="M 0 0 
L 3.5 0 
" id="m212a2bed63" style="stroke:#000000;stroke-width:0.8;"/>
      </defs>
      <g>
       <use style="stroke:#000000;stroke-width:0.8;" x="371.490842" xlink:href="#m212a2bed63" y="223.517271"/>
      </g>
     </g>
    </g>
    <g id="ytick_7">
     <g id="line2d_20">
      <g>
       <use style="stroke:#000000;stroke-width:0.8;" x="371.490842" xlink:href="#m212a2bed63" y="145.241023"/>
      </g>
     </g>
     <g id="text_13">
      <!-- $1\sigma$ -->
      <g transform="translate(378.490842 151.467673)scale(0.18 -0.18)">
       <defs>
        <path d="M 50.796875 37.625 
C 52.09375 37.625 55.40625 37.625 55.40625 40.8125 
C 55.40625 43 53.5 43 51.703125 43 
L 29.59375 43 
C 14.59375 43 3.796875 26.34375 3.796875 14.5625 
C 3.796875 6.09375 9.296875 -1 18.296875 -1 
C 30.09375 -1 43 11.671875 43 26.640625 
C 43 30.53125 42.09375 34.3125 39.703125 37.625 
z
M 18.40625 1 
C 13.296875 1 9.59375 4.890625 9.59375 11.78125 
C 9.59375 17.765625 13.203125 37.625 27.90625 37.625 
C 32.203125 37.625 37 35.53125 37 27.828125 
C 37 24.34375 35.40625 15.953125 31.90625 10.1875 
C 28.296875 4.296875 22.90625 1 18.40625 1 
z
" id="CMMI12-27"/>
       </defs>
       <use transform="scale(0.996264)" xlink:href="#CMR17-49"/>
       <use transform="translate(45.690477 0)scale(0.996264)" xlink:href="#CMMI12-27"/>
      </g>
     </g>
    </g>
    <g id="ytick_8">
     <g id="line2d_21">
      <g>
       <use style="stroke:#000000;stroke-width:0.8;" x="371.490842" xlink:href="#m212a2bed63" y="66.964774"/>
      </g>
     </g>
     <g id="text_14">
      <!-- $2\sigma$ -->
      <g transform="translate(378.490842 73.191424)scale(0.18 -0.18)">
       <use transform="scale(0.996264)" xlink:href="#CMR17-50"/>
       <use transform="translate(45.690477 0)scale(0.996264)" xlink:href="#CMMI12-27"/>
      </g>
     </g>
    </g>
   </g>
   <g id="patch_8">
    <path d="M 361.706311 223.517271 
L 361.706311 184.379147 
L 361.706311 66.964774 
L 361.706311 27.82665 
L 371.490842 27.82665 
L 371.490842 66.964774 
L 371.490842 184.379147 
L 371.490842 223.517271 
z
" style="fill:none;stroke:#000000;stroke-linejoin:miter;stroke-width:0.8;"/>
   </g>
  </g>
 </g>
 <defs>
  <clipPath id="p9e4e98da72">
   <rect height="195.690621" width="259.699673" x="85.775409" y="27.82665"/>
  </clipPath>
  <clipPath id="pab5888247b">
   <rect height="195.690621" width="9.784531" x="361.706311" y="27.82665"/>
  </clipPath>
 </defs>
</svg>
