<?xml version="1.0" encoding="utf-8" standalone="no"?>
<!DOCTYPE svg PUBLIC "-//W3C//DTD SVG 1.1//EN"
  "http://www.w3.org/Graphics/SVG/1.1/DTD/svg11.dtd">
<svg height="360pt" version="1.1" viewBox="0 0 504 360" width="504pt" xmlns="http://www.w3.org/2000/svg" xmlns:xlink="http://www.w3.org/1999/xlink">
 <metadata>
  <rdf:RDF xmlns:cc="http://creativecommons.org/ns#" xmlns:dc="http://purl.org/dc/elements/1.1/" xmlns:rdf="http://www.w3.org/1999/02/22-rdf-syntax-ns#">
   <cc:Work>
    <dc:type rdf:resource="http://purl.org/dc/dcmitype/StillImage"/>
    <dc:date>2022-04-06T11:30:40.497753</dc:date>
    <dc:format>image/svg+xml</dc:format>
    <dc:creator>
     <cc:Agent>
      <dc:title>Matplotlib v3.4.3, https://matplotlib.org/</dc:title>
     </cc:Agent>
    </dc:creator>
   </cc:Work>
  </rdf:RDF>
 </metadata>
 <defs>
  <style type="text/css">*{stroke-linecap:butt;stroke-linejoin:round;}</style>
 </defs>
 <g id="figure_1">
  <g id="patch_1">
   <path d="M 0 360 
L 504 360 
L 504 0 
L 0 0 
z
" style="fill:none;"/>
  </g>
  <g id="axes_1">
   <g id="patch_2">
    <path d="M 62.51 318.04 
L 407.062 318.04 
L 407.062 14.76 
L 62.51 14.76 
z
" style="fill:#ffffff;"/>
   </g>
   <g id="PathCollection_1">
    <defs>
     <path d="M 62.816049 -168.223061 
L 63.308551 -169.453706 
L 63.902795 -170.684352 
L 64.862726 -171.914997 
L 65.33959 -173.145643 
L 65.685365 -174.376288 
L 65.804115 -175.606934 
L 65.998172 -176.837579 
L 66.292795 -178.068225 
L 66.723892 -179.29887 
L 67.372289 -180.529516 
L 68.252533 -181.556128 
L 68.32879 -181.760161 
L 68.853116 -182.990807 
L 69.471735 -184.221452 
L 70.141473 -185.452097 
L 70.828466 -186.682743 
L 71.535935 -187.913388 
L 72.291171 -189.144034 
L 73.018747 -190.374679 
L 73.995067 -191.506027 
L 74.079688 -191.605325 
L 75.199201 -192.83597 
L 76.336485 -194.066616 
L 77.534255 -195.297261 
L 77.873855 -196.527907 
L 78.427954 -197.758552 
L 79.7376 -198.960248 
L 79.786902 -198.989198 
L 81.924723 -200.219843 
L 83.786091 -201.450489 
L 85.1607 -202.681134 
L 85.480133 -203.008188 
L 90.421336 -203.91178 
L 91.222667 -204.01799 
L 95.990596 -205.142425 
L 96.9652 -205.523001 
L 102.707733 -206.20803 
L 108.450267 -206.322901 
L 114.1928 -205.909444 
L 116.957965 -205.142425 
L 119.935333 -204.41255 
L 121.271552 -203.91178 
L 124.772177 -202.681134 
L 125.677867 -202.388685 
L 128.722844 -201.450489 
L 131.4204 -200.680174 
L 133.022882 -200.219843 
L 137.162933 -199.240592 
L 138.092374 -198.989198 
L 142.905467 -198.014297 
L 143.981146 -197.758552 
L 148.648 -196.916194 
L 150.861373 -196.527907 
L 154.390533 -195.997928 
L 160.093125 -195.297261 
L 160.133067 -195.293063 
L 165.8756 -194.731318 
L 171.618133 -194.431627 
L 177.360667 -194.202995 
L 180.59409 -194.066616 
L 183.1032 -193.953674 
L 188.845733 -193.736451 
L 194.588267 -193.626335 
L 200.3308 -193.587067 
L 206.073333 -193.599272 
L 211.815867 -193.635022 
L 217.5584 -193.665361 
L 223.300933 -193.688569 
L 229.043467 -193.707044 
L 234.786 -193.721885 
L 240.528533 -193.733352 
L 246.271067 -193.741418 
L 252.0136 -193.746077 
L 257.756133 -193.747453 
L 263.498667 -193.745819 
L 269.2412 -193.741555 
L 274.983733 -193.735098 
L 280.726267 -193.726894 
L 286.4688 -193.717381 
L 292.211333 -193.707062 
L 297.953867 -193.696232 
L 303.6964 -193.685181 
L 309.438933 -193.67416 
L 315.181467 -193.663384 
L 320.924 -193.653235 
L 326.666533 -193.643674 
L 332.409067 -193.634727 
L 338.1516 -193.626432 
L 343.894133 -193.618986 
L 349.636667 -193.612208 
L 355.3792 -193.605996 
L 361.121733 -193.600365 
L 366.864267 -193.595349 
L 372.6068 -193.590718 
L 378.349333 -193.586455 
L 384.091867 -193.582651 
L 389.8344 -193.579081 
L 395.576933 -193.57576 
L 401.319467 -193.572738 
L 407.062 -193.569853 
L 412.804533 -193.567174 
L 412.804533 -194.066616 
L 412.804533 -195.297261 
L 412.804533 -195.745892 
L 407.062 -195.823922 
L 401.319467 -195.907607 
L 395.576933 -195.995791 
L 389.8344 -196.090595 
L 384.091867 -196.190459 
L 378.349333 -196.294156 
L 372.6068 -196.403395 
L 366.864267 -196.515329 
L 366.210684 -196.527907 
L 361.121733 -196.622785 
L 355.3792 -196.736406 
L 349.636667 -196.857086 
L 343.894133 -196.985431 
L 338.1516 -197.123197 
L 332.409067 -197.272431 
L 326.666533 -197.431277 
L 320.924 -197.599051 
L 315.69813 -197.758552 
L 315.181467 -197.773581 
L 309.438933 -197.94369 
L 303.6964 -198.124166 
L 297.953867 -198.316944 
L 292.211333 -198.523307 
L 286.4688 -198.743556 
L 280.726267 -198.97839 
L 280.462466 -198.989198 
L 274.983733 -199.205876 
L 269.2412 -199.445386 
L 263.498667 -199.699856 
L 257.756133 -199.970608 
L 252.742692 -200.219843 
L 252.0136 -200.255372 
L 246.271067 -200.533406 
L 240.528533 -200.826491 
L 234.786 -201.139246 
L 229.456974 -201.450489 
L 229.043467 -201.474289 
L 223.300933 -201.797501 
L 217.5584 -202.142634 
L 211.815867 -202.518292 
L 209.375896 -202.681134 
L 206.073333 -202.896233 
L 200.3308 -203.283139 
L 194.588267 -203.709081 
L 191.933018 -203.91178 
L 188.845733 -204.143575 
L 183.1032 -204.605795 
L 177.360667 -205.128006 
L 177.218995 -205.142425 
L 171.618133 -205.706674 
L 166.284401 -206.37307 
L 165.8756 -206.423049 
L 160.133067 -207.315628 
L 158.658273 -207.603716 
L 154.390533 -208.410528 
L 152.555297 -208.834361 
L 148.648 -209.700424 
L 147.315568 -210.065007 
L 142.905467 -211.167798 
L 142.537449 -211.295652 
L 138.207473 -212.526298 
L 137.162933 -212.79583 
L 134.595106 -213.756943 
L 131.4204 -214.639472 
L 130.660021 -214.987589 
L 127.353116 -216.218234 
L 125.677867 -216.715045 
L 124.188401 -217.44888 
L 120.94779 -218.679525 
L 119.935333 -218.968076 
L 117.649877 -219.910171 
L 114.1928 -220.651952 
L 108.450267 -220.812836 
L 102.707733 -220.078282 
L 101.916934 -219.910171 
L 97.513018 -218.679525 
L 96.9652 -218.423854 
L 94.302571 -217.44888 
L 92.095556 -216.218234 
L 91.222667 -215.66852 
L 90.298814 -214.987589 
L 87.918469 -213.756943 
L 85.480133 -213.102632 
L 84.842967 -212.526298 
L 83.923945 -211.295652 
L 82.432728 -210.065007 
L 80.754019 -208.834361 
L 79.7376 -208.114056 
L 79.254048 -207.603716 
L 78.295464 -206.37307 
L 77.35161 -205.142425 
L 75.873694 -203.91178 
L 75.02984 -202.681134 
L 73.995067 -201.916732 
L 73.523271 -201.450489 
L 72.38106 -200.219843 
L 71.347752 -198.989198 
L 70.368253 -197.758552 
L 69.128864 -196.527907 
L 68.252533 -195.883714 
L 67.536947 -195.297261 
L 66.442249 -194.066616 
L 65.527765 -192.83597 
L 64.691674 -191.605325 
L 63.929194 -190.374679 
L 63.391862 -189.144034 
L 62.725052 -187.913388 
L 62.51 -187.635565 
L 62.51 -186.682743 
L 62.51 -185.452097 
L 62.51 -184.221452 
L 62.51 -182.990807 
L 62.51 -181.760161 
L 62.51 -180.529516 
L 62.51 -179.29887 
L 62.51 -178.068225 
L 62.51 -176.837579 
L 62.51 -175.606934 
L 62.51 -174.376288 
L 62.51 -173.145643 
L 62.51 -171.914997 
L 62.51 -170.684352 
L 62.51 -169.453706 
L 62.51 -168.223061 
L 62.51 -167.374639 
z
M 194.588267 -196.527907 
L 194.588267 -196.527907 
L 194.588267 -196.527907 
L 194.588267 -196.527907 
z
" id="m7d95da695a" style="stroke:#006d2c;"/>
    </defs>
    <g clip-path="url(#p4e7398d80b)">
     <use style="fill:#006d2c;stroke:#006d2c;" x="0" xlink:href="#m7d95da695a" y="360"/>
    </g>
   </g>
   <g id="PathCollection_2">
    <path clip-path="url(#p4e7398d80b)" d="M 62.570677 204.083394 
L 62.834012 202.852748 
L 63.112269 201.622103 
L 63.412145 200.391457 
L 63.741796 199.160812 
L 64.109811 197.930167 
L 64.519545 196.699521 
L 64.965154 195.468876 
L 65.43872 194.23823 
L 65.934498 193.007585 
L 66.44722 191.776939 
L 66.971761 190.546294 
L 67.506923 189.315648 
L 68.039581 188.085003 
L 68.252533 187.492333 
L 68.401425 186.854357 
L 68.721562 185.623712 
L 69.098252 184.393066 
L 69.53952 183.162421 
L 70.048689 181.931775 
L 70.638217 180.70113 
L 71.347995 179.470484 
L 72.208942 178.239839 
L 73.12269 177.009193 
L 73.978121 175.778548 
L 73.995067 175.750228 
L 74.413195 174.547903 
L 74.916363 173.317257 
L 75.721061 172.086612 
L 76.833088 170.855966 
L 78.012609 169.625321 
L 79.133395 168.394675 
L 79.7376 167.612063 
L 80.172409 167.16403 
L 81.427322 165.933384 
L 83.017879 164.702739 
L 85.045563 163.472093 
L 85.480133 163.232189 
L 88.787822 162.241448 
L 91.222667 161.391722 
L 96.9652 161.415782 
L 102.707733 161.693642 
L 108.450267 162.093241 
L 110.124522 162.241448 
L 114.1928 162.608815 
L 119.935333 163.236919 
L 121.849225 163.472093 
L 125.677867 163.897345 
L 131.4204 164.619118 
L 132.028262 164.702739 
L 137.162933 165.324438 
L 142.905467 165.864192 
L 143.678286 165.933384 
L 148.648 166.391995 
L 154.390533 166.870714 
L 158.983611 167.16403 
L 160.133067 167.260944 
L 165.8756 167.714991 
L 171.618133 168.009264 
L 177.360667 168.2148 
L 183.1032 168.37185 
L 184.23968 168.394675 
L 188.845733 168.512316 
L 194.588267 168.603145 
L 200.3308 168.655616 
L 206.073333 168.679092 
L 211.815867 168.680281 
L 217.5584 168.664144 
L 223.300933 168.634455 
L 229.043467 168.594143 
L 234.786 168.545521 
L 240.528533 168.490466 
L 246.271067 168.430549 
L 249.506714 168.394675 
L 252.0136 168.373778 
L 257.756133 168.324186 
L 263.498667 168.27376 
L 269.2412 168.222866 
L 274.983733 168.171768 
L 280.726267 168.120651 
L 286.4688 168.069649 
L 292.211333 168.018985 
L 297.953867 167.968646 
L 303.6964 167.918645 
L 309.438933 167.868987 
L 315.181467 167.819675 
L 320.924 167.771088 
L 326.666533 167.72305 
L 332.409067 167.675517 
L 338.1516 167.628542 
L 343.894133 167.582693 
L 349.636667 167.537783 
L 355.3792 167.493751 
L 361.121733 167.450904 
L 366.864267 167.409728 
L 372.6068 167.369747 
L 378.349333 167.331146 
L 384.091867 167.2946 
L 389.8344 167.259395 
L 395.576933 167.225744 
L 401.319467 167.194054 
L 406.98178 167.16403 
L 407.062 167.163798 
L 412.804533 167.147684 
L 412.804533 166.432826 
L 407.062 166.430147 
L 401.319467 166.427262 
L 395.576933 166.42424 
L 389.8344 166.420919 
L 384.091867 166.417349 
L 378.349333 166.413545 
L 372.6068 166.409282 
L 366.864267 166.404651 
L 361.121733 166.399635 
L 355.3792 166.394004 
L 349.636667 166.387792 
L 343.894133 166.381014 
L 338.1516 166.373568 
L 332.409067 166.365273 
L 326.666533 166.356326 
L 320.924 166.346765 
L 315.181467 166.336616 
L 309.438933 166.32584 
L 303.6964 166.314819 
L 297.953867 166.303768 
L 292.211333 166.292938 
L 286.4688 166.282619 
L 280.726267 166.273106 
L 274.983733 166.264902 
L 269.2412 166.258445 
L 263.498667 166.254181 
L 257.756133 166.252547 
L 252.0136 166.253923 
L 246.271067 166.258582 
L 240.528533 166.266648 
L 234.786 166.278115 
L 229.043467 166.292956 
L 223.300933 166.311431 
L 217.5584 166.334639 
L 211.815867 166.364978 
L 206.073333 166.400728 
L 200.3308 166.412933 
L 194.588267 166.373665 
L 188.845733 166.263549 
L 183.1032 166.046326 
L 180.59409 165.933384 
L 177.360667 165.797005 
L 171.618133 165.568373 
L 165.8756 165.268682 
L 160.133067 164.706937 
L 160.093125 164.702739 
L 154.390533 164.002072 
L 150.861373 163.472093 
L 148.648 163.083806 
L 143.981146 162.241448 
L 142.905467 161.985703 
L 138.092374 161.010802 
L 137.162933 160.759408 
L 133.022882 159.780157 
L 131.4204 159.319826 
L 128.722844 158.549511 
L 125.677867 157.611315 
L 124.772177 157.318866 
L 121.271552 156.08822 
L 119.935333 155.58745 
L 116.957965 154.857575 
L 114.1928 154.090556 
L 108.450267 153.677099 
L 102.707733 153.79197 
L 96.9652 154.476999 
L 95.990596 154.857575 
L 91.222667 155.98201 
L 90.421336 156.08822 
L 85.480133 156.991812 
L 85.1607 157.318866 
L 83.786091 158.549511 
L 81.924723 159.780157 
L 79.786902 161.010802 
L 79.7376 161.039752 
L 78.427954 162.241448 
L 77.873855 163.472093 
L 77.534255 164.702739 
L 76.336485 165.933384 
L 75.199201 167.16403 
L 74.079688 168.394675 
L 73.995067 168.493973 
L 73.018747 169.625321 
L 72.291171 170.855966 
L 71.535935 172.086612 
L 70.828466 173.317257 
L 70.141473 174.547903 
L 69.471735 175.778548 
L 68.853116 177.009193 
L 68.32879 178.239839 
L 68.252533 178.443872 
L 67.372289 179.470484 
L 66.723892 180.70113 
L 66.292795 181.931775 
L 65.998172 183.162421 
L 65.804115 184.393066 
L 65.685365 185.623712 
L 65.33959 186.854357 
L 64.862726 188.085003 
L 63.902795 189.315648 
L 63.308551 190.546294 
L 62.816049 191.776939 
L 62.51 192.625361 
L 62.51 193.007585 
L 62.51 194.23823 
L 62.51 195.468876 
L 62.51 196.699521 
L 62.51 197.930167 
L 62.51 199.160812 
L 62.51 200.391457 
L 62.51 201.622103 
L 62.51 202.852748 
L 62.51 204.083394 
L 62.51 204.368965 
z
" style="fill:#42ab5d;stroke:#42ab5d;"/>
    <path clip-path="url(#p4e7398d80b)" d="M 62.725052 172.086612 
L 63.391862 170.855966 
L 63.929194 169.625321 
L 64.691674 168.394675 
L 65.527765 167.16403 
L 66.442249 165.933384 
L 67.536947 164.702739 
L 68.252533 164.116286 
L 69.128864 163.472093 
L 70.368253 162.241448 
L 71.347752 161.010802 
L 72.38106 159.780157 
L 73.523271 158.549511 
L 73.995067 158.083268 
L 75.02984 157.318866 
L 75.873694 156.08822 
L 77.35161 154.857575 
L 78.295464 153.62693 
L 79.254048 152.396284 
L 79.7376 151.885944 
L 80.754019 151.165639 
L 82.432728 149.934993 
L 83.923945 148.704348 
L 84.842967 147.473702 
L 85.480133 146.897368 
L 87.918469 146.243057 
L 90.298814 145.012411 
L 91.222667 144.33148 
L 92.095556 143.781766 
L 94.302571 142.55112 
L 96.9652 141.576146 
L 97.513018 141.320475 
L 101.916934 140.089829 
L 102.707733 139.921718 
L 108.450267 139.187164 
L 114.1928 139.348048 
L 117.649877 140.089829 
L 119.935333 141.031924 
L 120.94779 141.320475 
L 124.188401 142.55112 
L 125.677867 143.284955 
L 127.353116 143.781766 
L 130.660021 145.012411 
L 131.4204 145.360528 
L 134.595106 146.243057 
L 137.162933 147.20417 
L 138.207473 147.473702 
L 142.537449 148.704348 
L 142.905467 148.832202 
L 147.315568 149.934993 
L 148.648 150.299576 
L 152.555297 151.165639 
L 154.390533 151.589472 
L 158.658273 152.396284 
L 160.133067 152.684372 
L 165.8756 153.576951 
L 166.284401 153.62693 
L 171.618133 154.293326 
L 177.218995 154.857575 
L 177.360667 154.871994 
L 183.1032 155.394205 
L 188.845733 155.856425 
L 191.933018 156.08822 
L 194.588267 156.290919 
L 200.3308 156.716861 
L 206.073333 157.103767 
L 209.375896 157.318866 
L 211.815867 157.481708 
L 217.5584 157.857366 
L 223.300933 158.202499 
L 229.043467 158.525711 
L 229.456974 158.549511 
L 234.786 158.860754 
L 240.528533 159.173509 
L 246.271067 159.466594 
L 252.0136 159.744628 
L 252.742692 159.780157 
L 257.756133 160.029392 
L 263.498667 160.300144 
L 269.2412 160.554614 
L 274.983733 160.794124 
L 280.462466 161.010802 
L 280.726267 161.02161 
L 286.4688 161.256444 
L 292.211333 161.476693 
L 297.953867 161.683056 
L 303.6964 161.875834 
L 309.438933 162.05631 
L 315.181467 162.226419 
L 315.69813 162.241448 
L 320.924 162.400949 
L 326.666533 162.568723 
L 332.409067 162.727569 
L 338.1516 162.876803 
L 343.894133 163.014569 
L 349.636667 163.142914 
L 355.3792 163.263594 
L 361.121733 163.377215 
L 366.210684 163.472093 
L 366.864267 163.484671 
L 372.6068 163.596605 
L 378.349333 163.705844 
L 384.091867 163.809541 
L 389.8344 163.909405 
L 395.576933 164.004209 
L 401.319467 164.092393 
L 407.062 164.176078 
L 412.804533 164.254108 
L 412.804533 163.472093 
L 412.804533 162.960653 
L 407.062 162.831886 
L 401.319467 162.679942 
L 395.576933 162.50617 
L 389.8344 162.317492 
L 387.437295 162.241448 
L 384.091867 162.172328 
L 378.349333 162.046651 
L 372.6068 161.905816 
L 366.864267 161.746891 
L 361.121733 161.561335 
L 355.3792 161.341534 
L 349.636667 161.098093 
L 347.542258 161.010802 
L 343.894133 160.898031 
L 338.1516 160.710151 
L 332.409067 160.492681 
L 326.666533 160.238264 
L 320.924 159.949795 
L 317.650504 159.780157 
L 315.181467 159.677458 
L 309.438933 159.424043 
L 303.6964 159.130469 
L 297.953867 158.794782 
L 293.985114 158.549511 
L 292.211333 158.455964 
L 286.4688 158.137899 
L 280.726267 157.768007 
L 274.983733 157.353773 
L 274.491748 157.318866 
L 269.2412 156.978667 
L 263.498667 156.552517 
L 257.894189 156.08822 
L 257.756133 156.077757 
L 252.0136 155.636212 
L 246.271067 155.128709 
L 243.334999 154.857575 
L 240.528533 154.611443 
L 234.786 154.067079 
L 230.506583 153.62693 
L 229.043467 153.482344 
L 223.300933 152.889683 
L 218.918274 152.396284 
L 217.5584 152.246989 
L 211.815867 151.592396 
L 208.308642 151.165639 
L 206.073333 150.896207 
L 200.3308 150.16495 
L 198.570625 149.934993 
L 194.588267 149.411735 
L 189.582516 148.704348 
L 188.845733 148.599357 
L 183.1032 147.757947 
L 181.256427 147.473702 
L 177.360667 146.863134 
L 173.654224 146.243057 
L 171.618133 145.896412 
L 166.739131 145.012411 
L 165.8756 144.85358 
L 160.361858 143.781766 
L 160.133067 143.736853 
L 154.390533 142.564825 
L 154.323298 142.55112 
L 148.648 141.385523 
L 148.330614 141.320475 
L 142.905467 140.252471 
L 142.162731 140.089829 
L 137.162933 139.098348 
L 136.114557 138.859184 
L 131.4204 137.887584 
L 130.204492 137.628538 
L 125.677867 136.72773 
L 123.746401 136.397893 
L 119.935333 135.777891 
L 114.803061 135.167247 
L 114.1928 135.092214 
L 108.450267 134.743061 
L 102.707733 135.02235 
L 102.028959 135.167247 
L 96.9652 136.159519 
L 96.544995 136.397893 
L 93.741108 137.628538 
L 91.222667 138.475145 
L 90.831717 138.859184 
L 89.562992 140.089829 
L 88.168732 141.320475 
L 86.527833 142.55112 
L 85.480133 143.238868 
L 84.998373 143.781766 
L 83.939066 145.012411 
L 82.801194 146.243057 
L 81.682465 147.473702 
L 80.621349 148.704348 
L 79.7376 149.227797 
L 78.382874 149.934993 
L 77.018125 151.165639 
L 75.989334 152.396284 
L 75.094712 153.62693 
L 74.026945 154.857575 
L 73.995067 154.879757 
L 71.352112 156.08822 
L 70.014152 157.318866 
L 68.784281 158.549511 
L 68.252533 159.093601 
L 67.131367 159.780157 
L 65.608697 161.010802 
L 64.386723 162.241448 
L 63.296395 163.472093 
L 62.51 164.476823 
L 62.51 164.702739 
L 62.51 165.933384 
L 62.51 167.16403 
L 62.51 168.394675 
L 62.51 169.625321 
L 62.51 170.855966 
L 62.51 172.086612 
L 62.51 172.364435 
z
" style="fill:#42ab5d;stroke:#42ab5d;"/>
   </g>
   <g id="PathCollection_3">
    <path clip-path="url(#p4e7398d80b)" d="M 62.744068 212.697912 
L 63.029486 211.467267 
L 63.332528 210.236621 
L 63.648064 209.005976 
L 63.971503 207.77533 
L 64.300202 206.544685 
L 64.634802 205.314039 
L 64.979385 204.083394 
L 65.340492 202.852748 
L 65.726156 201.622103 
L 66.145946 200.391457 
L 66.61132 199.160812 
L 67.131628 197.930167 
L 67.700997 196.699521 
L 68.252533 195.555032 
L 68.267488 195.468876 
L 68.488137 194.23823 
L 68.739467 193.007585 
L 69.02583 191.776939 
L 69.346819 190.546294 
L 69.696023 189.315648 
L 70.066226 188.085003 
L 70.464871 186.854357 
L 70.923373 185.623712 
L 71.468399 184.393066 
L 72.102836 183.162421 
L 72.837632 181.931775 
L 73.706919 180.70113 
L 73.995067 180.34372 
L 74.45129 179.470484 
L 75.143628 178.239839 
L 75.781356 177.009193 
L 76.377556 175.778548 
L 77.032241 174.547903 
L 77.92217 173.317257 
L 79.499995 172.086612 
L 79.7376 171.904726 
L 81.733254 170.855966 
L 83.339956 169.625321 
L 84.857625 168.394675 
L 85.480133 167.909536 
L 89.137677 167.16403 
L 91.222667 166.715037 
L 96.9652 166.136283 
L 102.707733 166.320068 
L 108.450267 166.772794 
L 112.120239 167.16403 
L 114.1928 167.364835 
L 119.935333 168.112713 
L 122.163588 168.394675 
L 125.677867 168.829664 
L 131.4204 169.42008 
L 133.714112 169.625321 
L 137.162933 169.957164 
L 142.905467 170.467886 
L 147.861024 170.855966 
L 148.648 170.916692 
L 154.390533 171.255814 
L 160.133067 171.541501 
L 165.8756 171.786474 
L 171.618133 171.983696 
L 175.195168 172.086612 
L 177.360667 172.146777 
L 183.1032 172.274572 
L 188.845733 172.362596 
L 194.588267 172.405617 
L 200.3308 172.412936 
L 206.073333 172.38825 
L 211.815867 172.336089 
L 217.5584 172.261292 
L 223.300933 172.168686 
L 227.720652 172.086612 
L 229.043467 172.060902 
L 234.786 171.934322 
L 240.528533 171.798299 
L 246.271067 171.655734 
L 252.0136 171.50907 
L 257.756133 171.360413 
L 263.498667 171.211746 
L 269.2412 171.065211 
L 274.983733 170.923381 
L 277.785144 170.855966 
L 280.726267 170.783777 
L 286.4688 170.642049 
L 292.211333 170.502072 
L 297.953867 170.363994 
L 303.6964 170.228013 
L 309.438933 170.09466 
L 315.181467 169.965051 
L 320.924 169.841731 
L 326.666533 169.726953 
L 332.30649 169.625321 
L 332.409067 169.623468 
L 338.1516 169.519487 
L 343.894133 169.418576 
L 349.636667 169.319714 
L 355.3792 169.222002 
L 361.121733 169.12527 
L 366.864267 169.029993 
L 372.6068 168.935247 
L 378.349333 168.841843 
L 384.091867 168.752218 
L 389.8344 168.666452 
L 395.576933 168.586869 
L 401.319467 168.516422 
L 407.062 168.455877 
L 412.804533 168.40674 
L 412.804533 168.394675 
L 412.804533 167.16403 
L 412.804533 167.147684 
L 407.062 167.163798 
L 406.98178 167.16403 
L 401.319467 167.194054 
L 395.576933 167.225744 
L 389.8344 167.259395 
L 384.091867 167.2946 
L 378.349333 167.331146 
L 372.6068 167.369747 
L 366.864267 167.409728 
L 361.121733 167.450904 
L 355.3792 167.493751 
L 349.636667 167.537783 
L 343.894133 167.582693 
L 338.1516 167.628542 
L 332.409067 167.675517 
L 326.666533 167.72305 
L 320.924 167.771088 
L 315.181467 167.819675 
L 309.438933 167.868987 
L 303.6964 167.918645 
L 297.953867 167.968646 
L 292.211333 168.018985 
L 286.4688 168.069649 
L 280.726267 168.120651 
L 274.983733 168.171768 
L 269.2412 168.222866 
L 263.498667 168.27376 
L 257.756133 168.324186 
L 252.0136 168.373778 
L 249.506714 168.394675 
L 246.271067 168.430549 
L 240.528533 168.490466 
L 234.786 168.545521 
L 229.043467 168.594143 
L 223.300933 168.634455 
L 217.5584 168.664144 
L 211.815867 168.680281 
L 206.073333 168.679092 
L 200.3308 168.655616 
L 194.588267 168.603145 
L 188.845733 168.512316 
L 184.23968 168.394675 
L 183.1032 168.37185 
L 177.360667 168.2148 
L 171.618133 168.009264 
L 165.8756 167.714991 
L 160.133067 167.260944 
L 158.983611 167.16403 
L 154.390533 166.870714 
L 148.648 166.391995 
L 143.678286 165.933384 
L 142.905467 165.864192 
L 137.162933 165.324438 
L 132.028262 164.702739 
L 131.4204 164.619118 
L 125.677867 163.897345 
L 121.849225 163.472093 
L 119.935333 163.236919 
L 114.1928 162.608815 
L 110.124522 162.241448 
L 108.450267 162.093241 
L 102.707733 161.693642 
L 96.9652 161.415782 
L 91.222667 161.391722 
L 88.787822 162.241448 
L 85.480133 163.232189 
L 85.045563 163.472093 
L 83.017879 164.702739 
L 81.427322 165.933384 
L 80.172409 167.16403 
L 79.7376 167.612063 
L 79.133395 168.394675 
L 78.012609 169.625321 
L 76.833088 170.855966 
L 75.721061 172.086612 
L 74.916363 173.317257 
L 74.413195 174.547903 
L 73.995067 175.750228 
L 73.978121 175.778548 
L 73.12269 177.009193 
L 72.208942 178.239839 
L 71.347995 179.470484 
L 70.638217 180.70113 
L 70.048689 181.931775 
L 69.53952 183.162421 
L 69.098252 184.393066 
L 68.721562 185.623712 
L 68.401425 186.854357 
L 68.252533 187.492333 
L 68.039581 188.085003 
L 67.506923 189.315648 
L 66.971761 190.546294 
L 66.44722 191.776939 
L 65.934498 193.007585 
L 65.43872 194.23823 
L 64.965154 195.468876 
L 64.519545 196.699521 
L 64.109811 197.930167 
L 63.741796 199.160812 
L 63.412145 200.391457 
L 63.112269 201.622103 
L 62.834012 202.852748 
L 62.570677 204.083394 
L 62.51 204.368965 
L 62.51 205.314039 
L 62.51 206.544685 
L 62.51 207.77533 
L 62.51 209.005976 
L 62.51 210.236621 
L 62.51 211.467267 
L 62.51 212.697912 
L 62.51 213.787837 
z
" style="fill:#a2d99c;stroke:#a2d99c;"/>
    <path clip-path="url(#p4e7398d80b)" d="M 63.296395 163.472093 
L 64.386723 162.241448 
L 65.608697 161.010802 
L 67.131367 159.780157 
L 68.252533 159.093601 
L 68.784281 158.549511 
L 70.014152 157.318866 
L 71.352112 156.08822 
L 73.995067 154.879757 
L 74.026945 154.857575 
L 75.094712 153.62693 
L 75.989334 152.396284 
L 77.018125 151.165639 
L 78.382874 149.934993 
L 79.7376 149.227797 
L 80.621349 148.704348 
L 81.682465 147.473702 
L 82.801194 146.243057 
L 83.939066 145.012411 
L 84.998373 143.781766 
L 85.480133 143.238868 
L 86.527833 142.55112 
L 88.168732 141.320475 
L 89.562992 140.089829 
L 90.831717 138.859184 
L 91.222667 138.475145 
L 93.741108 137.628538 
L 96.544995 136.397893 
L 96.9652 136.159519 
L 102.028959 135.167247 
L 102.707733 135.02235 
L 108.450267 134.743061 
L 114.1928 135.092214 
L 114.803061 135.167247 
L 119.935333 135.777891 
L 123.746401 136.397893 
L 125.677867 136.72773 
L 130.204492 137.628538 
L 131.4204 137.887584 
L 136.114557 138.859184 
L 137.162933 139.098348 
L 142.162731 140.089829 
L 142.905467 140.252471 
L 148.330614 141.320475 
L 148.648 141.385523 
L 154.323298 142.55112 
L 154.390533 142.564825 
L 160.133067 143.736853 
L 160.361858 143.781766 
L 165.8756 144.85358 
L 166.739131 145.012411 
L 171.618133 145.896412 
L 173.654224 146.243057 
L 177.360667 146.863134 
L 181.256427 147.473702 
L 183.1032 147.757947 
L 188.845733 148.599357 
L 189.582516 148.704348 
L 194.588267 149.411735 
L 198.570625 149.934993 
L 200.3308 150.16495 
L 206.073333 150.896207 
L 208.308642 151.165639 
L 211.815867 151.592396 
L 217.5584 152.246989 
L 218.918274 152.396284 
L 223.300933 152.889683 
L 229.043467 153.482344 
L 230.506583 153.62693 
L 234.786 154.067079 
L 240.528533 154.611443 
L 243.334999 154.857575 
L 246.271067 155.128709 
L 252.0136 155.636212 
L 257.756133 156.077757 
L 257.894189 156.08822 
L 263.498667 156.552517 
L 269.2412 156.978667 
L 274.491748 157.318866 
L 274.983733 157.353773 
L 280.726267 157.768007 
L 286.4688 158.137899 
L 292.211333 158.455964 
L 293.985114 158.549511 
L 297.953867 158.794782 
L 303.6964 159.130469 
L 309.438933 159.424043 
L 315.181467 159.677458 
L 317.650504 159.780157 
L 320.924 159.949795 
L 326.666533 160.238264 
L 332.409067 160.492681 
L 338.1516 160.710151 
L 343.894133 160.898031 
L 347.542258 161.010802 
L 349.636667 161.098093 
L 355.3792 161.341534 
L 361.121733 161.561335 
L 366.864267 161.746891 
L 372.6068 161.905816 
L 378.349333 162.046651 
L 384.091867 162.172328 
L 387.437295 162.241448 
L 389.8344 162.317492 
L 395.576933 162.50617 
L 401.319467 162.679942 
L 407.062 162.831886 
L 412.804533 162.960653 
L 412.804533 162.241448 
L 412.804533 161.982458 
L 407.062 161.839506 
L 401.319467 161.697885 
L 395.576933 161.555098 
L 389.8344 161.394288 
L 384.091867 161.180255 
L 380.140735 161.010802 
L 378.349333 160.931075 
L 372.6068 160.723639 
L 366.864267 160.53499 
L 361.121733 160.341515 
L 355.3792 160.108242 
L 349.636667 159.802376 
L 349.203193 159.780157 
L 343.894133 159.524384 
L 338.1516 159.282903 
L 332.409067 159.020304 
L 326.666533 158.681127 
L 324.586271 158.549511 
L 320.924 158.325448 
L 315.181467 158.023311 
L 309.438933 157.682867 
L 304.524126 157.318866 
L 303.6964 157.254165 
L 297.953867 156.874626 
L 292.211333 156.483537 
L 287.450193 156.08822 
L 286.4688 156.002083 
L 280.726267 155.556023 
L 274.983733 155.07361 
L 272.688725 154.857575 
L 269.2412 154.531689 
L 263.498667 154.010502 
L 259.747774 153.62693 
L 257.756133 153.411784 
L 252.0136 152.824037 
L 248.177195 152.396284 
L 246.271067 152.168771 
L 240.528533 151.50869 
L 237.720324 151.165639 
L 234.786 150.784704 
L 229.043467 150.045877 
L 228.213241 149.934993 
L 223.300933 149.248287 
L 219.477234 148.704348 
L 217.5584 148.410305 
L 211.815867 147.537887 
L 211.399545 147.473702 
L 206.073333 146.608817 
L 203.848805 146.243057 
L 200.3308 145.629492 
L 196.804547 145.012411 
L 194.588267 144.601359 
L 190.166443 143.781766 
L 188.845733 143.523434 
L 183.865289 142.55112 
L 183.1032 142.394934 
L 177.823313 141.320475 
L 177.360667 141.222098 
L 171.967576 140.089829 
L 171.618133 140.013351 
L 166.231577 138.859184 
L 165.8756 138.779561 
L 160.537532 137.628538 
L 160.133067 137.537014 
L 154.874596 136.397893 
L 154.390533 136.28727 
L 149.294282 135.167247 
L 148.648 135.017712 
L 143.848491 133.936602 
L 142.905467 133.714203 
L 138.543239 132.705957 
L 137.162933 132.365708 
L 133.071708 131.475311 
L 131.4204 131.079269 
L 127.478799 130.244666 
L 125.677867 129.839681 
L 121.767591 129.01402 
L 119.935333 128.629419 
L 115.197423 127.783375 
L 114.1928 127.617634 
L 108.450267 127.19189 
L 102.707733 127.601173 
L 102.186944 127.783375 
L 98.276535 129.01402 
L 96.9652 129.382791 
L 95.766151 130.244666 
L 94.074768 131.475311 
L 92.226186 132.705957 
L 91.222667 133.310028 
L 90.645045 133.936602 
L 89.520136 135.167247 
L 88.343276 136.397893 
L 87.073722 137.628538 
L 85.671631 138.859184 
L 85.480133 139.014432 
L 84.554236 140.089829 
L 83.391228 141.320475 
L 82.216111 142.55112 
L 81.129455 143.781766 
L 80.177931 145.012411 
L 79.7376 145.624897 
L 79.174562 146.243057 
L 77.856659 147.473702 
L 76.270255 148.704348 
L 74.63562 149.934993 
L 73.995067 150.656175 
L 72.705034 151.165639 
L 70.367055 152.396284 
L 68.549099 153.62693 
L 68.252533 153.84442 
L 65.292092 154.857575 
L 62.675921 156.08822 
L 62.51 156.187429 
L 62.51 157.318866 
L 62.51 158.549511 
L 62.51 159.780157 
L 62.51 161.010802 
L 62.51 162.241448 
L 62.51 163.472093 
L 62.51 164.476823 
z
" style="fill:#a2d99c;stroke:#a2d99c;"/>
   </g>
   <g id="PathCollection_4">
    <path clip-path="url(#p4e7398d80b)" d="M 62.62371 221.31243 
L 62.810766 220.081785 
L 63.021964 218.85114 
L 63.262621 217.620494 
L 63.536428 216.389849 
L 63.843919 215.159203 
L 64.18096 213.928558 
L 64.540962 212.697912 
L 64.918725 211.467267 
L 65.310289 210.236621 
L 65.711656 209.005976 
L 66.119318 207.77533 
L 66.53213 206.544685 
L 66.952851 205.314039 
L 67.388093 204.083394 
L 67.846972 202.852748 
L 68.252533 201.833081 
L 68.252533 201.622103 
L 68.252533 200.391457 
L 68.252533 199.160812 
L 68.673792 199.070535 
L 68.850995 197.930167 
L 69.113999 196.699521 
L 69.413439 195.468876 
L 69.752305 194.23823 
L 70.135476 193.007585 
L 70.563722 191.776939 
L 71.02938 190.546294 
L 71.516031 189.315648 
L 72.010229 188.085003 
L 72.528317 186.854357 
L 73.125183 185.623712 
L 73.838546 184.393066 
L 73.995067 184.145173 
L 74.385698 183.162421 
L 74.961267 181.931775 
L 75.644218 180.70113 
L 76.439918 179.470484 
L 77.271869 178.239839 
L 78.026352 177.009193 
L 78.769038 175.778548 
L 79.651287 174.547903 
L 79.7376 174.45336 
L 82.892074 173.317257 
L 85.480133 172.123943 
L 85.756087 172.086612 
L 91.222667 171.25442 
L 96.9652 171.116943 
L 102.707733 171.062645 
L 108.450267 171.217057 
L 114.1928 171.579271 
L 119.935333 172.007065 
L 120.835203 172.086612 
L 125.677867 172.48485 
L 131.4204 173.051496 
L 133.936503 173.317257 
L 137.162933 173.640504 
L 142.905467 174.165602 
L 147.435625 174.547903 
L 148.648 174.652609 
L 154.390533 175.063516 
L 160.133067 175.376354 
L 165.8756 175.621234 
L 171.182938 175.778548 
L 171.618133 175.790906 
L 177.360667 175.890662 
L 183.1032 175.934154 
L 188.845733 175.929525 
L 194.588267 175.878034 
L 200.3308 175.792717 
L 201.012695 175.778548 
L 206.073333 175.664915 
L 211.815867 175.511571 
L 217.5584 175.342278 
L 223.300933 175.163384 
L 229.043467 174.978281 
L 234.786 174.786308 
L 240.528533 174.583069 
L 241.417565 174.547903 
L 246.271067 174.325727 
L 252.0136 174.079615 
L 257.756133 173.85757 
L 263.498667 173.65242 
L 269.2412 173.451246 
L 272.821876 173.317257 
L 274.983733 173.211994 
L 280.726267 172.943703 
L 286.4688 172.717608 
L 292.211333 172.524884 
L 297.953867 172.349946 
L 303.6964 172.176584 
L 306.423191 172.086612 
L 309.438933 171.946634 
L 315.181467 171.702096 
L 320.924 171.504845 
L 326.666533 171.342943 
L 332.409067 171.201988 
L 338.1516 171.069423 
L 343.894133 170.935042 
L 347.033867 170.855966 
L 349.636667 170.751371 
L 355.3792 170.534553 
L 361.121733 170.359709 
L 366.864267 170.220954 
L 372.6068 170.105469 
L 378.349333 170.004316 
L 384.091867 169.910086 
L 389.8344 169.807437 
L 395.576933 169.71534 
L 401.319467 169.638026 
L 402.22093 169.625321 
L 407.062 169.471462 
L 412.804533 169.30926 
L 412.804533 168.40674 
L 407.062 168.455877 
L 401.319467 168.516422 
L 395.576933 168.586869 
L 389.8344 168.666452 
L 384.091867 168.752218 
L 378.349333 168.841843 
L 372.6068 168.935247 
L 366.864267 169.029993 
L 361.121733 169.12527 
L 355.3792 169.222002 
L 349.636667 169.319714 
L 343.894133 169.418576 
L 338.1516 169.519487 
L 332.409067 169.623468 
L 332.30649 169.625321 
L 326.666533 169.726953 
L 320.924 169.841731 
L 315.181467 169.965051 
L 309.438933 170.09466 
L 303.6964 170.228013 
L 297.953867 170.363994 
L 292.211333 170.502072 
L 286.4688 170.642049 
L 280.726267 170.783777 
L 277.785144 170.855966 
L 274.983733 170.923381 
L 269.2412 171.065211 
L 263.498667 171.211746 
L 257.756133 171.360413 
L 252.0136 171.50907 
L 246.271067 171.655734 
L 240.528533 171.798299 
L 234.786 171.934322 
L 229.043467 172.060902 
L 227.720652 172.086612 
L 223.300933 172.168686 
L 217.5584 172.261292 
L 211.815867 172.336089 
L 206.073333 172.38825 
L 200.3308 172.412936 
L 194.588267 172.405617 
L 188.845733 172.362596 
L 183.1032 172.274572 
L 177.360667 172.146777 
L 175.195168 172.086612 
L 171.618133 171.983696 
L 165.8756 171.786474 
L 160.133067 171.541501 
L 154.390533 171.255814 
L 148.648 170.916692 
L 147.861024 170.855966 
L 142.905467 170.467886 
L 137.162933 169.957164 
L 133.714112 169.625321 
L 131.4204 169.42008 
L 125.677867 168.829664 
L 122.163588 168.394675 
L 119.935333 168.112713 
L 114.1928 167.364835 
L 112.120239 167.16403 
L 108.450267 166.772794 
L 102.707733 166.320068 
L 96.9652 166.136283 
L 91.222667 166.715037 
L 89.137677 167.16403 
L 85.480133 167.909536 
L 84.857625 168.394675 
L 83.339956 169.625321 
L 81.733254 170.855966 
L 79.7376 171.904726 
L 79.499995 172.086612 
L 77.92217 173.317257 
L 77.032241 174.547903 
L 76.377556 175.778548 
L 75.781356 177.009193 
L 75.143628 178.239839 
L 74.45129 179.470484 
L 73.995067 180.34372 
L 73.706919 180.70113 
L 72.837632 181.931775 
L 72.102836 183.162421 
L 71.468399 184.393066 
L 70.923373 185.623712 
L 70.464871 186.854357 
L 70.066226 188.085003 
L 69.696023 189.315648 
L 69.346819 190.546294 
L 69.02583 191.776939 
L 68.739467 193.007585 
L 68.488137 194.23823 
L 68.267488 195.468876 
L 68.252533 195.555032 
L 67.700997 196.699521 
L 67.131628 197.930167 
L 66.61132 199.160812 
L 66.145946 200.391457 
L 65.726156 201.622103 
L 65.340492 202.852748 
L 64.979385 204.083394 
L 64.634802 205.314039 
L 64.300202 206.544685 
L 63.971503 207.77533 
L 63.648064 209.005976 
L 63.332528 210.236621 
L 63.029486 211.467267 
L 62.744068 212.697912 
L 62.51 213.787837 
L 62.51 213.928558 
L 62.51 215.159203 
L 62.51 216.389849 
L 62.51 217.620494 
L 62.51 218.85114 
L 62.51 220.081785 
L 62.51 221.31243 
L 62.51 222.123112 
z
" style="fill:#e5f5e1;stroke:#e5f5e1;"/>
    <path clip-path="url(#p4e7398d80b)" d="M 384.091867 161.180255 
L 389.8344 161.394288 
L 395.576933 161.555098 
L 401.319467 161.697885 
L 407.062 161.839506 
L 412.804533 161.982458 
L 412.804533 161.153423 
L 407.097776 161.010802 
L 407.062 161.009668 
L 401.319467 160.82022 
L 395.576933 160.607124 
L 389.8344 160.363043 
L 384.091867 160.113068 
L 378.349333 159.901558 
L 374.686298 159.780157 
L 372.6068 159.69316 
L 366.864267 159.431444 
L 361.121733 159.13724 
L 355.3792 158.831461 
L 349.636667 158.56543 
L 349.254686 158.549511 
L 343.894133 158.260133 
L 338.1516 157.909354 
L 332.409067 157.545299 
L 328.416969 157.318866 
L 326.666533 157.208241 
L 320.924 156.813808 
L 315.181467 156.38952 
L 310.872941 156.08822 
L 309.438933 155.980916 
L 303.6964 155.517656 
L 297.953867 155.029753 
L 295.805175 154.857575 
L 292.211333 154.542327 
L 286.4688 153.99524 
L 282.56797 153.62693 
L 280.726267 153.444938 
L 274.983733 152.837135 
L 270.855171 152.396284 
L 269.2412 152.21771 
L 263.498667 151.542821 
L 260.312117 151.165639 
L 257.756133 150.850076 
L 252.0136 150.098332 
L 250.753155 149.934993 
L 246.271067 149.319945 
L 241.963129 148.704348 
L 240.528533 148.493447 
L 234.786 147.611188 
L 233.890396 147.473702 
L 229.043467 146.691031 
L 226.337417 146.243057 
L 223.300933 145.720733 
L 219.294214 145.012411 
L 217.5584 144.695042 
L 212.682886 143.781766 
L 211.815867 143.613844 
L 206.428152 142.55112 
L 206.073333 142.478627 
L 200.468552 141.320475 
L 200.3308 141.290919 
L 194.757639 140.089829 
L 194.588267 140.051841 
L 189.26166 138.859184 
L 188.845733 138.762095 
L 183.961218 137.628538 
L 183.1032 137.420708 
L 178.829579 136.397893 
L 177.360667 136.030635 
L 173.851005 135.167247 
L 171.618133 134.592692 
L 169.015381 133.936602 
L 165.8756 133.107249 
L 164.311343 132.705957 
L 160.133067 131.58204 
L 159.72304 131.475311 
L 155.129596 130.244666 
L 154.390533 130.038726 
L 150.545822 129.01402 
L 148.648 128.483989 
L 145.964832 127.783375 
L 142.905467 126.951702 
L 141.335176 126.552729 
L 137.162933 125.465817 
L 136.565887 125.322084 
L 131.4204 124.106333 
L 131.35455 124.091438 
L 125.722165 122.860793 
L 125.677867 122.851321 
L 119.935333 121.887343 
L 117.503848 121.630147 
L 114.1928 121.305179 
L 108.450267 121.219738 
L 105.635204 121.630147 
L 102.707733 122.061229 
L 100.701994 122.860793 
L 97.682603 124.091438 
L 96.9652 124.37169 
L 95.507499 125.322084 
L 93.660797 126.552729 
L 91.90493 127.783375 
L 91.222667 128.260849 
L 90.47036 129.01402 
L 89.182826 130.244666 
L 87.959693 131.475311 
L 86.838579 132.705957 
L 85.761317 133.936602 
L 85.480133 134.247186 
L 85.008456 135.167247 
L 84.237946 136.397893 
L 83.323447 137.628538 
L 82.230878 138.859184 
L 80.952491 140.089829 
L 79.7376 141.208861 
L 79.616644 141.320475 
L 78.325347 142.55112 
L 77.005456 143.781766 
L 75.725895 145.012411 
L 74.409461 146.243057 
L 73.995067 146.603031 
L 69.668384 147.473702 
L 68.252533 147.831439 
L 62.51 148.674099 
L 62.51 148.704348 
L 62.51 149.934993 
L 62.51 151.165639 
L 62.51 152.396284 
L 62.51 153.62693 
L 62.51 154.857575 
L 62.51 156.08822 
L 62.51 156.187429 
L 62.675921 156.08822 
L 65.292092 154.857575 
L 68.252533 153.84442 
L 68.549099 153.62693 
L 70.367055 152.396284 
L 72.705034 151.165639 
L 73.995067 150.656175 
L 74.63562 149.934993 
L 76.270255 148.704348 
L 77.856659 147.473702 
L 79.174562 146.243057 
L 79.7376 145.624897 
L 80.177931 145.012411 
L 81.129455 143.781766 
L 82.216111 142.55112 
L 83.391228 141.320475 
L 84.554236 140.089829 
L 85.480133 139.014432 
L 85.671631 138.859184 
L 87.073722 137.628538 
L 88.343276 136.397893 
L 89.520136 135.167247 
L 90.645045 133.936602 
L 91.222667 133.310028 
L 92.226186 132.705957 
L 94.074768 131.475311 
L 95.766151 130.244666 
L 96.9652 129.382791 
L 98.276535 129.01402 
L 102.186944 127.783375 
L 102.707733 127.601173 
L 108.450267 127.19189 
L 114.1928 127.617634 
L 115.197423 127.783375 
L 119.935333 128.629419 
L 121.767591 129.01402 
L 125.677867 129.839681 
L 127.478799 130.244666 
L 131.4204 131.079269 
L 133.071708 131.475311 
L 137.162933 132.365708 
L 138.543239 132.705957 
L 142.905467 133.714203 
L 143.848491 133.936602 
L 148.648 135.017712 
L 149.294282 135.167247 
L 154.390533 136.28727 
L 154.874596 136.397893 
L 160.133067 137.537014 
L 160.537532 137.628538 
L 165.8756 138.779561 
L 166.231577 138.859184 
L 171.618133 140.013351 
L 171.967576 140.089829 
L 177.360667 141.222098 
L 177.823313 141.320475 
L 183.1032 142.394934 
L 183.865289 142.55112 
L 188.845733 143.523434 
L 190.166443 143.781766 
L 194.588267 144.601359 
L 196.804547 145.012411 
L 200.3308 145.629492 
L 203.848805 146.243057 
L 206.073333 146.608817 
L 211.399545 147.473702 
L 211.815867 147.537887 
L 217.5584 148.410305 
L 219.477234 148.704348 
L 223.300933 149.248287 
L 228.213241 149.934993 
L 229.043467 150.045877 
L 234.786 150.784704 
L 237.720324 151.165639 
L 240.528533 151.50869 
L 246.271067 152.168771 
L 248.177195 152.396284 
L 252.0136 152.824037 
L 257.756133 153.411784 
L 259.747774 153.62693 
L 263.498667 154.010502 
L 269.2412 154.531689 
L 272.688725 154.857575 
L 274.983733 155.07361 
L 280.726267 155.556023 
L 286.4688 156.002083 
L 287.450193 156.08822 
L 292.211333 156.483537 
L 297.953867 156.874626 
L 303.6964 157.254165 
L 304.524126 157.318866 
L 309.438933 157.682867 
L 315.181467 158.023311 
L 320.924 158.325448 
L 324.586271 158.549511 
L 326.666533 158.681127 
L 332.409067 159.020304 
L 338.1516 159.282903 
L 343.894133 159.524384 
L 349.203193 159.780157 
L 349.636667 159.802376 
L 355.3792 160.108242 
L 361.121733 160.341515 
L 366.864267 160.53499 
L 372.6068 160.723639 
L 378.349333 160.931075 
L 380.140735 161.010802 
z
" style="fill:#e5f5e1;stroke:#e5f5e1;"/>
   </g>
   <g id="matplotlib.axis_1">
    <g id="xtick_1">
     <g id="line2d_1">
      <path clip-path="url(#p4e7398d80b)" d="M 62.51 318.04 
L 62.51 14.76 
" style="fill:none;stroke:#b0b0b0;stroke-linecap:square;stroke-width:0.8;"/>
     </g>
     <g id="line2d_2">
      <defs>
       <path d="M 0 0 
L 0 3.5 
" id="m21aecd672c" style="stroke:#000000;stroke-width:0.8;"/>
      </defs>
      <g>
       <use style="stroke:#000000;stroke-width:0.8;" x="62.51" xlink:href="#m21aecd672c" y="318.04"/>
      </g>
     </g>
     <g id="text_1">
      <!-- 0.0 -->
      <g transform="translate(54.558437 332.638438)scale(0.1 -0.1)">
       <defs>
        <path d="M 2034 4250 
Q 1547 4250 1301 3770 
Q 1056 3291 1056 2328 
Q 1056 1369 1301 889 
Q 1547 409 2034 409 
Q 2525 409 2770 889 
Q 3016 1369 3016 2328 
Q 3016 3291 2770 3770 
Q 2525 4250 2034 4250 
z
M 2034 4750 
Q 2819 4750 3233 4129 
Q 3647 3509 3647 2328 
Q 3647 1150 3233 529 
Q 2819 -91 2034 -91 
Q 1250 -91 836 529 
Q 422 1150 422 2328 
Q 422 3509 836 4129 
Q 1250 4750 2034 4750 
z
" id="DejaVuSans-30" transform="scale(0.015625)"/>
        <path d="M 684 794 
L 1344 794 
L 1344 0 
L 684 0 
L 684 794 
z
" id="DejaVuSans-2e" transform="scale(0.015625)"/>
       </defs>
       <use xlink:href="#DejaVuSans-30"/>
       <use x="63.623047" xlink:href="#DejaVuSans-2e"/>
       <use x="95.410156" xlink:href="#DejaVuSans-30"/>
      </g>
     </g>
    </g>
    <g id="xtick_2">
     <g id="line2d_3">
      <path clip-path="url(#p4e7398d80b)" d="M 119.935333 318.04 
L 119.935333 14.76 
" style="fill:none;stroke:#b0b0b0;stroke-linecap:square;stroke-width:0.8;"/>
     </g>
     <g id="line2d_4">
      <g>
       <use style="stroke:#000000;stroke-width:0.8;" x="119.935333" xlink:href="#m21aecd672c" y="318.04"/>
      </g>
     </g>
     <g id="text_2">
      <!-- 0.5 -->
      <g transform="translate(111.983771 332.638438)scale(0.1 -0.1)">
       <defs>
        <path d="M 691 4666 
L 3169 4666 
L 3169 4134 
L 1269 4134 
L 1269 2991 
Q 1406 3038 1543 3061 
Q 1681 3084 1819 3084 
Q 2600 3084 3056 2656 
Q 3513 2228 3513 1497 
Q 3513 744 3044 326 
Q 2575 -91 1722 -91 
Q 1428 -91 1123 -41 
Q 819 9 494 109 
L 494 744 
Q 775 591 1075 516 
Q 1375 441 1709 441 
Q 2250 441 2565 725 
Q 2881 1009 2881 1497 
Q 2881 1984 2565 2268 
Q 2250 2553 1709 2553 
Q 1456 2553 1204 2497 
Q 953 2441 691 2322 
L 691 4666 
z
" id="DejaVuSans-35" transform="scale(0.015625)"/>
       </defs>
       <use xlink:href="#DejaVuSans-30"/>
       <use x="63.623047" xlink:href="#DejaVuSans-2e"/>
       <use x="95.410156" xlink:href="#DejaVuSans-35"/>
      </g>
     </g>
    </g>
    <g id="xtick_3">
     <g id="line2d_5">
      <path clip-path="url(#p4e7398d80b)" d="M 177.360667 318.04 
L 177.360667 14.76 
" style="fill:none;stroke:#b0b0b0;stroke-linecap:square;stroke-width:0.8;"/>
     </g>
     <g id="line2d_6">
      <g>
       <use style="stroke:#000000;stroke-width:0.8;" x="177.360667" xlink:href="#m21aecd672c" y="318.04"/>
      </g>
     </g>
     <g id="text_3">
      <!-- 1.0 -->
      <g transform="translate(169.409104 332.638438)scale(0.1 -0.1)">
       <defs>
        <path d="M 794 531 
L 1825 531 
L 1825 4091 
L 703 3866 
L 703 4441 
L 1819 4666 
L 2450 4666 
L 2450 531 
L 3481 531 
L 3481 0 
L 794 0 
L 794 531 
z
" id="DejaVuSans-31" transform="scale(0.015625)"/>
       </defs>
       <use xlink:href="#DejaVuSans-31"/>
       <use x="63.623047" xlink:href="#DejaVuSans-2e"/>
       <use x="95.410156" xlink:href="#DejaVuSans-30"/>
      </g>
     </g>
    </g>
    <g id="xtick_4">
     <g id="line2d_7">
      <path clip-path="url(#p4e7398d80b)" d="M 234.786 318.04 
L 234.786 14.76 
" style="fill:none;stroke:#b0b0b0;stroke-linecap:square;stroke-width:0.8;"/>
     </g>
     <g id="line2d_8">
      <g>
       <use style="stroke:#000000;stroke-width:0.8;" x="234.786" xlink:href="#m21aecd672c" y="318.04"/>
      </g>
     </g>
     <g id="text_4">
      <!-- 1.5 -->
      <g transform="translate(226.834438 332.638438)scale(0.1 -0.1)">
       <use xlink:href="#DejaVuSans-31"/>
       <use x="63.623047" xlink:href="#DejaVuSans-2e"/>
       <use x="95.410156" xlink:href="#DejaVuSans-35"/>
      </g>
     </g>
    </g>
    <g id="xtick_5">
     <g id="line2d_9">
      <path clip-path="url(#p4e7398d80b)" d="M 292.211333 318.04 
L 292.211333 14.76 
" style="fill:none;stroke:#b0b0b0;stroke-linecap:square;stroke-width:0.8;"/>
     </g>
     <g id="line2d_10">
      <g>
       <use style="stroke:#000000;stroke-width:0.8;" x="292.211333" xlink:href="#m21aecd672c" y="318.04"/>
      </g>
     </g>
     <g id="text_5">
      <!-- 2.0 -->
      <g transform="translate(284.259771 332.638438)scale(0.1 -0.1)">
       <defs>
        <path d="M 1228 531 
L 3431 531 
L 3431 0 
L 469 0 
L 469 531 
Q 828 903 1448 1529 
Q 2069 2156 2228 2338 
Q 2531 2678 2651 2914 
Q 2772 3150 2772 3378 
Q 2772 3750 2511 3984 
Q 2250 4219 1831 4219 
Q 1534 4219 1204 4116 
Q 875 4013 500 3803 
L 500 4441 
Q 881 4594 1212 4672 
Q 1544 4750 1819 4750 
Q 2544 4750 2975 4387 
Q 3406 4025 3406 3419 
Q 3406 3131 3298 2873 
Q 3191 2616 2906 2266 
Q 2828 2175 2409 1742 
Q 1991 1309 1228 531 
z
" id="DejaVuSans-32" transform="scale(0.015625)"/>
       </defs>
       <use xlink:href="#DejaVuSans-32"/>
       <use x="63.623047" xlink:href="#DejaVuSans-2e"/>
       <use x="95.410156" xlink:href="#DejaVuSans-30"/>
      </g>
     </g>
    </g>
    <g id="xtick_6">
     <g id="line2d_11">
      <path clip-path="url(#p4e7398d80b)" d="M 349.636667 318.04 
L 349.636667 14.76 
" style="fill:none;stroke:#b0b0b0;stroke-linecap:square;stroke-width:0.8;"/>
     </g>
     <g id="line2d_12">
      <g>
       <use style="stroke:#000000;stroke-width:0.8;" x="349.636667" xlink:href="#m21aecd672c" y="318.04"/>
      </g>
     </g>
     <g id="text_6">
      <!-- 2.5 -->
      <g transform="translate(341.685104 332.638438)scale(0.1 -0.1)">
       <use xlink:href="#DejaVuSans-32"/>
       <use x="63.623047" xlink:href="#DejaVuSans-2e"/>
       <use x="95.410156" xlink:href="#DejaVuSans-35"/>
      </g>
     </g>
    </g>
    <g id="xtick_7">
     <g id="line2d_13">
      <path clip-path="url(#p4e7398d80b)" d="M 407.062 318.04 
L 407.062 14.76 
" style="fill:none;stroke:#b0b0b0;stroke-linecap:square;stroke-width:0.8;"/>
     </g>
     <g id="line2d_14">
      <g>
       <use style="stroke:#000000;stroke-width:0.8;" x="407.062" xlink:href="#m21aecd672c" y="318.04"/>
      </g>
     </g>
     <g id="text_7">
      <!-- 3.0 -->
      <g transform="translate(399.110437 332.638438)scale(0.1 -0.1)">
       <defs>
        <path d="M 2597 2516 
Q 3050 2419 3304 2112 
Q 3559 1806 3559 1356 
Q 3559 666 3084 287 
Q 2609 -91 1734 -91 
Q 1441 -91 1130 -33 
Q 819 25 488 141 
L 488 750 
Q 750 597 1062 519 
Q 1375 441 1716 441 
Q 2309 441 2620 675 
Q 2931 909 2931 1356 
Q 2931 1769 2642 2001 
Q 2353 2234 1838 2234 
L 1294 2234 
L 1294 2753 
L 1863 2753 
Q 2328 2753 2575 2939 
Q 2822 3125 2822 3475 
Q 2822 3834 2567 4026 
Q 2313 4219 1838 4219 
Q 1578 4219 1281 4162 
Q 984 4106 628 3988 
L 628 4550 
Q 988 4650 1302 4700 
Q 1616 4750 1894 4750 
Q 2613 4750 3031 4423 
Q 3450 4097 3450 3541 
Q 3450 3153 3228 2886 
Q 3006 2619 2597 2516 
z
" id="DejaVuSans-33" transform="scale(0.015625)"/>
       </defs>
       <use xlink:href="#DejaVuSans-33"/>
       <use x="63.623047" xlink:href="#DejaVuSans-2e"/>
       <use x="95.410156" xlink:href="#DejaVuSans-30"/>
      </g>
     </g>
    </g>
    <g id="text_8">
     <!-- $z$ -->
     <g transform="translate(232.136 346.316563)scale(0.1 -0.1)">
      <defs>
       <path d="M 744 3500 
L 3475 3500 
L 3372 2975 
L 738 459 
L 2913 459 
L 2822 0 
L -19 0 
L 84 525 
L 2719 3041 
L 653 3041 
L 744 3500 
z
" id="DejaVuSans-Oblique-7a" transform="scale(0.015625)"/>
      </defs>
      <use transform="translate(0 0.3125)" xlink:href="#DejaVuSans-Oblique-7a"/>
     </g>
    </g>
   </g>
   <g id="matplotlib.axis_2">
    <g id="ytick_1">
     <g id="line2d_15">
      <path clip-path="url(#p4e7398d80b)" d="M 62.51 318.04 
L 407.062 318.04 
" style="fill:none;stroke:#b0b0b0;stroke-linecap:square;stroke-width:0.8;"/>
     </g>
     <g id="line2d_16">
      <defs>
       <path d="M 0 0 
L -3.5 0 
" id="mdea3e2f8bc" style="stroke:#000000;stroke-width:0.8;"/>
      </defs>
      <g>
       <use style="stroke:#000000;stroke-width:0.8;" x="62.51" xlink:href="#mdea3e2f8bc" y="318.04"/>
      </g>
     </g>
     <g id="text_9">
      <!-- −2.00 -->
      <g transform="translate(24.864687 321.839219)scale(0.1 -0.1)">
       <defs>
        <path d="M 678 2272 
L 4684 2272 
L 4684 1741 
L 678 1741 
L 678 2272 
z
" id="DejaVuSans-2212" transform="scale(0.015625)"/>
       </defs>
       <use xlink:href="#DejaVuSans-2212"/>
       <use x="83.789062" xlink:href="#DejaVuSans-32"/>
       <use x="147.412109" xlink:href="#DejaVuSans-2e"/>
       <use x="179.199219" xlink:href="#DejaVuSans-30"/>
       <use x="242.822266" xlink:href="#DejaVuSans-30"/>
      </g>
     </g>
    </g>
    <g id="ytick_2">
     <g id="line2d_17">
      <path clip-path="url(#p4e7398d80b)" d="M 62.51 280.13 
L 407.062 280.13 
" style="fill:none;stroke:#b0b0b0;stroke-linecap:square;stroke-width:0.8;"/>
     </g>
     <g id="line2d_18">
      <g>
       <use style="stroke:#000000;stroke-width:0.8;" x="62.51" xlink:href="#mdea3e2f8bc" y="280.13"/>
      </g>
     </g>
     <g id="text_10">
      <!-- −1.75 -->
      <g transform="translate(24.864687 283.929219)scale(0.1 -0.1)">
       <defs>
        <path d="M 525 4666 
L 3525 4666 
L 3525 4397 
L 1831 0 
L 1172 0 
L 2766 4134 
L 525 4134 
L 525 4666 
z
" id="DejaVuSans-37" transform="scale(0.015625)"/>
       </defs>
       <use xlink:href="#DejaVuSans-2212"/>
       <use x="83.789062" xlink:href="#DejaVuSans-31"/>
       <use x="147.412109" xlink:href="#DejaVuSans-2e"/>
       <use x="179.199219" xlink:href="#DejaVuSans-37"/>
       <use x="242.822266" xlink:href="#DejaVuSans-35"/>
      </g>
     </g>
    </g>
    <g id="ytick_3">
     <g id="line2d_19">
      <path clip-path="url(#p4e7398d80b)" d="M 62.51 242.22 
L 407.062 242.22 
" style="fill:none;stroke:#b0b0b0;stroke-linecap:square;stroke-width:0.8;"/>
     </g>
     <g id="line2d_20">
      <g>
       <use style="stroke:#000000;stroke-width:0.8;" x="62.51" xlink:href="#mdea3e2f8bc" y="242.22"/>
      </g>
     </g>
     <g id="text_11">
      <!-- −1.50 -->
      <g transform="translate(24.864687 246.019219)scale(0.1 -0.1)">
       <use xlink:href="#DejaVuSans-2212"/>
       <use x="83.789062" xlink:href="#DejaVuSans-31"/>
       <use x="147.412109" xlink:href="#DejaVuSans-2e"/>
       <use x="179.199219" xlink:href="#DejaVuSans-35"/>
       <use x="242.822266" xlink:href="#DejaVuSans-30"/>
      </g>
     </g>
    </g>
    <g id="ytick_4">
     <g id="line2d_21">
      <path clip-path="url(#p4e7398d80b)" d="M 62.51 204.31 
L 407.062 204.31 
" style="fill:none;stroke:#b0b0b0;stroke-linecap:square;stroke-width:0.8;"/>
     </g>
     <g id="line2d_22">
      <g>
       <use style="stroke:#000000;stroke-width:0.8;" x="62.51" xlink:href="#mdea3e2f8bc" y="204.31"/>
      </g>
     </g>
     <g id="text_12">
      <!-- −1.25 -->
      <g transform="translate(24.864687 208.109219)scale(0.1 -0.1)">
       <use xlink:href="#DejaVuSans-2212"/>
       <use x="83.789062" xlink:href="#DejaVuSans-31"/>
       <use x="147.412109" xlink:href="#DejaVuSans-2e"/>
       <use x="179.199219" xlink:href="#DejaVuSans-32"/>
       <use x="242.822266" xlink:href="#DejaVuSans-35"/>
      </g>
     </g>
    </g>
    <g id="ytick_5">
     <g id="line2d_23">
      <path clip-path="url(#p4e7398d80b)" d="M 62.51 166.4 
L 407.062 166.4 
" style="fill:none;stroke:#b0b0b0;stroke-linecap:square;stroke-width:0.8;"/>
     </g>
     <g id="line2d_24">
      <g>
       <use style="stroke:#000000;stroke-width:0.8;" x="62.51" xlink:href="#mdea3e2f8bc" y="166.4"/>
      </g>
     </g>
     <g id="text_13">
      <!-- −1.00 -->
      <g transform="translate(24.864687 170.199219)scale(0.1 -0.1)">
       <use xlink:href="#DejaVuSans-2212"/>
       <use x="83.789062" xlink:href="#DejaVuSans-31"/>
       <use x="147.412109" xlink:href="#DejaVuSans-2e"/>
       <use x="179.199219" xlink:href="#DejaVuSans-30"/>
       <use x="242.822266" xlink:href="#DejaVuSans-30"/>
      </g>
     </g>
    </g>
    <g id="ytick_6">
     <g id="line2d_25">
      <path clip-path="url(#p4e7398d80b)" d="M 62.51 128.49 
L 407.062 128.49 
" style="fill:none;stroke:#b0b0b0;stroke-linecap:square;stroke-width:0.8;"/>
     </g>
     <g id="line2d_26">
      <g>
       <use style="stroke:#000000;stroke-width:0.8;" x="62.51" xlink:href="#mdea3e2f8bc" y="128.49"/>
      </g>
     </g>
     <g id="text_14">
      <!-- −0.75 -->
      <g transform="translate(24.864687 132.289219)scale(0.1 -0.1)">
       <use xlink:href="#DejaVuSans-2212"/>
       <use x="83.789062" xlink:href="#DejaVuSans-30"/>
       <use x="147.412109" xlink:href="#DejaVuSans-2e"/>
       <use x="179.199219" xlink:href="#DejaVuSans-37"/>
       <use x="242.822266" xlink:href="#DejaVuSans-35"/>
      </g>
     </g>
    </g>
    <g id="ytick_7">
     <g id="line2d_27">
      <path clip-path="url(#p4e7398d80b)" d="M 62.51 90.58 
L 407.062 90.58 
" style="fill:none;stroke:#b0b0b0;stroke-linecap:square;stroke-width:0.8;"/>
     </g>
     <g id="line2d_28">
      <g>
       <use style="stroke:#000000;stroke-width:0.8;" x="62.51" xlink:href="#mdea3e2f8bc" y="90.58"/>
      </g>
     </g>
     <g id="text_15">
      <!-- −0.50 -->
      <g transform="translate(24.864687 94.379219)scale(0.1 -0.1)">
       <use xlink:href="#DejaVuSans-2212"/>
       <use x="83.789062" xlink:href="#DejaVuSans-30"/>
       <use x="147.412109" xlink:href="#DejaVuSans-2e"/>
       <use x="179.199219" xlink:href="#DejaVuSans-35"/>
       <use x="242.822266" xlink:href="#DejaVuSans-30"/>
      </g>
     </g>
    </g>
    <g id="ytick_8">
     <g id="line2d_29">
      <path clip-path="url(#p4e7398d80b)" d="M 62.51 52.67 
L 407.062 52.67 
" style="fill:none;stroke:#b0b0b0;stroke-linecap:square;stroke-width:0.8;"/>
     </g>
     <g id="line2d_30">
      <g>
       <use style="stroke:#000000;stroke-width:0.8;" x="62.51" xlink:href="#mdea3e2f8bc" y="52.67"/>
      </g>
     </g>
     <g id="text_16">
      <!-- −0.25 -->
      <g transform="translate(24.864687 56.469219)scale(0.1 -0.1)">
       <use xlink:href="#DejaVuSans-2212"/>
       <use x="83.789062" xlink:href="#DejaVuSans-30"/>
       <use x="147.412109" xlink:href="#DejaVuSans-2e"/>
       <use x="179.199219" xlink:href="#DejaVuSans-32"/>
       <use x="242.822266" xlink:href="#DejaVuSans-35"/>
      </g>
     </g>
    </g>
    <g id="ytick_9">
     <g id="line2d_31">
      <path clip-path="url(#p4e7398d80b)" d="M 62.51 14.76 
L 407.062 14.76 
" style="fill:none;stroke:#b0b0b0;stroke-linecap:square;stroke-width:0.8;"/>
     </g>
     <g id="line2d_32">
      <g>
       <use style="stroke:#000000;stroke-width:0.8;" x="62.51" xlink:href="#mdea3e2f8bc" y="14.76"/>
      </g>
     </g>
     <g id="text_17">
      <!-- 0.00 -->
      <g transform="translate(33.244375 18.559219)scale(0.1 -0.1)">
       <use xlink:href="#DejaVuSans-30"/>
       <use x="63.623047" xlink:href="#DejaVuSans-2e"/>
       <use x="95.410156" xlink:href="#DejaVuSans-30"/>
       <use x="159.033203" xlink:href="#DejaVuSans-30"/>
      </g>
     </g>
    </g>
    <g id="text_18">
     <!-- $\omega(z)$ -->
     <g transform="translate(18.785 177.15)rotate(-90)scale(0.1 -0.1)">
      <defs>
       <path d="M 1369 -91 
Q 72 -91 434 1766 
Q 575 2500 1256 3500 
L 1875 3500 
Q 1231 2500 1088 1750 
Q 819 397 1519 397 
Q 2166 397 2478 2078 
L 3009 2078 
Q 2669 388 3316 397 
Q 4013 403 4275 1750 
Q 4419 2500 4169 3500 
L 4788 3500 
Q 5075 2500 4934 1766 
Q 4578 -94 3278 -91 
Q 2428 -88 2503 844 
Q 2194 -91 1369 -91 
z
" id="DejaVuSans-Oblique-3c9" transform="scale(0.015625)"/>
       <path d="M 1984 4856 
Q 1566 4138 1362 3434 
Q 1159 2731 1159 2009 
Q 1159 1288 1364 580 
Q 1569 -128 1984 -844 
L 1484 -844 
Q 1016 -109 783 600 
Q 550 1309 550 2009 
Q 550 2706 781 3412 
Q 1013 4119 1484 4856 
L 1984 4856 
z
" id="DejaVuSans-28" transform="scale(0.015625)"/>
       <path d="M 513 4856 
L 1013 4856 
Q 1481 4119 1714 3412 
Q 1947 2706 1947 2009 
Q 1947 1309 1714 600 
Q 1481 -109 1013 -844 
L 513 -844 
Q 928 -128 1133 580 
Q 1338 1288 1338 2009 
Q 1338 2731 1133 3434 
Q 928 4138 513 4856 
z
" id="DejaVuSans-29" transform="scale(0.015625)"/>
      </defs>
      <use transform="translate(0 0.125)" xlink:href="#DejaVuSans-Oblique-3c9"/>
      <use transform="translate(83.740234 0.125)" xlink:href="#DejaVuSans-28"/>
      <use transform="translate(122.753906 0.125)" xlink:href="#DejaVuSans-Oblique-7a"/>
      <use transform="translate(175.244141 0.125)" xlink:href="#DejaVuSans-29"/>
     </g>
    </g>
   </g>
   <g id="LineCollection_1">
    <path clip-path="url(#p4e7398d80b)" d="M 412.804533 167.147684 
L 407.062 167.163798 
L 406.98178 167.16403 
L 401.319467 167.194054 
L 395.576933 167.225744 
L 389.8344 167.259395 
L 384.091867 167.2946 
L 378.349333 167.331146 
L 372.6068 167.369747 
L 366.864267 167.409728 
L 361.121733 167.450904 
L 355.3792 167.493751 
L 349.636667 167.537783 
L 343.894133 167.582693 
L 338.1516 167.628542 
L 332.409067 167.675517 
L 326.666533 167.72305 
L 320.924 167.771088 
L 315.181467 167.819675 
L 309.438933 167.868987 
L 303.6964 167.918645 
L 297.953867 167.968646 
L 292.211333 168.018985 
L 286.4688 168.069649 
L 280.726267 168.120651 
L 274.983733 168.171768 
L 269.2412 168.222866 
L 263.498667 168.27376 
L 257.756133 168.324186 
L 252.0136 168.373778 
L 249.506714 168.394675 
L 246.271067 168.430549 
L 240.528533 168.490466 
L 234.786 168.545521 
L 229.043467 168.594143 
L 223.300933 168.634455 
L 217.5584 168.664144 
L 211.815867 168.680281 
L 206.073333 168.679092 
L 200.3308 168.655616 
L 194.588267 168.603145 
L 188.845733 168.512316 
L 184.23968 168.394675 
L 183.1032 168.37185 
L 177.360667 168.2148 
L 171.618133 168.009264 
L 165.8756 167.714991 
L 160.133067 167.260944 
L 158.983611 167.16403 
L 154.390533 166.870714 
L 148.648 166.391995 
L 143.678286 165.933384 
L 142.905467 165.864192 
L 137.162933 165.324438 
L 132.028262 164.702739 
L 131.4204 164.619118 
L 125.677867 163.897345 
L 121.849225 163.472093 
L 119.935333 163.236919 
L 114.1928 162.608815 
L 110.124522 162.241448 
L 108.450267 162.093241 
L 102.707733 161.693642 
L 96.9652 161.415782 
L 91.222667 161.391722 
L 88.787822 162.241448 
L 85.480133 163.232189 
L 85.045563 163.472093 
L 83.017879 164.702739 
L 81.427322 165.933384 
L 80.172409 167.16403 
L 79.7376 167.612063 
L 79.133395 168.394675 
L 78.012609 169.625321 
L 76.833088 170.855966 
L 75.721061 172.086612 
L 74.916363 173.317257 
L 74.413195 174.547903 
L 73.995067 175.750228 
L 73.978121 175.778548 
L 73.12269 177.009193 
L 72.208942 178.239839 
L 71.347995 179.470484 
L 70.638217 180.70113 
L 70.048689 181.931775 
L 69.53952 183.162421 
L 69.098252 184.393066 
L 68.721562 185.623712 
L 68.401425 186.854357 
L 68.252533 187.492333 
L 68.039581 188.085003 
L 67.506923 189.315648 
L 66.971761 190.546294 
L 66.44722 191.776939 
L 65.934498 193.007585 
L 65.43872 194.23823 
L 64.965154 195.468876 
L 64.519545 196.699521 
L 64.109811 197.930167 
L 63.741796 199.160812 
L 63.412145 200.391457 
L 63.112269 201.622103 
L 62.834012 202.852748 
L 62.570677 204.083394 
L 62.51 204.368965 
" style="fill:none;stroke:#000000;stroke-width:2;"/>
    <path clip-path="url(#p4e7398d80b)" d="M 62.51 164.476823 
L 63.296395 163.472093 
L 64.386723 162.241448 
L 65.608697 161.010802 
L 67.131367 159.780157 
L 68.252533 159.093601 
L 68.784281 158.549511 
L 70.014152 157.318866 
L 71.352112 156.08822 
L 73.995067 154.879757 
L 74.026945 154.857575 
L 75.094712 153.62693 
L 75.989334 152.396284 
L 77.018125 151.165639 
L 78.382874 149.934993 
L 79.7376 149.227797 
L 80.621349 148.704348 
L 81.682465 147.473702 
L 82.801194 146.243057 
L 83.939066 145.012411 
L 84.998373 143.781766 
L 85.480133 143.238868 
L 86.527833 142.55112 
L 88.168732 141.320475 
L 89.562992 140.089829 
L 90.831717 138.859184 
L 91.222667 138.475145 
L 93.741108 137.628538 
L 96.544995 136.397893 
L 96.9652 136.159519 
L 102.028959 135.167247 
L 102.707733 135.02235 
L 108.450267 134.743061 
L 114.1928 135.092214 
L 114.803061 135.167247 
L 119.935333 135.777891 
L 123.746401 136.397893 
L 125.677867 136.72773 
L 130.204492 137.628538 
L 131.4204 137.887584 
L 136.114557 138.859184 
L 137.162933 139.098348 
L 142.162731 140.089829 
L 142.905467 140.252471 
L 148.330614 141.320475 
L 148.648 141.385523 
L 154.323298 142.55112 
L 154.390533 142.564825 
L 160.133067 143.736853 
L 160.361858 143.781766 
L 165.8756 144.85358 
L 166.739131 145.012411 
L 171.618133 145.896412 
L 173.654224 146.243057 
L 177.360667 146.863134 
L 181.256427 147.473702 
L 183.1032 147.757947 
L 188.845733 148.599357 
L 189.582516 148.704348 
L 194.588267 149.411735 
L 198.570625 149.934993 
L 200.3308 150.16495 
L 206.073333 150.896207 
L 208.308642 151.165639 
L 211.815867 151.592396 
L 217.5584 152.246989 
L 218.918274 152.396284 
L 223.300933 152.889683 
L 229.043467 153.482344 
L 230.506583 153.62693 
L 234.786 154.067079 
L 240.528533 154.611443 
L 243.334999 154.857575 
L 246.271067 155.128709 
L 252.0136 155.636212 
L 257.756133 156.077757 
L 257.894189 156.08822 
L 263.498667 156.552517 
L 269.2412 156.978667 
L 274.491748 157.318866 
L 274.983733 157.353773 
L 280.726267 157.768007 
L 286.4688 158.137899 
L 292.211333 158.455964 
L 293.985114 158.549511 
L 297.953867 158.794782 
L 303.6964 159.130469 
L 309.438933 159.424043 
L 315.181467 159.677458 
L 317.650504 159.780157 
L 320.924 159.949795 
L 326.666533 160.238264 
L 332.409067 160.492681 
L 338.1516 160.710151 
L 343.894133 160.898031 
L 347.542258 161.010802 
L 349.636667 161.098093 
L 355.3792 161.341534 
L 361.121733 161.561335 
L 366.864267 161.746891 
L 372.6068 161.905816 
L 378.349333 162.046651 
L 384.091867 162.172328 
L 387.437295 162.241448 
L 389.8344 162.317492 
L 395.576933 162.50617 
L 401.319467 162.679942 
L 407.062 162.831886 
L 412.804533 162.960653 
" style="fill:none;stroke:#000000;stroke-width:2;"/>
   </g>
   <g id="LineCollection_2">
    <path clip-path="url(#p4e7398d80b)" d="M 68.252533 201.833081 
L 67.846972 202.852748 
L 67.388093 204.083394 
L 66.952851 205.314039 
L 66.53213 206.544685 
L 66.119318 207.77533 
L 65.711656 209.005976 
L 65.310289 210.236621 
L 64.918725 211.467267 
L 64.540962 212.697912 
L 64.18096 213.928558 
L 63.843919 215.159203 
L 63.536428 216.389849 
L 63.262621 217.620494 
L 63.021964 218.85114 
L 62.810766 220.081785 
L 62.62371 221.31243 
L 62.51 222.123112 
" style="fill:none;stroke:#000000;stroke-width:1.5;"/>
    <path clip-path="url(#p4e7398d80b)" d="M 412.804533 169.30926 
L 407.062 169.471462 
L 402.22093 169.625321 
L 401.319467 169.638026 
L 395.576933 169.71534 
L 389.8344 169.807437 
L 384.091867 169.910086 
L 378.349333 170.004316 
L 372.6068 170.105469 
L 366.864267 170.220954 
L 361.121733 170.359709 
L 355.3792 170.534553 
L 349.636667 170.751371 
L 347.033867 170.855966 
L 343.894133 170.935042 
L 338.1516 171.069423 
L 332.409067 171.201988 
L 326.666533 171.342943 
L 320.924 171.504845 
L 315.181467 171.702096 
L 309.438933 171.946634 
L 306.423191 172.086612 
L 303.6964 172.176584 
L 297.953867 172.349946 
L 292.211333 172.524884 
L 286.4688 172.717608 
L 280.726267 172.943703 
L 274.983733 173.211994 
L 272.821876 173.317257 
L 269.2412 173.451246 
L 263.498667 173.65242 
L 257.756133 173.85757 
L 252.0136 174.079615 
L 246.271067 174.325727 
L 241.417565 174.547903 
L 240.528533 174.583069 
L 234.786 174.786308 
L 229.043467 174.978281 
L 223.300933 175.163384 
L 217.5584 175.342278 
L 211.815867 175.511571 
L 206.073333 175.664915 
L 201.012695 175.778548 
L 200.3308 175.792717 
L 194.588267 175.878034 
L 188.845733 175.929525 
L 183.1032 175.934154 
L 177.360667 175.890662 
L 171.618133 175.790906 
L 171.182938 175.778548 
L 165.8756 175.621234 
L 160.133067 175.376354 
L 154.390533 175.063516 
L 148.648 174.652609 
L 147.435625 174.547903 
L 142.905467 174.165602 
L 137.162933 173.640504 
L 133.936503 173.317257 
L 131.4204 173.051496 
L 125.677867 172.48485 
L 120.835203 172.086612 
L 119.935333 172.007065 
L 114.1928 171.579271 
L 108.450267 171.217057 
L 102.707733 171.062645 
L 96.9652 171.116943 
L 91.222667 171.25442 
L 85.756087 172.086612 
L 85.480133 172.123943 
L 82.892074 173.317257 
L 79.7376 174.45336 
L 79.651287 174.547903 
L 78.769038 175.778548 
L 78.026352 177.009193 
L 77.271869 178.239839 
L 76.439918 179.470484 
L 75.644218 180.70113 
L 74.961267 181.931775 
L 74.385698 183.162421 
L 73.995067 184.145173 
L 73.838546 184.393066 
L 73.125183 185.623712 
L 72.528317 186.854357 
L 72.010229 188.085003 
L 71.516031 189.315648 
L 71.02938 190.546294 
L 70.563722 191.776939 
L 70.135476 193.007585 
L 69.752305 194.23823 
L 69.413439 195.468876 
L 69.113999 196.699521 
L 68.850995 197.930167 
L 68.673792 199.070535 
" style="fill:none;stroke:#000000;stroke-width:1.5;"/>
    <path clip-path="url(#p4e7398d80b)" d="M 62.51 148.674099 
L 68.252533 147.831439 
L 69.668384 147.473702 
L 73.995067 146.603031 
L 74.409461 146.243057 
L 75.725895 145.012411 
L 77.005456 143.781766 
L 78.325347 142.55112 
L 79.616644 141.320475 
L 79.7376 141.208861 
L 80.952491 140.089829 
L 82.230878 138.859184 
L 83.323447 137.628538 
L 84.237946 136.397893 
L 85.008456 135.167247 
L 85.480133 134.247186 
L 85.761317 133.936602 
L 86.838579 132.705957 
L 87.959693 131.475311 
L 89.182826 130.244666 
L 90.47036 129.01402 
L 91.222667 128.260849 
L 91.90493 127.783375 
L 93.660797 126.552729 
L 95.507499 125.322084 
L 96.9652 124.37169 
L 97.682603 124.091438 
L 100.701994 122.860793 
L 102.707733 122.061229 
L 105.635204 121.630147 
L 108.450267 121.219738 
L 114.1928 121.305179 
L 117.503848 121.630147 
L 119.935333 121.887343 
L 125.677867 122.851321 
L 125.722165 122.860793 
L 131.35455 124.091438 
L 131.4204 124.106333 
L 136.565887 125.322084 
L 137.162933 125.465817 
L 141.335176 126.552729 
L 142.905467 126.951702 
L 145.964832 127.783375 
L 148.648 128.483989 
L 150.545822 129.01402 
L 154.390533 130.038726 
L 155.129596 130.244666 
L 159.72304 131.475311 
L 160.133067 131.58204 
L 164.311343 132.705957 
L 165.8756 133.107249 
L 169.015381 133.936602 
L 171.618133 134.592692 
L 173.851005 135.167247 
L 177.360667 136.030635 
L 178.829579 136.397893 
L 183.1032 137.420708 
L 183.961218 137.628538 
L 188.845733 138.762095 
L 189.26166 138.859184 
L 194.588267 140.051841 
L 194.757639 140.089829 
L 200.3308 141.290919 
L 200.468552 141.320475 
L 206.073333 142.478627 
L 206.428152 142.55112 
L 211.815867 143.613844 
L 212.682886 143.781766 
L 217.5584 144.695042 
L 219.294214 145.012411 
L 223.300933 145.720733 
L 226.337417 146.243057 
L 229.043467 146.691031 
L 233.890396 147.473702 
L 234.786 147.611188 
L 240.528533 148.493447 
L 241.963129 148.704348 
L 246.271067 149.319945 
L 250.753155 149.934993 
L 252.0136 150.098332 
L 257.756133 150.850076 
L 260.312117 151.165639 
L 263.498667 151.542821 
L 269.2412 152.21771 
L 270.855171 152.396284 
L 274.983733 152.837135 
L 280.726267 153.444938 
L 282.56797 153.62693 
L 286.4688 153.99524 
L 292.211333 154.542327 
L 295.805175 154.857575 
L 297.953867 155.029753 
L 303.6964 155.517656 
L 309.438933 155.980916 
L 310.872941 156.08822 
L 315.181467 156.38952 
L 320.924 156.813808 
L 326.666533 157.208241 
L 328.416969 157.318866 
L 332.409067 157.545299 
L 338.1516 157.909354 
L 343.894133 158.260133 
L 349.254686 158.549511 
L 349.636667 158.56543 
L 355.3792 158.831461 
L 361.121733 159.13724 
L 366.864267 159.431444 
L 372.6068 159.69316 
L 374.686298 159.780157 
L 378.349333 159.901558 
L 384.091867 160.113068 
L 389.8344 160.363043 
L 395.576933 160.607124 
L 401.319467 160.82022 
L 407.062 161.009668 
L 407.097776 161.010802 
L 412.804533 161.153423 
" style="fill:none;stroke:#000000;stroke-width:1.5;"/>
   </g>
   <g id="LineCollection_3">
    <path clip-path="url(#p4e7398d80b)" d="M 62.51 166.4 
L 407.062 166.4 
" style="fill:none;stroke:#0000ff;stroke-dasharray:14.8,6.4;stroke-dashoffset:0;stroke-width:4;"/>
   </g>
   <g id="patch_3">
    <path d="M 62.51 318.04 
L 62.51 14.76 
" style="fill:none;stroke:#000000;stroke-linecap:square;stroke-linejoin:miter;stroke-width:0.8;"/>
   </g>
   <g id="patch_4">
    <path d="M 407.062 318.04 
L 407.062 14.76 
" style="fill:none;stroke:#000000;stroke-linecap:square;stroke-linejoin:miter;stroke-width:0.8;"/>
   </g>
   <g id="patch_5">
    <path d="M 62.51 318.04 
L 407.062 318.04 
" style="fill:none;stroke:#000000;stroke-linecap:square;stroke-linejoin:miter;stroke-width:0.8;"/>
   </g>
   <g id="patch_6">
    <path d="M 62.51 14.76 
L 407.062 14.76 
" style="fill:none;stroke:#000000;stroke-linecap:square;stroke-linejoin:miter;stroke-width:0.8;"/>
   </g>
   <g id="text_19">
    <!-- BAO+HD+SN -->
    <g transform="translate(63.658507 272.548)scale(0.13 -0.13)">
     <defs>
      <path d="M 1259 2228 
L 1259 519 
L 2272 519 
Q 2781 519 3026 730 
Q 3272 941 3272 1375 
Q 3272 1813 3026 2020 
Q 2781 2228 2272 2228 
L 1259 2228 
z
M 1259 4147 
L 1259 2741 
L 2194 2741 
Q 2656 2741 2882 2914 
Q 3109 3088 3109 3444 
Q 3109 3797 2882 3972 
Q 2656 4147 2194 4147 
L 1259 4147 
z
M 628 4666 
L 2241 4666 
Q 2963 4666 3353 4366 
Q 3744 4066 3744 3513 
Q 3744 3084 3544 2831 
Q 3344 2578 2956 2516 
Q 3422 2416 3680 2098 
Q 3938 1781 3938 1306 
Q 3938 681 3513 340 
Q 3088 0 2303 0 
L 628 0 
L 628 4666 
z
" id="DejaVuSans-42" transform="scale(0.015625)"/>
      <path d="M 2188 4044 
L 1331 1722 
L 3047 1722 
L 2188 4044 
z
M 1831 4666 
L 2547 4666 
L 4325 0 
L 3669 0 
L 3244 1197 
L 1141 1197 
L 716 0 
L 50 0 
L 1831 4666 
z
" id="DejaVuSans-41" transform="scale(0.015625)"/>
      <path d="M 2522 4238 
Q 1834 4238 1429 3725 
Q 1025 3213 1025 2328 
Q 1025 1447 1429 934 
Q 1834 422 2522 422 
Q 3209 422 3611 934 
Q 4013 1447 4013 2328 
Q 4013 3213 3611 3725 
Q 3209 4238 2522 4238 
z
M 2522 4750 
Q 3503 4750 4090 4092 
Q 4678 3434 4678 2328 
Q 4678 1225 4090 567 
Q 3503 -91 2522 -91 
Q 1538 -91 948 565 
Q 359 1222 359 2328 
Q 359 3434 948 4092 
Q 1538 4750 2522 4750 
z
" id="DejaVuSans-4f" transform="scale(0.015625)"/>
      <path d="M 2944 4013 
L 2944 2272 
L 4684 2272 
L 4684 1741 
L 2944 1741 
L 2944 0 
L 2419 0 
L 2419 1741 
L 678 1741 
L 678 2272 
L 2419 2272 
L 2419 4013 
L 2944 4013 
z
" id="DejaVuSans-2b" transform="scale(0.015625)"/>
      <path d="M 628 4666 
L 1259 4666 
L 1259 2753 
L 3553 2753 
L 3553 4666 
L 4184 4666 
L 4184 0 
L 3553 0 
L 3553 2222 
L 1259 2222 
L 1259 0 
L 628 0 
L 628 4666 
z
" id="DejaVuSans-48" transform="scale(0.015625)"/>
      <path d="M 1259 4147 
L 1259 519 
L 2022 519 
Q 2988 519 3436 956 
Q 3884 1394 3884 2338 
Q 3884 3275 3436 3711 
Q 2988 4147 2022 4147 
L 1259 4147 
z
M 628 4666 
L 1925 4666 
Q 3281 4666 3915 4102 
Q 4550 3538 4550 2338 
Q 4550 1131 3912 565 
Q 3275 0 1925 0 
L 628 0 
L 628 4666 
z
" id="DejaVuSans-44" transform="scale(0.015625)"/>
      <path d="M 3425 4513 
L 3425 3897 
Q 3066 4069 2747 4153 
Q 2428 4238 2131 4238 
Q 1616 4238 1336 4038 
Q 1056 3838 1056 3469 
Q 1056 3159 1242 3001 
Q 1428 2844 1947 2747 
L 2328 2669 
Q 3034 2534 3370 2195 
Q 3706 1856 3706 1288 
Q 3706 609 3251 259 
Q 2797 -91 1919 -91 
Q 1588 -91 1214 -16 
Q 841 59 441 206 
L 441 856 
Q 825 641 1194 531 
Q 1563 422 1919 422 
Q 2459 422 2753 634 
Q 3047 847 3047 1241 
Q 3047 1584 2836 1778 
Q 2625 1972 2144 2069 
L 1759 2144 
Q 1053 2284 737 2584 
Q 422 2884 422 3419 
Q 422 4038 858 4394 
Q 1294 4750 2059 4750 
Q 2388 4750 2728 4690 
Q 3069 4631 3425 4513 
z
" id="DejaVuSans-53" transform="scale(0.015625)"/>
      <path d="M 628 4666 
L 1478 4666 
L 3547 763 
L 3547 4666 
L 4159 4666 
L 4159 0 
L 3309 0 
L 1241 3903 
L 1241 0 
L 628 0 
L 628 4666 
z
" id="DejaVuSans-4e" transform="scale(0.015625)"/>
     </defs>
     <use xlink:href="#DejaVuSans-42"/>
     <use x="68.603516" xlink:href="#DejaVuSans-41"/>
     <use x="135.261719" xlink:href="#DejaVuSans-4f"/>
     <use x="213.972656" xlink:href="#DejaVuSans-2b"/>
     <use x="297.761719" xlink:href="#DejaVuSans-48"/>
     <use x="372.957031" xlink:href="#DejaVuSans-44"/>
     <use x="449.958984" xlink:href="#DejaVuSans-2b"/>
     <use x="533.748047" xlink:href="#DejaVuSans-53"/>
     <use x="597.224609" xlink:href="#DejaVuSans-4e"/>
    </g>
   </g>
  </g>
  <g id="axes_2">
   <g id="patch_7">
    <path d="M 428.5965 318.04 
L 443.7605 318.04 
L 443.7605 14.76 
L 428.5965 14.76 
z
" style="fill:#ffffff;"/>
   </g>
   <g id="patch_8">
    <path clip-path="url(#pc4b5b2899a)" d="M 428.5965 318.04 
L 428.5965 242.22 
L 428.5965 90.58 
L 428.5965 14.76 
L 443.7605 14.76 
L 443.7605 90.58 
L 443.7605 242.22 
L 443.7605 318.04 
L 443.7605 318.04 
z
" style="fill:#ffffff;stroke:#ffffff;stroke-linejoin:miter;stroke-width:0.01;"/>
   </g>
   <g id="QuadMesh_1">
    <path clip-path="url(#pc4b5b2899a)" d="M 428.5965 318.04 
L 443.7605 318.04 
L 443.7605 242.22 
L 428.5965 242.22 
L 428.5965 318.04 
" style="fill:#006d2c;"/>
    <path clip-path="url(#pc4b5b2899a)" d="M 428.5965 242.22 
L 443.7605 242.22 
L 443.7605 166.4 
L 428.5965 166.4 
L 428.5965 242.22 
" style="fill:#42ab5d;"/>
    <path clip-path="url(#pc4b5b2899a)" d="M 428.5965 166.4 
L 443.7605 166.4 
L 443.7605 90.58 
L 428.5965 90.58 
L 428.5965 166.4 
" style="fill:#a2d99c;"/>
    <path clip-path="url(#pc4b5b2899a)" d="M 428.5965 90.58 
L 443.7605 90.58 
L 443.7605 14.76 
L 428.5965 14.76 
L 428.5965 90.58 
" style="fill:#e5f5e1;"/>
   </g>
   <g id="matplotlib.axis_3"/>
   <g id="matplotlib.axis_4">
    <g id="ytick_10">
     <g id="line2d_33">
      <defs>
       <path d="M 0 0 
L 3.5 0 
" id="m0e2a53200c" style="stroke:#000000;stroke-width:0.8;"/>
      </defs>
      <g>
       <use style="stroke:#000000;stroke-width:0.8;" x="443.7605" xlink:href="#m0e2a53200c" y="318.04"/>
      </g>
     </g>
    </g>
    <g id="ytick_11">
     <g id="line2d_34">
      <g>
       <use style="stroke:#000000;stroke-width:0.8;" x="443.7605" xlink:href="#m0e2a53200c" y="166.4"/>
      </g>
     </g>
     <g id="text_20">
      <!-- $1\sigma$ -->
      <g transform="translate(450.7605 170.199219)scale(0.1 -0.1)">
       <defs>
        <path d="M 2219 3044 
Q 1744 3044 1422 2700 
Q 1081 2341 969 1747 
Q 844 1119 1044 756 
Q 1241 397 1706 397 
Q 2166 397 2503 759 
Q 2844 1122 2966 1747 
Q 3075 2319 2881 2700 
Q 2700 3044 2219 3044 
z
M 2309 3503 
L 4219 3500 
L 4106 2925 
L 3463 2925 
Q 3706 2438 3575 1747 
Q 3406 888 2884 400 
Q 2359 -91 1609 -91 
Q 856 -91 525 400 
Q 194 888 363 1747 
Q 528 2609 1050 3097 
Q 1484 3503 2309 3503 
z
" id="DejaVuSans-Oblique-3c3" transform="scale(0.015625)"/>
       </defs>
       <use transform="translate(0 0.09375)" xlink:href="#DejaVuSans-31"/>
       <use transform="translate(63.623047 0.09375)" xlink:href="#DejaVuSans-Oblique-3c3"/>
      </g>
     </g>
    </g>
    <g id="ytick_12">
     <g id="line2d_35">
      <g>
       <use style="stroke:#000000;stroke-width:0.8;" x="443.7605" xlink:href="#m0e2a53200c" y="14.76"/>
      </g>
     </g>
     <g id="text_21">
      <!-- $2\sigma$ -->
      <g transform="translate(450.7605 18.559219)scale(0.1 -0.1)">
       <use transform="translate(0 0.78125)" xlink:href="#DejaVuSans-32"/>
       <use transform="translate(63.623047 0.78125)" xlink:href="#DejaVuSans-Oblique-3c3"/>
      </g>
     </g>
    </g>
   </g>
   <g id="LineCollection_4"/>
   <g id="patch_9">
    <path d="M 428.5965 318.04 
L 428.5965 242.22 
L 428.5965 90.58 
L 428.5965 14.76 
L 443.7605 14.76 
L 443.7605 90.58 
L 443.7605 242.22 
L 443.7605 318.04 
z
" style="fill:none;stroke:#000000;stroke-linecap:square;stroke-linejoin:miter;stroke-width:0.8;"/>
   </g>
  </g>
 </g>
 <defs>
  <clipPath id="p4e7398d80b">
   <rect height="303.28" width="344.552" x="62.51" y="14.76"/>
  </clipPath>
  <clipPath id="pc4b5b2899a">
   <rect height="303.28" width="15.164" x="428.5965" y="14.76"/>
  </clipPath>
 </defs>
</svg>
