<?xml version="1.0" encoding="utf-8" standalone="no"?>
<!DOCTYPE svg PUBLIC "-//W3C//DTD SVG 1.1//EN"
  "http://www.w3.org/Graphics/SVG/1.1/DTD/svg11.dtd">
<svg height="360pt" version="1.1" viewBox="0 0 504 360" width="504pt" xmlns="http://www.w3.org/2000/svg" xmlns:xlink="http://www.w3.org/1999/xlink">
 <metadata>
  <rdf:RDF xmlns:cc="http://creativecommons.org/ns#" xmlns:dc="http://purl.org/dc/elements/1.1/" xmlns:rdf="http://www.w3.org/1999/02/22-rdf-syntax-ns#">
   <cc:Work>
    <dc:type rdf:resource="http://purl.org/dc/dcmitype/StillImage"/>
    <dc:date>2022-04-06T11:32:31.727715</dc:date>
    <dc:format>image/svg+xml</dc:format>
    <dc:creator>
     <cc:Agent>
      <dc:title>Matplotlib v3.4.3, https://matplotlib.org/</dc:title>
     </cc:Agent>
    </dc:creator>
   </cc:Work>
  </rdf:RDF>
 </metadata>
 <defs>
  <style type="text/css">*{stroke-linecap:butt;stroke-linejoin:round;}</style>
 </defs>
 <g id="figure_1">
  <g id="patch_1">
   <path d="M 0 360 
L 504 360 
L 504 0 
L 0 0 
z
" style="fill:none;"/>
  </g>
  <g id="axes_1">
   <g id="patch_2">
    <path d="M 62.51 318.04 
L 407.062 318.04 
L 407.062 14.76 
L 62.51 14.76 
z
" style="fill:#ffffff;"/>
   </g>
   <g id="PathCollection_1">
    <defs>
     <path d="M 62.752235 -166.209924 
L 63.213556 -167.761769 
L 63.679965 -169.313615 
L 64.156185 -170.86546 
L 64.668839 -172.417306 
L 65.278519 -173.969151 
L 66.068393 -175.520996 
L 67.103339 -177.072842 
L 68.252533 -178.43047 
L 68.349591 -178.624687 
L 69.087617 -180.176533 
L 69.794212 -181.728378 
L 70.473611 -183.280224 
L 71.143239 -184.832069 
L 71.835539 -186.383914 
L 72.425092 -187.93576 
L 72.976 -189.487605 
L 73.995067 -190.875484 
L 74.121178 -191.039451 
L 75.333409 -192.591296 
L 76.681412 -194.143142 
L 78.333406 -195.694987 
L 79.7376 -196.717157 
L 80.518381 -197.246832 
L 82.702593 -198.798678 
L 84.54354 -200.350523 
L 85.480133 -201.239182 
L 87.057466 -201.902369 
L 90.007465 -203.454214 
L 91.222667 -204.28667 
L 95.583072 -205.00606 
L 96.9652 -205.238146 
L 102.707733 -205.329651 
L 104.982951 -205.00606 
L 108.450267 -204.511417 
L 113.209622 -203.454214 
L 114.1928 -203.252741 
L 119.774545 -201.902369 
L 119.935333 -201.868704 
L 125.677867 -200.505435 
L 126.351583 -200.350523 
L 131.4204 -199.237818 
L 133.747077 -198.798678 
L 137.162933 -198.152862 
L 142.905467 -197.253587 
L 142.959598 -197.246832 
L 148.648 -196.570267 
L 154.390533 -195.98933 
L 157.999973 -195.694987 
L 160.133067 -195.552575 
L 165.8756 -195.235918 
L 171.618133 -194.991348 
L 177.360667 -194.802577 
L 183.1032 -194.653842 
L 188.845733 -194.535915 
L 194.588267 -194.447894 
L 200.3308 -194.382439 
L 206.073333 -194.314351 
L 211.815867 -194.240026 
L 217.5584 -194.164719 
L 219.291106 -194.143142 
L 223.300933 -194.095309 
L 229.043467 -194.035568 
L 234.786 -193.983288 
L 240.528533 -193.937083 
L 246.271067 -193.896007 
L 252.0136 -193.859403 
L 257.756133 -193.826767 
L 263.498667 -193.797669 
L 269.2412 -193.77171 
L 274.983733 -193.74852 
L 280.726267 -193.727756 
L 286.4688 -193.709154 
L 292.211333 -193.692729 
L 297.953867 -193.677871 
L 303.6964 -193.664376 
L 309.438933 -193.652066 
L 315.181467 -193.640791 
L 320.924 -193.630744 
L 326.666533 -193.621525 
L 332.409067 -193.612967 
L 338.1516 -193.60499 
L 343.894133 -193.597808 
L 349.636667 -193.591132 
L 355.3792 -193.584816 
L 361.121733 -193.578918 
L 366.864267 -193.573539 
L 372.6068 -193.568373 
L 378.349333 -193.563445 
L 384.091867 -193.558962 
L 389.8344 -193.554598 
L 395.576933 -193.550426 
L 401.319467 -193.546579 
L 407.062 -193.542804 
L 412.804533 -193.539265 
L 412.804533 -194.143142 
L 412.804533 -195.694987 
L 412.804533 -195.844906 
L 407.062 -195.910727 
L 401.319467 -195.9832 
L 395.576933 -196.064016 
L 389.8344 -196.15816 
L 384.091867 -196.264492 
L 378.349333 -196.392851 
L 372.6068 -196.586649 
L 366.864267 -196.724946 
L 361.121733 -196.843472 
L 355.3792 -196.947076 
L 349.636667 -197.053484 
L 343.894133 -197.191324 
L 342.003787 -197.246832 
L 338.1516 -197.318972 
L 332.409067 -197.441369 
L 326.666533 -197.601777 
L 320.924 -197.866886 
L 315.181467 -198.110741 
L 309.438933 -198.324709 
L 303.6964 -198.504349 
L 297.953867 -198.67559 
L 293.962611 -198.798678 
L 292.211333 -198.851447 
L 286.4688 -199.107801 
L 280.726267 -199.409278 
L 274.983733 -199.739634 
L 269.2412 -200.037972 
L 263.498667 -200.259032 
L 261.056125 -200.350523 
L 257.756133 -200.536982 
L 252.0136 -200.903036 
L 246.271067 -201.303678 
L 240.528533 -201.713482 
L 235.997026 -201.902369 
L 234.786 -201.988155 
L 229.043467 -202.415467 
L 223.300933 -202.859833 
L 217.5584 -203.336845 
L 215.556624 -203.454214 
L 211.815867 -203.768456 
L 206.073333 -204.258109 
L 200.3308 -204.784656 
L 197.994111 -205.00606 
L 194.588267 -205.318206 
L 188.845733 -205.842911 
L 183.1032 -206.411444 
L 181.612872 -206.557905 
L 177.360667 -206.954232 
L 171.618133 -207.555167 
L 166.750437 -208.10975 
L 165.8756 -208.204375 
L 160.133067 -208.954027 
L 154.838725 -209.661596 
L 154.390533 -209.72513 
L 148.648 -210.690365 
L 145.332993 -211.213441 
L 142.905467 -211.682486 
L 137.215594 -212.765287 
L 137.162933 -212.777013 
L 131.4204 -214.072638 
L 130.426349 -214.317132 
L 125.677867 -215.498893 
L 124.304322 -215.868978 
L 119.935333 -216.947507 
L 118.130694 -217.420823 
L 114.1928 -218.30645 
L 110.817088 -218.972668 
L 108.450267 -219.381027 
L 102.707733 -219.769938 
L 97.216827 -218.972668 
L 96.9652 -218.936114 
L 92.993805 -217.420823 
L 91.222667 -216.89202 
L 89.526559 -215.868978 
L 87.47027 -214.317132 
L 85.658535 -212.765287 
L 85.480133 -212.614815 
L 83.681811 -211.213441 
L 81.714687 -209.661596 
L 79.955078 -208.10975 
L 79.7376 -207.903827 
L 77.979589 -206.557905 
L 75.80752 -205.00606 
L 73.995067 -203.925294 
L 73.287009 -203.454214 
L 71.382887 -201.902369 
L 70.255769 -200.350523 
L 69.406741 -198.798678 
L 68.934604 -197.246832 
L 68.252533 -196.208934 
L 67.696096 -195.694987 
L 66.007325 -194.143142 
L 64.417383 -192.591296 
L 62.972785 -191.039451 
L 62.51 -190.51241 
L 62.51 -189.487605 
L 62.51 -187.93576 
L 62.51 -186.383914 
L 62.51 -184.832069 
L 62.51 -183.280224 
L 62.51 -181.728378 
L 62.51 -180.176533 
L 62.51 -178.624687 
L 62.51 -177.072842 
L 62.51 -175.520996 
L 62.51 -173.969151 
L 62.51 -172.417306 
L 62.51 -170.86546 
L 62.51 -169.313615 
L 62.51 -167.761769 
L 62.51 -166.209924 
L 62.51 -165.384065 
z
" id="m3a60efc8f3" style="stroke:#006d2c;"/>
    </defs>
    <g clip-path="url(#pa977a4d6c1)">
     <use style="fill:#006d2c;stroke:#006d2c;" x="0" xlink:href="#m3a60efc8f3" y="360"/>
    </g>
   </g>
   <g id="PathCollection_2">
    <path clip-path="url(#pa977a4d6c1)" d="M 62.942288 206.20484 
L 63.407563 204.652994 
L 63.857602 203.101149 
L 64.304098 201.549303 
L 64.7636 199.997458 
L 65.249495 198.445612 
L 65.766573 196.893767 
L 66.309159 195.341922 
L 66.864591 193.790076 
L 67.424258 192.238231 
L 67.999863 190.686385 
L 68.252533 190.057857 
L 68.566489 189.13454 
L 69.207267 187.582694 
L 69.985594 186.030849 
L 70.832966 184.479004 
L 71.662965 182.927158 
L 72.446026 181.375313 
L 73.181613 179.823467 
L 73.869084 178.271622 
L 73.995067 177.971811 
L 74.539987 176.719776 
L 75.299274 175.167931 
L 76.269916 173.616086 
L 77.560532 172.06424 
L 79.090337 170.512395 
L 79.7376 169.856558 
L 80.998797 168.960549 
L 83.004083 167.408704 
L 85.001264 165.856858 
L 85.480133 165.495584 
L 91.222667 164.367679 
L 96.9652 164.306049 
L 102.707733 164.648043 
L 108.450267 165.039284 
L 114.1928 165.51026 
L 117.19154 165.856858 
L 119.935333 166.177823 
L 125.677867 166.909782 
L 129.603106 167.408704 
L 131.4204 167.631975 
L 137.162933 168.386094 
L 141.798763 168.960549 
L 142.905467 169.098987 
L 148.648 169.810595 
L 154.390533 170.385945 
L 155.975836 170.512395 
L 160.133067 170.864191 
L 165.8756 171.233649 
L 171.618133 171.511635 
L 177.360667 171.733759 
L 183.1032 171.898223 
L 188.845733 171.999964 
L 194.588267 172.038046 
L 200.3308 172.028274 
L 206.073333 171.979567 
L 211.815867 171.899637 
L 217.5584 171.794979 
L 223.300933 171.671458 
L 229.043467 171.534655 
L 234.786 171.389866 
L 240.528533 171.241861 
L 246.271067 171.094606 
L 252.0136 170.951074 
L 257.756133 170.813209 
L 263.498667 170.682048 
L 269.2412 170.557956 
L 271.368101 170.512395 
L 274.983733 170.412128 
L 280.726267 170.252165 
L 286.4688 170.097074 
L 292.211333 169.949129 
L 297.953867 169.809287 
L 303.6964 169.678238 
L 309.438933 169.556156 
L 315.181467 169.442812 
L 320.924 169.338445 
L 326.666533 169.241953 
L 332.409067 169.152606 
L 338.1516 169.069995 
L 343.894133 168.994699 
L 346.638762 168.960549 
L 349.636667 168.909613 
L 355.3792 168.811168 
L 361.121733 168.714665 
L 366.864267 168.621424 
L 372.6068 168.530674 
L 378.349333 168.442989 
L 384.091867 168.359923 
L 389.8344 168.280032 
L 395.576933 168.203799 
L 401.319467 168.13209 
L 407.062 168.06343 
L 412.804533 167.998687 
L 412.804533 167.408704 
L 412.804533 166.460735 
L 407.062 166.457196 
L 401.319467 166.453421 
L 395.576933 166.449574 
L 389.8344 166.445402 
L 384.091867 166.441038 
L 378.349333 166.436555 
L 372.6068 166.431627 
L 366.864267 166.426461 
L 361.121733 166.421082 
L 355.3792 166.415184 
L 349.636667 166.408868 
L 343.894133 166.402192 
L 338.1516 166.39501 
L 332.409067 166.387033 
L 326.666533 166.378475 
L 320.924 166.369256 
L 315.181467 166.359209 
L 309.438933 166.347934 
L 303.6964 166.335624 
L 297.953867 166.322129 
L 292.211333 166.307271 
L 286.4688 166.290846 
L 280.726267 166.272244 
L 274.983733 166.25148 
L 269.2412 166.22829 
L 263.498667 166.202331 
L 257.756133 166.173233 
L 252.0136 166.140597 
L 246.271067 166.103993 
L 240.528533 166.062917 
L 234.786 166.016712 
L 229.043467 165.964432 
L 223.300933 165.904691 
L 219.291106 165.856858 
L 217.5584 165.835281 
L 211.815867 165.759974 
L 206.073333 165.685649 
L 200.3308 165.617561 
L 194.588267 165.552106 
L 188.845733 165.464085 
L 183.1032 165.346158 
L 177.360667 165.197423 
L 171.618133 165.008652 
L 165.8756 164.764082 
L 160.133067 164.447425 
L 157.999973 164.305013 
L 154.390533 164.01067 
L 148.648 163.429733 
L 142.959598 162.753168 
L 142.905467 162.746413 
L 137.162933 161.847138 
L 133.747077 161.201322 
L 131.4204 160.762182 
L 126.351583 159.649477 
L 125.677867 159.494565 
L 119.935333 158.131296 
L 119.774545 158.097631 
L 114.1928 156.747259 
L 113.209622 156.545786 
L 108.450267 155.488583 
L 104.982951 154.99394 
L 102.707733 154.670349 
L 96.9652 154.761854 
L 95.583072 154.99394 
L 91.222667 155.71333 
L 90.007465 156.545786 
L 87.057466 158.097631 
L 85.480133 158.760818 
L 84.54354 159.649477 
L 82.702593 161.201322 
L 80.518381 162.753168 
L 79.7376 163.282843 
L 78.333406 164.305013 
L 76.681412 165.856858 
L 75.333409 167.408704 
L 74.121178 168.960549 
L 73.995067 169.124516 
L 72.976 170.512395 
L 72.425092 172.06424 
L 71.835539 173.616086 
L 71.143239 175.167931 
L 70.473611 176.719776 
L 69.794212 178.271622 
L 69.087617 179.823467 
L 68.349591 181.375313 
L 68.252533 181.56953 
L 67.103339 182.927158 
L 66.068393 184.479004 
L 65.278519 186.030849 
L 64.668839 187.582694 
L 64.156185 189.13454 
L 63.679965 190.686385 
L 63.213556 192.238231 
L 62.752235 193.790076 
L 62.51 194.615935 
L 62.51 195.341922 
L 62.51 196.893767 
L 62.51 198.445612 
L 62.51 199.997458 
L 62.51 201.549303 
L 62.51 203.101149 
L 62.51 204.652994 
L 62.51 206.20484 
L 62.51 207.600492 
z
" style="fill:#42ab5d;stroke:#42ab5d;"/>
    <path clip-path="url(#pa977a4d6c1)" d="M 62.972785 168.960549 
L 64.417383 167.408704 
L 66.007325 165.856858 
L 67.696096 164.305013 
L 68.252533 163.791066 
L 68.934604 162.753168 
L 69.406741 161.201322 
L 70.255769 159.649477 
L 71.382887 158.097631 
L 73.287009 156.545786 
L 73.995067 156.074706 
L 75.80752 154.99394 
L 77.979589 153.442095 
L 79.7376 152.096173 
L 79.955078 151.89025 
L 81.714687 150.338404 
L 83.681811 148.786559 
L 85.480133 147.385185 
L 85.658535 147.234713 
L 87.47027 145.682868 
L 89.526559 144.131022 
L 91.222667 143.10798 
L 92.993805 142.579177 
L 96.9652 141.063886 
L 97.216827 141.027332 
L 102.707733 140.230062 
L 108.450267 140.618973 
L 110.817088 141.027332 
L 114.1928 141.69355 
L 118.130694 142.579177 
L 119.935333 143.052493 
L 124.304322 144.131022 
L 125.677867 144.501107 
L 130.426349 145.682868 
L 131.4204 145.927362 
L 137.162933 147.222987 
L 137.215594 147.234713 
L 142.905467 148.317514 
L 145.332993 148.786559 
L 148.648 149.309635 
L 154.390533 150.27487 
L 154.838725 150.338404 
L 160.133067 151.045973 
L 165.8756 151.795625 
L 166.750437 151.89025 
L 171.618133 152.444833 
L 177.360667 153.045768 
L 181.612872 153.442095 
L 183.1032 153.588556 
L 188.845733 154.157089 
L 194.588267 154.681794 
L 197.994111 154.99394 
L 200.3308 155.215344 
L 206.073333 155.741891 
L 211.815867 156.231544 
L 215.556624 156.545786 
L 217.5584 156.663155 
L 223.300933 157.140167 
L 229.043467 157.584533 
L 234.786 158.011845 
L 235.997026 158.097631 
L 240.528533 158.286518 
L 246.271067 158.696322 
L 252.0136 159.096964 
L 257.756133 159.463018 
L 261.056125 159.649477 
L 263.498667 159.740968 
L 269.2412 159.962028 
L 274.983733 160.260366 
L 280.726267 160.590722 
L 286.4688 160.892199 
L 292.211333 161.148553 
L 293.962611 161.201322 
L 297.953867 161.32441 
L 303.6964 161.495651 
L 309.438933 161.675291 
L 315.181467 161.889259 
L 320.924 162.133114 
L 326.666533 162.398223 
L 332.409067 162.558631 
L 338.1516 162.681028 
L 342.003787 162.753168 
L 343.894133 162.808676 
L 349.636667 162.946516 
L 355.3792 163.052924 
L 361.121733 163.156528 
L 366.864267 163.275054 
L 372.6068 163.413351 
L 378.349333 163.607149 
L 384.091867 163.735508 
L 389.8344 163.84184 
L 395.576933 163.935984 
L 401.319467 164.0168 
L 407.062 164.089273 
L 412.804533 164.155094 
L 412.804533 163.401975 
L 407.062 163.322577 
L 401.319467 163.234211 
L 395.576933 163.135277 
L 389.8344 163.019505 
L 384.091867 162.881876 
L 380.180022 162.753168 
L 378.349333 162.672634 
L 372.6068 162.375027 
L 366.864267 162.228671 
L 361.121733 162.11155 
L 355.3792 161.996633 
L 349.636667 161.876217 
L 343.894133 161.744089 
L 338.1516 161.591388 
L 332.409067 161.401619 
L 328.321854 161.201322 
L 326.666533 161.099781 
L 320.924 160.708383 
L 315.181467 160.520394 
L 309.438933 160.348255 
L 303.6964 160.16247 
L 297.953867 159.9404 
L 292.900149 159.649477 
L 292.211333 159.597489 
L 286.4688 159.079709 
L 280.726267 158.83737 
L 274.983733 158.602569 
L 269.2412 158.312812 
L 267.131294 158.097631 
L 263.498667 157.687783 
L 257.756133 157.302452 
L 252.0136 157.0154 
L 246.271067 156.625682 
L 245.68439 156.545786 
L 240.528533 155.868327 
L 234.786 155.519906 
L 229.043467 155.075851 
L 228.500493 154.99394 
L 223.300933 154.242726 
L 217.5584 153.830423 
L 214.768473 153.442095 
L 211.815867 152.961703 
L 206.073333 152.406135 
L 202.081882 151.89025 
L 200.3308 151.593111 
L 194.588267 150.854016 
L 191.103037 150.338404 
L 188.845733 149.921319 
L 183.1032 149.124051 
L 181.064086 148.786559 
L 177.360667 148.072331 
L 172.384143 147.234713 
L 171.618133 147.076236 
L 165.8756 146.002404 
L 164.127107 145.682868 
L 160.133067 144.8599 
L 156.598867 144.131022 
L 154.390533 143.641895 
L 149.678898 142.579177 
L 148.648 142.33844 
L 143.130579 141.027332 
L 142.905467 140.973127 
L 137.162933 139.603281 
L 136.624617 139.475486 
L 131.4204 138.285604 
L 129.785939 137.923641 
L 125.677867 137.045135 
L 122.123539 136.371795 
L 119.935333 135.961695 
L 114.1928 135.197756 
L 108.450267 134.995653 
L 102.707733 135.368851 
L 97.667528 136.371795 
L 96.9652 136.496385 
L 93.357411 137.923641 
L 91.222667 138.794112 
L 90.074203 139.475486 
L 87.319076 141.027332 
L 85.480133 142.265742 
L 85.057333 142.579177 
L 83.028643 144.131022 
L 81.17814 145.682868 
L 79.7376 146.942948 
L 79.389502 147.234713 
L 77.300006 148.786559 
L 75.162481 150.338404 
L 73.995067 151.088528 
L 71.603372 151.89025 
L 68.662598 153.442095 
L 68.252533 153.750037 
L 66.254934 154.99394 
L 64.403133 156.545786 
L 62.796439 158.097631 
L 62.51 158.386318 
L 62.51 159.649477 
L 62.51 161.201322 
L 62.51 162.753168 
L 62.51 164.305013 
L 62.51 165.856858 
L 62.51 167.408704 
L 62.51 168.960549 
L 62.51 169.48759 
z
" style="fill:#42ab5d;stroke:#42ab5d;"/>
   </g>
   <g id="PathCollection_3">
    <path clip-path="url(#pa977a4d6c1)" d="M 62.907635 217.067758 
L 63.340712 215.515912 
L 63.792814 213.964067 
L 64.273811 212.412221 
L 64.784992 210.860376 
L 65.319765 209.30853 
L 65.863369 207.756685 
L 66.397363 206.20484 
L 66.911192 204.652994 
L 67.411069 203.101149 
L 67.917259 201.549303 
L 68.252533 200.571082 
L 68.4284 199.997458 
L 68.910668 198.445612 
L 69.398825 196.893767 
L 69.893291 195.341922 
L 70.396916 193.790076 
L 70.924583 192.238231 
L 71.513439 190.686385 
L 72.220424 189.13454 
L 73.068606 187.582694 
L 73.991466 186.030849 
L 73.995067 186.024601 
L 74.925779 184.479004 
L 75.724936 182.927158 
L 76.462839 181.375313 
L 77.188442 179.823467 
L 77.933568 178.271622 
L 78.760522 176.719776 
L 79.7376 175.239167 
L 79.85008 175.167931 
L 82.412558 173.616086 
L 84.915135 172.06424 
L 85.480133 171.705118 
L 91.222667 170.93904 
L 96.9652 171.187336 
L 102.707733 171.855518 
L 104.043261 172.06424 
L 108.450267 172.760086 
L 114.057246 173.616086 
L 114.1928 173.636909 
L 119.935333 174.412137 
L 125.489721 175.167931 
L 125.677867 175.192808 
L 131.4204 175.886357 
L 137.162933 176.483176 
L 140.587734 176.719776 
L 142.905467 176.839419 
L 148.648 177.045975 
L 154.390533 177.195428 
L 160.133067 177.316421 
L 165.8756 177.395758 
L 171.618133 177.406906 
L 177.360667 177.365431 
L 183.1032 177.275169 
L 188.845733 177.142834 
L 194.588267 176.975818 
L 200.3308 176.793519 
L 202.421484 176.719776 
L 206.073333 176.566478 
L 211.815867 176.300154 
L 217.5584 176.024669 
L 223.300933 175.749188 
L 229.043467 175.483348 
L 234.786 175.238364 
L 236.480996 175.167931 
L 240.528533 174.94552 
L 246.271067 174.631284 
L 252.0136 174.3313 
L 257.756133 174.055322 
L 263.498667 173.816116 
L 269.218815 173.616086 
L 269.2412 173.614924 
L 274.983733 173.303466 
L 280.726267 173.008689 
L 286.4688 172.737688 
L 292.211333 172.504444 
L 297.953867 172.311732 
L 303.6964 172.151267 
L 307.078068 172.06424 
L 309.438933 171.955887 
L 315.181467 171.689529 
L 320.924 171.441697 
L 326.666533 171.221427 
L 332.409067 171.036212 
L 338.1516 170.882145 
L 343.894133 170.755008 
L 349.636667 170.646347 
L 355.3792 170.548491 
L 357.503404 170.512395 
L 361.121733 170.381147 
L 366.864267 170.175611 
L 372.6068 169.981179 
L 378.349333 169.807146 
L 384.091867 169.659695 
L 389.8344 169.532377 
L 395.576933 169.424863 
L 401.319467 169.33565 
L 407.062 169.257937 
L 412.804533 169.19049 
L 412.804533 168.960549 
L 412.804533 167.998687 
L 407.062 168.06343 
L 401.319467 168.13209 
L 395.576933 168.203799 
L 389.8344 168.280032 
L 384.091867 168.359923 
L 378.349333 168.442989 
L 372.6068 168.530674 
L 366.864267 168.621424 
L 361.121733 168.714665 
L 355.3792 168.811168 
L 349.636667 168.909613 
L 346.638762 168.960549 
L 343.894133 168.994699 
L 338.1516 169.069995 
L 332.409067 169.152606 
L 326.666533 169.241953 
L 320.924 169.338445 
L 315.181467 169.442812 
L 309.438933 169.556156 
L 303.6964 169.678238 
L 297.953867 169.809287 
L 292.211333 169.949129 
L 286.4688 170.097074 
L 280.726267 170.252165 
L 274.983733 170.412128 
L 271.368101 170.512395 
L 269.2412 170.557956 
L 263.498667 170.682048 
L 257.756133 170.813209 
L 252.0136 170.951074 
L 246.271067 171.094606 
L 240.528533 171.241861 
L 234.786 171.389866 
L 229.043467 171.534655 
L 223.300933 171.671458 
L 217.5584 171.794979 
L 211.815867 171.899637 
L 206.073333 171.979567 
L 200.3308 172.028274 
L 194.588267 172.038046 
L 188.845733 171.999964 
L 183.1032 171.898223 
L 177.360667 171.733759 
L 171.618133 171.511635 
L 165.8756 171.233649 
L 160.133067 170.864191 
L 155.975836 170.512395 
L 154.390533 170.385945 
L 148.648 169.810595 
L 142.905467 169.098987 
L 141.798763 168.960549 
L 137.162933 168.386094 
L 131.4204 167.631975 
L 129.603106 167.408704 
L 125.677867 166.909782 
L 119.935333 166.177823 
L 117.19154 165.856858 
L 114.1928 165.51026 
L 108.450267 165.039284 
L 102.707733 164.648043 
L 96.9652 164.306049 
L 91.222667 164.367679 
L 85.480133 165.495584 
L 85.001264 165.856858 
L 83.004083 167.408704 
L 80.998797 168.960549 
L 79.7376 169.856558 
L 79.090337 170.512395 
L 77.560532 172.06424 
L 76.269916 173.616086 
L 75.299274 175.167931 
L 74.539987 176.719776 
L 73.995067 177.971811 
L 73.869084 178.271622 
L 73.181613 179.823467 
L 72.446026 181.375313 
L 71.662965 182.927158 
L 70.832966 184.479004 
L 69.985594 186.030849 
L 69.207267 187.582694 
L 68.566489 189.13454 
L 68.252533 190.057857 
L 67.999863 190.686385 
L 67.424258 192.238231 
L 66.864591 193.790076 
L 66.309159 195.341922 
L 65.766573 196.893767 
L 65.249495 198.445612 
L 64.7636 199.997458 
L 64.304098 201.549303 
L 63.857602 203.101149 
L 63.407563 204.652994 
L 62.942288 206.20484 
L 62.51 207.600492 
L 62.51 207.756685 
L 62.51 209.30853 
L 62.51 210.860376 
L 62.51 212.412221 
L 62.51 213.964067 
L 62.51 215.515912 
L 62.51 217.067758 
L 62.51 218.508153 
z
" style="fill:#a2d99c;stroke:#a2d99c;"/>
    <path clip-path="url(#pa977a4d6c1)" d="M 384.091867 162.881876 
L 389.8344 163.019505 
L 395.576933 163.135277 
L 401.319467 163.234211 
L 407.062 163.322577 
L 412.804533 163.401975 
L 412.804533 162.753168 
L 412.804533 162.568391 
L 407.062 162.405651 
L 401.319467 162.232408 
L 395.576933 162.055413 
L 389.8344 161.875646 
L 384.091867 161.700659 
L 378.349333 161.531315 
L 372.6068 161.374938 
L 366.864267 161.255986 
L 364.198801 161.201322 
L 361.121733 161.080156 
L 355.3792 160.837292 
L 349.636667 160.585348 
L 343.894133 160.334635 
L 338.1516 160.091941 
L 332.409067 159.861012 
L 326.666533 159.651511 
L 326.606784 159.649477 
L 320.924 159.330671 
L 315.181467 159.0001 
L 309.438933 158.670949 
L 303.6964 158.355703 
L 298.719912 158.097631 
L 297.953867 158.044383 
L 292.211333 157.631282 
L 286.4688 157.219158 
L 280.726267 156.816291 
L 276.746001 156.545786 
L 274.983733 156.394313 
L 269.2412 155.89121 
L 263.498667 155.396016 
L 258.715195 154.99394 
L 257.756133 154.896892 
L 252.0136 154.305829 
L 246.271067 153.722844 
L 243.473413 153.442095 
L 240.528533 153.095474 
L 234.786 152.416915 
L 230.262535 151.89025 
L 229.043467 151.728186 
L 223.300933 150.957696 
L 218.617142 150.338404 
L 217.5584 150.181043 
L 211.815867 149.32097 
L 208.201391 148.786559 
L 206.073333 148.436747 
L 200.3308 147.493506 
L 198.756581 147.234713 
L 194.588267 146.483293 
L 190.106896 145.682868 
L 188.845733 145.438705 
L 183.1032 144.317722 
L 182.164259 144.131022 
L 177.360667 143.116295 
L 174.841952 142.579177 
L 171.618133 141.856024 
L 167.977571 141.027332 
L 165.8756 140.52766 
L 161.51902 139.475486 
L 160.133067 139.126387 
L 155.344577 137.923641 
L 154.390533 137.670831 
L 149.282923 136.371795 
L 148.648 136.198855 
L 143.222068 134.81995 
L 142.905467 134.734463 
L 137.339904 133.268104 
L 137.162933 133.220462 
L 131.690836 131.716259 
L 131.4204 131.642739 
L 126.042267 130.164414 
L 125.677867 130.064895 
L 119.935333 128.683014 
L 119.53487 128.612568 
L 114.1928 127.622691 
L 109.350403 127.060723 
L 108.450267 126.953905 
L 102.707733 126.96166 
L 102.231264 127.060723 
L 96.9652 128.196892 
L 96.190353 128.612568 
L 93.055671 130.164414 
L 91.222667 131.023565 
L 90.475206 131.716259 
L 88.636981 133.268104 
L 86.608226 134.81995 
L 85.480133 135.63254 
L 84.860208 136.371795 
L 83.226324 137.923641 
L 81.186223 139.475486 
L 79.7376 140.5494 
L 79.09144 141.027332 
L 77.288784 142.579177 
L 75.675555 144.131022 
L 74.080774 145.682868 
L 73.995067 145.759841 
L 68.252533 146.585748 
L 65.570631 147.234713 
L 62.51 148.111573 
L 62.51 148.786559 
L 62.51 150.338404 
L 62.51 151.89025 
L 62.51 153.442095 
L 62.51 154.99394 
L 62.51 156.545786 
L 62.51 158.097631 
L 62.51 158.386318 
L 62.796439 158.097631 
L 64.403133 156.545786 
L 66.254934 154.99394 
L 68.252533 153.750037 
L 68.662598 153.442095 
L 71.603372 151.89025 
L 73.995067 151.088528 
L 75.162481 150.338404 
L 77.300006 148.786559 
L 79.389502 147.234713 
L 79.7376 146.942948 
L 81.17814 145.682868 
L 83.028643 144.131022 
L 85.057333 142.579177 
L 85.480133 142.265742 
L 87.319076 141.027332 
L 90.074203 139.475486 
L 91.222667 138.794112 
L 93.357411 137.923641 
L 96.9652 136.496385 
L 97.667528 136.371795 
L 102.707733 135.368851 
L 108.450267 134.995653 
L 114.1928 135.197756 
L 119.935333 135.961695 
L 122.123539 136.371795 
L 125.677867 137.045135 
L 129.785939 137.923641 
L 131.4204 138.285604 
L 136.624617 139.475486 
L 137.162933 139.603281 
L 142.905467 140.973127 
L 143.130579 141.027332 
L 148.648 142.33844 
L 149.678898 142.579177 
L 154.390533 143.641895 
L 156.598867 144.131022 
L 160.133067 144.8599 
L 164.127107 145.682868 
L 165.8756 146.002404 
L 171.618133 147.076236 
L 172.384143 147.234713 
L 177.360667 148.072331 
L 181.064086 148.786559 
L 183.1032 149.124051 
L 188.845733 149.921319 
L 191.103037 150.338404 
L 194.588267 150.854016 
L 200.3308 151.593111 
L 202.081882 151.89025 
L 206.073333 152.406135 
L 211.815867 152.961703 
L 214.768473 153.442095 
L 217.5584 153.830423 
L 223.300933 154.242726 
L 228.500493 154.99394 
L 229.043467 155.075851 
L 234.786 155.519906 
L 240.528533 155.868327 
L 245.68439 156.545786 
L 246.271067 156.625682 
L 252.0136 157.0154 
L 257.756133 157.302452 
L 263.498667 157.687783 
L 267.131294 158.097631 
L 269.2412 158.312812 
L 274.983733 158.602569 
L 280.726267 158.83737 
L 286.4688 159.079709 
L 292.211333 159.597489 
L 292.900149 159.649477 
L 297.953867 159.9404 
L 303.6964 160.16247 
L 309.438933 160.348255 
L 315.181467 160.520394 
L 320.924 160.708383 
L 326.666533 161.099781 
L 328.321854 161.201322 
L 332.409067 161.401619 
L 338.1516 161.591388 
L 343.894133 161.744089 
L 349.636667 161.876217 
L 355.3792 161.996633 
L 361.121733 162.11155 
L 366.864267 162.228671 
L 372.6068 162.375027 
L 378.349333 162.672634 
L 380.180022 162.753168 
z
" style="fill:#a2d99c;stroke:#a2d99c;"/>
   </g>
   <g id="PathCollection_4">
    <path clip-path="url(#pa977a4d6c1)" d="M 62.951785 227.930676 
L 63.417748 226.37883 
L 63.889927 224.826985 
L 64.365621 223.275139 
L 64.83271 221.723294 
L 65.274758 220.171448 
L 65.687308 218.619603 
L 66.08791 217.067758 
L 66.508733 215.515912 
L 66.976119 213.964067 
L 67.496422 212.412221 
L 68.062598 210.860376 
L 68.252533 210.360409 
L 68.728068 209.30853 
L 69.393525 207.756685 
L 69.972299 206.20484 
L 70.454473 204.652994 
L 70.867726 203.101149 
L 71.257018 201.549303 
L 71.660457 199.997458 
L 72.096227 198.445612 
L 72.568771 196.893767 
L 73.079476 195.341922 
L 73.633747 193.790076 
L 73.995067 192.871356 
L 74.406614 192.238231 
L 75.462039 190.686385 
L 76.561154 189.13454 
L 77.585618 187.582694 
L 78.423716 186.030849 
L 79.111295 184.479004 
L 79.7376 182.966145 
L 79.806121 182.927158 
L 82.862722 181.375313 
L 85.480133 179.880811 
L 85.861515 179.823467 
L 91.222667 178.985216 
L 96.9652 179.513297 
L 99.277076 179.823467 
L 102.707733 180.257289 
L 108.450267 180.671268 
L 114.1928 180.899579 
L 119.935333 181.165696 
L 123.640551 181.375313 
L 125.677867 181.484667 
L 131.4204 181.73767 
L 137.162933 181.936896 
L 142.905467 182.021242 
L 148.648 181.973584 
L 154.390533 181.830427 
L 160.133067 181.638322 
L 165.8756 181.391148 
L 166.192921 181.375313 
L 171.618133 181.140527 
L 177.360667 180.877867 
L 183.1032 180.578671 
L 188.845733 180.24762 
L 194.588267 179.89557 
L 195.668835 179.823467 
L 200.3308 179.545635 
L 206.073333 179.181454 
L 211.815867 178.806511 
L 217.5584 178.419974 
L 219.62184 178.271622 
L 223.300933 178.016188 
L 229.043467 177.634402 
L 234.786 177.267028 
L 240.528533 176.891617 
L 243.050901 176.719776 
L 246.271067 176.491259 
L 252.0136 176.124864 
L 257.756133 175.790023 
L 263.498667 175.457073 
L 268.463073 175.167931 
L 269.2412 175.114976 
L 274.983733 174.753182 
L 280.726267 174.448946 
L 286.4688 174.166615 
L 292.211333 173.892636 
L 297.953867 173.624304 
L 298.123135 173.616086 
L 303.6964 173.295995 
L 309.438933 173.026159 
L 315.181467 172.791215 
L 320.924 172.575361 
L 326.666533 172.371639 
L 332.409067 172.171352 
L 335.292451 172.06424 
L 338.1516 171.921032 
L 343.894133 171.670007 
L 349.636667 171.463174 
L 355.3792 171.283809 
L 361.121733 171.127026 
L 366.864267 170.989956 
L 372.6068 170.860267 
L 378.349333 170.729017 
L 384.091867 170.588886 
L 386.782198 170.512395 
L 389.8344 170.392501 
L 395.576933 170.190256 
L 401.319467 170.02396 
L 407.062 169.880103 
L 412.804533 169.757016 
L 412.804533 169.19049 
L 407.062 169.257937 
L 401.319467 169.33565 
L 395.576933 169.424863 
L 389.8344 169.532377 
L 384.091867 169.659695 
L 378.349333 169.807146 
L 372.6068 169.981179 
L 366.864267 170.175611 
L 361.121733 170.381147 
L 357.503404 170.512395 
L 355.3792 170.548491 
L 349.636667 170.646347 
L 343.894133 170.755008 
L 338.1516 170.882145 
L 332.409067 171.036212 
L 326.666533 171.221427 
L 320.924 171.441697 
L 315.181467 171.689529 
L 309.438933 171.955887 
L 307.078068 172.06424 
L 303.6964 172.151267 
L 297.953867 172.311732 
L 292.211333 172.504444 
L 286.4688 172.737688 
L 280.726267 173.008689 
L 274.983733 173.303466 
L 269.2412 173.614924 
L 269.218815 173.616086 
L 263.498667 173.816116 
L 257.756133 174.055322 
L 252.0136 174.3313 
L 246.271067 174.631284 
L 240.528533 174.94552 
L 236.480996 175.167931 
L 234.786 175.238364 
L 229.043467 175.483348 
L 223.300933 175.749188 
L 217.5584 176.024669 
L 211.815867 176.300154 
L 206.073333 176.566478 
L 202.421484 176.719776 
L 200.3308 176.793519 
L 194.588267 176.975818 
L 188.845733 177.142834 
L 183.1032 177.275169 
L 177.360667 177.365431 
L 171.618133 177.406906 
L 165.8756 177.395758 
L 160.133067 177.316421 
L 154.390533 177.195428 
L 148.648 177.045975 
L 142.905467 176.839419 
L 140.587734 176.719776 
L 137.162933 176.483176 
L 131.4204 175.886357 
L 125.677867 175.192808 
L 125.489721 175.167931 
L 119.935333 174.412137 
L 114.1928 173.636909 
L 114.057246 173.616086 
L 108.450267 172.760086 
L 104.043261 172.06424 
L 102.707733 171.855518 
L 96.9652 171.187336 
L 91.222667 170.93904 
L 85.480133 171.705118 
L 84.915135 172.06424 
L 82.412558 173.616086 
L 79.85008 175.167931 
L 79.7376 175.239167 
L 78.760522 176.719776 
L 77.933568 178.271622 
L 77.188442 179.823467 
L 76.462839 181.375313 
L 75.724936 182.927158 
L 74.925779 184.479004 
L 73.995067 186.024601 
L 73.991466 186.030849 
L 73.068606 187.582694 
L 72.220424 189.13454 
L 71.513439 190.686385 
L 70.924583 192.238231 
L 70.396916 193.790076 
L 69.893291 195.341922 
L 69.398825 196.893767 
L 68.910668 198.445612 
L 68.4284 199.997458 
L 68.252533 200.571082 
L 67.917259 201.549303 
L 67.411069 203.101149 
L 66.911192 204.652994 
L 66.397363 206.20484 
L 65.863369 207.756685 
L 65.319765 209.30853 
L 64.784992 210.860376 
L 64.273811 212.412221 
L 63.792814 213.964067 
L 63.340712 215.515912 
L 62.907635 217.067758 
L 62.51 218.508153 
L 62.51 218.619603 
L 62.51 220.171448 
L 62.51 221.723294 
L 62.51 223.275139 
L 62.51 224.826985 
L 62.51 226.37883 
L 62.51 227.930676 
L 62.51 229.420386 
z
" style="fill:#e5f5e1;stroke:#e5f5e1;"/>
    <path clip-path="url(#pa977a4d6c1)" d="M 366.864267 161.255986 
L 372.6068 161.374938 
L 378.349333 161.531315 
L 384.091867 161.700659 
L 389.8344 161.875646 
L 395.576933 162.055413 
L 401.319467 162.232408 
L 407.062 162.405651 
L 412.804533 162.568391 
L 412.804533 161.234323 
L 411.736316 161.201322 
L 407.062 161.063875 
L 401.319467 160.880021 
L 395.576933 160.682243 
L 389.8344 160.466018 
L 384.091867 160.235118 
L 378.349333 159.992946 
L 372.6068 159.736256 
L 370.668447 159.649477 
L 366.864267 159.488332 
L 361.121733 159.229335 
L 355.3792 158.944231 
L 349.636667 158.637152 
L 343.894133 158.312254 
L 340.218768 158.097631 
L 338.1516 157.98284 
L 332.409067 157.644675 
L 326.666533 157.276289 
L 320.924 156.880321 
L 316.309088 156.545786 
L 315.181467 156.467263 
L 309.438933 156.048956 
L 303.6964 155.591013 
L 297.953867 155.097273 
L 296.766888 154.99394 
L 292.211333 154.604259 
L 286.4688 154.070849 
L 280.726267 153.487067 
L 280.286554 153.442095 
L 274.983733 152.902863 
L 269.2412 152.261056 
L 266.074896 151.89025 
L 263.498667 151.590503 
L 257.756133 150.881082 
L 253.651187 150.338404 
L 252.0136 150.1222 
L 246.271067 149.327971 
L 242.601903 148.786559 
L 240.528533 148.478416 
L 234.786 147.577734 
L 232.683949 147.234713 
L 229.043467 146.630224 
L 223.72015 145.682868 
L 223.300933 145.606935 
L 217.5584 144.541874 
L 215.439817 144.131022 
L 211.815867 143.409127 
L 207.830724 142.579177 
L 206.073333 142.202381 
L 200.783417 141.027332 
L 200.3308 140.923464 
L 194.588267 139.580989 
L 194.142972 139.475486 
L 188.845733 138.17171 
L 187.850989 137.923641 
L 183.1032 136.687345 
L 181.886198 136.371795 
L 177.360667 135.137593 
L 176.168687 134.81995 
L 171.618133 133.533607 
L 170.637649 133.268104 
L 165.8756 131.893179 
L 165.226094 131.716259 
L 160.133067 130.246635 
L 159.834679 130.164414 
L 154.390533 128.615444 
L 154.380461 128.612568 
L 148.921674 127.060723 
L 148.648 126.979521 
L 143.656343 125.508877 
L 142.905467 125.29004 
L 138.653083 123.957032 
L 137.162933 123.49965 
L 133.580383 122.405186 
L 131.4204 121.732017 
L 128.305779 120.853341 
L 125.677867 120.087501 
L 122.316148 119.301496 
L 119.935333 118.754244 
L 114.1928 117.956269 
L 108.450267 117.871231 
L 102.707733 118.526588 
L 100.589132 119.301496 
L 96.9652 120.354335 
L 96.231639 120.853341 
L 94.063772 122.405186 
L 91.292509 123.957032 
L 91.222667 123.991156 
L 89.671055 125.508877 
L 88.376438 127.060723 
L 86.837747 128.612568 
L 85.480133 129.388102 
L 84.49957 130.164414 
L 83.44118 131.716259 
L 82.454553 133.268104 
L 80.644877 134.81995 
L 79.7376 135.511339 
L 77.423998 136.371795 
L 74.764009 137.923641 
L 73.995067 138.468246 
L 68.252533 139.278277 
L 66.486719 139.475486 
L 62.51 139.905861 
L 62.51 141.027332 
L 62.51 142.579177 
L 62.51 144.131022 
L 62.51 145.682868 
L 62.51 147.234713 
L 62.51 148.111573 
L 65.570631 147.234713 
L 68.252533 146.585748 
L 73.995067 145.759841 
L 74.080774 145.682868 
L 75.675555 144.131022 
L 77.288784 142.579177 
L 79.09144 141.027332 
L 79.7376 140.5494 
L 81.186223 139.475486 
L 83.226324 137.923641 
L 84.860208 136.371795 
L 85.480133 135.63254 
L 86.608226 134.81995 
L 88.636981 133.268104 
L 90.475206 131.716259 
L 91.222667 131.023565 
L 93.055671 130.164414 
L 96.190353 128.612568 
L 96.9652 128.196892 
L 102.231264 127.060723 
L 102.707733 126.96166 
L 108.450267 126.953905 
L 109.350403 127.060723 
L 114.1928 127.622691 
L 119.53487 128.612568 
L 119.935333 128.683014 
L 125.677867 130.064895 
L 126.042267 130.164414 
L 131.4204 131.642739 
L 131.690836 131.716259 
L 137.162933 133.220462 
L 137.339904 133.268104 
L 142.905467 134.734463 
L 143.222068 134.81995 
L 148.648 136.198855 
L 149.282923 136.371795 
L 154.390533 137.670831 
L 155.344577 137.923641 
L 160.133067 139.126387 
L 161.51902 139.475486 
L 165.8756 140.52766 
L 167.977571 141.027332 
L 171.618133 141.856024 
L 174.841952 142.579177 
L 177.360667 143.116295 
L 182.164259 144.131022 
L 183.1032 144.317722 
L 188.845733 145.438705 
L 190.106896 145.682868 
L 194.588267 146.483293 
L 198.756581 147.234713 
L 200.3308 147.493506 
L 206.073333 148.436747 
L 208.201391 148.786559 
L 211.815867 149.32097 
L 217.5584 150.181043 
L 218.617142 150.338404 
L 223.300933 150.957696 
L 229.043467 151.728186 
L 230.262535 151.89025 
L 234.786 152.416915 
L 240.528533 153.095474 
L 243.473413 153.442095 
L 246.271067 153.722844 
L 252.0136 154.305829 
L 257.756133 154.896892 
L 258.715195 154.99394 
L 263.498667 155.396016 
L 269.2412 155.89121 
L 274.983733 156.394313 
L 276.746001 156.545786 
L 280.726267 156.816291 
L 286.4688 157.219158 
L 292.211333 157.631282 
L 297.953867 158.044383 
L 298.719912 158.097631 
L 303.6964 158.355703 
L 309.438933 158.670949 
L 315.181467 159.0001 
L 320.924 159.330671 
L 326.606784 159.649477 
L 326.666533 159.651511 
L 332.409067 159.861012 
L 338.1516 160.091941 
L 343.894133 160.334635 
L 349.636667 160.585348 
L 355.3792 160.837292 
L 361.121733 161.080156 
L 364.198801 161.201322 
z
" style="fill:#e5f5e1;stroke:#e5f5e1;"/>
   </g>
   <g id="matplotlib.axis_1">
    <g id="xtick_1">
     <g id="line2d_1">
      <path clip-path="url(#pa977a4d6c1)" d="M 62.51 318.04 
L 62.51 14.76 
" style="fill:none;stroke:#b0b0b0;stroke-linecap:square;stroke-width:0.8;"/>
     </g>
     <g id="line2d_2">
      <defs>
       <path d="M 0 0 
L 0 3.5 
" id="m79ba6cccb8" style="stroke:#000000;stroke-width:0.8;"/>
      </defs>
      <g>
       <use style="stroke:#000000;stroke-width:0.8;" x="62.51" xlink:href="#m79ba6cccb8" y="318.04"/>
      </g>
     </g>
     <g id="text_1">
      <!-- 0.0 -->
      <g transform="translate(54.558437 332.638438)scale(0.1 -0.1)">
       <defs>
        <path d="M 2034 4250 
Q 1547 4250 1301 3770 
Q 1056 3291 1056 2328 
Q 1056 1369 1301 889 
Q 1547 409 2034 409 
Q 2525 409 2770 889 
Q 3016 1369 3016 2328 
Q 3016 3291 2770 3770 
Q 2525 4250 2034 4250 
z
M 2034 4750 
Q 2819 4750 3233 4129 
Q 3647 3509 3647 2328 
Q 3647 1150 3233 529 
Q 2819 -91 2034 -91 
Q 1250 -91 836 529 
Q 422 1150 422 2328 
Q 422 3509 836 4129 
Q 1250 4750 2034 4750 
z
" id="DejaVuSans-30" transform="scale(0.015625)"/>
        <path d="M 684 794 
L 1344 794 
L 1344 0 
L 684 0 
L 684 794 
z
" id="DejaVuSans-2e" transform="scale(0.015625)"/>
       </defs>
       <use xlink:href="#DejaVuSans-30"/>
       <use x="63.623047" xlink:href="#DejaVuSans-2e"/>
       <use x="95.410156" xlink:href="#DejaVuSans-30"/>
      </g>
     </g>
    </g>
    <g id="xtick_2">
     <g id="line2d_3">
      <path clip-path="url(#pa977a4d6c1)" d="M 119.935333 318.04 
L 119.935333 14.76 
" style="fill:none;stroke:#b0b0b0;stroke-linecap:square;stroke-width:0.8;"/>
     </g>
     <g id="line2d_4">
      <g>
       <use style="stroke:#000000;stroke-width:0.8;" x="119.935333" xlink:href="#m79ba6cccb8" y="318.04"/>
      </g>
     </g>
     <g id="text_2">
      <!-- 0.5 -->
      <g transform="translate(111.983771 332.638438)scale(0.1 -0.1)">
       <defs>
        <path d="M 691 4666 
L 3169 4666 
L 3169 4134 
L 1269 4134 
L 1269 2991 
Q 1406 3038 1543 3061 
Q 1681 3084 1819 3084 
Q 2600 3084 3056 2656 
Q 3513 2228 3513 1497 
Q 3513 744 3044 326 
Q 2575 -91 1722 -91 
Q 1428 -91 1123 -41 
Q 819 9 494 109 
L 494 744 
Q 775 591 1075 516 
Q 1375 441 1709 441 
Q 2250 441 2565 725 
Q 2881 1009 2881 1497 
Q 2881 1984 2565 2268 
Q 2250 2553 1709 2553 
Q 1456 2553 1204 2497 
Q 953 2441 691 2322 
L 691 4666 
z
" id="DejaVuSans-35" transform="scale(0.015625)"/>
       </defs>
       <use xlink:href="#DejaVuSans-30"/>
       <use x="63.623047" xlink:href="#DejaVuSans-2e"/>
       <use x="95.410156" xlink:href="#DejaVuSans-35"/>
      </g>
     </g>
    </g>
    <g id="xtick_3">
     <g id="line2d_5">
      <path clip-path="url(#pa977a4d6c1)" d="M 177.360667 318.04 
L 177.360667 14.76 
" style="fill:none;stroke:#b0b0b0;stroke-linecap:square;stroke-width:0.8;"/>
     </g>
     <g id="line2d_6">
      <g>
       <use style="stroke:#000000;stroke-width:0.8;" x="177.360667" xlink:href="#m79ba6cccb8" y="318.04"/>
      </g>
     </g>
     <g id="text_3">
      <!-- 1.0 -->
      <g transform="translate(169.409104 332.638438)scale(0.1 -0.1)">
       <defs>
        <path d="M 794 531 
L 1825 531 
L 1825 4091 
L 703 3866 
L 703 4441 
L 1819 4666 
L 2450 4666 
L 2450 531 
L 3481 531 
L 3481 0 
L 794 0 
L 794 531 
z
" id="DejaVuSans-31" transform="scale(0.015625)"/>
       </defs>
       <use xlink:href="#DejaVuSans-31"/>
       <use x="63.623047" xlink:href="#DejaVuSans-2e"/>
       <use x="95.410156" xlink:href="#DejaVuSans-30"/>
      </g>
     </g>
    </g>
    <g id="xtick_4">
     <g id="line2d_7">
      <path clip-path="url(#pa977a4d6c1)" d="M 234.786 318.04 
L 234.786 14.76 
" style="fill:none;stroke:#b0b0b0;stroke-linecap:square;stroke-width:0.8;"/>
     </g>
     <g id="line2d_8">
      <g>
       <use style="stroke:#000000;stroke-width:0.8;" x="234.786" xlink:href="#m79ba6cccb8" y="318.04"/>
      </g>
     </g>
     <g id="text_4">
      <!-- 1.5 -->
      <g transform="translate(226.834438 332.638438)scale(0.1 -0.1)">
       <use xlink:href="#DejaVuSans-31"/>
       <use x="63.623047" xlink:href="#DejaVuSans-2e"/>
       <use x="95.410156" xlink:href="#DejaVuSans-35"/>
      </g>
     </g>
    </g>
    <g id="xtick_5">
     <g id="line2d_9">
      <path clip-path="url(#pa977a4d6c1)" d="M 292.211333 318.04 
L 292.211333 14.76 
" style="fill:none;stroke:#b0b0b0;stroke-linecap:square;stroke-width:0.8;"/>
     </g>
     <g id="line2d_10">
      <g>
       <use style="stroke:#000000;stroke-width:0.8;" x="292.211333" xlink:href="#m79ba6cccb8" y="318.04"/>
      </g>
     </g>
     <g id="text_5">
      <!-- 2.0 -->
      <g transform="translate(284.259771 332.638438)scale(0.1 -0.1)">
       <defs>
        <path d="M 1228 531 
L 3431 531 
L 3431 0 
L 469 0 
L 469 531 
Q 828 903 1448 1529 
Q 2069 2156 2228 2338 
Q 2531 2678 2651 2914 
Q 2772 3150 2772 3378 
Q 2772 3750 2511 3984 
Q 2250 4219 1831 4219 
Q 1534 4219 1204 4116 
Q 875 4013 500 3803 
L 500 4441 
Q 881 4594 1212 4672 
Q 1544 4750 1819 4750 
Q 2544 4750 2975 4387 
Q 3406 4025 3406 3419 
Q 3406 3131 3298 2873 
Q 3191 2616 2906 2266 
Q 2828 2175 2409 1742 
Q 1991 1309 1228 531 
z
" id="DejaVuSans-32" transform="scale(0.015625)"/>
       </defs>
       <use xlink:href="#DejaVuSans-32"/>
       <use x="63.623047" xlink:href="#DejaVuSans-2e"/>
       <use x="95.410156" xlink:href="#DejaVuSans-30"/>
      </g>
     </g>
    </g>
    <g id="xtick_6">
     <g id="line2d_11">
      <path clip-path="url(#pa977a4d6c1)" d="M 349.636667 318.04 
L 349.636667 14.76 
" style="fill:none;stroke:#b0b0b0;stroke-linecap:square;stroke-width:0.8;"/>
     </g>
     <g id="line2d_12">
      <g>
       <use style="stroke:#000000;stroke-width:0.8;" x="349.636667" xlink:href="#m79ba6cccb8" y="318.04"/>
      </g>
     </g>
     <g id="text_6">
      <!-- 2.5 -->
      <g transform="translate(341.685104 332.638438)scale(0.1 -0.1)">
       <use xlink:href="#DejaVuSans-32"/>
       <use x="63.623047" xlink:href="#DejaVuSans-2e"/>
       <use x="95.410156" xlink:href="#DejaVuSans-35"/>
      </g>
     </g>
    </g>
    <g id="xtick_7">
     <g id="line2d_13">
      <path clip-path="url(#pa977a4d6c1)" d="M 407.062 318.04 
L 407.062 14.76 
" style="fill:none;stroke:#b0b0b0;stroke-linecap:square;stroke-width:0.8;"/>
     </g>
     <g id="line2d_14">
      <g>
       <use style="stroke:#000000;stroke-width:0.8;" x="407.062" xlink:href="#m79ba6cccb8" y="318.04"/>
      </g>
     </g>
     <g id="text_7">
      <!-- 3.0 -->
      <g transform="translate(399.110437 332.638438)scale(0.1 -0.1)">
       <defs>
        <path d="M 2597 2516 
Q 3050 2419 3304 2112 
Q 3559 1806 3559 1356 
Q 3559 666 3084 287 
Q 2609 -91 1734 -91 
Q 1441 -91 1130 -33 
Q 819 25 488 141 
L 488 750 
Q 750 597 1062 519 
Q 1375 441 1716 441 
Q 2309 441 2620 675 
Q 2931 909 2931 1356 
Q 2931 1769 2642 2001 
Q 2353 2234 1838 2234 
L 1294 2234 
L 1294 2753 
L 1863 2753 
Q 2328 2753 2575 2939 
Q 2822 3125 2822 3475 
Q 2822 3834 2567 4026 
Q 2313 4219 1838 4219 
Q 1578 4219 1281 4162 
Q 984 4106 628 3988 
L 628 4550 
Q 988 4650 1302 4700 
Q 1616 4750 1894 4750 
Q 2613 4750 3031 4423 
Q 3450 4097 3450 3541 
Q 3450 3153 3228 2886 
Q 3006 2619 2597 2516 
z
" id="DejaVuSans-33" transform="scale(0.015625)"/>
       </defs>
       <use xlink:href="#DejaVuSans-33"/>
       <use x="63.623047" xlink:href="#DejaVuSans-2e"/>
       <use x="95.410156" xlink:href="#DejaVuSans-30"/>
      </g>
     </g>
    </g>
    <g id="text_8">
     <!-- $z$ -->
     <g transform="translate(232.136 346.316563)scale(0.1 -0.1)">
      <defs>
       <path d="M 744 3500 
L 3475 3500 
L 3372 2975 
L 738 459 
L 2913 459 
L 2822 0 
L -19 0 
L 84 525 
L 2719 3041 
L 653 3041 
L 744 3500 
z
" id="DejaVuSans-Oblique-7a" transform="scale(0.015625)"/>
      </defs>
      <use transform="translate(0 0.3125)" xlink:href="#DejaVuSans-Oblique-7a"/>
     </g>
    </g>
   </g>
   <g id="matplotlib.axis_2">
    <g id="ytick_1">
     <g id="line2d_15">
      <path clip-path="url(#pa977a4d6c1)" d="M 62.51 318.04 
L 407.062 318.04 
" style="fill:none;stroke:#b0b0b0;stroke-linecap:square;stroke-width:0.8;"/>
     </g>
     <g id="line2d_16">
      <defs>
       <path d="M 0 0 
L -3.5 0 
" id="m41cda35775" style="stroke:#000000;stroke-width:0.8;"/>
      </defs>
      <g>
       <use style="stroke:#000000;stroke-width:0.8;" x="62.51" xlink:href="#m41cda35775" y="318.04"/>
      </g>
     </g>
     <g id="text_9">
      <!-- −2.00 -->
      <g transform="translate(24.864687 321.839219)scale(0.1 -0.1)">
       <defs>
        <path d="M 678 2272 
L 4684 2272 
L 4684 1741 
L 678 1741 
L 678 2272 
z
" id="DejaVuSans-2212" transform="scale(0.015625)"/>
       </defs>
       <use xlink:href="#DejaVuSans-2212"/>
       <use x="83.789062" xlink:href="#DejaVuSans-32"/>
       <use x="147.412109" xlink:href="#DejaVuSans-2e"/>
       <use x="179.199219" xlink:href="#DejaVuSans-30"/>
       <use x="242.822266" xlink:href="#DejaVuSans-30"/>
      </g>
     </g>
    </g>
    <g id="ytick_2">
     <g id="line2d_17">
      <path clip-path="url(#pa977a4d6c1)" d="M 62.51 280.13 
L 407.062 280.13 
" style="fill:none;stroke:#b0b0b0;stroke-linecap:square;stroke-width:0.8;"/>
     </g>
     <g id="line2d_18">
      <g>
       <use style="stroke:#000000;stroke-width:0.8;" x="62.51" xlink:href="#m41cda35775" y="280.13"/>
      </g>
     </g>
     <g id="text_10">
      <!-- −1.75 -->
      <g transform="translate(24.864687 283.929219)scale(0.1 -0.1)">
       <defs>
        <path d="M 525 4666 
L 3525 4666 
L 3525 4397 
L 1831 0 
L 1172 0 
L 2766 4134 
L 525 4134 
L 525 4666 
z
" id="DejaVuSans-37" transform="scale(0.015625)"/>
       </defs>
       <use xlink:href="#DejaVuSans-2212"/>
       <use x="83.789062" xlink:href="#DejaVuSans-31"/>
       <use x="147.412109" xlink:href="#DejaVuSans-2e"/>
       <use x="179.199219" xlink:href="#DejaVuSans-37"/>
       <use x="242.822266" xlink:href="#DejaVuSans-35"/>
      </g>
     </g>
    </g>
    <g id="ytick_3">
     <g id="line2d_19">
      <path clip-path="url(#pa977a4d6c1)" d="M 62.51 242.22 
L 407.062 242.22 
" style="fill:none;stroke:#b0b0b0;stroke-linecap:square;stroke-width:0.8;"/>
     </g>
     <g id="line2d_20">
      <g>
       <use style="stroke:#000000;stroke-width:0.8;" x="62.51" xlink:href="#m41cda35775" y="242.22"/>
      </g>
     </g>
     <g id="text_11">
      <!-- −1.50 -->
      <g transform="translate(24.864687 246.019219)scale(0.1 -0.1)">
       <use xlink:href="#DejaVuSans-2212"/>
       <use x="83.789062" xlink:href="#DejaVuSans-31"/>
       <use x="147.412109" xlink:href="#DejaVuSans-2e"/>
       <use x="179.199219" xlink:href="#DejaVuSans-35"/>
       <use x="242.822266" xlink:href="#DejaVuSans-30"/>
      </g>
     </g>
    </g>
    <g id="ytick_4">
     <g id="line2d_21">
      <path clip-path="url(#pa977a4d6c1)" d="M 62.51 204.31 
L 407.062 204.31 
" style="fill:none;stroke:#b0b0b0;stroke-linecap:square;stroke-width:0.8;"/>
     </g>
     <g id="line2d_22">
      <g>
       <use style="stroke:#000000;stroke-width:0.8;" x="62.51" xlink:href="#m41cda35775" y="204.31"/>
      </g>
     </g>
     <g id="text_12">
      <!-- −1.25 -->
      <g transform="translate(24.864687 208.109219)scale(0.1 -0.1)">
       <use xlink:href="#DejaVuSans-2212"/>
       <use x="83.789062" xlink:href="#DejaVuSans-31"/>
       <use x="147.412109" xlink:href="#DejaVuSans-2e"/>
       <use x="179.199219" xlink:href="#DejaVuSans-32"/>
       <use x="242.822266" xlink:href="#DejaVuSans-35"/>
      </g>
     </g>
    </g>
    <g id="ytick_5">
     <g id="line2d_23">
      <path clip-path="url(#pa977a4d6c1)" d="M 62.51 166.4 
L 407.062 166.4 
" style="fill:none;stroke:#b0b0b0;stroke-linecap:square;stroke-width:0.8;"/>
     </g>
     <g id="line2d_24">
      <g>
       <use style="stroke:#000000;stroke-width:0.8;" x="62.51" xlink:href="#m41cda35775" y="166.4"/>
      </g>
     </g>
     <g id="text_13">
      <!-- −1.00 -->
      <g transform="translate(24.864687 170.199219)scale(0.1 -0.1)">
       <use xlink:href="#DejaVuSans-2212"/>
       <use x="83.789062" xlink:href="#DejaVuSans-31"/>
       <use x="147.412109" xlink:href="#DejaVuSans-2e"/>
       <use x="179.199219" xlink:href="#DejaVuSans-30"/>
       <use x="242.822266" xlink:href="#DejaVuSans-30"/>
      </g>
     </g>
    </g>
    <g id="ytick_6">
     <g id="line2d_25">
      <path clip-path="url(#pa977a4d6c1)" d="M 62.51 128.49 
L 407.062 128.49 
" style="fill:none;stroke:#b0b0b0;stroke-linecap:square;stroke-width:0.8;"/>
     </g>
     <g id="line2d_26">
      <g>
       <use style="stroke:#000000;stroke-width:0.8;" x="62.51" xlink:href="#m41cda35775" y="128.49"/>
      </g>
     </g>
     <g id="text_14">
      <!-- −0.75 -->
      <g transform="translate(24.864687 132.289219)scale(0.1 -0.1)">
       <use xlink:href="#DejaVuSans-2212"/>
       <use x="83.789062" xlink:href="#DejaVuSans-30"/>
       <use x="147.412109" xlink:href="#DejaVuSans-2e"/>
       <use x="179.199219" xlink:href="#DejaVuSans-37"/>
       <use x="242.822266" xlink:href="#DejaVuSans-35"/>
      </g>
     </g>
    </g>
    <g id="ytick_7">
     <g id="line2d_27">
      <path clip-path="url(#pa977a4d6c1)" d="M 62.51 90.58 
L 407.062 90.58 
" style="fill:none;stroke:#b0b0b0;stroke-linecap:square;stroke-width:0.8;"/>
     </g>
     <g id="line2d_28">
      <g>
       <use style="stroke:#000000;stroke-width:0.8;" x="62.51" xlink:href="#m41cda35775" y="90.58"/>
      </g>
     </g>
     <g id="text_15">
      <!-- −0.50 -->
      <g transform="translate(24.864687 94.379219)scale(0.1 -0.1)">
       <use xlink:href="#DejaVuSans-2212"/>
       <use x="83.789062" xlink:href="#DejaVuSans-30"/>
       <use x="147.412109" xlink:href="#DejaVuSans-2e"/>
       <use x="179.199219" xlink:href="#DejaVuSans-35"/>
       <use x="242.822266" xlink:href="#DejaVuSans-30"/>
      </g>
     </g>
    </g>
    <g id="ytick_8">
     <g id="line2d_29">
      <path clip-path="url(#pa977a4d6c1)" d="M 62.51 52.67 
L 407.062 52.67 
" style="fill:none;stroke:#b0b0b0;stroke-linecap:square;stroke-width:0.8;"/>
     </g>
     <g id="line2d_30">
      <g>
       <use style="stroke:#000000;stroke-width:0.8;" x="62.51" xlink:href="#m41cda35775" y="52.67"/>
      </g>
     </g>
     <g id="text_16">
      <!-- −0.25 -->
      <g transform="translate(24.864687 56.469219)scale(0.1 -0.1)">
       <use xlink:href="#DejaVuSans-2212"/>
       <use x="83.789062" xlink:href="#DejaVuSans-30"/>
       <use x="147.412109" xlink:href="#DejaVuSans-2e"/>
       <use x="179.199219" xlink:href="#DejaVuSans-32"/>
       <use x="242.822266" xlink:href="#DejaVuSans-35"/>
      </g>
     </g>
    </g>
    <g id="ytick_9">
     <g id="line2d_31">
      <path clip-path="url(#pa977a4d6c1)" d="M 62.51 14.76 
L 407.062 14.76 
" style="fill:none;stroke:#b0b0b0;stroke-linecap:square;stroke-width:0.8;"/>
     </g>
     <g id="line2d_32">
      <g>
       <use style="stroke:#000000;stroke-width:0.8;" x="62.51" xlink:href="#m41cda35775" y="14.76"/>
      </g>
     </g>
     <g id="text_17">
      <!-- 0.00 -->
      <g transform="translate(33.244375 18.559219)scale(0.1 -0.1)">
       <use xlink:href="#DejaVuSans-30"/>
       <use x="63.623047" xlink:href="#DejaVuSans-2e"/>
       <use x="95.410156" xlink:href="#DejaVuSans-30"/>
       <use x="159.033203" xlink:href="#DejaVuSans-30"/>
      </g>
     </g>
    </g>
    <g id="text_18">
     <!-- $\omega(z)$ -->
     <g transform="translate(18.785 177.15)rotate(-90)scale(0.1 -0.1)">
      <defs>
       <path d="M 1369 -91 
Q 72 -91 434 1766 
Q 575 2500 1256 3500 
L 1875 3500 
Q 1231 2500 1088 1750 
Q 819 397 1519 397 
Q 2166 397 2478 2078 
L 3009 2078 
Q 2669 388 3316 397 
Q 4013 403 4275 1750 
Q 4419 2500 4169 3500 
L 4788 3500 
Q 5075 2500 4934 1766 
Q 4578 -94 3278 -91 
Q 2428 -88 2503 844 
Q 2194 -91 1369 -91 
z
" id="DejaVuSans-Oblique-3c9" transform="scale(0.015625)"/>
       <path d="M 1984 4856 
Q 1566 4138 1362 3434 
Q 1159 2731 1159 2009 
Q 1159 1288 1364 580 
Q 1569 -128 1984 -844 
L 1484 -844 
Q 1016 -109 783 600 
Q 550 1309 550 2009 
Q 550 2706 781 3412 
Q 1013 4119 1484 4856 
L 1984 4856 
z
" id="DejaVuSans-28" transform="scale(0.015625)"/>
       <path d="M 513 4856 
L 1013 4856 
Q 1481 4119 1714 3412 
Q 1947 2706 1947 2009 
Q 1947 1309 1714 600 
Q 1481 -109 1013 -844 
L 513 -844 
Q 928 -128 1133 580 
Q 1338 1288 1338 2009 
Q 1338 2731 1133 3434 
Q 928 4138 513 4856 
z
" id="DejaVuSans-29" transform="scale(0.015625)"/>
      </defs>
      <use transform="translate(0 0.125)" xlink:href="#DejaVuSans-Oblique-3c9"/>
      <use transform="translate(83.740234 0.125)" xlink:href="#DejaVuSans-28"/>
      <use transform="translate(122.753906 0.125)" xlink:href="#DejaVuSans-Oblique-7a"/>
      <use transform="translate(175.244141 0.125)" xlink:href="#DejaVuSans-29"/>
     </g>
    </g>
   </g>
   <g id="LineCollection_1">
    <path clip-path="url(#pa977a4d6c1)" d="M 412.804533 167.998687 
L 407.062 168.06343 
L 401.319467 168.13209 
L 395.576933 168.203799 
L 389.8344 168.280032 
L 384.091867 168.359923 
L 378.349333 168.442989 
L 372.6068 168.530674 
L 366.864267 168.621424 
L 361.121733 168.714665 
L 355.3792 168.811168 
L 349.636667 168.909613 
L 346.638762 168.960549 
L 343.894133 168.994699 
L 338.1516 169.069995 
L 332.409067 169.152606 
L 326.666533 169.241953 
L 320.924 169.338445 
L 315.181467 169.442812 
L 309.438933 169.556156 
L 303.6964 169.678238 
L 297.953867 169.809287 
L 292.211333 169.949129 
L 286.4688 170.097074 
L 280.726267 170.252165 
L 274.983733 170.412128 
L 271.368101 170.512395 
L 269.2412 170.557956 
L 263.498667 170.682048 
L 257.756133 170.813209 
L 252.0136 170.951074 
L 246.271067 171.094606 
L 240.528533 171.241861 
L 234.786 171.389866 
L 229.043467 171.534655 
L 223.300933 171.671458 
L 217.5584 171.794979 
L 211.815867 171.899637 
L 206.073333 171.979567 
L 200.3308 172.028274 
L 194.588267 172.038046 
L 188.845733 171.999964 
L 183.1032 171.898223 
L 177.360667 171.733759 
L 171.618133 171.511635 
L 165.8756 171.233649 
L 160.133067 170.864191 
L 155.975836 170.512395 
L 154.390533 170.385945 
L 148.648 169.810595 
L 142.905467 169.098987 
L 141.798763 168.960549 
L 137.162933 168.386094 
L 131.4204 167.631975 
L 129.603106 167.408704 
L 125.677867 166.909782 
L 119.935333 166.177823 
L 117.19154 165.856858 
L 114.1928 165.51026 
L 108.450267 165.039284 
L 102.707733 164.648043 
L 96.9652 164.306049 
L 91.222667 164.367679 
L 85.480133 165.495584 
L 85.001264 165.856858 
L 83.004083 167.408704 
L 80.998797 168.960549 
L 79.7376 169.856558 
L 79.090337 170.512395 
L 77.560532 172.06424 
L 76.269916 173.616086 
L 75.299274 175.167931 
L 74.539987 176.719776 
L 73.995067 177.971811 
L 73.869084 178.271622 
L 73.181613 179.823467 
L 72.446026 181.375313 
L 71.662965 182.927158 
L 70.832966 184.479004 
L 69.985594 186.030849 
L 69.207267 187.582694 
L 68.566489 189.13454 
L 68.252533 190.057857 
L 67.999863 190.686385 
L 67.424258 192.238231 
L 66.864591 193.790076 
L 66.309159 195.341922 
L 65.766573 196.893767 
L 65.249495 198.445612 
L 64.7636 199.997458 
L 64.304098 201.549303 
L 63.857602 203.101149 
L 63.407563 204.652994 
L 62.942288 206.20484 
L 62.51 207.600492 
" style="fill:none;stroke:#000000;stroke-width:2;"/>
    <path clip-path="url(#pa977a4d6c1)" d="M 62.51 158.386318 
L 62.796439 158.097631 
L 64.403133 156.545786 
L 66.254934 154.99394 
L 68.252533 153.750037 
L 68.662598 153.442095 
L 71.603372 151.89025 
L 73.995067 151.088528 
L 75.162481 150.338404 
L 77.300006 148.786559 
L 79.389502 147.234713 
L 79.7376 146.942948 
L 81.17814 145.682868 
L 83.028643 144.131022 
L 85.057333 142.579177 
L 85.480133 142.265742 
L 87.319076 141.027332 
L 90.074203 139.475486 
L 91.222667 138.794112 
L 93.357411 137.923641 
L 96.9652 136.496385 
L 97.667528 136.371795 
L 102.707733 135.368851 
L 108.450267 134.995653 
L 114.1928 135.197756 
L 119.935333 135.961695 
L 122.123539 136.371795 
L 125.677867 137.045135 
L 129.785939 137.923641 
L 131.4204 138.285604 
L 136.624617 139.475486 
L 137.162933 139.603281 
L 142.905467 140.973127 
L 143.130579 141.027332 
L 148.648 142.33844 
L 149.678898 142.579177 
L 154.390533 143.641895 
L 156.598867 144.131022 
L 160.133067 144.8599 
L 164.127107 145.682868 
L 165.8756 146.002404 
L 171.618133 147.076236 
L 172.384143 147.234713 
L 177.360667 148.072331 
L 181.064086 148.786559 
L 183.1032 149.124051 
L 188.845733 149.921319 
L 191.103037 150.338404 
L 194.588267 150.854016 
L 200.3308 151.593111 
L 202.081882 151.89025 
L 206.073333 152.406135 
L 211.815867 152.961703 
L 214.768473 153.442095 
L 217.5584 153.830423 
L 223.300933 154.242726 
L 228.500493 154.99394 
L 229.043467 155.075851 
L 234.786 155.519906 
L 240.528533 155.868327 
L 245.68439 156.545786 
L 246.271067 156.625682 
L 252.0136 157.0154 
L 257.756133 157.302452 
L 263.498667 157.687783 
L 267.131294 158.097631 
L 269.2412 158.312812 
L 274.983733 158.602569 
L 280.726267 158.83737 
L 286.4688 159.079709 
L 292.211333 159.597489 
L 292.900149 159.649477 
L 297.953867 159.9404 
L 303.6964 160.16247 
L 309.438933 160.348255 
L 315.181467 160.520394 
L 320.924 160.708383 
L 326.666533 161.099781 
L 328.321854 161.201322 
L 332.409067 161.401619 
L 338.1516 161.591388 
L 343.894133 161.744089 
L 349.636667 161.876217 
L 355.3792 161.996633 
L 361.121733 162.11155 
L 366.864267 162.228671 
L 372.6068 162.375027 
L 378.349333 162.672634 
L 380.180022 162.753168 
L 384.091867 162.881876 
L 389.8344 163.019505 
L 395.576933 163.135277 
L 401.319467 163.234211 
L 407.062 163.322577 
L 412.804533 163.401975 
" style="fill:none;stroke:#000000;stroke-width:2;"/>
   </g>
   <g id="LineCollection_2">
    <path clip-path="url(#pa977a4d6c1)" d="M 412.804533 169.757016 
L 407.062 169.880103 
L 401.319467 170.02396 
L 395.576933 170.190256 
L 389.8344 170.392501 
L 386.782198 170.512395 
L 384.091867 170.588886 
L 378.349333 170.729017 
L 372.6068 170.860267 
L 366.864267 170.989956 
L 361.121733 171.127026 
L 355.3792 171.283809 
L 349.636667 171.463174 
L 343.894133 171.670007 
L 338.1516 171.921032 
L 335.292451 172.06424 
L 332.409067 172.171352 
L 326.666533 172.371639 
L 320.924 172.575361 
L 315.181467 172.791215 
L 309.438933 173.026159 
L 303.6964 173.295995 
L 298.123135 173.616086 
L 297.953867 173.624304 
L 292.211333 173.892636 
L 286.4688 174.166615 
L 280.726267 174.448946 
L 274.983733 174.753182 
L 269.2412 175.114976 
L 268.463073 175.167931 
L 263.498667 175.457073 
L 257.756133 175.790023 
L 252.0136 176.124864 
L 246.271067 176.491259 
L 243.050901 176.719776 
L 240.528533 176.891617 
L 234.786 177.267028 
L 229.043467 177.634402 
L 223.300933 178.016188 
L 219.62184 178.271622 
L 217.5584 178.419974 
L 211.815867 178.806511 
L 206.073333 179.181454 
L 200.3308 179.545635 
L 195.668835 179.823467 
L 194.588267 179.89557 
L 188.845733 180.24762 
L 183.1032 180.578671 
L 177.360667 180.877867 
L 171.618133 181.140527 
L 166.192921 181.375313 
L 165.8756 181.391148 
L 160.133067 181.638322 
L 154.390533 181.830427 
L 148.648 181.973584 
L 142.905467 182.021242 
L 137.162933 181.936896 
L 131.4204 181.73767 
L 125.677867 181.484667 
L 123.640551 181.375313 
L 119.935333 181.165696 
L 114.1928 180.899579 
L 108.450267 180.671268 
L 102.707733 180.257289 
L 99.277076 179.823467 
L 96.9652 179.513297 
L 91.222667 178.985216 
L 85.861515 179.823467 
L 85.480133 179.880811 
L 82.862722 181.375313 
L 79.806121 182.927158 
L 79.7376 182.966145 
L 79.111295 184.479004 
L 78.423716 186.030849 
L 77.585618 187.582694 
L 76.561154 189.13454 
L 75.462039 190.686385 
L 74.406614 192.238231 
L 73.995067 192.871356 
L 73.633747 193.790076 
L 73.079476 195.341922 
L 72.568771 196.893767 
L 72.096227 198.445612 
L 71.660457 199.997458 
L 71.257018 201.549303 
L 70.867726 203.101149 
L 70.454473 204.652994 
L 69.972299 206.20484 
L 69.393525 207.756685 
L 68.728068 209.30853 
L 68.252533 210.360409 
L 68.062598 210.860376 
L 67.496422 212.412221 
L 66.976119 213.964067 
L 66.508733 215.515912 
L 66.08791 217.067758 
L 65.687308 218.619603 
L 65.274758 220.171448 
L 64.83271 221.723294 
L 64.365621 223.275139 
L 63.889927 224.826985 
L 63.417748 226.37883 
L 62.951785 227.930676 
L 62.51 229.420386 
" style="fill:none;stroke:#000000;stroke-width:1.5;"/>
    <path clip-path="url(#pa977a4d6c1)" d="M 62.51 139.905861 
L 66.486719 139.475486 
L 68.252533 139.278277 
L 73.995067 138.468246 
L 74.764009 137.923641 
L 77.423998 136.371795 
L 79.7376 135.511339 
L 80.644877 134.81995 
L 82.454553 133.268104 
L 83.44118 131.716259 
L 84.49957 130.164414 
L 85.480133 129.388102 
L 86.837747 128.612568 
L 88.376438 127.060723 
L 89.671055 125.508877 
L 91.222667 123.991156 
L 91.292509 123.957032 
L 94.063772 122.405186 
L 96.231639 120.853341 
L 96.9652 120.354335 
L 100.589132 119.301496 
L 102.707733 118.526588 
L 108.450267 117.871231 
L 114.1928 117.956269 
L 119.935333 118.754244 
L 122.316148 119.301496 
L 125.677867 120.087501 
L 128.305779 120.853341 
L 131.4204 121.732017 
L 133.580383 122.405186 
L 137.162933 123.49965 
L 138.653083 123.957032 
L 142.905467 125.29004 
L 143.656343 125.508877 
L 148.648 126.979521 
L 148.921674 127.060723 
L 154.380461 128.612568 
L 154.390533 128.615444 
L 159.834679 130.164414 
L 160.133067 130.246635 
L 165.226094 131.716259 
L 165.8756 131.893179 
L 170.637649 133.268104 
L 171.618133 133.533607 
L 176.168687 134.81995 
L 177.360667 135.137593 
L 181.886198 136.371795 
L 183.1032 136.687345 
L 187.850989 137.923641 
L 188.845733 138.17171 
L 194.142972 139.475486 
L 194.588267 139.580989 
L 200.3308 140.923464 
L 200.783417 141.027332 
L 206.073333 142.202381 
L 207.830724 142.579177 
L 211.815867 143.409127 
L 215.439817 144.131022 
L 217.5584 144.541874 
L 223.300933 145.606935 
L 223.72015 145.682868 
L 229.043467 146.630224 
L 232.683949 147.234713 
L 234.786 147.577734 
L 240.528533 148.478416 
L 242.601903 148.786559 
L 246.271067 149.327971 
L 252.0136 150.1222 
L 253.651187 150.338404 
L 257.756133 150.881082 
L 263.498667 151.590503 
L 266.074896 151.89025 
L 269.2412 152.261056 
L 274.983733 152.902863 
L 280.286554 153.442095 
L 280.726267 153.487067 
L 286.4688 154.070849 
L 292.211333 154.604259 
L 296.766888 154.99394 
L 297.953867 155.097273 
L 303.6964 155.591013 
L 309.438933 156.048956 
L 315.181467 156.467263 
L 316.309088 156.545786 
L 320.924 156.880321 
L 326.666533 157.276289 
L 332.409067 157.644675 
L 338.1516 157.98284 
L 340.218768 158.097631 
L 343.894133 158.312254 
L 349.636667 158.637152 
L 355.3792 158.944231 
L 361.121733 159.229335 
L 366.864267 159.488332 
L 370.668447 159.649477 
L 372.6068 159.736256 
L 378.349333 159.992946 
L 384.091867 160.235118 
L 389.8344 160.466018 
L 395.576933 160.682243 
L 401.319467 160.880021 
L 407.062 161.063875 
L 411.736316 161.201322 
L 412.804533 161.234323 
" style="fill:none;stroke:#000000;stroke-width:1.5;"/>
   </g>
   <g id="LineCollection_3">
    <path clip-path="url(#pa977a4d6c1)" d="M 62.51 166.4 
L 407.062 166.4 
" style="fill:none;stroke:#0000ff;stroke-dasharray:14.8,6.4;stroke-dashoffset:0;stroke-width:4;"/>
   </g>
   <g id="patch_3">
    <path d="M 62.51 318.04 
L 62.51 14.76 
" style="fill:none;stroke:#000000;stroke-linecap:square;stroke-linejoin:miter;stroke-width:0.8;"/>
   </g>
   <g id="patch_4">
    <path d="M 407.062 318.04 
L 407.062 14.76 
" style="fill:none;stroke:#000000;stroke-linecap:square;stroke-linejoin:miter;stroke-width:0.8;"/>
   </g>
   <g id="patch_5">
    <path d="M 62.51 318.04 
L 407.062 318.04 
" style="fill:none;stroke:#000000;stroke-linecap:square;stroke-linejoin:miter;stroke-width:0.8;"/>
   </g>
   <g id="patch_6">
    <path d="M 62.51 14.76 
L 407.062 14.76 
" style="fill:none;stroke:#000000;stroke-linecap:square;stroke-linejoin:miter;stroke-width:0.8;"/>
   </g>
   <g id="text_19">
    <!-- BAO+HD+SN -->
    <g transform="translate(63.658507 272.548)scale(0.13 -0.13)">
     <defs>
      <path d="M 1259 2228 
L 1259 519 
L 2272 519 
Q 2781 519 3026 730 
Q 3272 941 3272 1375 
Q 3272 1813 3026 2020 
Q 2781 2228 2272 2228 
L 1259 2228 
z
M 1259 4147 
L 1259 2741 
L 2194 2741 
Q 2656 2741 2882 2914 
Q 3109 3088 3109 3444 
Q 3109 3797 2882 3972 
Q 2656 4147 2194 4147 
L 1259 4147 
z
M 628 4666 
L 2241 4666 
Q 2963 4666 3353 4366 
Q 3744 4066 3744 3513 
Q 3744 3084 3544 2831 
Q 3344 2578 2956 2516 
Q 3422 2416 3680 2098 
Q 3938 1781 3938 1306 
Q 3938 681 3513 340 
Q 3088 0 2303 0 
L 628 0 
L 628 4666 
z
" id="DejaVuSans-42" transform="scale(0.015625)"/>
      <path d="M 2188 4044 
L 1331 1722 
L 3047 1722 
L 2188 4044 
z
M 1831 4666 
L 2547 4666 
L 4325 0 
L 3669 0 
L 3244 1197 
L 1141 1197 
L 716 0 
L 50 0 
L 1831 4666 
z
" id="DejaVuSans-41" transform="scale(0.015625)"/>
      <path d="M 2522 4238 
Q 1834 4238 1429 3725 
Q 1025 3213 1025 2328 
Q 1025 1447 1429 934 
Q 1834 422 2522 422 
Q 3209 422 3611 934 
Q 4013 1447 4013 2328 
Q 4013 3213 3611 3725 
Q 3209 4238 2522 4238 
z
M 2522 4750 
Q 3503 4750 4090 4092 
Q 4678 3434 4678 2328 
Q 4678 1225 4090 567 
Q 3503 -91 2522 -91 
Q 1538 -91 948 565 
Q 359 1222 359 2328 
Q 359 3434 948 4092 
Q 1538 4750 2522 4750 
z
" id="DejaVuSans-4f" transform="scale(0.015625)"/>
      <path d="M 2944 4013 
L 2944 2272 
L 4684 2272 
L 4684 1741 
L 2944 1741 
L 2944 0 
L 2419 0 
L 2419 1741 
L 678 1741 
L 678 2272 
L 2419 2272 
L 2419 4013 
L 2944 4013 
z
" id="DejaVuSans-2b" transform="scale(0.015625)"/>
      <path d="M 628 4666 
L 1259 4666 
L 1259 2753 
L 3553 2753 
L 3553 4666 
L 4184 4666 
L 4184 0 
L 3553 0 
L 3553 2222 
L 1259 2222 
L 1259 0 
L 628 0 
L 628 4666 
z
" id="DejaVuSans-48" transform="scale(0.015625)"/>
      <path d="M 1259 4147 
L 1259 519 
L 2022 519 
Q 2988 519 3436 956 
Q 3884 1394 3884 2338 
Q 3884 3275 3436 3711 
Q 2988 4147 2022 4147 
L 1259 4147 
z
M 628 4666 
L 1925 4666 
Q 3281 4666 3915 4102 
Q 4550 3538 4550 2338 
Q 4550 1131 3912 565 
Q 3275 0 1925 0 
L 628 0 
L 628 4666 
z
" id="DejaVuSans-44" transform="scale(0.015625)"/>
      <path d="M 3425 4513 
L 3425 3897 
Q 3066 4069 2747 4153 
Q 2428 4238 2131 4238 
Q 1616 4238 1336 4038 
Q 1056 3838 1056 3469 
Q 1056 3159 1242 3001 
Q 1428 2844 1947 2747 
L 2328 2669 
Q 3034 2534 3370 2195 
Q 3706 1856 3706 1288 
Q 3706 609 3251 259 
Q 2797 -91 1919 -91 
Q 1588 -91 1214 -16 
Q 841 59 441 206 
L 441 856 
Q 825 641 1194 531 
Q 1563 422 1919 422 
Q 2459 422 2753 634 
Q 3047 847 3047 1241 
Q 3047 1584 2836 1778 
Q 2625 1972 2144 2069 
L 1759 2144 
Q 1053 2284 737 2584 
Q 422 2884 422 3419 
Q 422 4038 858 4394 
Q 1294 4750 2059 4750 
Q 2388 4750 2728 4690 
Q 3069 4631 3425 4513 
z
" id="DejaVuSans-53" transform="scale(0.015625)"/>
      <path d="M 628 4666 
L 1478 4666 
L 3547 763 
L 3547 4666 
L 4159 4666 
L 4159 0 
L 3309 0 
L 1241 3903 
L 1241 0 
L 628 0 
L 628 4666 
z
" id="DejaVuSans-4e" transform="scale(0.015625)"/>
     </defs>
     <use xlink:href="#DejaVuSans-42"/>
     <use x="68.603516" xlink:href="#DejaVuSans-41"/>
     <use x="135.261719" xlink:href="#DejaVuSans-4f"/>
     <use x="213.972656" xlink:href="#DejaVuSans-2b"/>
     <use x="297.761719" xlink:href="#DejaVuSans-48"/>
     <use x="372.957031" xlink:href="#DejaVuSans-44"/>
     <use x="449.958984" xlink:href="#DejaVuSans-2b"/>
     <use x="533.748047" xlink:href="#DejaVuSans-53"/>
     <use x="597.224609" xlink:href="#DejaVuSans-4e"/>
    </g>
   </g>
  </g>
  <g id="axes_2">
   <g id="patch_7">
    <path d="M 428.5965 318.04 
L 443.7605 318.04 
L 443.7605 14.76 
L 428.5965 14.76 
z
" style="fill:#ffffff;"/>
   </g>
   <g id="patch_8">
    <path clip-path="url(#p7abf9f8995)" d="M 428.5965 318.04 
L 428.5965 242.22 
L 428.5965 90.58 
L 428.5965 14.76 
L 443.7605 14.76 
L 443.7605 90.58 
L 443.7605 242.22 
L 443.7605 318.04 
L 443.7605 318.04 
z
" style="fill:#ffffff;stroke:#ffffff;stroke-linejoin:miter;stroke-width:0.01;"/>
   </g>
   <g id="QuadMesh_1">
    <path clip-path="url(#p7abf9f8995)" d="M 428.5965 318.04 
L 443.7605 318.04 
L 443.7605 242.22 
L 428.5965 242.22 
L 428.5965 318.04 
" style="fill:#006d2c;"/>
    <path clip-path="url(#p7abf9f8995)" d="M 428.5965 242.22 
L 443.7605 242.22 
L 443.7605 166.4 
L 428.5965 166.4 
L 428.5965 242.22 
" style="fill:#42ab5d;"/>
    <path clip-path="url(#p7abf9f8995)" d="M 428.5965 166.4 
L 443.7605 166.4 
L 443.7605 90.58 
L 428.5965 90.58 
L 428.5965 166.4 
" style="fill:#a2d99c;"/>
    <path clip-path="url(#p7abf9f8995)" d="M 428.5965 90.58 
L 443.7605 90.58 
L 443.7605 14.76 
L 428.5965 14.76 
L 428.5965 90.58 
" style="fill:#e5f5e1;"/>
   </g>
   <g id="matplotlib.axis_3"/>
   <g id="matplotlib.axis_4">
    <g id="ytick_10">
     <g id="line2d_33">
      <defs>
       <path d="M 0 0 
L 3.5 0 
" id="me7c33a39e2" style="stroke:#000000;stroke-width:0.8;"/>
      </defs>
      <g>
       <use style="stroke:#000000;stroke-width:0.8;" x="443.7605" xlink:href="#me7c33a39e2" y="318.04"/>
      </g>
     </g>
    </g>
    <g id="ytick_11">
     <g id="line2d_34">
      <g>
       <use style="stroke:#000000;stroke-width:0.8;" x="443.7605" xlink:href="#me7c33a39e2" y="166.4"/>
      </g>
     </g>
     <g id="text_20">
      <!-- $1\sigma$ -->
      <g transform="translate(450.7605 170.199219)scale(0.1 -0.1)">
       <defs>
        <path d="M 2219 3044 
Q 1744 3044 1422 2700 
Q 1081 2341 969 1747 
Q 844 1119 1044 756 
Q 1241 397 1706 397 
Q 2166 397 2503 759 
Q 2844 1122 2966 1747 
Q 3075 2319 2881 2700 
Q 2700 3044 2219 3044 
z
M 2309 3503 
L 4219 3500 
L 4106 2925 
L 3463 2925 
Q 3706 2438 3575 1747 
Q 3406 888 2884 400 
Q 2359 -91 1609 -91 
Q 856 -91 525 400 
Q 194 888 363 1747 
Q 528 2609 1050 3097 
Q 1484 3503 2309 3503 
z
" id="DejaVuSans-Oblique-3c3" transform="scale(0.015625)"/>
       </defs>
       <use transform="translate(0 0.09375)" xlink:href="#DejaVuSans-31"/>
       <use transform="translate(63.623047 0.09375)" xlink:href="#DejaVuSans-Oblique-3c3"/>
      </g>
     </g>
    </g>
    <g id="ytick_12">
     <g id="line2d_35">
      <g>
       <use style="stroke:#000000;stroke-width:0.8;" x="443.7605" xlink:href="#me7c33a39e2" y="14.76"/>
      </g>
     </g>
     <g id="text_21">
      <!-- $2\sigma$ -->
      <g transform="translate(450.7605 18.559219)scale(0.1 -0.1)">
       <use transform="translate(0 0.78125)" xlink:href="#DejaVuSans-32"/>
       <use transform="translate(63.623047 0.78125)" xlink:href="#DejaVuSans-Oblique-3c3"/>
      </g>
     </g>
    </g>
   </g>
   <g id="LineCollection_4"/>
   <g id="patch_9">
    <path d="M 428.5965 318.04 
L 428.5965 242.22 
L 428.5965 90.58 
L 428.5965 14.76 
L 443.7605 14.76 
L 443.7605 90.58 
L 443.7605 242.22 
L 443.7605 318.04 
z
" style="fill:none;stroke:#000000;stroke-linecap:square;stroke-linejoin:miter;stroke-width:0.8;"/>
   </g>
  </g>
 </g>
 <defs>
  <clipPath id="pa977a4d6c1">
   <rect height="303.28" width="344.552" x="62.51" y="14.76"/>
  </clipPath>
  <clipPath id="p7abf9f8995">
   <rect height="303.28" width="15.164" x="428.5965" y="14.76"/>
  </clipPath>
 </defs>
</svg>
