<?xml version="1.0" encoding="utf-8" standalone="no"?>
<!DOCTYPE svg PUBLIC "-//W3C//DTD SVG 1.1//EN"
  "http://www.w3.org/Graphics/SVG/1.1/DTD/svg11.dtd">
<svg height="360pt" version="1.1" viewBox="0 0 504 360" width="504pt" xmlns="http://www.w3.org/2000/svg" xmlns:xlink="http://www.w3.org/1999/xlink">
 <metadata>
  <rdf:RDF xmlns:cc="http://creativecommons.org/ns#" xmlns:dc="http://purl.org/dc/elements/1.1/" xmlns:rdf="http://www.w3.org/1999/02/22-rdf-syntax-ns#">
   <cc:Work>
    <dc:type rdf:resource="http://purl.org/dc/dcmitype/StillImage"/>
    <dc:date>2022-04-06T11:29:11.845076</dc:date>
    <dc:format>image/svg+xml</dc:format>
    <dc:creator>
     <cc:Agent>
      <dc:title>Matplotlib v3.4.3, https://matplotlib.org/</dc:title>
     </cc:Agent>
    </dc:creator>
   </cc:Work>
  </rdf:RDF>
 </metadata>
 <defs>
  <style type="text/css">*{stroke-linecap:butt;stroke-linejoin:round;}</style>
 </defs>
 <g id="figure_1">
  <g id="patch_1">
   <path d="M 0 360 
L 504 360 
L 504 0 
L 0 0 
z
" style="fill:none;"/>
  </g>
  <g id="axes_1">
   <g id="patch_2">
    <path d="M 62.51 318.04 
L 407.062 318.04 
L 407.062 14.76 
L 62.51 14.76 
z
" style="fill:#ffffff;"/>
   </g>
   <g id="PathCollection_1">
    <path clip-path="url(#pa5a5d8406e)" d="M 211.023793 136.809879 
L 211.586253 78.010561 
L 211.023793 25.262341 
L 205.234702 78.010561 
z
" style="fill:#006d2c;stroke:#006d2c;"/>
    <path clip-path="url(#pa5a5d8406e)" d="M 335.775379 97.249463 
L 341.715931 108.192156 
L 341.980982 78.010561 
L 341.715931 49.976752 
L 335.775379 60.199407 
L 335.603015 78.010561 
z
" style="fill:#006d2c;stroke:#006d2c;"/>
   </g>
   <g id="PathCollection_2">
    <path clip-path="url(#pa5a5d8406e)" d="M 205.083241 210.987451 
L 211.023793 287.739211 
L 213.030005 78.010561 
L 211.023793 -110.1347 
L 205.083241 -19.296533 
L 202.061473 78.010561 
z
M 205.234702 78.010561 
L 211.023793 25.262341 
L 211.586253 78.010561 
L 211.023793 136.809879 
z
" style="fill:#42ab5d;stroke:#42ab5d;"/>
    <path clip-path="url(#pa5a5d8406e)" d="M 317.953724 136.114145 
L 318.725159 78.010561 
L 317.953724 -2.382376 
L 312.940722 78.010561 
z
" style="fill:#42ab5d;stroke:#42ab5d;"/>
    <path clip-path="url(#pa5a5d8406e)" d="M 335.775379 244.293693 
L 341.715931 257.05805 
L 343.288302 78.010561 
L 341.715931 -88.295532 
L 335.775379 -75.932453 
L 334.285622 78.010561 
z
M 335.603015 78.010561 
L 335.775379 60.199407 
L 341.715931 49.976752 
L 341.980982 78.010561 
L 341.715931 108.192156 
L 335.775379 97.249463 
z
" style="fill:#42ab5d;stroke:#42ab5d;"/>
    <path clip-path="url(#pa5a5d8406e)" d="M 418.943103 78.010561 
L 419.025741 78.010561 
L 418.943103 73.031579 
L 418.769757 78.010561 
z
" style="fill:#42ab5d;stroke:#42ab5d;"/>
   </g>
   <g id="PathCollection_3">
    <path clip-path="url(#pa5a5d8406e)" d="M 192.22557 203.250083 
L 193.202138 78.010561 
L 190.275771 78.010561 
z
" style="fill:#a2d99c;stroke:#a2d99c;"/>
    <path clip-path="url(#pa5a5d8406e)" d="M 205.083241 345.333691 
L 211.023793 438.668542 
L 214.473758 78.010561 
L 211.023793 -245.531741 
L 205.083241 -117.605661 
L 199.187653 72.244294 
L 199.14269 78.010561 
L 199.212745 86.994787 
z
M 202.061473 78.010561 
L 205.083241 -19.296533 
L 211.023793 -110.1347 
L 213.030005 78.010561 
L 211.023793 287.739211 
L 205.083241 210.987451 
z
" style="fill:#a2d99c;stroke:#a2d99c;"/>
    <path clip-path="url(#pa5a5d8406e)" d="M 312.013172 247.572495 
L 317.953724 251.996921 
L 320.263721 78.010561 
L 317.953724 -162.719418 
L 313.309536 -88.241112 
L 312.013172 78.010561 
L 310.318231 78.010561 
z
M 312.940722 78.010561 
L 317.953724 -2.382376 
L 318.725159 78.010561 
L 317.953724 136.114145 
z
" style="fill:#a2d99c;stroke:#a2d99c;"/>
    <path clip-path="url(#pa5a5d8406e)" d="M 335.775379 391.337922 
L 341.715931 405.923944 
L 344.595622 78.010561 
L 341.715931 -226.567816 
L 335.775379 -212.064312 
L 332.968229 78.010561 
z
M 334.285622 78.010561 
L 335.775379 -75.932453 
L 341.715931 -88.295532 
L 343.288302 78.010561 
L 341.715931 257.05805 
L 335.775379 244.293693 
z
" style="fill:#a2d99c;stroke:#a2d99c;"/>
    <path clip-path="url(#pa5a5d8406e)" d="M 418.943103 73.031579 
L 419.025741 78.010561 
L 420.938033 78.010561 
L 418.943103 -42.186023 
L 414.758388 78.010561 
L 418.769757 78.010561 
z
" style="fill:#a2d99c;stroke:#a2d99c;"/>
   </g>
   <g id="PathCollection_4">
    <path clip-path="url(#pa5a5d8406e)" d="M 175.380483 133.180787 
L 181.309766 79.455734 
L 181.321034 78.010561 
L 175.380483 78.010561 
L 169.439931 78.010561 
L 170.256121 182.682478 
z
" style="fill:#e5f5e1;stroke:#e5f5e1;"/>
    <path clip-path="url(#pa5a5d8406e)" d="M 182.112272 78.010561 
L 181.321034 78.010561 
L 181.326608 78.72536 
z
" style="fill:#e5f5e1;stroke:#e5f5e1;"/>
    <path clip-path="url(#pa5a5d8406e)" d="M 191.244037 329.126441 
L 192.22557 203.250083 
L 190.275771 78.010561 
L 187.334523 78.010561 
z
" style="fill:#e5f5e1;stroke:#e5f5e1;"/>
    <path clip-path="url(#pa5a5d8406e)" d="M 205.083241 479.67993 
L 211.023793 589.597874 
L 215.91751 78.010561 
L 211.023793 -380.928781 
L 205.083241 -215.914789 
L 200.211252 -59.026826 
L 199.187653 72.244294 
L 205.083241 -117.605661 
L 211.023793 -245.531741 
L 214.473758 78.010561 
L 211.023793 438.668542 
L 205.083241 345.333691 
L 199.212745 86.994787 
L 200.807581 291.523879 
z
" style="fill:#e5f5e1;stroke:#e5f5e1;"/>
    <path clip-path="url(#pa5a5d8406e)" d="M 312.013172 434.473904 
L 317.953724 367.879697 
L 321.802283 78.010561 
L 317.953724 -323.05646 
L 314.738467 -271.493752 
L 313.309536 -88.241112 
L 317.953724 -162.719418 
L 320.263721 78.010561 
L 317.953724 251.996921 
L 312.013172 247.572495 
L 310.318231 78.010561 
L 308.449965 78.010561 
z
" style="fill:#e5f5e1;stroke:#e5f5e1;"/>
    <path clip-path="url(#pa5a5d8406e)" d="M 335.775379 538.382152 
L 341.715931 554.789839 
L 345.902943 78.010561 
L 341.715931 -364.8401 
L 335.775379 -348.196172 
L 331.650836 78.010561 
z
M 332.968229 78.010561 
L 335.775379 -212.064312 
L 341.715931 -226.567816 
L 344.595622 78.010561 
L 341.715931 405.923944 
L 335.775379 391.337922 
z
" style="fill:#e5f5e1;stroke:#e5f5e1;"/>
    <path clip-path="url(#pa5a5d8406e)" d="M 413.002552 78.010561 
L 414.758388 78.010561 
L 418.943103 -42.186023 
L 420.938033 78.010561 
L 422.850324 78.010561 
L 418.943103 -157.403626 
L 413.002552 -49.215232 
L 411.513311 78.010561 
z
" style="fill:#e5f5e1;stroke:#e5f5e1;"/>
   </g>
   <g id="matplotlib.axis_1">
    <g id="xtick_1">
     <g id="line2d_1">
      <path clip-path="url(#pa5a5d8406e)" d="M 62.51 318.04 
L 62.51 14.76 
" style="fill:none;stroke:#b0b0b0;stroke-linecap:square;stroke-width:0.8;"/>
     </g>
     <g id="line2d_2">
      <defs>
       <path d="M 0 0 
L 0 3.5 
" id="m99220c972a" style="stroke:#000000;stroke-width:0.8;"/>
      </defs>
      <g>
       <use style="stroke:#000000;stroke-width:0.8;" x="62.51" xlink:href="#m99220c972a" y="318.04"/>
      </g>
     </g>
     <g id="text_1">
      <!-- 0.0 -->
      <g transform="translate(54.558437 332.638438)scale(0.1 -0.1)">
       <defs>
        <path d="M 2034 4250 
Q 1547 4250 1301 3770 
Q 1056 3291 1056 2328 
Q 1056 1369 1301 889 
Q 1547 409 2034 409 
Q 2525 409 2770 889 
Q 3016 1369 3016 2328 
Q 3016 3291 2770 3770 
Q 2525 4250 2034 4250 
z
M 2034 4750 
Q 2819 4750 3233 4129 
Q 3647 3509 3647 2328 
Q 3647 1150 3233 529 
Q 2819 -91 2034 -91 
Q 1250 -91 836 529 
Q 422 1150 422 2328 
Q 422 3509 836 4129 
Q 1250 4750 2034 4750 
z
" id="DejaVuSans-30" transform="scale(0.015625)"/>
        <path d="M 684 794 
L 1344 794 
L 1344 0 
L 684 0 
L 684 794 
z
" id="DejaVuSans-2e" transform="scale(0.015625)"/>
       </defs>
       <use xlink:href="#DejaVuSans-30"/>
       <use x="63.623047" xlink:href="#DejaVuSans-2e"/>
       <use x="95.410156" xlink:href="#DejaVuSans-30"/>
      </g>
     </g>
    </g>
    <g id="xtick_2">
     <g id="line2d_3">
      <path clip-path="url(#pa5a5d8406e)" d="M 121.915517 318.04 
L 121.915517 14.76 
" style="fill:none;stroke:#b0b0b0;stroke-linecap:square;stroke-width:0.8;"/>
     </g>
     <g id="line2d_4">
      <g>
       <use style="stroke:#000000;stroke-width:0.8;" x="121.915517" xlink:href="#m99220c972a" y="318.04"/>
      </g>
     </g>
     <g id="text_2">
      <!-- 0.5 -->
      <g transform="translate(113.963955 332.638438)scale(0.1 -0.1)">
       <defs>
        <path d="M 691 4666 
L 3169 4666 
L 3169 4134 
L 1269 4134 
L 1269 2991 
Q 1406 3038 1543 3061 
Q 1681 3084 1819 3084 
Q 2600 3084 3056 2656 
Q 3513 2228 3513 1497 
Q 3513 744 3044 326 
Q 2575 -91 1722 -91 
Q 1428 -91 1123 -41 
Q 819 9 494 109 
L 494 744 
Q 775 591 1075 516 
Q 1375 441 1709 441 
Q 2250 441 2565 725 
Q 2881 1009 2881 1497 
Q 2881 1984 2565 2268 
Q 2250 2553 1709 2553 
Q 1456 2553 1204 2497 
Q 953 2441 691 2322 
L 691 4666 
z
" id="DejaVuSans-35" transform="scale(0.015625)"/>
       </defs>
       <use xlink:href="#DejaVuSans-30"/>
       <use x="63.623047" xlink:href="#DejaVuSans-2e"/>
       <use x="95.410156" xlink:href="#DejaVuSans-35"/>
      </g>
     </g>
    </g>
    <g id="xtick_3">
     <g id="line2d_5">
      <path clip-path="url(#pa5a5d8406e)" d="M 181.321034 318.04 
L 181.321034 14.76 
" style="fill:none;stroke:#b0b0b0;stroke-linecap:square;stroke-width:0.8;"/>
     </g>
     <g id="line2d_6">
      <g>
       <use style="stroke:#000000;stroke-width:0.8;" x="181.321034" xlink:href="#m99220c972a" y="318.04"/>
      </g>
     </g>
     <g id="text_3">
      <!-- 1.0 -->
      <g transform="translate(173.369472 332.638438)scale(0.1 -0.1)">
       <defs>
        <path d="M 794 531 
L 1825 531 
L 1825 4091 
L 703 3866 
L 703 4441 
L 1819 4666 
L 2450 4666 
L 2450 531 
L 3481 531 
L 3481 0 
L 794 0 
L 794 531 
z
" id="DejaVuSans-31" transform="scale(0.015625)"/>
       </defs>
       <use xlink:href="#DejaVuSans-31"/>
       <use x="63.623047" xlink:href="#DejaVuSans-2e"/>
       <use x="95.410156" xlink:href="#DejaVuSans-30"/>
      </g>
     </g>
    </g>
    <g id="xtick_4">
     <g id="line2d_7">
      <path clip-path="url(#pa5a5d8406e)" d="M 240.726552 318.04 
L 240.726552 14.76 
" style="fill:none;stroke:#b0b0b0;stroke-linecap:square;stroke-width:0.8;"/>
     </g>
     <g id="line2d_8">
      <g>
       <use style="stroke:#000000;stroke-width:0.8;" x="240.726552" xlink:href="#m99220c972a" y="318.04"/>
      </g>
     </g>
     <g id="text_4">
      <!-- 1.5 -->
      <g transform="translate(232.774989 332.638438)scale(0.1 -0.1)">
       <use xlink:href="#DejaVuSans-31"/>
       <use x="63.623047" xlink:href="#DejaVuSans-2e"/>
       <use x="95.410156" xlink:href="#DejaVuSans-35"/>
      </g>
     </g>
    </g>
    <g id="xtick_5">
     <g id="line2d_9">
      <path clip-path="url(#pa5a5d8406e)" d="M 300.132069 318.04 
L 300.132069 14.76 
" style="fill:none;stroke:#b0b0b0;stroke-linecap:square;stroke-width:0.8;"/>
     </g>
     <g id="line2d_10">
      <g>
       <use style="stroke:#000000;stroke-width:0.8;" x="300.132069" xlink:href="#m99220c972a" y="318.04"/>
      </g>
     </g>
     <g id="text_5">
      <!-- 2.0 -->
      <g transform="translate(292.180506 332.638438)scale(0.1 -0.1)">
       <defs>
        <path d="M 1228 531 
L 3431 531 
L 3431 0 
L 469 0 
L 469 531 
Q 828 903 1448 1529 
Q 2069 2156 2228 2338 
Q 2531 2678 2651 2914 
Q 2772 3150 2772 3378 
Q 2772 3750 2511 3984 
Q 2250 4219 1831 4219 
Q 1534 4219 1204 4116 
Q 875 4013 500 3803 
L 500 4441 
Q 881 4594 1212 4672 
Q 1544 4750 1819 4750 
Q 2544 4750 2975 4387 
Q 3406 4025 3406 3419 
Q 3406 3131 3298 2873 
Q 3191 2616 2906 2266 
Q 2828 2175 2409 1742 
Q 1991 1309 1228 531 
z
" id="DejaVuSans-32" transform="scale(0.015625)"/>
       </defs>
       <use xlink:href="#DejaVuSans-32"/>
       <use x="63.623047" xlink:href="#DejaVuSans-2e"/>
       <use x="95.410156" xlink:href="#DejaVuSans-30"/>
      </g>
     </g>
    </g>
    <g id="xtick_6">
     <g id="line2d_11">
      <path clip-path="url(#pa5a5d8406e)" d="M 359.537586 318.04 
L 359.537586 14.76 
" style="fill:none;stroke:#b0b0b0;stroke-linecap:square;stroke-width:0.8;"/>
     </g>
     <g id="line2d_12">
      <g>
       <use style="stroke:#000000;stroke-width:0.8;" x="359.537586" xlink:href="#m99220c972a" y="318.04"/>
      </g>
     </g>
     <g id="text_6">
      <!-- 2.5 -->
      <g transform="translate(351.586024 332.638438)scale(0.1 -0.1)">
       <use xlink:href="#DejaVuSans-32"/>
       <use x="63.623047" xlink:href="#DejaVuSans-2e"/>
       <use x="95.410156" xlink:href="#DejaVuSans-35"/>
      </g>
     </g>
    </g>
    <g id="text_7">
     <!-- $z$ -->
     <g transform="translate(232.136 346.316563)scale(0.1 -0.1)">
      <defs>
       <path d="M 744 3500 
L 3475 3500 
L 3372 2975 
L 738 459 
L 2913 459 
L 2822 0 
L -19 0 
L 84 525 
L 2719 3041 
L 653 3041 
L 744 3500 
z
" id="DejaVuSans-Oblique-7a" transform="scale(0.015625)"/>
      </defs>
      <use transform="translate(0 0.3125)" xlink:href="#DejaVuSans-Oblique-7a"/>
     </g>
    </g>
   </g>
   <g id="matplotlib.axis_2">
    <g id="ytick_1">
     <g id="line2d_13">
      <path clip-path="url(#pa5a5d8406e)" d="M 62.51 318.04 
L 407.062 318.04 
" style="fill:none;stroke:#b0b0b0;stroke-linecap:square;stroke-width:0.8;"/>
     </g>
     <g id="line2d_14">
      <defs>
       <path d="M 0 0 
L -3.5 0 
" id="m9a1d00f1b7" style="stroke:#000000;stroke-width:0.8;"/>
      </defs>
      <g>
       <use style="stroke:#000000;stroke-width:0.8;" x="62.51" xlink:href="#m9a1d00f1b7" y="318.04"/>
      </g>
     </g>
     <g id="text_8">
      <!-- −2.00 -->
      <g transform="translate(24.864687 321.839219)scale(0.1 -0.1)">
       <defs>
        <path d="M 678 2272 
L 4684 2272 
L 4684 1741 
L 678 1741 
L 678 2272 
z
" id="DejaVuSans-2212" transform="scale(0.015625)"/>
       </defs>
       <use xlink:href="#DejaVuSans-2212"/>
       <use x="83.789062" xlink:href="#DejaVuSans-32"/>
       <use x="147.412109" xlink:href="#DejaVuSans-2e"/>
       <use x="179.199219" xlink:href="#DejaVuSans-30"/>
       <use x="242.822266" xlink:href="#DejaVuSans-30"/>
      </g>
     </g>
    </g>
    <g id="ytick_2">
     <g id="line2d_15">
      <path clip-path="url(#pa5a5d8406e)" d="M 62.51 280.13 
L 407.062 280.13 
" style="fill:none;stroke:#b0b0b0;stroke-linecap:square;stroke-width:0.8;"/>
     </g>
     <g id="line2d_16">
      <g>
       <use style="stroke:#000000;stroke-width:0.8;" x="62.51" xlink:href="#m9a1d00f1b7" y="280.13"/>
      </g>
     </g>
     <g id="text_9">
      <!-- −1.75 -->
      <g transform="translate(24.864687 283.929219)scale(0.1 -0.1)">
       <defs>
        <path d="M 525 4666 
L 3525 4666 
L 3525 4397 
L 1831 0 
L 1172 0 
L 2766 4134 
L 525 4134 
L 525 4666 
z
" id="DejaVuSans-37" transform="scale(0.015625)"/>
       </defs>
       <use xlink:href="#DejaVuSans-2212"/>
       <use x="83.789062" xlink:href="#DejaVuSans-31"/>
       <use x="147.412109" xlink:href="#DejaVuSans-2e"/>
       <use x="179.199219" xlink:href="#DejaVuSans-37"/>
       <use x="242.822266" xlink:href="#DejaVuSans-35"/>
      </g>
     </g>
    </g>
    <g id="ytick_3">
     <g id="line2d_17">
      <path clip-path="url(#pa5a5d8406e)" d="M 62.51 242.22 
L 407.062 242.22 
" style="fill:none;stroke:#b0b0b0;stroke-linecap:square;stroke-width:0.8;"/>
     </g>
     <g id="line2d_18">
      <g>
       <use style="stroke:#000000;stroke-width:0.8;" x="62.51" xlink:href="#m9a1d00f1b7" y="242.22"/>
      </g>
     </g>
     <g id="text_10">
      <!-- −1.50 -->
      <g transform="translate(24.864687 246.019219)scale(0.1 -0.1)">
       <use xlink:href="#DejaVuSans-2212"/>
       <use x="83.789062" xlink:href="#DejaVuSans-31"/>
       <use x="147.412109" xlink:href="#DejaVuSans-2e"/>
       <use x="179.199219" xlink:href="#DejaVuSans-35"/>
       <use x="242.822266" xlink:href="#DejaVuSans-30"/>
      </g>
     </g>
    </g>
    <g id="ytick_4">
     <g id="line2d_19">
      <path clip-path="url(#pa5a5d8406e)" d="M 62.51 204.31 
L 407.062 204.31 
" style="fill:none;stroke:#b0b0b0;stroke-linecap:square;stroke-width:0.8;"/>
     </g>
     <g id="line2d_20">
      <g>
       <use style="stroke:#000000;stroke-width:0.8;" x="62.51" xlink:href="#m9a1d00f1b7" y="204.31"/>
      </g>
     </g>
     <g id="text_11">
      <!-- −1.25 -->
      <g transform="translate(24.864687 208.109219)scale(0.1 -0.1)">
       <use xlink:href="#DejaVuSans-2212"/>
       <use x="83.789062" xlink:href="#DejaVuSans-31"/>
       <use x="147.412109" xlink:href="#DejaVuSans-2e"/>
       <use x="179.199219" xlink:href="#DejaVuSans-32"/>
       <use x="242.822266" xlink:href="#DejaVuSans-35"/>
      </g>
     </g>
    </g>
    <g id="ytick_5">
     <g id="line2d_21">
      <path clip-path="url(#pa5a5d8406e)" d="M 62.51 166.4 
L 407.062 166.4 
" style="fill:none;stroke:#b0b0b0;stroke-linecap:square;stroke-width:0.8;"/>
     </g>
     <g id="line2d_22">
      <g>
       <use style="stroke:#000000;stroke-width:0.8;" x="62.51" xlink:href="#m9a1d00f1b7" y="166.4"/>
      </g>
     </g>
     <g id="text_12">
      <!-- −1.00 -->
      <g transform="translate(24.864687 170.199219)scale(0.1 -0.1)">
       <use xlink:href="#DejaVuSans-2212"/>
       <use x="83.789062" xlink:href="#DejaVuSans-31"/>
       <use x="147.412109" xlink:href="#DejaVuSans-2e"/>
       <use x="179.199219" xlink:href="#DejaVuSans-30"/>
       <use x="242.822266" xlink:href="#DejaVuSans-30"/>
      </g>
     </g>
    </g>
    <g id="ytick_6">
     <g id="line2d_23">
      <path clip-path="url(#pa5a5d8406e)" d="M 62.51 128.49 
L 407.062 128.49 
" style="fill:none;stroke:#b0b0b0;stroke-linecap:square;stroke-width:0.8;"/>
     </g>
     <g id="line2d_24">
      <g>
       <use style="stroke:#000000;stroke-width:0.8;" x="62.51" xlink:href="#m9a1d00f1b7" y="128.49"/>
      </g>
     </g>
     <g id="text_13">
      <!-- −0.75 -->
      <g transform="translate(24.864687 132.289219)scale(0.1 -0.1)">
       <use xlink:href="#DejaVuSans-2212"/>
       <use x="83.789062" xlink:href="#DejaVuSans-30"/>
       <use x="147.412109" xlink:href="#DejaVuSans-2e"/>
       <use x="179.199219" xlink:href="#DejaVuSans-37"/>
       <use x="242.822266" xlink:href="#DejaVuSans-35"/>
      </g>
     </g>
    </g>
    <g id="ytick_7">
     <g id="line2d_25">
      <path clip-path="url(#pa5a5d8406e)" d="M 62.51 90.58 
L 407.062 90.58 
" style="fill:none;stroke:#b0b0b0;stroke-linecap:square;stroke-width:0.8;"/>
     </g>
     <g id="line2d_26">
      <g>
       <use style="stroke:#000000;stroke-width:0.8;" x="62.51" xlink:href="#m9a1d00f1b7" y="90.58"/>
      </g>
     </g>
     <g id="text_14">
      <!-- −0.50 -->
      <g transform="translate(24.864687 94.379219)scale(0.1 -0.1)">
       <use xlink:href="#DejaVuSans-2212"/>
       <use x="83.789062" xlink:href="#DejaVuSans-30"/>
       <use x="147.412109" xlink:href="#DejaVuSans-2e"/>
       <use x="179.199219" xlink:href="#DejaVuSans-35"/>
       <use x="242.822266" xlink:href="#DejaVuSans-30"/>
      </g>
     </g>
    </g>
    <g id="ytick_8">
     <g id="line2d_27">
      <path clip-path="url(#pa5a5d8406e)" d="M 62.51 52.67 
L 407.062 52.67 
" style="fill:none;stroke:#b0b0b0;stroke-linecap:square;stroke-width:0.8;"/>
     </g>
     <g id="line2d_28">
      <g>
       <use style="stroke:#000000;stroke-width:0.8;" x="62.51" xlink:href="#m9a1d00f1b7" y="52.67"/>
      </g>
     </g>
     <g id="text_15">
      <!-- −0.25 -->
      <g transform="translate(24.864687 56.469219)scale(0.1 -0.1)">
       <use xlink:href="#DejaVuSans-2212"/>
       <use x="83.789062" xlink:href="#DejaVuSans-30"/>
       <use x="147.412109" xlink:href="#DejaVuSans-2e"/>
       <use x="179.199219" xlink:href="#DejaVuSans-32"/>
       <use x="242.822266" xlink:href="#DejaVuSans-35"/>
      </g>
     </g>
    </g>
    <g id="ytick_9">
     <g id="line2d_29">
      <path clip-path="url(#pa5a5d8406e)" d="M 62.51 14.76 
L 407.062 14.76 
" style="fill:none;stroke:#b0b0b0;stroke-linecap:square;stroke-width:0.8;"/>
     </g>
     <g id="line2d_30">
      <g>
       <use style="stroke:#000000;stroke-width:0.8;" x="62.51" xlink:href="#m9a1d00f1b7" y="14.76"/>
      </g>
     </g>
     <g id="text_16">
      <!-- 0.00 -->
      <g transform="translate(33.244375 18.559219)scale(0.1 -0.1)">
       <use xlink:href="#DejaVuSans-30"/>
       <use x="63.623047" xlink:href="#DejaVuSans-2e"/>
       <use x="95.410156" xlink:href="#DejaVuSans-30"/>
       <use x="159.033203" xlink:href="#DejaVuSans-30"/>
      </g>
     </g>
    </g>
    <g id="text_17">
     <!-- $\omega(z)$ -->
     <g transform="translate(18.785 177.15)rotate(-90)scale(0.1 -0.1)">
      <defs>
       <path d="M 1369 -91 
Q 72 -91 434 1766 
Q 575 2500 1256 3500 
L 1875 3500 
Q 1231 2500 1088 1750 
Q 819 397 1519 397 
Q 2166 397 2478 2078 
L 3009 2078 
Q 2669 388 3316 397 
Q 4013 403 4275 1750 
Q 4419 2500 4169 3500 
L 4788 3500 
Q 5075 2500 4934 1766 
Q 4578 -94 3278 -91 
Q 2428 -88 2503 844 
Q 2194 -91 1369 -91 
z
" id="DejaVuSans-Oblique-3c9" transform="scale(0.015625)"/>
       <path d="M 1984 4856 
Q 1566 4138 1362 3434 
Q 1159 2731 1159 2009 
Q 1159 1288 1364 580 
Q 1569 -128 1984 -844 
L 1484 -844 
Q 1016 -109 783 600 
Q 550 1309 550 2009 
Q 550 2706 781 3412 
Q 1013 4119 1484 4856 
L 1984 4856 
z
" id="DejaVuSans-28" transform="scale(0.015625)"/>
       <path d="M 513 4856 
L 1013 4856 
Q 1481 4119 1714 3412 
Q 1947 2706 1947 2009 
Q 1947 1309 1714 600 
Q 1481 -109 1013 -844 
L 513 -844 
Q 928 -128 1133 580 
Q 1338 1288 1338 2009 
Q 1338 2731 1133 3434 
Q 928 4138 513 4856 
z
" id="DejaVuSans-29" transform="scale(0.015625)"/>
      </defs>
      <use transform="translate(0 0.125)" xlink:href="#DejaVuSans-Oblique-3c9"/>
      <use transform="translate(83.740234 0.125)" xlink:href="#DejaVuSans-28"/>
      <use transform="translate(122.753906 0.125)" xlink:href="#DejaVuSans-Oblique-7a"/>
      <use transform="translate(175.244141 0.125)" xlink:href="#DejaVuSans-29"/>
     </g>
    </g>
   </g>
   <g id="LineCollection_1">
    <path clip-path="url(#pa5a5d8406e)" d="M 418.769757 78.010561 
L 418.943103 73.031579 
L 419.025741 78.010561 
" style="fill:none;stroke:#000000;stroke-width:2;"/>
    <path clip-path="url(#pa5a5d8406e)" d="M 205.083241 210.987451 
L 202.061473 78.010561 
L 204.515062 -1 
M 212.187508 -1 
L 213.030005 78.010561 
L 211.023793 287.739211 
L 205.083241 210.987451 
" style="fill:none;stroke:#000000;stroke-width:2;"/>
    <path clip-path="url(#pa5a5d8406e)" d="M 317.953724 136.114145 
L 312.940722 78.010561 
L 317.867524 -1 
M 317.966989 -1 
L 318.725159 78.010561 
L 317.953724 136.114145 
" style="fill:none;stroke:#000000;stroke-width:2;"/>
    <path clip-path="url(#pa5a5d8406e)" d="M 335.775379 244.293693 
L 334.285622 78.010561 
L 335.050233 -1 
M 342.541282 -1 
L 343.288302 78.010561 
L 341.715931 257.05805 
L 335.775379 244.293693 
" style="fill:none;stroke:#000000;stroke-width:2;"/>
   </g>
   <g id="LineCollection_2">
    <path clip-path="url(#pa5a5d8406e)" d="M 181.309766 79.455734 
L 175.380483 133.180787 
L 170.256121 182.682478 
" style="fill:none;stroke:#000000;stroke-width:1.5;"/>
    <path clip-path="url(#pa5a5d8406e)" d="M 182.112272 78.010561 
L 181.326608 78.72536 
" style="fill:none;stroke:#000000;stroke-width:1.5;"/>
    <path clip-path="url(#pa5a5d8406e)" d="M 191.244037 329.126441 
L 187.334523 78.010561 
" style="fill:none;stroke:#000000;stroke-width:1.5;"/>
    <path clip-path="url(#pa5a5d8406e)" d="M 215.075013 -1 
L 215.91751 78.010561 
L 213.210504 361 
M 202.386357 361 
L 200.807581 291.523879 
" style="fill:none;stroke:#000000;stroke-width:1.5;"/>
    <path clip-path="url(#pa5a5d8406e)" d="M 321.044114 -1 
L 321.802283 78.010561 
L 318.045065 361 
M 311.278727 361 
L 308.449965 78.010561 
" style="fill:none;stroke:#000000;stroke-width:1.5;"/>
    <path clip-path="url(#pa5a5d8406e)" d="M 411.513311 78.010561 
L 412.438169 -1 
M 421.538969 -1 
L 422.850324 78.010561 
" style="fill:none;stroke:#000000;stroke-width:1.5;"/>
    <path clip-path="url(#pa5a5d8406e)" d="M 334.186184 361 
L 331.650836 78.010561 
L 332.415447 -1 
M 345.155923 -1 
L 345.902943 78.010561 
L 343.417767 361 
" style="fill:none;stroke:#000000;stroke-width:1.5;"/>
   </g>
   <g id="LineCollection_3">
    <path clip-path="url(#pa5a5d8406e)" d="M 62.51 166.4 
L 418.943103 166.4 
" style="fill:none;stroke:#0000ff;stroke-dasharray:14.8,6.4;stroke-dashoffset:0;stroke-width:4;"/>
   </g>
   <g id="patch_3">
    <path d="M 62.51 318.04 
L 62.51 14.76 
" style="fill:none;stroke:#000000;stroke-linecap:square;stroke-linejoin:miter;stroke-width:0.8;"/>
   </g>
   <g id="patch_4">
    <path d="M 407.062 318.04 
L 407.062 14.76 
" style="fill:none;stroke:#000000;stroke-linecap:square;stroke-linejoin:miter;stroke-width:0.8;"/>
   </g>
   <g id="patch_5">
    <path d="M 62.51 318.04 
L 407.062 318.04 
" style="fill:none;stroke:#000000;stroke-linecap:square;stroke-linejoin:miter;stroke-width:0.8;"/>
   </g>
   <g id="patch_6">
    <path d="M 62.51 14.76 
L 407.062 14.76 
" style="fill:none;stroke:#000000;stroke-linecap:square;stroke-linejoin:miter;stroke-width:0.8;"/>
   </g>
   <g id="text_18">
    <!-- BAO -->
    <g transform="translate(63.69811 272.548)scale(0.13 -0.13)">
     <defs>
      <path d="M 1259 2228 
L 1259 519 
L 2272 519 
Q 2781 519 3026 730 
Q 3272 941 3272 1375 
Q 3272 1813 3026 2020 
Q 2781 2228 2272 2228 
L 1259 2228 
z
M 1259 4147 
L 1259 2741 
L 2194 2741 
Q 2656 2741 2882 2914 
Q 3109 3088 3109 3444 
Q 3109 3797 2882 3972 
Q 2656 4147 2194 4147 
L 1259 4147 
z
M 628 4666 
L 2241 4666 
Q 2963 4666 3353 4366 
Q 3744 4066 3744 3513 
Q 3744 3084 3544 2831 
Q 3344 2578 2956 2516 
Q 3422 2416 3680 2098 
Q 3938 1781 3938 1306 
Q 3938 681 3513 340 
Q 3088 0 2303 0 
L 628 0 
L 628 4666 
z
" id="DejaVuSans-42" transform="scale(0.015625)"/>
      <path d="M 2188 4044 
L 1331 1722 
L 3047 1722 
L 2188 4044 
z
M 1831 4666 
L 2547 4666 
L 4325 0 
L 3669 0 
L 3244 1197 
L 1141 1197 
L 716 0 
L 50 0 
L 1831 4666 
z
" id="DejaVuSans-41" transform="scale(0.015625)"/>
      <path d="M 2522 4238 
Q 1834 4238 1429 3725 
Q 1025 3213 1025 2328 
Q 1025 1447 1429 934 
Q 1834 422 2522 422 
Q 3209 422 3611 934 
Q 4013 1447 4013 2328 
Q 4013 3213 3611 3725 
Q 3209 4238 2522 4238 
z
M 2522 4750 
Q 3503 4750 4090 4092 
Q 4678 3434 4678 2328 
Q 4678 1225 4090 567 
Q 3503 -91 2522 -91 
Q 1538 -91 948 565 
Q 359 1222 359 2328 
Q 359 3434 948 4092 
Q 1538 4750 2522 4750 
z
" id="DejaVuSans-4f" transform="scale(0.015625)"/>
     </defs>
     <use xlink:href="#DejaVuSans-42"/>
     <use x="68.603516" xlink:href="#DejaVuSans-41"/>
     <use x="135.261719" xlink:href="#DejaVuSans-4f"/>
    </g>
   </g>
  </g>
  <g id="axes_2">
   <g id="patch_7">
    <path d="M 428.5965 318.04 
L 443.7605 318.04 
L 443.7605 14.76 
L 428.5965 14.76 
z
" style="fill:#ffffff;"/>
   </g>
   <g id="patch_8">
    <path clip-path="url(#p2ec36f47c5)" d="M 428.5965 318.04 
L 428.5965 242.22 
L 428.5965 90.58 
L 428.5965 14.76 
L 443.7605 14.76 
L 443.7605 90.58 
L 443.7605 242.22 
L 443.7605 318.04 
L 443.7605 318.04 
z
" style="fill:#ffffff;stroke:#ffffff;stroke-linejoin:miter;stroke-width:0.01;"/>
   </g>
   <g id="QuadMesh_1">
    <path clip-path="url(#p2ec36f47c5)" d="M 428.5965 318.04 
L 443.7605 318.04 
L 443.7605 242.22 
L 428.5965 242.22 
L 428.5965 318.04 
" style="fill:#006d2c;"/>
    <path clip-path="url(#p2ec36f47c5)" d="M 428.5965 242.22 
L 443.7605 242.22 
L 443.7605 166.4 
L 428.5965 166.4 
L 428.5965 242.22 
" style="fill:#42ab5d;"/>
    <path clip-path="url(#p2ec36f47c5)" d="M 428.5965 166.4 
L 443.7605 166.4 
L 443.7605 90.58 
L 428.5965 90.58 
L 428.5965 166.4 
" style="fill:#a2d99c;"/>
    <path clip-path="url(#p2ec36f47c5)" d="M 428.5965 90.58 
L 443.7605 90.58 
L 443.7605 14.76 
L 428.5965 14.76 
L 428.5965 90.58 
" style="fill:#e5f5e1;"/>
   </g>
   <g id="matplotlib.axis_3"/>
   <g id="matplotlib.axis_4">
    <g id="ytick_10">
     <g id="line2d_31">
      <defs>
       <path d="M 0 0 
L 3.5 0 
" id="m11d4fad207" style="stroke:#000000;stroke-width:0.8;"/>
      </defs>
      <g>
       <use style="stroke:#000000;stroke-width:0.8;" x="443.7605" xlink:href="#m11d4fad207" y="318.04"/>
      </g>
     </g>
    </g>
    <g id="ytick_11">
     <g id="line2d_32">
      <g>
       <use style="stroke:#000000;stroke-width:0.8;" x="443.7605" xlink:href="#m11d4fad207" y="166.4"/>
      </g>
     </g>
     <g id="text_19">
      <!-- $1\sigma$ -->
      <g transform="translate(450.7605 170.199219)scale(0.1 -0.1)">
       <defs>
        <path d="M 2219 3044 
Q 1744 3044 1422 2700 
Q 1081 2341 969 1747 
Q 844 1119 1044 756 
Q 1241 397 1706 397 
Q 2166 397 2503 759 
Q 2844 1122 2966 1747 
Q 3075 2319 2881 2700 
Q 2700 3044 2219 3044 
z
M 2309 3503 
L 4219 3500 
L 4106 2925 
L 3463 2925 
Q 3706 2438 3575 1747 
Q 3406 888 2884 400 
Q 2359 -91 1609 -91 
Q 856 -91 525 400 
Q 194 888 363 1747 
Q 528 2609 1050 3097 
Q 1484 3503 2309 3503 
z
" id="DejaVuSans-Oblique-3c3" transform="scale(0.015625)"/>
       </defs>
       <use transform="translate(0 0.09375)" xlink:href="#DejaVuSans-31"/>
       <use transform="translate(63.623047 0.09375)" xlink:href="#DejaVuSans-Oblique-3c3"/>
      </g>
     </g>
    </g>
    <g id="ytick_12">
     <g id="line2d_33">
      <g>
       <use style="stroke:#000000;stroke-width:0.8;" x="443.7605" xlink:href="#m11d4fad207" y="14.76"/>
      </g>
     </g>
     <g id="text_20">
      <!-- $2\sigma$ -->
      <g transform="translate(450.7605 18.559219)scale(0.1 -0.1)">
       <use transform="translate(0 0.78125)" xlink:href="#DejaVuSans-32"/>
       <use transform="translate(63.623047 0.78125)" xlink:href="#DejaVuSans-Oblique-3c3"/>
      </g>
     </g>
    </g>
   </g>
   <g id="LineCollection_4"/>
   <g id="patch_9">
    <path d="M 428.5965 318.04 
L 428.5965 242.22 
L 428.5965 90.58 
L 428.5965 14.76 
L 443.7605 14.76 
L 443.7605 90.58 
L 443.7605 242.22 
L 443.7605 318.04 
z
" style="fill:none;stroke:#000000;stroke-linecap:square;stroke-linejoin:miter;stroke-width:0.8;"/>
   </g>
  </g>
 </g>
 <defs>
  <clipPath id="pa5a5d8406e">
   <rect height="303.28" width="344.552" x="62.51" y="14.76"/>
  </clipPath>
  <clipPath id="p2ec36f47c5">
   <rect height="303.28" width="15.164" x="428.5965" y="14.76"/>
  </clipPath>
 </defs>
</svg>
