<?xml version="1.0" encoding="utf-8" standalone="no"?>
<!DOCTYPE svg PUBLIC "-//W3C//DTD SVG 1.1//EN"
  "http://www.w3.org/Graphics/SVG/1.1/DTD/svg11.dtd">
<!-- Created with matplotlib (https://matplotlib.org/) -->
<svg height="288pt" version="1.1" viewBox="0 0 432 288" width="432pt" xmlns="http://www.w3.org/2000/svg" xmlns:xlink="http://www.w3.org/1999/xlink">
 <metadata>
  <rdf:RDF xmlns:cc="http://creativecommons.org/ns#" xmlns:dc="http://purl.org/dc/elements/1.1/" xmlns:rdf="http://www.w3.org/1999/02/22-rdf-syntax-ns#">
   <cc:Work>
    <dc:type rdf:resource="http://purl.org/dc/dcmitype/StillImage"/>
    <dc:date>2022-03-31T10:16:52.844530</dc:date>
    <dc:format>image/svg+xml</dc:format>
    <dc:creator>
     <cc:Agent>
      <dc:title>Matplotlib v3.3.3, https://matplotlib.org/</dc:title>
     </cc:Agent>
    </dc:creator>
   </cc:Work>
  </rdf:RDF>
 </metadata>
 <defs>
  <style type="text/css">*{stroke-linecap:butt;stroke-linejoin:round;}</style>
 </defs>
 <g id="figure_1">
  <g id="patch_1">
   <path d="M 0 288 
L 432 288 
L 432 0 
L 0 0 
z
" style="fill:none;"/>
  </g>
  <g id="axes_1">
   <g id="patch_2">
    <path d="M 65.55 246.2 
L 350.07 246.2 
L 350.07 14.8 
L 65.55 14.8 
z
" style="fill:#ffffff;"/>
   </g>
   <g id="PathCollection_1">
    <defs>
     <path d="M 65.802725 -138.137616 
L 66.209418 -139.076588 
L 66.700125 -140.01556 
L 67.492806 -140.954532 
L 67.886585 -141.893503 
L 68.172115 -142.832475 
L 68.270175 -143.771447 
L 68.430421 -144.710419 
L 68.673711 -145.649391 
L 69.029697 -146.588362 
L 69.565122 -147.527334 
L 70.292 -148.310631 
L 70.35497 -148.466306 
L 70.787942 -149.405278 
L 71.298778 -150.34425 
L 71.851826 -151.283221 
L 72.419122 -152.222193 
L 73.003328 -153.161165 
L 73.626978 -154.100137 
L 74.227786 -155.039108 
L 75.034 -155.902317 
L 75.103878 -155.97808 
L 76.028336 -156.917052 
L 76.967468 -157.856024 
L 77.956549 -158.794996 
L 78.236979 -159.733967 
L 78.694536 -160.672939 
L 79.776 -161.589823 
L 79.816712 -161.611911 
L 81.582056 -162.550883 
L 83.119115 -163.489854 
L 84.254222 -164.428826 
L 84.518 -164.678365 
L 88.598286 -165.367798 
L 89.26 -165.448836 
L 93.197203 -166.30677 
L 94.002 -166.597146 
L 98.744 -167.119817 
L 103.486 -167.207463 
L 108.228 -166.891998 
L 110.511384 -166.30677 
L 112.97 -165.749881 
L 114.073406 -165.367798 
L 116.96411 -164.428826 
L 117.712 -164.20569 
L 120.226445 -163.489854 
L 122.454 -162.902111 
L 123.777278 -162.550883 
L 127.196 -161.803723 
L 127.963502 -161.611911 
L 131.938 -160.86807 
L 132.826262 -160.672939 
L 136.68 -160.030227 
L 138.507733 -159.733967 
L 141.422 -159.329598 
L 146.131017 -158.794996 
L 146.164 -158.791793 
L 150.906 -158.363186 
L 155.648 -158.134524 
L 160.39 -157.96008 
L 163.060058 -157.856024 
L 165.132 -157.76985 
L 169.874 -157.604111 
L 174.616 -157.520094 
L 179.358 -157.490133 
L 184.1 -157.499445 
L 188.842 -157.526722 
L 193.584 -157.54987 
L 198.326 -157.567578 
L 203.068 -157.581674 
L 207.81 -157.592997 
L 212.552 -157.601746 
L 217.294 -157.607901 
L 222.036 -157.611455 
L 226.778 -157.612505 
L 231.52 -157.611258 
L 236.262 -157.608005 
L 241.004 -157.603079 
L 245.746 -157.596819 
L 250.488 -157.589561 
L 255.23 -157.581688 
L 259.972 -157.573424 
L 264.714 -157.564992 
L 269.456 -157.556583 
L 274.198 -157.548361 
L 278.94 -157.540618 
L 283.682 -157.533323 
L 288.424 -157.526497 
L 293.166 -157.520168 
L 297.908 -157.514486 
L 302.65 -157.509315 
L 307.392 -157.504575 
L 312.134 -157.500278 
L 316.876 -157.496451 
L 321.618 -157.492918 
L 326.36 -157.489666 
L 331.102 -157.486763 
L 335.844 -157.484039 
L 340.586 -157.481505 
L 345.328 -157.4792 
L 350.07 -157.476998 
L 354.812 -157.474954 
L 354.812 -157.856024 
L 354.812 -158.794996 
L 354.812 -159.137297 
L 350.07 -159.196833 
L 345.328 -159.260684 
L 340.586 -159.327968 
L 335.844 -159.400302 
L 331.102 -159.476497 
L 326.36 -159.555617 
L 321.618 -159.638966 
L 316.876 -159.724371 
L 316.336292 -159.733967 
L 312.134 -159.806359 
L 307.392 -159.89305 
L 302.65 -159.985128 
L 297.908 -160.083055 
L 293.166 -160.188169 
L 288.424 -160.302033 
L 283.682 -160.423231 
L 278.94 -160.551241 
L 274.624644 -160.672939 
L 274.198 -160.684406 
L 269.456 -160.814198 
L 264.714 -160.951899 
L 259.972 -161.098987 
L 255.23 -161.25644 
L 250.488 -161.424488 
L 245.746 -161.603665 
L 245.528162 -161.611911 
L 241.004 -161.777234 
L 236.262 -161.959979 
L 231.52 -162.154137 
L 226.778 -162.360719 
L 222.638061 -162.550883 
L 222.036 -162.577991 
L 217.294 -162.790128 
L 212.552 -163.01375 
L 207.81 -163.252379 
L 203.409461 -163.489854 
L 203.068 -163.508014 
L 198.326 -163.754622 
L 193.584 -164.017955 
L 188.842 -164.304579 
L 186.82715 -164.428826 
L 184.1 -164.592945 
L 179.358 -164.888151 
L 174.616 -165.213141 
L 172.423381 -165.367798 
L 169.874 -165.544656 
L 165.132 -165.897326 
L 160.39 -166.295769 
L 160.273013 -166.30677 
L 155.648 -166.737287 
L 151.243574 -167.245742 
L 150.906 -167.283875 
L 146.164 -167.964905 
L 144.946163 -168.184713 
L 141.422 -168.800304 
L 139.90652 -169.123685 
L 136.68 -169.784484 
L 135.57972 -170.062657 
L 131.938 -170.904077 
L 131.634103 -171.001629 
L 128.058547 -171.9406 
L 127.196 -172.146251 
L 125.075571 -172.879572 
L 122.454 -173.552934 
L 121.826103 -173.818544 
L 119.095367 -174.757516 
L 117.712 -175.136578 
L 116.482047 -175.696488 
L 113.806054 -176.635459 
L 112.97 -176.855621 
L 111.082744 -177.574431 
L 108.228 -178.140404 
L 103.486 -178.263157 
L 98.744 -177.702699 
L 98.090984 -177.574431 
L 94.454371 -176.635459 
L 94.002 -176.440385 
L 91.803287 -175.696488 
L 89.980804 -174.757516 
L 89.26 -174.338089 
L 88.497112 -173.818544 
L 86.5315 -172.879572 
L 84.518 -172.380338 
L 83.991848 -171.9406 
L 83.23295 -171.001629 
L 82.00155 -170.062657 
L 80.615326 -169.123685 
L 79.776 -168.574098 
L 79.376698 -168.184713 
L 78.58513 -167.245742 
L 77.805726 -166.30677 
L 76.58531 -165.367798 
L 75.888483 -164.428826 
L 75.034 -163.845594 
L 74.644406 -163.489854 
L 73.701205 -162.550883 
L 72.847932 -161.611911 
L 72.039093 -160.672939 
L 71.015645 -159.733967 
L 70.292 -159.242454 
L 69.701092 -158.794996 
L 68.797125 -157.856024 
L 68.041974 -156.917052 
L 67.351556 -155.97808 
L 66.721925 -155.039108 
L 66.278213 -154.100137 
L 65.727583 -153.161165 
L 65.55 -152.949188 
L 65.55 -152.222193 
L 65.55 -151.283221 
L 65.55 -150.34425 
L 65.55 -149.405278 
L 65.55 -148.466306 
L 65.55 -147.527334 
L 65.55 -146.588362 
L 65.55 -145.649391 
L 65.55 -144.710419 
L 65.55 -143.771447 
L 65.55 -142.832475 
L 65.55 -141.893503 
L 65.55 -140.954532 
L 65.55 -140.01556 
L 65.55 -139.076588 
L 65.55 -138.137616 
L 65.55 -137.490278 
z
M 174.616 -159.733967 
L 174.616 -159.733967 
L 174.616 -159.733967 
L 174.616 -159.733967 
z
" id="m0d88dddb9e" style="stroke:#006428;"/>
    </defs>
    <g clip-path="url(#pcf02f393b7)">
     <use style="fill:#006428;stroke:#006428;" x="0" xlink:href="#m0d88dddb9e" y="288"/>
    </g>
   </g>
   <g id="PathCollection_2">
    <path clip-path="url(#pcf02f393b7)" d="M 65.600105 159.252101 
L 65.817559 158.31313 
L 66.047334 157.374158 
L 66.294963 156.435186 
L 66.567178 155.496214 
L 66.871073 154.557243 
L 67.209418 153.618271 
L 67.577387 152.679299 
L 67.968443 151.740327 
L 68.377841 150.801355 
L 68.80123 149.862384 
L 69.234379 148.923412 
L 69.676299 147.98444 
L 70.11615 147.045468 
L 70.292 146.593266 
L 70.41495 146.106497 
L 70.679309 145.167525 
L 70.990367 144.228553 
L 71.354752 143.289581 
L 71.775208 142.350609 
L 72.262021 141.411638 
L 72.848133 140.472666 
L 73.559075 139.533694 
L 74.31362 138.594722 
L 75.020007 137.65575 
L 75.034 137.634143 
L 75.379277 136.716779 
L 75.794777 135.777807 
L 76.45927 134.838835 
L 77.377547 133.899863 
L 78.351558 132.960892 
L 79.277067 132.02192 
L 79.776 131.424794 
L 80.135051 131.082948 
L 81.171318 130.143976 
L 82.484749 129.205004 
L 84.159146 128.266033 
L 84.518 128.082988 
L 87.249384 127.327061 
L 89.26 126.678727 
L 94.002 126.697085 
L 98.744 126.90909 
L 103.486 127.21398 
L 104.868546 127.327061 
L 108.228 127.607359 
L 112.97 128.086597 
L 114.550431 128.266033 
L 117.712 128.590496 
L 122.454 129.141202 
L 122.955953 129.205004 
L 127.196 129.679356 
L 131.938 130.091183 
L 132.57617 130.143976 
L 136.68 130.493892 
L 141.422 130.85915 
L 145.214817 131.082948 
L 146.164 131.156892 
L 150.906 131.503326 
L 155.648 131.727855 
L 160.39 131.884677 
L 165.132 132.004504 
L 166.070469 132.02192 
L 169.874 132.111678 
L 174.616 132.180981 
L 179.358 132.221015 
L 184.1 132.238927 
L 188.842 132.239834 
L 193.584 132.227522 
L 198.326 132.20487 
L 203.068 132.174112 
L 207.81 132.137014 
L 212.552 132.095007 
L 217.294 132.049291 
L 219.965894 132.02192 
L 222.036 132.005976 
L 226.778 131.968137 
L 231.52 131.929663 
L 236.262 131.890831 
L 241.004 131.851844 
L 245.746 131.812842 
L 250.488 131.773927 
L 255.23 131.735271 
L 259.972 131.696863 
L 264.714 131.658713 
L 269.456 131.620824 
L 274.198 131.583199 
L 278.94 131.546128 
L 283.682 131.509475 
L 288.424 131.473208 
L 293.166 131.437367 
L 297.908 131.402384 
L 302.65 131.368119 
L 307.392 131.334523 
L 312.134 131.301831 
L 316.876 131.270414 
L 321.618 131.239908 
L 326.36 131.210456 
L 331.102 131.182572 
L 335.844 131.155711 
L 340.586 131.130036 
L 345.328 131.105856 
L 350.003757 131.082948 
L 350.07 131.082771 
L 354.812 131.070476 
L 354.812 130.525046 
L 350.07 130.523002 
L 345.328 130.5208 
L 340.586 130.518495 
L 335.844 130.515961 
L 331.102 130.513237 
L 326.36 130.510334 
L 321.618 130.507082 
L 316.876 130.503549 
L 312.134 130.499722 
L 307.392 130.495425 
L 302.65 130.490685 
L 297.908 130.485514 
L 293.166 130.479832 
L 288.424 130.473503 
L 283.682 130.466677 
L 278.94 130.459382 
L 274.198 130.451639 
L 269.456 130.443417 
L 264.714 130.435008 
L 259.972 130.426576 
L 255.23 130.418312 
L 250.488 130.410439 
L 245.746 130.403181 
L 241.004 130.396921 
L 236.262 130.391995 
L 231.52 130.388742 
L 226.778 130.387495 
L 222.036 130.388545 
L 217.294 130.392099 
L 212.552 130.398254 
L 207.81 130.407003 
L 203.068 130.418326 
L 198.326 130.432422 
L 193.584 130.45013 
L 188.842 130.473278 
L 184.1 130.500555 
L 179.358 130.509867 
L 174.616 130.479906 
L 169.874 130.395889 
L 165.132 130.23015 
L 163.060058 130.143976 
L 160.39 130.03992 
L 155.648 129.865476 
L 150.906 129.636814 
L 146.164 129.208207 
L 146.131017 129.205004 
L 141.422 128.670402 
L 138.507733 128.266033 
L 136.68 127.969773 
L 132.826262 127.327061 
L 131.938 127.13193 
L 127.963502 126.388089 
L 127.196 126.196277 
L 123.777278 125.449117 
L 122.454 125.097889 
L 120.226445 124.510146 
L 117.712 123.79431 
L 116.96411 123.571174 
L 114.073406 122.632202 
L 112.97 122.250119 
L 110.511384 121.69323 
L 108.228 121.108002 
L 103.486 120.792537 
L 98.744 120.880183 
L 94.002 121.402854 
L 93.197203 121.69323 
L 89.26 122.551164 
L 88.598286 122.632202 
L 84.518 123.321635 
L 84.254222 123.571174 
L 83.119115 124.510146 
L 81.582056 125.449117 
L 79.816712 126.388089 
L 79.776 126.410177 
L 78.694536 127.327061 
L 78.236979 128.266033 
L 77.956549 129.205004 
L 76.967468 130.143976 
L 76.028336 131.082948 
L 75.103878 132.02192 
L 75.034 132.097683 
L 74.227786 132.960892 
L 73.626978 133.899863 
L 73.003328 134.838835 
L 72.419122 135.777807 
L 71.851826 136.716779 
L 71.298778 137.65575 
L 70.787942 138.594722 
L 70.35497 139.533694 
L 70.292 139.689369 
L 69.565122 140.472666 
L 69.029697 141.411638 
L 68.673711 142.350609 
L 68.430421 143.289581 
L 68.270175 144.228553 
L 68.172115 145.167525 
L 67.886585 146.106497 
L 67.492806 147.045468 
L 66.700125 147.98444 
L 66.209418 148.923412 
L 65.802725 149.862384 
L 65.55 150.509722 
L 65.55 150.801355 
L 65.55 151.740327 
L 65.55 152.679299 
L 65.55 153.618271 
L 65.55 154.557243 
L 65.55 155.496214 
L 65.55 156.435186 
L 65.55 157.374158 
L 65.55 158.31313 
L 65.55 159.252101 
L 65.55 159.46999 
z
" style="fill:#2f974e;stroke:#2f974e;"/>
    <path clip-path="url(#pcf02f393b7)" d="M 65.727583 134.838835 
L 66.278213 133.899863 
L 66.721925 132.960892 
L 67.351556 132.02192 
L 68.041974 131.082948 
L 68.797125 130.143976 
L 69.701092 129.205004 
L 70.292 128.757546 
L 71.015645 128.266033 
L 72.039093 127.327061 
L 72.847932 126.388089 
L 73.701205 125.449117 
L 74.644406 124.510146 
L 75.034 124.154406 
L 75.888483 123.571174 
L 76.58531 122.632202 
L 77.805726 121.69323 
L 78.58513 120.754258 
L 79.376698 119.815287 
L 79.776 119.425902 
L 80.615326 118.876315 
L 82.00155 117.937343 
L 83.23295 116.998371 
L 83.991848 116.0594 
L 84.518 115.619662 
L 86.5315 115.120428 
L 88.497112 114.181456 
L 89.26 113.661911 
L 89.980804 113.242484 
L 91.803287 112.303512 
L 94.002 111.559615 
L 94.454371 111.364541 
L 98.090984 110.425569 
L 98.744 110.297301 
L 103.486 109.736843 
L 108.228 109.859596 
L 111.082744 110.425569 
L 112.97 111.144379 
L 113.806054 111.364541 
L 116.482047 112.303512 
L 117.712 112.863422 
L 119.095367 113.242484 
L 121.826103 114.181456 
L 122.454 114.447066 
L 125.075571 115.120428 
L 127.196 115.853749 
L 128.058547 116.0594 
L 131.634103 116.998371 
L 131.938 117.095923 
L 135.57972 117.937343 
L 136.68 118.215516 
L 139.90652 118.876315 
L 141.422 119.199696 
L 144.946163 119.815287 
L 146.164 120.035095 
L 150.906 120.716125 
L 151.243574 120.754258 
L 155.648 121.262713 
L 160.273013 121.69323 
L 160.39 121.704231 
L 165.132 122.102674 
L 169.874 122.455344 
L 172.423381 122.632202 
L 174.616 122.786859 
L 179.358 123.111849 
L 184.1 123.407055 
L 186.82715 123.571174 
L 188.842 123.695421 
L 193.584 123.982045 
L 198.326 124.245378 
L 203.068 124.491986 
L 203.409461 124.510146 
L 207.81 124.747621 
L 212.552 124.98625 
L 217.294 125.209872 
L 222.036 125.422009 
L 222.638061 125.449117 
L 226.778 125.639281 
L 231.52 125.845863 
L 236.262 126.040021 
L 241.004 126.222766 
L 245.528162 126.388089 
L 245.746 126.396335 
L 250.488 126.575512 
L 255.23 126.74356 
L 259.972 126.901013 
L 264.714 127.048101 
L 269.456 127.185802 
L 274.198 127.315594 
L 274.624644 127.327061 
L 278.94 127.448759 
L 283.682 127.576769 
L 288.424 127.697967 
L 293.166 127.811831 
L 297.908 127.916945 
L 302.65 128.014872 
L 307.392 128.10695 
L 312.134 128.193641 
L 316.336292 128.266033 
L 316.876 128.275629 
L 321.618 128.361034 
L 326.36 128.444383 
L 331.102 128.523503 
L 335.844 128.599698 
L 340.586 128.672032 
L 345.328 128.739316 
L 350.07 128.803167 
L 354.812 128.862703 
L 354.812 128.266033 
L 354.812 127.875808 
L 350.07 127.77756 
L 345.328 127.661628 
L 340.586 127.529041 
L 335.844 127.385082 
L 333.864548 127.327061 
L 331.102 127.274323 
L 326.36 127.178433 
L 321.618 127.070977 
L 316.876 126.949718 
L 312.134 126.80814 
L 307.392 126.640434 
L 302.65 126.454691 
L 300.920505 126.388089 
L 297.908 126.302046 
L 293.166 126.158695 
L 288.424 125.992767 
L 283.682 125.798649 
L 278.94 125.57855 
L 276.236852 125.449117 
L 274.198 125.370759 
L 269.456 125.177406 
L 264.714 124.953411 
L 259.972 124.697285 
L 256.694731 124.510146 
L 255.23 124.43877 
L 250.488 124.196089 
L 245.746 123.913865 
L 241.004 123.597808 
L 240.597735 123.571174 
L 236.262 123.311605 
L 231.52 122.986456 
L 226.892002 122.632202 
L 226.778 122.624218 
L 222.036 122.287323 
L 217.294 121.900103 
L 214.86949 121.69323 
L 212.552 121.505433 
L 207.81 121.090089 
L 204.276195 120.754258 
L 203.068 120.643941 
L 198.326 120.191746 
L 194.706941 119.815287 
L 193.584 119.701375 
L 188.842 119.201927 
L 185.945846 118.876315 
L 184.1 118.670741 
L 179.358 118.112798 
L 177.904504 117.937343 
L 174.616 117.538102 
L 170.482412 116.998371 
L 169.874 116.918264 
L 165.132 116.276275 
L 163.606994 116.0594 
L 160.39 115.593541 
L 157.329339 115.120428 
L 155.648 114.855941 
L 151.619076 114.181456 
L 150.906 114.060269 
L 146.352929 113.242484 
L 146.164 113.208216 
L 141.422 112.313969 
L 141.36648 112.303512 
L 136.68 111.414172 
L 136.417913 111.364541 
L 131.938 110.549663 
L 131.324673 110.425569 
L 127.196 109.669077 
L 126.330284 109.486597 
L 122.454 108.745275 
L 121.449942 108.547625 
L 117.712 107.860316 
L 116.117058 107.608653 
L 112.97 107.135597 
L 108.731934 106.669682 
L 108.228 106.612432 
L 103.486 106.346031 
L 98.744 106.559126 
L 98.18349 106.669682 
L 94.002 107.426776 
L 93.655008 107.608653 
L 91.339648 108.547625 
L 89.26 109.193579 
L 88.937166 109.486597 
L 87.889494 110.425569 
L 86.738159 111.364541 
L 85.383157 112.303512 
L 84.518 112.828258 
L 84.120178 113.242484 
L 83.245436 114.181456 
L 82.305818 115.120428 
L 81.382007 116.0594 
L 80.505772 116.998371 
L 79.776 117.397759 
L 78.65731 117.937343 
L 77.530345 118.876315 
L 76.680802 119.815287 
L 75.942052 120.754258 
L 75.060324 121.69323 
L 75.034 121.710155 
L 72.851533 122.632202 
L 71.746688 123.571174 
L 70.7311 124.510146 
L 70.292 124.925281 
L 69.366177 125.449117 
L 68.108805 126.388089 
L 67.099738 127.327061 
L 66.19938 128.266033 
L 65.55 129.032633 
L 65.55 129.205004 
L 65.55 130.143976 
L 65.55 131.082948 
L 65.55 132.02192 
L 65.55 132.960892 
L 65.55 133.899863 
L 65.55 134.838835 
L 65.55 135.050812 
z
" style="fill:#2f974e;stroke:#2f974e;"/>
   </g>
   <g id="PathCollection_3">
    <path clip-path="url(#pcf02f393b7)" d="M 65.743286 165.824904 
L 65.978975 164.885932 
L 66.229217 163.94696 
L 66.489777 163.007989 
L 66.756862 162.069017 
L 67.028292 161.130045 
L 67.304594 160.191073 
L 67.589139 159.252101 
L 67.88733 158.31313 
L 68.205799 157.374158 
L 68.552448 156.435186 
L 68.936738 155.496214 
L 69.366392 154.557243 
L 69.836559 153.618271 
L 70.292 152.745036 
L 70.304349 152.679299 
L 70.486554 151.740327 
L 70.694094 150.801355 
L 70.930563 149.862384 
L 71.195626 148.923412 
L 71.483988 147.98444 
L 71.789689 147.045468 
L 72.118877 146.106497 
L 72.497494 145.167525 
L 72.947559 144.228553 
L 73.471456 143.289581 
L 74.078228 142.350609 
L 74.796057 141.411638 
L 75.034 141.138937 
L 75.410735 140.472666 
L 75.982445 139.533694 
L 76.509061 138.594722 
L 77.001383 137.65575 
L 77.542001 136.716779 
L 78.276876 135.777807 
L 79.579793 134.838835 
L 79.776 134.700058 
L 81.423947 133.899863 
L 82.75071 132.960892 
L 84.003952 132.02192 
L 84.518 131.651763 
L 87.538283 131.082948 
L 89.26 130.740371 
L 94.002 130.298786 
L 98.744 130.439013 
L 103.486 130.784438 
L 106.516545 131.082948 
L 108.228 131.23616 
L 112.97 131.806785 
L 114.810021 132.02192 
L 117.712 132.353812 
L 122.454 132.804295 
L 124.348074 132.960892 
L 127.196 133.214085 
L 131.938 133.603761 
L 136.03014 133.899863 
L 136.68 133.946196 
L 141.422 134.204944 
L 146.164 134.42292 
L 150.906 134.609833 
L 155.648 134.760312 
L 158.601801 134.838835 
L 160.39 134.884741 
L 165.132 134.982247 
L 169.874 135.049409 
L 174.616 135.082234 
L 179.358 135.087818 
L 184.1 135.068983 
L 188.842 135.029184 
L 193.584 134.972115 
L 198.326 134.901457 
L 201.975662 134.838835 
L 203.068 134.819219 
L 207.81 134.72264 
L 212.552 134.618855 
L 217.294 134.510079 
L 222.036 134.398176 
L 226.778 134.284752 
L 231.52 134.171321 
L 236.262 134.059515 
L 241.004 133.951301 
L 243.317315 133.899863 
L 245.746 133.844784 
L 250.488 133.736646 
L 255.23 133.629845 
L 259.972 133.524493 
L 264.714 133.42074 
L 269.456 133.318993 
L 274.198 133.220103 
L 278.94 133.126011 
L 283.682 133.038436 
L 288.339296 132.960892 
L 288.424 132.959478 
L 293.166 132.880141 
L 297.908 132.803147 
L 302.65 132.727717 
L 307.392 132.653163 
L 312.134 132.579358 
L 316.876 132.506661 
L 321.618 132.434372 
L 326.36 132.363105 
L 331.102 132.294722 
L 335.844 132.229283 
L 340.586 132.168562 
L 345.328 132.114811 
L 350.07 132.068616 
L 354.812 132.031125 
L 354.812 132.02192 
L 354.812 131.082948 
L 354.812 131.070476 
L 350.07 131.082771 
L 350.003757 131.082948 
L 345.328 131.105856 
L 340.586 131.130036 
L 335.844 131.155711 
L 331.102 131.182572 
L 326.36 131.210456 
L 321.618 131.239908 
L 316.876 131.270414 
L 312.134 131.301831 
L 307.392 131.334523 
L 302.65 131.368119 
L 297.908 131.402384 
L 293.166 131.437367 
L 288.424 131.473208 
L 283.682 131.509475 
L 278.94 131.546128 
L 274.198 131.583199 
L 269.456 131.620824 
L 264.714 131.658713 
L 259.972 131.696863 
L 255.23 131.735271 
L 250.488 131.773927 
L 245.746 131.812842 
L 241.004 131.851844 
L 236.262 131.890831 
L 231.52 131.929663 
L 226.778 131.968137 
L 222.036 132.005976 
L 219.965894 132.02192 
L 217.294 132.049291 
L 212.552 132.095007 
L 207.81 132.137014 
L 203.068 132.174112 
L 198.326 132.20487 
L 193.584 132.227522 
L 188.842 132.239834 
L 184.1 132.238927 
L 179.358 132.221015 
L 174.616 132.180981 
L 169.874 132.111678 
L 166.070469 132.02192 
L 165.132 132.004504 
L 160.39 131.884677 
L 155.648 131.727855 
L 150.906 131.503326 
L 146.164 131.156892 
L 145.214817 131.082948 
L 141.422 130.85915 
L 136.68 130.493892 
L 132.57617 130.143976 
L 131.938 130.091183 
L 127.196 129.679356 
L 122.955953 129.205004 
L 122.454 129.141202 
L 117.712 128.590496 
L 114.550431 128.266033 
L 112.97 128.086597 
L 108.228 127.607359 
L 104.868546 127.327061 
L 103.486 127.21398 
L 98.744 126.90909 
L 94.002 126.697085 
L 89.26 126.678727 
L 87.249384 127.327061 
L 84.518 128.082988 
L 84.159146 128.266033 
L 82.484749 129.205004 
L 81.171318 130.143976 
L 80.135051 131.082948 
L 79.776 131.424794 
L 79.277067 132.02192 
L 78.351558 132.960892 
L 77.377547 133.899863 
L 76.45927 134.838835 
L 75.794777 135.777807 
L 75.379277 136.716779 
L 75.034 137.634143 
L 75.020007 137.65575 
L 74.31362 138.594722 
L 73.559075 139.533694 
L 72.848133 140.472666 
L 72.262021 141.411638 
L 71.775208 142.350609 
L 71.354752 143.289581 
L 70.990367 144.228553 
L 70.679309 145.167525 
L 70.41495 146.106497 
L 70.292 146.593266 
L 70.11615 147.045468 
L 69.676299 147.98444 
L 69.234379 148.923412 
L 68.80123 149.862384 
L 68.377841 150.801355 
L 67.968443 151.740327 
L 67.577387 152.679299 
L 67.209418 153.618271 
L 66.871073 154.557243 
L 66.567178 155.496214 
L 66.294963 156.435186 
L 66.047334 157.374158 
L 65.817559 158.31313 
L 65.600105 159.252101 
L 65.55 159.46999 
L 65.55 160.191073 
L 65.55 161.130045 
L 65.55 162.069017 
L 65.55 163.007989 
L 65.55 163.94696 
L 65.55 164.885932 
L 65.55 165.824904 
L 65.55 166.656507 
z
" style="fill:#75c477;stroke:#75c477;"/>
    <path clip-path="url(#pcf02f393b7)" d="M 66.19938 128.266033 
L 67.099738 127.327061 
L 68.108805 126.388089 
L 69.366177 125.449117 
L 70.292 124.925281 
L 70.7311 124.510146 
L 71.746688 123.571174 
L 72.851533 122.632202 
L 75.034 121.710155 
L 75.060324 121.69323 
L 75.942052 120.754258 
L 76.680802 119.815287 
L 77.530345 118.876315 
L 78.65731 117.937343 
L 79.776 117.397759 
L 80.505772 116.998371 
L 81.382007 116.0594 
L 82.305818 115.120428 
L 83.245436 114.181456 
L 84.120178 113.242484 
L 84.518 112.828258 
L 85.383157 112.303512 
L 86.738159 111.364541 
L 87.889494 110.425569 
L 88.937166 109.486597 
L 89.26 109.193579 
L 91.339648 108.547625 
L 93.655008 107.608653 
L 94.002 107.426776 
L 98.18349 106.669682 
L 98.744 106.559126 
L 103.486 106.346031 
L 108.228 106.612432 
L 108.731934 106.669682 
L 112.97 107.135597 
L 116.117058 107.608653 
L 117.712 107.860316 
L 121.449942 108.547625 
L 122.454 108.745275 
L 126.330284 109.486597 
L 127.196 109.669077 
L 131.324673 110.425569 
L 131.938 110.549663 
L 136.417913 111.364541 
L 136.68 111.414172 
L 141.36648 112.303512 
L 141.422 112.313969 
L 146.164 113.208216 
L 146.352929 113.242484 
L 150.906 114.060269 
L 151.619076 114.181456 
L 155.648 114.855941 
L 157.329339 115.120428 
L 160.39 115.593541 
L 163.606994 116.0594 
L 165.132 116.276275 
L 169.874 116.918264 
L 170.482412 116.998371 
L 174.616 117.538102 
L 177.904504 117.937343 
L 179.358 118.112798 
L 184.1 118.670741 
L 185.945846 118.876315 
L 188.842 119.201927 
L 193.584 119.701375 
L 194.706941 119.815287 
L 198.326 120.191746 
L 203.068 120.643941 
L 204.276195 120.754258 
L 207.81 121.090089 
L 212.552 121.505433 
L 214.86949 121.69323 
L 217.294 121.900103 
L 222.036 122.287323 
L 226.778 122.624218 
L 226.892002 122.632202 
L 231.52 122.986456 
L 236.262 123.311605 
L 240.597735 123.571174 
L 241.004 123.597808 
L 245.746 123.913865 
L 250.488 124.196089 
L 255.23 124.43877 
L 256.694731 124.510146 
L 259.972 124.697285 
L 264.714 124.953411 
L 269.456 125.177406 
L 274.198 125.370759 
L 276.236852 125.449117 
L 278.94 125.57855 
L 283.682 125.798649 
L 288.424 125.992767 
L 293.166 126.158695 
L 297.908 126.302046 
L 300.920505 126.388089 
L 302.65 126.454691 
L 307.392 126.640434 
L 312.134 126.80814 
L 316.876 126.949718 
L 321.618 127.070977 
L 326.36 127.178433 
L 331.102 127.274323 
L 333.864548 127.327061 
L 335.844 127.385082 
L 340.586 127.529041 
L 345.328 127.661628 
L 350.07 127.77756 
L 354.812 127.875808 
L 354.812 127.327061 
L 354.812 127.129454 
L 350.07 127.020383 
L 345.328 126.912328 
L 340.586 126.803382 
L 335.844 126.680686 
L 331.102 126.51738 
L 327.839282 126.388089 
L 326.36 126.327258 
L 321.618 126.168986 
L 316.876 126.025049 
L 312.134 125.877429 
L 307.392 125.699443 
L 302.65 125.466071 
L 302.292051 125.449117 
L 297.908 125.253965 
L 293.166 125.069717 
L 288.424 124.869356 
L 283.682 124.610567 
L 281.964186 124.510146 
L 278.94 124.339187 
L 274.198 124.108659 
L 269.456 123.848903 
L 265.397509 123.571174 
L 264.714 123.521808 
L 259.972 123.232222 
L 255.23 122.933825 
L 251.298403 122.632202 
L 250.488 122.56648 
L 245.746 122.22614 
L 241.004 121.858063 
L 239.108855 121.69323 
L 236.262 121.444582 
L 231.52 121.046921 
L 228.422633 120.754258 
L 226.778 120.590104 
L 222.036 120.141658 
L 218.86802 119.815287 
L 217.294 119.641696 
L 212.552 119.13806 
L 210.233071 118.876315 
L 207.81 118.585665 
L 203.068 118.021947 
L 202.382426 117.937343 
L 198.326 117.413393 
L 195.168511 116.998371 
L 193.584 116.774019 
L 188.842 116.108372 
L 188.498215 116.0594 
L 184.1 115.399499 
L 182.263055 115.120428 
L 179.358 114.652283 
L 176.446133 114.181456 
L 174.616 113.867827 
L 170.9646 113.242484 
L 169.874 113.04538 
L 165.761309 112.303512 
L 165.132 112.184343 
L 160.772039 111.364541 
L 160.39 111.28948 
L 155.936559 110.425569 
L 155.648 110.367216 
L 151.199954 109.486597 
L 150.906 109.425846 
L 146.497995 108.547625 
L 146.164 108.477793 
L 141.821723 107.608653 
L 141.422 107.524249 
L 137.213679 106.669682 
L 136.68 106.555587 
L 132.716719 105.73071 
L 131.938 105.561022 
L 128.335812 104.791738 
L 127.196 104.532131 
L 123.817597 103.852766 
L 122.454 103.550589 
L 119.199152 102.913795 
L 117.712 102.604795 
L 114.483019 101.974823 
L 112.97 101.681375 
L 109.057585 101.035851 
L 108.228 100.909393 
L 103.486 100.584554 
L 98.744 100.896833 
L 98.313948 101.035851 
L 95.084858 101.974823 
L 94.002 102.256192 
L 93.011864 102.913795 
L 91.615174 103.852766 
L 90.088674 104.791738 
L 89.26 105.25264 
L 88.783019 105.73071 
L 87.854105 106.669682 
L 86.882292 107.608653 
L 85.833934 108.547625 
L 84.676133 109.486597 
L 84.518 109.60505 
L 83.753424 110.425569 
L 82.793049 111.364541 
L 81.822675 112.303512 
L 80.925349 113.242484 
L 80.139611 114.181456 
L 79.776 114.648777 
L 79.311061 115.120428 
L 78.222779 116.0594 
L 76.912778 116.998371 
L 75.562948 117.937343 
L 75.034 118.487598 
L 73.968733 118.876315 
L 72.038105 119.815287 
L 70.536894 120.754258 
L 70.292 120.920201 
L 67.847362 121.69323 
L 65.687012 122.632202 
L 65.55 122.707897 
L 65.55 123.571174 
L 65.55 124.510146 
L 65.55 125.449117 
L 65.55 126.388089 
L 65.55 127.327061 
L 65.55 128.266033 
L 65.55 129.032633 
z
" style="fill:#75c477;stroke:#75c477;"/>
   </g>
   <g id="PathCollection_4">
    <path clip-path="url(#pcf02f393b7)" d="M 65.643898 172.397706 
L 65.798363 171.458735 
L 65.972764 170.519763 
L 66.171491 169.580791 
L 66.397592 168.641819 
L 66.651507 167.702848 
L 66.929825 166.763876 
L 67.227103 165.824904 
L 67.539048 164.885932 
L 67.862389 163.94696 
L 68.193825 163.007989 
L 68.530459 162.069017 
L 68.871346 161.130045 
L 69.218764 160.191073 
L 69.578173 159.252101 
L 69.9571 158.31313 
L 70.292 157.535132 
L 70.292 157.374158 
L 70.292 156.435186 
L 70.292 155.496214 
L 70.639862 155.427334 
L 70.78619 154.557243 
L 71.00337 153.618271 
L 71.250639 152.679299 
L 71.530464 151.740327 
L 71.846874 150.801355 
L 72.200505 149.862384 
L 72.585031 148.923412 
L 72.986892 147.98444 
L 73.394985 147.045468 
L 73.822805 146.106497 
L 74.315678 145.167525 
L 74.904751 144.228553 
L 75.034 144.039413 
L 75.356571 143.289581 
L 75.831857 142.350609 
L 76.395817 141.411638 
L 77.05288 140.472666 
L 77.739879 139.533694 
L 78.362906 138.594722 
L 78.976192 137.65575 
L 79.704725 136.716779 
L 79.776 136.644643 
L 82.380863 135.777807 
L 84.518 134.867319 
L 84.745874 134.838835 
L 89.26 134.20388 
L 94.002 134.098986 
L 98.744 134.057558 
L 103.486 134.175373 
L 108.228 134.451738 
L 112.97 134.778142 
L 113.713084 134.838835 
L 117.712 135.142688 
L 122.454 135.575034 
L 124.531717 135.777807 
L 127.196 136.024441 
L 131.938 136.425087 
L 135.67886 136.716779 
L 136.68 136.796669 
L 141.422 137.110187 
L 146.164 137.34888 
L 150.906 137.535721 
L 155.28863 137.65575 
L 155.648 137.66518 
L 160.39 137.741293 
L 165.132 137.774477 
L 169.874 137.770945 
L 174.616 137.731657 
L 179.358 137.666561 
L 179.921087 137.65575 
L 184.1 137.56905 
L 188.842 137.452049 
L 193.584 137.322881 
L 198.326 137.186385 
L 203.068 137.045154 
L 207.81 136.89868 
L 212.552 136.74361 
L 213.286134 136.716779 
L 217.294 136.547261 
L 222.036 136.359479 
L 226.778 136.190061 
L 231.52 136.033533 
L 236.262 135.880039 
L 239.218808 135.777807 
L 241.004 135.697492 
L 245.746 135.492789 
L 250.488 135.32028 
L 255.23 135.173233 
L 259.972 135.039757 
L 264.714 134.907484 
L 266.965697 134.838835 
L 269.456 134.732034 
L 274.198 134.545453 
L 278.94 134.394952 
L 283.682 134.271422 
L 288.424 134.163875 
L 293.166 134.062729 
L 297.908 133.960197 
L 300.500691 133.899863 
L 302.65 133.820058 
L 307.392 133.654628 
L 312.134 133.521224 
L 316.876 133.415355 
L 321.618 133.327241 
L 326.36 133.250062 
L 331.102 133.178165 
L 335.844 133.099845 
L 340.586 133.029576 
L 345.328 132.970585 
L 346.0724 132.960892 
L 350.07 132.843499 
L 354.812 132.71974 
L 354.812 132.031125 
L 350.07 132.068616 
L 345.328 132.114811 
L 340.586 132.168562 
L 335.844 132.229283 
L 331.102 132.294722 
L 326.36 132.363105 
L 321.618 132.434372 
L 316.876 132.506661 
L 312.134 132.579358 
L 307.392 132.653163 
L 302.65 132.727717 
L 297.908 132.803147 
L 293.166 132.880141 
L 288.424 132.959478 
L 288.339296 132.960892 
L 283.682 133.038436 
L 278.94 133.126011 
L 274.198 133.220103 
L 269.456 133.318993 
L 264.714 133.42074 
L 259.972 133.524493 
L 255.23 133.629845 
L 250.488 133.736646 
L 245.746 133.844784 
L 243.317315 133.899863 
L 241.004 133.951301 
L 236.262 134.059515 
L 231.52 134.171321 
L 226.778 134.284752 
L 222.036 134.398176 
L 217.294 134.510079 
L 212.552 134.618855 
L 207.81 134.72264 
L 203.068 134.819219 
L 201.975662 134.838835 
L 198.326 134.901457 
L 193.584 134.972115 
L 188.842 135.029184 
L 184.1 135.068983 
L 179.358 135.087818 
L 174.616 135.082234 
L 169.874 135.049409 
L 165.132 134.982247 
L 160.39 134.884741 
L 158.601801 134.838835 
L 155.648 134.760312 
L 150.906 134.609833 
L 146.164 134.42292 
L 141.422 134.204944 
L 136.68 133.946196 
L 136.03014 133.899863 
L 131.938 133.603761 
L 127.196 133.214085 
L 124.348074 132.960892 
L 122.454 132.804295 
L 117.712 132.353812 
L 114.810021 132.02192 
L 112.97 131.806785 
L 108.228 131.23616 
L 106.516545 131.082948 
L 103.486 130.784438 
L 98.744 130.439013 
L 94.002 130.298786 
L 89.26 130.740371 
L 87.538283 131.082948 
L 84.518 131.651763 
L 84.003952 132.02192 
L 82.75071 132.960892 
L 81.423947 133.899863 
L 79.776 134.700058 
L 79.579793 134.838835 
L 78.276876 135.777807 
L 77.542001 136.716779 
L 77.001383 137.65575 
L 76.509061 138.594722 
L 75.982445 139.533694 
L 75.410735 140.472666 
L 75.034 141.138937 
L 74.796057 141.411638 
L 74.078228 142.350609 
L 73.471456 143.289581 
L 72.947559 144.228553 
L 72.497494 145.167525 
L 72.118877 146.106497 
L 71.789689 147.045468 
L 71.483988 147.98444 
L 71.195626 148.923412 
L 70.930563 149.862384 
L 70.694094 150.801355 
L 70.486554 151.740327 
L 70.304349 152.679299 
L 70.292 152.745036 
L 69.836559 153.618271 
L 69.366392 154.557243 
L 68.936738 155.496214 
L 68.552448 156.435186 
L 68.205799 157.374158 
L 67.88733 158.31313 
L 67.589139 159.252101 
L 67.304594 160.191073 
L 67.028292 161.130045 
L 66.756862 162.069017 
L 66.489777 163.007989 
L 66.229217 163.94696 
L 65.978975 164.885932 
L 65.743286 165.824904 
L 65.55 166.656507 
L 65.55 166.763876 
L 65.55 167.702848 
L 65.55 168.641819 
L 65.55 169.580791 
L 65.55 170.519763 
L 65.55 171.458735 
L 65.55 172.397706 
L 65.55 173.016249 
z
" style="fill:#b8e3b2;stroke:#b8e3b2;"/>
    <path clip-path="url(#pcf02f393b7)" d="M 331.102 126.51738 
L 335.844 126.680686 
L 340.586 126.803382 
L 345.328 126.912328 
L 350.07 127.020383 
L 354.812 127.129454 
L 354.812 126.496908 
L 350.099543 126.388089 
L 350.07 126.387224 
L 345.328 126.242677 
L 340.586 126.080086 
L 335.844 125.893854 
L 331.102 125.703126 
L 326.36 125.541745 
L 323.335183 125.449117 
L 321.618 125.38274 
L 316.876 125.183052 
L 312.134 124.958577 
L 307.392 124.725271 
L 302.65 124.522291 
L 302.334573 124.510146 
L 297.908 124.289352 
L 293.166 124.021711 
L 288.424 123.743941 
L 285.127454 123.571174 
L 283.682 123.486768 
L 278.94 123.185819 
L 274.198 122.862091 
L 270.640158 122.632202 
L 269.456 122.55033 
L 264.714 122.196866 
L 259.972 121.8246 
L 258.19768 121.69323 
L 255.23 121.452699 
L 250.488 121.035276 
L 247.266819 120.754258 
L 245.746 120.6154 
L 241.004 120.151652 
L 237.594765 119.815287 
L 236.262 119.679036 
L 231.52 119.164102 
L 228.888649 118.876315 
L 226.778 118.635543 
L 222.036 118.06197 
L 220.995165 117.937343 
L 217.294 117.468067 
L 213.736643 116.998371 
L 212.552 116.837456 
L 207.81 116.1643 
L 207.070439 116.0594 
L 203.068 115.462228 
L 200.833431 115.120428 
L 198.326 114.721899 
L 195.01738 114.181456 
L 193.584 113.939306 
L 189.557957 113.242484 
L 188.842 113.114361 
L 184.392998 112.303512 
L 184.1 112.248201 
L 179.471751 111.364541 
L 179.358 111.34199 
L 174.755862 110.425569 
L 174.616 110.396584 
L 170.217459 109.486597 
L 169.874 109.412519 
L 165.840523 108.547625 
L 165.132 108.389052 
L 161.60298 107.608653 
L 160.39 107.328439 
L 157.491834 106.669682 
L 155.648 106.231301 
L 153.498731 105.73071 
L 150.906 105.097921 
L 149.614287 104.791738 
L 146.164 103.9342 
L 145.825413 103.852766 
L 142.032294 102.913795 
L 141.422 102.756664 
L 138.24716 101.974823 
L 136.68 101.570414 
L 134.464326 101.035851 
L 131.938 100.401292 
L 130.641305 100.096879 
L 127.196 99.267574 
L 126.702979 99.157907 
L 122.454 98.2303 
L 122.399624 98.218936 
L 117.74858 97.279964 
L 117.712 97.272737 
L 112.97 96.53723 
L 110.962157 96.340992 
L 108.228 96.093044 
L 103.486 96.027853 
L 101.161411 96.340992 
L 98.744 96.669904 
L 97.087724 97.279964 
L 94.594409 98.218936 
L 94.002 98.432765 
L 92.798277 99.157907 
L 91.27333 100.096879 
L 89.823391 101.035851 
L 89.26 101.40016 
L 88.63877 101.974823 
L 87.575565 102.913795 
L 86.565541 103.852766 
L 85.639761 104.791738 
L 84.750192 105.73071 
L 84.518 105.967683 
L 84.128504 106.669682 
L 83.492242 107.608653 
L 82.737077 108.547625 
L 81.834869 109.486597 
L 80.779218 110.425569 
L 79.776 111.27938 
L 79.676118 111.364541 
L 78.609806 112.303512 
L 77.519883 113.242484 
L 76.463262 114.181456 
L 75.376194 115.120428 
L 75.034 115.395085 
L 71.461164 116.0594 
L 70.292 116.332349 
L 65.55 116.975292 
L 65.55 116.998371 
L 65.55 117.937343 
L 65.55 118.876315 
L 65.55 119.815287 
L 65.55 120.754258 
L 65.55 121.69323 
L 65.55 122.632202 
L 65.55 122.707897 
L 65.687012 122.632202 
L 67.847362 121.69323 
L 70.292 120.920201 
L 70.536894 120.754258 
L 72.038105 119.815287 
L 73.968733 118.876315 
L 75.034 118.487598 
L 75.562948 117.937343 
L 76.912778 116.998371 
L 78.222779 116.0594 
L 79.311061 115.120428 
L 79.776 114.648777 
L 80.139611 114.181456 
L 80.925349 113.242484 
L 81.822675 112.303512 
L 82.793049 111.364541 
L 83.753424 110.425569 
L 84.518 109.60505 
L 84.676133 109.486597 
L 85.833934 108.547625 
L 86.882292 107.608653 
L 87.854105 106.669682 
L 88.783019 105.73071 
L 89.26 105.25264 
L 90.088674 104.791738 
L 91.615174 103.852766 
L 93.011864 102.913795 
L 94.002 102.256192 
L 95.084858 101.974823 
L 98.313948 101.035851 
L 98.744 100.896833 
L 103.486 100.584554 
L 108.228 100.909393 
L 109.057585 101.035851 
L 112.97 101.681375 
L 114.483019 101.974823 
L 117.712 102.604795 
L 119.199152 102.913795 
L 122.454 103.550589 
L 123.817597 103.852766 
L 127.196 104.532131 
L 128.335812 104.791738 
L 131.938 105.561022 
L 132.716719 105.73071 
L 136.68 106.555587 
L 137.213679 106.669682 
L 141.422 107.524249 
L 141.821723 107.608653 
L 146.164 108.477793 
L 146.497995 108.547625 
L 150.906 109.425846 
L 151.199954 109.486597 
L 155.648 110.367216 
L 155.936559 110.425569 
L 160.39 111.28948 
L 160.772039 111.364541 
L 165.132 112.184343 
L 165.761309 112.303512 
L 169.874 113.04538 
L 170.9646 113.242484 
L 174.616 113.867827 
L 176.446133 114.181456 
L 179.358 114.652283 
L 182.263055 115.120428 
L 184.1 115.399499 
L 188.498215 116.0594 
L 188.842 116.108372 
L 193.584 116.774019 
L 195.168511 116.998371 
L 198.326 117.413393 
L 202.382426 117.937343 
L 203.068 118.021947 
L 207.81 118.585665 
L 210.233071 118.876315 
L 212.552 119.13806 
L 217.294 119.641696 
L 218.86802 119.815287 
L 222.036 120.141658 
L 226.778 120.590104 
L 228.422633 120.754258 
L 231.52 121.046921 
L 236.262 121.444582 
L 239.108855 121.69323 
L 241.004 121.858063 
L 245.746 122.22614 
L 250.488 122.56648 
L 251.298403 122.632202 
L 255.23 122.933825 
L 259.972 123.232222 
L 264.714 123.521808 
L 265.397509 123.571174 
L 269.456 123.848903 
L 274.198 124.108659 
L 278.94 124.339187 
L 281.964186 124.510146 
L 283.682 124.610567 
L 288.424 124.869356 
L 293.166 125.069717 
L 297.908 125.253965 
L 302.292051 125.449117 
L 302.65 125.466071 
L 307.392 125.699443 
L 312.134 125.877429 
L 316.876 126.025049 
L 321.618 126.168986 
L 326.36 126.327258 
L 327.839282 126.388089 
z
" style="fill:#b8e3b2;stroke:#b8e3b2;"/>
   </g>
   <g id="PathCollection_5">
    <path clip-path="url(#pcf02f393b7)" d="M 65.55 175.214622 
L 66.07226 175.111208 
L 66.197646 174.27565 
L 66.380744 173.336678 
L 66.580212 172.397706 
L 66.800729 171.458735 
L 67.047036 170.519763 
L 67.323215 169.580791 
L 67.631617 168.641819 
L 67.970681 167.702848 
L 68.333254 166.763876 
L 68.710921 165.824904 
L 69.099121 164.885932 
L 69.495561 163.94696 
L 69.897873 163.007989 
L 70.292 162.095824 
L 70.292 162.069017 
L 70.292 161.130045 
L 70.292 160.191073 
L 70.292 159.252101 
L 70.292 158.31313 
L 70.292 157.535132 
L 69.9571 158.31313 
L 69.578173 159.252101 
L 69.218764 160.191073 
L 68.871346 161.130045 
L 68.530459 162.069017 
L 68.193825 163.007989 
L 67.862389 163.94696 
L 67.539048 164.885932 
L 67.227103 165.824904 
L 66.929825 166.763876 
L 66.651507 167.702848 
L 66.397592 168.641819 
L 66.171491 169.580791 
L 65.972764 170.519763 
L 65.798363 171.458735 
L 65.643898 172.397706 
L 65.55 173.016249 
L 65.55 173.336678 
L 65.55 174.27565 
z
" style="fill:#e9f7e5;stroke:#e9f7e5;"/>
    <path clip-path="url(#pcf02f393b7)" d="M 70.639862 155.427334 
L 71.452522 155.266417 
L 71.571788 154.557243 
L 71.863927 153.618271 
L 72.196928 152.679299 
L 72.574373 151.740327 
L 72.999653 150.801355 
L 73.470447 149.862384 
L 73.974437 148.923412 
L 74.489796 147.98444 
L 75.000281 147.045468 
L 75.034 146.981883 
L 75.294615 146.106497 
L 75.639596 145.167525 
L 76.071519 144.228553 
L 76.588684 143.289581 
L 77.195735 142.350609 
L 77.898757 141.411638 
L 78.695026 140.472666 
L 79.497312 139.533694 
L 79.776 139.157996 
L 81.532833 138.594722 
L 84.221834 137.65575 
L 84.518 137.551087 
L 89.26 137.182362 
L 94.002 136.990657 
L 98.744 137.031635 
L 103.486 137.248004 
L 108.228 137.515379 
L 110.637598 137.65575 
L 112.97 137.799131 
L 117.712 138.162804 
L 122.454 138.496586 
L 123.895304 138.594722 
L 127.196 138.819884 
L 131.938 139.106502 
L 136.68 139.366615 
L 140.485354 139.533694 
L 141.422 139.574504 
L 146.164 139.747458 
L 150.906 139.875505 
L 155.648 139.942079 
L 160.39 139.962889 
L 165.132 139.938721 
L 169.874 139.870973 
L 174.616 139.759259 
L 179.358 139.618418 
L 181.835812 139.533694 
L 184.1 139.458668 
L 188.842 139.273574 
L 193.584 139.066036 
L 198.326 138.840997 
L 203.068 138.61974 
L 203.65172 138.594722 
L 207.81 138.397305 
L 212.552 138.157011 
L 217.294 137.903462 
L 222.036 137.678678 
L 222.650025 137.65575 
L 226.778 137.459371 
L 231.52 137.220016 
L 236.262 136.960459 
L 241.004 136.758489 
L 242.301433 136.716779 
L 245.746 136.568154 
L 250.488 136.350555 
L 255.23 136.099779 
L 259.972 135.900903 
L 264.294249 135.777807 
L 264.714 135.762141 
L 269.456 135.582954 
L 274.198 135.383839 
L 278.94 135.152871 
L 283.682 134.996471 
L 288.424 134.879939 
L 290.363285 134.838835 
L 293.166 134.750066 
L 297.908 134.601014 
L 302.65 134.411278 
L 307.392 134.237892 
L 312.134 134.113051 
L 316.876 134.013079 
L 321.618 133.929992 
L 323.54148 133.899863 
L 326.36 133.82565 
L 331.102 133.706641 
L 335.844 133.555874 
L 340.586 133.41443 
L 345.328 133.314205 
L 350.07 133.227253 
L 354.812 133.149583 
L 354.812 132.960892 
L 354.812 132.71974 
L 350.07 132.843499 
L 346.0724 132.960892 
L 345.328 132.970585 
L 340.586 133.029576 
L 335.844 133.099845 
L 331.102 133.178165 
L 326.36 133.250062 
L 321.618 133.327241 
L 316.876 133.415355 
L 312.134 133.521224 
L 307.392 133.654628 
L 302.65 133.820058 
L 300.500691 133.899863 
L 297.908 133.960197 
L 293.166 134.062729 
L 288.424 134.163875 
L 283.682 134.271422 
L 278.94 134.394952 
L 274.198 134.545453 
L 269.456 134.732034 
L 266.965697 134.838835 
L 264.714 134.907484 
L 259.972 135.039757 
L 255.23 135.173233 
L 250.488 135.32028 
L 245.746 135.492789 
L 241.004 135.697492 
L 239.218808 135.777807 
L 236.262 135.880039 
L 231.52 136.033533 
L 226.778 136.190061 
L 222.036 136.359479 
L 217.294 136.547261 
L 213.286134 136.716779 
L 212.552 136.74361 
L 207.81 136.89868 
L 203.068 137.045154 
L 198.326 137.186385 
L 193.584 137.322881 
L 188.842 137.452049 
L 184.1 137.56905 
L 179.921087 137.65575 
L 179.358 137.666561 
L 174.616 137.731657 
L 169.874 137.770945 
L 165.132 137.774477 
L 160.39 137.741293 
L 155.648 137.66518 
L 155.28863 137.65575 
L 150.906 137.535721 
L 146.164 137.34888 
L 141.422 137.110187 
L 136.68 136.796669 
L 135.67886 136.716779 
L 131.938 136.425087 
L 127.196 136.024441 
L 124.531717 135.777807 
L 122.454 135.575034 
L 117.712 135.142688 
L 113.713084 134.838835 
L 112.97 134.778142 
L 108.228 134.451738 
L 103.486 134.175373 
L 98.744 134.057558 
L 94.002 134.098986 
L 89.26 134.20388 
L 84.745874 134.838835 
L 84.518 134.867319 
L 82.380863 135.777807 
L 79.776 136.644643 
L 79.704725 136.716779 
L 78.976192 137.65575 
L 78.362906 138.594722 
L 77.739879 139.533694 
L 77.05288 140.472666 
L 76.395817 141.411638 
L 75.831857 142.350609 
L 75.356571 143.289581 
L 75.034 144.039413 
L 74.904751 144.228553 
L 74.315678 145.167525 
L 73.822805 146.106497 
L 73.394985 147.045468 
L 72.986892 147.98444 
L 72.585031 148.923412 
L 72.200505 149.862384 
L 71.846874 150.801355 
L 71.530464 151.740327 
L 71.250639 152.679299 
L 71.00337 153.618271 
L 70.78619 154.557243 
z
" style="fill:#e9f7e5;stroke:#e9f7e5;"/>
    <path clip-path="url(#pcf02f393b7)" d="M 354.812 126.496908 
L 354.812 126.388089 
L 354.812 125.734528 
L 350.07 125.585049 
L 346.327437 125.449117 
L 345.328 125.403089 
L 340.586 125.185275 
L 335.844 124.988313 
L 331.102 124.806678 
L 326.36 124.615861 
L 324.071401 124.510146 
L 321.618 124.369574 
L 316.876 124.117337 
L 312.134 123.891304 
L 307.392 123.654496 
L 305.898066 123.571174 
L 302.65 123.353941 
L 297.908 123.068774 
L 293.166 122.79527 
L 290.612598 122.632202 
L 288.424 122.46322 
L 283.682 122.126567 
L 278.94 121.803882 
L 277.447095 121.69323 
L 274.198 121.414231 
L 269.456 121.038537 
L 265.968082 120.754258 
L 264.714 120.632599 
L 259.972 120.197527 
L 255.729714 119.815287 
L 255.23 119.761962 
L 250.488 119.272757 
L 246.569616 118.876315 
L 245.746 118.779814 
L 241.004 118.244007 
L 238.290978 117.937343 
L 236.262 117.680236 
L 231.52 117.105781 
L 230.66612 116.998371 
L 226.778 116.470106 
L 223.70015 116.0594 
L 222.036 115.815348 
L 217.294 115.140208 
L 217.159769 115.120428 
L 212.552 114.401697 
L 211.143328 114.181456 
L 207.81 113.627271 
L 205.489823 113.242484 
L 203.068 112.816119 
L 200.150467 112.303512 
L 198.326 111.965099 
L 195.092028 111.364541 
L 193.584 111.071031 
L 190.284678 110.425569 
L 188.842 110.131972 
L 185.697937 109.486597 
L 184.1 109.147685 
L 181.300914 108.547625 
L 179.358 108.119528 
L 177.064493 107.608653 
L 174.616 107.050011 
L 172.96396 106.669682 
L 169.874 105.942195 
L 168.981122 105.73071 
L 165.132 104.798714 
L 165.103196 104.791738 
L 161.377089 103.852766 
L 160.39 103.604031 
L 157.692463 102.913795 
L 155.648 102.390981 
L 154.040618 101.974823 
L 150.906 101.163942 
L 150.413352 101.035851 
L 146.852708 100.096879 
L 146.164 99.917515 
L 143.31691 99.157907 
L 141.422 98.665324 
L 139.737668 98.218936 
L 136.68 97.427684 
L 136.105123 97.279964 
L 132.425331 96.340992 
L 131.938 96.220963 
L 128.649178 95.40202 
L 127.196 95.055832 
L 124.521638 94.463049 
L 122.454 94.022126 
L 119.872765 93.524077 
L 117.712 93.123304 
L 114.167932 92.585105 
L 112.97 92.409567 
L 108.228 92.05271 
L 103.486 92.199144 
L 100.386031 92.585105 
L 98.744 92.792062 
L 96.1526 93.524077 
L 94.002 94.18086 
L 93.541116 94.463049 
L 92.071665 95.40202 
L 90.557418 96.340992 
L 89.26 97.122292 
L 89.146119 97.279964 
L 88.410956 98.218936 
L 87.560681 99.157907 
L 86.587177 100.096879 
L 85.491163 101.035851 
L 84.518 101.840128 
L 84.472165 101.974823 
L 84.135506 102.913795 
L 83.727864 103.852766 
L 83.218754 104.791738 
L 82.587597 105.73071 
L 81.844869 106.669682 
L 81.02386 107.608653 
L 80.118293 108.547625 
L 79.776 108.860835 
L 79.109549 109.486597 
L 77.951161 110.425569 
L 76.707286 111.364541 
L 75.374327 112.303512 
L 75.034 112.550592 
L 70.292 112.946031 
L 65.55 112.556229 
L 65.55 113.242484 
L 65.55 114.181456 
L 65.55 115.120428 
L 65.55 116.0594 
L 65.55 116.975292 
L 70.292 116.332349 
L 71.461164 116.0594 
L 75.034 115.395085 
L 75.376194 115.120428 
L 76.463262 114.181456 
L 77.519883 113.242484 
L 78.609806 112.303512 
L 79.676118 111.364541 
L 79.776 111.27938 
L 80.779218 110.425569 
L 81.834869 109.486597 
L 82.737077 108.547625 
L 83.492242 107.608653 
L 84.128504 106.669682 
L 84.518 105.967683 
L 84.750192 105.73071 
L 85.639761 104.791738 
L 86.565541 103.852766 
L 87.575565 102.913795 
L 88.63877 101.974823 
L 89.26 101.40016 
L 89.823391 101.035851 
L 91.27333 100.096879 
L 92.798277 99.157907 
L 94.002 98.432765 
L 94.594409 98.218936 
L 97.087724 97.279964 
L 98.744 96.669904 
L 101.161411 96.340992 
L 103.486 96.027853 
L 108.228 96.093044 
L 110.962157 96.340992 
L 112.97 96.53723 
L 117.712 97.272737 
L 117.74858 97.279964 
L 122.399624 98.218936 
L 122.454 98.2303 
L 126.702979 99.157907 
L 127.196 99.267574 
L 130.641305 100.096879 
L 131.938 100.401292 
L 134.464326 101.035851 
L 136.68 101.570414 
L 138.24716 101.974823 
L 141.422 102.756664 
L 142.032294 102.913795 
L 145.825413 103.852766 
L 146.164 103.9342 
L 149.614287 104.791738 
L 150.906 105.097921 
L 153.498731 105.73071 
L 155.648 106.231301 
L 157.491834 106.669682 
L 160.39 107.328439 
L 161.60298 107.608653 
L 165.132 108.389052 
L 165.840523 108.547625 
L 169.874 109.412519 
L 170.217459 109.486597 
L 174.616 110.396584 
L 174.755862 110.425569 
L 179.358 111.34199 
L 179.471751 111.364541 
L 184.1 112.248201 
L 184.392998 112.303512 
L 188.842 113.114361 
L 189.557957 113.242484 
L 193.584 113.939306 
L 195.01738 114.181456 
L 198.326 114.721899 
L 200.833431 115.120428 
L 203.068 115.462228 
L 207.070439 116.0594 
L 207.81 116.1643 
L 212.552 116.837456 
L 213.736643 116.998371 
L 217.294 117.468067 
L 220.995165 117.937343 
L 222.036 118.06197 
L 226.778 118.635543 
L 228.888649 118.876315 
L 231.52 119.164102 
L 236.262 119.679036 
L 237.594765 119.815287 
L 241.004 120.151652 
L 245.746 120.6154 
L 247.266819 120.754258 
L 250.488 121.035276 
L 255.23 121.452699 
L 258.19768 121.69323 
L 259.972 121.8246 
L 264.714 122.196866 
L 269.456 122.55033 
L 270.640158 122.632202 
L 274.198 122.862091 
L 278.94 123.185819 
L 283.682 123.486768 
L 285.127454 123.571174 
L 288.424 123.743941 
L 293.166 124.021711 
L 297.908 124.289352 
L 302.334573 124.510146 
L 302.65 124.522291 
L 307.392 124.725271 
L 312.134 124.958577 
L 316.876 125.183052 
L 321.618 125.38274 
L 323.335183 125.449117 
L 326.36 125.541745 
L 331.102 125.703126 
L 335.844 125.893854 
L 340.586 126.080086 
L 345.328 126.242677 
L 350.07 126.387224 
L 350.099543 126.388089 
z
" style="fill:#e9f7e5;stroke:#e9f7e5;"/>
   </g>
   <g id="matplotlib.axis_1">
    <g id="xtick_1">
     <g id="line2d_1">
      <path clip-path="url(#pcf02f393b7)" d="M 65.55 246.2 
L 65.55 14.8 
" style="fill:none;stroke:#b0b0b0;stroke-linecap:square;stroke-width:0.8;"/>
     </g>
     <g id="line2d_2">
      <defs>
       <path d="M 0 0 
L 0 3.5 
" id="m1c053551d8" style="stroke:#000000;stroke-width:0.8;"/>
      </defs>
      <g>
       <use style="stroke:#000000;stroke-width:0.8;" x="65.55" xlink:href="#m1c053551d8" y="246.2"/>
      </g>
     </g>
     <g id="text_1">
      <!-- 0.0 -->
      <g transform="translate(57.598437 260.798437)scale(0.1 -0.1)">
       <defs>
        <path d="M 31.78125 66.40625 
Q 24.171875 66.40625 20.328125 58.90625 
Q 16.5 51.421875 16.5 36.375 
Q 16.5 21.390625 20.328125 13.890625 
Q 24.171875 6.390625 31.78125 6.390625 
Q 39.453125 6.390625 43.28125 13.890625 
Q 47.125 21.390625 47.125 36.375 
Q 47.125 51.421875 43.28125 58.90625 
Q 39.453125 66.40625 31.78125 66.40625 
z
M 31.78125 74.21875 
Q 44.046875 74.21875 50.515625 64.515625 
Q 56.984375 54.828125 56.984375 36.375 
Q 56.984375 17.96875 50.515625 8.265625 
Q 44.046875 -1.421875 31.78125 -1.421875 
Q 19.53125 -1.421875 13.0625 8.265625 
Q 6.59375 17.96875 6.59375 36.375 
Q 6.59375 54.828125 13.0625 64.515625 
Q 19.53125 74.21875 31.78125 74.21875 
z
" id="DejaVuSans-48"/>
        <path d="M 10.6875 12.40625 
L 21 12.40625 
L 21 0 
L 10.6875 0 
z
" id="DejaVuSans-46"/>
       </defs>
       <use xlink:href="#DejaVuSans-48"/>
       <use x="63.623047" xlink:href="#DejaVuSans-46"/>
       <use x="95.410156" xlink:href="#DejaVuSans-48"/>
      </g>
     </g>
    </g>
    <g id="xtick_2">
     <g id="line2d_3">
      <path clip-path="url(#pcf02f393b7)" d="M 112.97 246.2 
L 112.97 14.8 
" style="fill:none;stroke:#b0b0b0;stroke-linecap:square;stroke-width:0.8;"/>
     </g>
     <g id="line2d_4">
      <g>
       <use style="stroke:#000000;stroke-width:0.8;" x="112.97" xlink:href="#m1c053551d8" y="246.2"/>
      </g>
     </g>
     <g id="text_2">
      <!-- 0.5 -->
      <g transform="translate(105.018438 260.798437)scale(0.1 -0.1)">
       <defs>
        <path d="M 10.796875 72.90625 
L 49.515625 72.90625 
L 49.515625 64.59375 
L 19.828125 64.59375 
L 19.828125 46.734375 
Q 21.96875 47.46875 24.109375 47.828125 
Q 26.265625 48.1875 28.421875 48.1875 
Q 40.625 48.1875 47.75 41.5 
Q 54.890625 34.8125 54.890625 23.390625 
Q 54.890625 11.625 47.5625 5.09375 
Q 40.234375 -1.421875 26.90625 -1.421875 
Q 22.3125 -1.421875 17.546875 -0.640625 
Q 12.796875 0.140625 7.71875 1.703125 
L 7.71875 11.625 
Q 12.109375 9.234375 16.796875 8.0625 
Q 21.484375 6.890625 26.703125 6.890625 
Q 35.15625 6.890625 40.078125 11.328125 
Q 45.015625 15.765625 45.015625 23.390625 
Q 45.015625 31 40.078125 35.4375 
Q 35.15625 39.890625 26.703125 39.890625 
Q 22.75 39.890625 18.8125 39.015625 
Q 14.890625 38.140625 10.796875 36.28125 
z
" id="DejaVuSans-53"/>
       </defs>
       <use xlink:href="#DejaVuSans-48"/>
       <use x="63.623047" xlink:href="#DejaVuSans-46"/>
       <use x="95.410156" xlink:href="#DejaVuSans-53"/>
      </g>
     </g>
    </g>
    <g id="xtick_3">
     <g id="line2d_5">
      <path clip-path="url(#pcf02f393b7)" d="M 160.39 246.2 
L 160.39 14.8 
" style="fill:none;stroke:#b0b0b0;stroke-linecap:square;stroke-width:0.8;"/>
     </g>
     <g id="line2d_6">
      <g>
       <use style="stroke:#000000;stroke-width:0.8;" x="160.39" xlink:href="#m1c053551d8" y="246.2"/>
      </g>
     </g>
     <g id="text_3">
      <!-- 1.0 -->
      <g transform="translate(152.438437 260.798437)scale(0.1 -0.1)">
       <defs>
        <path d="M 12.40625 8.296875 
L 28.515625 8.296875 
L 28.515625 63.921875 
L 10.984375 60.40625 
L 10.984375 69.390625 
L 28.421875 72.90625 
L 38.28125 72.90625 
L 38.28125 8.296875 
L 54.390625 8.296875 
L 54.390625 0 
L 12.40625 0 
z
" id="DejaVuSans-49"/>
       </defs>
       <use xlink:href="#DejaVuSans-49"/>
       <use x="63.623047" xlink:href="#DejaVuSans-46"/>
       <use x="95.410156" xlink:href="#DejaVuSans-48"/>
      </g>
     </g>
    </g>
    <g id="xtick_4">
     <g id="line2d_7">
      <path clip-path="url(#pcf02f393b7)" d="M 207.81 246.2 
L 207.81 14.8 
" style="fill:none;stroke:#b0b0b0;stroke-linecap:square;stroke-width:0.8;"/>
     </g>
     <g id="line2d_8">
      <g>
       <use style="stroke:#000000;stroke-width:0.8;" x="207.81" xlink:href="#m1c053551d8" y="246.2"/>
      </g>
     </g>
     <g id="text_4">
      <!-- 1.5 -->
      <g transform="translate(199.858438 260.798437)scale(0.1 -0.1)">
       <use xlink:href="#DejaVuSans-49"/>
       <use x="63.623047" xlink:href="#DejaVuSans-46"/>
       <use x="95.410156" xlink:href="#DejaVuSans-53"/>
      </g>
     </g>
    </g>
    <g id="xtick_5">
     <g id="line2d_9">
      <path clip-path="url(#pcf02f393b7)" d="M 255.23 246.2 
L 255.23 14.8 
" style="fill:none;stroke:#b0b0b0;stroke-linecap:square;stroke-width:0.8;"/>
     </g>
     <g id="line2d_10">
      <g>
       <use style="stroke:#000000;stroke-width:0.8;" x="255.23" xlink:href="#m1c053551d8" y="246.2"/>
      </g>
     </g>
     <g id="text_5">
      <!-- 2.0 -->
      <g transform="translate(247.278437 260.798437)scale(0.1 -0.1)">
       <defs>
        <path d="M 19.1875 8.296875 
L 53.609375 8.296875 
L 53.609375 0 
L 7.328125 0 
L 7.328125 8.296875 
Q 12.9375 14.109375 22.625 23.890625 
Q 32.328125 33.6875 34.8125 36.53125 
Q 39.546875 41.84375 41.421875 45.53125 
Q 43.3125 49.21875 43.3125 52.78125 
Q 43.3125 58.59375 39.234375 62.25 
Q 35.15625 65.921875 28.609375 65.921875 
Q 23.96875 65.921875 18.8125 64.3125 
Q 13.671875 62.703125 7.8125 59.421875 
L 7.8125 69.390625 
Q 13.765625 71.78125 18.9375 73 
Q 24.125 74.21875 28.421875 74.21875 
Q 39.75 74.21875 46.484375 68.546875 
Q 53.21875 62.890625 53.21875 53.421875 
Q 53.21875 48.921875 51.53125 44.890625 
Q 49.859375 40.875 45.40625 35.40625 
Q 44.1875 33.984375 37.640625 27.21875 
Q 31.109375 20.453125 19.1875 8.296875 
z
" id="DejaVuSans-50"/>
       </defs>
       <use xlink:href="#DejaVuSans-50"/>
       <use x="63.623047" xlink:href="#DejaVuSans-46"/>
       <use x="95.410156" xlink:href="#DejaVuSans-48"/>
      </g>
     </g>
    </g>
    <g id="xtick_6">
     <g id="line2d_11">
      <path clip-path="url(#pcf02f393b7)" d="M 302.65 246.2 
L 302.65 14.8 
" style="fill:none;stroke:#b0b0b0;stroke-linecap:square;stroke-width:0.8;"/>
     </g>
     <g id="line2d_12">
      <g>
       <use style="stroke:#000000;stroke-width:0.8;" x="302.65" xlink:href="#m1c053551d8" y="246.2"/>
      </g>
     </g>
     <g id="text_6">
      <!-- 2.5 -->
      <g transform="translate(294.698437 260.798437)scale(0.1 -0.1)">
       <use xlink:href="#DejaVuSans-50"/>
       <use x="63.623047" xlink:href="#DejaVuSans-46"/>
       <use x="95.410156" xlink:href="#DejaVuSans-53"/>
      </g>
     </g>
    </g>
    <g id="xtick_7">
     <g id="line2d_13">
      <path clip-path="url(#pcf02f393b7)" d="M 350.07 246.2 
L 350.07 14.8 
" style="fill:none;stroke:#b0b0b0;stroke-linecap:square;stroke-width:0.8;"/>
     </g>
     <g id="line2d_14">
      <g>
       <use style="stroke:#000000;stroke-width:0.8;" x="350.07" xlink:href="#m1c053551d8" y="246.2"/>
      </g>
     </g>
     <g id="text_7">
      <!-- 3.0 -->
      <g transform="translate(342.118437 260.798437)scale(0.1 -0.1)">
       <defs>
        <path d="M 40.578125 39.3125 
Q 47.65625 37.796875 51.625 33 
Q 55.609375 28.21875 55.609375 21.1875 
Q 55.609375 10.40625 48.1875 4.484375 
Q 40.765625 -1.421875 27.09375 -1.421875 
Q 22.515625 -1.421875 17.65625 -0.515625 
Q 12.796875 0.390625 7.625 2.203125 
L 7.625 11.71875 
Q 11.71875 9.328125 16.59375 8.109375 
Q 21.484375 6.890625 26.8125 6.890625 
Q 36.078125 6.890625 40.9375 10.546875 
Q 45.796875 14.203125 45.796875 21.1875 
Q 45.796875 27.640625 41.28125 31.265625 
Q 36.765625 34.90625 28.71875 34.90625 
L 20.21875 34.90625 
L 20.21875 43.015625 
L 29.109375 43.015625 
Q 36.375 43.015625 40.234375 45.921875 
Q 44.09375 48.828125 44.09375 54.296875 
Q 44.09375 59.90625 40.109375 62.90625 
Q 36.140625 65.921875 28.71875 65.921875 
Q 24.65625 65.921875 20.015625 65.03125 
Q 15.375 64.15625 9.8125 62.3125 
L 9.8125 71.09375 
Q 15.4375 72.65625 20.34375 73.4375 
Q 25.25 74.21875 29.59375 74.21875 
Q 40.828125 74.21875 47.359375 69.109375 
Q 53.90625 64.015625 53.90625 55.328125 
Q 53.90625 49.265625 50.4375 45.09375 
Q 46.96875 40.921875 40.578125 39.3125 
z
" id="DejaVuSans-51"/>
       </defs>
       <use xlink:href="#DejaVuSans-51"/>
       <use x="63.623047" xlink:href="#DejaVuSans-46"/>
       <use x="95.410156" xlink:href="#DejaVuSans-48"/>
      </g>
     </g>
    </g>
    <g id="text_8">
     <!-- $z$ -->
     <g transform="translate(205.16 274.476562)scale(0.1 -0.1)">
      <defs>
       <path d="M 11.625 54.6875 
L 54.296875 54.6875 
L 52.6875 46.484375 
L 11.53125 7.171875 
L 45.515625 7.171875 
L 44.09375 0 
L -0.296875 0 
L 1.3125 8.203125 
L 42.484375 47.515625 
L 10.203125 47.515625 
z
" id="DejaVuSans-Oblique-122"/>
      </defs>
      <use transform="translate(0 0.3125)" xlink:href="#DejaVuSans-Oblique-122"/>
     </g>
    </g>
   </g>
   <g id="matplotlib.axis_2">
    <g id="ytick_1">
     <g id="line2d_15">
      <path clip-path="url(#pcf02f393b7)" d="M 65.55 246.2 
L 350.07 246.2 
" style="fill:none;stroke:#b0b0b0;stroke-linecap:square;stroke-width:0.8;"/>
     </g>
     <g id="line2d_16">
      <defs>
       <path d="M 0 0 
L -3.5 0 
" id="me2578aca26" style="stroke:#000000;stroke-width:0.8;"/>
      </defs>
      <g>
       <use style="stroke:#000000;stroke-width:0.8;" x="65.55" xlink:href="#me2578aca26" y="246.2"/>
      </g>
     </g>
     <g id="text_9">
      <!-- 2.00 -->
      <g transform="translate(27.904687 249.999219)scale(0.1 -0.1)">
       <defs>
        <path d="M 10.59375 35.5 
L 73.1875 35.5 
L 73.1875 27.203125 
L 10.59375 27.203125 
z
" id="DejaVuSans-8722"/>
       </defs>
       <use xlink:href="#DejaVuSans-8722"/>
       <use x="83.789062" xlink:href="#DejaVuSans-50"/>
       <use x="147.412109" xlink:href="#DejaVuSans-46"/>
       <use x="179.199219" xlink:href="#DejaVuSans-48"/>
       <use x="242.822266" xlink:href="#DejaVuSans-48"/>
      </g>
     </g>
    </g>
    <g id="ytick_2">
     <g id="line2d_17">
      <path clip-path="url(#pcf02f393b7)" d="M 65.55 217.275 
L 350.07 217.275 
" style="fill:none;stroke:#b0b0b0;stroke-linecap:square;stroke-width:0.8;"/>
     </g>
     <g id="line2d_18">
      <g>
       <use style="stroke:#000000;stroke-width:0.8;" x="65.55" xlink:href="#me2578aca26" y="217.275"/>
      </g>
     </g>
     <g id="text_10">
      <!-- 1.75 -->
      <g transform="translate(27.904687 221.074219)scale(0.1 -0.1)">
       <defs>
        <path d="M 8.203125 72.90625 
L 55.078125 72.90625 
L 55.078125 68.703125 
L 28.609375 0 
L 18.3125 0 
L 43.21875 64.59375 
L 8.203125 64.59375 
z
" id="DejaVuSans-55"/>
       </defs>
       <use xlink:href="#DejaVuSans-8722"/>
       <use x="83.789062" xlink:href="#DejaVuSans-49"/>
       <use x="147.412109" xlink:href="#DejaVuSans-46"/>
       <use x="179.199219" xlink:href="#DejaVuSans-55"/>
       <use x="242.822266" xlink:href="#DejaVuSans-53"/>
      </g>
     </g>
    </g>
    <g id="ytick_3">
     <g id="line2d_19">
      <path clip-path="url(#pcf02f393b7)" d="M 65.55 188.35 
L 350.07 188.35 
" style="fill:none;stroke:#b0b0b0;stroke-linecap:square;stroke-width:0.8;"/>
     </g>
     <g id="line2d_20">
      <g>
       <use style="stroke:#000000;stroke-width:0.8;" x="65.55" xlink:href="#me2578aca26" y="188.35"/>
      </g>
     </g>
     <g id="text_11">
      <!-- 1.50 -->
      <g transform="translate(27.904687 192.149219)scale(0.1 -0.1)">
       <use xlink:href="#DejaVuSans-8722"/>
       <use x="83.789062" xlink:href="#DejaVuSans-49"/>
       <use x="147.412109" xlink:href="#DejaVuSans-46"/>
       <use x="179.199219" xlink:href="#DejaVuSans-53"/>
       <use x="242.822266" xlink:href="#DejaVuSans-48"/>
      </g>
     </g>
    </g>
    <g id="ytick_4">
     <g id="line2d_21">
      <path clip-path="url(#pcf02f393b7)" d="M 65.55 159.425 
L 350.07 159.425 
" style="fill:none;stroke:#b0b0b0;stroke-linecap:square;stroke-width:0.8;"/>
     </g>
     <g id="line2d_22">
      <g>
       <use style="stroke:#000000;stroke-width:0.8;" x="65.55" xlink:href="#me2578aca26" y="159.425"/>
      </g>
     </g>
     <g id="text_12">
      <!-- 1.25 -->
      <g transform="translate(27.904687 163.224219)scale(0.1 -0.1)">
       <use xlink:href="#DejaVuSans-8722"/>
       <use x="83.789062" xlink:href="#DejaVuSans-49"/>
       <use x="147.412109" xlink:href="#DejaVuSans-46"/>
       <use x="179.199219" xlink:href="#DejaVuSans-50"/>
       <use x="242.822266" xlink:href="#DejaVuSans-53"/>
      </g>
     </g>
    </g>
    <g id="ytick_5">
     <g id="line2d_23">
      <path clip-path="url(#pcf02f393b7)" d="M 65.55 130.5 
L 350.07 130.5 
" style="fill:none;stroke:#b0b0b0;stroke-linecap:square;stroke-width:0.8;"/>
     </g>
     <g id="line2d_24">
      <g>
       <use style="stroke:#000000;stroke-width:0.8;" x="65.55" xlink:href="#me2578aca26" y="130.5"/>
      </g>
     </g>
     <g id="text_13">
      <!-- 1.00 -->
      <g transform="translate(27.904687 134.299219)scale(0.1 -0.1)">
       <use xlink:href="#DejaVuSans-8722"/>
       <use x="83.789062" xlink:href="#DejaVuSans-49"/>
       <use x="147.412109" xlink:href="#DejaVuSans-46"/>
       <use x="179.199219" xlink:href="#DejaVuSans-48"/>
       <use x="242.822266" xlink:href="#DejaVuSans-48"/>
      </g>
     </g>
    </g>
    <g id="ytick_6">
     <g id="line2d_25">
      <path clip-path="url(#pcf02f393b7)" d="M 65.55 101.575 
L 350.07 101.575 
" style="fill:none;stroke:#b0b0b0;stroke-linecap:square;stroke-width:0.8;"/>
     </g>
     <g id="line2d_26">
      <g>
       <use style="stroke:#000000;stroke-width:0.8;" x="65.55" xlink:href="#me2578aca26" y="101.575"/>
      </g>
     </g>
     <g id="text_14">
      <!-- 0.75 -->
      <g transform="translate(27.904687 105.374219)scale(0.1 -0.1)">
       <use xlink:href="#DejaVuSans-8722"/>
       <use x="83.789062" xlink:href="#DejaVuSans-48"/>
       <use x="147.412109" xlink:href="#DejaVuSans-46"/>
       <use x="179.199219" xlink:href="#DejaVuSans-55"/>
       <use x="242.822266" xlink:href="#DejaVuSans-53"/>
      </g>
     </g>
    </g>
    <g id="ytick_7">
     <g id="line2d_27">
      <path clip-path="url(#pcf02f393b7)" d="M 65.55 72.65 
L 350.07 72.65 
" style="fill:none;stroke:#b0b0b0;stroke-linecap:square;stroke-width:0.8;"/>
     </g>
     <g id="line2d_28">
      <g>
       <use style="stroke:#000000;stroke-width:0.8;" x="65.55" xlink:href="#me2578aca26" y="72.65"/>
      </g>
     </g>
     <g id="text_15">
      <!-- 0.50 -->
      <g transform="translate(27.904687 76.449219)scale(0.1 -0.1)">
       <use xlink:href="#DejaVuSans-8722"/>
       <use x="83.789062" xlink:href="#DejaVuSans-48"/>
       <use x="147.412109" xlink:href="#DejaVuSans-46"/>
       <use x="179.199219" xlink:href="#DejaVuSans-53"/>
       <use x="242.822266" xlink:href="#DejaVuSans-48"/>
      </g>
     </g>
    </g>
    <g id="ytick_8">
     <g id="line2d_29">
      <path clip-path="url(#pcf02f393b7)" d="M 65.55 43.725 
L 350.07 43.725 
" style="fill:none;stroke:#b0b0b0;stroke-linecap:square;stroke-width:0.8;"/>
     </g>
     <g id="line2d_30">
      <g>
       <use style="stroke:#000000;stroke-width:0.8;" x="65.55" xlink:href="#me2578aca26" y="43.725"/>
      </g>
     </g>
     <g id="text_16">
      <!-- 0.25 -->
      <g transform="translate(27.904687 47.524219)scale(0.1 -0.1)">
       <use xlink:href="#DejaVuSans-8722"/>
       <use x="83.789062" xlink:href="#DejaVuSans-48"/>
       <use x="147.412109" xlink:href="#DejaVuSans-46"/>
       <use x="179.199219" xlink:href="#DejaVuSans-50"/>
       <use x="242.822266" xlink:href="#DejaVuSans-53"/>
      </g>
     </g>
    </g>
    <g id="ytick_9">
     <g id="line2d_31">
      <path clip-path="url(#pcf02f393b7)" d="M 65.55 14.8 
L 350.07 14.8 
" style="fill:none;stroke:#b0b0b0;stroke-linecap:square;stroke-width:0.8;"/>
     </g>
     <g id="line2d_32">
      <g>
       <use style="stroke:#000000;stroke-width:0.8;" x="65.55" xlink:href="#me2578aca26" y="14.8"/>
      </g>
     </g>
     <g id="text_17">
      <!-- 0.00 -->
      <g transform="translate(36.284375 18.599219)scale(0.1 -0.1)">
       <use xlink:href="#DejaVuSans-48"/>
       <use x="63.623047" xlink:href="#DejaVuSans-46"/>
       <use x="95.410156" xlink:href="#DejaVuSans-48"/>
       <use x="159.033203" xlink:href="#DejaVuSans-48"/>
      </g>
     </g>
    </g>
    <g id="text_18">
     <!-- $\omega(z)$ -->
     <g transform="translate(21.825 141.25)rotate(-90)scale(0.1 -0.1)">
      <defs>
       <path d="M 21.390625 -1.421875 
Q 1.125 -1.421875 6.78125 27.59375 
Q 8.984375 39.0625 19.625 54.6875 
L 29.296875 54.6875 
Q 19.234375 39.0625 17 27.34375 
Q 12.796875 6.203125 23.734375 6.203125 
Q 33.84375 6.203125 38.71875 32.46875 
L 47.015625 32.46875 
Q 41.703125 6.0625 51.8125 6.203125 
Q 62.703125 6.296875 66.796875 27.34375 
Q 69.046875 39.0625 65.140625 54.6875 
L 74.8125 54.6875 
Q 79.296875 39.0625 77.09375 27.59375 
Q 71.53125 -1.46875 51.21875 -1.421875 
Q 37.9375 -1.375 39.109375 13.1875 
Q 34.28125 -1.421875 21.390625 -1.421875 
z
" id="DejaVuSans-Oblique-969"/>
       <path d="M 31 75.875 
Q 24.46875 64.65625 21.28125 53.65625 
Q 18.109375 42.671875 18.109375 31.390625 
Q 18.109375 20.125 21.3125 9.0625 
Q 24.515625 -2 31 -13.1875 
L 23.1875 -13.1875 
Q 15.875 -1.703125 12.234375 9.375 
Q 8.59375 20.453125 8.59375 31.390625 
Q 8.59375 42.28125 12.203125 53.3125 
Q 15.828125 64.359375 23.1875 75.875 
z
" id="DejaVuSans-40"/>
       <path d="M 8.015625 75.875 
L 15.828125 75.875 
Q 23.140625 64.359375 26.78125 53.3125 
Q 30.421875 42.28125 30.421875 31.390625 
Q 30.421875 20.453125 26.78125 9.375 
Q 23.140625 -1.703125 15.828125 -13.1875 
L 8.015625 -13.1875 
Q 14.5 -2 17.703125 9.0625 
Q 20.90625 20.125 20.90625 31.390625 
Q 20.90625 42.671875 17.703125 53.65625 
Q 14.5 64.65625 8.015625 75.875 
z
" id="DejaVuSans-41"/>
      </defs>
      <use transform="translate(0 0.125)" xlink:href="#DejaVuSans-Oblique-969"/>
      <use transform="translate(83.740234 0.125)" xlink:href="#DejaVuSans-40"/>
      <use transform="translate(122.753906 0.125)" xlink:href="#DejaVuSans-Oblique-122"/>
      <use transform="translate(175.244141 0.125)" xlink:href="#DejaVuSans-41"/>
     </g>
    </g>
   </g>
   <g id="LineCollection_1">
    <path clip-path="url(#pcf02f393b7)" d="M 354.812 131.070476 
L 350.07 131.082771 
L 350.003757 131.082948 
L 345.328 131.105856 
L 340.586 131.130036 
L 335.844 131.155711 
L 331.102 131.182572 
L 326.36 131.210456 
L 321.618 131.239908 
L 316.876 131.270414 
L 312.134 131.301831 
L 307.392 131.334523 
L 302.65 131.368119 
L 297.908 131.402384 
L 293.166 131.437367 
L 288.424 131.473208 
L 283.682 131.509475 
L 278.94 131.546128 
L 274.198 131.583199 
L 269.456 131.620824 
L 264.714 131.658713 
L 259.972 131.696863 
L 255.23 131.735271 
L 250.488 131.773927 
L 245.746 131.812842 
L 241.004 131.851844 
L 236.262 131.890831 
L 231.52 131.929663 
L 226.778 131.968137 
L 222.036 132.005976 
L 219.965894 132.02192 
L 217.294 132.049291 
L 212.552 132.095007 
L 207.81 132.137014 
L 203.068 132.174112 
L 198.326 132.20487 
L 193.584 132.227522 
L 188.842 132.239834 
L 184.1 132.238927 
L 179.358 132.221015 
L 174.616 132.180981 
L 169.874 132.111678 
L 166.070469 132.02192 
L 165.132 132.004504 
L 160.39 131.884677 
L 155.648 131.727855 
L 150.906 131.503326 
L 146.164 131.156892 
L 145.214817 131.082948 
L 141.422 130.85915 
L 136.68 130.493892 
L 132.57617 130.143976 
L 131.938 130.091183 
L 127.196 129.679356 
L 122.955953 129.205004 
L 122.454 129.141202 
L 117.712 128.590496 
L 114.550431 128.266033 
L 112.97 128.086597 
L 108.228 127.607359 
L 104.868546 127.327061 
L 103.486 127.21398 
L 98.744 126.90909 
L 94.002 126.697085 
L 89.26 126.678727 
L 87.249384 127.327061 
L 84.518 128.082988 
L 84.159146 128.266033 
L 82.484749 129.205004 
L 81.171318 130.143976 
L 80.135051 131.082948 
L 79.776 131.424794 
L 79.277067 132.02192 
L 78.351558 132.960892 
L 77.377547 133.899863 
L 76.45927 134.838835 
L 75.794777 135.777807 
L 75.379277 136.716779 
L 75.034 137.634143 
L 75.020007 137.65575 
L 74.31362 138.594722 
L 73.559075 139.533694 
L 72.848133 140.472666 
L 72.262021 141.411638 
L 71.775208 142.350609 
L 71.354752 143.289581 
L 70.990367 144.228553 
L 70.679309 145.167525 
L 70.41495 146.106497 
L 70.292 146.593266 
L 70.11615 147.045468 
L 69.676299 147.98444 
L 69.234379 148.923412 
L 68.80123 149.862384 
L 68.377841 150.801355 
L 67.968443 151.740327 
L 67.577387 152.679299 
L 67.209418 153.618271 
L 66.871073 154.557243 
L 66.567178 155.496214 
L 66.294963 156.435186 
L 66.047334 157.374158 
L 65.817559 158.31313 
L 65.600105 159.252101 
L 65.55 159.46999 
" style="fill:none;stroke:#000000;stroke-width:2;"/>
    <path clip-path="url(#pcf02f393b7)" d="M 65.55 129.032633 
L 66.19938 128.266033 
L 67.099738 127.327061 
L 68.108805 126.388089 
L 69.366177 125.449117 
L 70.292 124.925281 
L 70.7311 124.510146 
L 71.746688 123.571174 
L 72.851533 122.632202 
L 75.034 121.710155 
L 75.060324 121.69323 
L 75.942052 120.754258 
L 76.680802 119.815287 
L 77.530345 118.876315 
L 78.65731 117.937343 
L 79.776 117.397759 
L 80.505772 116.998371 
L 81.382007 116.0594 
L 82.305818 115.120428 
L 83.245436 114.181456 
L 84.120178 113.242484 
L 84.518 112.828258 
L 85.383157 112.303512 
L 86.738159 111.364541 
L 87.889494 110.425569 
L 88.937166 109.486597 
L 89.26 109.193579 
L 91.339648 108.547625 
L 93.655008 107.608653 
L 94.002 107.426776 
L 98.18349 106.669682 
L 98.744 106.559126 
L 103.486 106.346031 
L 108.228 106.612432 
L 108.731934 106.669682 
L 112.97 107.135597 
L 116.117058 107.608653 
L 117.712 107.860316 
L 121.449942 108.547625 
L 122.454 108.745275 
L 126.330284 109.486597 
L 127.196 109.669077 
L 131.324673 110.425569 
L 131.938 110.549663 
L 136.417913 111.364541 
L 136.68 111.414172 
L 141.36648 112.303512 
L 141.422 112.313969 
L 146.164 113.208216 
L 146.352929 113.242484 
L 150.906 114.060269 
L 151.619076 114.181456 
L 155.648 114.855941 
L 157.329339 115.120428 
L 160.39 115.593541 
L 163.606994 116.0594 
L 165.132 116.276275 
L 169.874 116.918264 
L 170.482412 116.998371 
L 174.616 117.538102 
L 177.904504 117.937343 
L 179.358 118.112798 
L 184.1 118.670741 
L 185.945846 118.876315 
L 188.842 119.201927 
L 193.584 119.701375 
L 194.706941 119.815287 
L 198.326 120.191746 
L 203.068 120.643941 
L 204.276195 120.754258 
L 207.81 121.090089 
L 212.552 121.505433 
L 214.86949 121.69323 
L 217.294 121.900103 
L 222.036 122.287323 
L 226.778 122.624218 
L 226.892002 122.632202 
L 231.52 122.986456 
L 236.262 123.311605 
L 240.597735 123.571174 
L 241.004 123.597808 
L 245.746 123.913865 
L 250.488 124.196089 
L 255.23 124.43877 
L 256.694731 124.510146 
L 259.972 124.697285 
L 264.714 124.953411 
L 269.456 125.177406 
L 274.198 125.370759 
L 276.236852 125.449117 
L 278.94 125.57855 
L 283.682 125.798649 
L 288.424 125.992767 
L 293.166 126.158695 
L 297.908 126.302046 
L 300.920505 126.388089 
L 302.65 126.454691 
L 307.392 126.640434 
L 312.134 126.80814 
L 316.876 126.949718 
L 321.618 127.070977 
L 326.36 127.178433 
L 331.102 127.274323 
L 333.864548 127.327061 
L 335.844 127.385082 
L 340.586 127.529041 
L 345.328 127.661628 
L 350.07 127.77756 
L 354.812 127.875808 
" style="fill:none;stroke:#000000;stroke-width:2;"/>
   </g>
   <g id="LineCollection_2">
    <path clip-path="url(#pcf02f393b7)" d="M 70.292 157.535132 
L 69.9571 158.31313 
L 69.578173 159.252101 
L 69.218764 160.191073 
L 68.871346 161.130045 
L 68.530459 162.069017 
L 68.193825 163.007989 
L 67.862389 163.94696 
L 67.539048 164.885932 
L 67.227103 165.824904 
L 66.929825 166.763876 
L 66.651507 167.702848 
L 66.397592 168.641819 
L 66.171491 169.580791 
L 65.972764 170.519763 
L 65.798363 171.458735 
L 65.643898 172.397706 
L 65.55 173.016249 
" style="fill:none;stroke:#000000;stroke-width:1.5;"/>
    <path clip-path="url(#pcf02f393b7)" d="M 354.812 132.71974 
L 350.07 132.843499 
L 346.0724 132.960892 
L 345.328 132.970585 
L 340.586 133.029576 
L 335.844 133.099845 
L 331.102 133.178165 
L 326.36 133.250062 
L 321.618 133.327241 
L 316.876 133.415355 
L 312.134 133.521224 
L 307.392 133.654628 
L 302.65 133.820058 
L 300.500691 133.899863 
L 297.908 133.960197 
L 293.166 134.062729 
L 288.424 134.163875 
L 283.682 134.271422 
L 278.94 134.394952 
L 274.198 134.545453 
L 269.456 134.732034 
L 266.965697 134.838835 
L 264.714 134.907484 
L 259.972 135.039757 
L 255.23 135.173233 
L 250.488 135.32028 
L 245.746 135.492789 
L 241.004 135.697492 
L 239.218808 135.777807 
L 236.262 135.880039 
L 231.52 136.033533 
L 226.778 136.190061 
L 222.036 136.359479 
L 217.294 136.547261 
L 213.286134 136.716779 
L 212.552 136.74361 
L 207.81 136.89868 
L 203.068 137.045154 
L 198.326 137.186385 
L 193.584 137.322881 
L 188.842 137.452049 
L 184.1 137.56905 
L 179.921087 137.65575 
L 179.358 137.666561 
L 174.616 137.731657 
L 169.874 137.770945 
L 165.132 137.774477 
L 160.39 137.741293 
L 155.648 137.66518 
L 155.28863 137.65575 
L 150.906 137.535721 
L 146.164 137.34888 
L 141.422 137.110187 
L 136.68 136.796669 
L 135.67886 136.716779 
L 131.938 136.425087 
L 127.196 136.024441 
L 124.531717 135.777807 
L 122.454 135.575034 
L 117.712 135.142688 
L 113.713084 134.838835 
L 112.97 134.778142 
L 108.228 134.451738 
L 103.486 134.175373 
L 98.744 134.057558 
L 94.002 134.098986 
L 89.26 134.20388 
L 84.745874 134.838835 
L 84.518 134.867319 
L 82.380863 135.777807 
L 79.776 136.644643 
L 79.704725 136.716779 
L 78.976192 137.65575 
L 78.362906 138.594722 
L 77.739879 139.533694 
L 77.05288 140.472666 
L 76.395817 141.411638 
L 75.831857 142.350609 
L 75.356571 143.289581 
L 75.034 144.039413 
L 74.904751 144.228553 
L 74.315678 145.167525 
L 73.822805 146.106497 
L 73.394985 147.045468 
L 72.986892 147.98444 
L 72.585031 148.923412 
L 72.200505 149.862384 
L 71.846874 150.801355 
L 71.530464 151.740327 
L 71.250639 152.679299 
L 71.00337 153.618271 
L 70.78619 154.557243 
L 70.639862 155.427334 
" style="fill:none;stroke:#000000;stroke-width:1.5;"/>
    <path clip-path="url(#pcf02f393b7)" d="M 65.55 116.975292 
L 70.292 116.332349 
L 71.461164 116.0594 
L 75.034 115.395085 
L 75.376194 115.120428 
L 76.463262 114.181456 
L 77.519883 113.242484 
L 78.609806 112.303512 
L 79.676118 111.364541 
L 79.776 111.27938 
L 80.779218 110.425569 
L 81.834869 109.486597 
L 82.737077 108.547625 
L 83.492242 107.608653 
L 84.128504 106.669682 
L 84.518 105.967683 
L 84.750192 105.73071 
L 85.639761 104.791738 
L 86.565541 103.852766 
L 87.575565 102.913795 
L 88.63877 101.974823 
L 89.26 101.40016 
L 89.823391 101.035851 
L 91.27333 100.096879 
L 92.798277 99.157907 
L 94.002 98.432765 
L 94.594409 98.218936 
L 97.087724 97.279964 
L 98.744 96.669904 
L 101.161411 96.340992 
L 103.486 96.027853 
L 108.228 96.093044 
L 110.962157 96.340992 
L 112.97 96.53723 
L 117.712 97.272737 
L 117.74858 97.279964 
L 122.399624 98.218936 
L 122.454 98.2303 
L 126.702979 99.157907 
L 127.196 99.267574 
L 130.641305 100.096879 
L 131.938 100.401292 
L 134.464326 101.035851 
L 136.68 101.570414 
L 138.24716 101.974823 
L 141.422 102.756664 
L 142.032294 102.913795 
L 145.825413 103.852766 
L 146.164 103.9342 
L 149.614287 104.791738 
L 150.906 105.097921 
L 153.498731 105.73071 
L 155.648 106.231301 
L 157.491834 106.669682 
L 160.39 107.328439 
L 161.60298 107.608653 
L 165.132 108.389052 
L 165.840523 108.547625 
L 169.874 109.412519 
L 170.217459 109.486597 
L 174.616 110.396584 
L 174.755862 110.425569 
L 179.358 111.34199 
L 179.471751 111.364541 
L 184.1 112.248201 
L 184.392998 112.303512 
L 188.842 113.114361 
L 189.557957 113.242484 
L 193.584 113.939306 
L 195.01738 114.181456 
L 198.326 114.721899 
L 200.833431 115.120428 
L 203.068 115.462228 
L 207.070439 116.0594 
L 207.81 116.1643 
L 212.552 116.837456 
L 213.736643 116.998371 
L 217.294 117.468067 
L 220.995165 117.937343 
L 222.036 118.06197 
L 226.778 118.635543 
L 228.888649 118.876315 
L 231.52 119.164102 
L 236.262 119.679036 
L 237.594765 119.815287 
L 241.004 120.151652 
L 245.746 120.6154 
L 247.266819 120.754258 
L 250.488 121.035276 
L 255.23 121.452699 
L 258.19768 121.69323 
L 259.972 121.8246 
L 264.714 122.196866 
L 269.456 122.55033 
L 270.640158 122.632202 
L 274.198 122.862091 
L 278.94 123.185819 
L 283.682 123.486768 
L 285.127454 123.571174 
L 288.424 123.743941 
L 293.166 124.021711 
L 297.908 124.289352 
L 302.334573 124.510146 
L 302.65 124.522291 
L 307.392 124.725271 
L 312.134 124.958577 
L 316.876 125.183052 
L 321.618 125.38274 
L 323.335183 125.449117 
L 326.36 125.541745 
L 331.102 125.703126 
L 335.844 125.893854 
L 340.586 126.080086 
L 345.328 126.242677 
L 350.07 126.387224 
L 350.099543 126.388089 
L 354.812 126.496908 
" style="fill:none;stroke:#000000;stroke-width:1.5;"/>
   </g>
   <g id="LineCollection_3">
    <path clip-path="url(#pcf02f393b7)" d="M 65.55 130.5 
L 350.07 130.5 
" style="fill:none;stroke:#0000ff;stroke-dasharray:14.8,6.4;stroke-dashoffset:0;stroke-width:4;"/>
   </g>
   <g id="patch_3">
    <path d="M 65.55 246.2 
L 65.55 14.8 
" style="fill:none;stroke:#000000;stroke-linecap:square;stroke-linejoin:miter;stroke-width:0.8;"/>
   </g>
   <g id="patch_4">
    <path d="M 350.07 246.2 
L 350.07 14.8 
" style="fill:none;stroke:#000000;stroke-linecap:square;stroke-linejoin:miter;stroke-width:0.8;"/>
   </g>
   <g id="patch_5">
    <path d="M 65.55 246.2 
L 350.07 246.2 
" style="fill:none;stroke:#000000;stroke-linecap:square;stroke-linejoin:miter;stroke-width:0.8;"/>
   </g>
   <g id="patch_6">
    <path d="M 65.55 14.8 
L 350.07 14.8 
" style="fill:none;stroke:#000000;stroke-linecap:square;stroke-linejoin:miter;stroke-width:0.8;"/>
   </g>
   <g id="text_19">
    <!-- BAO+HD+SN -->
    <g transform="translate(66.4984 211.49)scale(0.13 -0.13)">
     <defs>
      <path d="M 19.671875 34.8125 
L 19.671875 8.109375 
L 35.5 8.109375 
Q 43.453125 8.109375 47.28125 11.40625 
Q 51.125 14.703125 51.125 21.484375 
Q 51.125 28.328125 47.28125 31.5625 
Q 43.453125 34.8125 35.5 34.8125 
z
M 19.671875 64.796875 
L 19.671875 42.828125 
L 34.28125 42.828125 
Q 41.5 42.828125 45.03125 45.53125 
Q 48.578125 48.25 48.578125 53.8125 
Q 48.578125 59.328125 45.03125 62.0625 
Q 41.5 64.796875 34.28125 64.796875 
z
M 9.8125 72.90625 
L 35.015625 72.90625 
Q 46.296875 72.90625 52.390625 68.21875 
Q 58.5 63.53125 58.5 54.890625 
Q 58.5 48.1875 55.375 44.234375 
Q 52.25 40.28125 46.1875 39.3125 
Q 53.46875 37.75 57.5 32.78125 
Q 61.53125 27.828125 61.53125 20.40625 
Q 61.53125 10.640625 54.890625 5.3125 
Q 48.25 0 35.984375 0 
L 9.8125 0 
z
" id="DejaVuSans-66"/>
      <path d="M 34.1875 63.1875 
L 20.796875 26.90625 
L 47.609375 26.90625 
z
M 28.609375 72.90625 
L 39.796875 72.90625 
L 67.578125 0 
L 57.328125 0 
L 50.6875 18.703125 
L 17.828125 18.703125 
L 11.1875 0 
L 0.78125 0 
z
" id="DejaVuSans-65"/>
      <path d="M 39.40625 66.21875 
Q 28.65625 66.21875 22.328125 58.203125 
Q 16.015625 50.203125 16.015625 36.375 
Q 16.015625 22.609375 22.328125 14.59375 
Q 28.65625 6.59375 39.40625 6.59375 
Q 50.140625 6.59375 56.421875 14.59375 
Q 62.703125 22.609375 62.703125 36.375 
Q 62.703125 50.203125 56.421875 58.203125 
Q 50.140625 66.21875 39.40625 66.21875 
z
M 39.40625 74.21875 
Q 54.734375 74.21875 63.90625 63.9375 
Q 73.09375 53.65625 73.09375 36.375 
Q 73.09375 19.140625 63.90625 8.859375 
Q 54.734375 -1.421875 39.40625 -1.421875 
Q 24.03125 -1.421875 14.8125 8.828125 
Q 5.609375 19.09375 5.609375 36.375 
Q 5.609375 53.65625 14.8125 63.9375 
Q 24.03125 74.21875 39.40625 74.21875 
z
" id="DejaVuSans-79"/>
      <path d="M 46 62.703125 
L 46 35.5 
L 73.1875 35.5 
L 73.1875 27.203125 
L 46 27.203125 
L 46 0 
L 37.796875 0 
L 37.796875 27.203125 
L 10.59375 27.203125 
L 10.59375 35.5 
L 37.796875 35.5 
L 37.796875 62.703125 
z
" id="DejaVuSans-43"/>
      <path d="M 9.8125 72.90625 
L 19.671875 72.90625 
L 19.671875 43.015625 
L 55.515625 43.015625 
L 55.515625 72.90625 
L 65.375 72.90625 
L 65.375 0 
L 55.515625 0 
L 55.515625 34.71875 
L 19.671875 34.71875 
L 19.671875 0 
L 9.8125 0 
z
" id="DejaVuSans-72"/>
      <path d="M 19.671875 64.796875 
L 19.671875 8.109375 
L 31.59375 8.109375 
Q 46.6875 8.109375 53.6875 14.9375 
Q 60.6875 21.78125 60.6875 36.53125 
Q 60.6875 51.171875 53.6875 57.984375 
Q 46.6875 64.796875 31.59375 64.796875 
z
M 9.8125 72.90625 
L 30.078125 72.90625 
Q 51.265625 72.90625 61.171875 64.09375 
Q 71.09375 55.28125 71.09375 36.53125 
Q 71.09375 17.671875 61.125 8.828125 
Q 51.171875 0 30.078125 0 
L 9.8125 0 
z
" id="DejaVuSans-68"/>
      <path d="M 53.515625 70.515625 
L 53.515625 60.890625 
Q 47.90625 63.578125 42.921875 64.890625 
Q 37.9375 66.21875 33.296875 66.21875 
Q 25.25 66.21875 20.875 63.09375 
Q 16.5 59.96875 16.5 54.203125 
Q 16.5 49.359375 19.40625 46.890625 
Q 22.3125 44.4375 30.421875 42.921875 
L 36.375 41.703125 
Q 47.40625 39.59375 52.65625 34.296875 
Q 57.90625 29 57.90625 20.125 
Q 57.90625 9.515625 50.796875 4.046875 
Q 43.703125 -1.421875 29.984375 -1.421875 
Q 24.8125 -1.421875 18.96875 -0.25 
Q 13.140625 0.921875 6.890625 3.21875 
L 6.890625 13.375 
Q 12.890625 10.015625 18.65625 8.296875 
Q 24.421875 6.59375 29.984375 6.59375 
Q 38.421875 6.59375 43.015625 9.90625 
Q 47.609375 13.234375 47.609375 19.390625 
Q 47.609375 24.75 44.3125 27.78125 
Q 41.015625 30.8125 33.5 32.328125 
L 27.484375 33.5 
Q 16.453125 35.6875 11.515625 40.375 
Q 6.59375 45.0625 6.59375 53.421875 
Q 6.59375 63.09375 13.40625 68.65625 
Q 20.21875 74.21875 32.171875 74.21875 
Q 37.3125 74.21875 42.625 73.28125 
Q 47.953125 72.359375 53.515625 70.515625 
z
" id="DejaVuSans-83"/>
      <path d="M 9.8125 72.90625 
L 23.09375 72.90625 
L 55.421875 11.921875 
L 55.421875 72.90625 
L 64.984375 72.90625 
L 64.984375 0 
L 51.703125 0 
L 19.390625 60.984375 
L 19.390625 0 
L 9.8125 0 
z
" id="DejaVuSans-78"/>
     </defs>
     <use xlink:href="#DejaVuSans-66"/>
     <use x="68.603516" xlink:href="#DejaVuSans-65"/>
     <use x="135.261719" xlink:href="#DejaVuSans-79"/>
     <use x="213.972656" xlink:href="#DejaVuSans-43"/>
     <use x="297.761719" xlink:href="#DejaVuSans-72"/>
     <use x="372.957031" xlink:href="#DejaVuSans-68"/>
     <use x="449.958984" xlink:href="#DejaVuSans-43"/>
     <use x="533.748047" xlink:href="#DejaVuSans-83"/>
     <use x="597.224609" xlink:href="#DejaVuSans-78"/>
    </g>
   </g>
  </g>
  <g id="axes_2">
   <g id="patch_7">
    <path clip-path="url(#p6b12727be1)" d="M 367.8525 246.2 
L 367.8525 199.92 
L 367.8525 61.08 
L 367.8525 14.8 
L 379.4225 14.8 
L 379.4225 61.08 
L 379.4225 199.92 
L 379.4225 246.2 
z
" style="fill:#ffffff;stroke:#ffffff;stroke-linejoin:miter;stroke-width:0.01;"/>
   </g>
   <g id="QuadMesh_1">
    <path clip-path="url(#p6b12727be1)" d="M 367.8525 246.2 
L 379.4225 246.2 
L 379.4225 199.92 
L 367.8525 199.92 
L 367.8525 246.2 
" style="fill:#006428;"/>
    <path clip-path="url(#p6b12727be1)" d="M 367.8525 199.92 
L 379.4225 199.92 
L 379.4225 153.64 
L 367.8525 153.64 
L 367.8525 199.92 
" style="fill:#2f974e;"/>
    <path clip-path="url(#p6b12727be1)" d="M 367.8525 153.64 
L 379.4225 153.64 
L 379.4225 107.36 
L 367.8525 107.36 
L 367.8525 153.64 
" style="fill:#75c477;"/>
    <path clip-path="url(#p6b12727be1)" d="M 367.8525 107.36 
L 379.4225 107.36 
L 379.4225 61.08 
L 367.8525 61.08 
L 367.8525 107.36 
" style="fill:#b8e3b2;"/>
    <path clip-path="url(#p6b12727be1)" d="M 367.8525 61.08 
L 379.4225 61.08 
L 379.4225 14.8 
L 367.8525 14.8 
L 367.8525 61.08 
" style="fill:#e9f7e5;"/>
   </g>
   <g id="matplotlib.axis_3"/>
   <g id="matplotlib.axis_4">
    <g id="ytick_10">
     <g id="line2d_33">
      <defs>
       <path d="M 0 0 
L 3.5 0 
" id="mea6692470b" style="stroke:#000000;stroke-width:0.8;"/>
      </defs>
      <g>
       <use style="stroke:#000000;stroke-width:0.8;" x="379.4225" xlink:href="#mea6692470b" y="246.2"/>
      </g>
     </g>
    </g>
    <g id="ytick_11">
     <g id="line2d_34">
      <g>
       <use style="stroke:#000000;stroke-width:0.8;" x="379.4225" xlink:href="#mea6692470b" y="153.64"/>
      </g>
     </g>
     <g id="text_20">
      <!-- $1\sigma$ -->
      <g transform="translate(386.4225 157.439219)scale(0.1 -0.1)">
       <defs>
        <path d="M 34.671875 47.5625 
Q 27.25 47.5625 22.21875 42.1875 
Q 16.890625 36.578125 15.140625 27.296875 
Q 13.1875 17.484375 16.3125 11.8125 
Q 19.390625 6.203125 26.65625 6.203125 
Q 33.84375 6.203125 39.109375 11.859375 
Q 44.4375 17.53125 46.34375 27.296875 
Q 48.046875 36.234375 45.015625 42.1875 
Q 42.1875 47.5625 34.671875 47.5625 
z
M 36.078125 54.734375 
L 65.921875 54.6875 
L 64.15625 45.703125 
L 54.109375 45.703125 
Q 57.90625 38.09375 55.859375 27.296875 
Q 53.21875 13.875 45.0625 6.25 
Q 36.859375 -1.421875 25.140625 -1.421875 
Q 13.375 -1.421875 8.203125 6.25 
Q 3.03125 13.875 5.671875 27.296875 
Q 8.25 40.765625 16.40625 48.390625 
Q 23.1875 54.734375 36.078125 54.734375 
z
" id="DejaVuSans-Oblique-963"/>
       </defs>
       <use transform="translate(0 0.09375)" xlink:href="#DejaVuSans-49"/>
       <use transform="translate(63.623047 0.09375)" xlink:href="#DejaVuSans-Oblique-963"/>
      </g>
     </g>
    </g>
    <g id="ytick_12">
     <g id="line2d_35">
      <g>
       <use style="stroke:#000000;stroke-width:0.8;" x="379.4225" xlink:href="#mea6692470b" y="61.08"/>
      </g>
     </g>
     <g id="text_21">
      <!-- $2\sigma$ -->
      <g transform="translate(386.4225 64.879219)scale(0.1 -0.1)">
       <use transform="translate(0 0.78125)" xlink:href="#DejaVuSans-50"/>
       <use transform="translate(63.623047 0.78125)" xlink:href="#DejaVuSans-Oblique-963"/>
      </g>
     </g>
    </g>
   </g>
   <g id="patch_8">
    <path d="M 367.8525 246.2 
L 367.8525 199.92 
L 367.8525 61.08 
L 367.8525 14.8 
L 379.4225 14.8 
L 379.4225 61.08 
L 379.4225 199.92 
L 379.4225 246.2 
z
" style="fill:none;stroke:#000000;stroke-linejoin:miter;stroke-width:0.8;"/>
   </g>
  </g>
 </g>
 <defs>
  <clipPath id="pcf02f393b7">
   <rect height="231.4" width="284.52" x="65.55" y="14.8"/>
  </clipPath>
  <clipPath id="p6b12727be1">
   <rect height="231.4" width="11.57" x="367.8525" y="14.8"/>
  </clipPath>
 </defs>
</svg>
