<?xml version="1.0" encoding="utf-8" standalone="no"?>
<!DOCTYPE svg PUBLIC "-//W3C//DTD SVG 1.1//EN"
  "http://www.w3.org/Graphics/SVG/1.1/DTD/svg11.dtd">
<!-- Created with matplotlib (https://matplotlib.org/) -->
<svg height="288pt" version="1.1" viewBox="0 0 432 288" width="432pt" xmlns="http://www.w3.org/2000/svg" xmlns:xlink="http://www.w3.org/1999/xlink">
 <metadata>
  <rdf:RDF xmlns:cc="http://creativecommons.org/ns#" xmlns:dc="http://purl.org/dc/elements/1.1/" xmlns:rdf="http://www.w3.org/1999/02/22-rdf-syntax-ns#">
   <cc:Work>
    <dc:type rdf:resource="http://purl.org/dc/dcmitype/StillImage"/>
    <dc:date>2022-03-31T15:08:07.060054</dc:date>
    <dc:format>image/svg+xml</dc:format>
    <dc:creator>
     <cc:Agent>
      <dc:title>Matplotlib v3.3.3, https://matplotlib.org/</dc:title>
     </cc:Agent>
    </dc:creator>
   </cc:Work>
  </rdf:RDF>
 </metadata>
 <defs>
  <style type="text/css">*{stroke-linecap:butt;stroke-linejoin:round;}</style>
 </defs>
 <g id="figure_1">
  <g id="patch_1">
   <path d="M 0 288 
L 432 288 
L 432 0 
L 0 0 
z
" style="fill:none;"/>
  </g>
  <g id="axes_1">
   <g id="patch_2">
    <path d="M 85.775409 223.517271 
L 345.475082 223.517271 
L 345.475082 27.82665 
L 85.775409 27.82665 
z
" style="fill:#ffffff;"/>
   </g>
   <g id="PathCollection_1">
    <defs>
     <path d="M 86.439241 -140.973996 
L 87.01183 -142.731244 
L 87.584556 -144.488493 
L 88.232357 -146.245741 
L 88.678818 -148.002989 
L 90.103737 -149.676764 
L 90.150606 -149.760237 
L 91.385545 -151.517485 
L 92.238032 -153.274733 
L 92.574119 -155.031981 
L 93.159732 -156.789229 
L 94.432065 -157.984788 
L 94.801831 -158.546477 
L 96.090252 -160.303725 
L 97.49042 -162.060973 
L 98.760393 -163.710505 
L 98.948344 -163.818221 
L 103.088721 -165.162229 
L 105.343398 -165.575469 
L 107.417049 -166.062903 
L 111.745376 -166.12139 
L 116.073704 -165.913052 
L 120.402032 -165.724951 
L 124.73036 -165.595852 
L 125.270317 -165.575469 
L 129.058688 -165.306457 
L 133.387016 -164.871033 
L 137.715344 -164.28281 
L 140.73128 -163.818221 
L 142.043672 -163.622715 
L 146.371999 -162.971593 
L 150.700327 -162.396723 
L 153.407559 -162.060973 
L 155.028655 -161.883238 
L 159.356983 -161.469617 
L 163.685311 -161.089344 
L 168.013639 -160.756428 
L 172.341967 -160.477255 
L 175.706364 -160.303725 
L 176.670295 -160.265022 
L 180.998622 -160.137586 
L 185.32695 -160.053914 
L 189.655278 -160.006644 
L 193.983606 -159.990841 
L 198.311934 -160.000513 
L 202.640262 -160.029789 
L 206.96859 -160.073246 
L 211.296918 -160.12572 
L 215.625245 -160.182309 
L 219.953573 -160.238768 
L 224.281901 -160.291976 
L 225.276305 -160.303725 
L 228.610229 -160.359244 
L 232.938557 -160.431208 
L 237.266885 -160.502567 
L 241.595213 -160.57329 
L 245.923541 -160.643345 
L 250.251868 -160.712682 
L 254.580196 -160.781195 
L 258.908524 -160.848499 
L 263.236852 -160.914761 
L 267.56518 -160.979928 
L 271.893508 -161.043971 
L 276.221836 -161.106879 
L 280.550164 -161.168059 
L 284.878492 -161.227803 
L 289.206819 -161.285956 
L 293.535147 -161.341849 
L 297.863475 -161.393855 
L 302.191803 -161.441538 
L 306.520131 -161.48489 
L 310.848459 -161.524201 
L 315.176787 -161.559966 
L 319.505115 -161.593423 
L 323.833442 -161.625091 
L 328.16177 -161.654989 
L 332.490098 -161.684047 
L 336.818426 -161.712489 
L 341.146754 -161.740542 
L 345.475082 -161.769981 
L 349.80341 -161.801864 
L 349.80341 -162.060973 
L 349.80341 -162.550023 
L 345.475082 -162.585227 
L 341.146754 -162.622328 
L 336.818426 -162.660714 
L 332.490098 -162.701348 
L 328.16177 -162.744064 
L 323.833442 -162.789171 
L 319.505115 -162.838365 
L 315.176787 -162.891947 
L 310.848459 -162.951115 
L 306.520131 -163.018596 
L 302.191803 -163.096527 
L 297.863475 -163.188341 
L 293.535147 -163.300303 
L 289.206819 -163.443689 
L 284.878492 -163.635653 
L 281.892611 -163.818221 
L 280.550164 -163.850204 
L 276.221836 -163.967549 
L 271.893508 -164.09708 
L 267.56518 -164.22067 
L 263.236852 -164.326574 
L 258.908524 -164.418109 
L 254.580196 -164.500368 
L 250.251868 -164.576986 
L 245.923541 -164.649683 
L 241.595213 -164.720292 
L 237.266885 -164.790714 
L 232.938557 -164.86313 
L 228.610229 -164.940241 
L 224.281901 -165.025366 
L 219.953573 -165.122121 
L 215.625245 -165.233781 
L 211.296918 -165.363076 
L 206.96859 -165.513072 
L 205.353006 -165.575469 
L 202.640262 -165.722565 
L 198.311934 -165.960286 
L 193.983606 -166.201287 
L 189.655278 -166.451231 
L 185.32695 -166.721017 
L 180.998622 -167.023943 
L 177.22166 -167.332717 
L 176.670295 -167.394627 
L 172.341967 -167.903806 
L 168.013639 -168.43527 
L 163.685311 -169.012652 
L 163.141753 -169.089965 
L 159.356983 -169.722212 
L 155.028655 -170.487124 
L 153.128656 -170.847213 
L 150.700327 -171.339302 
L 146.371999 -172.306168 
L 145.194155 -172.604461 
L 142.043672 -173.367223 
L 138.254933 -174.361709 
L 137.715344 -174.496445 
L 133.387016 -175.523702 
L 130.38472 -176.118957 
L 129.058688 -176.397554 
L 124.73036 -176.948464 
L 120.402032 -177.133662 
L 116.073704 -177.026491 
L 111.745376 -176.540799 
L 110.240063 -176.118957 
L 107.417049 -175.409659 
L 105.238057 -174.361709 
L 103.088721 -173.407752 
L 102.305882 -172.604461 
L 98.760393 -171.068377 
L 98.456064 -170.847213 
L 96.534236 -169.089965 
L 95.87316 -167.332717 
L 94.432065 -166.411466 
L 93.167182 -165.575469 
L 91.684638 -163.818221 
L 90.881552 -162.060973 
L 90.103737 -160.789604 
L 89.722168 -160.303725 
L 88.203931 -158.546477 
L 86.522856 -156.789229 
L 85.775409 -155.979593 
L 85.775409 -155.031981 
L 85.775409 -153.274733 
L 85.775409 -151.517485 
L 85.775409 -149.760237 
L 85.775409 -148.002989 
L 85.775409 -146.245741 
L 85.775409 -144.488493 
L 85.775409 -142.731244 
L 85.775409 -140.973996 
L 85.775409 -139.993844 
z
" id="me26f44f305" style="stroke:#006428;"/>
    </defs>
    <g clip-path="url(#pf8b885aa73)">
     <use style="fill:#006428;stroke:#006428;" x="0" xlink:href="#me26f44f305" y="288"/>
    </g>
   </g>
   <g id="PathCollection_2">
    <path clip-path="url(#pf8b885aa73)" d="M 86.152009 154.054996 
L 86.649127 152.297748 
L 87.214026 150.5405 
L 87.843269 148.783252 
L 88.754204 147.026004 
L 89.376289 145.268756 
L 90.053067 143.511507 
L 90.103737 143.389454 
L 90.769508 141.754259 
L 91.591347 139.997011 
L 92.510895 138.239763 
L 93.499711 136.482515 
L 94.432065 134.791419 
L 94.485399 134.725267 
L 95.793326 132.968019 
L 97.169944 131.210771 
L 98.747418 129.453523 
L 98.760393 129.437205 
L 101.044717 127.696275 
L 103.088721 126.350495 
L 105.068105 125.939027 
L 107.417049 125.490275 
L 111.745376 125.490443 
L 116.073704 125.784307 
L 117.334527 125.939027 
L 120.402032 126.382645 
L 124.73036 126.924008 
L 129.058688 127.478981 
L 130.630909 127.696275 
L 133.387016 128.017495 
L 137.715344 128.479442 
L 142.043672 128.938282 
L 146.371999 129.434841 
L 146.583287 129.453523 
L 150.700327 129.732431 
L 155.028655 129.977297 
L 159.356983 130.18855 
L 163.685311 130.356164 
L 168.013639 130.474124 
L 172.341967 130.558428 
L 176.670295 130.611106 
L 180.998622 130.632319 
L 185.32695 130.621366 
L 189.655278 130.586248 
L 193.983606 130.529716 
L 198.311934 130.454545 
L 202.640262 130.363785 
L 206.96859 130.260148 
L 211.296918 130.14511 
L 215.625245 130.018916 
L 219.953573 129.883988 
L 224.281901 129.751708 
L 228.610229 129.630805 
L 232.938557 129.520982 
L 235.829803 129.453523 
L 237.266885 129.398343 
L 241.595213 129.242682 
L 245.923541 129.101214 
L 250.251868 128.969562 
L 254.580196 128.844064 
L 258.908524 128.721763 
L 263.236852 128.59894 
L 267.56518 128.471375 
L 271.893508 128.342064 
L 276.221836 128.23122 
L 280.550164 128.140398 
L 284.878492 128.060492 
L 289.206819 127.987224 
L 293.535147 127.919609 
L 297.863475 127.858409 
L 302.191803 127.80211 
L 306.520131 127.750908 
L 310.848459 127.707919 
L 312.109969 127.696275 
L 315.176787 127.625031 
L 319.505115 127.529416 
L 323.833442 127.438656 
L 328.16177 127.352481 
L 332.490098 127.267976 
L 336.818426 127.1842 
L 341.146754 127.100019 
L 345.475082 127.009095 
L 349.80341 126.906781 
L 349.80341 126.198136 
L 345.475082 126.230019 
L 341.146754 126.259458 
L 336.818426 126.287511 
L 332.490098 126.315953 
L 328.16177 126.345011 
L 323.833442 126.374909 
L 319.505115 126.406577 
L 315.176787 126.440034 
L 310.848459 126.475799 
L 306.520131 126.51511 
L 302.191803 126.558462 
L 297.863475 126.606145 
L 293.535147 126.658151 
L 289.206819 126.714044 
L 284.878492 126.772197 
L 280.550164 126.831941 
L 276.221836 126.893121 
L 271.893508 126.956029 
L 267.56518 127.020072 
L 263.236852 127.085239 
L 258.908524 127.151501 
L 254.580196 127.218805 
L 250.251868 127.287318 
L 245.923541 127.356655 
L 241.595213 127.42671 
L 237.266885 127.497433 
L 232.938557 127.568792 
L 228.610229 127.640756 
L 225.276305 127.696275 
L 224.281901 127.708024 
L 219.953573 127.761232 
L 215.625245 127.817691 
L 211.296918 127.87428 
L 206.96859 127.926754 
L 202.640262 127.970211 
L 198.311934 127.999487 
L 193.983606 128.009159 
L 189.655278 127.993356 
L 185.32695 127.946086 
L 180.998622 127.862414 
L 176.670295 127.734978 
L 175.706364 127.696275 
L 172.341967 127.522745 
L 168.013639 127.243572 
L 163.685311 126.910656 
L 159.356983 126.530383 
L 155.028655 126.116762 
L 153.407559 125.939027 
L 150.700327 125.603277 
L 146.371999 125.028407 
L 142.043672 124.377285 
L 140.73128 124.181779 
L 137.715344 123.71719 
L 133.387016 123.128967 
L 129.058688 122.693543 
L 125.270317 122.424531 
L 124.73036 122.404148 
L 120.402032 122.275049 
L 116.073704 122.086948 
L 111.745376 121.87861 
L 107.417049 121.937097 
L 105.343398 122.424531 
L 103.088721 122.837771 
L 98.948344 124.181779 
L 98.760393 124.289495 
L 97.49042 125.939027 
L 96.090252 127.696275 
L 94.801831 129.453523 
L 94.432065 130.015212 
L 93.159732 131.210771 
L 92.574119 132.968019 
L 92.238032 134.725267 
L 91.385545 136.482515 
L 90.150606 138.239763 
L 90.103737 138.323236 
L 88.678818 139.997011 
L 88.232357 141.754259 
L 87.584556 143.511507 
L 87.01183 145.268756 
L 86.439241 147.026004 
L 85.775409 148.006156 
L 85.775409 148.783252 
L 85.775409 150.5405 
L 85.775409 152.297748 
L 85.775409 154.054996 
L 85.775409 155.551001 
z
" style="fill:#2f974e;stroke:#2f974e;"/>
    <path clip-path="url(#pf8b885aa73)" d="M 86.522856 131.210771 
L 88.203931 129.453523 
L 89.722168 127.696275 
L 90.103737 127.210396 
L 90.881552 125.939027 
L 91.684638 124.181779 
L 93.167182 122.424531 
L 94.432065 121.588534 
L 95.87316 120.667283 
L 96.534236 118.910035 
L 98.456064 117.152787 
L 98.760393 116.931623 
L 102.305882 115.395539 
L 103.088721 114.592248 
L 105.238057 113.638291 
L 107.417049 112.590341 
L 110.240063 111.881043 
L 111.745376 111.459201 
L 116.073704 110.973509 
L 120.402032 110.866338 
L 124.73036 111.051536 
L 129.058688 111.602446 
L 130.38472 111.881043 
L 133.387016 112.476298 
L 137.715344 113.503555 
L 138.254933 113.638291 
L 142.043672 114.632777 
L 145.194155 115.395539 
L 146.371999 115.693832 
L 150.700327 116.660698 
L 153.128656 117.152787 
L 155.028655 117.512876 
L 159.356983 118.277788 
L 163.141753 118.910035 
L 163.685311 118.987348 
L 168.013639 119.56473 
L 172.341967 120.096194 
L 176.670295 120.605373 
L 177.22166 120.667283 
L 180.998622 120.976057 
L 185.32695 121.278983 
L 189.655278 121.548769 
L 193.983606 121.798713 
L 198.311934 122.039714 
L 202.640262 122.277435 
L 205.353006 122.424531 
L 206.96859 122.486928 
L 211.296918 122.636924 
L 215.625245 122.766219 
L 219.953573 122.877879 
L 224.281901 122.974634 
L 228.610229 123.059759 
L 232.938557 123.13687 
L 237.266885 123.209286 
L 241.595213 123.279708 
L 245.923541 123.350317 
L 250.251868 123.423014 
L 254.580196 123.499632 
L 258.908524 123.581891 
L 263.236852 123.673426 
L 267.56518 123.77933 
L 271.893508 123.90292 
L 276.221836 124.032451 
L 280.550164 124.149796 
L 281.892611 124.181779 
L 284.878492 124.364347 
L 289.206819 124.556311 
L 293.535147 124.699697 
L 297.863475 124.811659 
L 302.191803 124.903473 
L 306.520131 124.981404 
L 310.848459 125.048885 
L 315.176787 125.108053 
L 319.505115 125.161635 
L 323.833442 125.210829 
L 328.16177 125.255936 
L 332.490098 125.298652 
L 336.818426 125.339286 
L 341.146754 125.377672 
L 345.475082 125.414773 
L 349.80341 125.449977 
L 349.80341 124.181779 
L 349.80341 124.138288 
L 345.475082 124.075782 
L 341.146754 124.011221 
L 336.818426 123.945874 
L 332.490098 123.878588 
L 328.16177 123.810204 
L 323.833442 123.740814 
L 319.505115 123.668578 
L 315.176787 123.594272 
L 310.848459 123.517404 
L 306.520131 123.435791 
L 302.191803 123.349174 
L 297.863475 123.257101 
L 293.535147 123.158402 
L 289.206819 123.051664 
L 284.878492 122.938476 
L 280.550164 122.820078 
L 276.221836 122.698922 
L 271.893508 122.578957 
L 267.56518 122.46686 
L 265.800089 122.424531 
L 263.236852 122.335243 
L 258.908524 122.186375 
L 254.580196 122.034217 
L 250.251868 121.872725 
L 245.923541 121.697443 
L 241.595213 121.503953 
L 237.266885 121.290231 
L 232.938557 121.058195 
L 228.610229 120.813878 
L 226.028369 120.667283 
L 224.281901 120.563417 
L 219.953573 120.30152 
L 215.625245 120.018979 
L 211.296918 119.706968 
L 206.96859 119.360704 
L 202.640262 118.978522 
L 201.899281 118.910035 
L 198.311934 118.580213 
L 193.983606 118.157347 
L 189.655278 117.689774 
L 185.32695 117.161282 
L 185.261074 117.152787 
L 180.998622 116.612348 
L 176.670295 116.01944 
L 172.552122 115.395539 
L 172.341967 115.362122 
L 168.013639 114.6581 
L 163.685311 113.915504 
L 162.15807 113.638291 
L 159.356983 113.087691 
L 155.028655 112.207779 
L 153.476468 111.881043 
L 150.700327 111.224536 
L 146.371999 110.191245 
L 146.078528 110.123794 
L 142.043672 109.064337 
L 139.291566 108.366546 
L 137.715344 107.946403 
L 133.387016 106.82315 
L 132.501874 106.609298 
L 129.058688 105.823693 
L 124.846854 104.85205 
L 124.73036 104.82627 
L 120.402032 104.096944 
L 116.073704 103.785314 
L 111.745376 104.5806 
L 111.231041 104.85205 
L 107.417049 106.474412 
L 107.271639 106.609298 
L 105.27154 108.366546 
L 103.088721 109.885382 
L 102.874776 110.123794 
L 101.186843 111.881043 
L 99.612801 113.638291 
L 98.760393 114.274769 
L 97.215583 115.395539 
L 95.157114 117.152787 
L 94.432065 118.125691 
L 93.353395 118.910035 
L 90.86908 120.667283 
L 90.103737 121.342117 
L 89.012845 122.424531 
L 87.567804 124.181779 
L 86.044439 125.939027 
L 85.775409 126.196879 
L 85.775409 127.696275 
L 85.775409 129.453523 
L 85.775409 131.210771 
L 85.775409 132.020407 
z
" style="fill:#2f974e;stroke:#2f974e;"/>
   </g>
   <g id="PathCollection_3">
    <path clip-path="url(#pf8b885aa73)" d="M 86.268328 161.083988 
L 86.795438 159.32674 
L 87.2676 157.569492 
L 87.785871 155.812244 
L 88.39706 154.054996 
L 89.076498 152.297748 
L 89.800515 150.5405 
L 90.103737 149.784827 
L 90.417464 148.783252 
L 91.020482 147.026004 
L 91.688064 145.268756 
L 92.390901 143.511507 
L 93.19048 141.754259 
L 94.063168 139.997011 
L 94.432065 139.214832 
L 95.032311 138.239763 
L 96.228955 136.482515 
L 97.577031 134.725267 
L 98.760393 133.103063 
L 99.022879 132.968019 
L 102.138455 131.210771 
L 103.088721 130.541742 
L 107.417049 129.84034 
L 111.745376 129.801299 
L 116.073704 130.061566 
L 120.402032 130.337615 
L 124.73036 130.76198 
L 128.970094 131.210771 
L 129.058688 131.22029 
L 133.387016 131.670769 
L 137.715344 132.031137 
L 142.043672 132.358855 
L 146.371999 132.613535 
L 150.700327 132.805953 
L 155.028655 132.922499 
L 158.041972 132.968019 
L 159.356983 132.986436 
L 163.685311 133.007942 
L 168.013639 132.983931 
L 169.166125 132.968019 
L 172.341967 132.923515 
L 176.670295 132.824535 
L 180.998622 132.695227 
L 185.32695 132.54688 
L 189.655278 132.395022 
L 193.983606 132.244792 
L 198.311934 132.097271 
L 202.640262 131.950951 
L 206.96859 131.802981 
L 211.296918 131.649147 
L 215.625245 131.481344 
L 219.953573 131.285937 
L 221.424166 131.210771 
L 224.281901 131.043031 
L 228.610229 130.820045 
L 232.938557 130.628113 
L 237.266885 130.455372 
L 241.595213 130.296686 
L 245.923541 130.150683 
L 250.251868 130.01726 
L 254.580196 129.894439 
L 258.908524 129.776606 
L 263.236852 129.655825 
L 267.56518 129.527084 
L 269.614545 129.453523 
L 271.893508 129.329385 
L 276.221836 129.117288 
L 280.550164 128.949706 
L 284.878492 128.806478 
L 289.206819 128.677595 
L 293.535147 128.560697 
L 297.863475 128.456655 
L 302.191803 128.35723 
L 306.520131 128.255194 
L 310.848459 128.178746 
L 315.176787 128.117514 
L 319.505115 128.038303 
L 323.833442 127.960867 
L 328.16177 127.908151 
L 332.490098 127.860769 
L 336.818426 127.816128 
L 341.146754 127.772556 
L 345.475082 127.725491 
L 347.675286 127.696275 
L 349.80341 127.615425 
L 349.80341 126.906781 
L 345.475082 127.009095 
L 341.146754 127.100019 
L 336.818426 127.1842 
L 332.490098 127.267976 
L 328.16177 127.352481 
L 323.833442 127.438656 
L 319.505115 127.529416 
L 315.176787 127.625031 
L 312.109969 127.696275 
L 310.848459 127.707919 
L 306.520131 127.750908 
L 302.191803 127.80211 
L 297.863475 127.858409 
L 293.535147 127.919609 
L 289.206819 127.987224 
L 284.878492 128.060492 
L 280.550164 128.140398 
L 276.221836 128.23122 
L 271.893508 128.342064 
L 267.56518 128.471375 
L 263.236852 128.59894 
L 258.908524 128.721763 
L 254.580196 128.844064 
L 250.251868 128.969562 
L 245.923541 129.101214 
L 241.595213 129.242682 
L 237.266885 129.398343 
L 235.829803 129.453523 
L 232.938557 129.520982 
L 228.610229 129.630805 
L 224.281901 129.751708 
L 219.953573 129.883988 
L 215.625245 130.018916 
L 211.296918 130.14511 
L 206.96859 130.260148 
L 202.640262 130.363785 
L 198.311934 130.454545 
L 193.983606 130.529716 
L 189.655278 130.586248 
L 185.32695 130.621366 
L 180.998622 130.632319 
L 176.670295 130.611106 
L 172.341967 130.558428 
L 168.013639 130.474124 
L 163.685311 130.356164 
L 159.356983 130.18855 
L 155.028655 129.977297 
L 150.700327 129.732431 
L 146.583287 129.453523 
L 146.371999 129.434841 
L 142.043672 128.938282 
L 137.715344 128.479442 
L 133.387016 128.017495 
L 130.630909 127.696275 
L 129.058688 127.478981 
L 124.73036 126.924008 
L 120.402032 126.382645 
L 117.334527 125.939027 
L 116.073704 125.784307 
L 111.745376 125.490443 
L 107.417049 125.490275 
L 105.068105 125.939027 
L 103.088721 126.350495 
L 101.044717 127.696275 
L 98.760393 129.437205 
L 98.747418 129.453523 
L 97.169944 131.210771 
L 95.793326 132.968019 
L 94.485399 134.725267 
L 94.432065 134.791419 
L 93.499711 136.482515 
L 92.510895 138.239763 
L 91.591347 139.997011 
L 90.769508 141.754259 
L 90.103737 143.389454 
L 90.053067 143.511507 
L 89.376289 145.268756 
L 88.754204 147.026004 
L 87.843269 148.783252 
L 87.214026 150.5405 
L 86.649127 152.297748 
L 86.152009 154.054996 
L 85.775409 155.551001 
L 85.775409 155.812244 
L 85.775409 157.569492 
L 85.775409 159.32674 
L 85.775409 161.083988 
L 85.775409 162.46414 
z
" style="fill:#75c477;stroke:#75c477;"/>
    <path clip-path="url(#pf8b885aa73)" d="M 86.044439 125.939027 
L 87.567804 124.181779 
L 89.012845 122.424531 
L 90.103737 121.342117 
L 90.86908 120.667283 
L 93.353395 118.910035 
L 94.432065 118.125691 
L 95.157114 117.152787 
L 97.215583 115.395539 
L 98.760393 114.274769 
L 99.612801 113.638291 
L 101.186843 111.881043 
L 102.874776 110.123794 
L 103.088721 109.885382 
L 105.27154 108.366546 
L 107.271639 106.609298 
L 107.417049 106.474412 
L 111.231041 104.85205 
L 111.745376 104.5806 
L 116.073704 103.785314 
L 120.402032 104.096944 
L 124.73036 104.82627 
L 124.846854 104.85205 
L 129.058688 105.823693 
L 132.501874 106.609298 
L 133.387016 106.82315 
L 137.715344 107.946403 
L 139.291566 108.366546 
L 142.043672 109.064337 
L 146.078528 110.123794 
L 146.371999 110.191245 
L 150.700327 111.224536 
L 153.476468 111.881043 
L 155.028655 112.207779 
L 159.356983 113.087691 
L 162.15807 113.638291 
L 163.685311 113.915504 
L 168.013639 114.6581 
L 172.341967 115.362122 
L 172.552122 115.395539 
L 176.670295 116.01944 
L 180.998622 116.612348 
L 185.261074 117.152787 
L 185.32695 117.161282 
L 189.655278 117.689774 
L 193.983606 118.157347 
L 198.311934 118.580213 
L 201.899281 118.910035 
L 202.640262 118.978522 
L 206.96859 119.360704 
L 211.296918 119.706968 
L 215.625245 120.018979 
L 219.953573 120.30152 
L 224.281901 120.563417 
L 226.028369 120.667283 
L 228.610229 120.813878 
L 232.938557 121.058195 
L 237.266885 121.290231 
L 241.595213 121.503953 
L 245.923541 121.697443 
L 250.251868 121.872725 
L 254.580196 122.034217 
L 258.908524 122.186375 
L 263.236852 122.335243 
L 265.800089 122.424531 
L 267.56518 122.46686 
L 271.893508 122.578957 
L 276.221836 122.698922 
L 280.550164 122.820078 
L 284.878492 122.938476 
L 289.206819 123.051664 
L 293.535147 123.158402 
L 297.863475 123.257101 
L 302.191803 123.349174 
L 306.520131 123.435791 
L 310.848459 123.517404 
L 315.176787 123.594272 
L 319.505115 123.668578 
L 323.833442 123.740814 
L 328.16177 123.810204 
L 332.490098 123.878588 
L 336.818426 123.945874 
L 341.146754 124.011221 
L 345.475082 124.075782 
L 349.80341 124.138288 
L 349.80341 123.299132 
L 345.475082 123.203697 
L 341.146754 123.103418 
L 336.818426 123.001998 
L 332.490098 122.898897 
L 328.16177 122.795873 
L 323.833442 122.69326 
L 319.505115 122.588501 
L 315.176787 122.483084 
L 312.777053 122.424531 
L 310.848459 122.375042 
L 306.520131 122.255736 
L 302.191803 122.1233 
L 297.863475 121.976385 
L 293.535147 121.81331 
L 289.206819 121.633009 
L 284.878492 121.440871 
L 280.550164 121.241768 
L 276.221836 121.040124 
L 271.893508 120.837148 
L 268.244208 120.667283 
L 267.56518 120.636207 
L 263.236852 120.428291 
L 258.908524 120.191466 
L 254.580196 119.923319 
L 250.251868 119.626493 
L 245.923541 119.314229 
L 241.595213 118.998737 
L 240.347294 118.910035 
L 237.266885 118.695533 
L 232.938557 118.356074 
L 228.610229 117.968181 
L 224.281901 117.545994 
L 220.345711 117.152787 
L 219.953573 117.116587 
L 215.625245 116.696912 
L 211.296918 116.210824 
L 206.96859 115.674864 
L 204.740607 115.395539 
L 202.640262 115.145853 
L 198.311934 114.581447 
L 193.983606 113.94751 
L 191.929059 113.638291 
L 189.655278 113.310733 
L 185.32695 112.629535 
L 181.025561 111.881043 
L 180.998622 111.876561 
L 176.670295 111.127496 
L 172.341967 110.286819 
L 171.541389 110.123794 
L 168.013639 109.425687 
L 163.685311 108.483349 
L 163.176683 108.366546 
L 159.356983 107.516111 
L 155.596214 106.609298 
L 155.028655 106.475034 
L 150.700327 105.404062 
L 148.604395 104.85205 
L 146.371999 104.276169 
L 142.043672 103.106828 
L 141.999828 103.094802 
L 137.715344 101.90554 
L 135.665058 101.337554 
L 133.387016 100.680127 
L 129.181166 99.580306 
L 129.058688 99.548662 
L 124.73036 98.561449 
L 120.402032 98.028312 
L 116.073704 98.212868 
L 111.745376 99.216888 
L 111.067314 99.580306 
L 107.525001 101.337554 
L 107.417049 101.393326 
L 105.682876 103.094802 
L 103.562563 104.85205 
L 103.088721 105.250239 
L 102.115868 106.609298 
L 100.750092 108.366546 
L 98.905614 110.123794 
L 98.760393 110.268746 
L 97.115512 111.881043 
L 95.312964 113.638291 
L 94.432065 114.281079 
L 92.454787 115.395539 
L 90.11751 117.152787 
L 90.103737 117.162125 
L 86.772063 118.910035 
L 85.775409 119.946579 
L 85.775409 120.667283 
L 85.775409 122.424531 
L 85.775409 124.181779 
L 85.775409 125.939027 
L 85.775409 126.196879 
z
" style="fill:#75c477;stroke:#75c477;"/>
   </g>
   <g id="PathCollection_4">
    <path clip-path="url(#pf8b885aa73)" d="M 86.180927 166.355732 
L 86.808669 164.598484 
L 87.498676 162.841236 
L 88.159199 161.083988 
L 88.712941 159.32674 
L 89.226192 157.569492 
L 89.857002 155.812244 
L 90.103737 155.229014 
L 90.513719 154.054996 
L 91.108076 152.297748 
L 91.71275 150.5405 
L 92.436531 148.783252 
L 93.218705 147.026004 
L 93.976425 145.268756 
L 94.432065 144.192135 
L 94.779548 143.511507 
L 95.891934 141.754259 
L 97.162692 139.997011 
L 98.258671 138.239763 
L 98.760393 137.497195 
L 100.81089 136.482515 
L 103.088721 135.409248 
L 107.417049 134.797521 
L 111.745376 134.835763 
L 116.073704 134.878247 
L 120.402032 134.924781 
L 124.73036 134.920542 
L 129.058688 134.929504 
L 133.387016 135.155578 
L 137.715344 135.380771 
L 142.043672 135.532338 
L 146.371999 135.602061 
L 150.700327 135.619205 
L 155.028655 135.571828 
L 159.356983 135.479525 
L 163.685311 135.351558 
L 168.013639 135.181869 
L 172.341967 134.981347 
L 176.670295 134.754222 
L 177.170471 134.725267 
L 180.998622 134.542637 
L 185.32695 134.325544 
L 189.655278 134.09837 
L 193.983606 133.859914 
L 198.311934 133.611691 
L 202.640262 133.355401 
L 206.96859 133.094227 
L 209.044055 132.968019 
L 211.296918 132.856173 
L 215.625245 132.636495 
L 219.953573 132.410406 
L 224.281901 132.172981 
L 228.610229 131.931328 
L 232.938557 131.690453 
L 237.266885 131.470437 
L 241.595213 131.258899 
L 242.515941 131.210771 
L 245.923541 131.045077 
L 250.251868 130.84955 
L 254.580196 130.672464 
L 258.908524 130.505805 
L 263.236852 130.335641 
L 267.56518 130.17769 
L 271.893508 130.024164 
L 276.221836 129.763447 
L 280.550164 129.628646 
L 284.878492 129.51097 
L 287.116061 129.453523 
L 289.206819 129.367967 
L 293.535147 129.201785 
L 297.863475 129.0549 
L 302.191803 128.912351 
L 306.520131 128.759481 
L 310.848459 128.649574 
L 315.176787 128.565698 
L 319.505115 128.440031 
L 323.833442 128.310016 
L 328.16177 128.229782 
L 332.490098 128.159784 
L 336.818426 128.095552 
L 341.146754 128.035011 
L 345.475082 127.973176 
L 349.244658 127.923121 
L 349.80341 127.696275 
L 349.80341 127.615425 
L 347.675286 127.696275 
L 345.475082 127.725491 
L 341.146754 127.772556 
L 336.818426 127.816128 
L 332.490098 127.860769 
L 328.16177 127.908151 
L 323.833442 127.960867 
L 319.505115 128.038303 
L 315.176787 128.117514 
L 310.848459 128.178746 
L 306.520131 128.255194 
L 302.191803 128.35723 
L 297.863475 128.456655 
L 293.535147 128.560697 
L 289.206819 128.677595 
L 284.878492 128.806478 
L 280.550164 128.949706 
L 276.221836 129.117288 
L 271.893508 129.329385 
L 269.614545 129.453523 
L 267.56518 129.527084 
L 263.236852 129.655825 
L 258.908524 129.776606 
L 254.580196 129.894439 
L 250.251868 130.01726 
L 245.923541 130.150683 
L 241.595213 130.296686 
L 237.266885 130.455372 
L 232.938557 130.628113 
L 228.610229 130.820045 
L 224.281901 131.043031 
L 221.424166 131.210771 
L 219.953573 131.285937 
L 215.625245 131.481344 
L 211.296918 131.649147 
L 206.96859 131.802981 
L 202.640262 131.950951 
L 198.311934 132.097271 
L 193.983606 132.244792 
L 189.655278 132.395022 
L 185.32695 132.54688 
L 180.998622 132.695227 
L 176.670295 132.824535 
L 172.341967 132.923515 
L 169.166125 132.968019 
L 168.013639 132.983931 
L 163.685311 133.007942 
L 159.356983 132.986436 
L 158.041972 132.968019 
L 155.028655 132.922499 
L 150.700327 132.805953 
L 146.371999 132.613535 
L 142.043672 132.358855 
L 137.715344 132.031137 
L 133.387016 131.670769 
L 129.058688 131.22029 
L 128.970094 131.210771 
L 124.73036 130.76198 
L 120.402032 130.337615 
L 116.073704 130.061566 
L 111.745376 129.801299 
L 107.417049 129.84034 
L 103.088721 130.541742 
L 102.138455 131.210771 
L 99.022879 132.968019 
L 98.760393 133.103063 
L 97.577031 134.725267 
L 96.228955 136.482515 
L 95.032311 138.239763 
L 94.432065 139.214832 
L 94.063168 139.997011 
L 93.19048 141.754259 
L 92.390901 143.511507 
L 91.688064 145.268756 
L 91.020482 147.026004 
L 90.417464 148.783252 
L 90.103737 149.784827 
L 89.800515 150.5405 
L 89.076498 152.297748 
L 88.39706 154.054996 
L 87.785871 155.812244 
L 87.2676 157.569492 
L 86.795438 159.32674 
L 86.268328 161.083988 
L 85.775409 162.46414 
L 85.775409 162.841236 
L 85.775409 164.598484 
L 85.775409 166.355732 
L 85.775409 167.669419 
z
" style="fill:#b8e3b2;stroke:#b8e3b2;"/>
    <path clip-path="url(#pf8b885aa73)" d="M 315.176787 122.483084 
L 319.505115 122.588501 
L 323.833442 122.69326 
L 328.16177 122.795873 
L 332.490098 122.898897 
L 336.818426 123.001998 
L 341.146754 123.103418 
L 345.475082 123.203697 
L 349.80341 123.299132 
L 349.80341 122.459976 
L 348.574637 122.424531 
L 345.475082 122.333011 
L 341.146754 122.204075 
L 336.818426 122.0764 
L 332.490098 121.948283 
L 328.16177 121.820052 
L 323.833442 121.687006 
L 319.505115 121.538603 
L 315.176787 121.376936 
L 310.848459 121.206435 
L 306.520131 121.020641 
L 302.191803 120.816295 
L 299.245082 120.667283 
L 297.863475 120.597615 
L 293.535147 120.382159 
L 289.206819 120.165868 
L 284.878492 119.945006 
L 280.550164 119.712401 
L 276.221836 119.461011 
L 271.893508 119.181667 
L 268.092697 118.910035 
L 267.56518 118.871915 
L 263.236852 118.564668 
L 258.908524 118.251258 
L 254.580196 117.920941 
L 250.251868 117.561796 
L 245.923541 117.163195 
L 245.815543 117.152787 
L 241.595213 116.757256 
L 237.266885 116.336756 
L 232.938557 115.886656 
L 228.651044 115.395539 
L 228.610229 115.390734 
L 224.281901 114.8835 
L 219.953573 114.348864 
L 215.625245 113.765831 
L 214.725413 113.638291 
L 211.296918 113.154755 
L 206.96859 112.514162 
L 203.055717 111.881043 
L 202.640262 111.812521 
L 198.311934 111.096802 
L 193.983606 110.318371 
L 192.942987 110.123794 
L 189.655278 109.508975 
L 185.32695 108.644309 
L 183.98325 108.366546 
L 180.998622 107.745511 
L 176.670295 106.784124 
L 175.8882 106.609298 
L 172.341967 105.80419 
L 168.382036 104.85205 
L 168.013639 104.76126 
L 163.685311 103.706512 
L 161.251369 103.094802 
L 159.356983 102.608502 
L 155.028655 101.474266 
L 154.511352 101.337554 
L 150.700327 100.319337 
L 147.954968 99.580306 
L 146.371999 99.151745 
L 142.043672 97.982893 
L 141.465116 97.823058 
L 137.715344 96.829591 
L 134.962558 96.06581 
L 133.387016 95.650627 
L 129.058688 94.677294 
L 127.159416 94.308562 
L 124.73036 93.836325 
L 120.402032 93.487513 
L 116.073704 93.692596 
L 114.03443 94.308562 
L 111.745376 94.9984 
L 109.812514 96.06581 
L 107.417049 97.349224 
L 107.018254 97.823058 
L 105.272743 99.580306 
L 103.217816 101.337554 
L 103.088721 101.448993 
L 101.772812 103.094802 
L 100.394367 104.85205 
L 98.830245 106.609298 
L 98.760393 106.690054 
L 97.098945 108.366546 
L 95.003841 110.123794 
L 94.432065 110.657599 
L 90.701612 111.881043 
L 90.103737 112.201421 
L 85.775409 113.353497 
L 85.775409 113.638291 
L 85.775409 115.395539 
L 85.775409 117.152787 
L 85.775409 118.910035 
L 85.775409 119.946579 
L 86.772063 118.910035 
L 90.103737 117.162125 
L 90.11751 117.152787 
L 92.454787 115.395539 
L 94.432065 114.281079 
L 95.312964 113.638291 
L 97.115512 111.881043 
L 98.760393 110.268746 
L 98.905614 110.123794 
L 100.750092 108.366546 
L 102.115868 106.609298 
L 103.088721 105.250239 
L 103.562563 104.85205 
L 105.682876 103.094802 
L 107.417049 101.393326 
L 107.525001 101.337554 
L 111.067314 99.580306 
L 111.745376 99.216888 
L 116.073704 98.212868 
L 120.402032 98.028312 
L 124.73036 98.561449 
L 129.058688 99.548662 
L 129.181166 99.580306 
L 133.387016 100.680127 
L 135.665058 101.337554 
L 137.715344 101.90554 
L 141.999828 103.094802 
L 142.043672 103.106828 
L 146.371999 104.276169 
L 148.604395 104.85205 
L 150.700327 105.404062 
L 155.028655 106.475034 
L 155.596214 106.609298 
L 159.356983 107.516111 
L 163.176683 108.366546 
L 163.685311 108.483349 
L 168.013639 109.425687 
L 171.541389 110.123794 
L 172.341967 110.286819 
L 176.670295 111.127496 
L 180.998622 111.876561 
L 181.025561 111.881043 
L 185.32695 112.629535 
L 189.655278 113.310733 
L 191.929059 113.638291 
L 193.983606 113.94751 
L 198.311934 114.581447 
L 202.640262 115.145853 
L 204.740607 115.395539 
L 206.96859 115.674864 
L 211.296918 116.210824 
L 215.625245 116.696912 
L 219.953573 117.116587 
L 220.345711 117.152787 
L 224.281901 117.545994 
L 228.610229 117.968181 
L 232.938557 118.356074 
L 237.266885 118.695533 
L 240.347294 118.910035 
L 241.595213 118.998737 
L 245.923541 119.314229 
L 250.251868 119.626493 
L 254.580196 119.923319 
L 258.908524 120.191466 
L 263.236852 120.428291 
L 267.56518 120.636207 
L 268.244208 120.667283 
L 271.893508 120.837148 
L 276.221836 121.040124 
L 280.550164 121.241768 
L 284.878492 121.440871 
L 289.206819 121.633009 
L 293.535147 121.81331 
L 297.863475 121.976385 
L 302.191803 122.1233 
L 306.520131 122.255736 
L 310.848459 122.375042 
L 312.777053 122.424531 
z
" style="fill:#b8e3b2;stroke:#b8e3b2;"/>
   </g>
   <g id="PathCollection_5">
    <path clip-path="url(#pf8b885aa73)" d="M 86.112595 171.627476 
L 86.626126 169.870228 
L 87.212582 168.11298 
L 87.874691 166.355732 
L 88.599721 164.598484 
L 89.354098 162.841236 
L 90.05007 161.083988 
L 90.103737 160.919422 
L 90.399056 159.32674 
L 90.838402 157.569492 
L 91.493365 155.812244 
L 92.223367 154.054996 
L 92.84927 152.297748 
L 93.535444 150.5405 
L 94.432065 148.823925 
L 94.461586 148.783252 
L 95.632285 147.026004 
L 96.560221 145.268756 
L 97.540066 143.511507 
L 98.760393 141.909386 
L 99.102255 141.754259 
L 102.29529 139.997011 
L 103.088721 139.557093 
L 107.417049 138.617403 
L 111.745376 138.658682 
L 116.073704 139.065148 
L 120.402032 139.202405 
L 124.73036 139.204542 
L 129.058688 138.903307 
L 133.387016 138.765809 
L 137.715344 138.876306 
L 142.043672 138.758218 
L 146.371999 138.655601 
L 150.700327 138.529653 
L 155.028655 138.336022 
L 156.73992 138.239763 
L 159.356983 138.13362 
L 163.685311 137.918673 
L 168.013639 137.652191 
L 172.341967 137.354712 
L 176.670295 137.041004 
L 180.998622 136.703519 
L 183.350432 136.482515 
L 185.32695 136.327616 
L 189.655278 135.956103 
L 193.983606 135.611264 
L 198.311934 135.292738 
L 202.640262 134.954576 
L 205.010731 134.725267 
L 206.96859 134.572658 
L 211.296918 134.217593 
L 215.625245 133.917246 
L 219.953573 133.644023 
L 224.281901 133.296204 
L 228.610229 133.00033 
L 229.107416 132.968019 
L 232.938557 132.703034 
L 237.266885 132.436345 
L 241.595213 132.220363 
L 245.923541 131.94275 
L 250.251868 131.63599 
L 254.580196 131.402806 
L 258.908524 131.227904 
L 259.357273 131.210771 
L 263.236852 131.015457 
L 267.56518 130.828295 
L 271.893508 130.67687 
L 276.221836 130.262896 
L 280.550164 130.092582 
L 284.878492 129.944106 
L 289.206819 129.807013 
L 293.535147 129.682148 
L 297.863475 129.570822 
L 302.168616 129.462937 
L 302.191803 129.453523 
L 302.462732 129.453523 
L 306.520131 129.263767 
L 310.848459 129.120402 
L 315.176787 129.013882 
L 319.505115 128.841758 
L 323.833442 128.659164 
L 328.16177 128.551412 
L 332.490098 128.4588 
L 336.818426 128.374977 
L 341.146754 128.297466 
L 345.475082 128.220861 
L 348.613949 128.179181 
L 349.244658 127.923121 
L 345.475082 127.973176 
L 341.146754 128.035011 
L 336.818426 128.095552 
L 332.490098 128.159784 
L 328.16177 128.229782 
L 323.833442 128.310016 
L 319.505115 128.440031 
L 315.176787 128.565698 
L 310.848459 128.649574 
L 306.520131 128.759481 
L 302.191803 128.912351 
L 297.863475 129.0549 
L 293.535147 129.201785 
L 289.206819 129.367967 
L 287.116061 129.453523 
L 284.878492 129.51097 
L 280.550164 129.628646 
L 276.221836 129.763447 
L 271.893508 130.024164 
L 267.56518 130.17769 
L 263.236852 130.335641 
L 258.908524 130.505805 
L 254.580196 130.672464 
L 250.251868 130.84955 
L 245.923541 131.045077 
L 242.515941 131.210771 
L 241.595213 131.258899 
L 237.266885 131.470437 
L 232.938557 131.690453 
L 228.610229 131.931328 
L 224.281901 132.172981 
L 219.953573 132.410406 
L 215.625245 132.636495 
L 211.296918 132.856173 
L 209.044055 132.968019 
L 206.96859 133.094227 
L 202.640262 133.355401 
L 198.311934 133.611691 
L 193.983606 133.859914 
L 189.655278 134.09837 
L 185.32695 134.325544 
L 180.998622 134.542637 
L 177.170471 134.725267 
L 176.670295 134.754222 
L 172.341967 134.981347 
L 168.013639 135.181869 
L 163.685311 135.351558 
L 159.356983 135.479525 
L 155.028655 135.571828 
L 150.700327 135.619205 
L 146.371999 135.602061 
L 142.043672 135.532338 
L 137.715344 135.380771 
L 133.387016 135.155578 
L 129.058688 134.929504 
L 124.73036 134.920542 
L 120.402032 134.924781 
L 116.073704 134.878247 
L 111.745376 134.835763 
L 107.417049 134.797521 
L 103.088721 135.409248 
L 100.81089 136.482515 
L 98.760393 137.497195 
L 98.258671 138.239763 
L 97.162692 139.997011 
L 95.891934 141.754259 
L 94.779548 143.511507 
L 94.432065 144.192135 
L 93.976425 145.268756 
L 93.218705 147.026004 
L 92.436531 148.783252 
L 91.71275 150.5405 
L 91.108076 152.297748 
L 90.513719 154.054996 
L 90.103737 155.229014 
L 89.857002 155.812244 
L 89.226192 157.569492 
L 88.712941 159.32674 
L 88.159199 161.083988 
L 87.498676 162.841236 
L 86.808669 164.598484 
L 86.180927 166.355732 
L 85.775409 167.669419 
L 85.775409 168.11298 
L 85.775409 169.870228 
L 85.775409 171.627476 
L 85.775409 172.859781 
z
" style="fill:#e9f7e5;stroke:#e9f7e5;"/>
    <path clip-path="url(#pf8b885aa73)" d="M 349.80341 122.459976 
L 349.80341 122.424531 
L 349.80341 121.605343 
L 345.475082 121.474058 
L 341.146754 121.329816 
L 336.818426 121.179608 
L 332.490098 121.024966 
L 328.16177 120.86647 
L 323.833442 120.695002 
L 323.209178 120.667283 
L 319.505115 120.465477 
L 315.176787 120.246701 
L 310.848459 120.040521 
L 306.520131 119.813124 
L 302.191803 119.551016 
L 297.863475 119.294313 
L 293.535147 119.0618 
L 290.772773 118.910035 
L 289.206819 118.799536 
L 284.878492 118.477964 
L 280.550164 118.161634 
L 276.221836 117.842946 
L 271.893508 117.526394 
L 267.56518 117.212926 
L 266.767183 117.152787 
L 263.236852 116.819532 
L 258.908524 116.402076 
L 254.580196 115.986127 
L 250.251868 115.582384 
L 248.272815 115.395539 
L 245.923541 115.123443 
L 241.595213 114.601804 
L 237.266885 114.089987 
L 233.292253 113.638291 
L 232.938557 113.590275 
L 228.610229 112.972069 
L 224.281901 112.358036 
L 220.758888 111.881043 
L 219.953573 111.752985 
L 215.625245 111.028433 
L 211.296918 110.331128 
L 209.993317 110.123794 
L 206.96859 109.55743 
L 202.640262 108.746673 
L 200.533045 108.366546 
L 198.311934 107.904479 
L 193.983606 106.994851 
L 192.082653 106.609298 
L 189.655278 106.050167 
L 185.32695 105.059223 
L 184.411684 104.85205 
L 180.998622 103.987775 
L 177.37886 103.094802 
L 176.670295 102.906595 
L 172.341967 101.726798 
L 170.896623 101.337554 
L 168.013639 100.508949 
L 164.777345 99.580306 
L 163.685311 99.255543 
L 159.356983 97.952616 
L 158.917062 97.823058 
L 155.028655 96.62807 
L 153.152684 96.06581 
L 150.700327 95.311355 
L 147.307614 94.308562 
L 146.371999 94.026969 
L 142.043672 92.784624 
L 141.08393 92.551314 
L 137.715344 91.67761 
L 133.387016 90.900075 
L 132.740631 90.794066 
L 129.058688 90.120726 
L 125.335616 89.036818 
L 124.73036 88.819942 
L 120.402032 87.972693 
L 116.073704 87.816995 
L 113.251173 89.036818 
L 111.745376 89.55019 
L 110.616387 90.794066 
L 108.526044 92.551314 
L 107.417049 93.235964 
L 106.401367 94.308562 
L 104.907493 96.06581 
L 103.221953 97.823058 
L 103.088721 97.944362 
L 101.916412 99.580306 
L 100.361131 101.337554 
L 98.839063 103.094802 
L 98.760393 103.194429 
L 96.95613 104.85205 
L 95.108992 106.609298 
L 94.432065 107.283392 
L 90.103737 107.810415 
L 85.775409 108.259475 
L 85.775409 108.366546 
L 85.775409 110.123794 
L 85.775409 111.881043 
L 85.775409 113.353497 
L 90.103737 112.201421 
L 90.701612 111.881043 
L 94.432065 110.657599 
L 95.003841 110.123794 
L 97.098945 108.366546 
L 98.760393 106.690054 
L 98.830245 106.609298 
L 100.394367 104.85205 
L 101.772812 103.094802 
L 103.088721 101.448993 
L 103.217816 101.337554 
L 105.272743 99.580306 
L 107.018254 97.823058 
L 107.417049 97.349224 
L 109.812514 96.06581 
L 111.745376 94.9984 
L 114.03443 94.308562 
L 116.073704 93.692596 
L 120.402032 93.487513 
L 124.73036 93.836325 
L 127.159416 94.308562 
L 129.058688 94.677294 
L 133.387016 95.650627 
L 134.962558 96.06581 
L 137.715344 96.829591 
L 141.465116 97.823058 
L 142.043672 97.982893 
L 146.371999 99.151745 
L 147.954968 99.580306 
L 150.700327 100.319337 
L 154.511352 101.337554 
L 155.028655 101.474266 
L 159.356983 102.608502 
L 161.251369 103.094802 
L 163.685311 103.706512 
L 168.013639 104.76126 
L 168.382036 104.85205 
L 172.341967 105.80419 
L 175.8882 106.609298 
L 176.670295 106.784124 
L 180.998622 107.745511 
L 183.98325 108.366546 
L 185.32695 108.644309 
L 189.655278 109.508975 
L 192.942987 110.123794 
L 193.983606 110.318371 
L 198.311934 111.096802 
L 202.640262 111.812521 
L 203.055717 111.881043 
L 206.96859 112.514162 
L 211.296918 113.154755 
L 214.725413 113.638291 
L 215.625245 113.765831 
L 219.953573 114.348864 
L 224.281901 114.8835 
L 228.610229 115.390734 
L 228.651044 115.395539 
L 232.938557 115.886656 
L 237.266885 116.336756 
L 241.595213 116.757256 
L 245.815543 117.152787 
L 245.923541 117.163195 
L 250.251868 117.561796 
L 254.580196 117.920941 
L 258.908524 118.251258 
L 263.236852 118.564668 
L 267.56518 118.871915 
L 268.092697 118.910035 
L 271.893508 119.181667 
L 276.221836 119.461011 
L 280.550164 119.712401 
L 284.878492 119.945006 
L 289.206819 120.165868 
L 293.535147 120.382159 
L 297.863475 120.597615 
L 299.245082 120.667283 
L 302.191803 120.816295 
L 306.520131 121.020641 
L 310.848459 121.206435 
L 315.176787 121.376936 
L 319.505115 121.538603 
L 323.833442 121.687006 
L 328.16177 121.820052 
L 332.490098 121.948283 
L 336.818426 122.0764 
L 341.146754 122.204075 
L 345.475082 122.333011 
L 348.574637 122.424531 
z
" style="fill:#e9f7e5;stroke:#e9f7e5;"/>
   </g>
   <g id="matplotlib.axis_1">
    <g id="xtick_1">
     <g id="line2d_1">
      <path clip-path="url(#pf8b885aa73)" d="M 85.775409 223.517271 
L 85.775409 27.82665 
" style="fill:none;stroke:#b0b0b0;stroke-linecap:square;stroke-width:0.8;"/>
     </g>
     <g id="line2d_2">
      <defs>
       <path d="M 0 0 
L 0 3.5 
" id="ma90490be75" style="stroke:#000000;stroke-width:0.8;"/>
      </defs>
      <g>
       <use style="stroke:#000000;stroke-width:0.8;" x="85.775409" xlink:href="#ma90490be75" y="223.517271"/>
      </g>
     </g>
     <g id="text_1">
      <!-- $\mathdefault{0}$ -->
      <g transform="translate(81.663266 242.970572)scale(0.18 -0.18)">
       <defs>
        <path d="M 42 31.640625 
C 42 37.75 41.90625 48.125 37.703125 56.109375 
C 34 63.109375 28.09375 65.59375 22.90625 65.59375 
C 18.09375 65.59375 12 63.40625 8.203125 56.203125 
C 4.203125 48.71875 3.796875 39.4375 3.796875 31.640625 
C 3.796875 25.953125 3.90625 17.28125 7 9.671875 
C 11.296875 -0.609375 19 -2 22.90625 -2 
C 27.5 -2 34.5 -0.109375 38.59375 9.375 
C 41.59375 16.28125 42 24.359375 42 31.640625 
z
M 22.90625 -0.40625 
C 16.5 -0.40625 12.703125 5.078125 11.296875 12.6875 
C 10.203125 18.5625 10.203125 27.15625 10.203125 32.75 
C 10.203125 40.4375 10.203125 46.828125 11.5 52.921875 
C 13.40625 61.390625 19 64 22.90625 64 
C 27 64 32.296875 61.296875 34.203125 53.125 
C 35.5 47.4375 35.59375 40.734375 35.59375 32.75 
C 35.59375 26.25 35.59375 18.265625 34.40625 12.375 
C 32.296875 1.484375 26.40625 -0.40625 22.90625 -0.40625 
z
" id="CMR17-48"/>
       </defs>
       <use transform="scale(0.996264)" xlink:href="#CMR17-48"/>
      </g>
     </g>
    </g>
    <g id="xtick_2">
     <g id="line2d_3">
      <path clip-path="url(#pf8b885aa73)" d="M 172.341967 223.517271 
L 172.341967 27.82665 
" style="fill:none;stroke:#b0b0b0;stroke-linecap:square;stroke-width:0.8;"/>
     </g>
     <g id="line2d_4">
      <g>
       <use style="stroke:#000000;stroke-width:0.8;" x="172.341967" xlink:href="#ma90490be75" y="223.517271"/>
      </g>
     </g>
     <g id="text_2">
      <!-- $\mathdefault{1}$ -->
      <g transform="translate(168.229824 242.970572)scale(0.18 -0.18)">
       <defs>
        <path d="M 26.59375 63.40625 
C 26.59375 65.5 26.5 65.5 25.09375 65.5 
C 21.203125 61.1875 15.296875 59.796875 9.703125 59.796875 
C 9.40625 59.796875 8.90625 59.796875 8.796875 59.5 
C 8.703125 59.296875 8.703125 59.09375 8.703125 57 
C 11.796875 57 17 57.59375 21 59.984375 
L 21 7.203125 
C 21 3.6875 20.796875 2.5 12.203125 2.5 
L 9.203125 2.5 
L 9.203125 0 
C 14 0 19 0 23.796875 0 
C 28.59375 0 33.59375 0 38.40625 0 
L 38.40625 2.5 
L 35.40625 2.5 
C 26.796875 2.5 26.59375 3.59375 26.59375 7.15625 
z
" id="CMR17-49"/>
       </defs>
       <use transform="scale(0.996264)" xlink:href="#CMR17-49"/>
      </g>
     </g>
    </g>
    <g id="xtick_3">
     <g id="line2d_5">
      <path clip-path="url(#pf8b885aa73)" d="M 258.908524 223.517271 
L 258.908524 27.82665 
" style="fill:none;stroke:#b0b0b0;stroke-linecap:square;stroke-width:0.8;"/>
     </g>
     <g id="line2d_6">
      <g>
       <use style="stroke:#000000;stroke-width:0.8;" x="258.908524" xlink:href="#ma90490be75" y="223.517271"/>
      </g>
     </g>
     <g id="text_3">
      <!-- $\mathdefault{2}$ -->
      <g transform="translate(254.796381 242.970572)scale(0.18 -0.18)">
       <defs>
        <path d="M 41.703125 15.453125 
L 39.90625 15.453125 
C 38.90625 8.375 38.09375 7.171875 37.703125 6.5625 
C 37.203125 5.765625 30 5.765625 28.59375 5.765625 
L 9.40625 5.765625 
C 13 9.671875 20 16.75 28.5 24.953125 
C 34.59375 30.734375 41.703125 37.53125 41.703125 47.421875 
C 41.703125 59.21875 32.296875 66 21.796875 66 
C 10.796875 66 4.09375 56.3125 4.09375 47.34375 
C 4.09375 43.4375 7 42.9375 8.203125 42.9375 
C 9.203125 42.9375 12.203125 43.546875 12.203125 47.03125 
C 12.203125 50.109375 9.59375 51 8.203125 51 
C 7.59375 51 7 50.90625 6.59375 50.703125 
C 8.5 59.21875 14.296875 63.40625 20.40625 63.40625 
C 29.09375 63.40625 34.796875 56.515625 34.796875 47.421875 
C 34.796875 38.734375 29.703125 31.25 24 24.75 
L 4.09375 2.28125 
L 4.09375 0 
L 39.296875 0 
z
" id="CMR17-50"/>
       </defs>
       <use transform="scale(0.996264)" xlink:href="#CMR17-50"/>
      </g>
     </g>
    </g>
    <g id="xtick_4">
     <g id="line2d_7">
      <path clip-path="url(#pf8b885aa73)" d="M 345.475082 223.517271 
L 345.475082 27.82665 
" style="fill:none;stroke:#b0b0b0;stroke-linecap:square;stroke-width:0.8;"/>
     </g>
     <g id="line2d_8">
      <g>
       <use style="stroke:#000000;stroke-width:0.8;" x="345.475082" xlink:href="#ma90490be75" y="223.517271"/>
      </g>
     </g>
     <g id="text_4">
      <!-- $\mathdefault{3}$ -->
      <g transform="translate(341.362939 242.970572)scale(0.18 -0.18)">
       <defs>
        <path d="M 22.09375 33.703125 
C 31 33.703125 34.90625 25.96875 34.90625 17.03125 
C 34.90625 5 28.5 0.390625 22.703125 0.390625 
C 17.40625 0.390625 8.796875 3.03125 6.09375 10.828125 
C 6.59375 10.625 7.09375 10.625 7.59375 10.625 
C 10 10.625 11.796875 12.21875 11.796875 14.8125 
C 11.796875 17.703125 9.59375 19 7.59375 19 
C 5.90625 19 3.296875 18.203125 3.296875 14.46875 
C 3.296875 5.234375 12.296875 -2 22.90625 -2 
C 34 -2 42.5 6.71875 42.5 16.953125 
C 42.5 26.671875 34.5 33.703125 25 34.796875 
C 32.59375 36.375 39.90625 43.0625 39.90625 52.015625 
C 39.90625 59.6875 32 65.296875 23 65.296875 
C 13.90625 65.296875 5.90625 59.828125 5.90625 52.015625 
C 5.90625 48.59375 8.5 48 9.796875 48 
C 11.90625 48 13.703125 49.296875 13.703125 51.890625 
C 13.703125 54.46875 11.90625 55.765625 9.796875 55.765625 
C 9.40625 55.765625 8.90625 55.765625 8.5 55.578125 
C 11.40625 61.859375 19.296875 63 22.796875 63 
C 26.296875 63 32.90625 61.328125 32.90625 51.875 
C 32.90625 49.109375 32.5 44.1875 29.09375 39.84375 
C 26.09375 36 22.703125 36 19.40625 35.6875 
C 18.90625 35.6875 16.59375 35.453125 16.203125 35.453125 
C 15.5 35.359375 15.09375 35.265625 15.09375 34.5 
C 15.09375 33.796875 15.203125 33.703125 17.203125 33.703125 
z
" id="CMR17-51"/>
       </defs>
       <use transform="scale(0.996264)" xlink:href="#CMR17-51"/>
      </g>
     </g>
    </g>
    <g id="text_5">
     <!-- $z$ -->
     <g transform="translate(211.546828 262.911936)scale(0.18 -0.18)">
      <defs>
       <path d="M 12.703125 7.59375 
C 17 12.546875 20.5 15.6875 25.5 20.25 
C 31.5 25.5 34.09375 28.015625 35.5 29.546875 
C 42.5 36.53125 46 42.390625 46 43.1875 
C 46 44 45.203125 44 45 44 
C 44.296875 44 44.09375 43.640625 43.59375 42.96875 
C 41.09375 38.96875 38.703125 36.984375 36.09375 36.984375 
C 34 36.984375 32.90625 37.828125 31 40.078125 
C 28.90625 42.421875 27.203125 44 24.296875 44 
C 17 44 12.59375 35.265625 12.59375 33.25 
C 12.59375 32.9375 12.703125 32.3125 13.59375 32.3125 
C 14.40625 32.3125 14.5 32.671875 14.796875 33.328125 
C 16.5 37.0625 21.296875 37.71875 23.203125 37.71875 
C 25.296875 37.71875 27.296875 37.125 29.40625 36.359375 
C 33.203125 35 34.796875 35 35.796875 35 
C 36.5 35 36.90625 35 37.40625 35.09375 
C 34.09375 31.15625 28.703125 26.296875 24.203125 22.15625 
L 14.09375 12.75 
C 8 6.484375 4.296875 0.515625 4.296875 -0.1875 
C 4.296875 -0.796875 4.796875 -1 5.40625 -1 
C 6 -1 6.09375 -0.890625 6.796875 0.21875 
C 8.40625 2.546875 11.59375 6 15.296875 6 
C 17.40625 6 18.40625 5.34375 20.40625 3.015625 
C 22.296875 0.953125 24 -1 27.203125 -1 
C 37 -1 42.59375 11.4375 42.59375 13.6875 
C 42.59375 14.109375 42.5 14.71875 41.5 14.71875 
C 40.703125 14.71875 40.59375 14.328125 40.296875 13.359375 
C 38.09375 7.625 32.203125 5.28125 28.296875 5.28125 
C 26.203125 5.28125 24.203125 5.875 22.09375 6.640625 
C 18.09375 8 17 8 15.703125 8 
C 14.703125 8 13.59375 8 12.703125 7.59375 
z
" id="CMMI12-122"/>
      </defs>
      <use transform="scale(0.996264)" xlink:href="#CMMI12-122"/>
     </g>
    </g>
   </g>
   <g id="matplotlib.axis_2">
    <g id="ytick_1">
     <g id="line2d_9">
      <path clip-path="url(#pf8b885aa73)" d="M 85.775409 223.517271 
L 345.475082 223.517271 
" style="fill:none;stroke:#b0b0b0;stroke-linecap:square;stroke-width:0.8;"/>
     </g>
     <g id="line2d_10">
      <defs>
       <path d="M 0 0 
L -3.5 0 
" id="mff09fe642e" style="stroke:#000000;stroke-width:0.8;"/>
      </defs>
      <g>
       <use style="stroke:#000000;stroke-width:0.8;" x="85.775409" xlink:href="#mff09fe642e" y="223.517271"/>
      </g>
     </g>
     <g id="text_6">
      <!-- $\mathdefault{−2.0}$ -->
      <g transform="translate(43.501604 229.743921)scale(0.18 -0.18)">
       <defs>
        <path d="M 65.90625 23 
C 67.59375 23 69.40625 23 69.40625 25 
C 69.40625 27 67.59375 27 65.90625 27 
L 11.796875 27 
C 10.09375 27 8.296875 27 8.296875 25 
C 8.296875 23 10.09375 23 11.796875 23 
z
" id="CMSY10-0"/>
        <path d="M 18.40625 4.796875 
C 18.40625 7.6875 16 9.671875 13.59375 9.671875 
C 10.703125 9.671875 8.703125 7.28125 8.703125 4.890625 
C 8.703125 2 11.09375 0 13.5 0 
C 16.40625 0 18.40625 2.390625 18.40625 4.796875 
z
" id="CMMI12-58"/>
       </defs>
       <use transform="scale(0.996264)" xlink:href="#CMSY10-0"/>
       <use transform="translate(77.487468 0)scale(0.996264)" xlink:href="#CMR17-50"/>
       <use transform="translate(123.177945 0)scale(0.996264)" xlink:href="#CMMI12-58"/>
       <use transform="translate(150.275122 0)scale(0.996264)" xlink:href="#CMR17-48"/>
      </g>
     </g>
    </g>
    <g id="ytick_2">
     <g id="line2d_11">
      <path clip-path="url(#pf8b885aa73)" d="M 85.775409 174.594616 
L 345.475082 174.594616 
" style="fill:none;stroke:#b0b0b0;stroke-linecap:square;stroke-width:0.8;"/>
     </g>
     <g id="line2d_12">
      <g>
       <use style="stroke:#000000;stroke-width:0.8;" x="85.775409" xlink:href="#mff09fe642e" y="174.594616"/>
      </g>
     </g>
     <g id="text_7">
      <!-- $\mathdefault{−1.5}$ -->
      <g transform="translate(43.501604 180.821266)scale(0.18 -0.18)">
       <defs>
        <path d="M 11.40625 57.6875 
C 12.40625 57.28125 16.5 56 20.703125 56 
C 30 56 35.09375 61.109375 38 64.0625 
C 38 64.953125 38 65.5 37.40625 65.5 
C 37.296875 65.5 37.09375 65.5 36.296875 65.046875 
C 32.796875 63.40625 28.703125 62.078125 23.703125 62.078125 
C 20.703125 62.078125 16.203125 62.484375 11.296875 64.671875 
C 10.203125 65.171875 10 65.171875 9.90625 65.171875 
C 9.40625 65.171875 9.296875 65.0625 9.296875 63.078125 
L 9.296875 34.421875 
C 9.296875 32.640625 9.296875 32.140625 10.296875 32.140625 
C 10.796875 32.140625 11 32.34375 11.5 33.03125 
C 14.703125 37.515625 19.09375 39.40625 24.09375 39.40625 
C 27.59375 39.40625 35.09375 37.21875 35.09375 20.140625 
C 35.09375 16.953125 35.09375 11.171875 32.09375 6.578125 
C 29.59375 2.484375 25.703125 0.390625 21.40625 0.390625 
C 14.796875 0.390625 8.09375 5 6.296875 12.71875 
C 6.703125 12.609375 7.5 12.421875 7.90625 12.421875 
C 9.203125 12.421875 11.703125 13.125 11.703125 16.21875 
C 11.703125 18.90625 9.796875 20 7.90625 20 
C 5.59375 20 4.09375 18.59375 4.09375 15.796875 
C 4.09375 7.09375 11 -2 21.59375 -2 
C 31.90625 -2 41.703125 6.875 41.703125 19.75 
C 41.703125 31.71875 33.90625 41 24.203125 41 
C 19.09375 41 14.796875 39.109375 11.40625 35.53125 
z
" id="CMR17-53"/>
       </defs>
       <use transform="scale(0.996264)" xlink:href="#CMSY10-0"/>
       <use transform="translate(77.487468 0)scale(0.996264)" xlink:href="#CMR17-49"/>
       <use transform="translate(123.177945 0)scale(0.996264)" xlink:href="#CMMI12-58"/>
       <use transform="translate(150.275122 0)scale(0.996264)" xlink:href="#CMR17-53"/>
      </g>
     </g>
    </g>
    <g id="ytick_3">
     <g id="line2d_13">
      <path clip-path="url(#pf8b885aa73)" d="M 85.775409 125.671961 
L 345.475082 125.671961 
" style="fill:none;stroke:#b0b0b0;stroke-linecap:square;stroke-width:0.8;"/>
     </g>
     <g id="line2d_14">
      <g>
       <use style="stroke:#000000;stroke-width:0.8;" x="85.775409" xlink:href="#mff09fe642e" y="125.671961"/>
      </g>
     </g>
     <g id="text_8">
      <!-- $\mathdefault{−1.0}$ -->
      <g transform="translate(43.501604 131.898611)scale(0.18 -0.18)">
       <use transform="scale(0.996264)" xlink:href="#CMSY10-0"/>
       <use transform="translate(77.487468 0)scale(0.996264)" xlink:href="#CMR17-49"/>
       <use transform="translate(123.177945 0)scale(0.996264)" xlink:href="#CMMI12-58"/>
       <use transform="translate(150.275122 0)scale(0.996264)" xlink:href="#CMR17-48"/>
      </g>
     </g>
    </g>
    <g id="ytick_4">
     <g id="line2d_15">
      <path clip-path="url(#pf8b885aa73)" d="M 85.775409 76.749305 
L 345.475082 76.749305 
" style="fill:none;stroke:#b0b0b0;stroke-linecap:square;stroke-width:0.8;"/>
     </g>
     <g id="line2d_16">
      <g>
       <use style="stroke:#000000;stroke-width:0.8;" x="85.775409" xlink:href="#mff09fe642e" y="76.749305"/>
      </g>
     </g>
     <g id="text_9">
      <!-- $\mathdefault{−0.5}$ -->
      <g transform="translate(43.501604 82.975955)scale(0.18 -0.18)">
       <use transform="scale(0.996264)" xlink:href="#CMSY10-0"/>
       <use transform="translate(77.487468 0)scale(0.996264)" xlink:href="#CMR17-48"/>
       <use transform="translate(123.177945 0)scale(0.996264)" xlink:href="#CMMI12-58"/>
       <use transform="translate(150.275122 0)scale(0.996264)" xlink:href="#CMR17-53"/>
      </g>
     </g>
    </g>
    <g id="ytick_5">
     <g id="line2d_17">
      <path clip-path="url(#pf8b885aa73)" d="M 85.775409 27.82665 
L 345.475082 27.82665 
" style="fill:none;stroke:#b0b0b0;stroke-linecap:square;stroke-width:0.8;"/>
     </g>
     <g id="line2d_18">
      <g>
       <use style="stroke:#000000;stroke-width:0.8;" x="85.775409" xlink:href="#mff09fe642e" y="27.82665"/>
      </g>
     </g>
     <g id="text_10">
      <!-- $\mathdefault{0.0}$ -->
      <g transform="translate(57.449345 34.0533)scale(0.18 -0.18)">
       <use transform="scale(0.996264)" xlink:href="#CMR17-48"/>
       <use transform="translate(45.690477 0)scale(0.996264)" xlink:href="#CMMI12-58"/>
       <use transform="translate(72.787654 0)scale(0.996264)" xlink:href="#CMR17-48"/>
      </g>
     </g>
    </g>
    <g id="text_11">
     <!-- $\omega(z)$ -->
     <g transform="translate(35.03342 142.28909)rotate(-90)scale(0.18 -0.18)">
      <defs>
       <path d="M 59.40625 37.421875 
C 59.40625 40.3125 58.59375 44 55.09375 44 
C 53.09375 44 50.796875 41.515625 50.796875 39.515625 
C 50.796875 38.625 51.203125 38.03125 52 37.125 
C 53.5 35.4375 55.40625 32.75 55.40625 28.078125 
C 55.40625 24.484375 53.203125 18.8125 51.59375 15.734375 
C 48.796875 10.25 44.203125 5.578125 39 5.578125 
C 32.703125 5.578125 30.296875 9.609375 29.203125 15.234375 
C 30.296875 17.859375 32.59375 24.375 32.59375 27 
C 32.59375 28.09375 32.203125 29 30.90625 29 
C 30.203125 29 29.40625 28.609375 28.90625 27.796875 
C 27.5 25.59375 26.203125 17.640625 26.296875 15.53125 
C 24.40625 11.8125 19 5.578125 12.59375 5.578125 
C 5.90625 5.578125 4.09375 11.453125 4.09375 17.125 
C 4.09375 27.46875 10.59375 36.53125 12.40625 39.015625 
C 13.40625 40.515625 14.09375 41.515625 14.09375 41.703125 
C 14.09375 42.40625 13.703125 43.5 12.796875 43.5 
C 11.203125 43.5 10.703125 42.203125 9.90625 41.015625 
C 4.796875 33.140625 1.203125 22.09375 1.203125 12.546875 
C 1.203125 6.375 3.5 -1 11 -1 
C 19.296875 -1 24.5 6.109375 26.59375 9.90625 
C 27.40625 4.296875 30.40625 -1 37.703125 -1 
C 45.296875 -1 50.09375 5.671875 53.703125 13.734375 
C 56.296875 19.515625 59.40625 31.953125 59.40625 37.421875 
z
" id="CMMI12-33"/>
       <path d="M 30.59375 -24.390625 
C 30.59375 -24.296875 30.59375 -24.09375 30.296875 -23.796875 
C 25.703125 -19.125 13.40625 -6.359375 13.40625 24.703125 
C 13.40625 55.765625 25.5 68.421875 30.40625 73.390625 
C 30.40625 73.5 30.59375 73.703125 30.59375 74 
C 30.59375 74.296875 30.296875 74.5 29.90625 74.5 
C 28.796875 74.5 20.296875 67.125 15.40625 56.15625 
C 10.40625 45.109375 9 34.359375 9 24.8125 
C 9 17.625 9.703125 5.484375 15.703125 -7.359375 
C 20.5 -17.734375 28.703125 -25 29.90625 -25 
C 30.40625 -25 30.59375 -24.796875 30.59375 -24.390625 
z
" id="CMR17-40"/>
       <path d="M 26.296875 24.703125 
C 26.296875 31.875 25.59375 44.015625 19.59375 56.859375 
C 14.796875 67.234375 6.59375 74.5 5.40625 74.5 
C 5.09375 74.5 4.703125 74.390625 4.703125 73.890625 
C 4.703125 73.703125 4.796875 73.59375 4.90625 73.390625 
C 9.703125 68.40625 21.90625 55.75 21.90625 24.75 
C 21.90625 -6.359375 9.796875 -19.015625 4.90625 -24.015625 
C 4.796875 -24.203125 4.703125 -24.3125 4.703125 -24.5 
C 4.703125 -25 5.09375 -25 5.40625 -25 
C 6.5 -25 15 -17.625 19.90625 -6.65625 
C 24.90625 4.390625 26.296875 15.140625 26.296875 24.703125 
z
" id="CMR17-41"/>
      </defs>
      <use transform="scale(0.996264)" xlink:href="#CMMI12-33"/>
      <use transform="translate(64.318346 0)scale(0.996264)" xlink:href="#CMR17-40"/>
      <use transform="translate(99.599114 0)scale(0.996264)" xlink:href="#CMMI12-122"/>
      <use transform="translate(149.354259 0)scale(0.996264)" xlink:href="#CMR17-41"/>
     </g>
    </g>
   </g>
   <g id="LineCollection_1">
    <path clip-path="url(#pf8b885aa73)" d="M 85.775409 125.671961 
L 345.475082 125.671961 
" style="fill:none;stroke:#0000ff;stroke-dasharray:14.8,6.4;stroke-dashoffset:0;stroke-width:4;"/>
   </g>
   <g id="patch_3">
    <path d="M 85.775409 223.517271 
L 85.775409 27.82665 
" style="fill:none;stroke:#000000;stroke-linecap:square;stroke-linejoin:miter;stroke-width:0.8;"/>
   </g>
   <g id="patch_4">
    <path d="M 345.475082 223.517271 
L 345.475082 27.82665 
" style="fill:none;stroke:#000000;stroke-linecap:square;stroke-linejoin:miter;stroke-width:0.8;"/>
   </g>
   <g id="patch_5">
    <path d="M 85.775409 223.517271 
L 345.475082 223.517271 
" style="fill:none;stroke:#000000;stroke-linecap:square;stroke-linejoin:miter;stroke-width:0.8;"/>
   </g>
   <g id="patch_6">
    <path d="M 85.775409 27.82665 
L 345.475082 27.82665 
" style="fill:none;stroke:#000000;stroke-linecap:square;stroke-linejoin:miter;stroke-width:0.8;"/>
   </g>
   <g id="text_12">
    <!--  BAO+HD+SN with $\beta &gt; 0$ -->
    <g transform="translate(86.641075 194.163678)scale(0.13 -0.13)">
     <defs>
      <path d="M 8.90625 69 
L 8.90625 0 
L 33.796875 0 
C 47.40625 0 57.296875 8.96875 57.296875 18.75 
C 57.296875 26.328125 50.796875 34 39.09375 36.203125 
C 52.09375 39.96875 54.703125 47.5 54.703125 51.765625 
C 54.703125 60.671875 44.90625 69 31.203125 69 
z
M 17 39 
L 17 63.421875 
L 28.5 63.421875 
C 38.796875 63.421875 46.90625 58.1875 46.90625 51.65625 
C 46.90625 45.71875 40.5 39 27.59375 39 
z
M 17 5.578125 
L 17 32.921875 
L 30.296875 32.921875 
C 41.09375 32.921875 49.40625 26.234375 49.40625 18.84375 
C 49.40625 12.0625 42.09375 5.578125 31 5.578125 
z
" id="CMSS17-66"/>
      <path d="M 35.5 69 
L 26.90625 69 
L 2.59375 0 
L 10.203125 0 
L 17.203125 20 
L 44 20 
L 51.09375 0 
L 59.796875 0 
z
M 42.09375 25.578125 
L 19.09375 25.578125 
C 23.90625 39.5 29.90625 56.84375 30.59375 61.328125 
L 30.703125 61.328125 
C 31.40625 57.234375 33.40625 51.265625 35.09375 46.1875 
z
" id="CMSS17-65"/>
      <path d="M 64 34.03125 
C 64 54.734375 50.296875 70.265625 34.59375 70.265625 
C 18.90625 70.265625 5.203125 54.640625 5.203125 34.03125 
C 5.203125 13.234375 19.09375 -2 34.59375 -2 
C 50.09375 -2 64 13.234375 64 34.03125 
z
M 34.59375 4.265625 
C 23.59375 4.265625 13.59375 16.515625 13.59375 35.328125 
C 13.59375 53.640625 24.203125 64 34.59375 64 
C 45 64 55.59375 53.640625 55.59375 35.328125 
C 55.59375 16.421875 45.5 4.265625 34.59375 4.265625 
z
" id="CMSS17-79"/>
      <path d="M 38.296875 23.515625 
L 64.703125 23.515625 
C 66.09375 23.515625 67.796875 23.515625 67.796875 25.203125 
C 67.796875 27 66.203125 27 64.703125 27 
L 38.296875 27 
L 38.296875 53.328125 
C 38.296875 54.71875 38.296875 56.421875 36.59375 56.421875 
C 34.796875 56.421875 34.796875 54.828125 34.796875 53.328125 
L 34.796875 27 
L 8.296875 27 
C 6.90625 27 5.203125 27 5.203125 25.3125 
C 5.203125 23.515625 6.796875 23.515625 8.296875 23.515625 
L 34.796875 23.515625 
L 34.796875 -2.90625 
C 34.796875 -4.296875 34.796875 -6 36.5 -6 
C 38.296875 -6 38.296875 -4.40625 38.296875 -2.90625 
z
" id="CMSS17-43"/>
      <path d="M 57.40625 69 
L 49 69 
L 49 39.078125 
L 17.203125 39.078125 
L 17.203125 69 
L 8.796875 69 
L 8.796875 0 
L 17.203125 0 
L 17.203125 33 
L 49 33 
L 49 0 
L 57.40625 0 
z
" id="CMSS17-72"/>
      <path d="M 8.90625 69 
L 8.90625 0 
L 33.5 0 
C 49.90625 0 62.5 15.3125 62.5 33.90625 
C 62.5 53.09375 49.90625 69 33.5 69 
z
M 17.09375 5.578125 
L 17.09375 63.421875 
L 31.296875 63.421875 
C 44.703125 63.421875 54.296875 51.203125 54.296875 33.90625 
C 54.296875 17.296875 44.796875 5.578125 31.296875 5.578125 
z
" id="CMSS17-68"/>
      <path d="M 43.703125 65.140625 
C 39.296875 67.71875 34.5 70 26.40625 70 
C 13.5 70 5.203125 60.609375 5.203125 51.03125 
C 5.203125 47.265625 6.296875 43.015625 10.203125 38.671875 
C 14.09375 34.3125 18.5 33.140625 24.09375 31.765625 
C 26.40625 31.15625 30.296875 30.0625 31 29.78125 
C 36.59375 27.609375 39.296875 22.5625 39.296875 17.8125 
C 39.296875 11.59375 34.40625 4.96875 25.703125 4.96875 
C 22.703125 4.96875 13.90625 4.96875 5.59375 12.796875 
L 4.203125 4.96875 
C 12.40625 -1 21.296875 -2 25.796875 -2 
C 38.09375 -2 46.90625 7.625 46.90625 18.53125 
C 46.90625 22.5 45.703125 27.546875 41.5 32.203125 
C 37.40625 36.671875 33.796875 37.65625 25.59375 39.828125 
C 20.90625 41.03125 17.90625 41.828125 15.40625 44.890625 
C 13.703125 47.078125 12.796875 49.15625 12.796875 51.828125 
C 12.796875 57.390625 17.59375 63.4375 26.40625 63.4375 
C 30.796875 63.4375 36.5 62.53125 42.296875 57.1875 
z
" id="CMSS17-83"/>
      <path d="M 22.90625 65.3125 
L 21.09375 69 
L 8.796875 69 
L 8.796875 0 
L 16.59375 0 
L 16.59375 61.34375 
L 16.703125 61.4375 
C 17.40625 59.640625 17.796875 58.75 21.90625 49.90625 
L 43.296875 3.6875 
L 45.09375 0 
L 57.40625 0 
L 57.40625 69 
L 49.59375 69 
L 49.59375 7.65625 
L 49.5 7.546875 
C 48.796875 9.34375 48.40625 10.234375 44.296875 19.078125 
z
" id="CMSS17-78"/>
      <path d="M 62.703125 43 
L 55.09375 43 
L 49.796875 25.015625 
C 48.703125 21.21875 45.59375 10.703125 45.203125 5.796875 
L 45.09375 5.796875 
C 44.90625 8.8125 43.203125 16 40.40625 25.515625 
L 35.296875 43 
L 28.40625 43 
L 23.40625 25.90625 
C 20.90625 17.203125 19 9.796875 18.796875 5.796875 
L 18.703125 5.796875 
C 18.296875 11.703125 14.203125 25.515625 13.59375 27.703125 
L 9.09375 43 
L 1.296875 43 
L 14.296875 0 
L 21.90625 0 
C 27.09375 17.125 31.09375 30.359375 31.40625 37.03125 
C 31.59375 33.75 33.296875 26.671875 34.296875 23.1875 
L 40.90625 0 
L 49.703125 0 
z
" id="CMSS17-119"/>
      <path d="M 15.296875 65.359375 
L 6.90625 65.359375 
L 6.90625 57 
L 15.296875 57 
z
M 14.796875 42.796875 
L 7.40625 42.796875 
L 7.40625 0 
L 14.796875 0 
z
" id="CMSS17-105"/>
      <path d="M 16.703125 37 
L 29.703125 37 
L 29.703125 42.765625 
L 16.703125 42.765625 
L 16.703125 55 
L 9.59375 55 
L 9.59375 42.765625 
L 1.703125 42.765625 
L 1.703125 37 
L 9.40625 37 
L 9.40625 11.703125 
C 9.40625 6 10.703125 -1 17.296875 -1 
C 22.296875 -1 26.90625 0.390625 31.296875 2.6875 
L 29.703125 8.5625 
C 27.296875 6.46875 24.40625 5.265625 21.296875 5.265625 
C 16.90625 5.265625 16.703125 10.875 16.703125 13.375 
z
" id="CMSS17-116"/>
      <path d="M 40.90625 29.546875 
C 40.90625 35.8125 39.40625 44.0625 28.09375 44.0625 
C 21.796875 44.0625 17.703125 40.984375 14.796875 37.609375 
L 14.796875 69.5 
L 7.40625 69.5 
L 7.40625 0.5 
L 15 0.5 
L 15 24.578125 
C 15 30.828125 17.40625 38 24.203125 38 
C 33 38 33.296875 32.125 33.296875 28.734375 
L 33.296875 0.5 
L 40.90625 0.5 
z
" id="CMSS17-104"/>
      <path d="M 56.59375 57.828125 
C 56.59375 63.765625 51.5 70 42.40625 70 
C 29.5 70 21.296875 54.328125 18.703125 44 
L 2.90625 -18.3125 
C 2.703125 -19.109375 3.296875 -19.3125 3.796875 -19.3125 
C 4.5 -19.3125 5 -19.21875 5.09375 -18.71875 
L 12.09375 9.15625 
C 13.09375 3.578125 18.59375 -1 24.5 -1 
C 38.796875 -1 52.296875 10.15625 52.296875 24.984375 
C 52.296875 28.765625 51.40625 32.546875 49.296875 35.734375 
C 48.09375 37.625 46.59375 39.015625 45 40.21875 
C 52.203125 43.984375 56.59375 50 56.59375 57.828125 
z
M 39.203125 40.3125 
C 37.59375 39.71875 36 39.515625 34.09375 39.515625 
C 32.703125 39.515625 31.40625 39.421875 29.59375 40.015625 
C 30.59375 40.71875 32.09375 40.90625 34.203125 40.90625 
C 36 40.90625 37.796875 40.71875 39.203125 40.3125 
z
M 51.40625 58.71875 
C 51.40625 53.28125 48.703125 45.359375 42.203125 41.703125 
C 40.296875 42.46875 37.703125 43 35.5 43 
C 33.40625 43 27.40625 43 27.40625 39.921875 
C 27.40625 37.328125 32.90625 37.328125 34.59375 37.328125 
C 37.203125 37.328125 39.5 38 41.90625 38.8125 
C 45.09375 36.21875 46.5 32.828125 46.5 27.859375 
C 46.5 22.078125 44.90625 17.421875 43 13.140625 
C 39.703125 5.765625 31.90625 1 25 1 
C 17.703125 1 13.90625 6.75 13.90625 13.5 
C 13.90625 14.40625 13.90625 15.703125 14.296875 17.171875 
L 20.796875 43.296875 
C 24.09375 56.296875 32.5 68.015625 42.203125 68.015625 
C 49.40625 68.015625 51.40625 63.0625 51.40625 58.71875 
z
" id="CMMI12-12"/>
      <path d="M 65.90625 22.640625 
C 67.796875 23.546875 67.90625 24.140625 67.90625 24.84375 
C 67.90625 25.4375 67.703125 26.140625 65.90625 26.953125 
L 11.796875 51.90625 
C 10.5 52.5 10.296875 52.5 10.09375 52.5 
C 8.90625 52.5 8.203125 51.5 8.203125 50.703125 
C 8.203125 49.5 9 49.09375 10.296875 48.5 
L 61.703125 24.84375 
L 10.203125 1.015625 
C 8.203125 0.09375 8.203125 -0.609375 8.203125 -1.203125 
C 8.203125 -2 8.90625 -3 10.09375 -3 
C 10.296875 -3 10.40625 -2.890625 11.796875 -2.296875 
z
" id="CMMI12-62"/>
     </defs>
     <use transform="scale(0.996264)" xlink:href="#CMSS17-66"/>
     <use transform="translate(62.33804 0)scale(0.996264)" xlink:href="#CMSS17-65"/>
     <use transform="translate(121.953441 0)scale(0.996264)" xlink:href="#CMSS17-79"/>
     <use transform="translate(190.977697 0)scale(0.996264)" xlink:href="#CMSS17-43"/>
     <use transform="translate(263.845631 0)scale(0.996264)" xlink:href="#CMSS17-72"/>
     <use transform="translate(329.907151 0)scale(0.996264)" xlink:href="#CMSS17-68"/>
     <use transform="translate(397.449992 0)scale(0.996264)" xlink:href="#CMSS17-43"/>
     <use transform="translate(470.317927 0)scale(0.996264)" xlink:href="#CMSS17-83"/>
     <use transform="translate(522.366443 0)scale(0.996264)" xlink:href="#CMSS17-78"/>
     <use transform="translate(619.657075 0)scale(0.996264)" xlink:href="#CMSS17-119"/>
     <use transform="translate(683.47662 0)scale(0.996264)" xlink:href="#CMSS17-105"/>
     <use transform="translate(705.657343 0)scale(0.996264)" xlink:href="#CMSS17-116"/>
     <use transform="translate(739.48891 0)scale(0.996264)" xlink:href="#CMSS17-104"/>
     <use transform="translate(818.922966 0)scale(0.996264)" xlink:href="#CMMI12-12"/>
     <use transform="translate(907.19099 0)scale(0.996264)" xlink:href="#CMMI12-62"/>
     <use transform="translate(1010.737095 0)scale(0.996264)" xlink:href="#CMR17-48"/>
    </g>
   </g>
  </g>
  <g id="axes_2">
   <g id="patch_7">
    <path clip-path="url(#pad5ffbac20)" d="M 361.706311 223.517271 
L 361.706311 184.379147 
L 361.706311 66.964774 
L 361.706311 27.82665 
L 371.490842 27.82665 
L 371.490842 66.964774 
L 371.490842 184.379147 
L 371.490842 223.517271 
z
" style="fill:#ffffff;stroke:#ffffff;stroke-linejoin:miter;stroke-width:0.01;"/>
   </g>
   <g id="QuadMesh_1">
    <path clip-path="url(#pad5ffbac20)" d="M 361.706311 223.517271 
L 371.490842 223.517271 
L 371.490842 184.379147 
L 361.706311 184.379147 
L 361.706311 223.517271 
" style="fill:#006428;"/>
    <path clip-path="url(#pad5ffbac20)" d="M 361.706311 184.379147 
L 371.490842 184.379147 
L 371.490842 145.241023 
L 361.706311 145.241023 
L 361.706311 184.379147 
" style="fill:#2f974e;"/>
    <path clip-path="url(#pad5ffbac20)" d="M 361.706311 145.241023 
L 371.490842 145.241023 
L 371.490842 106.102899 
L 361.706311 106.102899 
L 361.706311 145.241023 
" style="fill:#75c477;"/>
    <path clip-path="url(#pad5ffbac20)" d="M 361.706311 106.102899 
L 371.490842 106.102899 
L 371.490842 66.964774 
L 361.706311 66.964774 
L 361.706311 106.102899 
" style="fill:#b8e3b2;"/>
    <path clip-path="url(#pad5ffbac20)" d="M 361.706311 66.964774 
L 371.490842 66.964774 
L 371.490842 27.82665 
L 361.706311 27.82665 
L 361.706311 66.964774 
" style="fill:#e9f7e5;"/>
   </g>
   <g id="matplotlib.axis_3"/>
   <g id="matplotlib.axis_4">
    <g id="ytick_6">
     <g id="line2d_19">
      <defs>
       <path d="M 0 0 
L 3.5 0 
" id="m555aad0a6e" style="stroke:#000000;stroke-width:0.8;"/>
      </defs>
      <g>
       <use style="stroke:#000000;stroke-width:0.8;" x="371.490842" xlink:href="#m555aad0a6e" y="223.517271"/>
      </g>
     </g>
    </g>
    <g id="ytick_7">
     <g id="line2d_20">
      <g>
       <use style="stroke:#000000;stroke-width:0.8;" x="371.490842" xlink:href="#m555aad0a6e" y="145.241023"/>
      </g>
     </g>
     <g id="text_13">
      <!-- $1\sigma$ -->
      <g transform="translate(378.490842 151.467673)scale(0.18 -0.18)">
       <defs>
        <path d="M 50.796875 37.625 
C 52.09375 37.625 55.40625 37.625 55.40625 40.8125 
C 55.40625 43 53.5 43 51.703125 43 
L 29.59375 43 
C 14.59375 43 3.796875 26.34375 3.796875 14.5625 
C 3.796875 6.09375 9.296875 -1 18.296875 -1 
C 30.09375 -1 43 11.671875 43 26.640625 
C 43 30.53125 42.09375 34.3125 39.703125 37.625 
z
M 18.40625 1 
C 13.296875 1 9.59375 4.890625 9.59375 11.78125 
C 9.59375 17.765625 13.203125 37.625 27.90625 37.625 
C 32.203125 37.625 37 35.53125 37 27.828125 
C 37 24.34375 35.40625 15.953125 31.90625 10.1875 
C 28.296875 4.296875 22.90625 1 18.40625 1 
z
" id="CMMI12-27"/>
       </defs>
       <use transform="scale(0.996264)" xlink:href="#CMR17-49"/>
       <use transform="translate(45.690477 0)scale(0.996264)" xlink:href="#CMMI12-27"/>
      </g>
     </g>
    </g>
    <g id="ytick_8">
     <g id="line2d_21">
      <g>
       <use style="stroke:#000000;stroke-width:0.8;" x="371.490842" xlink:href="#m555aad0a6e" y="66.964774"/>
      </g>
     </g>
     <g id="text_14">
      <!-- $2\sigma$ -->
      <g transform="translate(378.490842 73.191424)scale(0.18 -0.18)">
       <use transform="scale(0.996264)" xlink:href="#CMR17-50"/>
       <use transform="translate(45.690477 0)scale(0.996264)" xlink:href="#CMMI12-27"/>
      </g>
     </g>
    </g>
   </g>
   <g id="patch_8">
    <path d="M 361.706311 223.517271 
L 361.706311 184.379147 
L 361.706311 66.964774 
L 361.706311 27.82665 
L 371.490842 27.82665 
L 371.490842 66.964774 
L 371.490842 184.379147 
L 371.490842 223.517271 
z
" style="fill:none;stroke:#000000;stroke-linejoin:miter;stroke-width:0.8;"/>
   </g>
  </g>
 </g>
 <defs>
  <clipPath id="pf8b885aa73">
   <rect height="195.690621" width="259.699673" x="85.775409" y="27.82665"/>
  </clipPath>
  <clipPath id="pad5ffbac20">
   <rect height="195.690621" width="9.784531" x="361.706311" y="27.82665"/>
  </clipPath>
 </defs>
</svg>
