<?xml version="1.0" encoding="utf-8" standalone="no"?>
<!DOCTYPE svg PUBLIC "-//W3C//DTD SVG 1.1//EN"
  "http://www.w3.org/Graphics/SVG/1.1/DTD/svg11.dtd">
<svg height="360pt" version="1.1" viewBox="0 0 504 360" width="504pt" xmlns="http://www.w3.org/2000/svg" xmlns:xlink="http://www.w3.org/1999/xlink">
 <metadata>
  <rdf:RDF xmlns:cc="http://creativecommons.org/ns#" xmlns:dc="http://purl.org/dc/elements/1.1/" xmlns:rdf="http://www.w3.org/1999/02/22-rdf-syntax-ns#">
   <cc:Work>
    <dc:type rdf:resource="http://purl.org/dc/dcmitype/StillImage"/>
    <dc:date>2022-04-06T11:25:58.678031</dc:date>
    <dc:format>image/svg+xml</dc:format>
    <dc:creator>
     <cc:Agent>
      <dc:title>Matplotlib v3.4.3, https://matplotlib.org/</dc:title>
     </cc:Agent>
    </dc:creator>
   </cc:Work>
  </rdf:RDF>
 </metadata>
 <defs>
  <style type="text/css">*{stroke-linecap:butt;stroke-linejoin:round;}</style>
 </defs>
 <g id="figure_1">
  <g id="patch_1">
   <path d="M 0 360 
L 504 360 
L 504 0 
L 0 0 
z
" style="fill:none;"/>
  </g>
  <g id="axes_1">
   <g id="patch_2">
    <path d="M 62.51 318.04 
L 407.062 318.04 
L 407.062 14.76 
L 62.51 14.76 
z
" style="fill:#ffffff;"/>
   </g>
   <g id="PathCollection_1">
    <path clip-path="url(#pc469f4d124)" d="M 68.450552 236.665453 
L 68.641154 236.056252 
L 69.492388 233.518174 
L 71.495932 230.980097 
L 74.391103 228.886107 
L 74.586721 228.442019 
L 75.159052 225.903941 
L 75.581409 223.365864 
L 75.952715 220.827786 
L 76.295934 218.289708 
L 76.619075 215.751631 
L 76.748268 213.213553 
L 76.698978 210.675475 
L 76.64387 208.137398 
L 76.581951 205.59932 
L 76.512911 203.061242 
L 76.436722 200.523165 
L 76.352067 197.985087 
L 76.252825 195.447009 
L 76.120154 192.908932 
L 75.901633 190.370854 
L 75.436993 187.832776 
L 74.391103 185.704262 
L 73.76524 187.832776 
L 73.010511 190.370854 
L 72.234983 192.908932 
L 71.422282 195.447009 
L 70.5543 197.985087 
L 69.610965 200.523165 
L 68.569052 203.061242 
L 68.450552 203.321994 
L 66.743108 205.59932 
L 64.647937 208.137398 
L 62.51 210.49116 
L 62.51 210.675475 
L 62.51 213.213553 
L 62.51 215.751631 
L 62.51 218.289708 
L 62.51 220.827786 
L 62.51 223.365864 
L 62.51 225.903941 
L 62.51 228.442019 
L 62.51 230.980097 
L 62.51 233.518174 
L 62.51 236.056252 
L 62.51 238.52853 
z
" style="fill:#006d2c;stroke:#006d2c;"/>
    <path clip-path="url(#pc469f4d124)" d="M 80.331655 181.076032 
L 80.536572 180.218543 
L 80.672372 177.680466 
L 80.331655 175.403257 
L 78.818424 177.680466 
L 78.872758 180.218543 
z
" style="fill:#006d2c;stroke:#006d2c;"/>
    <path clip-path="url(#pc469f4d124)" d="M 80.331655 175.024218 
L 81.262122 172.60431 
L 81.761936 170.066233 
L 82.375803 167.528155 
L 83.081707 164.990077 
L 83.835296 162.452 
L 84.601647 159.913922 
L 85.376334 157.375844 
L 86.183215 154.837767 
L 86.272207 154.578291 
L 87.153321 152.299689 
L 88.343705 149.761611 
L 89.738947 147.223534 
L 91.370187 144.685456 
L 92.212759 143.570296 
L 93.199007 142.147379 
L 95.254037 139.609301 
L 97.364206 137.071223 
L 98.15331 136.099127 
L 99.575453 134.533146 
L 102.614195 131.995068 
L 104.093862 131.086963 
L 109.038549 129.45699 
L 110.034414 129.096 
L 115.974966 128.524353 
L 118.048479 129.45699 
L 121.915517 131.292121 
L 123.31262 131.995068 
L 127.856069 134.167471 
L 128.52949 134.533146 
L 133.434391 137.071223 
L 133.796621 137.245669 
L 138.569021 139.609301 
L 139.737172 140.203601 
L 144.242171 142.147379 
L 145.677724 142.780961 
L 150.605348 144.685456 
L 151.618276 145.0677 
L 157.558828 147.083605 
L 157.995814 147.223534 
L 163.499379 148.884515 
L 166.540297 149.761611 
L 169.439931 150.55354 
L 175.380483 152.06174 
L 176.39449 152.299689 
L 181.321034 153.404536 
L 187.261586 154.61199 
L 188.433928 154.837767 
L 193.202138 155.790657 
L 199.14269 156.909034 
L 201.787139 157.375844 
L 205.083241 158.015122 
L 211.023793 159.10317 
L 216.099671 159.913922 
L 216.964345 160.060988 
L 222.904897 161.035393 
L 228.845448 161.892096 
L 233.315351 162.452 
L 234.786 162.628314 
L 240.726552 163.310647 
L 246.667103 163.931443 
L 252.607655 164.483977 
L 258.548207 164.974245 
L 258.754757 164.990077 
L 264.488759 165.337915 
L 270.42931 165.666134 
L 276.369862 165.960208 
L 282.310414 166.221437 
L 288.250966 166.452462 
L 294.191517 166.655535 
L 300.132069 166.829217 
L 306.072621 167.102859 
L 312.013172 167.240652 
L 317.953724 167.30501 
L 323.894276 167.373941 
L 329.834828 167.452684 
L 334.490235 167.528155 
L 335.775379 167.538264 
L 341.715931 167.57947 
L 347.656483 167.614221 
L 353.597034 167.640886 
L 359.537586 167.662198 
L 365.478138 167.679595 
L 371.41869 167.692874 
L 377.359241 167.701499 
L 383.299793 167.853545 
L 389.240345 167.942206 
L 395.180897 167.983226 
L 401.121448 168.010673 
L 407.062 168.028584 
L 413.002552 168.037664 
L 418.943103 168.055267 
L 424.883655 168.030744 
L 424.883655 167.528155 
L 424.883655 164.990077 
L 424.883655 164.257231 
L 418.943103 164.255095 
L 413.002552 164.246522 
L 407.062 164.230379 
L 401.121448 164.202047 
L 395.180897 164.158034 
L 389.240345 164.092151 
L 383.299793 164.023177 
L 377.359241 163.619339 
L 371.41869 163.068201 
L 366.233696 162.452 
L 365.478138 162.425031 
L 359.537586 162.205379 
L 353.597034 161.978663 
L 347.656483 161.377701 
L 341.715931 161.041926 
L 335.775379 160.794805 
L 329.834828 160.579077 
L 323.894276 160.395454 
L 317.953724 160.218154 
L 312.013172 159.9666 
L 311.02489 159.913922 
L 306.072621 159.552347 
L 300.132069 159.103495 
L 294.191517 158.617804 
L 288.250966 158.087706 
L 282.310414 157.654132 
L 278.713611 157.375844 
L 276.369862 157.112958 
L 270.42931 156.387796 
L 264.488759 155.709751 
L 258.548207 155.062645 
L 256.959626 154.837767 
L 252.607655 154.113156 
L 246.667103 153.26277 
L 240.841816 152.299689 
L 240.726552 152.276383 
L 234.786 151.145213 
L 228.845448 149.954896 
L 228.008122 149.761611 
L 222.904897 148.652251 
L 217.396583 147.223534 
L 216.964345 147.103202 
L 211.023793 145.65132 
L 207.690135 144.685456 
L 205.083241 143.938002 
L 199.359438 142.147379 
L 199.14269 142.075285 
L 193.202138 140.27028 
L 191.117852 139.609301 
L 187.261586 138.339292 
L 183.502807 137.071223 
L 181.321034 136.288159 
L 176.525019 134.533146 
L 175.380483 134.085695 
L 170.165679 131.995068 
L 169.439931 131.685307 
L 164.339085 129.45699 
L 163.499379 129.06555 
L 158.904439 126.918913 
L 157.558828 126.249541 
L 153.836903 124.380835 
L 151.618276 123.215433 
L 149.06695 121.842757 
L 145.677724 119.949705 
L 144.515838 119.30468 
L 140.27969 116.766602 
L 139.737172 116.43162 
L 136.153595 114.228524 
L 133.796621 112.747512 
L 132.011266 111.690447 
L 127.856069 109.361098 
L 127.397183 109.152369 
L 121.915517 106.884389 
L 120.480513 106.614291 
L 115.974966 105.806206 
L 114.209361 106.614291 
L 110.034414 109.015515 
L 109.845095 109.152369 
L 105.714748 111.690447 
L 104.093862 112.606017 
L 102.24494 114.228524 
L 98.427439 116.766602 
L 98.15331 116.917975 
L 93.43997 119.30468 
L 92.212759 120.222839 
L 88.781629 121.842757 
L 86.272207 122.977843 
L 85.58814 124.380835 
L 84.550363 126.918913 
L 83.608912 129.45699 
L 82.711686 131.995068 
L 81.773309 134.533146 
L 80.331655 135.901381 
L 79.518156 137.071223 
L 78.945907 139.609301 
L 78.524615 142.147379 
L 78.142201 144.685456 
L 77.782417 147.223534 
L 77.442462 149.761611 
L 77.122893 152.299689 
L 77.156701 154.837767 
L 77.238753 157.375844 
L 77.346608 159.913922 
L 77.485162 162.452 
L 77.657604 164.990077 
L 77.862602 167.528155 
L 78.096106 170.066233 
L 78.364462 172.60431 
z
" style="fill:#006d2c;stroke:#006d2c;"/>
   </g>
   <g id="PathCollection_2">
    <defs>
     <path d="M 63.112233 -111.25336 
L 65.375458 -113.791437 
L 68.450552 -115.876942 
L 68.698295 -116.329515 
L 70.56891 -118.867593 
L 71.82787 -121.40567 
L 72.854427 -123.943748 
L 74.117888 -126.481826 
L 74.391103 -126.703589 
L 76.049127 -129.019903 
L 76.99478 -131.557981 
L 77.513843 -134.096059 
L 77.930015 -136.634136 
L 78.306265 -139.172214 
L 78.658482 -141.710292 
L 78.993134 -144.248369 
L 79.260459 -146.786447 
L 79.503179 -149.324525 
L 79.794815 -151.862602 
L 80.152589 -154.40068 
L 80.331655 -155.48822 
L 80.608134 -156.938758 
L 81.087068 -159.476835 
L 81.564889 -162.014913 
L 82.043975 -164.552991 
L 82.525569 -167.091068 
L 83.009721 -169.629146 
L 83.496767 -172.167224 
L 83.989718 -174.705301 
L 84.496374 -177.243379 
L 85.093801 -179.781457 
L 85.633011 -182.319534 
L 86.272207 -184.83068 
L 86.278429 -184.857612 
L 86.875089 -187.39569 
L 87.497843 -189.933767 
L 88.164539 -192.471845 
L 88.896375 -195.009923 
L 89.718597 -197.548 
L 90.663536 -200.086078 
L 91.771524 -202.624156 
L 92.212759 -203.526532 
L 92.921571 -205.162233 
L 94.099856 -207.700311 
L 95.380664 -210.238389 
L 96.881532 -212.776466 
L 98.15331 -214.479765 
L 98.970293 -215.314544 
L 101.509156 -217.852621 
L 103.876565 -220.390699 
L 104.093862 -220.626431 
L 109.929707 -222.928777 
L 110.034414 -222.973781 
L 110.182429 -222.928777 
L 115.974966 -221.408328 
L 117.927296 -220.390699 
L 121.915517 -218.413983 
L 123.095153 -217.852621 
L 127.856069 -215.539331 
L 128.415405 -215.314544 
L 133.796621 -213.203664 
L 134.907533 -212.776466 
L 139.737172 -211.069038 
L 141.932805 -210.238389 
L 145.677724 -209.028936 
L 149.33917 -207.700311 
L 151.618276 -206.993057 
L 157.518675 -205.162233 
L 157.558828 -205.149903 
L 163.499379 -203.391735 
L 166.173842 -202.624156 
L 169.439931 -201.668666 
L 175.380483 -200.100447 
L 175.439421 -200.086078 
L 181.321034 -198.769626 
L 186.638796 -197.548 
L 187.261586 -197.423734 
L 193.202138 -196.374654 
L 199.14269 -195.352208 
L 201.202201 -195.009923 
L 205.083241 -194.52873 
L 211.023793 -193.857644 
L 216.964345 -193.250937 
L 222.904897 -192.673744 
L 225.041965 -192.471845 
L 228.845448 -192.197318 
L 234.786 -191.820964 
L 240.726552 -191.50864 
L 246.667103 -191.252835 
L 252.607655 -191.041006 
L 258.548207 -190.862976 
L 264.488759 -190.712233 
L 270.42931 -190.585048 
L 276.369862 -190.479384 
L 282.310414 -190.394068 
L 288.250966 -190.328227 
L 294.191517 -190.28149 
L 300.132069 -190.256051 
L 306.072621 -190.246053 
L 312.013172 -190.249863 
L 317.953724 -190.265858 
L 323.894276 -190.292508 
L 329.834828 -190.331402 
L 335.775379 -190.378053 
L 341.715931 -190.430648 
L 347.656483 -190.488274 
L 353.597034 -190.551902 
L 359.537586 -190.618668 
L 365.478138 -190.687178 
L 371.41869 -190.757195 
L 377.359241 -190.828404 
L 383.299793 -190.839451 
L 389.240345 -190.868054 
L 395.180897 -190.912605 
L 401.121448 -190.960499 
L 407.062 -191.010384 
L 413.002552 -191.061109 
L 418.943103 -191.102751 
L 424.883655 -191.165807 
L 424.883655 -191.969256 
L 418.943103 -191.944733 
L 413.002552 -191.962336 
L 407.062 -191.971416 
L 401.121448 -191.989327 
L 395.180897 -192.016774 
L 389.240345 -192.057794 
L 383.299793 -192.146455 
L 377.359241 -192.298501 
L 371.41869 -192.307126 
L 365.478138 -192.320405 
L 359.537586 -192.337802 
L 353.597034 -192.359114 
L 347.656483 -192.385779 
L 341.715931 -192.42053 
L 335.775379 -192.461736 
L 334.490235 -192.471845 
L 329.834828 -192.547316 
L 323.894276 -192.626059 
L 317.953724 -192.69499 
L 312.013172 -192.759348 
L 306.072621 -192.897141 
L 300.132069 -193.170783 
L 294.191517 -193.344465 
L 288.250966 -193.547538 
L 282.310414 -193.778563 
L 276.369862 -194.039792 
L 270.42931 -194.333866 
L 264.488759 -194.662085 
L 258.754757 -195.009923 
L 258.548207 -195.025755 
L 252.607655 -195.516023 
L 246.667103 -196.068557 
L 240.726552 -196.689353 
L 234.786 -197.371686 
L 233.315351 -197.548 
L 228.845448 -198.107904 
L 222.904897 -198.964607 
L 216.964345 -199.939012 
L 216.099671 -200.086078 
L 211.023793 -200.89683 
L 205.083241 -201.984878 
L 201.787139 -202.624156 
L 199.14269 -203.090966 
L 193.202138 -204.209343 
L 188.433928 -205.162233 
L 187.261586 -205.38801 
L 181.321034 -206.595464 
L 176.39449 -207.700311 
L 175.380483 -207.93826 
L 169.439931 -209.44646 
L 166.540297 -210.238389 
L 163.499379 -211.115485 
L 157.995814 -212.776466 
L 157.558828 -212.916395 
L 151.618276 -214.9323 
L 150.605348 -215.314544 
L 145.677724 -217.219039 
L 144.242171 -217.852621 
L 139.737172 -219.796399 
L 138.569021 -220.390699 
L 133.796621 -222.754331 
L 133.434391 -222.928777 
L 128.52949 -225.466854 
L 127.856069 -225.832529 
L 123.31262 -228.004932 
L 121.915517 -228.707879 
L 118.048479 -230.54301 
L 115.974966 -231.475647 
L 110.034414 -230.904 
L 109.038549 -230.54301 
L 104.093862 -228.913037 
L 102.614195 -228.004932 
L 99.575453 -225.466854 
L 98.15331 -223.900873 
L 97.364206 -222.928777 
L 95.254037 -220.390699 
L 93.199007 -217.852621 
L 92.212759 -216.429704 
L 91.370187 -215.314544 
L 89.738947 -212.776466 
L 88.343705 -210.238389 
L 87.153321 -207.700311 
L 86.272207 -205.421709 
L 86.183215 -205.162233 
L 85.376334 -202.624156 
L 84.601647 -200.086078 
L 83.835296 -197.548 
L 83.081707 -195.009923 
L 82.375803 -192.471845 
L 81.761936 -189.933767 
L 81.262122 -187.39569 
L 80.331655 -184.975782 
L 78.364462 -187.39569 
L 78.096106 -189.933767 
L 77.862602 -192.471845 
L 77.657604 -195.009923 
L 77.485162 -197.548 
L 77.346608 -200.086078 
L 77.238753 -202.624156 
L 77.156701 -205.162233 
L 77.122893 -207.700311 
L 77.442462 -210.238389 
L 77.782417 -212.776466 
L 78.142201 -215.314544 
L 78.524615 -217.852621 
L 78.945907 -220.390699 
L 79.518156 -222.928777 
L 80.331655 -224.098619 
L 81.773309 -225.466854 
L 82.711686 -228.004932 
L 83.608912 -230.54301 
L 84.550363 -233.081087 
L 85.58814 -235.619165 
L 86.272207 -237.022157 
L 88.781629 -238.157243 
L 92.212759 -239.777161 
L 93.43997 -240.69532 
L 98.15331 -243.082025 
L 98.427439 -243.233398 
L 102.24494 -245.771476 
L 104.093862 -247.393983 
L 105.714748 -248.309553 
L 109.845095 -250.847631 
L 110.034414 -250.984485 
L 114.209361 -253.385709 
L 115.974966 -254.193794 
L 120.480513 -253.385709 
L 121.915517 -253.115611 
L 127.397183 -250.847631 
L 127.856069 -250.638902 
L 132.011266 -248.309553 
L 133.796621 -247.252488 
L 136.153595 -245.771476 
L 139.737172 -243.56838 
L 140.27969 -243.233398 
L 144.515838 -240.69532 
L 145.677724 -240.050295 
L 149.06695 -238.157243 
L 151.618276 -236.784567 
L 153.836903 -235.619165 
L 157.558828 -233.750459 
L 158.904439 -233.081087 
L 163.499379 -230.93445 
L 164.339085 -230.54301 
L 169.439931 -228.314693 
L 170.165679 -228.004932 
L 175.380483 -225.914305 
L 176.525019 -225.466854 
L 181.321034 -223.711841 
L 183.502807 -222.928777 
L 187.261586 -221.660708 
L 191.117852 -220.390699 
L 193.202138 -219.72972 
L 199.14269 -217.924715 
L 199.359438 -217.852621 
L 205.083241 -216.061998 
L 207.690135 -215.314544 
L 211.023793 -214.34868 
L 216.964345 -212.896798 
L 217.396583 -212.776466 
L 222.904897 -211.347749 
L 228.008122 -210.238389 
L 228.845448 -210.045104 
L 234.786 -208.854787 
L 240.726552 -207.723617 
L 240.841816 -207.700311 
L 246.667103 -206.73723 
L 252.607655 -205.886844 
L 256.959626 -205.162233 
L 258.548207 -204.937355 
L 264.488759 -204.290249 
L 270.42931 -203.612204 
L 276.369862 -202.887042 
L 278.713611 -202.624156 
L 282.310414 -202.345868 
L 288.250966 -201.912294 
L 294.191517 -201.382196 
L 300.132069 -200.896505 
L 306.072621 -200.447653 
L 311.02489 -200.086078 
L 312.013172 -200.0334 
L 317.953724 -199.781846 
L 323.894276 -199.604546 
L 329.834828 -199.420923 
L 335.775379 -199.205195 
L 341.715931 -198.958074 
L 347.656483 -198.622299 
L 353.597034 -198.021337 
L 359.537586 -197.794621 
L 365.478138 -197.574969 
L 366.233696 -197.548 
L 371.41869 -196.931799 
L 377.359241 -196.380661 
L 383.299793 -195.976823 
L 389.240345 -195.907849 
L 395.180897 -195.841966 
L 401.121448 -195.797953 
L 407.062 -195.769621 
L 413.002552 -195.753478 
L 418.943103 -195.744905 
L 424.883655 -195.742769 
L 424.883655 -197.548 
L 424.883655 -198.473954 
L 418.943103 -198.659748 
L 413.002552 -198.854267 
L 407.062 -199.05387 
L 401.121448 -199.263662 
L 395.180897 -199.480439 
L 389.240345 -199.70247 
L 383.299793 -199.935419 
L 379.524436 -200.086078 
L 377.359241 -200.186363 
L 371.41869 -200.46679 
L 365.478138 -200.763801 
L 359.537586 -201.076082 
L 353.597034 -201.403828 
L 347.656483 -201.750568 
L 341.715931 -202.119993 
L 335.775379 -202.501924 
L 333.880154 -202.624156 
L 329.834828 -202.910263 
L 323.894276 -203.34729 
L 317.953724 -203.820285 
L 312.013172 -204.330183 
L 306.072621 -204.870309 
L 302.899688 -205.162233 
L 300.132069 -205.429739 
L 294.191517 -206.030712 
L 288.250966 -206.69338 
L 282.310414 -207.407102 
L 279.91397 -207.700311 
L 276.369862 -208.148753 
L 270.42931 -208.951969 
L 264.488759 -209.833051 
L 261.829417 -210.238389 
L 258.548207 -210.750601 
L 252.607655 -211.74554 
L 246.909052 -212.776466 
L 246.667103 -212.821112 
L 240.726552 -213.955346 
L 234.786 -215.195706 
L 234.229674 -215.314544 
L 228.845448 -216.529553 
L 223.398672 -217.852621 
L 222.904897 -217.977642 
L 216.964345 -219.577529 
L 214.101338 -220.390699 
L 211.023793 -221.310326 
L 205.932887 -222.928777 
L 205.083241 -223.211294 
L 199.14269 -225.33206 
L 198.791409 -225.466854 
L 193.202138 -227.701645 
L 192.491386 -228.004932 
L 187.261586 -230.338732 
L 186.820479 -230.54301 
L 181.659339 -233.081087 
L 181.321034 -233.25469 
L 176.868089 -235.619165 
L 175.380483 -236.456954 
L 172.326771 -238.157243 
L 169.439931 -239.912758 
L 168.081153 -240.69532 
L 164.057368 -243.233398 
L 163.499379 -243.608381 
L 160.01144 -245.771476 
L 157.558828 -247.442376 
L 156.212784 -248.309553 
L 152.35418 -250.847631 
L 151.618276 -251.354493 
L 148.498833 -253.385709 
L 145.677724 -255.228871 
L 144.573208 -255.923786 
L 140.484205 -258.461864 
L 139.737172 -258.927666 
L 135.966915 -260.999942 
L 133.796621 -262.217428 
L 130.944571 -263.538019 
L 127.856069 -264.996678 
L 124.365944 -266.076097 
L 121.915517 -266.798022 
L 115.974966 -266.62262 
L 115.174675 -266.076097 
L 110.034414 -263.625395 
L 109.942519 -263.538019 
L 107.557177 -260.999942 
L 105.086104 -258.461864 
L 104.093862 -257.619756 
L 101.675839 -255.923786 
L 98.499755 -253.385709 
L 98.15331 -253.075576 
L 92.212759 -251.061453 
L 91.834903 -250.847631 
L 87.595911 -248.309553 
L 86.272207 -247.491501 
L 85.095307 -245.771476 
L 83.497404 -243.233398 
L 82.017737 -240.69532 
L 80.755076 -238.157243 
L 80.331655 -237.177088 
L 79.592982 -235.619165 
L 78.633578 -233.081087 
L 77.859385 -230.54301 
L 77.185836 -228.004932 
L 76.556147 -225.466854 
L 75.692332 -222.928777 
L 75.302487 -220.390699 
L 74.967951 -217.852621 
L 74.659918 -215.314544 
L 74.391103 -212.910311 
L 74.336488 -212.776466 
L 73.37618 -210.238389 
L 72.494264 -207.700311 
L 71.665002 -205.162233 
L 70.869911 -202.624156 
L 70.095136 -200.086078 
L 69.330204 -197.548 
L 68.568162 -195.009923 
L 68.450552 -194.6169 
L 67.598118 -192.471845 
L 66.660038 -189.933767 
L 65.782531 -187.39569 
L 64.942546 -184.857612 
L 64.110067 -182.319534 
L 63.24976 -179.781457 
L 62.51 -177.748561 
L 62.51 -177.243379 
L 62.51 -174.705301 
L 62.51 -172.167224 
L 62.51 -169.629146 
L 62.51 -167.091068 
L 62.51 -164.552991 
L 62.51 -162.014913 
L 62.51 -159.476835 
L 62.51 -156.938758 
L 62.51 -154.40068 
L 62.51 -151.862602 
L 62.51 -149.50884 
L 64.647937 -151.862602 
L 66.743108 -154.40068 
L 68.450552 -156.678006 
L 68.569052 -156.938758 
L 69.610965 -159.476835 
L 70.5543 -162.014913 
L 71.422282 -164.552991 
L 72.234983 -167.091068 
L 73.010511 -169.629146 
L 73.76524 -172.167224 
L 74.391103 -174.295738 
L 75.436993 -172.167224 
L 75.901633 -169.629146 
L 76.120154 -167.091068 
L 76.252825 -164.552991 
L 76.352067 -162.014913 
L 76.436722 -159.476835 
L 76.512911 -156.938758 
L 76.581951 -154.40068 
L 76.64387 -151.862602 
L 76.698978 -149.324525 
L 76.748268 -146.786447 
L 76.619075 -144.248369 
L 76.295934 -141.710292 
L 75.952715 -139.172214 
L 75.581409 -136.634136 
L 75.159052 -134.096059 
L 74.586721 -131.557981 
L 74.391103 -131.113893 
L 71.495932 -129.019903 
L 69.492388 -126.481826 
L 68.641154 -123.943748 
L 68.450552 -123.334547 
L 62.51 -121.47147 
L 62.51 -121.40567 
L 62.51 -118.867593 
L 62.51 -116.329515 
L 62.51 -113.791437 
L 62.51 -111.25336 
L 62.51 -110.554397 
z
M 78.872758 -179.781457 
L 78.818424 -182.319534 
L 80.331655 -184.596743 
L 80.672372 -182.319534 
L 80.536572 -179.781457 
L 80.331655 -178.923968 
z
" id="mf7d1a1f947" style="stroke:#42ab5d;"/>
    </defs>
    <g clip-path="url(#pc469f4d124)">
     <use style="fill:#42ab5d;stroke:#42ab5d;" x="0" xlink:href="#mf7d1a1f947" y="360"/>
    </g>
   </g>
   <g id="PathCollection_3">
    <path clip-path="url(#pc469f4d124)" d="M 66.360069 251.284718 
L 68.450552 249.934253 
L 69.795811 248.74664 
L 70.91634 246.208563 
L 72.299585 243.670485 
L 73.965137 241.132407 
L 74.391103 240.46248 
L 75.590861 238.59433 
L 76.583203 236.056252 
L 77.55634 233.518174 
L 78.736545 230.980097 
L 79.402839 228.442019 
L 79.868634 225.903941 
L 80.278622 223.365864 
L 80.331655 223.012113 
L 80.881536 220.827786 
L 81.484358 218.289708 
L 82.064126 215.751631 
L 82.629813 213.213553 
L 83.183609 210.675475 
L 83.722545 208.137398 
L 84.242427 205.59932 
L 84.741561 203.061242 
L 85.223022 200.523165 
L 85.695272 197.985087 
L 86.171017 195.447009 
L 86.272207 194.925543 
L 86.677753 192.908932 
L 87.223313 190.370854 
L 87.800756 187.832776 
L 88.396233 185.294699 
L 88.994462 182.756621 
L 89.586831 180.218543 
L 90.176516 177.680466 
L 90.780424 175.142388 
L 91.428078 172.60431 
L 92.156549 170.066233 
L 92.212759 169.891567 
L 92.925323 167.528155 
L 93.788541 164.990077 
L 94.770981 162.452 
L 95.907608 159.913922 
L 97.190094 157.375844 
L 98.15331 155.565021 
L 98.605917 154.837767 
L 100.285689 152.299689 
L 102.535069 149.761611 
L 104.093862 148.158251 
L 108.431363 147.223534 
L 110.034414 146.846615 
L 113.186702 147.223534 
L 115.974966 147.576335 
L 121.915517 149.238837 
L 123.103472 149.761611 
L 127.856069 151.694599 
L 129.393753 152.299689 
L 133.796621 153.998976 
L 136.28848 154.837767 
L 139.737172 156.046344 
L 144.103862 157.375844 
L 145.677724 157.871101 
L 151.618276 159.6041 
L 152.75663 159.913922 
L 157.558828 161.20358 
L 162.410719 162.452 
L 163.499379 162.70728 
L 169.439931 164.109825 
L 173.406932 164.990077 
L 175.380483 165.337769 
L 181.321034 166.367566 
L 187.261586 167.388087 
L 188.236251 167.528155 
L 193.202138 168.139628 
L 199.14269 168.893075 
L 205.083241 169.53689 
L 211.023793 170.044366 
L 211.294239 170.066233 
L 216.964345 170.49699 
L 222.904897 170.923417 
L 228.845448 171.259186 
L 234.786 171.50627 
L 240.726552 171.690629 
L 246.667103 171.828515 
L 252.607655 171.927942 
L 258.548207 171.993146 
L 264.488759 172.027194 
L 270.42931 172.033187 
L 276.369862 172.014572 
L 282.310414 171.974942 
L 288.250966 171.917592 
L 294.191517 171.844674 
L 300.132069 171.755426 
L 306.072621 171.652778 
L 312.013172 171.535675 
L 317.953724 171.408536 
L 323.894276 171.288794 
L 329.834828 171.184028 
L 335.775379 171.091295 
L 341.715931 171.005363 
L 347.656483 170.922684 
L 353.597034 170.840248 
L 359.537586 170.757168 
L 365.478138 170.672052 
L 371.41869 170.583237 
L 377.359241 170.489718 
L 383.299793 170.391669 
L 389.240345 170.288723 
L 395.180897 170.174977 
L 401.121448 170.068112 
L 401.220361 170.066233 
L 407.062 169.950647 
L 413.002552 169.840117 
L 418.943103 169.739232 
L 424.883655 169.637642 
L 424.883655 168.834193 
L 418.943103 168.897249 
L 413.002552 168.938891 
L 407.062 168.989616 
L 401.121448 169.039501 
L 395.180897 169.087395 
L 389.240345 169.131946 
L 383.299793 169.160549 
L 377.359241 169.171596 
L 371.41869 169.242805 
L 365.478138 169.312822 
L 359.537586 169.381332 
L 353.597034 169.448098 
L 347.656483 169.511726 
L 341.715931 169.569352 
L 335.775379 169.621947 
L 329.834828 169.668598 
L 323.894276 169.707492 
L 317.953724 169.734142 
L 312.013172 169.750137 
L 306.072621 169.753947 
L 300.132069 169.743949 
L 294.191517 169.71851 
L 288.250966 169.671773 
L 282.310414 169.605932 
L 276.369862 169.520616 
L 270.42931 169.414952 
L 264.488759 169.287767 
L 258.548207 169.137024 
L 252.607655 168.958994 
L 246.667103 168.747165 
L 240.726552 168.49136 
L 234.786 168.179036 
L 228.845448 167.802682 
L 225.041965 167.528155 
L 222.904897 167.326256 
L 216.964345 166.749063 
L 211.023793 166.142356 
L 205.083241 165.47127 
L 201.202201 164.990077 
L 199.14269 164.647792 
L 193.202138 163.625346 
L 187.261586 162.576266 
L 186.638796 162.452 
L 181.321034 161.230374 
L 175.439421 159.913922 
L 175.380483 159.899553 
L 169.439931 158.331334 
L 166.173842 157.375844 
L 163.499379 156.608265 
L 157.558828 154.850097 
L 157.518675 154.837767 
L 151.618276 153.006943 
L 149.33917 152.299689 
L 145.677724 150.971064 
L 141.932805 149.761611 
L 139.737172 148.930962 
L 134.907533 147.223534 
L 133.796621 146.796336 
L 128.415405 144.685456 
L 127.856069 144.460669 
L 123.095153 142.147379 
L 121.915517 141.586017 
L 117.927296 139.609301 
L 115.974966 138.591672 
L 110.182429 137.071223 
L 110.034414 137.026219 
L 109.929707 137.071223 
L 104.093862 139.373569 
L 103.876565 139.609301 
L 101.509156 142.147379 
L 98.970293 144.685456 
L 98.15331 145.520235 
L 96.881532 147.223534 
L 95.380664 149.761611 
L 94.099856 152.299689 
L 92.921571 154.837767 
L 92.212759 156.473468 
L 91.771524 157.375844 
L 90.663536 159.913922 
L 89.718597 162.452 
L 88.896375 164.990077 
L 88.164539 167.528155 
L 87.497843 170.066233 
L 86.875089 172.60431 
L 86.278429 175.142388 
L 86.272207 175.16932 
L 85.633011 177.680466 
L 85.093801 180.218543 
L 84.496374 182.756621 
L 83.989718 185.294699 
L 83.496767 187.832776 
L 83.009721 190.370854 
L 82.525569 192.908932 
L 82.043975 195.447009 
L 81.564889 197.985087 
L 81.087068 200.523165 
L 80.608134 203.061242 
L 80.331655 204.51178 
L 80.152589 205.59932 
L 79.794815 208.137398 
L 79.503179 210.675475 
L 79.260459 213.213553 
L 78.993134 215.751631 
L 78.658482 218.289708 
L 78.306265 220.827786 
L 77.930015 223.365864 
L 77.513843 225.903941 
L 76.99478 228.442019 
L 76.049127 230.980097 
L 74.391103 233.296411 
L 74.117888 233.518174 
L 72.854427 236.056252 
L 71.82787 238.59433 
L 70.56891 241.132407 
L 68.698295 243.670485 
L 68.450552 244.123058 
L 65.375458 246.208563 
L 63.112233 248.74664 
L 62.51 249.445603 
L 62.51 251.284718 
L 62.51 253.822796 
L 64.469324 253.822796 
z
" style="fill:#a2d99c;stroke:#a2d99c;"/>
    <path clip-path="url(#pc469f4d124)" d="M 63.24976 180.218543 
L 64.110067 177.680466 
L 64.942546 175.142388 
L 65.782531 172.60431 
L 66.660038 170.066233 
L 67.598118 167.528155 
L 68.450552 165.3831 
L 68.568162 164.990077 
L 69.330204 162.452 
L 70.095136 159.913922 
L 70.869911 157.375844 
L 71.665002 154.837767 
L 72.494264 152.299689 
L 73.37618 149.761611 
L 74.336488 147.223534 
L 74.391103 147.089689 
L 74.659918 144.685456 
L 74.967951 142.147379 
L 75.302487 139.609301 
L 75.692332 137.071223 
L 76.556147 134.533146 
L 77.185836 131.995068 
L 77.859385 129.45699 
L 78.633578 126.918913 
L 79.592982 124.380835 
L 80.331655 122.822912 
L 80.755076 121.842757 
L 82.017737 119.30468 
L 83.497404 116.766602 
L 85.095307 114.228524 
L 86.272207 112.508499 
L 87.595911 111.690447 
L 91.834903 109.152369 
L 92.212759 108.938547 
L 98.15331 106.924424 
L 98.499755 106.614291 
L 101.675839 104.076214 
L 104.093862 102.380244 
L 105.086104 101.538136 
L 107.557177 99.000058 
L 109.942519 96.461981 
L 110.034414 96.374605 
L 115.174675 93.923903 
L 115.974966 93.37738 
L 121.915517 93.201978 
L 124.365944 93.923903 
L 127.856069 95.003322 
L 130.944571 96.461981 
L 133.796621 97.782572 
L 135.966915 99.000058 
L 139.737172 101.072334 
L 140.484205 101.538136 
L 144.573208 104.076214 
L 145.677724 104.771129 
L 148.498833 106.614291 
L 151.618276 108.645507 
L 152.35418 109.152369 
L 156.212784 111.690447 
L 157.558828 112.557624 
L 160.01144 114.228524 
L 163.499379 116.391619 
L 164.057368 116.766602 
L 168.081153 119.30468 
L 169.439931 120.087242 
L 172.326771 121.842757 
L 175.380483 123.543046 
L 176.868089 124.380835 
L 181.321034 126.74531 
L 181.659339 126.918913 
L 186.820479 129.45699 
L 187.261586 129.661268 
L 192.491386 131.995068 
L 193.202138 132.298355 
L 198.791409 134.533146 
L 199.14269 134.66794 
L 205.083241 136.788706 
L 205.932887 137.071223 
L 211.023793 138.689674 
L 214.101338 139.609301 
L 216.964345 140.422471 
L 222.904897 142.022358 
L 223.398672 142.147379 
L 228.845448 143.470447 
L 234.229674 144.685456 
L 234.786 144.804294 
L 240.726552 146.044654 
L 246.667103 147.178888 
L 246.909052 147.223534 
L 252.607655 148.25446 
L 258.548207 149.249399 
L 261.829417 149.761611 
L 264.488759 150.166949 
L 270.42931 151.048031 
L 276.369862 151.851247 
L 279.91397 152.299689 
L 282.310414 152.592898 
L 288.250966 153.30662 
L 294.191517 153.969288 
L 300.132069 154.570261 
L 302.899688 154.837767 
L 306.072621 155.129691 
L 312.013172 155.669817 
L 317.953724 156.179715 
L 323.894276 156.65271 
L 329.834828 157.089737 
L 333.880154 157.375844 
L 335.775379 157.498076 
L 341.715931 157.880007 
L 347.656483 158.249432 
L 353.597034 158.596172 
L 359.537586 158.923918 
L 365.478138 159.236199 
L 371.41869 159.53321 
L 377.359241 159.813637 
L 379.524436 159.913922 
L 383.299793 160.064581 
L 389.240345 160.29753 
L 395.180897 160.519561 
L 401.121448 160.736338 
L 407.062 160.94613 
L 413.002552 161.145733 
L 418.943103 161.340252 
L 424.883655 161.526046 
L 424.883655 159.913922 
L 424.883655 158.878631 
L 418.943103 158.60318 
L 413.002552 158.315969 
L 407.062 158.022864 
L 401.121448 157.717251 
L 395.180897 157.402894 
L 394.672069 157.375844 
L 389.240345 157.057153 
L 383.299793 156.686135 
L 377.359241 156.298226 
L 371.41869 155.895765 
L 365.478138 155.473832 
L 359.537586 155.038927 
L 356.820268 154.837767 
L 353.597034 154.578091 
L 347.656483 154.081396 
L 341.715931 153.55247 
L 335.775379 153.000475 
L 329.834828 152.431537 
L 328.471091 152.299689 
L 323.894276 151.822531 
L 317.953724 151.16615 
L 312.013172 150.47352 
L 306.115217 149.761611 
L 306.072621 149.756178 
L 300.132069 148.984822 
L 294.191517 148.163074 
L 288.250966 147.293633 
L 287.776665 147.223534 
L 282.310414 146.367298 
L 276.369862 145.372683 
L 272.431024 144.685456 
L 270.42931 144.322731 
L 264.488759 143.196379 
L 259.313859 142.147379 
L 258.548207 141.987673 
L 252.607655 140.701213 
L 247.922245 139.609301 
L 246.667103 139.309776 
L 240.726552 137.819826 
L 237.92117 137.071223 
L 234.786 136.214724 
L 229.058963 134.533146 
L 228.845448 134.468776 
L 222.904897 132.600852 
L 221.076605 131.995068 
L 216.964345 130.585031 
L 213.808118 129.45699 
L 211.023793 128.419022 
L 207.119494 126.918913 
L 205.083241 126.100338 
L 200.938432 124.380835 
L 199.14269 123.606638 
L 195.217943 121.842757 
L 193.202138 120.908147 
L 189.90436 119.30468 
L 187.261586 117.97953 
L 184.945302 116.766602 
L 181.321034 114.835044 
L 180.267362 114.228524 
L 175.797281 111.690447 
L 175.380483 111.451038 
L 171.769897 109.152369 
L 169.439931 107.743535 
L 167.803364 106.614291 
L 164.009517 104.076214 
L 163.499379 103.746526 
L 160.468463 101.538136 
L 157.558828 99.476027 
L 156.905682 99.000058 
L 153.561371 96.461981 
L 151.618276 94.989547 
L 150.163896 93.923903 
L 146.909139 91.385825 
L 145.677724 90.418458 
L 143.487377 88.847748 
L 140.209141 86.30967 
L 139.737172 85.943947 
L 136.257322 83.771592 
L 133.796621 82.147699 
L 131.852354 81.233515 
L 127.856069 79.389319 
L 121.915517 78.77228 
L 116.313773 81.233515 
L 115.974966 81.370122 
L 112.943618 83.771592 
L 110.089762 86.30967 
L 110.034414 86.356362 
L 107.527135 88.847748 
L 105.058469 91.385825 
L 104.093862 92.401996 
L 102.457693 93.923903 
L 99.464887 96.461981 
L 98.15331 97.467823 
L 92.982978 99.000058 
L 92.212759 99.226344 
L 87.323026 101.538136 
L 86.272207 102.034873 
L 84.235192 104.076214 
L 82.28393 106.614291 
L 80.549141 109.152369 
L 80.331655 109.491124 
L 77.623906 111.690447 
L 75.785924 114.228524 
L 74.650278 116.766602 
L 74.391103 117.539426 
L 72.045558 119.30468 
L 69.482344 121.842757 
L 68.450552 123.44963 
L 67.745443 121.842757 
L 66.400823 119.30468 
L 64.234966 116.766602 
L 62.51 115.687179 
L 62.51 116.766602 
L 62.51 119.30468 
L 62.51 121.842757 
L 62.51 124.380835 
L 62.51 126.918913 
L 62.51 127.902726 
L 64.399305 129.45699 
L 65.347632 131.995068 
L 65.723915 134.533146 
L 65.661301 137.071223 
L 64.682551 139.609301 
L 63.089014 142.147379 
L 62.51 142.54748 
L 62.51 144.685456 
L 62.51 147.223534 
L 62.51 149.761611 
L 62.51 152.299689 
L 62.51 154.837767 
L 62.51 157.375844 
L 62.51 159.913922 
L 62.51 162.452 
L 62.51 164.990077 
L 62.51 167.528155 
L 62.51 170.066233 
L 62.51 172.60431 
L 62.51 175.142388 
L 62.51 177.680466 
L 62.51 180.218543 
L 62.51 182.251439 
z
" style="fill:#a2d99c;stroke:#a2d99c;"/>
   </g>
   <g id="PathCollection_4">
    <path clip-path="url(#pc469f4d124)" d="M 68.450552 253.822796 
L 68.903398 253.822796 
L 71.063072 251.284718 
L 73.23455 248.74664 
L 74.391103 246.463342 
L 74.545263 246.208563 
L 76.082586 243.670485 
L 77.673613 241.132407 
L 79.021144 238.59433 
L 80.033821 236.056252 
L 80.331655 235.217846 
L 80.992437 233.518174 
L 81.901394 230.980097 
L 82.738452 228.442019 
L 83.498808 225.903941 
L 84.188106 223.365864 
L 84.825273 220.827786 
L 85.434775 218.289708 
L 86.035963 215.751631 
L 86.272207 214.747673 
L 86.655 213.213553 
L 87.257549 210.675475 
L 87.821115 208.137398 
L 88.353317 205.59932 
L 88.864287 203.061242 
L 89.364249 200.523165 
L 89.867574 197.985087 
L 90.39278 195.447009 
L 90.954793 192.908932 
L 91.556144 190.370854 
L 92.185098 187.832776 
L 92.212759 187.721539 
L 92.700388 185.294699 
L 93.310327 182.756621 
L 93.833705 180.218543 
L 94.389443 177.680466 
L 95.006722 175.142388 
L 95.685633 172.60431 
L 96.434685 170.066233 
L 97.289939 167.528155 
L 98.15331 165.333734 
L 98.294776 164.990077 
L 99.681539 162.452 
L 101.45039 159.913922 
L 103.155353 157.375844 
L 104.093862 155.965271 
L 108.04331 154.837767 
L 110.034414 154.401339 
L 111.123654 154.837767 
L 115.577936 157.375844 
L 115.974966 157.652454 
L 121.915517 159.317306 
L 124.031676 159.913922 
L 127.856069 160.940776 
L 132.358936 162.452 
L 133.796621 162.905343 
L 139.737172 164.658381 
L 141.023708 164.990077 
L 145.677724 166.143388 
L 151.618276 167.419447 
L 152.201281 167.528155 
L 157.558828 168.534674 
L 163.499379 169.495134 
L 167.66243 170.066233 
L 169.439931 170.283614 
L 175.380483 170.946882 
L 181.321034 171.540628 
L 187.261586 172.056319 
L 193.202138 172.493105 
L 194.968933 172.60431 
L 199.14269 172.91113 
L 205.083241 173.33531 
L 211.023793 173.710612 
L 216.964345 174.011963 
L 222.904897 174.204757 
L 228.845448 174.311532 
L 234.786 174.368059 
L 240.726552 174.390963 
L 246.667103 174.387932 
L 252.607655 174.36349 
L 258.548207 174.320851 
L 264.488759 174.262446 
L 270.42931 174.190061 
L 276.369862 174.104873 
L 282.310414 174.00743 
L 288.250966 173.897529 
L 294.191517 173.77369 
L 300.132069 173.631663 
L 306.072621 173.467923 
L 312.013172 173.272927 
L 317.953724 173.037805 
L 323.894276 172.779749 
L 328.09754 172.60431 
L 329.834828 172.551374 
L 335.775379 172.394156 
L 341.715931 172.257041 
L 347.656483 172.132754 
L 353.597034 172.016629 
L 359.537586 171.905662 
L 365.478138 171.796651 
L 371.41869 171.686222 
L 377.359241 171.571573 
L 383.299793 171.451541 
L 389.240345 171.324946 
L 395.180897 171.13302 
L 401.121448 170.99087 
L 407.062 170.879701 
L 413.002552 170.768898 
L 418.943103 170.652237 
L 424.883655 170.525531 
L 424.883655 170.066233 
L 424.883655 169.637642 
L 418.943103 169.739232 
L 413.002552 169.840117 
L 407.062 169.950647 
L 401.220361 170.066233 
L 401.121448 170.068112 
L 395.180897 170.174977 
L 389.240345 170.288723 
L 383.299793 170.391669 
L 377.359241 170.489718 
L 371.41869 170.583237 
L 365.478138 170.672052 
L 359.537586 170.757168 
L 353.597034 170.840248 
L 347.656483 170.922684 
L 341.715931 171.005363 
L 335.775379 171.091295 
L 329.834828 171.184028 
L 323.894276 171.288794 
L 317.953724 171.408536 
L 312.013172 171.535675 
L 306.072621 171.652778 
L 300.132069 171.755426 
L 294.191517 171.844674 
L 288.250966 171.917592 
L 282.310414 171.974942 
L 276.369862 172.014572 
L 270.42931 172.033187 
L 264.488759 172.027194 
L 258.548207 171.993146 
L 252.607655 171.927942 
L 246.667103 171.828515 
L 240.726552 171.690629 
L 234.786 171.50627 
L 228.845448 171.259186 
L 222.904897 170.923417 
L 216.964345 170.49699 
L 211.294239 170.066233 
L 211.023793 170.044366 
L 205.083241 169.53689 
L 199.14269 168.893075 
L 193.202138 168.139628 
L 188.236251 167.528155 
L 187.261586 167.388087 
L 181.321034 166.367566 
L 175.380483 165.337769 
L 173.406932 164.990077 
L 169.439931 164.109825 
L 163.499379 162.70728 
L 162.410719 162.452 
L 157.558828 161.20358 
L 152.75663 159.913922 
L 151.618276 159.6041 
L 145.677724 157.871101 
L 144.103862 157.375844 
L 139.737172 156.046344 
L 136.28848 154.837767 
L 133.796621 153.998976 
L 129.393753 152.299689 
L 127.856069 151.694599 
L 123.103472 149.761611 
L 121.915517 149.238837 
L 115.974966 147.576335 
L 113.186702 147.223534 
L 110.034414 146.846615 
L 108.431363 147.223534 
L 104.093862 148.158251 
L 102.535069 149.761611 
L 100.285689 152.299689 
L 98.605917 154.837767 
L 98.15331 155.565021 
L 97.190094 157.375844 
L 95.907608 159.913922 
L 94.770981 162.452 
L 93.788541 164.990077 
L 92.925323 167.528155 
L 92.212759 169.891567 
L 92.156549 170.066233 
L 91.428078 172.60431 
L 90.780424 175.142388 
L 90.176516 177.680466 
L 89.586831 180.218543 
L 88.994462 182.756621 
L 88.396233 185.294699 
L 87.800756 187.832776 
L 87.223313 190.370854 
L 86.677753 192.908932 
L 86.272207 194.925543 
L 86.171017 195.447009 
L 85.695272 197.985087 
L 85.223022 200.523165 
L 84.741561 203.061242 
L 84.242427 205.59932 
L 83.722545 208.137398 
L 83.183609 210.675475 
L 82.629813 213.213553 
L 82.064126 215.751631 
L 81.484358 218.289708 
L 80.881536 220.827786 
L 80.331655 223.012113 
L 80.278622 223.365864 
L 79.868634 225.903941 
L 79.402839 228.442019 
L 78.736545 230.980097 
L 77.55634 233.518174 
L 76.583203 236.056252 
L 75.590861 238.59433 
L 74.391103 240.46248 
L 73.965137 241.132407 
L 72.299585 243.670485 
L 70.91634 246.208563 
L 69.795811 248.74664 
L 68.450552 249.934253 
L 66.360069 251.284718 
L 64.469324 253.822796 
z
" style="fill:#e5f5e1;stroke:#e5f5e1;"/>
    <path clip-path="url(#pc469f4d124)" d="M 395.180897 157.402894 
L 401.121448 157.717251 
L 407.062 158.022864 
L 413.002552 158.315969 
L 418.943103 158.60318 
L 424.883655 158.878631 
L 424.883655 157.375844 
L 424.883655 156.07957 
L 418.943103 155.704065 
L 413.002552 155.295753 
L 407.062 154.872017 
L 406.581802 154.837767 
L 401.121448 154.455283 
L 395.180897 154.039601 
L 389.240345 153.594229 
L 383.299793 153.092236 
L 377.359241 152.548024 
L 374.677752 152.299689 
L 371.41869 152.008963 
L 365.478138 151.476763 
L 359.537586 150.894863 
L 353.597034 150.245162 
L 349.429482 149.761611 
L 347.656483 149.565271 
L 341.715931 148.911399 
L 335.775379 148.191939 
L 329.834828 147.378877 
L 328.717173 147.223534 
L 323.894276 146.598098 
L 317.953724 145.766618 
L 312.013172 144.809912 
L 311.252382 144.685456 
L 306.072621 143.897723 
L 300.132069 142.901078 
L 296.116637 142.147379 
L 294.191517 141.806544 
L 288.250966 140.725838 
L 282.976243 139.609301 
L 282.310414 139.473835 
L 276.369862 138.272653 
L 271.261253 137.071223 
L 270.42931 136.881888 
L 264.488759 135.52091 
L 260.69376 134.533146 
L 258.548207 133.992996 
L 252.607655 132.40477 
L 251.175315 131.995068 
L 246.667103 130.743593 
L 242.469287 129.45699 
L 240.726552 128.925212 
L 234.786 127.003086 
L 234.536693 126.918913 
L 228.845448 125.01196 
L 227.098225 124.380835 
L 222.904897 122.859407 
L 220.26879 121.842757 
L 216.964345 120.548389 
L 213.947127 119.30468 
L 211.023793 118.070714 
L 208.074673 116.766602 
L 205.083241 115.407275 
L 202.610592 114.228524 
L 199.14269 112.530681 
L 197.493014 111.690447 
L 193.202138 109.415109 
L 192.709684 109.152369 
L 188.228003 106.614291 
L 187.261586 106.040291 
L 183.905574 104.076214 
L 181.321034 102.469103 
L 179.819757 101.538136 
L 175.864283 99.000058 
L 175.380483 98.676487 
L 172.181871 96.461981 
L 169.439931 94.569483 
L 168.52175 93.923903 
L 165.128746 91.385825 
L 163.499379 90.182448 
L 161.710261 88.847748 
L 158.450972 86.30967 
L 157.558828 85.622692 
L 155.17121 83.771592 
L 151.962487 81.233515 
L 151.618276 80.964726 
L 148.68138 78.695437 
L 145.677724 76.388876 
L 145.371144 76.157359 
L 141.894431 73.619282 
L 139.737172 72.08536 
L 138.050459 71.081204 
L 133.796621 68.718089 
L 133.322027 68.543126 
L 127.856069 66.687741 
L 121.915517 66.959003 
L 116.985409 68.543126 
L 115.974966 68.890204 
L 112.739655 71.081204 
L 110.034414 72.793922 
L 109.527864 73.619282 
L 107.887619 76.157359 
L 105.862914 78.695437 
L 104.093862 80.482713 
L 103.336018 81.233515 
L 100.946327 83.771592 
L 98.556672 86.30967 
L 98.15331 86.719158 
L 96.474803 88.847748 
L 93.573715 91.385825 
L 92.212759 92.221424 
L 87.400504 93.923903 
L 86.272207 94.407817 
L 80.331655 95.971125 
L 75.105134 93.923903 
L 74.391103 93.531746 
L 69.436027 91.385825 
L 68.450552 90.824453 
L 62.532006 88.847748 
L 62.51 88.837765 
L 62.51 88.847748 
L 62.51 91.385825 
L 62.51 93.923903 
L 62.51 96.461981 
L 62.51 99.000058 
L 62.51 101.538136 
L 62.51 104.076214 
L 62.51 106.614291 
L 62.51 109.152369 
L 62.51 111.690447 
L 62.51 114.228524 
L 62.51 115.687179 
L 64.234966 116.766602 
L 66.400823 119.30468 
L 67.745443 121.842757 
L 68.450552 123.44963 
L 69.482344 121.842757 
L 72.045558 119.30468 
L 74.391103 117.539426 
L 74.650278 116.766602 
L 75.785924 114.228524 
L 77.623906 111.690447 
L 80.331655 109.491124 
L 80.549141 109.152369 
L 82.28393 106.614291 
L 84.235192 104.076214 
L 86.272207 102.034873 
L 87.323026 101.538136 
L 92.212759 99.226344 
L 92.982978 99.000058 
L 98.15331 97.467823 
L 99.464887 96.461981 
L 102.457693 93.923903 
L 104.093862 92.401996 
L 105.058469 91.385825 
L 107.527135 88.847748 
L 110.034414 86.356362 
L 110.089762 86.30967 
L 112.943618 83.771592 
L 115.974966 81.370122 
L 116.313773 81.233515 
L 121.915517 78.77228 
L 127.856069 79.389319 
L 131.852354 81.233515 
L 133.796621 82.147699 
L 136.257322 83.771592 
L 139.737172 85.943947 
L 140.209141 86.30967 
L 143.487377 88.847748 
L 145.677724 90.418458 
L 146.909139 91.385825 
L 150.163896 93.923903 
L 151.618276 94.989547 
L 153.561371 96.461981 
L 156.905682 99.000058 
L 157.558828 99.476027 
L 160.468463 101.538136 
L 163.499379 103.746526 
L 164.009517 104.076214 
L 167.803364 106.614291 
L 169.439931 107.743535 
L 171.769897 109.152369 
L 175.380483 111.451038 
L 175.797281 111.690447 
L 180.267362 114.228524 
L 181.321034 114.835044 
L 184.945302 116.766602 
L 187.261586 117.97953 
L 189.90436 119.30468 
L 193.202138 120.908147 
L 195.217943 121.842757 
L 199.14269 123.606638 
L 200.938432 124.380835 
L 205.083241 126.100338 
L 207.119494 126.918913 
L 211.023793 128.419022 
L 213.808118 129.45699 
L 216.964345 130.585031 
L 221.076605 131.995068 
L 222.904897 132.600852 
L 228.845448 134.468776 
L 229.058963 134.533146 
L 234.786 136.214724 
L 237.92117 137.071223 
L 240.726552 137.819826 
L 246.667103 139.309776 
L 247.922245 139.609301 
L 252.607655 140.701213 
L 258.548207 141.987673 
L 259.313859 142.147379 
L 264.488759 143.196379 
L 270.42931 144.322731 
L 272.431024 144.685456 
L 276.369862 145.372683 
L 282.310414 146.367298 
L 287.776665 147.223534 
L 288.250966 147.293633 
L 294.191517 148.163074 
L 300.132069 148.984822 
L 306.072621 149.756178 
L 306.115217 149.761611 
L 312.013172 150.47352 
L 317.953724 151.16615 
L 323.894276 151.822531 
L 328.471091 152.299689 
L 329.834828 152.431537 
L 335.775379 153.000475 
L 341.715931 153.55247 
L 347.656483 154.081396 
L 353.597034 154.578091 
L 356.820268 154.837767 
L 359.537586 155.038927 
L 365.478138 155.473832 
L 371.41869 155.895765 
L 377.359241 156.298226 
L 383.299793 156.686135 
L 389.240345 157.057153 
L 394.672069 157.375844 
z
" style="fill:#e5f5e1;stroke:#e5f5e1;"/>
    <path clip-path="url(#pc469f4d124)" d="M 63.089014 142.147379 
L 64.682551 139.609301 
L 65.661301 137.071223 
L 65.723915 134.533146 
L 65.347632 131.995068 
L 64.399305 129.45699 
L 62.51 127.902726 
L 62.51 129.45699 
L 62.51 131.995068 
L 62.51 134.533146 
L 62.51 137.071223 
L 62.51 139.609301 
L 62.51 142.147379 
L 62.51 142.54748 
z
" style="fill:#e5f5e1;stroke:#e5f5e1;"/>
   </g>
   <g id="matplotlib.axis_1">
    <g id="xtick_1">
     <g id="line2d_1">
      <path clip-path="url(#pc469f4d124)" d="M 62.51 318.04 
L 62.51 14.76 
" style="fill:none;stroke:#b0b0b0;stroke-linecap:square;stroke-width:0.8;"/>
     </g>
     <g id="line2d_2">
      <defs>
       <path d="M 0 0 
L 0 3.5 
" id="m6983c4eaf6" style="stroke:#000000;stroke-width:0.8;"/>
      </defs>
      <g>
       <use style="stroke:#000000;stroke-width:0.8;" x="62.51" xlink:href="#m6983c4eaf6" y="318.04"/>
      </g>
     </g>
     <g id="text_1">
      <!-- 0.0 -->
      <g transform="translate(54.558437 332.638438)scale(0.1 -0.1)">
       <defs>
        <path d="M 2034 4250 
Q 1547 4250 1301 3770 
Q 1056 3291 1056 2328 
Q 1056 1369 1301 889 
Q 1547 409 2034 409 
Q 2525 409 2770 889 
Q 3016 1369 3016 2328 
Q 3016 3291 2770 3770 
Q 2525 4250 2034 4250 
z
M 2034 4750 
Q 2819 4750 3233 4129 
Q 3647 3509 3647 2328 
Q 3647 1150 3233 529 
Q 2819 -91 2034 -91 
Q 1250 -91 836 529 
Q 422 1150 422 2328 
Q 422 3509 836 4129 
Q 1250 4750 2034 4750 
z
" id="DejaVuSans-30" transform="scale(0.015625)"/>
        <path d="M 684 794 
L 1344 794 
L 1344 0 
L 684 0 
L 684 794 
z
" id="DejaVuSans-2e" transform="scale(0.015625)"/>
       </defs>
       <use xlink:href="#DejaVuSans-30"/>
       <use x="63.623047" xlink:href="#DejaVuSans-2e"/>
       <use x="95.410156" xlink:href="#DejaVuSans-30"/>
      </g>
     </g>
    </g>
    <g id="xtick_2">
     <g id="line2d_3">
      <path clip-path="url(#pc469f4d124)" d="M 121.915517 318.04 
L 121.915517 14.76 
" style="fill:none;stroke:#b0b0b0;stroke-linecap:square;stroke-width:0.8;"/>
     </g>
     <g id="line2d_4">
      <g>
       <use style="stroke:#000000;stroke-width:0.8;" x="121.915517" xlink:href="#m6983c4eaf6" y="318.04"/>
      </g>
     </g>
     <g id="text_2">
      <!-- 0.5 -->
      <g transform="translate(113.963955 332.638438)scale(0.1 -0.1)">
       <defs>
        <path d="M 691 4666 
L 3169 4666 
L 3169 4134 
L 1269 4134 
L 1269 2991 
Q 1406 3038 1543 3061 
Q 1681 3084 1819 3084 
Q 2600 3084 3056 2656 
Q 3513 2228 3513 1497 
Q 3513 744 3044 326 
Q 2575 -91 1722 -91 
Q 1428 -91 1123 -41 
Q 819 9 494 109 
L 494 744 
Q 775 591 1075 516 
Q 1375 441 1709 441 
Q 2250 441 2565 725 
Q 2881 1009 2881 1497 
Q 2881 1984 2565 2268 
Q 2250 2553 1709 2553 
Q 1456 2553 1204 2497 
Q 953 2441 691 2322 
L 691 4666 
z
" id="DejaVuSans-35" transform="scale(0.015625)"/>
       </defs>
       <use xlink:href="#DejaVuSans-30"/>
       <use x="63.623047" xlink:href="#DejaVuSans-2e"/>
       <use x="95.410156" xlink:href="#DejaVuSans-35"/>
      </g>
     </g>
    </g>
    <g id="xtick_3">
     <g id="line2d_5">
      <path clip-path="url(#pc469f4d124)" d="M 181.321034 318.04 
L 181.321034 14.76 
" style="fill:none;stroke:#b0b0b0;stroke-linecap:square;stroke-width:0.8;"/>
     </g>
     <g id="line2d_6">
      <g>
       <use style="stroke:#000000;stroke-width:0.8;" x="181.321034" xlink:href="#m6983c4eaf6" y="318.04"/>
      </g>
     </g>
     <g id="text_3">
      <!-- 1.0 -->
      <g transform="translate(173.369472 332.638438)scale(0.1 -0.1)">
       <defs>
        <path d="M 794 531 
L 1825 531 
L 1825 4091 
L 703 3866 
L 703 4441 
L 1819 4666 
L 2450 4666 
L 2450 531 
L 3481 531 
L 3481 0 
L 794 0 
L 794 531 
z
" id="DejaVuSans-31" transform="scale(0.015625)"/>
       </defs>
       <use xlink:href="#DejaVuSans-31"/>
       <use x="63.623047" xlink:href="#DejaVuSans-2e"/>
       <use x="95.410156" xlink:href="#DejaVuSans-30"/>
      </g>
     </g>
    </g>
    <g id="xtick_4">
     <g id="line2d_7">
      <path clip-path="url(#pc469f4d124)" d="M 240.726552 318.04 
L 240.726552 14.76 
" style="fill:none;stroke:#b0b0b0;stroke-linecap:square;stroke-width:0.8;"/>
     </g>
     <g id="line2d_8">
      <g>
       <use style="stroke:#000000;stroke-width:0.8;" x="240.726552" xlink:href="#m6983c4eaf6" y="318.04"/>
      </g>
     </g>
     <g id="text_4">
      <!-- 1.5 -->
      <g transform="translate(232.774989 332.638438)scale(0.1 -0.1)">
       <use xlink:href="#DejaVuSans-31"/>
       <use x="63.623047" xlink:href="#DejaVuSans-2e"/>
       <use x="95.410156" xlink:href="#DejaVuSans-35"/>
      </g>
     </g>
    </g>
    <g id="xtick_5">
     <g id="line2d_9">
      <path clip-path="url(#pc469f4d124)" d="M 300.132069 318.04 
L 300.132069 14.76 
" style="fill:none;stroke:#b0b0b0;stroke-linecap:square;stroke-width:0.8;"/>
     </g>
     <g id="line2d_10">
      <g>
       <use style="stroke:#000000;stroke-width:0.8;" x="300.132069" xlink:href="#m6983c4eaf6" y="318.04"/>
      </g>
     </g>
     <g id="text_5">
      <!-- 2.0 -->
      <g transform="translate(292.180506 332.638438)scale(0.1 -0.1)">
       <defs>
        <path d="M 1228 531 
L 3431 531 
L 3431 0 
L 469 0 
L 469 531 
Q 828 903 1448 1529 
Q 2069 2156 2228 2338 
Q 2531 2678 2651 2914 
Q 2772 3150 2772 3378 
Q 2772 3750 2511 3984 
Q 2250 4219 1831 4219 
Q 1534 4219 1204 4116 
Q 875 4013 500 3803 
L 500 4441 
Q 881 4594 1212 4672 
Q 1544 4750 1819 4750 
Q 2544 4750 2975 4387 
Q 3406 4025 3406 3419 
Q 3406 3131 3298 2873 
Q 3191 2616 2906 2266 
Q 2828 2175 2409 1742 
Q 1991 1309 1228 531 
z
" id="DejaVuSans-32" transform="scale(0.015625)"/>
       </defs>
       <use xlink:href="#DejaVuSans-32"/>
       <use x="63.623047" xlink:href="#DejaVuSans-2e"/>
       <use x="95.410156" xlink:href="#DejaVuSans-30"/>
      </g>
     </g>
    </g>
    <g id="xtick_6">
     <g id="line2d_11">
      <path clip-path="url(#pc469f4d124)" d="M 359.537586 318.04 
L 359.537586 14.76 
" style="fill:none;stroke:#b0b0b0;stroke-linecap:square;stroke-width:0.8;"/>
     </g>
     <g id="line2d_12">
      <g>
       <use style="stroke:#000000;stroke-width:0.8;" x="359.537586" xlink:href="#m6983c4eaf6" y="318.04"/>
      </g>
     </g>
     <g id="text_6">
      <!-- 2.5 -->
      <g transform="translate(351.586024 332.638438)scale(0.1 -0.1)">
       <use xlink:href="#DejaVuSans-32"/>
       <use x="63.623047" xlink:href="#DejaVuSans-2e"/>
       <use x="95.410156" xlink:href="#DejaVuSans-35"/>
      </g>
     </g>
    </g>
    <g id="text_7">
     <!-- $z$ -->
     <g transform="translate(232.136 346.316563)scale(0.1 -0.1)">
      <defs>
       <path d="M 744 3500 
L 3475 3500 
L 3372 2975 
L 738 459 
L 2913 459 
L 2822 0 
L -19 0 
L 84 525 
L 2719 3041 
L 653 3041 
L 744 3500 
z
" id="DejaVuSans-Oblique-7a" transform="scale(0.015625)"/>
      </defs>
      <use transform="translate(0 0.3125)" xlink:href="#DejaVuSans-Oblique-7a"/>
     </g>
    </g>
   </g>
   <g id="matplotlib.axis_2">
    <g id="ytick_1">
     <g id="line2d_13">
      <path clip-path="url(#pc469f4d124)" d="M 62.51 318.04 
L 407.062 318.04 
" style="fill:none;stroke:#b0b0b0;stroke-linecap:square;stroke-width:0.8;"/>
     </g>
     <g id="line2d_14">
      <defs>
       <path d="M 0 0 
L -3.5 0 
" id="m7f373e7b99" style="stroke:#000000;stroke-width:0.8;"/>
      </defs>
      <g>
       <use style="stroke:#000000;stroke-width:0.8;" x="62.51" xlink:href="#m7f373e7b99" y="318.04"/>
      </g>
     </g>
     <g id="text_8">
      <!-- 2.00 -->
      <g transform="translate(24.864687 321.839219)scale(0.1 -0.1)">
       <defs>
        <path d="M 678 2272 
L 4684 2272 
L 4684 1741 
L 678 1741 
L 678 2272 
z
" id="DejaVuSans-2212" transform="scale(0.015625)"/>
       </defs>
       <use xlink:href="#DejaVuSans-2212"/>
       <use x="83.789062" xlink:href="#DejaVuSans-32"/>
       <use x="147.412109" xlink:href="#DejaVuSans-2e"/>
       <use x="179.199219" xlink:href="#DejaVuSans-30"/>
       <use x="242.822266" xlink:href="#DejaVuSans-30"/>
      </g>
     </g>
    </g>
    <g id="ytick_2">
     <g id="line2d_15">
      <path clip-path="url(#pc469f4d124)" d="M 62.51 280.13 
L 407.062 280.13 
" style="fill:none;stroke:#b0b0b0;stroke-linecap:square;stroke-width:0.8;"/>
     </g>
     <g id="line2d_16">
      <g>
       <use style="stroke:#000000;stroke-width:0.8;" x="62.51" xlink:href="#m7f373e7b99" y="280.13"/>
      </g>
     </g>
     <g id="text_9">
      <!-- 1.75 -->
      <g transform="translate(24.864687 283.929219)scale(0.1 -0.1)">
       <defs>
        <path d="M 525 4666 
L 3525 4666 
L 3525 4397 
L 1831 0 
L 1172 0 
L 2766 4134 
L 525 4134 
L 525 4666 
z
" id="DejaVuSans-37" transform="scale(0.015625)"/>
       </defs>
       <use xlink:href="#DejaVuSans-2212"/>
       <use x="83.789062" xlink:href="#DejaVuSans-31"/>
       <use x="147.412109" xlink:href="#DejaVuSans-2e"/>
       <use x="179.199219" xlink:href="#DejaVuSans-37"/>
       <use x="242.822266" xlink:href="#DejaVuSans-35"/>
      </g>
     </g>
    </g>
    <g id="ytick_3">
     <g id="line2d_17">
      <path clip-path="url(#pc469f4d124)" d="M 62.51 242.22 
L 407.062 242.22 
" style="fill:none;stroke:#b0b0b0;stroke-linecap:square;stroke-width:0.8;"/>
     </g>
     <g id="line2d_18">
      <g>
       <use style="stroke:#000000;stroke-width:0.8;" x="62.51" xlink:href="#m7f373e7b99" y="242.22"/>
      </g>
     </g>
     <g id="text_10">
      <!-- 1.50 -->
      <g transform="translate(24.864687 246.019219)scale(0.1 -0.1)">
       <use xlink:href="#DejaVuSans-2212"/>
       <use x="83.789062" xlink:href="#DejaVuSans-31"/>
       <use x="147.412109" xlink:href="#DejaVuSans-2e"/>
       <use x="179.199219" xlink:href="#DejaVuSans-35"/>
       <use x="242.822266" xlink:href="#DejaVuSans-30"/>
      </g>
     </g>
    </g>
    <g id="ytick_4">
     <g id="line2d_19">
      <path clip-path="url(#pc469f4d124)" d="M 62.51 204.31 
L 407.062 204.31 
" style="fill:none;stroke:#b0b0b0;stroke-linecap:square;stroke-width:0.8;"/>
     </g>
     <g id="line2d_20">
      <g>
       <use style="stroke:#000000;stroke-width:0.8;" x="62.51" xlink:href="#m7f373e7b99" y="204.31"/>
      </g>
     </g>
     <g id="text_11">
      <!-- 1.25 -->
      <g transform="translate(24.864687 208.109219)scale(0.1 -0.1)">
       <use xlink:href="#DejaVuSans-2212"/>
       <use x="83.789062" xlink:href="#DejaVuSans-31"/>
       <use x="147.412109" xlink:href="#DejaVuSans-2e"/>
       <use x="179.199219" xlink:href="#DejaVuSans-32"/>
       <use x="242.822266" xlink:href="#DejaVuSans-35"/>
      </g>
     </g>
    </g>
    <g id="ytick_5">
     <g id="line2d_21">
      <path clip-path="url(#pc469f4d124)" d="M 62.51 166.4 
L 407.062 166.4 
" style="fill:none;stroke:#b0b0b0;stroke-linecap:square;stroke-width:0.8;"/>
     </g>
     <g id="line2d_22">
      <g>
       <use style="stroke:#000000;stroke-width:0.8;" x="62.51" xlink:href="#m7f373e7b99" y="166.4"/>
      </g>
     </g>
     <g id="text_12">
      <!-- 1.00 -->
      <g transform="translate(24.864687 170.199219)scale(0.1 -0.1)">
       <use xlink:href="#DejaVuSans-2212"/>
       <use x="83.789062" xlink:href="#DejaVuSans-31"/>
       <use x="147.412109" xlink:href="#DejaVuSans-2e"/>
       <use x="179.199219" xlink:href="#DejaVuSans-30"/>
       <use x="242.822266" xlink:href="#DejaVuSans-30"/>
      </g>
     </g>
    </g>
    <g id="ytick_6">
     <g id="line2d_23">
      <path clip-path="url(#pc469f4d124)" d="M 62.51 128.49 
L 407.062 128.49 
" style="fill:none;stroke:#b0b0b0;stroke-linecap:square;stroke-width:0.8;"/>
     </g>
     <g id="line2d_24">
      <g>
       <use style="stroke:#000000;stroke-width:0.8;" x="62.51" xlink:href="#m7f373e7b99" y="128.49"/>
      </g>
     </g>
     <g id="text_13">
      <!-- 0.75 -->
      <g transform="translate(24.864687 132.289219)scale(0.1 -0.1)">
       <use xlink:href="#DejaVuSans-2212"/>
       <use x="83.789062" xlink:href="#DejaVuSans-30"/>
       <use x="147.412109" xlink:href="#DejaVuSans-2e"/>
       <use x="179.199219" xlink:href="#DejaVuSans-37"/>
       <use x="242.822266" xlink:href="#DejaVuSans-35"/>
      </g>
     </g>
    </g>
    <g id="ytick_7">
     <g id="line2d_25">
      <path clip-path="url(#pc469f4d124)" d="M 62.51 90.58 
L 407.062 90.58 
" style="fill:none;stroke:#b0b0b0;stroke-linecap:square;stroke-width:0.8;"/>
     </g>
     <g id="line2d_26">
      <g>
       <use style="stroke:#000000;stroke-width:0.8;" x="62.51" xlink:href="#m7f373e7b99" y="90.58"/>
      </g>
     </g>
     <g id="text_14">
      <!-- 0.50 -->
      <g transform="translate(24.864687 94.379219)scale(0.1 -0.1)">
       <use xlink:href="#DejaVuSans-2212"/>
       <use x="83.789062" xlink:href="#DejaVuSans-30"/>
       <use x="147.412109" xlink:href="#DejaVuSans-2e"/>
       <use x="179.199219" xlink:href="#DejaVuSans-35"/>
       <use x="242.822266" xlink:href="#DejaVuSans-30"/>
      </g>
     </g>
    </g>
    <g id="ytick_8">
     <g id="line2d_27">
      <path clip-path="url(#pc469f4d124)" d="M 62.51 52.67 
L 407.062 52.67 
" style="fill:none;stroke:#b0b0b0;stroke-linecap:square;stroke-width:0.8;"/>
     </g>
     <g id="line2d_28">
      <g>
       <use style="stroke:#000000;stroke-width:0.8;" x="62.51" xlink:href="#m7f373e7b99" y="52.67"/>
      </g>
     </g>
     <g id="text_15">
      <!-- 0.25 -->
      <g transform="translate(24.864687 56.469219)scale(0.1 -0.1)">
       <use xlink:href="#DejaVuSans-2212"/>
       <use x="83.789062" xlink:href="#DejaVuSans-30"/>
       <use x="147.412109" xlink:href="#DejaVuSans-2e"/>
       <use x="179.199219" xlink:href="#DejaVuSans-32"/>
       <use x="242.822266" xlink:href="#DejaVuSans-35"/>
      </g>
     </g>
    </g>
    <g id="ytick_9">
     <g id="line2d_29">
      <path clip-path="url(#pc469f4d124)" d="M 62.51 14.76 
L 407.062 14.76 
" style="fill:none;stroke:#b0b0b0;stroke-linecap:square;stroke-width:0.8;"/>
     </g>
     <g id="line2d_30">
      <g>
       <use style="stroke:#000000;stroke-width:0.8;" x="62.51" xlink:href="#m7f373e7b99" y="14.76"/>
      </g>
     </g>
     <g id="text_16">
      <!-- 0.00 -->
      <g transform="translate(33.244375 18.559219)scale(0.1 -0.1)">
       <use xlink:href="#DejaVuSans-30"/>
       <use x="63.623047" xlink:href="#DejaVuSans-2e"/>
       <use x="95.410156" xlink:href="#DejaVuSans-30"/>
       <use x="159.033203" xlink:href="#DejaVuSans-30"/>
      </g>
     </g>
    </g>
    <g id="text_17">
     <!-- $\omega(z)$ -->
     <g transform="translate(18.785 177.15)rotate(-90)scale(0.1 -0.1)">
      <defs>
       <path d="M 1369 -91 
Q 72 -91 434 1766 
Q 575 2500 1256 3500 
L 1875 3500 
Q 1231 2500 1088 1750 
Q 819 397 1519 397 
Q 2166 397 2478 2078 
L 3009 2078 
Q 2669 388 3316 397 
Q 4013 403 4275 1750 
Q 4419 2500 4169 3500 
L 4788 3500 
Q 5075 2500 4934 1766 
Q 4578 -94 3278 -91 
Q 2428 -88 2503 844 
Q 2194 -91 1369 -91 
z
" id="DejaVuSans-Oblique-3c9" transform="scale(0.015625)"/>
       <path d="M 1984 4856 
Q 1566 4138 1362 3434 
Q 1159 2731 1159 2009 
Q 1159 1288 1364 580 
Q 1569 -128 1984 -844 
L 1484 -844 
Q 1016 -109 783 600 
Q 550 1309 550 2009 
Q 550 2706 781 3412 
Q 1013 4119 1484 4856 
L 1984 4856 
z
" id="DejaVuSans-28" transform="scale(0.015625)"/>
       <path d="M 513 4856 
L 1013 4856 
Q 1481 4119 1714 3412 
Q 1947 2706 1947 2009 
Q 1947 1309 1714 600 
Q 1481 -109 1013 -844 
L 513 -844 
Q 928 -128 1133 580 
Q 1338 1288 1338 2009 
Q 1338 2731 1133 3434 
Q 928 4138 513 4856 
z
" id="DejaVuSans-29" transform="scale(0.015625)"/>
      </defs>
      <use transform="translate(0 0.125)" xlink:href="#DejaVuSans-Oblique-3c9"/>
      <use transform="translate(83.740234 0.125)" xlink:href="#DejaVuSans-28"/>
      <use transform="translate(122.753906 0.125)" xlink:href="#DejaVuSans-Oblique-7a"/>
      <use transform="translate(175.244141 0.125)" xlink:href="#DejaVuSans-29"/>
     </g>
    </g>
   </g>
   <g id="LineCollection_1">
    <path clip-path="url(#pc469f4d124)" d="M 62.51 182.251439 
L 63.24976 180.218543 
L 64.110067 177.680466 
L 64.942546 175.142388 
L 65.782531 172.60431 
L 66.660038 170.066233 
L 67.598118 167.528155 
L 68.450552 165.3831 
L 68.568162 164.990077 
L 69.330204 162.452 
L 70.095136 159.913922 
L 70.869911 157.375844 
L 71.665002 154.837767 
L 72.494264 152.299689 
L 73.37618 149.761611 
L 74.336488 147.223534 
L 74.391103 147.089689 
L 74.659918 144.685456 
L 74.967951 142.147379 
L 75.302487 139.609301 
L 75.692332 137.071223 
L 76.556147 134.533146 
L 77.185836 131.995068 
L 77.859385 129.45699 
L 78.633578 126.918913 
L 79.592982 124.380835 
L 80.331655 122.822912 
L 80.755076 121.842757 
L 82.017737 119.30468 
L 83.497404 116.766602 
L 85.095307 114.228524 
L 86.272207 112.508499 
L 87.595911 111.690447 
L 91.834903 109.152369 
L 92.212759 108.938547 
L 98.15331 106.924424 
L 98.499755 106.614291 
L 101.675839 104.076214 
L 104.093862 102.380244 
L 105.086104 101.538136 
L 107.557177 99.000058 
L 109.942519 96.461981 
L 110.034414 96.374605 
L 115.174675 93.923903 
L 115.974966 93.37738 
L 121.915517 93.201978 
L 124.365944 93.923903 
L 127.856069 95.003322 
L 130.944571 96.461981 
L 133.796621 97.782572 
L 135.966915 99.000058 
L 139.737172 101.072334 
L 140.484205 101.538136 
L 144.573208 104.076214 
L 145.677724 104.771129 
L 148.498833 106.614291 
L 151.618276 108.645507 
L 152.35418 109.152369 
L 156.212784 111.690447 
L 157.558828 112.557624 
L 160.01144 114.228524 
L 163.499379 116.391619 
L 164.057368 116.766602 
L 168.081153 119.30468 
L 169.439931 120.087242 
L 172.326771 121.842757 
L 175.380483 123.543046 
L 176.868089 124.380835 
L 181.321034 126.74531 
L 181.659339 126.918913 
L 186.820479 129.45699 
L 187.261586 129.661268 
L 192.491386 131.995068 
L 193.202138 132.298355 
L 198.791409 134.533146 
L 199.14269 134.66794 
L 205.083241 136.788706 
L 205.932887 137.071223 
L 211.023793 138.689674 
L 214.101338 139.609301 
L 216.964345 140.422471 
L 222.904897 142.022358 
L 223.398672 142.147379 
L 228.845448 143.470447 
L 234.229674 144.685456 
L 234.786 144.804294 
L 240.726552 146.044654 
L 246.667103 147.178888 
L 246.909052 147.223534 
L 252.607655 148.25446 
L 258.548207 149.249399 
L 261.829417 149.761611 
L 264.488759 150.166949 
L 270.42931 151.048031 
L 276.369862 151.851247 
L 279.91397 152.299689 
L 282.310414 152.592898 
L 288.250966 153.30662 
L 294.191517 153.969288 
L 300.132069 154.570261 
L 302.899688 154.837767 
L 306.072621 155.129691 
L 312.013172 155.669817 
L 317.953724 156.179715 
L 323.894276 156.65271 
L 329.834828 157.089737 
L 333.880154 157.375844 
L 335.775379 157.498076 
L 341.715931 157.880007 
L 347.656483 158.249432 
L 353.597034 158.596172 
L 359.537586 158.923918 
L 365.478138 159.236199 
L 371.41869 159.53321 
L 377.359241 159.813637 
L 379.524436 159.913922 
L 383.299793 160.064581 
L 389.240345 160.29753 
L 395.180897 160.519561 
L 401.121448 160.736338 
L 407.062 160.94613 
L 413.002552 161.145733 
L 418.943103 161.340252 
L 424.883655 161.526046 
" style="fill:none;stroke:#000000;stroke-width:2;"/>
    <path clip-path="url(#pc469f4d124)" d="M 424.883655 168.834193 
L 418.943103 168.897249 
L 413.002552 168.938891 
L 407.062 168.989616 
L 401.121448 169.039501 
L 395.180897 169.087395 
L 389.240345 169.131946 
L 383.299793 169.160549 
L 377.359241 169.171596 
L 371.41869 169.242805 
L 365.478138 169.312822 
L 359.537586 169.381332 
L 353.597034 169.448098 
L 347.656483 169.511726 
L 341.715931 169.569352 
L 335.775379 169.621947 
L 329.834828 169.668598 
L 323.894276 169.707492 
L 317.953724 169.734142 
L 312.013172 169.750137 
L 306.072621 169.753947 
L 300.132069 169.743949 
L 294.191517 169.71851 
L 288.250966 169.671773 
L 282.310414 169.605932 
L 276.369862 169.520616 
L 270.42931 169.414952 
L 264.488759 169.287767 
L 258.548207 169.137024 
L 252.607655 168.958994 
L 246.667103 168.747165 
L 240.726552 168.49136 
L 234.786 168.179036 
L 228.845448 167.802682 
L 225.041965 167.528155 
L 222.904897 167.326256 
L 216.964345 166.749063 
L 211.023793 166.142356 
L 205.083241 165.47127 
L 201.202201 164.990077 
L 199.14269 164.647792 
L 193.202138 163.625346 
L 187.261586 162.576266 
L 186.638796 162.452 
L 181.321034 161.230374 
L 175.439421 159.913922 
L 175.380483 159.899553 
L 169.439931 158.331334 
L 166.173842 157.375844 
L 163.499379 156.608265 
L 157.558828 154.850097 
L 157.518675 154.837767 
L 151.618276 153.006943 
L 149.33917 152.299689 
L 145.677724 150.971064 
L 141.932805 149.761611 
L 139.737172 148.930962 
L 134.907533 147.223534 
L 133.796621 146.796336 
L 128.415405 144.685456 
L 127.856069 144.460669 
L 123.095153 142.147379 
L 121.915517 141.586017 
L 117.927296 139.609301 
L 115.974966 138.591672 
L 110.182429 137.071223 
L 110.034414 137.026219 
L 109.929707 137.071223 
L 104.093862 139.373569 
L 103.876565 139.609301 
L 101.509156 142.147379 
L 98.970293 144.685456 
L 98.15331 145.520235 
L 96.881532 147.223534 
L 95.380664 149.761611 
L 94.099856 152.299689 
L 92.921571 154.837767 
L 92.212759 156.473468 
L 91.771524 157.375844 
L 90.663536 159.913922 
L 89.718597 162.452 
L 88.896375 164.990077 
L 88.164539 167.528155 
L 87.497843 170.066233 
L 86.875089 172.60431 
L 86.278429 175.142388 
L 86.272207 175.16932 
L 85.633011 177.680466 
L 85.093801 180.218543 
L 84.496374 182.756621 
L 83.989718 185.294699 
L 83.496767 187.832776 
L 83.009721 190.370854 
L 82.525569 192.908932 
L 82.043975 195.447009 
L 81.564889 197.985087 
L 81.087068 200.523165 
L 80.608134 203.061242 
L 80.331655 204.51178 
L 80.152589 205.59932 
L 79.794815 208.137398 
L 79.503179 210.675475 
L 79.260459 213.213553 
L 78.993134 215.751631 
L 78.658482 218.289708 
L 78.306265 220.827786 
L 77.930015 223.365864 
L 77.513843 225.903941 
L 76.99478 228.442019 
L 76.049127 230.980097 
L 74.391103 233.296411 
L 74.117888 233.518174 
L 72.854427 236.056252 
L 71.82787 238.59433 
L 70.56891 241.132407 
L 68.698295 243.670485 
L 68.450552 244.123058 
L 65.375458 246.208563 
L 63.112233 248.74664 
L 62.51 249.445603 
" style="fill:none;stroke:#000000;stroke-width:2;"/>
   </g>
   <g id="LineCollection_2">
    <path clip-path="url(#pc469f4d124)" d="M 424.883655 170.525531 
L 418.943103 170.652237 
L 413.002552 170.768898 
L 407.062 170.879701 
L 401.121448 170.99087 
L 395.180897 171.13302 
L 389.240345 171.324946 
L 383.299793 171.451541 
L 377.359241 171.571573 
L 371.41869 171.686222 
L 365.478138 171.796651 
L 359.537586 171.905662 
L 353.597034 172.016629 
L 347.656483 172.132754 
L 341.715931 172.257041 
L 335.775379 172.394156 
L 329.834828 172.551374 
L 328.09754 172.60431 
L 323.894276 172.779749 
L 317.953724 173.037805 
L 312.013172 173.272927 
L 306.072621 173.467923 
L 300.132069 173.631663 
L 294.191517 173.77369 
L 288.250966 173.897529 
L 282.310414 174.00743 
L 276.369862 174.104873 
L 270.42931 174.190061 
L 264.488759 174.262446 
L 258.548207 174.320851 
L 252.607655 174.36349 
L 246.667103 174.387932 
L 240.726552 174.390963 
L 234.786 174.368059 
L 228.845448 174.311532 
L 222.904897 174.204757 
L 216.964345 174.011963 
L 211.023793 173.710612 
L 205.083241 173.33531 
L 199.14269 172.91113 
L 194.968933 172.60431 
L 193.202138 172.493105 
L 187.261586 172.056319 
L 181.321034 171.540628 
L 175.380483 170.946882 
L 169.439931 170.283614 
L 167.66243 170.066233 
L 163.499379 169.495134 
L 157.558828 168.534674 
L 152.201281 167.528155 
L 151.618276 167.419447 
L 145.677724 166.143388 
L 141.023708 164.990077 
L 139.737172 164.658381 
L 133.796621 162.905343 
L 132.358936 162.452 
L 127.856069 160.940776 
L 124.031676 159.913922 
L 121.915517 159.317306 
L 115.974966 157.652454 
L 115.577936 157.375844 
L 111.123654 154.837767 
L 110.034414 154.401339 
L 108.04331 154.837767 
L 104.093862 155.965271 
L 103.155353 157.375844 
L 101.45039 159.913922 
L 99.681539 162.452 
L 98.294776 164.990077 
L 98.15331 165.333734 
L 97.289939 167.528155 
L 96.434685 170.066233 
L 95.685633 172.60431 
L 95.006722 175.142388 
L 94.389443 177.680466 
L 93.833705 180.218543 
L 93.310327 182.756621 
L 92.700388 185.294699 
L 92.212759 187.721539 
L 92.185098 187.832776 
L 91.556144 190.370854 
L 90.954793 192.908932 
L 90.39278 195.447009 
L 89.867574 197.985087 
L 89.364249 200.523165 
L 88.864287 203.061242 
L 88.353317 205.59932 
L 87.821115 208.137398 
L 87.257549 210.675475 
L 86.655 213.213553 
L 86.272207 214.747673 
L 86.035963 215.751631 
L 85.434775 218.289708 
L 84.825273 220.827786 
L 84.188106 223.365864 
L 83.498808 225.903941 
L 82.738452 228.442019 
L 81.901394 230.980097 
L 80.992437 233.518174 
L 80.331655 235.217846 
L 80.033821 236.056252 
L 79.021144 238.59433 
L 77.673613 241.132407 
L 76.082586 243.670485 
L 74.545263 246.208563 
L 74.391103 246.463342 
L 73.23455 248.74664 
L 71.063072 251.284718 
L 68.903398 253.822796 
" style="fill:none;stroke:#000000;stroke-width:1.5;"/>
    <path clip-path="url(#pc469f4d124)" d="M 62.51 88.837765 
L 62.532006 88.847748 
L 68.450552 90.824453 
L 69.436027 91.385825 
L 74.391103 93.531746 
L 75.105134 93.923903 
L 80.331655 95.971125 
L 86.272207 94.407817 
L 87.400504 93.923903 
L 92.212759 92.221424 
L 93.573715 91.385825 
L 96.474803 88.847748 
L 98.15331 86.719158 
L 98.556672 86.30967 
L 100.946327 83.771592 
L 103.336018 81.233515 
L 104.093862 80.482713 
L 105.862914 78.695437 
L 107.887619 76.157359 
L 109.527864 73.619282 
L 110.034414 72.793922 
L 112.739655 71.081204 
L 115.974966 68.890204 
L 116.985409 68.543126 
L 121.915517 66.959003 
L 127.856069 66.687741 
L 133.322027 68.543126 
L 133.796621 68.718089 
L 138.050459 71.081204 
L 139.737172 72.08536 
L 141.894431 73.619282 
L 145.371144 76.157359 
L 145.677724 76.388876 
L 148.68138 78.695437 
L 151.618276 80.964726 
L 151.962487 81.233515 
L 155.17121 83.771592 
L 157.558828 85.622692 
L 158.450972 86.30967 
L 161.710261 88.847748 
L 163.499379 90.182448 
L 165.128746 91.385825 
L 168.52175 93.923903 
L 169.439931 94.569483 
L 172.181871 96.461981 
L 175.380483 98.676487 
L 175.864283 99.000058 
L 179.819757 101.538136 
L 181.321034 102.469103 
L 183.905574 104.076214 
L 187.261586 106.040291 
L 188.228003 106.614291 
L 192.709684 109.152369 
L 193.202138 109.415109 
L 197.493014 111.690447 
L 199.14269 112.530681 
L 202.610592 114.228524 
L 205.083241 115.407275 
L 208.074673 116.766602 
L 211.023793 118.070714 
L 213.947127 119.30468 
L 216.964345 120.548389 
L 220.26879 121.842757 
L 222.904897 122.859407 
L 227.098225 124.380835 
L 228.845448 125.01196 
L 234.536693 126.918913 
L 234.786 127.003086 
L 240.726552 128.925212 
L 242.469287 129.45699 
L 246.667103 130.743593 
L 251.175315 131.995068 
L 252.607655 132.40477 
L 258.548207 133.992996 
L 260.69376 134.533146 
L 264.488759 135.52091 
L 270.42931 136.881888 
L 271.261253 137.071223 
L 276.369862 138.272653 
L 282.310414 139.473835 
L 282.976243 139.609301 
L 288.250966 140.725838 
L 294.191517 141.806544 
L 296.116637 142.147379 
L 300.132069 142.901078 
L 306.072621 143.897723 
L 311.252382 144.685456 
L 312.013172 144.809912 
L 317.953724 145.766618 
L 323.894276 146.598098 
L 328.717173 147.223534 
L 329.834828 147.378877 
L 335.775379 148.191939 
L 341.715931 148.911399 
L 347.656483 149.565271 
L 349.429482 149.761611 
L 353.597034 150.245162 
L 359.537586 150.894863 
L 365.478138 151.476763 
L 371.41869 152.008963 
L 374.677752 152.299689 
L 377.359241 152.548024 
L 383.299793 153.092236 
L 389.240345 153.594229 
L 395.180897 154.039601 
L 401.121448 154.455283 
L 406.581802 154.837767 
L 407.062 154.872017 
L 413.002552 155.295753 
L 418.943103 155.704065 
L 424.883655 156.07957 
" style="fill:none;stroke:#000000;stroke-width:1.5;"/>
   </g>
   <g id="LineCollection_3">
    <path clip-path="url(#pc469f4d124)" d="M 62.51 166.4 
L 418.943103 166.4 
" style="fill:none;stroke:#0000ff;stroke-dasharray:14.8,6.4;stroke-dashoffset:0;stroke-width:4;"/>
   </g>
   <g id="patch_3">
    <path d="M 62.51 318.04 
L 62.51 14.76 
" style="fill:none;stroke:#000000;stroke-linecap:square;stroke-linejoin:miter;stroke-width:0.8;"/>
   </g>
   <g id="patch_4">
    <path d="M 407.062 318.04 
L 407.062 14.76 
" style="fill:none;stroke:#000000;stroke-linecap:square;stroke-linejoin:miter;stroke-width:0.8;"/>
   </g>
   <g id="patch_5">
    <path d="M 62.51 318.04 
L 407.062 318.04 
" style="fill:none;stroke:#000000;stroke-linecap:square;stroke-linejoin:miter;stroke-width:0.8;"/>
   </g>
   <g id="patch_6">
    <path d="M 62.51 14.76 
L 407.062 14.76 
" style="fill:none;stroke:#000000;stroke-linecap:square;stroke-linejoin:miter;stroke-width:0.8;"/>
   </g>
   <g id="text_18">
    <!-- BAO -->
    <g transform="translate(63.69811 272.548)scale(0.13 -0.13)">
     <defs>
      <path d="M 1259 2228 
L 1259 519 
L 2272 519 
Q 2781 519 3026 730 
Q 3272 941 3272 1375 
Q 3272 1813 3026 2020 
Q 2781 2228 2272 2228 
L 1259 2228 
z
M 1259 4147 
L 1259 2741 
L 2194 2741 
Q 2656 2741 2882 2914 
Q 3109 3088 3109 3444 
Q 3109 3797 2882 3972 
Q 2656 4147 2194 4147 
L 1259 4147 
z
M 628 4666 
L 2241 4666 
Q 2963 4666 3353 4366 
Q 3744 4066 3744 3513 
Q 3744 3084 3544 2831 
Q 3344 2578 2956 2516 
Q 3422 2416 3680 2098 
Q 3938 1781 3938 1306 
Q 3938 681 3513 340 
Q 3088 0 2303 0 
L 628 0 
L 628 4666 
z
" id="DejaVuSans-42" transform="scale(0.015625)"/>
      <path d="M 2188 4044 
L 1331 1722 
L 3047 1722 
L 2188 4044 
z
M 1831 4666 
L 2547 4666 
L 4325 0 
L 3669 0 
L 3244 1197 
L 1141 1197 
L 716 0 
L 50 0 
L 1831 4666 
z
" id="DejaVuSans-41" transform="scale(0.015625)"/>
      <path d="M 2522 4238 
Q 1834 4238 1429 3725 
Q 1025 3213 1025 2328 
Q 1025 1447 1429 934 
Q 1834 422 2522 422 
Q 3209 422 3611 934 
Q 4013 1447 4013 2328 
Q 4013 3213 3611 3725 
Q 3209 4238 2522 4238 
z
M 2522 4750 
Q 3503 4750 4090 4092 
Q 4678 3434 4678 2328 
Q 4678 1225 4090 567 
Q 3503 -91 2522 -91 
Q 1538 -91 948 565 
Q 359 1222 359 2328 
Q 359 3434 948 4092 
Q 1538 4750 2522 4750 
z
" id="DejaVuSans-4f" transform="scale(0.015625)"/>
     </defs>
     <use xlink:href="#DejaVuSans-42"/>
     <use x="68.603516" xlink:href="#DejaVuSans-41"/>
     <use x="135.261719" xlink:href="#DejaVuSans-4f"/>
    </g>
   </g>
  </g>
  <g id="axes_2">
   <g id="patch_7">
    <path d="M 428.5965 318.04 
L 443.7605 318.04 
L 443.7605 14.76 
L 428.5965 14.76 
z
" style="fill:#ffffff;"/>
   </g>
   <g id="patch_8">
    <path clip-path="url(#pe2f764edab)" d="M 428.5965 318.04 
L 428.5965 242.22 
L 428.5965 90.58 
L 428.5965 14.76 
L 443.7605 14.76 
L 443.7605 90.58 
L 443.7605 242.22 
L 443.7605 318.04 
L 443.7605 318.04 
z
" style="fill:#ffffff;stroke:#ffffff;stroke-linejoin:miter;stroke-width:0.01;"/>
   </g>
   <g id="QuadMesh_1">
    <path clip-path="url(#pe2f764edab)" d="M 428.5965 318.04 
L 443.7605 318.04 
L 443.7605 242.22 
L 428.5965 242.22 
L 428.5965 318.04 
" style="fill:#006d2c;"/>
    <path clip-path="url(#pe2f764edab)" d="M 428.5965 242.22 
L 443.7605 242.22 
L 443.7605 166.4 
L 428.5965 166.4 
L 428.5965 242.22 
" style="fill:#42ab5d;"/>
    <path clip-path="url(#pe2f764edab)" d="M 428.5965 166.4 
L 443.7605 166.4 
L 443.7605 90.58 
L 428.5965 90.58 
L 428.5965 166.4 
" style="fill:#a2d99c;"/>
    <path clip-path="url(#pe2f764edab)" d="M 428.5965 90.58 
L 443.7605 90.58 
L 443.7605 14.76 
L 428.5965 14.76 
L 428.5965 90.58 
" style="fill:#e5f5e1;"/>
   </g>
   <g id="matplotlib.axis_3"/>
   <g id="matplotlib.axis_4">
    <g id="ytick_10">
     <g id="line2d_31">
      <defs>
       <path d="M 0 0 
L 3.5 0 
" id="m526cbf6e3b" style="stroke:#000000;stroke-width:0.8;"/>
      </defs>
      <g>
       <use style="stroke:#000000;stroke-width:0.8;" x="443.7605" xlink:href="#m526cbf6e3b" y="318.04"/>
      </g>
     </g>
    </g>
    <g id="ytick_11">
     <g id="line2d_32">
      <g>
       <use style="stroke:#000000;stroke-width:0.8;" x="443.7605" xlink:href="#m526cbf6e3b" y="166.4"/>
      </g>
     </g>
     <g id="text_19">
      <!-- $1\sigma$ -->
      <g transform="translate(450.7605 170.199219)scale(0.1 -0.1)">
       <defs>
        <path d="M 2219 3044 
Q 1744 3044 1422 2700 
Q 1081 2341 969 1747 
Q 844 1119 1044 756 
Q 1241 397 1706 397 
Q 2166 397 2503 759 
Q 2844 1122 2966 1747 
Q 3075 2319 2881 2700 
Q 2700 3044 2219 3044 
z
M 2309 3503 
L 4219 3500 
L 4106 2925 
L 3463 2925 
Q 3706 2438 3575 1747 
Q 3406 888 2884 400 
Q 2359 -91 1609 -91 
Q 856 -91 525 400 
Q 194 888 363 1747 
Q 528 2609 1050 3097 
Q 1484 3503 2309 3503 
z
" id="DejaVuSans-Oblique-3c3" transform="scale(0.015625)"/>
       </defs>
       <use transform="translate(0 0.09375)" xlink:href="#DejaVuSans-31"/>
       <use transform="translate(63.623047 0.09375)" xlink:href="#DejaVuSans-Oblique-3c3"/>
      </g>
     </g>
    </g>
    <g id="ytick_12">
     <g id="line2d_33">
      <g>
       <use style="stroke:#000000;stroke-width:0.8;" x="443.7605" xlink:href="#m526cbf6e3b" y="14.76"/>
      </g>
     </g>
     <g id="text_20">
      <!-- $2\sigma$ -->
      <g transform="translate(450.7605 18.559219)scale(0.1 -0.1)">
       <use transform="translate(0 0.78125)" xlink:href="#DejaVuSans-32"/>
       <use transform="translate(63.623047 0.78125)" xlink:href="#DejaVuSans-Oblique-3c3"/>
      </g>
     </g>
    </g>
   </g>
   <g id="LineCollection_4"/>
   <g id="patch_9">
    <path d="M 428.5965 318.04 
L 428.5965 242.22 
L 428.5965 90.58 
L 428.5965 14.76 
L 443.7605 14.76 
L 443.7605 90.58 
L 443.7605 242.22 
L 443.7605 318.04 
z
" style="fill:none;stroke:#000000;stroke-linecap:square;stroke-linejoin:miter;stroke-width:0.8;"/>
   </g>
  </g>
 </g>
 <defs>
  <clipPath id="pc469f4d124">
   <rect height="303.28" width="344.552" x="62.51" y="14.76"/>
  </clipPath>
  <clipPath id="pe2f764edab">
   <rect height="303.28" width="15.164" x="428.5965" y="14.76"/>
  </clipPath>
 </defs>
</svg>
