<?xml version="1.0" encoding="utf-8" standalone="no"?>
<!DOCTYPE svg PUBLIC "-//W3C//DTD SVG 1.1//EN"
  "http://www.w3.org/Graphics/SVG/1.1/DTD/svg11.dtd">
<!-- Created with matplotlib (https://matplotlib.org/) -->
<svg height="288pt" version="1.1" viewBox="0 0 432 288" width="432pt" xmlns="http://www.w3.org/2000/svg" xmlns:xlink="http://www.w3.org/1999/xlink">
 <metadata>
  <rdf:RDF xmlns:cc="http://creativecommons.org/ns#" xmlns:dc="http://purl.org/dc/elements/1.1/" xmlns:rdf="http://www.w3.org/1999/02/22-rdf-syntax-ns#">
   <cc:Work>
    <dc:type rdf:resource="http://purl.org/dc/dcmitype/StillImage"/>
    <dc:date>2022-03-31T15:02:48.871752</dc:date>
    <dc:format>image/svg+xml</dc:format>
    <dc:creator>
     <cc:Agent>
      <dc:title>Matplotlib v3.3.3, https://matplotlib.org/</dc:title>
     </cc:Agent>
    </dc:creator>
   </cc:Work>
  </rdf:RDF>
 </metadata>
 <defs>
  <style type="text/css">*{stroke-linecap:butt;stroke-linejoin:round;}</style>
 </defs>
 <g id="figure_1">
  <g id="patch_1">
   <path d="M 0 288 
L 432 288 
L 432 0 
L 0 0 
z
" style="fill:none;"/>
  </g>
  <g id="axes_1">
   <g id="patch_2">
    <path d="M 85.775409 223.517271 
L 345.475082 223.517271 
L 345.475082 27.82665 
L 85.775409 27.82665 
z
" style="fill:#ffffff;"/>
   </g>
   <g id="PathCollection_1">
    <defs>
     <path d="M 85.787947 -148.25581 
L 86.284495 -149.230655 
L 86.844189 -150.205499 
L 87.432417 -151.180343 
L 88.026245 -152.155188 
L 88.618402 -153.130032 
L 89.212663 -154.104877 
L 89.817559 -155.079721 
L 90.103737 -155.524486 
L 90.444711 -156.054565 
L 91.236431 -157.02941 
L 92.215483 -158.004254 
L 93.346374 -158.979099 
L 94.432065 -159.824496 
L 94.530876 -159.953943 
L 95.4972 -160.928788 
L 97.494743 -161.903632 
L 98.760393 -162.329127 
L 99.696973 -162.878476 
L 101.119013 -163.853321 
L 102.501243 -164.828165 
L 103.088721 -164.971864 
L 106.6055 -165.80301 
L 107.417049 -166.428774 
L 108.946809 -166.777854 
L 111.593531 -167.752698 
L 111.745376 -167.834545 
L 116.073704 -168.280912 
L 120.402032 -168.356873 
L 124.73036 -168.270065 
L 129.058688 -168.107284 
L 133.387016 -167.903554 
L 136.272082 -167.752698 
L 137.715344 -167.678828 
L 142.043672 -167.447186 
L 146.371999 -167.206295 
L 150.700327 -166.963038 
L 154.02767 -166.777854 
L 155.028655 -166.726583 
L 159.356983 -166.505866 
L 163.685311 -166.290385 
L 168.013639 -166.08301 
L 172.341967 -165.884975 
L 174.192426 -165.80301 
L 176.670295 -165.705241 
L 180.998622 -165.537258 
L 185.32695 -165.374177 
L 189.655278 -165.215586 
L 193.983606 -165.062088 
L 198.311934 -164.914712 
L 200.940829 -164.828165 
L 202.640262 -164.780013 
L 206.96859 -164.658007 
L 211.296918 -164.538982 
L 215.625245 -164.423274 
L 219.953573 -164.311316 
L 224.281901 -164.203633 
L 228.610229 -164.100816 
L 232.938557 -164.003494 
L 237.266885 -163.912293 
L 240.238929 -163.853321 
L 241.595213 -163.831683 
L 245.923541 -163.764091 
L 250.251868 -163.699298 
L 254.580196 -163.637142 
L 258.908524 -163.577924 
L 263.236852 -163.520907 
L 267.56518 -163.46594 
L 271.893508 -163.412909 
L 276.221836 -163.361739 
L 280.550164 -163.313084 
L 284.878492 -163.266387 
L 289.206819 -163.221502 
L 293.535147 -163.178463 
L 297.863475 -163.137997 
L 302.191803 -163.099649 
L 306.520131 -163.063237 
L 310.848459 -163.029041 
L 315.176787 -162.997446 
L 319.505115 -162.967782 
L 323.833442 -162.940156 
L 328.16177 -162.915087 
L 332.490098 -162.891787 
L 335.129704 -162.878476 
L 336.818426 -162.872094 
L 341.146754 -162.856537 
L 345.475082 -162.84165 
L 349.80341 -162.827683 
L 349.80341 -162.878476 
L 349.80341 -163.853321 
L 349.80341 -164.376876 
L 345.475082 -164.434702 
L 341.146754 -164.47955 
L 336.818426 -164.519545 
L 332.490098 -164.577499 
L 328.16177 -164.668563 
L 324.028802 -164.828165 
L 323.833442 -164.834312 
L 319.505115 -164.991119 
L 315.176787 -165.120481 
L 310.848459 -165.223105 
L 306.520131 -165.317874 
L 302.191803 -165.411991 
L 297.863475 -165.510818 
L 293.535147 -165.62333 
L 289.206819 -165.772741 
L 288.601641 -165.80301 
L 284.878492 -165.998794 
L 280.550164 -166.173998 
L 276.221836 -166.311877 
L 271.893508 -166.446411 
L 267.56518 -166.598667 
L 264.049821 -166.777854 
L 263.236852 -166.829774 
L 258.908524 -167.108191 
L 254.580196 -167.295803 
L 250.251868 -167.472383 
L 245.923541 -167.704076 
L 245.326251 -167.752698 
L 241.595213 -168.066138 
L 237.266885 -168.301966 
L 232.938557 -168.528625 
L 230.538295 -168.727543 
L 228.610229 -168.916703 
L 224.281901 -169.239129 
L 219.953573 -169.506596 
L 217.967802 -169.702387 
L 215.625245 -169.965116 
L 211.296918 -170.300803 
L 206.96859 -170.669025 
L 206.899798 -170.677232 
L 202.640262 -171.1625 
L 198.311934 -171.524009 
L 197.296061 -171.652076 
L 193.983606 -172.082701 
L 189.655278 -172.477942 
L 188.539613 -172.626921 
L 185.32695 -173.072295 
L 180.998622 -173.513272 
L 180.378987 -173.601765 
L 176.670295 -174.128025 
L 172.89615 -174.576609 
L 172.341967 -174.661612 
L 168.013639 -175.235006 
L 165.737255 -175.551454 
L 163.685311 -175.878033 
L 159.356983 -176.391801 
L 158.447794 -176.526298 
L 155.028655 -177.046988 
L 151.309076 -177.501143 
L 150.700327 -177.595275 
L 146.371999 -178.140704 
L 143.283729 -178.475987 
L 142.043672 -178.642838 
L 137.715344 -179.047038 
L 133.387016 -179.319843 
L 129.337167 -179.450831 
L 129.058688 -179.461844 
L 128.362865 -179.450831 
L 124.73036 -179.393659 
L 120.402032 -179.054314 
L 116.968348 -178.475987 
L 116.073704 -178.331925 
L 113.431018 -177.501143 
L 111.745376 -177.065099 
L 110.449926 -176.526298 
L 108.686397 -175.551454 
L 107.417049 -174.734773 
L 107.160991 -174.576609 
L 105.444528 -173.601765 
L 103.088721 -173.077963 
L 101.922793 -172.626921 
L 100.277482 -171.652076 
L 100.372407 -170.677232 
L 100.78488 -169.702387 
L 98.760393 -169.225011 
L 96.927945 -168.727543 
L 94.432065 -168.292692 
L 92.524498 -167.752698 
L 90.103737 -167.056483 
L 89.537587 -166.777854 
L 88.236142 -165.80301 
L 86.750638 -164.828165 
L 85.775409 -164.081775 
L 85.775409 -163.853321 
L 85.775409 -162.878476 
L 85.775409 -161.903632 
L 85.775409 -160.928788 
L 85.775409 -159.953943 
L 85.775409 -158.979099 
L 85.775409 -158.004254 
L 85.775409 -157.02941 
L 85.775409 -156.054565 
L 85.775409 -155.079721 
L 85.775409 -154.104877 
L 85.775409 -153.130032 
L 85.775409 -152.155188 
L 85.775409 -151.180343 
L 85.775409 -150.205499 
L 85.775409 -149.230655 
L 85.775409 -148.25581 
L 85.775409 -148.228122 
z
" id="md26e650c76" style="stroke:#006428;"/>
    </defs>
    <g clip-path="url(#p33faea266f)">
     <use style="fill:#006428;stroke:#006428;" x="0" xlink:href="#md26e650c76" y="288"/>
    </g>
   </g>
   <g id="PathCollection_2">
    <path clip-path="url(#p33faea266f)" d="M 85.899419 149.492634 
L 86.21232 148.51779 
L 86.515133 147.542945 
L 86.815999 146.568101 
L 87.131482 145.593256 
L 87.48524 144.618412 
L 87.911185 143.643568 
L 88.458204 142.668723 
L 89.17142 141.693879 
L 90.018635 140.719034 
L 90.103737 140.617128 
L 90.455195 139.74419 
L 90.823994 138.769345 
L 91.222177 137.794501 
L 91.667957 136.819657 
L 92.18871 135.844812 
L 92.840861 134.869968 
L 93.694362 133.895123 
L 94.432065 133.214186 
L 94.66024 132.920279 
L 95.375586 131.945435 
L 96.083639 130.97059 
L 96.846399 129.995746 
L 97.763934 129.020901 
L 98.760393 128.217181 
L 99.082865 128.046057 
L 101.072601 127.071212 
L 102.920758 126.096368 
L 103.088721 125.991309 
L 107.417049 125.137988 
L 111.745376 125.347262 
L 116.073704 125.512633 
L 120.402032 125.746669 
L 124.73036 126.017383 
L 126.032032 126.096368 
L 129.058688 126.269647 
L 133.387016 126.475149 
L 137.715344 126.63211 
L 142.043672 126.748286 
L 146.371999 126.822902 
L 150.700327 126.868602 
L 155.028655 126.888842 
L 159.356983 126.892938 
L 163.685311 126.886457 
L 168.013639 126.872058 
L 172.341967 126.85366 
L 176.670295 126.832446 
L 180.998622 126.80895 
L 185.32695 126.783189 
L 189.655278 126.755912 
L 193.983606 126.727311 
L 198.311934 126.697611 
L 202.640262 126.667071 
L 206.96859 126.635965 
L 211.296918 126.604561 
L 215.625245 126.573113 
L 219.953573 126.541845 
L 224.281901 126.510947 
L 228.610229 126.480581 
L 232.938557 126.450877 
L 237.266885 126.421944 
L 241.595213 126.393871 
L 245.923541 126.366739 
L 250.251868 126.34062 
L 254.580196 126.315597 
L 258.908524 126.29183 
L 263.236852 126.269279 
L 267.56518 126.24796 
L 271.893508 126.227855 
L 276.221836 126.208903 
L 280.550164 126.191149 
L 284.878492 126.174366 
L 289.206819 126.158388 
L 293.535147 126.143083 
L 297.863475 126.128489 
L 302.191803 126.114396 
L 306.520131 126.100656 
L 307.874899 126.096368 
L 310.848459 126.084627 
L 315.176787 126.068059 
L 319.505115 126.051953 
L 323.833442 126.036316 
L 328.16177 126.021352 
L 332.490098 126.006741 
L 336.818426 125.992531 
L 341.146754 125.978866 
L 345.475082 125.965449 
L 349.80341 125.952442 
L 349.80341 125.172317 
L 345.475082 125.15835 
L 341.146754 125.143463 
L 336.818426 125.127906 
L 335.129704 125.121524 
L 332.490098 125.108213 
L 328.16177 125.084913 
L 323.833442 125.059844 
L 319.505115 125.032218 
L 315.176787 125.002554 
L 310.848459 124.970959 
L 306.520131 124.936763 
L 302.191803 124.900351 
L 297.863475 124.862003 
L 293.535147 124.821537 
L 289.206819 124.778498 
L 284.878492 124.733613 
L 280.550164 124.686916 
L 276.221836 124.638261 
L 271.893508 124.587091 
L 267.56518 124.53406 
L 263.236852 124.479093 
L 258.908524 124.422076 
L 254.580196 124.362858 
L 250.251868 124.300702 
L 245.923541 124.235909 
L 241.595213 124.168317 
L 240.238929 124.146679 
L 237.266885 124.087707 
L 232.938557 123.996506 
L 228.610229 123.899184 
L 224.281901 123.796367 
L 219.953573 123.688684 
L 215.625245 123.576726 
L 211.296918 123.461018 
L 206.96859 123.341993 
L 202.640262 123.219987 
L 200.940829 123.171835 
L 198.311934 123.085288 
L 193.983606 122.937912 
L 189.655278 122.784414 
L 185.32695 122.625823 
L 180.998622 122.462742 
L 176.670295 122.294759 
L 174.192426 122.19699 
L 172.341967 122.115025 
L 168.013639 121.91699 
L 163.685311 121.709615 
L 159.356983 121.494134 
L 155.028655 121.273417 
L 154.02767 121.222146 
L 150.700327 121.036962 
L 146.371999 120.793705 
L 142.043672 120.552814 
L 137.715344 120.321172 
L 136.272082 120.247302 
L 133.387016 120.096446 
L 129.058688 119.892716 
L 124.73036 119.729935 
L 120.402032 119.643127 
L 116.073704 119.719088 
L 111.745376 120.165455 
L 111.593531 120.247302 
L 108.946809 121.222146 
L 107.417049 121.571226 
L 106.6055 122.19699 
L 103.088721 123.028136 
L 102.501243 123.171835 
L 101.119013 124.146679 
L 99.696973 125.121524 
L 98.760393 125.670873 
L 97.494743 126.096368 
L 95.4972 127.071212 
L 94.530876 128.046057 
L 94.432065 128.175504 
L 93.346374 129.020901 
L 92.215483 129.995746 
L 91.236431 130.97059 
L 90.444711 131.945435 
L 90.103737 132.475514 
L 89.817559 132.920279 
L 89.212663 133.895123 
L 88.618402 134.869968 
L 88.026245 135.844812 
L 87.432417 136.819657 
L 86.844189 137.794501 
L 86.284495 138.769345 
L 85.787947 139.74419 
L 85.775409 139.771878 
L 85.775409 140.719034 
L 85.775409 141.693879 
L 85.775409 142.668723 
L 85.775409 143.643568 
L 85.775409 144.618412 
L 85.775409 145.593256 
L 85.775409 146.568101 
L 85.775409 147.542945 
L 85.775409 148.51779 
L 85.775409 149.492634 
L 85.775409 149.851242 
z
" style="fill:#2f974e;stroke:#2f974e;"/>
    <path clip-path="url(#p33faea266f)" d="M 86.750638 123.171835 
L 88.236142 122.19699 
L 89.537587 121.222146 
L 90.103737 120.943517 
L 92.524498 120.247302 
L 94.432065 119.707308 
L 96.927945 119.272457 
L 98.760393 118.774989 
L 100.78488 118.297613 
L 100.372407 117.322768 
L 100.277482 116.347924 
L 101.922793 115.373079 
L 103.088721 114.922037 
L 105.444528 114.398235 
L 107.160991 113.423391 
L 107.417049 113.265227 
L 108.686397 112.448546 
L 110.449926 111.473702 
L 111.745376 110.934901 
L 113.431018 110.498857 
L 116.073704 109.668075 
L 116.968348 109.524013 
L 120.402032 108.945686 
L 124.73036 108.606341 
L 128.362865 108.549169 
L 129.058688 108.538156 
L 129.337167 108.549169 
L 133.387016 108.680157 
L 137.715344 108.952962 
L 142.043672 109.357162 
L 143.283729 109.524013 
L 146.371999 109.859296 
L 150.700327 110.404725 
L 151.309076 110.498857 
L 155.028655 110.953012 
L 158.447794 111.473702 
L 159.356983 111.608199 
L 163.685311 112.121967 
L 165.737255 112.448546 
L 168.013639 112.764994 
L 172.341967 113.338388 
L 172.89615 113.423391 
L 176.670295 113.871975 
L 180.378987 114.398235 
L 180.998622 114.486728 
L 185.32695 114.927705 
L 188.539613 115.373079 
L 189.655278 115.522058 
L 193.983606 115.917299 
L 197.296061 116.347924 
L 198.311934 116.475991 
L 202.640262 116.8375 
L 206.899798 117.322768 
L 206.96859 117.330975 
L 211.296918 117.699197 
L 215.625245 118.034884 
L 217.967802 118.297613 
L 219.953573 118.493404 
L 224.281901 118.760871 
L 228.610229 119.083297 
L 230.538295 119.272457 
L 232.938557 119.471375 
L 237.266885 119.698034 
L 241.595213 119.933862 
L 245.326251 120.247302 
L 245.923541 120.295924 
L 250.251868 120.527617 
L 254.580196 120.704197 
L 258.908524 120.891809 
L 263.236852 121.170226 
L 264.049821 121.222146 
L 267.56518 121.401333 
L 271.893508 121.553589 
L 276.221836 121.688123 
L 280.550164 121.826002 
L 284.878492 122.001206 
L 288.601641 122.19699 
L 289.206819 122.227259 
L 293.535147 122.37667 
L 297.863475 122.489182 
L 302.191803 122.588009 
L 306.520131 122.682126 
L 310.848459 122.776895 
L 315.176787 122.879519 
L 319.505115 123.008881 
L 323.833442 123.165688 
L 324.028802 123.171835 
L 328.16177 123.331437 
L 332.490098 123.422501 
L 336.818426 123.480455 
L 341.146754 123.52045 
L 345.475082 123.565298 
L 349.80341 123.623124 
L 349.80341 123.171835 
L 349.80341 122.955588 
L 345.475082 122.845904 
L 341.146754 122.736643 
L 336.818426 122.629893 
L 332.490098 122.522221 
L 328.16177 122.414109 
L 323.833442 122.306595 
L 319.505115 122.202282 
L 319.275781 122.19699 
L 315.176787 122.048146 
L 310.848459 121.891472 
L 306.520131 121.735139 
L 302.191803 121.58041 
L 297.863475 121.426573 
L 293.535147 121.272755 
L 292.118609 121.222146 
L 289.206819 121.08129 
L 284.878492 120.872915 
L 280.550164 120.667884 
L 276.221836 120.464143 
L 271.893508 120.25931 
L 271.640793 120.247302 
L 267.56518 120.000103 
L 263.236852 119.740885 
L 258.908524 119.484585 
L 255.309961 119.272457 
L 254.580196 119.219819 
L 250.251868 118.903289 
L 245.923541 118.590965 
L 241.814503 118.297613 
L 241.595213 118.278998 
L 237.266885 117.908099 
L 232.938557 117.542576 
L 230.321999 117.322768 
L 228.610229 117.155411 
L 224.281901 116.732285 
L 220.289806 116.347924 
L 219.953573 116.310956 
L 215.625245 115.831556 
L 211.408627 115.373079 
L 211.296918 115.35942 
L 206.96859 114.826561 
L 203.429494 114.398235 
L 202.640262 114.292102 
L 198.311934 113.710346 
L 196.148093 113.423391 
L 193.983606 113.107334 
L 189.655278 112.483659 
L 189.408986 112.448546 
L 185.32695 111.811637 
L 183.115378 111.473702 
L 180.998622 111.122686 
L 177.158215 110.498857 
L 176.670295 110.41345 
L 172.341967 109.67311 
L 171.438504 109.524013 
L 168.013639 108.915397 
L 165.863972 108.549169 
L 163.685311 108.151642 
L 160.344104 107.574324 
L 159.356983 107.392613 
L 155.028655 106.642742 
L 154.760236 106.59948 
L 150.700327 105.905765 
L 148.865604 105.624635 
L 146.371999 105.222345 
L 142.35969 104.649791 
L 142.043672 104.602748 
L 137.715344 104.081541 
L 133.387016 103.702358 
L 132.714606 103.674946 
L 129.058688 103.522527 
L 124.73036 103.628167 
L 124.333584 103.674946 
L 120.402032 104.104656 
L 118.058944 104.649791 
L 116.073704 105.084439 
L 114.656727 105.624635 
L 111.995126 106.59948 
L 111.745376 106.689292 
L 110.123843 107.574324 
L 108.133723 108.549169 
L 107.417049 108.891661 
L 106.628173 109.524013 
L 105.338089 110.498857 
L 103.940619 111.473702 
L 103.088721 112.013821 
L 102.363278 112.448546 
L 100.629054 113.423391 
L 98.899373 114.398235 
L 98.760393 114.482672 
L 96.641905 115.373079 
L 94.60495 116.347924 
L 94.432065 116.426636 
L 91.041393 117.322768 
L 90.103737 117.660181 
L 87.367878 118.297613 
L 85.775409 118.852692 
L 85.775409 119.272457 
L 85.775409 120.247302 
L 85.775409 121.222146 
L 85.775409 122.19699 
L 85.775409 123.171835 
L 85.775409 123.918225 
z
" style="fill:#2f974e;stroke:#2f974e;"/>
   </g>
   <g id="PathCollection_3">
    <path clip-path="url(#p33faea266f)" d="M 85.936167 154.366856 
L 86.33262 153.392012 
L 86.745888 152.417167 
L 87.160271 151.442323 
L 87.568323 150.467478 
L 87.996215 149.492634 
L 88.433415 148.51779 
L 88.857294 147.542945 
L 89.293357 146.568101 
L 89.777131 145.593256 
L 90.103737 145.018605 
L 90.307321 144.618412 
L 90.824705 143.643568 
L 91.336447 142.668723 
L 91.816787 141.693879 
L 92.254675 140.719034 
L 92.687869 139.74419 
L 93.191273 138.769345 
L 93.824432 137.794501 
L 94.432065 136.974695 
L 94.588798 136.819657 
L 95.435058 135.844812 
L 96.191616 134.869968 
L 96.939789 133.895123 
L 97.704416 132.920279 
L 98.499305 131.945435 
L 98.760393 131.639532 
L 100.10191 130.97059 
L 101.766576 129.995746 
L 103.088721 129.181315 
L 106.214255 129.020901 
L 107.417049 128.951978 
L 107.841896 129.020901 
L 111.745376 129.708169 
L 113.380271 129.995746 
L 116.073704 130.550385 
L 119.391336 130.97059 
L 120.402032 131.113858 
L 124.73036 131.450667 
L 129.058688 131.607812 
L 133.387016 131.635405 
L 137.715344 131.582829 
L 142.043672 131.495597 
L 146.371999 131.381545 
L 150.700327 131.253757 
L 155.028655 131.105461 
L 158.553543 130.97059 
L 159.356983 130.944713 
L 163.685311 130.788644 
L 168.013639 130.618783 
L 172.341967 130.439648 
L 176.670295 130.253002 
L 180.998622 130.060459 
L 182.396428 129.995746 
L 185.32695 129.885008 
L 189.655278 129.718438 
L 193.983606 129.550881 
L 198.311934 129.38276 
L 202.640262 129.214502 
L 206.96859 129.046506 
L 207.621124 129.020901 
L 211.296918 128.90953 
L 215.625245 128.779941 
L 219.953573 128.65187 
L 224.281901 128.52499 
L 228.610229 128.399167 
L 232.938557 128.274399 
L 237.266885 128.150742 
L 240.96008 128.046057 
L 241.595213 128.033144 
L 245.923541 127.947169 
L 250.251868 127.864701 
L 254.580196 127.784853 
L 258.908524 127.707251 
L 263.236852 127.630728 
L 267.56518 127.554785 
L 271.893508 127.479135 
L 276.221836 127.403673 
L 280.550164 127.32923 
L 284.878492 127.255349 
L 289.206819 127.18194 
L 293.535147 127.109079 
L 295.829409 127.071212 
L 297.863475 127.048612 
L 302.191803 127.003153 
L 306.520131 126.960627 
L 310.848459 126.920873 
L 315.176787 126.883917 
L 319.505115 126.848847 
L 323.833442 126.815528 
L 328.16177 126.784323 
L 332.490098 126.754313 
L 336.818426 126.725526 
L 341.146754 126.698197 
L 345.475082 126.671551 
L 349.80341 126.645883 
L 349.80341 126.096368 
L 349.80341 125.952442 
L 345.475082 125.965449 
L 341.146754 125.978866 
L 336.818426 125.992531 
L 332.490098 126.006741 
L 328.16177 126.021352 
L 323.833442 126.036316 
L 319.505115 126.051953 
L 315.176787 126.068059 
L 310.848459 126.084627 
L 307.874899 126.096368 
L 306.520131 126.100656 
L 302.191803 126.114396 
L 297.863475 126.128489 
L 293.535147 126.143083 
L 289.206819 126.158388 
L 284.878492 126.174366 
L 280.550164 126.191149 
L 276.221836 126.208903 
L 271.893508 126.227855 
L 267.56518 126.24796 
L 263.236852 126.269279 
L 258.908524 126.29183 
L 254.580196 126.315597 
L 250.251868 126.34062 
L 245.923541 126.366739 
L 241.595213 126.393871 
L 237.266885 126.421944 
L 232.938557 126.450877 
L 228.610229 126.480581 
L 224.281901 126.510947 
L 219.953573 126.541845 
L 215.625245 126.573113 
L 211.296918 126.604561 
L 206.96859 126.635965 
L 202.640262 126.667071 
L 198.311934 126.697611 
L 193.983606 126.727311 
L 189.655278 126.755912 
L 185.32695 126.783189 
L 180.998622 126.80895 
L 176.670295 126.832446 
L 172.341967 126.85366 
L 168.013639 126.872058 
L 163.685311 126.886457 
L 159.356983 126.892938 
L 155.028655 126.888842 
L 150.700327 126.868602 
L 146.371999 126.822902 
L 142.043672 126.748286 
L 137.715344 126.63211 
L 133.387016 126.475149 
L 129.058688 126.269647 
L 126.032032 126.096368 
L 124.73036 126.017383 
L 120.402032 125.746669 
L 116.073704 125.512633 
L 111.745376 125.347262 
L 107.417049 125.137988 
L 103.088721 125.991309 
L 102.920758 126.096368 
L 101.072601 127.071212 
L 99.082865 128.046057 
L 98.760393 128.217181 
L 97.763934 129.020901 
L 96.846399 129.995746 
L 96.083639 130.97059 
L 95.375586 131.945435 
L 94.66024 132.920279 
L 94.432065 133.214186 
L 93.694362 133.895123 
L 92.840861 134.869968 
L 92.18871 135.844812 
L 91.667957 136.819657 
L 91.222177 137.794501 
L 90.823994 138.769345 
L 90.455195 139.74419 
L 90.103737 140.617128 
L 90.018635 140.719034 
L 89.17142 141.693879 
L 88.458204 142.668723 
L 87.911185 143.643568 
L 87.48524 144.618412 
L 87.131482 145.593256 
L 86.815999 146.568101 
L 86.515133 147.542945 
L 86.21232 148.51779 
L 85.899419 149.492634 
L 85.775409 149.851242 
L 85.775409 150.467478 
L 85.775409 151.442323 
L 85.775409 152.417167 
L 85.775409 153.392012 
L 85.775409 154.366856 
L 85.775409 154.781703 
z
" style="fill:#75c477;stroke:#75c477;"/>
    <path clip-path="url(#p33faea266f)" d="M 319.505115 122.202282 
L 323.833442 122.306595 
L 328.16177 122.414109 
L 332.490098 122.522221 
L 336.818426 122.629893 
L 341.146754 122.736643 
L 345.475082 122.845904 
L 349.80341 122.955588 
L 349.80341 122.19699 
L 349.80341 122.005893 
L 345.475082 121.881495 
L 341.146754 121.748639 
L 336.818426 121.60535 
L 332.490098 121.446362 
L 328.16177 121.276652 
L 326.761162 121.222146 
L 323.833442 121.110631 
L 319.505115 120.942084 
L 315.176787 120.764775 
L 310.848459 120.572245 
L 306.520131 120.358705 
L 304.339185 120.247302 
L 302.191803 120.140705 
L 297.863475 119.925333 
L 293.535147 119.694832 
L 289.206819 119.438453 
L 286.551755 119.272457 
L 284.878492 119.170116 
L 280.550164 118.90381 
L 276.221836 118.615971 
L 271.915744 118.297613 
L 271.893508 118.295974 
L 267.56518 117.980865 
L 263.236852 117.642871 
L 259.476828 117.322768 
L 258.908524 117.274283 
L 254.580196 116.904367 
L 250.251868 116.499235 
L 248.706066 116.347924 
L 245.923541 116.075247 
L 241.595213 115.629395 
L 239.250004 115.373079 
L 237.266885 115.153818 
L 232.938557 114.657313 
L 230.798909 114.398235 
L 228.610229 114.128536 
L 224.281901 113.571262 
L 223.171453 113.423391 
L 219.953573 112.98574 
L 216.21745 112.448546 
L 215.625245 112.360684 
L 211.296918 111.709449 
L 209.786306 111.473702 
L 206.96859 111.020224 
L 203.84056 110.498857 
L 202.640262 110.291501 
L 198.311934 109.524789 
L 198.307576 109.524013 
L 193.983606 108.726264 
L 193.041677 108.549169 
L 189.655278 107.887997 
L 188.066895 107.574324 
L 185.32695 107.011688 
L 183.329083 106.59948 
L 180.998622 106.099265 
L 178.786175 105.624635 
L 176.670295 105.152603 
L 174.39784 104.649791 
L 172.341967 104.177261 
L 170.124784 103.674946 
L 168.013639 103.178901 
L 165.932414 102.700102 
L 163.685311 102.164958 
L 161.771432 101.725258 
L 159.356983 101.152684 
L 157.580292 100.750413 
L 155.028655 100.155534 
L 153.284142 99.775569 
L 150.700327 99.198048 
L 148.700713 98.800724 
L 146.371999 98.329587 
L 143.471081 97.82588 
L 142.043672 97.576624 
L 137.715344 97.0413 
L 134.860403 96.851036 
L 133.387016 96.758034 
L 129.058688 96.824634 
L 128.82845 96.851036 
L 124.73036 97.305224 
L 122.394332 97.82588 
L 120.402032 98.235425 
L 118.877374 98.800724 
L 116.073704 99.689071 
L 115.927818 99.775569 
L 114.180371 100.750413 
L 111.984705 101.725258 
L 111.745376 101.822831 
L 110.604544 102.700102 
L 109.180838 103.674946 
L 107.417049 104.644144 
L 107.409254 104.649791 
L 106.00113 105.624635 
L 104.621972 106.59948 
L 103.298987 107.574324 
L 103.088721 107.733658 
L 101.842369 108.549169 
L 100.43746 109.524013 
L 99.009133 110.498857 
L 98.760393 110.658567 
L 95.548636 111.473702 
L 94.432065 111.823616 
L 90.313369 111.473702 
L 90.103737 111.45208 
L 86.978705 110.498857 
L 85.775409 110.012061 
L 85.775409 110.498857 
L 85.775409 111.473702 
L 85.775409 112.448546 
L 85.775409 113.423391 
L 85.775409 114.398235 
L 85.775409 115.373079 
L 85.775409 116.347924 
L 85.775409 117.322768 
L 85.775409 118.297613 
L 85.775409 118.852692 
L 87.367878 118.297613 
L 90.103737 117.660181 
L 91.041393 117.322768 
L 94.432065 116.426636 
L 94.60495 116.347924 
L 96.641905 115.373079 
L 98.760393 114.482672 
L 98.899373 114.398235 
L 100.629054 113.423391 
L 102.363278 112.448546 
L 103.088721 112.013821 
L 103.940619 111.473702 
L 105.338089 110.498857 
L 106.628173 109.524013 
L 107.417049 108.891661 
L 108.133723 108.549169 
L 110.123843 107.574324 
L 111.745376 106.689292 
L 111.995126 106.59948 
L 114.656727 105.624635 
L 116.073704 105.084439 
L 118.058944 104.649791 
L 120.402032 104.104656 
L 124.333584 103.674946 
L 124.73036 103.628167 
L 129.058688 103.522527 
L 132.714606 103.674946 
L 133.387016 103.702358 
L 137.715344 104.081541 
L 142.043672 104.602748 
L 142.35969 104.649791 
L 146.371999 105.222345 
L 148.865604 105.624635 
L 150.700327 105.905765 
L 154.760236 106.59948 
L 155.028655 106.642742 
L 159.356983 107.392613 
L 160.344104 107.574324 
L 163.685311 108.151642 
L 165.863972 108.549169 
L 168.013639 108.915397 
L 171.438504 109.524013 
L 172.341967 109.67311 
L 176.670295 110.41345 
L 177.158215 110.498857 
L 180.998622 111.122686 
L 183.115378 111.473702 
L 185.32695 111.811637 
L 189.408986 112.448546 
L 189.655278 112.483659 
L 193.983606 113.107334 
L 196.148093 113.423391 
L 198.311934 113.710346 
L 202.640262 114.292102 
L 203.429494 114.398235 
L 206.96859 114.826561 
L 211.296918 115.35942 
L 211.408627 115.373079 
L 215.625245 115.831556 
L 219.953573 116.310956 
L 220.289806 116.347924 
L 224.281901 116.732285 
L 228.610229 117.155411 
L 230.321999 117.322768 
L 232.938557 117.542576 
L 237.266885 117.908099 
L 241.595213 118.278998 
L 241.814503 118.297613 
L 245.923541 118.590965 
L 250.251868 118.903289 
L 254.580196 119.219819 
L 255.309961 119.272457 
L 258.908524 119.484585 
L 263.236852 119.740885 
L 267.56518 120.000103 
L 271.640793 120.247302 
L 271.893508 120.25931 
L 276.221836 120.464143 
L 280.550164 120.667884 
L 284.878492 120.872915 
L 289.206819 121.08129 
L 292.118609 121.222146 
L 293.535147 121.272755 
L 297.863475 121.426573 
L 302.191803 121.58041 
L 306.520131 121.735139 
L 310.848459 121.891472 
L 315.176787 122.048146 
L 319.275781 122.19699 
z
" style="fill:#75c477;stroke:#75c477;"/>
   </g>
   <g id="PathCollection_4">
    <path clip-path="url(#p33faea266f)" d="M 86.034046 159.241078 
L 86.406181 158.266234 
L 86.805532 157.291389 
L 87.147795 156.316545 
L 87.506319 155.3417 
L 87.884762 154.366856 
L 88.281208 153.392012 
L 88.690898 152.417167 
L 89.111515 151.442323 
L 89.564067 150.467478 
L 90.093011 149.492634 
L 90.103737 149.47293 
L 90.573527 148.51779 
L 91.095107 147.542945 
L 91.580587 146.568101 
L 92.116962 145.593256 
L 92.675345 144.618412 
L 93.18392 143.643568 
L 93.631292 142.668723 
L 94.038486 141.693879 
L 94.432065 140.752536 
L 94.454367 140.719034 
L 95.331551 139.74419 
L 96.450056 138.769345 
L 97.443007 137.794501 
L 98.138096 136.819657 
L 98.700276 135.844812 
L 98.760393 135.750351 
L 101.490849 134.869968 
L 103.088721 134.324574 
L 107.417049 134.087464 
L 111.531876 134.869968 
L 111.745376 134.908545 
L 114.380822 135.844812 
L 116.073704 136.432379 
L 117.503588 136.819657 
L 120.402032 137.643355 
L 121.293484 137.794501 
L 124.73036 138.315697 
L 128.879702 138.769345 
L 129.058688 138.788511 
L 133.387016 139.061958 
L 137.715344 139.163159 
L 142.043672 139.112308 
L 146.371999 138.912455 
L 148.52824 138.769345 
L 150.700327 138.613359 
L 155.028655 138.228459 
L 159.356983 137.816335 
L 159.570912 137.794501 
L 163.685311 137.352811 
L 168.013639 136.891104 
L 168.676128 136.819657 
L 172.341967 136.407579 
L 176.670295 135.942159 
L 177.590698 135.844812 
L 180.998622 135.47038 
L 185.32695 135.020181 
L 186.838131 134.869968 
L 189.655278 134.579949 
L 193.983606 134.153545 
L 196.830183 133.895123 
L 198.311934 133.757102 
L 202.640262 133.358575 
L 206.96859 132.998137 
L 207.959329 132.920279 
L 211.296918 132.644871 
L 215.625245 132.303397 
L 219.953573 131.998835 
L 220.762882 131.945435 
L 224.281901 131.698477 
L 228.610229 131.405278 
L 232.938557 131.138841 
L 236.026325 130.97059 
L 237.266885 130.900677 
L 241.595213 130.653147 
L 245.923541 130.416388 
L 250.251868 130.200066 
L 254.580196 130.013999 
L 255.047643 129.995746 
L 258.908524 129.826017 
L 263.236852 129.636823 
L 267.56518 129.454649 
L 271.893508 129.28543 
L 276.221836 129.135132 
L 280.303945 129.020901 
L 280.550164 129.013449 
L 284.878492 128.878328 
L 289.206819 128.742166 
L 293.535147 128.606977 
L 297.863475 128.477097 
L 302.191803 128.353184 
L 306.520131 128.235772 
L 310.848459 128.141153 
L 315.176787 128.07352 
L 317.116788 128.046057 
L 319.505115 128.001386 
L 323.833442 127.917919 
L 328.16177 127.834246 
L 332.490098 127.748658 
L 336.818426 127.661834 
L 341.146754 127.574207 
L 345.475082 127.479771 
L 349.80341 127.388116 
L 349.80341 127.071212 
L 349.80341 126.645883 
L 345.475082 126.671551 
L 341.146754 126.698197 
L 336.818426 126.725526 
L 332.490098 126.754313 
L 328.16177 126.784323 
L 323.833442 126.815528 
L 319.505115 126.848847 
L 315.176787 126.883917 
L 310.848459 126.920873 
L 306.520131 126.960627 
L 302.191803 127.003153 
L 297.863475 127.048612 
L 295.829409 127.071212 
L 293.535147 127.109079 
L 289.206819 127.18194 
L 284.878492 127.255349 
L 280.550164 127.32923 
L 276.221836 127.403673 
L 271.893508 127.479135 
L 267.56518 127.554785 
L 263.236852 127.630728 
L 258.908524 127.707251 
L 254.580196 127.784853 
L 250.251868 127.864701 
L 245.923541 127.947169 
L 241.595213 128.033144 
L 240.96008 128.046057 
L 237.266885 128.150742 
L 232.938557 128.274399 
L 228.610229 128.399167 
L 224.281901 128.52499 
L 219.953573 128.65187 
L 215.625245 128.779941 
L 211.296918 128.90953 
L 207.621124 129.020901 
L 206.96859 129.046506 
L 202.640262 129.214502 
L 198.311934 129.38276 
L 193.983606 129.550881 
L 189.655278 129.718438 
L 185.32695 129.885008 
L 182.396428 129.995746 
L 180.998622 130.060459 
L 176.670295 130.253002 
L 172.341967 130.439648 
L 168.013639 130.618783 
L 163.685311 130.788644 
L 159.356983 130.944713 
L 158.553543 130.97059 
L 155.028655 131.105461 
L 150.700327 131.253757 
L 146.371999 131.381545 
L 142.043672 131.495597 
L 137.715344 131.582829 
L 133.387016 131.635405 
L 129.058688 131.607812 
L 124.73036 131.450667 
L 120.402032 131.113858 
L 119.391336 130.97059 
L 116.073704 130.550385 
L 113.380271 129.995746 
L 111.745376 129.708169 
L 107.841896 129.020901 
L 107.417049 128.951978 
L 106.214255 129.020901 
L 103.088721 129.181315 
L 101.766576 129.995746 
L 100.10191 130.97059 
L 98.760393 131.639532 
L 98.499305 131.945435 
L 97.704416 132.920279 
L 96.939789 133.895123 
L 96.191616 134.869968 
L 95.435058 135.844812 
L 94.588798 136.819657 
L 94.432065 136.974695 
L 93.824432 137.794501 
L 93.191273 138.769345 
L 92.687869 139.74419 
L 92.254675 140.719034 
L 91.816787 141.693879 
L 91.336447 142.668723 
L 90.824705 143.643568 
L 90.307321 144.618412 
L 90.103737 145.018605 
L 89.777131 145.593256 
L 89.293357 146.568101 
L 88.857294 147.542945 
L 88.433415 148.51779 
L 87.996215 149.492634 
L 87.568323 150.467478 
L 87.160271 151.442323 
L 86.745888 152.417167 
L 86.33262 153.392012 
L 85.936167 154.366856 
L 85.775409 154.781703 
L 85.775409 155.3417 
L 85.775409 156.316545 
L 85.775409 157.291389 
L 85.775409 158.266234 
L 85.775409 159.241078 
L 85.775409 160.082229 
z
" style="fill:#b8e3b2;stroke:#b8e3b2;"/>
    <path clip-path="url(#p33faea266f)" d="M 328.16177 121.276652 
L 332.490098 121.446362 
L 336.818426 121.60535 
L 341.146754 121.748639 
L 345.475082 121.881495 
L 349.80341 122.005893 
L 349.80341 121.222146 
L 349.80341 120.977264 
L 345.475082 120.803105 
L 341.146754 120.638734 
L 336.818426 120.477287 
L 332.490098 120.306078 
L 331.105522 120.247302 
L 328.16177 120.080664 
L 323.833442 119.857858 
L 319.505115 119.64901 
L 315.176787 119.440481 
L 311.912098 119.272457 
L 310.848459 119.200394 
L 306.520131 118.91902 
L 302.191803 118.664661 
L 297.863475 118.408928 
L 296.134268 118.297613 
L 293.535147 118.092397 
L 289.206819 117.779885 
L 284.878492 117.479597 
L 282.804114 117.322768 
L 280.550164 117.118378 
L 276.221836 116.761556 
L 271.893508 116.406409 
L 271.242971 116.347924 
L 267.56518 115.97521 
L 263.236852 115.579832 
L 261.150395 115.373079 
L 258.908524 115.117521 
L 254.580196 114.668951 
L 252.127157 114.398235 
L 250.251868 114.161288 
L 245.923541 113.65916 
L 244.012376 113.423391 
L 241.595213 113.091348 
L 237.266885 112.542587 
L 236.585607 112.448546 
L 232.938557 111.912284 
L 229.863462 111.473702 
L 228.610229 111.272683 
L 224.281901 110.617053 
L 223.547638 110.498857 
L 219.953573 109.888843 
L 217.784825 109.524013 
L 215.625245 109.130788 
L 212.331965 108.549169 
L 211.296918 108.349675 
L 207.150448 107.574324 
L 206.96859 107.537447 
L 202.640262 106.668934 
L 202.299685 106.59948 
L 198.311934 105.752482 
L 197.712053 105.624635 
L 193.983606 104.795836 
L 193.326152 104.649791 
L 189.655278 103.800058 
L 189.112809 103.674946 
L 185.32695 102.766465 
L 185.048389 102.700102 
L 181.128024 101.725258 
L 180.998622 101.692011 
L 177.353869 100.750413 
L 176.670295 100.570135 
L 173.647546 99.775569 
L 172.341967 99.424685 
L 169.986573 98.800724 
L 168.013639 98.264437 
L 166.354466 97.82588 
L 163.685311 97.098844 
L 162.726654 96.851036 
L 159.356983 95.948425 
L 159.068669 95.876191 
L 155.353545 94.901347 
L 155.028655 94.812594 
L 151.495579 93.926502 
L 150.700327 93.719205 
L 147.328607 92.951658 
L 146.371999 92.723944 
L 142.704379 91.976813 
L 142.043672 91.835585 
L 137.715344 91.140606 
L 136.338088 91.001969 
L 133.387016 90.675779 
L 129.058688 90.626629 
L 126.360886 91.001969 
L 124.73036 91.224611 
L 122.639561 91.976813 
L 120.402032 92.707741 
L 120.013705 92.951658 
L 118.285965 93.926502 
L 116.381723 94.901347 
L 116.073704 95.044338 
L 114.984604 95.876191 
L 113.599973 96.851036 
L 112.104901 97.82588 
L 111.745376 98.037666 
L 110.969981 98.800724 
L 109.772022 99.775569 
L 108.369849 100.750413 
L 107.417049 101.402459 
L 107.038669 101.725258 
L 105.850689 102.700102 
L 104.546286 103.674946 
L 103.088721 104.532876 
L 102.756496 104.649791 
L 100.138267 105.624635 
L 98.760393 106.253482 
L 94.432065 106.474323 
L 92.011493 105.624635 
L 90.402597 104.649791 
L 90.103737 104.388505 
L 88.869936 103.674946 
L 87.273602 102.700102 
L 85.899167 101.725258 
L 85.775409 101.62381 
L 85.775409 101.725258 
L 85.775409 102.700102 
L 85.775409 103.674946 
L 85.775409 104.649791 
L 85.775409 105.624635 
L 85.775409 106.59948 
L 85.775409 107.574324 
L 85.775409 108.549169 
L 85.775409 109.524013 
L 85.775409 110.012061 
L 86.978705 110.498857 
L 90.103737 111.45208 
L 90.313369 111.473702 
L 94.432065 111.823616 
L 95.548636 111.473702 
L 98.760393 110.658567 
L 99.009133 110.498857 
L 100.43746 109.524013 
L 101.842369 108.549169 
L 103.088721 107.733658 
L 103.298987 107.574324 
L 104.621972 106.59948 
L 106.00113 105.624635 
L 107.409254 104.649791 
L 107.417049 104.644144 
L 109.180838 103.674946 
L 110.604544 102.700102 
L 111.745376 101.822831 
L 111.984705 101.725258 
L 114.180371 100.750413 
L 115.927818 99.775569 
L 116.073704 99.689071 
L 118.877374 98.800724 
L 120.402032 98.235425 
L 122.394332 97.82588 
L 124.73036 97.305224 
L 128.82845 96.851036 
L 129.058688 96.824634 
L 133.387016 96.758034 
L 134.860403 96.851036 
L 137.715344 97.0413 
L 142.043672 97.576624 
L 143.471081 97.82588 
L 146.371999 98.329587 
L 148.700713 98.800724 
L 150.700327 99.198048 
L 153.284142 99.775569 
L 155.028655 100.155534 
L 157.580292 100.750413 
L 159.356983 101.152684 
L 161.771432 101.725258 
L 163.685311 102.164958 
L 165.932414 102.700102 
L 168.013639 103.178901 
L 170.124784 103.674946 
L 172.341967 104.177261 
L 174.39784 104.649791 
L 176.670295 105.152603 
L 178.786175 105.624635 
L 180.998622 106.099265 
L 183.329083 106.59948 
L 185.32695 107.011688 
L 188.066895 107.574324 
L 189.655278 107.887997 
L 193.041677 108.549169 
L 193.983606 108.726264 
L 198.307576 109.524013 
L 198.311934 109.524789 
L 202.640262 110.291501 
L 203.84056 110.498857 
L 206.96859 111.020224 
L 209.786306 111.473702 
L 211.296918 111.709449 
L 215.625245 112.360684 
L 216.21745 112.448546 
L 219.953573 112.98574 
L 223.171453 113.423391 
L 224.281901 113.571262 
L 228.610229 114.128536 
L 230.798909 114.398235 
L 232.938557 114.657313 
L 237.266885 115.153818 
L 239.250004 115.373079 
L 241.595213 115.629395 
L 245.923541 116.075247 
L 248.706066 116.347924 
L 250.251868 116.499235 
L 254.580196 116.904367 
L 258.908524 117.274283 
L 259.476828 117.322768 
L 263.236852 117.642871 
L 267.56518 117.980865 
L 271.893508 118.295974 
L 271.915744 118.297613 
L 276.221836 118.615971 
L 280.550164 118.90381 
L 284.878492 119.170116 
L 286.551755 119.272457 
L 289.206819 119.438453 
L 293.535147 119.694832 
L 297.863475 119.925333 
L 302.191803 120.140705 
L 304.339185 120.247302 
L 306.520131 120.358705 
L 310.848459 120.572245 
L 315.176787 120.764775 
L 319.505115 120.942084 
L 323.833442 121.110631 
L 326.761162 121.222146 
z
" style="fill:#b8e3b2;stroke:#b8e3b2;"/>
   </g>
   <g id="PathCollection_5">
    <path clip-path="url(#p33faea266f)" d="M 86.134186 163.140456 
L 86.440775 162.165611 
L 86.800212 161.190767 
L 87.220682 160.215923 
L 87.67092 159.241078 
L 88.270125 158.266234 
L 88.790626 157.291389 
L 89.103799 156.316545 
L 89.454147 155.3417 
L 89.833358 154.366856 
L 90.103737 153.701992 
L 90.170367 153.392012 
L 90.413937 152.417167 
L 90.718587 151.442323 
L 91.109858 150.467478 
L 91.614661 149.492634 
L 92.468045 148.51779 
L 93.214218 147.542945 
L 93.775389 146.568101 
L 94.413724 145.593256 
L 94.432065 145.564005 
L 94.80749 144.618412 
L 95.238609 143.643568 
L 95.799001 142.668723 
L 96.682902 141.693879 
L 97.991646 140.719034 
L 98.760393 140.166329 
L 100.012376 139.74419 
L 102.144748 138.769345 
L 103.088721 138.346475 
L 104.318516 138.769345 
L 106.08264 139.74419 
L 107.254833 140.719034 
L 107.417049 140.834383 
L 110.087874 141.693879 
L 111.745376 142.595917 
L 116.073704 142.15523 
L 118.448336 142.668723 
L 120.402032 143.192854 
L 122.302575 143.643568 
L 124.73036 144.327792 
L 127.244414 144.618412 
L 129.058688 144.847069 
L 133.387016 144.810028 
L 136.669914 144.618412 
L 137.715344 144.572502 
L 142.043672 144.284736 
L 146.371999 143.863632 
L 148.141612 143.643568 
L 150.700327 143.389411 
L 155.028655 142.828078 
L 156.081541 142.668723 
L 159.356983 142.262718 
L 163.078142 141.693879 
L 163.685311 141.61897 
L 168.013639 141.009028 
L 169.812567 140.719034 
L 172.341967 140.38793 
L 176.431786 139.74419 
L 176.670295 139.714278 
L 180.998622 139.139337 
L 183.388907 138.769345 
L 185.32695 138.5364 
L 189.655278 137.922664 
L 190.517534 137.794501 
L 193.983606 137.403336 
L 198.11474 136.819657 
L 198.311934 136.79844 
L 202.640262 136.347019 
L 206.438899 135.844812 
L 206.96859 135.793496 
L 211.296918 135.386117 
L 215.500519 134.869968 
L 215.625245 134.858634 
L 219.953573 134.517975 
L 224.281901 134.065409 
L 225.825357 133.895123 
L 228.610229 133.703991 
L 232.938557 133.368672 
L 237.266885 132.933798 
L 237.402586 132.920279 
L 241.595213 132.684906 
L 245.923541 132.398756 
L 250.251868 132.024486 
L 251.145379 131.945435 
L 254.580196 131.77588 
L 258.908524 131.582701 
L 263.236852 131.311237 
L 267.56518 130.97393 
L 267.63521 130.97059 
L 271.893508 130.800869 
L 276.221836 130.656198 
L 280.550164 130.484498 
L 284.878492 130.1684 
L 288.525051 129.995746 
L 289.206819 129.96795 
L 293.535147 129.83333 
L 297.863475 129.726076 
L 302.191803 129.627369 
L 306.520131 129.447006 
L 310.848459 129.177928 
L 315.176787 129.045225 
L 316.344078 129.020901 
L 319.505115 128.935425 
L 323.833442 128.843883 
L 328.16177 128.770568 
L 332.490098 128.707395 
L 336.818426 128.567412 
L 341.146754 128.405537 
L 345.475082 128.296041 
L 349.80341 128.197769 
L 349.80341 128.046057 
L 349.80341 127.388116 
L 345.475082 127.479771 
L 341.146754 127.574207 
L 336.818426 127.661834 
L 332.490098 127.748658 
L 328.16177 127.834246 
L 323.833442 127.917919 
L 319.505115 128.001386 
L 317.116788 128.046057 
L 315.176787 128.07352 
L 310.848459 128.141153 
L 306.520131 128.235772 
L 302.191803 128.353184 
L 297.863475 128.477097 
L 293.535147 128.606977 
L 289.206819 128.742166 
L 284.878492 128.878328 
L 280.550164 129.013449 
L 280.303945 129.020901 
L 276.221836 129.135132 
L 271.893508 129.28543 
L 267.56518 129.454649 
L 263.236852 129.636823 
L 258.908524 129.826017 
L 255.047643 129.995746 
L 254.580196 130.013999 
L 250.251868 130.200066 
L 245.923541 130.416388 
L 241.595213 130.653147 
L 237.266885 130.900677 
L 236.026325 130.97059 
L 232.938557 131.138841 
L 228.610229 131.405278 
L 224.281901 131.698477 
L 220.762882 131.945435 
L 219.953573 131.998835 
L 215.625245 132.303397 
L 211.296918 132.644871 
L 207.959329 132.920279 
L 206.96859 132.998137 
L 202.640262 133.358575 
L 198.311934 133.757102 
L 196.830183 133.895123 
L 193.983606 134.153545 
L 189.655278 134.579949 
L 186.838131 134.869968 
L 185.32695 135.020181 
L 180.998622 135.47038 
L 177.590698 135.844812 
L 176.670295 135.942159 
L 172.341967 136.407579 
L 168.676128 136.819657 
L 168.013639 136.891104 
L 163.685311 137.352811 
L 159.570912 137.794501 
L 159.356983 137.816335 
L 155.028655 138.228459 
L 150.700327 138.613359 
L 148.52824 138.769345 
L 146.371999 138.912455 
L 142.043672 139.112308 
L 137.715344 139.163159 
L 133.387016 139.061958 
L 129.058688 138.788511 
L 128.879702 138.769345 
L 124.73036 138.315697 
L 121.293484 137.794501 
L 120.402032 137.643355 
L 117.503588 136.819657 
L 116.073704 136.432379 
L 114.380822 135.844812 
L 111.745376 134.908545 
L 111.531876 134.869968 
L 107.417049 134.087464 
L 103.088721 134.324574 
L 101.490849 134.869968 
L 98.760393 135.750351 
L 98.700276 135.844812 
L 98.138096 136.819657 
L 97.443007 137.794501 
L 96.450056 138.769345 
L 95.331551 139.74419 
L 94.454367 140.719034 
L 94.432065 140.752536 
L 94.038486 141.693879 
L 93.631292 142.668723 
L 93.18392 143.643568 
L 92.675345 144.618412 
L 92.116962 145.593256 
L 91.580587 146.568101 
L 91.095107 147.542945 
L 90.573527 148.51779 
L 90.103737 149.47293 
L 90.093011 149.492634 
L 89.564067 150.467478 
L 89.111515 151.442323 
L 88.690898 152.417167 
L 88.281208 153.392012 
L 87.884762 154.366856 
L 87.506319 155.3417 
L 87.147795 156.316545 
L 86.805532 157.291389 
L 86.406181 158.266234 
L 86.034046 159.241078 
L 85.775409 160.082229 
L 85.775409 160.215923 
L 85.775409 161.190767 
L 85.775409 162.165611 
L 85.775409 163.140456 
L 85.775409 164.1153 
L 85.849454 164.1153 
z
" style="fill:#e9f7e5;stroke:#e9f7e5;"/>
    <path clip-path="url(#p33faea266f)" d="M 332.490098 120.306078 
L 336.818426 120.477287 
L 341.146754 120.638734 
L 345.475082 120.803105 
L 349.80341 120.977264 
L 349.80341 120.247302 
L 349.80341 119.646419 
L 345.475082 119.422489 
L 342.968607 119.272457 
L 341.146754 119.239559 
L 336.818426 119.007703 
L 332.490098 118.723729 
L 328.16177 118.464412 
L 325.768172 118.297613 
L 323.833442 118.234014 
L 319.505115 117.896481 
L 315.176787 117.626116 
L 311.28975 117.322768 
L 310.848459 117.30581 
L 306.520131 116.96554 
L 302.191803 116.650392 
L 298.785566 116.347924 
L 297.863475 116.27745 
L 293.535147 115.906392 
L 289.206819 115.515976 
L 287.801462 115.373079 
L 284.878492 115.083782 
L 280.550164 114.673058 
L 278.059509 114.398235 
L 276.221836 114.191885 
L 271.893508 113.732671 
L 269.338628 113.423391 
L 267.56518 113.20407 
L 263.236852 112.690662 
L 261.404499 112.448546 
L 258.908524 112.118044 
L 254.580196 111.53141 
L 254.180924 111.473702 
L 250.251868 110.914996 
L 247.525445 110.498857 
L 245.923541 110.24601 
L 241.595213 109.5565 
L 241.399159 109.524013 
L 237.266885 108.836808 
L 235.626414 108.549169 
L 232.938557 108.065973 
L 230.282805 107.574324 
L 228.610229 107.252119 
L 225.271032 106.59948 
L 224.281901 106.396855 
L 220.539152 105.624635 
L 219.953573 105.49782 
L 216.055828 104.649791 
L 215.625245 104.551609 
L 211.79537 103.674946 
L 211.296918 103.555585 
L 207.732706 102.700102 
L 206.96859 102.508248 
L 203.844958 101.725258 
L 202.640262 101.408474 
L 200.115666 100.750413 
L 198.311934 100.254292 
L 196.538355 99.775569 
L 193.983606 99.04197 
L 193.117268 98.800724 
L 189.844387 97.82588 
L 189.655278 97.768521 
L 186.598114 96.851036 
L 185.32695 96.449845 
L 183.449891 95.876191 
L 180.998622 95.075161 
L 180.438835 94.901347 
L 177.483888 93.926502 
L 176.670295 93.649648 
L 174.534128 92.951658 
L 172.341967 92.187308 
L 171.697242 91.976813 
L 168.881313 91.001969 
L 168.013639 90.692044 
L 166.039214 90.027125 
L 163.685311 89.181751 
L 163.290332 89.05228 
L 160.452897 88.077436 
L 159.356983 87.685602 
L 157.569618 87.102591 
L 155.028655 86.225216 
L 154.71013 86.127747 
L 151.640238 85.152903 
L 150.700327 84.843073 
L 148.307957 84.178058 
L 146.371999 83.619436 
L 144.583717 83.203214 
L 142.043672 82.599634 
L 139.485248 82.228369 
L 137.715344 81.976677 
L 133.387016 81.889058 
L 131.596451 82.228369 
L 129.058688 82.603553 
L 127.261159 83.203214 
L 124.73036 83.91428 
L 123.948959 84.178058 
L 121.353937 85.152903 
L 120.402032 85.525176 
L 118.845267 86.127747 
L 116.941905 87.102591 
L 116.073704 87.666492 
L 115.586899 88.077436 
L 114.450067 89.05228 
L 113.207232 90.027125 
L 112.770488 91.001969 
L 112.121495 91.976813 
L 111.745376 92.48149 
L 111.480202 92.951658 
L 110.723761 93.926502 
L 109.852108 94.901347 
L 109.067113 95.876191 
L 108.375241 96.851036 
L 107.698834 97.82588 
L 107.417049 98.141135 
L 106.966957 98.800724 
L 105.582362 99.775569 
L 104.44869 100.750413 
L 103.262272 101.725258 
L 103.088721 101.857943 
L 100.004392 102.700102 
L 98.760393 103.151129 
L 96.467124 102.700102 
L 94.432065 102.179796 
L 93.880168 101.725258 
L 92.757471 100.750413 
L 91.657803 99.775569 
L 90.501183 98.800724 
L 90.103737 98.493845 
L 89.270071 97.82588 
L 88.344849 96.851036 
L 87.669244 95.876191 
L 87.150575 94.901347 
L 86.503256 93.926502 
L 86.076001 92.951658 
L 85.794684 91.976813 
L 85.775409 91.899801 
L 85.775409 91.976813 
L 85.775409 92.951658 
L 85.775409 93.926502 
L 85.775409 94.901347 
L 85.775409 95.876191 
L 85.775409 96.851036 
L 85.775409 97.82588 
L 85.775409 98.800724 
L 85.775409 99.775569 
L 85.775409 100.750413 
L 85.775409 101.62381 
L 85.899167 101.725258 
L 87.273602 102.700102 
L 88.869936 103.674946 
L 90.103737 104.388505 
L 90.402597 104.649791 
L 92.011493 105.624635 
L 94.432065 106.474323 
L 98.760393 106.253482 
L 100.138267 105.624635 
L 102.756496 104.649791 
L 103.088721 104.532876 
L 104.546286 103.674946 
L 105.850689 102.700102 
L 107.038669 101.725258 
L 107.417049 101.402459 
L 108.369849 100.750413 
L 109.772022 99.775569 
L 110.969981 98.800724 
L 111.745376 98.037666 
L 112.104901 97.82588 
L 113.599973 96.851036 
L 114.984604 95.876191 
L 116.073704 95.044338 
L 116.381723 94.901347 
L 118.285965 93.926502 
L 120.013705 92.951658 
L 120.402032 92.707741 
L 122.639561 91.976813 
L 124.73036 91.224611 
L 126.360886 91.001969 
L 129.058688 90.626629 
L 133.387016 90.675779 
L 136.338088 91.001969 
L 137.715344 91.140606 
L 142.043672 91.835585 
L 142.704379 91.976813 
L 146.371999 92.723944 
L 147.328607 92.951658 
L 150.700327 93.719205 
L 151.495579 93.926502 
L 155.028655 94.812594 
L 155.353545 94.901347 
L 159.068669 95.876191 
L 159.356983 95.948425 
L 162.726654 96.851036 
L 163.685311 97.098844 
L 166.354466 97.82588 
L 168.013639 98.264437 
L 169.986573 98.800724 
L 172.341967 99.424685 
L 173.647546 99.775569 
L 176.670295 100.570135 
L 177.353869 100.750413 
L 180.998622 101.692011 
L 181.128024 101.725258 
L 185.048389 102.700102 
L 185.32695 102.766465 
L 189.112809 103.674946 
L 189.655278 103.800058 
L 193.326152 104.649791 
L 193.983606 104.795836 
L 197.712053 105.624635 
L 198.311934 105.752482 
L 202.299685 106.59948 
L 202.640262 106.668934 
L 206.96859 107.537447 
L 207.150448 107.574324 
L 211.296918 108.349675 
L 212.331965 108.549169 
L 215.625245 109.130788 
L 217.784825 109.524013 
L 219.953573 109.888843 
L 223.547638 110.498857 
L 224.281901 110.617053 
L 228.610229 111.272683 
L 229.863462 111.473702 
L 232.938557 111.912284 
L 236.585607 112.448546 
L 237.266885 112.542587 
L 241.595213 113.091348 
L 244.012376 113.423391 
L 245.923541 113.65916 
L 250.251868 114.161288 
L 252.127157 114.398235 
L 254.580196 114.668951 
L 258.908524 115.117521 
L 261.150395 115.373079 
L 263.236852 115.579832 
L 267.56518 115.97521 
L 271.242971 116.347924 
L 271.893508 116.406409 
L 276.221836 116.761556 
L 280.550164 117.118378 
L 282.804114 117.322768 
L 284.878492 117.479597 
L 289.206819 117.779885 
L 293.535147 118.092397 
L 296.134268 118.297613 
L 297.863475 118.408928 
L 302.191803 118.664661 
L 306.520131 118.91902 
L 310.848459 119.200394 
L 311.912098 119.272457 
L 315.176787 119.440481 
L 319.505115 119.64901 
L 323.833442 119.857858 
L 328.16177 120.080664 
L 331.105522 120.247302 
z
" style="fill:#e9f7e5;stroke:#e9f7e5;"/>
   </g>
   <g id="matplotlib.axis_1">
    <g id="xtick_1">
     <g id="line2d_1">
      <path clip-path="url(#p33faea266f)" d="M 85.775409 223.517271 
L 85.775409 27.82665 
" style="fill:none;stroke:#b0b0b0;stroke-linecap:square;stroke-width:0.8;"/>
     </g>
     <g id="line2d_2">
      <defs>
       <path d="M 0 0 
L 0 3.5 
" id="m1bc5ec0759" style="stroke:#000000;stroke-width:0.8;"/>
      </defs>
      <g>
       <use style="stroke:#000000;stroke-width:0.8;" x="85.775409" xlink:href="#m1bc5ec0759" y="223.517271"/>
      </g>
     </g>
     <g id="text_1">
      <!-- $\mathdefault{0}$ -->
      <g transform="translate(81.663266 242.970572)scale(0.18 -0.18)">
       <defs>
        <path d="M 42 31.640625 
C 42 37.75 41.90625 48.125 37.703125 56.109375 
C 34 63.109375 28.09375 65.59375 22.90625 65.59375 
C 18.09375 65.59375 12 63.40625 8.203125 56.203125 
C 4.203125 48.71875 3.796875 39.4375 3.796875 31.640625 
C 3.796875 25.953125 3.90625 17.28125 7 9.671875 
C 11.296875 -0.609375 19 -2 22.90625 -2 
C 27.5 -2 34.5 -0.109375 38.59375 9.375 
C 41.59375 16.28125 42 24.359375 42 31.640625 
z
M 22.90625 -0.40625 
C 16.5 -0.40625 12.703125 5.078125 11.296875 12.6875 
C 10.203125 18.5625 10.203125 27.15625 10.203125 32.75 
C 10.203125 40.4375 10.203125 46.828125 11.5 52.921875 
C 13.40625 61.390625 19 64 22.90625 64 
C 27 64 32.296875 61.296875 34.203125 53.125 
C 35.5 47.4375 35.59375 40.734375 35.59375 32.75 
C 35.59375 26.25 35.59375 18.265625 34.40625 12.375 
C 32.296875 1.484375 26.40625 -0.40625 22.90625 -0.40625 
z
" id="CMR17-48"/>
       </defs>
       <use transform="scale(0.996264)" xlink:href="#CMR17-48"/>
      </g>
     </g>
    </g>
    <g id="xtick_2">
     <g id="line2d_3">
      <path clip-path="url(#p33faea266f)" d="M 172.341967 223.517271 
L 172.341967 27.82665 
" style="fill:none;stroke:#b0b0b0;stroke-linecap:square;stroke-width:0.8;"/>
     </g>
     <g id="line2d_4">
      <g>
       <use style="stroke:#000000;stroke-width:0.8;" x="172.341967" xlink:href="#m1bc5ec0759" y="223.517271"/>
      </g>
     </g>
     <g id="text_2">
      <!-- $\mathdefault{1}$ -->
      <g transform="translate(168.229824 242.970572)scale(0.18 -0.18)">
       <defs>
        <path d="M 26.59375 63.40625 
C 26.59375 65.5 26.5 65.5 25.09375 65.5 
C 21.203125 61.1875 15.296875 59.796875 9.703125 59.796875 
C 9.40625 59.796875 8.90625 59.796875 8.796875 59.5 
C 8.703125 59.296875 8.703125 59.09375 8.703125 57 
C 11.796875 57 17 57.59375 21 59.984375 
L 21 7.203125 
C 21 3.6875 20.796875 2.5 12.203125 2.5 
L 9.203125 2.5 
L 9.203125 0 
C 14 0 19 0 23.796875 0 
C 28.59375 0 33.59375 0 38.40625 0 
L 38.40625 2.5 
L 35.40625 2.5 
C 26.796875 2.5 26.59375 3.59375 26.59375 7.15625 
z
" id="CMR17-49"/>
       </defs>
       <use transform="scale(0.996264)" xlink:href="#CMR17-49"/>
      </g>
     </g>
    </g>
    <g id="xtick_3">
     <g id="line2d_5">
      <path clip-path="url(#p33faea266f)" d="M 258.908524 223.517271 
L 258.908524 27.82665 
" style="fill:none;stroke:#b0b0b0;stroke-linecap:square;stroke-width:0.8;"/>
     </g>
     <g id="line2d_6">
      <g>
       <use style="stroke:#000000;stroke-width:0.8;" x="258.908524" xlink:href="#m1bc5ec0759" y="223.517271"/>
      </g>
     </g>
     <g id="text_3">
      <!-- $\mathdefault{2}$ -->
      <g transform="translate(254.796381 242.970572)scale(0.18 -0.18)">
       <defs>
        <path d="M 41.703125 15.453125 
L 39.90625 15.453125 
C 38.90625 8.375 38.09375 7.171875 37.703125 6.5625 
C 37.203125 5.765625 30 5.765625 28.59375 5.765625 
L 9.40625 5.765625 
C 13 9.671875 20 16.75 28.5 24.953125 
C 34.59375 30.734375 41.703125 37.53125 41.703125 47.421875 
C 41.703125 59.21875 32.296875 66 21.796875 66 
C 10.796875 66 4.09375 56.3125 4.09375 47.34375 
C 4.09375 43.4375 7 42.9375 8.203125 42.9375 
C 9.203125 42.9375 12.203125 43.546875 12.203125 47.03125 
C 12.203125 50.109375 9.59375 51 8.203125 51 
C 7.59375 51 7 50.90625 6.59375 50.703125 
C 8.5 59.21875 14.296875 63.40625 20.40625 63.40625 
C 29.09375 63.40625 34.796875 56.515625 34.796875 47.421875 
C 34.796875 38.734375 29.703125 31.25 24 24.75 
L 4.09375 2.28125 
L 4.09375 0 
L 39.296875 0 
z
" id="CMR17-50"/>
       </defs>
       <use transform="scale(0.996264)" xlink:href="#CMR17-50"/>
      </g>
     </g>
    </g>
    <g id="xtick_4">
     <g id="line2d_7">
      <path clip-path="url(#p33faea266f)" d="M 345.475082 223.517271 
L 345.475082 27.82665 
" style="fill:none;stroke:#b0b0b0;stroke-linecap:square;stroke-width:0.8;"/>
     </g>
     <g id="line2d_8">
      <g>
       <use style="stroke:#000000;stroke-width:0.8;" x="345.475082" xlink:href="#m1bc5ec0759" y="223.517271"/>
      </g>
     </g>
     <g id="text_4">
      <!-- $\mathdefault{3}$ -->
      <g transform="translate(341.362939 242.970572)scale(0.18 -0.18)">
       <defs>
        <path d="M 22.09375 33.703125 
C 31 33.703125 34.90625 25.96875 34.90625 17.03125 
C 34.90625 5 28.5 0.390625 22.703125 0.390625 
C 17.40625 0.390625 8.796875 3.03125 6.09375 10.828125 
C 6.59375 10.625 7.09375 10.625 7.59375 10.625 
C 10 10.625 11.796875 12.21875 11.796875 14.8125 
C 11.796875 17.703125 9.59375 19 7.59375 19 
C 5.90625 19 3.296875 18.203125 3.296875 14.46875 
C 3.296875 5.234375 12.296875 -2 22.90625 -2 
C 34 -2 42.5 6.71875 42.5 16.953125 
C 42.5 26.671875 34.5 33.703125 25 34.796875 
C 32.59375 36.375 39.90625 43.0625 39.90625 52.015625 
C 39.90625 59.6875 32 65.296875 23 65.296875 
C 13.90625 65.296875 5.90625 59.828125 5.90625 52.015625 
C 5.90625 48.59375 8.5 48 9.796875 48 
C 11.90625 48 13.703125 49.296875 13.703125 51.890625 
C 13.703125 54.46875 11.90625 55.765625 9.796875 55.765625 
C 9.40625 55.765625 8.90625 55.765625 8.5 55.578125 
C 11.40625 61.859375 19.296875 63 22.796875 63 
C 26.296875 63 32.90625 61.328125 32.90625 51.875 
C 32.90625 49.109375 32.5 44.1875 29.09375 39.84375 
C 26.09375 36 22.703125 36 19.40625 35.6875 
C 18.90625 35.6875 16.59375 35.453125 16.203125 35.453125 
C 15.5 35.359375 15.09375 35.265625 15.09375 34.5 
C 15.09375 33.796875 15.203125 33.703125 17.203125 33.703125 
z
" id="CMR17-51"/>
       </defs>
       <use transform="scale(0.996264)" xlink:href="#CMR17-51"/>
      </g>
     </g>
    </g>
    <g id="text_5">
     <!-- $z$ -->
     <g transform="translate(211.546828 262.911936)scale(0.18 -0.18)">
      <defs>
       <path d="M 12.703125 7.59375 
C 17 12.546875 20.5 15.6875 25.5 20.25 
C 31.5 25.5 34.09375 28.015625 35.5 29.546875 
C 42.5 36.53125 46 42.390625 46 43.1875 
C 46 44 45.203125 44 45 44 
C 44.296875 44 44.09375 43.640625 43.59375 42.96875 
C 41.09375 38.96875 38.703125 36.984375 36.09375 36.984375 
C 34 36.984375 32.90625 37.828125 31 40.078125 
C 28.90625 42.421875 27.203125 44 24.296875 44 
C 17 44 12.59375 35.265625 12.59375 33.25 
C 12.59375 32.9375 12.703125 32.3125 13.59375 32.3125 
C 14.40625 32.3125 14.5 32.671875 14.796875 33.328125 
C 16.5 37.0625 21.296875 37.71875 23.203125 37.71875 
C 25.296875 37.71875 27.296875 37.125 29.40625 36.359375 
C 33.203125 35 34.796875 35 35.796875 35 
C 36.5 35 36.90625 35 37.40625 35.09375 
C 34.09375 31.15625 28.703125 26.296875 24.203125 22.15625 
L 14.09375 12.75 
C 8 6.484375 4.296875 0.515625 4.296875 -0.1875 
C 4.296875 -0.796875 4.796875 -1 5.40625 -1 
C 6 -1 6.09375 -0.890625 6.796875 0.21875 
C 8.40625 2.546875 11.59375 6 15.296875 6 
C 17.40625 6 18.40625 5.34375 20.40625 3.015625 
C 22.296875 0.953125 24 -1 27.203125 -1 
C 37 -1 42.59375 11.4375 42.59375 13.6875 
C 42.59375 14.109375 42.5 14.71875 41.5 14.71875 
C 40.703125 14.71875 40.59375 14.328125 40.296875 13.359375 
C 38.09375 7.625 32.203125 5.28125 28.296875 5.28125 
C 26.203125 5.28125 24.203125 5.875 22.09375 6.640625 
C 18.09375 8 17 8 15.703125 8 
C 14.703125 8 13.59375 8 12.703125 7.59375 
z
" id="CMMI12-122"/>
      </defs>
      <use transform="scale(0.996264)" xlink:href="#CMMI12-122"/>
     </g>
    </g>
   </g>
   <g id="matplotlib.axis_2">
    <g id="ytick_1">
     <g id="line2d_9">
      <path clip-path="url(#p33faea266f)" d="M 85.775409 223.517271 
L 345.475082 223.517271 
" style="fill:none;stroke:#b0b0b0;stroke-linecap:square;stroke-width:0.8;"/>
     </g>
     <g id="line2d_10">
      <defs>
       <path d="M 0 0 
L -3.5 0 
" id="m5d289062dd" style="stroke:#000000;stroke-width:0.8;"/>
      </defs>
      <g>
       <use style="stroke:#000000;stroke-width:0.8;" x="85.775409" xlink:href="#m5d289062dd" y="223.517271"/>
      </g>
     </g>
     <g id="text_6">
      <!-- $\mathdefault{2.0}$ -->
      <g transform="translate(43.501604 229.743921)scale(0.18 -0.18)">
       <defs>
        <path d="M 65.90625 23 
C 67.59375 23 69.40625 23 69.40625 25 
C 69.40625 27 67.59375 27 65.90625 27 
L 11.796875 27 
C 10.09375 27 8.296875 27 8.296875 25 
C 8.296875 23 10.09375 23 11.796875 23 
z
" id="CMSY10-0"/>
        <path d="M 18.40625 4.796875 
C 18.40625 7.6875 16 9.671875 13.59375 9.671875 
C 10.703125 9.671875 8.703125 7.28125 8.703125 4.890625 
C 8.703125 2 11.09375 0 13.5 0 
C 16.40625 0 18.40625 2.390625 18.40625 4.796875 
z
" id="CMMI12-58"/>
       </defs>
       <use transform="scale(0.996264)" xlink:href="#CMSY10-0"/>
       <use transform="translate(77.487468 0)scale(0.996264)" xlink:href="#CMR17-50"/>
       <use transform="translate(123.177945 0)scale(0.996264)" xlink:href="#CMMI12-58"/>
       <use transform="translate(150.275122 0)scale(0.996264)" xlink:href="#CMR17-48"/>
      </g>
     </g>
    </g>
    <g id="ytick_2">
     <g id="line2d_11">
      <path clip-path="url(#p33faea266f)" d="M 85.775409 174.594616 
L 345.475082 174.594616 
" style="fill:none;stroke:#b0b0b0;stroke-linecap:square;stroke-width:0.8;"/>
     </g>
     <g id="line2d_12">
      <g>
       <use style="stroke:#000000;stroke-width:0.8;" x="85.775409" xlink:href="#m5d289062dd" y="174.594616"/>
      </g>
     </g>
     <g id="text_7">
      <!-- $\mathdefault{1.5}$ -->
      <g transform="translate(43.501604 180.821266)scale(0.18 -0.18)">
       <defs>
        <path d="M 11.40625 57.6875 
C 12.40625 57.28125 16.5 56 20.703125 56 
C 30 56 35.09375 61.109375 38 64.0625 
C 38 64.953125 38 65.5 37.40625 65.5 
C 37.296875 65.5 37.09375 65.5 36.296875 65.046875 
C 32.796875 63.40625 28.703125 62.078125 23.703125 62.078125 
C 20.703125 62.078125 16.203125 62.484375 11.296875 64.671875 
C 10.203125 65.171875 10 65.171875 9.90625 65.171875 
C 9.40625 65.171875 9.296875 65.0625 9.296875 63.078125 
L 9.296875 34.421875 
C 9.296875 32.640625 9.296875 32.140625 10.296875 32.140625 
C 10.796875 32.140625 11 32.34375 11.5 33.03125 
C 14.703125 37.515625 19.09375 39.40625 24.09375 39.40625 
C 27.59375 39.40625 35.09375 37.21875 35.09375 20.140625 
C 35.09375 16.953125 35.09375 11.171875 32.09375 6.578125 
C 29.59375 2.484375 25.703125 0.390625 21.40625 0.390625 
C 14.796875 0.390625 8.09375 5 6.296875 12.71875 
C 6.703125 12.609375 7.5 12.421875 7.90625 12.421875 
C 9.203125 12.421875 11.703125 13.125 11.703125 16.21875 
C 11.703125 18.90625 9.796875 20 7.90625 20 
C 5.59375 20 4.09375 18.59375 4.09375 15.796875 
C 4.09375 7.09375 11 -2 21.59375 -2 
C 31.90625 -2 41.703125 6.875 41.703125 19.75 
C 41.703125 31.71875 33.90625 41 24.203125 41 
C 19.09375 41 14.796875 39.109375 11.40625 35.53125 
z
" id="CMR17-53"/>
       </defs>
       <use transform="scale(0.996264)" xlink:href="#CMSY10-0"/>
       <use transform="translate(77.487468 0)scale(0.996264)" xlink:href="#CMR17-49"/>
       <use transform="translate(123.177945 0)scale(0.996264)" xlink:href="#CMMI12-58"/>
       <use transform="translate(150.275122 0)scale(0.996264)" xlink:href="#CMR17-53"/>
      </g>
     </g>
    </g>
    <g id="ytick_3">
     <g id="line2d_13">
      <path clip-path="url(#p33faea266f)" d="M 85.775409 125.671961 
L 345.475082 125.671961 
" style="fill:none;stroke:#b0b0b0;stroke-linecap:square;stroke-width:0.8;"/>
     </g>
     <g id="line2d_14">
      <g>
       <use style="stroke:#000000;stroke-width:0.8;" x="85.775409" xlink:href="#m5d289062dd" y="125.671961"/>
      </g>
     </g>
     <g id="text_8">
      <!-- $\mathdefault{1.0}$ -->
      <g transform="translate(43.501604 131.898611)scale(0.18 -0.18)">
       <use transform="scale(0.996264)" xlink:href="#CMSY10-0"/>
       <use transform="translate(77.487468 0)scale(0.996264)" xlink:href="#CMR17-49"/>
       <use transform="translate(123.177945 0)scale(0.996264)" xlink:href="#CMMI12-58"/>
       <use transform="translate(150.275122 0)scale(0.996264)" xlink:href="#CMR17-48"/>
      </g>
     </g>
    </g>
    <g id="ytick_4">
     <g id="line2d_15">
      <path clip-path="url(#p33faea266f)" d="M 85.775409 76.749305 
L 345.475082 76.749305 
" style="fill:none;stroke:#b0b0b0;stroke-linecap:square;stroke-width:0.8;"/>
     </g>
     <g id="line2d_16">
      <g>
       <use style="stroke:#000000;stroke-width:0.8;" x="85.775409" xlink:href="#m5d289062dd" y="76.749305"/>
      </g>
     </g>
     <g id="text_9">
      <!-- $\mathdefault{0.5}$ -->
      <g transform="translate(43.501604 82.975955)scale(0.18 -0.18)">
       <use transform="scale(0.996264)" xlink:href="#CMSY10-0"/>
       <use transform="translate(77.487468 0)scale(0.996264)" xlink:href="#CMR17-48"/>
       <use transform="translate(123.177945 0)scale(0.996264)" xlink:href="#CMMI12-58"/>
       <use transform="translate(150.275122 0)scale(0.996264)" xlink:href="#CMR17-53"/>
      </g>
     </g>
    </g>
    <g id="ytick_5">
     <g id="line2d_17">
      <path clip-path="url(#p33faea266f)" d="M 85.775409 27.82665 
L 345.475082 27.82665 
" style="fill:none;stroke:#b0b0b0;stroke-linecap:square;stroke-width:0.8;"/>
     </g>
     <g id="line2d_18">
      <g>
       <use style="stroke:#000000;stroke-width:0.8;" x="85.775409" xlink:href="#m5d289062dd" y="27.82665"/>
      </g>
     </g>
     <g id="text_10">
      <!-- $\mathdefault{0.0}$ -->
      <g transform="translate(57.449345 34.0533)scale(0.18 -0.18)">
       <use transform="scale(0.996264)" xlink:href="#CMR17-48"/>
       <use transform="translate(45.690477 0)scale(0.996264)" xlink:href="#CMMI12-58"/>
       <use transform="translate(72.787654 0)scale(0.996264)" xlink:href="#CMR17-48"/>
      </g>
     </g>
    </g>
    <g id="text_11">
     <!-- $\omega(z)$ -->
     <g transform="translate(35.03342 142.28909)rotate(-90)scale(0.18 -0.18)">
      <defs>
       <path d="M 59.40625 37.421875 
C 59.40625 40.3125 58.59375 44 55.09375 44 
C 53.09375 44 50.796875 41.515625 50.796875 39.515625 
C 50.796875 38.625 51.203125 38.03125 52 37.125 
C 53.5 35.4375 55.40625 32.75 55.40625 28.078125 
C 55.40625 24.484375 53.203125 18.8125 51.59375 15.734375 
C 48.796875 10.25 44.203125 5.578125 39 5.578125 
C 32.703125 5.578125 30.296875 9.609375 29.203125 15.234375 
C 30.296875 17.859375 32.59375 24.375 32.59375 27 
C 32.59375 28.09375 32.203125 29 30.90625 29 
C 30.203125 29 29.40625 28.609375 28.90625 27.796875 
C 27.5 25.59375 26.203125 17.640625 26.296875 15.53125 
C 24.40625 11.8125 19 5.578125 12.59375 5.578125 
C 5.90625 5.578125 4.09375 11.453125 4.09375 17.125 
C 4.09375 27.46875 10.59375 36.53125 12.40625 39.015625 
C 13.40625 40.515625 14.09375 41.515625 14.09375 41.703125 
C 14.09375 42.40625 13.703125 43.5 12.796875 43.5 
C 11.203125 43.5 10.703125 42.203125 9.90625 41.015625 
C 4.796875 33.140625 1.203125 22.09375 1.203125 12.546875 
C 1.203125 6.375 3.5 -1 11 -1 
C 19.296875 -1 24.5 6.109375 26.59375 9.90625 
C 27.40625 4.296875 30.40625 -1 37.703125 -1 
C 45.296875 -1 50.09375 5.671875 53.703125 13.734375 
C 56.296875 19.515625 59.40625 31.953125 59.40625 37.421875 
z
" id="CMMI12-33"/>
       <path d="M 30.59375 -24.390625 
C 30.59375 -24.296875 30.59375 -24.09375 30.296875 -23.796875 
C 25.703125 -19.125 13.40625 -6.359375 13.40625 24.703125 
C 13.40625 55.765625 25.5 68.421875 30.40625 73.390625 
C 30.40625 73.5 30.59375 73.703125 30.59375 74 
C 30.59375 74.296875 30.296875 74.5 29.90625 74.5 
C 28.796875 74.5 20.296875 67.125 15.40625 56.15625 
C 10.40625 45.109375 9 34.359375 9 24.8125 
C 9 17.625 9.703125 5.484375 15.703125 -7.359375 
C 20.5 -17.734375 28.703125 -25 29.90625 -25 
C 30.40625 -25 30.59375 -24.796875 30.59375 -24.390625 
z
" id="CMR17-40"/>
       <path d="M 26.296875 24.703125 
C 26.296875 31.875 25.59375 44.015625 19.59375 56.859375 
C 14.796875 67.234375 6.59375 74.5 5.40625 74.5 
C 5.09375 74.5 4.703125 74.390625 4.703125 73.890625 
C 4.703125 73.703125 4.796875 73.59375 4.90625 73.390625 
C 9.703125 68.40625 21.90625 55.75 21.90625 24.75 
C 21.90625 -6.359375 9.796875 -19.015625 4.90625 -24.015625 
C 4.796875 -24.203125 4.703125 -24.3125 4.703125 -24.5 
C 4.703125 -25 5.09375 -25 5.40625 -25 
C 6.5 -25 15 -17.625 19.90625 -6.65625 
C 24.90625 4.390625 26.296875 15.140625 26.296875 24.703125 
z
" id="CMR17-41"/>
      </defs>
      <use transform="scale(0.996264)" xlink:href="#CMMI12-33"/>
      <use transform="translate(64.318346 0)scale(0.996264)" xlink:href="#CMR17-40"/>
      <use transform="translate(99.599114 0)scale(0.996264)" xlink:href="#CMMI12-122"/>
      <use transform="translate(149.354259 0)scale(0.996264)" xlink:href="#CMR17-41"/>
     </g>
    </g>
   </g>
   <g id="LineCollection_1">
    <path clip-path="url(#p33faea266f)" d="M 85.775409 125.671961 
L 345.475082 125.671961 
" style="fill:none;stroke:#0000ff;stroke-dasharray:14.8,6.4;stroke-dashoffset:0;stroke-width:4;"/>
   </g>
   <g id="patch_3">
    <path d="M 85.775409 223.517271 
L 85.775409 27.82665 
" style="fill:none;stroke:#000000;stroke-linecap:square;stroke-linejoin:miter;stroke-width:0.8;"/>
   </g>
   <g id="patch_4">
    <path d="M 345.475082 223.517271 
L 345.475082 27.82665 
" style="fill:none;stroke:#000000;stroke-linecap:square;stroke-linejoin:miter;stroke-width:0.8;"/>
   </g>
   <g id="patch_5">
    <path d="M 85.775409 223.517271 
L 345.475082 223.517271 
" style="fill:none;stroke:#000000;stroke-linecap:square;stroke-linejoin:miter;stroke-width:0.8;"/>
   </g>
   <g id="patch_6">
    <path d="M 85.775409 27.82665 
L 345.475082 27.82665 
" style="fill:none;stroke:#000000;stroke-linecap:square;stroke-linejoin:miter;stroke-width:0.8;"/>
   </g>
   <g id="text_12">
    <!--  BAO+HD+SN witn $\beta &lt; 0$ -->
    <g transform="translate(86.641075 194.163678)scale(0.13 -0.13)">
     <defs>
      <path d="M 8.90625 69 
L 8.90625 0 
L 33.796875 0 
C 47.40625 0 57.296875 8.96875 57.296875 18.75 
C 57.296875 26.328125 50.796875 34 39.09375 36.203125 
C 52.09375 39.96875 54.703125 47.5 54.703125 51.765625 
C 54.703125 60.671875 44.90625 69 31.203125 69 
z
M 17 39 
L 17 63.421875 
L 28.5 63.421875 
C 38.796875 63.421875 46.90625 58.1875 46.90625 51.65625 
C 46.90625 45.71875 40.5 39 27.59375 39 
z
M 17 5.578125 
L 17 32.921875 
L 30.296875 32.921875 
C 41.09375 32.921875 49.40625 26.234375 49.40625 18.84375 
C 49.40625 12.0625 42.09375 5.578125 31 5.578125 
z
" id="CMSS17-66"/>
      <path d="M 35.5 69 
L 26.90625 69 
L 2.59375 0 
L 10.203125 0 
L 17.203125 20 
L 44 20 
L 51.09375 0 
L 59.796875 0 
z
M 42.09375 25.578125 
L 19.09375 25.578125 
C 23.90625 39.5 29.90625 56.84375 30.59375 61.328125 
L 30.703125 61.328125 
C 31.40625 57.234375 33.40625 51.265625 35.09375 46.1875 
z
" id="CMSS17-65"/>
      <path d="M 64 34.03125 
C 64 54.734375 50.296875 70.265625 34.59375 70.265625 
C 18.90625 70.265625 5.203125 54.640625 5.203125 34.03125 
C 5.203125 13.234375 19.09375 -2 34.59375 -2 
C 50.09375 -2 64 13.234375 64 34.03125 
z
M 34.59375 4.265625 
C 23.59375 4.265625 13.59375 16.515625 13.59375 35.328125 
C 13.59375 53.640625 24.203125 64 34.59375 64 
C 45 64 55.59375 53.640625 55.59375 35.328125 
C 55.59375 16.421875 45.5 4.265625 34.59375 4.265625 
z
" id="CMSS17-79"/>
      <path d="M 38.296875 23.515625 
L 64.703125 23.515625 
C 66.09375 23.515625 67.796875 23.515625 67.796875 25.203125 
C 67.796875 27 66.203125 27 64.703125 27 
L 38.296875 27 
L 38.296875 53.328125 
C 38.296875 54.71875 38.296875 56.421875 36.59375 56.421875 
C 34.796875 56.421875 34.796875 54.828125 34.796875 53.328125 
L 34.796875 27 
L 8.296875 27 
C 6.90625 27 5.203125 27 5.203125 25.3125 
C 5.203125 23.515625 6.796875 23.515625 8.296875 23.515625 
L 34.796875 23.515625 
L 34.796875 -2.90625 
C 34.796875 -4.296875 34.796875 -6 36.5 -6 
C 38.296875 -6 38.296875 -4.40625 38.296875 -2.90625 
z
" id="CMSS17-43"/>
      <path d="M 57.40625 69 
L 49 69 
L 49 39.078125 
L 17.203125 39.078125 
L 17.203125 69 
L 8.796875 69 
L 8.796875 0 
L 17.203125 0 
L 17.203125 33 
L 49 33 
L 49 0 
L 57.40625 0 
z
" id="CMSS17-72"/>
      <path d="M 8.90625 69 
L 8.90625 0 
L 33.5 0 
C 49.90625 0 62.5 15.3125 62.5 33.90625 
C 62.5 53.09375 49.90625 69 33.5 69 
z
M 17.09375 5.578125 
L 17.09375 63.421875 
L 31.296875 63.421875 
C 44.703125 63.421875 54.296875 51.203125 54.296875 33.90625 
C 54.296875 17.296875 44.796875 5.578125 31.296875 5.578125 
z
" id="CMSS17-68"/>
      <path d="M 43.703125 65.140625 
C 39.296875 67.71875 34.5 70 26.40625 70 
C 13.5 70 5.203125 60.609375 5.203125 51.03125 
C 5.203125 47.265625 6.296875 43.015625 10.203125 38.671875 
C 14.09375 34.3125 18.5 33.140625 24.09375 31.765625 
C 26.40625 31.15625 30.296875 30.0625 31 29.78125 
C 36.59375 27.609375 39.296875 22.5625 39.296875 17.8125 
C 39.296875 11.59375 34.40625 4.96875 25.703125 4.96875 
C 22.703125 4.96875 13.90625 4.96875 5.59375 12.796875 
L 4.203125 4.96875 
C 12.40625 -1 21.296875 -2 25.796875 -2 
C 38.09375 -2 46.90625 7.625 46.90625 18.53125 
C 46.90625 22.5 45.703125 27.546875 41.5 32.203125 
C 37.40625 36.671875 33.796875 37.65625 25.59375 39.828125 
C 20.90625 41.03125 17.90625 41.828125 15.40625 44.890625 
C 13.703125 47.078125 12.796875 49.15625 12.796875 51.828125 
C 12.796875 57.390625 17.59375 63.4375 26.40625 63.4375 
C 30.796875 63.4375 36.5 62.53125 42.296875 57.1875 
z
" id="CMSS17-83"/>
      <path d="M 22.90625 65.3125 
L 21.09375 69 
L 8.796875 69 
L 8.796875 0 
L 16.59375 0 
L 16.59375 61.34375 
L 16.703125 61.4375 
C 17.40625 59.640625 17.796875 58.75 21.90625 49.90625 
L 43.296875 3.6875 
L 45.09375 0 
L 57.40625 0 
L 57.40625 69 
L 49.59375 69 
L 49.59375 7.65625 
L 49.5 7.546875 
C 48.796875 9.34375 48.40625 10.234375 44.296875 19.078125 
z
" id="CMSS17-78"/>
      <path d="M 62.703125 43 
L 55.09375 43 
L 49.796875 25.015625 
C 48.703125 21.21875 45.59375 10.703125 45.203125 5.796875 
L 45.09375 5.796875 
C 44.90625 8.8125 43.203125 16 40.40625 25.515625 
L 35.296875 43 
L 28.40625 43 
L 23.40625 25.90625 
C 20.90625 17.203125 19 9.796875 18.796875 5.796875 
L 18.703125 5.796875 
C 18.296875 11.703125 14.203125 25.515625 13.59375 27.703125 
L 9.09375 43 
L 1.296875 43 
L 14.296875 0 
L 21.90625 0 
C 27.09375 17.125 31.09375 30.359375 31.40625 37.03125 
C 31.59375 33.75 33.296875 26.671875 34.296875 23.1875 
L 40.90625 0 
L 49.703125 0 
z
" id="CMSS17-119"/>
      <path d="M 15.296875 65.359375 
L 6.90625 65.359375 
L 6.90625 57 
L 15.296875 57 
z
M 14.796875 42.796875 
L 7.40625 42.796875 
L 7.40625 0 
L 14.796875 0 
z
" id="CMSS17-105"/>
      <path d="M 16.703125 37 
L 29.703125 37 
L 29.703125 42.765625 
L 16.703125 42.765625 
L 16.703125 55 
L 9.59375 55 
L 9.59375 42.765625 
L 1.703125 42.765625 
L 1.703125 37 
L 9.40625 37 
L 9.40625 11.703125 
C 9.40625 6 10.703125 -1 17.296875 -1 
C 22.296875 -1 26.90625 0.390625 31.296875 2.6875 
L 29.703125 8.5625 
C 27.296875 6.46875 24.40625 5.265625 21.296875 5.265625 
C 16.90625 5.265625 16.703125 10.875 16.703125 13.375 
z
" id="CMSS17-116"/>
      <path d="M 40.90625 29.328125 
C 40.90625 35.671875 39.40625 44 28.09375 44 
C 21.703125 44 17.5 40.71875 14.703125 37.328125 
L 14.703125 43.09375 
L 7.40625 43.09375 
L 7.40625 0 
L 15 0 
L 15 24.359375 
C 15 30.6875 17.40625 37.9375 24.203125 37.9375 
C 33 37.9375 33.296875 32 33.296875 28.578125 
L 33.296875 0 
L 40.90625 0 
z
" id="CMSS17-110"/>
      <path d="M 56.59375 57.828125 
C 56.59375 63.765625 51.5 70 42.40625 70 
C 29.5 70 21.296875 54.328125 18.703125 44 
L 2.90625 -18.3125 
C 2.703125 -19.109375 3.296875 -19.3125 3.796875 -19.3125 
C 4.5 -19.3125 5 -19.21875 5.09375 -18.71875 
L 12.09375 9.15625 
C 13.09375 3.578125 18.59375 -1 24.5 -1 
C 38.796875 -1 52.296875 10.15625 52.296875 24.984375 
C 52.296875 28.765625 51.40625 32.546875 49.296875 35.734375 
C 48.09375 37.625 46.59375 39.015625 45 40.21875 
C 52.203125 43.984375 56.59375 50 56.59375 57.828125 
z
M 39.203125 40.3125 
C 37.59375 39.71875 36 39.515625 34.09375 39.515625 
C 32.703125 39.515625 31.40625 39.421875 29.59375 40.015625 
C 30.59375 40.71875 32.09375 40.90625 34.203125 40.90625 
C 36 40.90625 37.796875 40.71875 39.203125 40.3125 
z
M 51.40625 58.71875 
C 51.40625 53.28125 48.703125 45.359375 42.203125 41.703125 
C 40.296875 42.46875 37.703125 43 35.5 43 
C 33.40625 43 27.40625 43 27.40625 39.921875 
C 27.40625 37.328125 32.90625 37.328125 34.59375 37.328125 
C 37.203125 37.328125 39.5 38 41.90625 38.8125 
C 45.09375 36.21875 46.5 32.828125 46.5 27.859375 
C 46.5 22.078125 44.90625 17.421875 43 13.140625 
C 39.703125 5.765625 31.90625 1 25 1 
C 17.703125 1 13.90625 6.75 13.90625 13.5 
C 13.90625 14.40625 13.90625 15.703125 14.296875 17.171875 
L 20.796875 43.296875 
C 24.09375 56.296875 32.5 68.015625 42.203125 68.015625 
C 49.40625 68.015625 51.40625 63.0625 51.40625 58.71875 
z
" id="CMMI12-12"/>
      <path d="M 65.90625 48.5 
C 67.703125 49.296875 67.90625 50 67.90625 50.59375 
C 67.90625 51.703125 67.09375 52.5 66 52.5 
C 65.796875 52.5 65.703125 52.390625 64.296875 51.796875 
L 10.203125 26.859375 
C 8.40625 26.046875 8.203125 25.34375 8.203125 24.75 
C 8.203125 24.046875 8.296875 23.453125 10.203125 22.53125 
L 64.296875 -2.40625 
C 65.59375 -3 65.796875 -3 66 -3 
C 67.09375 -3 67.90625 -2.203125 67.90625 -1.09375 
C 67.90625 -0.5 67.703125 0.203125 65.90625 1 
L 14.40625 24.703125 
z
" id="CMMI12-60"/>
     </defs>
     <use transform="scale(0.996264)" xlink:href="#CMSS17-66"/>
     <use transform="translate(62.33804 0)scale(0.996264)" xlink:href="#CMSS17-65"/>
     <use transform="translate(121.953441 0)scale(0.996264)" xlink:href="#CMSS17-79"/>
     <use transform="translate(190.977697 0)scale(0.996264)" xlink:href="#CMSS17-43"/>
     <use transform="translate(263.845631 0)scale(0.996264)" xlink:href="#CMSS17-72"/>
     <use transform="translate(329.907151 0)scale(0.996264)" xlink:href="#CMSS17-68"/>
     <use transform="translate(397.449992 0)scale(0.996264)" xlink:href="#CMSS17-43"/>
     <use transform="translate(470.317927 0)scale(0.996264)" xlink:href="#CMSS17-83"/>
     <use transform="translate(522.366443 0)scale(0.996264)" xlink:href="#CMSS17-78"/>
     <use transform="translate(619.657075 0)scale(0.996264)" xlink:href="#CMSS17-119"/>
     <use transform="translate(683.47662 0)scale(0.996264)" xlink:href="#CMSS17-105"/>
     <use transform="translate(705.657343 0)scale(0.996264)" xlink:href="#CMSS17-116"/>
     <use transform="translate(739.48891 0)scale(0.996264)" xlink:href="#CMSS17-110"/>
     <use transform="translate(818.922966 0)scale(0.996264)" xlink:href="#CMMI12-12"/>
     <use transform="translate(907.19099 0)scale(0.996264)" xlink:href="#CMMI12-60"/>
     <use transform="translate(1010.737095 0)scale(0.996264)" xlink:href="#CMR17-48"/>
    </g>
   </g>
  </g>
  <g id="axes_2">
   <g id="patch_7">
    <path clip-path="url(#p458859a644)" d="M 361.706311 223.517271 
L 361.706311 184.379147 
L 361.706311 66.964774 
L 361.706311 27.82665 
L 371.490842 27.82665 
L 371.490842 66.964774 
L 371.490842 184.379147 
L 371.490842 223.517271 
z
" style="fill:#ffffff;stroke:#ffffff;stroke-linejoin:miter;stroke-width:0.01;"/>
   </g>
   <g id="QuadMesh_1">
    <path clip-path="url(#p458859a644)" d="M 361.706311 223.517271 
L 371.490842 223.517271 
L 371.490842 184.379147 
L 361.706311 184.379147 
L 361.706311 223.517271 
" style="fill:#006428;"/>
    <path clip-path="url(#p458859a644)" d="M 361.706311 184.379147 
L 371.490842 184.379147 
L 371.490842 145.241023 
L 361.706311 145.241023 
L 361.706311 184.379147 
" style="fill:#2f974e;"/>
    <path clip-path="url(#p458859a644)" d="M 361.706311 145.241023 
L 371.490842 145.241023 
L 371.490842 106.102899 
L 361.706311 106.102899 
L 361.706311 145.241023 
" style="fill:#75c477;"/>
    <path clip-path="url(#p458859a644)" d="M 361.706311 106.102899 
L 371.490842 106.102899 
L 371.490842 66.964774 
L 361.706311 66.964774 
L 361.706311 106.102899 
" style="fill:#b8e3b2;"/>
    <path clip-path="url(#p458859a644)" d="M 361.706311 66.964774 
L 371.490842 66.964774 
L 371.490842 27.82665 
L 361.706311 27.82665 
L 361.706311 66.964774 
" style="fill:#e9f7e5;"/>
   </g>
   <g id="matplotlib.axis_3"/>
   <g id="matplotlib.axis_4">
    <g id="ytick_6">
     <g id="line2d_19">
      <defs>
       <path d="M 0 0 
L 3.5 0 
" id="m56d207b839" style="stroke:#000000;stroke-width:0.8;"/>
      </defs>
      <g>
       <use style="stroke:#000000;stroke-width:0.8;" x="371.490842" xlink:href="#m56d207b839" y="223.517271"/>
      </g>
     </g>
    </g>
    <g id="ytick_7">
     <g id="line2d_20">
      <g>
       <use style="stroke:#000000;stroke-width:0.8;" x="371.490842" xlink:href="#m56d207b839" y="145.241023"/>
      </g>
     </g>
     <g id="text_13">
      <!-- $1\sigma$ -->
      <g transform="translate(378.490842 151.467673)scale(0.18 -0.18)">
       <defs>
        <path d="M 50.796875 37.625 
C 52.09375 37.625 55.40625 37.625 55.40625 40.8125 
C 55.40625 43 53.5 43 51.703125 43 
L 29.59375 43 
C 14.59375 43 3.796875 26.34375 3.796875 14.5625 
C 3.796875 6.09375 9.296875 -1 18.296875 -1 
C 30.09375 -1 43 11.671875 43 26.640625 
C 43 30.53125 42.09375 34.3125 39.703125 37.625 
z
M 18.40625 1 
C 13.296875 1 9.59375 4.890625 9.59375 11.78125 
C 9.59375 17.765625 13.203125 37.625 27.90625 37.625 
C 32.203125 37.625 37 35.53125 37 27.828125 
C 37 24.34375 35.40625 15.953125 31.90625 10.1875 
C 28.296875 4.296875 22.90625 1 18.40625 1 
z
" id="CMMI12-27"/>
       </defs>
       <use transform="scale(0.996264)" xlink:href="#CMR17-49"/>
       <use transform="translate(45.690477 0)scale(0.996264)" xlink:href="#CMMI12-27"/>
      </g>
     </g>
    </g>
    <g id="ytick_8">
     <g id="line2d_21">
      <g>
       <use style="stroke:#000000;stroke-width:0.8;" x="371.490842" xlink:href="#m56d207b839" y="66.964774"/>
      </g>
     </g>
     <g id="text_14">
      <!-- $2\sigma$ -->
      <g transform="translate(378.490842 73.191424)scale(0.18 -0.18)">
       <use transform="scale(0.996264)" xlink:href="#CMR17-50"/>
       <use transform="translate(45.690477 0)scale(0.996264)" xlink:href="#CMMI12-27"/>
      </g>
     </g>
    </g>
   </g>
   <g id="patch_8">
    <path d="M 361.706311 223.517271 
L 361.706311 184.379147 
L 361.706311 66.964774 
L 361.706311 27.82665 
L 371.490842 27.82665 
L 371.490842 66.964774 
L 371.490842 184.379147 
L 371.490842 223.517271 
z
" style="fill:none;stroke:#000000;stroke-linejoin:miter;stroke-width:0.8;"/>
   </g>
  </g>
 </g>
 <defs>
  <clipPath id="p33faea266f">
   <rect height="195.690621" width="259.699673" x="85.775409" y="27.82665"/>
  </clipPath>
  <clipPath id="p458859a644">
   <rect height="195.690621" width="9.784531" x="361.706311" y="27.82665"/>
  </clipPath>
 </defs>
</svg>
