<?xml version="1.0" encoding="utf-8" standalone="no"?>
<!DOCTYPE svg PUBLIC "-//W3C//DTD SVG 1.1//EN"
  "http://www.w3.org/Graphics/SVG/1.1/DTD/svg11.dtd">
<svg xmlns:xlink="http://www.w3.org/1999/xlink" width="432pt" height="288pt" viewBox="0 0 432 288" xmlns="http://www.w3.org/2000/svg" version="1.1">
 <metadata>
  <rdf:RDF xmlns:dc="http://purl.org/dc/elements/1.1/" xmlns:cc="http://creativecommons.org/ns#" xmlns:rdf="http://www.w3.org/1999/02/22-rdf-syntax-ns#">
   <cc:Work>
    <dc:type rdf:resource="http://purl.org/dc/dcmitype/StillImage"/>
    <dc:date>2022-07-14T03:41:15.756411</dc:date>
    <dc:format>image/svg+xml</dc:format>
    <dc:creator>
     <cc:Agent>
      <dc:title>Matplotlib v3.5.2, https://matplotlib.org/</dc:title>
     </cc:Agent>
    </dc:creator>
   </cc:Work>
  </rdf:RDF>
 </metadata>
 <defs>
  <style type="text/css">*{stroke-linejoin: round; stroke-linecap: butt}</style>
 </defs>
 <g id="figure_1">
  <g id="patch_1">
   <path d="M 0 288 
L 432 288 
L 432 0 
L 0 0 
L 0 288 
z
" style="fill: none"/>
  </g>
  <g id="axes_1">
   <g id="patch_2">
    <path d="M 56.725 246.2 
L 348.305 246.2 
L 348.305 15.8 
L 56.725 15.8 
z
" style="fill: #ffffff"/>
   </g>
   <g id="PathCollection_1">
    <path d="M 57.847474 241.545455 
L 56.725 240.742804 
L 56.725 241.545455 
L 56.725 241.807934 
z
" clip-path="url(#p11623e5f2f)" style="fill: #006d2c; stroke: #006d2c"/>
    <path d="M 62.675612 239.935374 
L 65.423228 239.218182 
L 62.675612 238.589287 
L 59.687442 239.218182 
z
" clip-path="url(#p11623e5f2f)" style="fill: #006d2c; stroke: #006d2c"/>
    <path d="M 68.626224 238.066448 
L 72.334781 236.890909 
L 68.626224 236.352269 
L 66.806304 236.890909 
z
" clip-path="url(#p11623e5f2f)" style="fill: #006d2c; stroke: #006d2c"/>
    <path d="M 74.576837 235.404743 
L 76.941994 234.563636 
L 74.576837 234.378096 
L 74.020967 234.563636 
z
" clip-path="url(#p11623e5f2f)" style="fill: #006d2c; stroke: #006d2c"/>
    <path d="M 80.527449 232.684262 
L 81.524269 232.236364 
L 80.527449 232.171346 
L 80.346856 232.236364 
z
" clip-path="url(#p11623e5f2f)" style="fill: #006d2c; stroke: #006d2c"/>
    <path d="M 86.478061 230.391047 
L 87.437606 229.909091 
L 86.478061 229.826735 
L 86.264067 229.909091 
z
" clip-path="url(#p11623e5f2f)" style="fill: #006d2c; stroke: #006d2c"/>
    <path d="M 92.428673 228.238697 
L 93.717411 227.581818 
L 92.428673 227.41021 
L 92.013312 227.581818 
z
" clip-path="url(#p11623e5f2f)" style="fill: #006d2c; stroke: #006d2c"/>
    <path d="M 98.379286 226.070394 
L 99.960943 225.254545 
L 98.379286 224.903014 
L 97.578736 225.254545 
z
" clip-path="url(#p11623e5f2f)" style="fill: #006d2c; stroke: #006d2c"/>
    <path d="M 104.329898 223.901757 
L 106.388752 222.927273 
L 104.329898 222.214686 
L 102.774018 222.927273 
z
" clip-path="url(#p11623e5f2f)" style="fill: #006d2c; stroke: #006d2c"/>
    <path d="M 110.28051 221.109284 
L 111.327178 220.6 
L 110.28051 220.004353 
L 109.153327 220.6 
z
" clip-path="url(#p11623e5f2f)" style="fill: #006d2c; stroke: #006d2c"/>
    <path d="M 116.231122 218.286789 
L 116.259056 218.272727 
L 116.231122 218.229421 
L 116.173389 218.272727 
z
" clip-path="url(#p11623e5f2f)" style="fill: #006d2c; stroke: #006d2c"/>
    <path d="M 122.181735 214.52667 
L 123.492917 213.618182 
L 122.181735 213.384175 
L 121.714503 213.618182 
z
" clip-path="url(#p11623e5f2f)" style="fill: #006d2c; stroke: #006d2c"/>
    <path d="M 128.132347 212.237779 
L 129.928786 211.290909 
L 128.132347 210.618005 
L 126.862372 211.290909 
z
" clip-path="url(#p11623e5f2f)" style="fill: #006d2c; stroke: #006d2c"/>
    <path d="M 134.082959 209.186038 
L 134.48408 208.963636 
L 134.082959 208.583397 
L 133.545037 208.963636 
z
" clip-path="url(#p11623e5f2f)" style="fill: #006d2c; stroke: #006d2c"/>
    <path d="M 140.033571 205.748643 
L 142.163429 204.309091 
L 140.033571 203.866128 
L 139.218366 204.309091 
z
" clip-path="url(#p11623e5f2f)" style="fill: #006d2c; stroke: #006d2c"/>
    <path d="M 145.984184 202.860897 
L 147.482456 201.981818 
L 145.984184 201.280466 
L 144.771378 201.981818 
z
" clip-path="url(#p11623e5f2f)" style="fill: #006d2c; stroke: #006d2c"/>
    <path d="M 151.934796 199.694475 
L 152.00282 199.654545 
L 151.934796 199.131858 
L 151.804556 199.654545 
z
" clip-path="url(#p11623e5f2f)" style="fill: #006d2c; stroke: #006d2c"/>
    <path d="M 157.885408 196.354066 
L 160.131876 195 
L 157.885408 194.156804 
L 156.384243 195 
z
" clip-path="url(#p11623e5f2f)" style="fill: #006d2c; stroke: #006d2c"/>
    <path d="M 163.83602 192.991903 
L 164.352208 192.672727 
L 163.83602 191.365794 
L 163.064793 192.672727 
z
" clip-path="url(#p11623e5f2f)" style="fill: #006d2c; stroke: #006d2c"/>
    <path d="M 169.786633 189.568189 
L 172.303247 188.018182 
L 169.786633 187.057641 
L 168.13263 188.018182 
z
" clip-path="url(#p11623e5f2f)" style="fill: #006d2c; stroke: #006d2c"/>
    <path d="M 175.737245 186.070716 
L 176.324305 185.690909 
L 177.286945 183.363636 
L 175.737245 183.183724 
L 175.434418 183.363636 
L 174.799663 185.690909 
z
" clip-path="url(#p11623e5f2f)" style="fill: #006d2c; stroke: #006d2c"/>
    <path d="M 181.687857 182.534152 
L 184.064021 181.036364 
L 181.687857 179.885755 
L 179.899592 181.036364 
z
" clip-path="url(#p11623e5f2f)" style="fill: #006d2c; stroke: #006d2c"/>
    <path d="M 187.638469 178.932354 
L 187.969242 178.709091 
L 190.713424 176.381818 
L 187.638469 175.663975 
L 186.412411 176.381818 
L 186.835042 178.709091 
z
" clip-path="url(#p11623e5f2f)" style="fill: #006d2c; stroke: #006d2c"/>
    <path d="M 193.589082 175.27549 
L 195.456484 174.054545 
L 193.589082 172.122648 
L 191.713312 174.054545 
z
" clip-path="url(#p11623e5f2f)" style="fill: #006d2c; stroke: #006d2c"/>
    <path d="M 199.539694 171.516298 
L 202.828672 169.4 
L 199.539694 168.032257 
L 197.346399 169.4 
z
" clip-path="url(#p11623e5f2f)" style="fill: #006d2c; stroke: #006d2c"/>
    <path d="M 205.490306 167.746051 
L 206.465424 167.072727 
L 208.808581 164.745455 
L 205.490306 164.006346 
L 204.29742 164.745455 
L 203.588809 167.072727 
z
" clip-path="url(#p11623e5f2f)" style="fill: #006d2c; stroke: #006d2c"/>
    <path d="M 211.440918 163.925788 
L 213.74619 162.418182 
L 215.338461 160.090909 
L 211.440918 159.922941 
L 211.1765 160.090909 
L 209.034372 162.418182 
z
" clip-path="url(#p11623e5f2f)" style="fill: #006d2c; stroke: #006d2c"/>
    <path d="M 217.391531 159.974691 
L 220.783089 157.763636 
L 223.342143 156.042797 
L 224.211467 155.436364 
L 226.881409 153.109091 
L 229.292755 152.034915 
L 231.170383 150.781818 
L 233.165205 148.454545 
L 235.243367 147.913432 
L 237.97656 146.127273 
L 240.703614 143.8 
L 241.19398 143.745204 
L 244.620806 141.472727 
L 247.144592 139.604911 
L 247.799705 139.145455 
L 250.690112 136.818182 
L 253.095204 135.380764 
L 254.411052 134.490909 
L 256.770941 132.163636 
L 259.045816 131.057917 
L 260.891005 129.836364 
L 262.925495 127.509091 
L 264.996429 126.662576 
L 267.241198 125.181818 
L 269.155165 122.854545 
L 270.947041 122.216264 
L 273.480836 120.527273 
L 275.436844 118.2 
L 276.897653 117.729116 
L 279.630729 115.872727 
L 281.722132 113.545455 
L 282.848265 113.203007 
L 285.706051 111.218182 
L 287.940789 108.890909 
L 288.798878 108.633011 
L 291.704859 106.563636 
L 293.97944 104.236364 
L 294.74949 103.99375 
L 297.631529 101.909091 
L 299.90757 99.581818 
L 300.700102 99.307432 
L 303.506837 97.254545 
L 305.752494 94.927273 
L 306.650714 94.576526 
L 309.334727 92.6 
L 311.555012 90.272727 
L 312.601327 89.804877 
L 315.118062 87.945455 
L 317.346971 85.618182 
L 318.551939 84.996685 
L 320.843996 83.290909 
L 323.101039 80.963636 
L 324.502551 80.118302 
L 326.492779 78.636364 
L 328.888485 76.309091 
L 330.453163 75.194385 
L 332.081326 73.981818 
L 334.674744 71.654545 
L 336.403776 70.229904 
L 337.612546 69.327273 
L 340.267205 67 
L 342.354388 65.222417 
L 343.081289 64.672727 
L 345.807003 62.345455 
L 348.305 60.124923 
L 348.305 60.018182 
L 348.305 57.690909 
L 348.305 55.363636 
L 348.305 53.036364 
L 348.305 50.803493 
L 345.968565 53.036364 
L 343.239708 55.363636 
L 342.354388 56.151856 
L 340.757487 57.690909 
L 338.018815 60.018182 
L 336.403776 61.415737 
L 335.460858 62.345455 
L 332.766104 64.672727 
L 330.453163 66.63741 
L 330.092639 67 
L 327.484744 69.327273 
L 324.68852 71.654545 
L 324.502551 71.815524 
L 322.162525 73.981818 
L 319.300625 76.309091 
L 318.551939 76.962199 
L 316.770149 78.636364 
L 313.859432 80.963636 
L 312.601327 82.032596 
L 311.292125 83.290909 
L 308.383148 85.618182 
L 306.650714 87.061425 
L 305.744826 87.945455 
L 302.873477 90.272727 
L 300.700102 92.041867 
L 300.128599 92.6 
L 297.324506 94.927273 
L 294.74949 96.967469 
L 294.450534 97.254545 
L 291.728216 99.581818 
L 288.798878 101.834318 
L 288.717989 101.909091 
L 286.057332 104.236364 
L 282.975718 106.563636 
L 282.848265 106.630527 
L 280.306339 108.890909 
L 277.215369 111.218182 
L 276.897653 111.383182 
L 274.484635 113.545455 
L 271.378688 115.872727 
L 270.947041 116.084915 
L 268.589672 118.2 
L 265.461819 120.527273 
L 264.996429 120.732545 
L 262.617598 122.854545 
L 259.432319 125.181818 
L 259.045816 125.323571 
L 256.562886 127.509091 
L 253.174023 129.836364 
L 253.095204 129.857529 
L 250.416387 132.163636 
L 247.144592 134.362215 
L 246.968535 134.490909 
L 244.165889 136.818182 
L 241.19398 138.815548 
L 240.73742 139.145455 
L 237.842878 141.472727 
L 235.243367 143.201593 
L 234.410056 143.8 
L 231.971718 146.127273 
L 229.292755 147.504842 
L 227.967993 148.454545 
L 226.080191 150.781818 
L 223.342143 151.721662 
L 221.412962 153.109091 
L 220.094655 155.436364 
L 217.391531 155.858114 
L 214.784784 157.763636 
z
" clip-path="url(#p11623e5f2f)" style="fill: #006d2c; stroke: #006d2c"/>
   </g>
   <g id="PathCollection_2">
    <defs>
     <path id="mf5d4ac4c91" d="M 61.330995 -46.454545 
L 62.675612 -46.902947 
L 68.626224 -48.505895 
L 69.495079 -48.781818 
L 74.576837 -50.519778 
L 76.126395 -51.109091 
L 80.527449 -52.780934 
L 82.104963 -53.436364 
L 86.478061 -55.199727 
L 87.769391 -55.763636 
L 92.428673 -57.710431 
L 93.265464 -58.090909 
L 98.379286 -60.298754 
L 98.635465 -60.418182 
L 103.320876 -62.745455 
L 104.329898 -63.057885 
L 108.586784 -65.072727 
L 110.28051 -65.863931 
L 113.437402 -67.4 
L 116.231122 -68.71781 
L 118.236395 -69.727273 
L 122.181735 -71.580582 
L 123.164331 -72.054545 
L 127.67414 -74.381818 
L 128.132347 -74.518152 
L 132.289084 -76.709091 
L 134.082959 -77.618026 
L 136.64105 -79.036364 
L 140.033571 -80.669646 
L 141.37636 -81.363636 
L 145.984184 -83.655859 
L 146.05601 -83.690909 
L 150.04041 -86.018182 
L 151.934796 -86.991403 
L 154.241577 -88.345455 
L 157.885408 -90.177806 
L 158.810607 -90.672727 
L 163.013147 -93 
L 163.83602 -93.446098 
L 166.878358 -95.327273 
L 169.786633 -96.864963 
L 171.110879 -97.654545 
L 175.38998 -99.981818 
L 175.737245 -100.178757 
L 179.030059 -102.309091 
L 181.687857 -103.764063 
L 183.106491 -104.636364 
L 187.265068 -106.963636 
L 187.638469 -107.18343 
L 190.760779 -109.290909 
L 193.589082 -110.884146 
L 194.771438 -111.618182 
L 198.629887 -113.945455 
L 199.539694 -114.504864 
L 202.131545 -116.272727 
L 205.490306 -118.208893 
L 206.116117 -118.6 
L 209.605418 -120.927273 
L 211.440918 -122.051426 
L 213.257256 -123.254545 
L 217.093963 -125.581818 
L 217.391531 -125.781194 
L 220.359089 -127.909091 
L 223.342143 -129.733434 
L 224.116841 -130.236364 
L 227.558072 -132.563636 
L 229.292755 -133.708206 
L 230.976648 -134.890909 
L 234.636295 -137.218182 
L 235.243367 -137.652663 
L 237.807319 -139.545455 
L 241.19398 -141.702981 
L 241.446705 -141.872727 
L 244.66961 -144.2 
L 247.144592 -145.871007 
L 248.053823 -146.527273 
L 251.463042 -148.854545 
L 253.095204 -150.047035 
L 254.58513 -151.181818 
L 258.101092 -153.509091 
L 259.045816 -154.250678 
L 261.095438 -155.836364 
L 264.581525 -158.163636 
L 264.996429 -158.505769 
L 267.590657 -160.490909 
L 270.932103 -162.818182 
L 270.947041 -162.830817 
L 274.029235 -165.145455 
L 276.897653 -167.238509 
L 277.190254 -167.472727 
L 280.384472 -169.8 
L 282.848265 -171.678677 
L 283.390281 -172.127273 
L 286.649556 -174.454545 
L 288.798878 -176.158657 
L 289.535455 -176.781818 
L 292.808616 -179.109091 
L 294.74949 -180.704429 
L 295.608928 -181.436364 
L 298.879404 -183.763636 
L 300.700102 -185.2946 
L 301.633358 -186.090909 
L 304.884581 -188.418182 
L 306.650714 -189.927818 
L 307.608207 -190.745455 
L 310.832252 -193.072727 
L 312.601327 -194.60183 
L 313.534386 -195.4 
L 316.729032 -197.727273 
L 318.551939 -199.313868 
L 319.405661 -200.054545 
L 322.550949 -202.381818 
L 324.502551 -204.099303 
L 325.196859 -204.709091 
L 328.304337 -207.036364 
L 330.453163 -208.929681 
L 330.941057 -209.363636 
L 334.010564 -211.690909 
L 336.403776 -213.792909 
L 336.653533 -214.018182 
L 339.67723 -216.345455 
L 342.34262 -218.672727 
L 342.354388 -218.683789 
L 345.281114 -221 
L 347.98804 -223.327273 
L 348.305 -223.628897 
L 348.305 -225.654545 
L 348.305 -227.875077 
L 345.807003 -225.654545 
L 343.081289 -223.327273 
L 342.354388 -222.777583 
L 340.267205 -221 
L 337.612546 -218.672727 
L 336.403776 -217.770096 
L 334.674744 -216.345455 
L 332.081326 -214.018182 
L 330.453163 -212.805615 
L 328.888485 -211.690909 
L 326.492779 -209.363636 
L 324.502551 -207.881698 
L 323.101039 -207.036364 
L 320.843996 -204.709091 
L 318.551939 -203.003315 
L 317.346971 -202.381818 
L 315.118062 -200.054545 
L 312.601327 -198.195123 
L 311.555012 -197.727273 
L 309.334727 -195.4 
L 306.650714 -193.423474 
L 305.752494 -193.072727 
L 303.506837 -190.745455 
L 300.700102 -188.692568 
L 299.90757 -188.418182 
L 297.631529 -186.090909 
L 294.74949 -184.00625 
L 293.97944 -183.763636 
L 291.704859 -181.436364 
L 288.798878 -179.366989 
L 287.940789 -179.109091 
L 285.706051 -176.781818 
L 282.848265 -174.796993 
L 281.722132 -174.454545 
L 279.630729 -172.127273 
L 276.897653 -170.270884 
L 275.436844 -169.8 
L 273.480836 -167.472727 
L 270.947041 -165.783736 
L 269.155165 -165.145455 
L 267.241198 -162.818182 
L 264.996429 -161.337424 
L 262.925495 -160.490909 
L 260.891005 -158.163636 
L 259.045816 -156.942083 
L 256.770941 -155.836364 
L 254.411052 -153.509091 
L 253.095204 -152.619236 
L 250.690112 -151.181818 
L 247.799705 -148.854545 
L 247.144592 -148.395089 
L 244.620806 -146.527273 
L 241.19398 -144.254796 
L 240.703614 -144.2 
L 237.97656 -141.872727 
L 235.243367 -140.086568 
L 233.165205 -139.545455 
L 231.170383 -137.218182 
L 229.292755 -135.965085 
L 226.881409 -134.890909 
L 224.211467 -132.563636 
L 223.342143 -131.957203 
L 220.783089 -130.236364 
L 217.391531 -128.025309 
L 214.784784 -130.236364 
L 217.391531 -132.141886 
L 220.094655 -132.563636 
L 221.412962 -134.890909 
L 223.342143 -136.278338 
L 226.080191 -137.218182 
L 227.967993 -139.545455 
L 229.292755 -140.495158 
L 231.971718 -141.872727 
L 234.410056 -144.2 
L 235.243367 -144.798407 
L 237.842878 -146.527273 
L 240.73742 -148.854545 
L 241.19398 -149.184452 
L 244.165889 -151.181818 
L 246.968535 -153.509091 
L 247.144592 -153.637785 
L 250.416387 -155.836364 
L 253.095204 -158.142471 
L 253.174023 -158.163636 
L 256.562886 -160.490909 
L 259.045816 -162.676429 
L 259.432319 -162.818182 
L 262.617598 -165.145455 
L 264.996429 -167.267455 
L 265.461819 -167.472727 
L 268.589672 -169.8 
L 270.947041 -171.915085 
L 271.378688 -172.127273 
L 274.484635 -174.454545 
L 276.897653 -176.616818 
L 277.215369 -176.781818 
L 280.306339 -179.109091 
L 282.848265 -181.369473 
L 282.975718 -181.436364 
L 286.057332 -183.763636 
L 288.717989 -186.090909 
L 288.798878 -186.165682 
L 291.728216 -188.418182 
L 294.450534 -190.745455 
L 294.74949 -191.032531 
L 297.324506 -193.072727 
L 300.128599 -195.4 
L 300.700102 -195.958133 
L 302.873477 -197.727273 
L 305.744826 -200.054545 
L 306.650714 -200.938575 
L 308.383148 -202.381818 
L 311.292125 -204.709091 
L 312.601327 -205.967404 
L 313.859432 -207.036364 
L 316.770149 -209.363636 
L 318.551939 -211.037801 
L 319.300625 -211.690909 
L 322.162525 -214.018182 
L 324.502551 -216.184476 
L 324.68852 -216.345455 
L 327.484744 -218.672727 
L 330.092639 -221 
L 330.453163 -221.36259 
L 332.766104 -223.327273 
L 335.460858 -225.654545 
L 336.403776 -226.584263 
L 338.018815 -227.981818 
L 340.757487 -230.309091 
L 342.354388 -231.848144 
L 343.239708 -232.636364 
L 345.968565 -234.963636 
L 348.305 -237.196507 
L 348.305 -237.290909 
L 348.305 -239.618182 
L 348.305 -241.945455 
L 348.305 -242.142381 
L 348.065593 -241.945455 
L 345.660911 -239.618182 
L 343.164971 -237.290909 
L 342.354388 -236.634628 
L 340.460334 -234.963636 
L 338.116385 -232.636364 
L 336.403776 -231.254656 
L 335.259843 -230.309091 
L 332.937912 -227.981818 
L 330.453163 -225.908751 
L 330.135433 -225.654545 
L 327.664803 -223.327273 
L 325.085573 -221 
L 324.502551 -220.54443 
L 322.340923 -218.672727 
L 319.934692 -216.345455 
L 318.551939 -215.268612 
L 317.004295 -214.018182 
L 314.631366 -211.690909 
L 312.601327 -210.087433 
L 311.672598 -209.363636 
L 309.225272 -207.036364 
L 306.650714 -204.920004 
L 306.378291 -204.709091 
L 303.750402 -202.381818 
L 301.091383 -200.054545 
L 300.700102 -199.764068 
L 298.23168 -197.727273 
L 295.714685 -195.4 
L 294.74949 -194.688219 
L 292.688746 -193.072727 
L 290.232466 -190.745455 
L 288.798878 -189.680507 
L 287.125993 -188.418182 
L 284.63729 -186.090909 
L 282.848265 -184.744809 
L 281.526405 -183.763636 
L 278.95999 -181.436364 
L 276.897653 -179.850008 
L 275.896661 -179.109091 
L 273.217495 -176.781818 
L 270.947041 -174.995114 
L 270.220957 -174.454545 
L 267.415608 -172.127273 
L 264.996429 -170.188113 
L 264.480101 -169.8 
L 261.555558 -167.472727 
L 259.045816 -165.438098 
L 258.65996 -165.145455 
L 255.635703 -162.818182 
L 253.095204 -160.752376 
L 252.752071 -160.490909 
L 249.652455 -158.163636 
L 247.144592 -156.135863 
L 246.750761 -155.836364 
L 243.600924 -153.509091 
L 241.19398 -151.591686 
L 240.649569 -151.181818 
L 237.474778 -148.854545 
L 235.243367 -147.121066 
L 234.43974 -146.527273 
L 231.265936 -144.2 
L 229.292755 -142.720417 
L 228.113527 -141.872727 
L 224.967574 -139.545455 
L 223.342143 -138.378093 
L 221.669314 -137.218182 
L 218.582635 -134.890909 
L 217.391531 -134.077869 
L 215.108766 -132.563636 
L 212.116421 -130.236364 
L 211.440918 -129.800157 
L 208.463965 -127.909091 
L 205.539524 -125.581818 
L 205.490306 -125.559763 
L 201.769792 -123.254545 
L 199.539694 -121.572866 
L 198.615409 -120.927273 
L 195.019603 -118.6 
L 193.589082 -117.642531 
L 191.437937 -116.272727 
L 188.525691 -113.945455 
L 187.638469 -113.595031 
L 184.26206 -111.618182 
L 181.687857 -109.680758 
L 181.112734 -109.290909 
L 177.490533 -106.963636 
L 175.737245 -106.059113 
L 173.342487 -104.636364 
L 170.478356 -102.309091 
L 169.786633 -102.120502 
L 166.103926 -99.981818 
L 163.83602 -98.653333 
L 162.183508 -97.654545 
L 159.290513 -95.327273 
L 157.885408 -94.924661 
L 154.458881 -93 
L 151.934796 -91.617004 
L 150.354918 -90.672727 
L 147.51819 -88.345455 
L 145.984184 -87.91693 
L 142.700793 -86.018182 
L 140.033571 -84.95738 
L 137.702824 -83.690909 
L 134.082959 -81.409259 
L 133.997981 -81.363636 
L 130.652435 -79.036364 
L 128.132347 -78.266108 
L 125.193781 -76.709091 
L 122.181735 -75.362049 
L 120.224549 -74.381818 
L 116.231122 -72.256692 
L 115.822281 -72.054545 
L 112.086605 -69.727273 
L 110.28051 -69.196551 
L 106.880776 -67.4 
L 104.329898 -66.546071 
L 101.11296 -65.072727 
L 98.379286 -63.843748 
L 95.878118 -62.745455 
L 92.428673 -61.301618 
L 90.290398 -60.418182 
L 86.478061 -58.872022 
L 84.448405 -58.090909 
L 80.527449 -56.544667 
L 78.358061 -55.763636 
L 74.576837 -54.360111 
L 71.809333 -53.436364 
L 68.626224 -52.381 
L 64.328782 -51.109091 
L 62.675612 -50.429373 
L 56.725 -49.123501 
L 56.725 -48.781818 
L 56.725 -47.257196 
L 57.847474 -46.454545 
L 56.725 -46.192066 
L 56.725 -45.377479 
z
M 59.687442 -48.781818 
L 62.675612 -49.410713 
L 65.423228 -48.781818 
L 62.675612 -48.064626 
z
M 66.806304 -51.109091 
L 68.626224 -51.647731 
L 72.334781 -51.109091 
L 68.626224 -49.933552 
z
M 74.020967 -53.436364 
L 74.576837 -53.621904 
L 76.941994 -53.436364 
L 74.576837 -52.595257 
z
M 80.346856 -55.763636 
L 80.527449 -55.828654 
L 81.524269 -55.763636 
L 80.527449 -55.315738 
z
M 86.264067 -58.090909 
L 86.478061 -58.173265 
L 87.437606 -58.090909 
L 86.478061 -57.608953 
z
M 92.013312 -60.418182 
L 92.428673 -60.58979 
L 93.717411 -60.418182 
L 92.428673 -59.761303 
z
M 97.578736 -62.745455 
L 98.379286 -63.096986 
L 99.960943 -62.745455 
L 98.379286 -61.929606 
z
M 102.774018 -65.072727 
L 104.329898 -65.785314 
L 106.388752 -65.072727 
L 104.329898 -64.098243 
z
M 109.153327 -67.4 
L 110.28051 -67.995647 
L 111.327178 -67.4 
L 110.28051 -66.890716 
z
M 116.173389 -69.727273 
L 116.231122 -69.770579 
L 116.259056 -69.727273 
L 116.231122 -69.713211 
z
M 121.714503 -74.381818 
L 122.181735 -74.615825 
L 123.492917 -74.381818 
L 122.181735 -73.47333 
z
M 126.862372 -76.709091 
L 128.132347 -77.381995 
L 129.928786 -76.709091 
L 128.132347 -75.762221 
z
M 133.545037 -79.036364 
L 134.082959 -79.416603 
L 134.48408 -79.036364 
L 134.082959 -78.813962 
z
M 139.218366 -83.690909 
L 140.033571 -84.133872 
L 142.163429 -83.690909 
L 140.033571 -82.251357 
z
M 144.771378 -86.018182 
L 145.984184 -86.719534 
L 147.482456 -86.018182 
L 145.984184 -85.139103 
z
M 151.804556 -88.345455 
L 151.934796 -88.868142 
L 152.00282 -88.345455 
L 151.934796 -88.305525 
z
M 156.384243 -93 
L 157.885408 -93.843196 
L 160.131876 -93 
L 157.885408 -91.645934 
z
M 163.064793 -95.327273 
L 163.83602 -96.634206 
L 164.352208 -95.327273 
L 163.83602 -95.008097 
z
M 168.13263 -99.981818 
L 169.786633 -100.942359 
L 172.303247 -99.981818 
L 169.786633 -98.431811 
z
M 174.799663 -102.309091 
L 175.434418 -104.636364 
L 175.737245 -104.816276 
L 177.286945 -104.636364 
L 176.324305 -102.309091 
L 175.737245 -101.929284 
z
M 179.899592 -106.963636 
L 181.687857 -108.114245 
L 184.064021 -106.963636 
L 181.687857 -105.465848 
z
M 186.835042 -109.290909 
L 186.412411 -111.618182 
L 187.638469 -112.336025 
L 190.713424 -111.618182 
L 187.969242 -109.290909 
L 187.638469 -109.067646 
z
M 191.713312 -113.945455 
L 193.589082 -115.877352 
L 195.456484 -113.945455 
L 193.589082 -112.72451 
z
M 197.346399 -118.6 
L 199.539694 -119.967743 
L 202.828672 -118.6 
L 199.539694 -116.483702 
z
M 203.588809 -120.927273 
L 204.29742 -123.254545 
L 205.490306 -123.993654 
L 208.808581 -123.254545 
L 206.465424 -120.927273 
L 205.490306 -120.253949 
z
M 209.034372 -125.581818 
L 211.1765 -127.909091 
L 211.440918 -128.077059 
L 215.338461 -127.909091 
L 213.74619 -125.581818 
L 211.440918 -124.074212 
z
" style="stroke: #42ab5d"/>
    </defs>
    <g clip-path="url(#p11623e5f2f)">
     <use xlink:href="#mf5d4ac4c91" x="0" y="288" style="fill: #42ab5d; stroke: #42ab5d"/>
    </g>
   </g>
   <g id="PathCollection_3">
    <path d="M 62.675612 242.076971 
L 64.827493 241.545455 
L 68.626224 240.47848 
L 72.594777 239.218182 
L 74.576837 238.540318 
L 78.913849 236.890909 
L 80.527449 236.277945 
L 84.65352 234.563636 
L 86.478061 233.827927 
L 90.122675 232.236364 
L 92.428673 231.272845 
L 95.427993 229.909091 
L 98.379286 228.634898 
L 100.638205 227.581818 
L 104.329898 225.894876 
L 105.721626 225.254545 
L 110.28051 223.139043 
L 110.755407 222.927273 
L 115.547625 220.6 
L 116.231122 220.277592 
L 120.213733 218.272727 
L 122.181735 217.348265 
L 125.08997 215.945455 
L 128.132347 214.457026 
L 129.894707 213.618182 
L 134.082959 211.527958 
L 134.574488 211.290909 
L 138.798019 208.963636 
L 140.033571 208.368797 
L 143.385626 206.636364 
L 145.984184 205.343677 
L 148.104287 204.309091 
L 151.934796 202.265321 
L 152.508258 201.981818 
L 156.480333 199.654545 
L 157.885408 198.947984 
L 160.915143 197.327273 
L 163.83602 195.790856 
L 165.417026 195 
L 169.404508 192.672727 
L 169.786633 192.470687 
L 173.35096 190.345455 
L 175.737245 189.075887 
L 177.739703 188.018182 
L 181.687857 185.714245 
L 181.733278 185.690909 
L 185.515425 183.363636 
L 187.638469 182.201338 
L 189.708411 181.036364 
L 193.552316 178.709091 
L 193.589082 178.68838 
L 197.304403 176.381818 
L 199.539694 175.094819 
L 201.316126 174.054545 
L 204.992215 171.727273 
L 205.490306 171.440147 
L 208.754749 169.4 
L 211.440918 167.747216 
L 212.563371 167.072727 
L 216.160526 164.745455 
L 217.391531 164.006362 
L 219.907493 162.418182 
L 223.342143 160.174597 
L 223.479508 160.090909 
L 227.063726 157.763636 
L 229.292755 156.341773 
L 230.717224 155.436364 
L 234.120526 153.109091 
L 235.243367 152.405883 
L 237.764674 150.781818 
L 241.167438 148.454545 
L 241.19398 148.437636 
L 244.633751 146.127273 
L 247.144592 144.4493 
L 248.141406 143.8 
L 251.384226 141.472727 
L 253.095204 140.353444 
L 254.952369 139.145455 
L 258.099282 136.818182 
L 259.045816 136.199578 
L 261.608375 134.490909 
L 264.839517 132.163636 
L 264.996429 132.058703 
L 268.141757 129.836364 
L 270.947041 127.892308 
L 271.522423 127.509091 
L 274.587919 125.181818 
L 276.897653 123.620611 
L 278.058645 122.854545 
L 280.979949 120.527273 
L 282.848265 119.277076 
L 284.46955 118.2 
L 287.336106 115.872727 
L 288.798878 114.891473 
L 290.772429 113.545455 
L 293.633822 111.218182 
L 294.74949 110.458718 
L 296.979089 108.890909 
L 299.885417 106.563636 
L 300.700102 106.00082 
L 303.124071 104.236364 
L 306.088223 101.909091 
L 306.650714 101.514201 
L 309.217461 99.581818 
L 312.234561 97.254545 
L 312.601327 96.993167 
L 315.266454 94.927273 
L 318.32146 92.6 
L 318.551939 92.433687 
L 321.257699 90.272727 
L 324.289846 87.945455 
L 324.502551 87.789867 
L 327.186694 85.618182 
L 330.18377 83.290909 
L 330.453163 83.093012 
L 333.075989 80.963636 
L 336.024482 78.636364 
L 336.403776 78.35789 
L 338.934049 76.309091 
L 341.820304 73.981818 
L 342.354388 73.590904 
L 344.745431 71.654545 
L 347.518359 69.327273 
L 348.305 68.751057 
L 348.305 67 
L 348.305 64.672727 
L 348.305 64.371103 
L 347.98804 64.672727 
L 345.281114 67 
L 342.354388 69.316211 
L 342.34262 69.327273 
L 339.67723 71.654545 
L 336.653533 73.981818 
L 336.403776 74.207091 
L 334.010564 76.309091 
L 330.941057 78.636364 
L 330.453163 79.070319 
L 328.304337 80.963636 
L 325.196859 83.290909 
L 324.502551 83.900697 
L 322.550949 85.618182 
L 319.405661 87.945455 
L 318.551939 88.686132 
L 316.729032 90.272727 
L 313.534386 92.6 
L 312.601327 93.39817 
L 310.832252 94.927273 
L 307.608207 97.254545 
L 306.650714 98.072182 
L 304.884581 99.581818 
L 301.633358 101.909091 
L 300.700102 102.7054 
L 298.879404 104.236364 
L 295.608928 106.563636 
L 294.74949 107.295571 
L 292.808616 108.890909 
L 289.535455 111.218182 
L 288.798878 111.841343 
L 286.649556 113.545455 
L 283.390281 115.872727 
L 282.848265 116.321323 
L 280.384472 118.2 
L 277.190254 120.527273 
L 276.897653 120.761491 
L 274.029235 122.854545 
L 270.947041 125.169183 
L 270.932103 125.181818 
L 267.590657 127.509091 
L 264.996429 129.494231 
L 264.581525 129.836364 
L 261.095438 132.163636 
L 259.045816 133.749322 
L 258.101092 134.490909 
L 254.58513 136.818182 
L 253.095204 137.952965 
L 251.463042 139.145455 
L 248.053823 141.472727 
L 247.144592 142.128993 
L 244.66961 143.8 
L 241.446705 146.127273 
L 241.19398 146.297019 
L 237.807319 148.454545 
L 235.243367 150.347337 
L 234.636295 150.781818 
L 230.976648 153.109091 
L 229.292755 154.291794 
L 227.558072 155.436364 
L 224.116841 157.763636 
L 223.342143 158.266566 
L 220.359089 160.090909 
L 217.391531 162.218806 
L 217.093963 162.418182 
L 213.257256 164.745455 
L 211.440918 165.948574 
L 209.605418 167.072727 
L 206.116117 169.4 
L 205.490306 169.791107 
L 202.131545 171.727273 
L 199.539694 173.495136 
L 198.629887 174.054545 
L 194.771438 176.381818 
L 193.589082 177.115854 
L 190.760779 178.709091 
L 187.638469 180.81657 
L 187.265068 181.036364 
L 183.106491 183.363636 
L 181.687857 184.235937 
L 179.030059 185.690909 
L 175.737245 187.821243 
L 175.38998 188.018182 
L 171.110879 190.345455 
L 169.786633 191.135037 
L 166.878358 192.672727 
L 163.83602 194.553902 
L 163.013147 195 
L 158.810607 197.327273 
L 157.885408 197.822194 
L 154.241577 199.654545 
L 151.934796 201.008597 
L 150.04041 201.981818 
L 146.05601 204.309091 
L 145.984184 204.344141 
L 141.37636 206.636364 
L 140.033571 207.330354 
L 136.64105 208.963636 
L 134.082959 210.381974 
L 132.289084 211.290909 
L 128.132347 213.481848 
L 127.67414 213.618182 
L 123.164331 215.945455 
L 122.181735 216.419418 
L 118.236395 218.272727 
L 116.231122 219.28219 
L 113.437402 220.6 
L 110.28051 222.136069 
L 108.586784 222.927273 
L 104.329898 224.942115 
L 103.320876 225.254545 
L 98.635465 227.581818 
L 98.379286 227.701246 
L 93.265464 229.909091 
L 92.428673 230.289569 
L 87.769391 232.236364 
L 86.478061 232.800273 
L 82.104963 234.563636 
L 80.527449 235.219066 
L 76.126395 236.890909 
L 74.576837 237.480222 
L 69.495079 239.218182 
L 68.626224 239.494105 
L 62.675612 241.097053 
L 61.330995 241.545455 
L 56.725 242.622521 
L 56.725 243.437107 
z
" clip-path="url(#p11623e5f2f)" style="fill: #a2d99c; stroke: #a2d99c"/>
    <path d="M 62.675612 237.570627 
L 64.328782 236.890909 
L 68.626224 235.619 
L 71.809333 234.563636 
L 74.576837 233.639889 
L 78.358061 232.236364 
L 80.527449 231.455333 
L 84.448405 229.909091 
L 86.478061 229.127978 
L 90.290398 227.581818 
L 92.428673 226.698382 
L 95.878118 225.254545 
L 98.379286 224.156252 
L 101.11296 222.927273 
L 104.329898 221.453929 
L 106.880776 220.6 
L 110.28051 218.803449 
L 112.086605 218.272727 
L 115.822281 215.945455 
L 116.231122 215.743308 
L 120.224549 213.618182 
L 122.181735 212.637951 
L 125.193781 211.290909 
L 128.132347 209.733892 
L 130.652435 208.963636 
L 133.997981 206.636364 
L 134.082959 206.590741 
L 137.702824 204.309091 
L 140.033571 203.04262 
L 142.700793 201.981818 
L 145.984184 200.08307 
L 147.51819 199.654545 
L 150.354918 197.327273 
L 151.934796 196.382996 
L 154.458881 195 
L 157.885408 193.075339 
L 159.290513 192.672727 
L 162.183508 190.345455 
L 163.83602 189.346667 
L 166.103926 188.018182 
L 169.786633 185.879498 
L 170.478356 185.690909 
L 173.342487 183.363636 
L 175.737245 181.940887 
L 177.490533 181.036364 
L 181.112734 178.709091 
L 181.687857 178.319242 
L 184.26206 176.381818 
L 187.638469 174.404969 
L 188.525691 174.054545 
L 191.437937 171.727273 
L 193.589082 170.357469 
L 195.019603 169.4 
L 198.615409 167.072727 
L 199.539694 166.427134 
L 201.769792 164.745455 
L 205.490306 162.440237 
L 205.539524 162.418182 
L 208.463965 160.090909 
L 211.440918 158.199843 
L 212.116421 157.763636 
L 215.108766 155.436364 
L 217.391531 153.922131 
L 218.582635 153.109091 
L 221.669314 150.781818 
L 223.342143 149.621907 
L 224.967574 148.454545 
L 228.113527 146.127273 
L 229.292755 145.279583 
L 231.265936 143.8 
L 234.43974 141.472727 
L 235.243367 140.878934 
L 237.474778 139.145455 
L 240.649569 136.818182 
L 241.19398 136.408314 
L 243.600924 134.490909 
L 246.750761 132.163636 
L 247.144592 131.864137 
L 249.652455 129.836364 
L 252.752071 127.509091 
L 253.095204 127.247624 
L 255.635703 125.181818 
L 258.65996 122.854545 
L 259.045816 122.561902 
L 261.555558 120.527273 
L 264.480101 118.2 
L 264.996429 117.811887 
L 267.415608 115.872727 
L 270.220957 113.545455 
L 270.947041 113.004886 
L 273.217495 111.218182 
L 275.896661 108.890909 
L 276.897653 108.149992 
L 278.95999 106.563636 
L 281.526405 104.236364 
L 282.848265 103.255191 
L 284.63729 101.909091 
L 287.125993 99.581818 
L 288.798878 98.319493 
L 290.232466 97.254545 
L 292.688746 94.927273 
L 294.74949 93.311781 
L 295.714685 92.6 
L 298.23168 90.272727 
L 300.700102 88.235932 
L 301.091383 87.945455 
L 303.750402 85.618182 
L 306.378291 83.290909 
L 306.650714 83.079996 
L 309.225272 80.963636 
L 311.672598 78.636364 
L 312.601327 77.912567 
L 314.631366 76.309091 
L 317.004295 73.981818 
L 318.551939 72.731388 
L 319.934692 71.654545 
L 322.340923 69.327273 
L 324.502551 67.45557 
L 325.085573 67 
L 327.664803 64.672727 
L 330.135433 62.345455 
L 330.453163 62.091249 
L 332.937912 60.018182 
L 335.259843 57.690909 
L 336.403776 56.745344 
L 338.116385 55.363636 
L 340.460334 53.036364 
L 342.354388 51.365372 
L 343.164971 50.709091 
L 345.660911 48.381818 
L 348.065593 46.054545 
L 348.305 45.857619 
L 348.305 43.727273 
L 348.305 41.4 
L 348.305 41.092786 
L 348.047446 41.4 
L 345.537726 43.727273 
L 342.910298 46.054545 
L 342.354388 46.65094 
L 340.702313 48.381818 
L 337.853693 50.709091 
L 336.403776 52.194532 
L 335.667545 53.036364 
L 332.901007 55.363636 
L 330.453163 57.667989 
L 330.433698 57.690909 
L 327.993431 60.018182 
L 325.219793 62.345455 
L 324.502551 63.092948 
L 323.007844 64.672727 
L 320.077268 67 
L 318.551939 68.520949 
L 317.835311 69.327273 
L 314.981211 71.654545 
L 312.601327 73.834931 
L 312.473128 73.981818 
L 309.894133 76.309091 
L 307.089769 78.636364 
L 306.650714 79.077707 
L 304.755884 80.963636 
L 301.74995 83.290909 
L 300.700102 84.327288 
L 299.492762 85.618182 
L 296.44683 87.945455 
L 294.74949 89.539074 
L 294.08693 90.272727 
L 291.162906 92.6 
L 288.798878 94.672994 
L 288.566725 94.927273 
L 285.84337 97.254545 
L 282.973471 99.581818 
L 282.848265 99.700403 
L 280.44935 101.909091 
L 277.389881 104.236364 
L 276.897653 104.699892 
L 274.965397 106.563636 
L 271.787344 108.890909 
L 270.947041 109.666092 
L 269.384981 111.218182 
L 266.157298 113.545455 
L 264.996429 114.584439 
L 263.71563 115.872727 
L 260.485316 118.2 
L 259.045816 119.445534 
L 257.968054 120.527273 
L 254.755262 122.854545 
L 253.095204 124.244915 
L 252.150315 125.181818 
L 248.952517 127.509091 
L 247.144592 128.981144 
L 246.266439 129.836364 
L 243.065581 132.163636 
L 241.19398 133.653864 
L 240.316389 134.490909 
L 237.086262 136.818182 
L 235.243367 138.262671 
L 234.296474 139.145455 
L 231.009474 141.472727 
L 229.292755 142.807054 
L 228.199678 143.8 
L 224.833839 146.127273 
L 223.342143 147.28653 
L 222.014958 148.454545 
L 218.561569 150.781818 
L 217.391531 151.698674 
L 215.723574 153.109091 
L 212.19626 155.436364 
L 211.440918 156.036214 
L 209.292492 157.763636 
L 205.75143 160.090909 
L 205.490306 160.297932 
L 202.680846 162.418182 
L 199.539694 164.520914 
L 199.262546 164.745455 
L 195.886562 167.072727 
L 193.589082 168.669462 
L 192.682711 169.4 
L 188.992257 171.727273 
L 187.638469 172.737494 
L 185.903861 174.054545 
L 182.111709 176.381818 
L 181.687857 176.700822 
L 178.725171 178.709091 
L 175.737245 180.620584 
L 175.142337 181.036364 
L 171.250557 183.363636 
L 169.786633 184.421369 
L 168.002942 185.690909 
L 164.075223 188.018182 
L 163.83602 188.158301 
L 160.217334 190.345455 
L 157.885408 191.867282 
L 156.620227 192.672727 
L 152.533519 195 
L 151.934796 195.328052 
L 148.589882 197.327273 
L 145.984184 198.949115 
L 144.742638 199.654545 
L 140.630208 201.981818 
L 140.033571 202.219111 
L 136.187282 204.309091 
L 134.082959 205.635474 
L 132.21865 206.636364 
L 128.132347 208.840061 
L 127.91758 208.963636 
L 123.525191 211.290909 
L 122.181735 211.891727 
L 118.734595 213.618182 
L 116.231122 214.95042 
L 114.218669 215.945455 
L 110.28051 217.841797 
L 109.413448 218.272727 
L 104.608224 220.6 
L 104.329898 220.693172 
L 99.451903 222.927273 
L 98.379286 223.40949 
L 94.177501 225.254545 
L 92.428673 225.986553 
L 88.567485 227.581818 
L 86.478061 228.42922 
L 82.632743 229.909091 
L 80.527449 230.739321 
L 76.369265 232.236364 
L 74.576837 232.901683 
L 69.5977 234.563636 
L 68.626224 234.88573 
L 62.675612 236.605692 
L 61.428105 236.890909 
L 56.725 237.995739 
L 56.725 238.876499 
z
" clip-path="url(#p11623e5f2f)" style="fill: #a2d99c; stroke: #a2d99c"/>
   </g>
   <g id="PathCollection_4">
    <path d="M 58.523024 243.872727 
L 62.675612 242.942624 
L 68.33215 241.545455 
L 68.626224 241.462856 
L 74.576837 239.546917 
L 75.545803 239.218182 
L 80.527449 237.321734 
L 81.639739 236.890909 
L 86.478061 234.876103 
L 87.242301 234.563636 
L 92.428673 232.260369 
L 92.478893 232.236364 
L 97.590522 229.909091 
L 98.379286 229.56855 
L 102.640945 227.581818 
L 104.329898 226.810041 
L 107.710692 225.254545 
L 110.28051 224.062048 
L 112.825257 222.927273 
L 116.231122 221.277764 
L 117.667179 220.6 
L 122.181735 218.277886 
L 122.192956 218.272727 
L 127.01561 215.945455 
L 128.132347 215.399111 
L 131.873967 213.618182 
L 134.082959 212.515744 
L 136.622696 211.290909 
L 140.033571 209.438751 
L 141.048118 208.963636 
L 145.394891 206.636364 
L 145.984184 206.343212 
L 150.152563 204.309091 
L 151.934796 203.35818 
L 154.718869 201.981818 
L 157.885408 200.13473 
L 158.847091 199.654545 
L 163.019679 197.327273 
L 163.83602 196.897867 
L 167.630061 195 
L 169.786633 193.756103 
L 171.89013 192.672727 
L 175.591041 190.345455 
L 175.737245 190.26767 
L 179.996 188.018182 
L 181.687857 187.030902 
L 184.296021 185.690909 
L 187.638469 183.557742 
L 188.016055 183.363636 
L 192.051696 181.036364 
L 193.589082 180.106989 
L 196.23753 178.709091 
L 199.539694 176.584723 
L 199.936534 176.381818 
L 203.806559 174.054545 
L 205.490306 173.006963 
L 207.860755 171.727273 
L 211.393381 169.4 
L 211.440918 169.37075 
L 215.265181 167.072727 
L 217.391531 165.728941 
L 219.19924 164.745455 
L 222.668903 162.418182 
L 223.342143 161.978408 
L 226.440263 160.090909 
L 229.292755 158.233317 
L 230.164103 157.763636 
L 233.674645 155.436364 
L 235.243367 154.384215 
L 237.357453 153.109091 
L 240.821378 150.781818 
L 241.19398 150.527162 
L 244.402132 148.454545 
L 247.144592 146.592993 
L 247.951146 146.127273 
L 251.411214 143.8 
L 253.095204 142.602943 
L 254.867786 141.472727 
L 258.301869 139.145455 
L 259.045816 138.602921 
L 261.698328 136.818182 
L 264.996429 134.532069 
L 265.06604 134.490909 
L 268.496991 132.163636 
L 270.947041 130.388111 
L 271.80845 129.836364 
L 275.209685 127.509091 
L 276.897653 126.219216 
L 278.417592 125.181818 
L 281.80345 122.854545 
L 282.848265 122.028446 
L 284.967376 120.527273 
L 288.28675 118.2 
L 288.798878 117.791022 
L 291.459202 115.872727 
L 294.653397 113.545455 
L 294.74949 113.468883 
L 297.875992 111.218182 
L 300.700102 109.091857 
L 300.995026 108.890909 
L 304.229372 106.563636 
L 306.650714 104.680753 
L 307.280699 104.236364 
L 310.515924 101.909091 
L 312.601327 100.238822 
L 313.508147 99.581818 
L 316.738598 97.254545 
L 318.551939 95.766408 
L 319.679558 94.927273 
L 322.871974 92.6 
L 324.502551 91.227177 
L 325.765493 90.272727 
L 328.929467 87.945455 
L 330.453163 86.64572 
L 331.799225 85.618182 
L 334.938212 83.290909 
L 336.403776 82.032407 
L 337.793332 80.963636 
L 340.907712 78.636364 
L 342.354388 77.390374 
L 343.740398 76.309091 
L 346.804357 73.981818 
L 348.305 72.678942 
L 348.305 71.654545 
L 348.305 69.327273 
L 348.305 68.751057 
L 347.518359 69.327273 
L 344.745431 71.654545 
L 342.354388 73.590904 
L 341.820304 73.981818 
L 338.934049 76.309091 
L 336.403776 78.35789 
L 336.024482 78.636364 
L 333.075989 80.963636 
L 330.453163 83.093012 
L 330.18377 83.290909 
L 327.186694 85.618182 
L 324.502551 87.789867 
L 324.289846 87.945455 
L 321.257699 90.272727 
L 318.551939 92.433687 
L 318.32146 92.6 
L 315.266454 94.927273 
L 312.601327 96.993167 
L 312.234561 97.254545 
L 309.217461 99.581818 
L 306.650714 101.514201 
L 306.088223 101.909091 
L 303.124071 104.236364 
L 300.700102 106.00082 
L 299.885417 106.563636 
L 296.979089 108.890909 
L 294.74949 110.458718 
L 293.633822 111.218182 
L 290.772429 113.545455 
L 288.798878 114.891473 
L 287.336106 115.872727 
L 284.46955 118.2 
L 282.848265 119.277076 
L 280.979949 120.527273 
L 278.058645 122.854545 
L 276.897653 123.620611 
L 274.587919 125.181818 
L 271.522423 127.509091 
L 270.947041 127.892308 
L 268.141757 129.836364 
L 264.996429 132.058703 
L 264.839517 132.163636 
L 261.608375 134.490909 
L 259.045816 136.199578 
L 258.099282 136.818182 
L 254.952369 139.145455 
L 253.095204 140.353444 
L 251.384226 141.472727 
L 248.141406 143.8 
L 247.144592 144.4493 
L 244.633751 146.127273 
L 241.19398 148.437636 
L 241.167438 148.454545 
L 237.764674 150.781818 
L 235.243367 152.405883 
L 234.120526 153.109091 
L 230.717224 155.436364 
L 229.292755 156.341773 
L 227.063726 157.763636 
L 223.479508 160.090909 
L 223.342143 160.174597 
L 219.907493 162.418182 
L 217.391531 164.006362 
L 216.160526 164.745455 
L 212.563371 167.072727 
L 211.440918 167.747216 
L 208.754749 169.4 
L 205.490306 171.440147 
L 204.992215 171.727273 
L 201.316126 174.054545 
L 199.539694 175.094819 
L 197.304403 176.381818 
L 193.589082 178.68838 
L 193.552316 178.709091 
L 189.708411 181.036364 
L 187.638469 182.201338 
L 185.515425 183.363636 
L 181.733278 185.690909 
L 181.687857 185.714245 
L 177.739703 188.018182 
L 175.737245 189.075887 
L 173.35096 190.345455 
L 169.786633 192.470687 
L 169.404508 192.672727 
L 165.417026 195 
L 163.83602 195.790856 
L 160.915143 197.327273 
L 157.885408 198.947984 
L 156.480333 199.654545 
L 152.508258 201.981818 
L 151.934796 202.265321 
L 148.104287 204.309091 
L 145.984184 205.343677 
L 143.385626 206.636364 
L 140.033571 208.368797 
L 138.798019 208.963636 
L 134.574488 211.290909 
L 134.082959 211.527958 
L 129.894707 213.618182 
L 128.132347 214.457026 
L 125.08997 215.945455 
L 122.181735 217.348265 
L 120.213733 218.272727 
L 116.231122 220.277592 
L 115.547625 220.6 
L 110.755407 222.927273 
L 110.28051 223.139043 
L 105.721626 225.254545 
L 104.329898 225.894876 
L 100.638205 227.581818 
L 98.379286 228.634898 
L 95.427993 229.909091 
L 92.428673 231.272845 
L 90.122675 232.236364 
L 86.478061 233.827927 
L 84.65352 234.563636 
L 80.527449 236.277945 
L 78.913849 236.890909 
L 74.576837 238.540318 
L 72.594777 239.218182 
L 68.626224 240.47848 
L 64.827493 241.545455 
L 62.675612 242.076971 
L 56.725 243.437107 
L 56.725 243.872727 
L 56.725 244.302418 
z
" clip-path="url(#p11623e5f2f)" style="fill: #e5f5e1; stroke: #e5f5e1"/>
    <path d="M 61.428105 236.890909 
L 62.675612 236.605692 
L 68.626224 234.88573 
L 69.5977 234.563636 
L 74.576837 232.901683 
L 76.369265 232.236364 
L 80.527449 230.739321 
L 82.632743 229.909091 
L 86.478061 228.42922 
L 88.567485 227.581818 
L 92.428673 225.986553 
L 94.177501 225.254545 
L 98.379286 223.40949 
L 99.451903 222.927273 
L 104.329898 220.693172 
L 104.608224 220.6 
L 109.413448 218.272727 
L 110.28051 217.841797 
L 114.218669 215.945455 
L 116.231122 214.95042 
L 118.734595 213.618182 
L 122.181735 211.891727 
L 123.525191 211.290909 
L 127.91758 208.963636 
L 128.132347 208.840061 
L 132.21865 206.636364 
L 134.082959 205.635474 
L 136.187282 204.309091 
L 140.033571 202.219111 
L 140.630208 201.981818 
L 144.742638 199.654545 
L 145.984184 198.949115 
L 148.589882 197.327273 
L 151.934796 195.328052 
L 152.533519 195 
L 156.620227 192.672727 
L 157.885408 191.867282 
L 160.217334 190.345455 
L 163.83602 188.158301 
L 164.075223 188.018182 
L 168.002942 185.690909 
L 169.786633 184.421369 
L 171.250557 183.363636 
L 175.142337 181.036364 
L 175.737245 180.620584 
L 178.725171 178.709091 
L 181.687857 176.700822 
L 182.111709 176.381818 
L 185.903861 174.054545 
L 187.638469 172.737494 
L 188.992257 171.727273 
L 192.682711 169.4 
L 193.589082 168.669462 
L 195.886562 167.072727 
L 199.262546 164.745455 
L 199.539694 164.520914 
L 202.680846 162.418182 
L 205.490306 160.297932 
L 205.75143 160.090909 
L 209.292492 157.763636 
L 211.440918 156.036214 
L 212.19626 155.436364 
L 215.723574 153.109091 
L 217.391531 151.698674 
L 218.561569 150.781818 
L 222.014958 148.454545 
L 223.342143 147.28653 
L 224.833839 146.127273 
L 228.199678 143.8 
L 229.292755 142.807054 
L 231.009474 141.472727 
L 234.296474 139.145455 
L 235.243367 138.262671 
L 237.086262 136.818182 
L 240.316389 134.490909 
L 241.19398 133.653864 
L 243.065581 132.163636 
L 246.266439 129.836364 
L 247.144592 128.981144 
L 248.952517 127.509091 
L 252.150315 125.181818 
L 253.095204 124.244915 
L 254.755262 122.854545 
L 257.968054 120.527273 
L 259.045816 119.445534 
L 260.485316 118.2 
L 263.71563 115.872727 
L 264.996429 114.584439 
L 266.157298 113.545455 
L 269.384981 111.218182 
L 270.947041 109.666092 
L 271.787344 108.890909 
L 274.965397 106.563636 
L 276.897653 104.699892 
L 277.389881 104.236364 
L 280.44935 101.909091 
L 282.848265 99.700403 
L 282.973471 99.581818 
L 285.84337 97.254545 
L 288.566725 94.927273 
L 288.798878 94.672994 
L 291.162906 92.6 
L 294.08693 90.272727 
L 294.74949 89.539074 
L 296.44683 87.945455 
L 299.492762 85.618182 
L 300.700102 84.327288 
L 301.74995 83.290909 
L 304.755884 80.963636 
L 306.650714 79.077707 
L 307.089769 78.636364 
L 309.894133 76.309091 
L 312.473128 73.981818 
L 312.601327 73.834931 
L 314.981211 71.654545 
L 317.835311 69.327273 
L 318.551939 68.520949 
L 320.077268 67 
L 323.007844 64.672727 
L 324.502551 63.092948 
L 325.219793 62.345455 
L 327.993431 60.018182 
L 330.433698 57.690909 
L 330.453163 57.667989 
L 332.901007 55.363636 
L 335.667545 53.036364 
L 336.403776 52.194532 
L 337.853693 50.709091 
L 340.702313 48.381818 
L 342.354388 46.65094 
L 342.910298 46.054545 
L 345.537726 43.727273 
L 348.047446 41.4 
L 348.305 41.092786 
L 348.305 39.072727 
L 348.305 36.745455 
L 348.305 36.398268 
L 347.964609 36.745455 
L 345.799749 39.072727 
L 343.319865 41.4 
L 342.354388 42.152287 
L 340.806561 43.727273 
L 338.548531 46.054545 
L 336.403776 47.754046 
L 335.775004 48.381818 
L 333.578138 50.709091 
L 330.894775 53.036364 
L 330.453163 53.375147 
L 328.507129 55.363636 
L 326.150608 57.690909 
L 324.502551 58.945698 
L 323.411717 60.018182 
L 321.174053 62.345455 
L 318.551939 64.42347 
L 318.293324 64.672727 
L 316.029702 67 
L 313.396769 69.327273 
L 312.601327 69.916312 
L 310.812285 71.654545 
L 308.434146 73.981818 
L 306.650714 75.296985 
L 305.590581 76.309091 
L 303.289545 78.636364 
L 300.700102 80.612608 
L 300.328596 80.963636 
L 298.016994 83.290909 
L 295.219527 85.618182 
L 294.74949 85.962031 
L 292.675216 87.945455 
L 290.149454 90.272727 
L 288.798878 91.23681 
L 287.328877 92.6 
L 284.891739 94.927273 
L 282.848265 96.38609 
L 281.91248 97.254545 
L 279.501633 99.581818 
L 276.897653 101.4842 
L 276.432115 101.909091 
L 274.015527 104.236364 
L 270.947041 106.551305 
L 270.933278 106.563636 
L 268.46007 108.890909 
L 265.569772 111.218182 
L 264.996429 111.622688 
L 262.862064 113.545455 
L 260.099778 115.872727 
L 259.045816 116.601256 
L 257.279349 118.2 
L 254.524251 120.527273 
L 253.095204 121.502936 
L 251.614793 122.854545 
L 248.852089 125.181818 
L 247.144592 126.338225 
L 245.839707 127.509091 
L 243.089801 129.836364 
L 241.19398 131.111855 
L 239.995445 132.163636 
L 237.240003 134.490909 
L 235.243367 135.825422 
L 234.087756 136.818182 
L 231.300667 139.145455 
L 229.292755 140.478897 
L 228.115535 141.472727 
L 225.264625 143.8 
L 223.342143 145.070129 
L 222.074819 146.127273 
L 219.118851 148.454545 
L 217.391531 149.592351 
L 215.955762 150.781818 
L 212.843634 153.109091 
L 211.440918 154.032373 
L 209.730972 155.436364 
L 206.415832 157.763636 
L 205.490306 158.374641 
L 203.357894 160.090909 
L 199.831255 162.418182 
L 199.539694 162.613357 
L 196.908071 164.745455 
L 193.589082 166.838064 
L 193.303791 167.072727 
L 190.329706 169.4 
L 187.638469 171.073878 
L 186.731251 171.727273 
L 183.500247 174.054545 
L 181.687857 175.18166 
L 179.964841 176.381818 
L 176.337607 178.709091 
L 175.737245 179.093166 
L 172.956869 181.036364 
L 169.786633 182.964587 
L 169.342038 183.363636 
L 165.879317 185.690909 
L 163.83602 186.905074 
L 162.086869 188.018182 
L 158.25116 190.345455 
L 157.885408 190.584146 
L 154.604695 192.672727 
L 151.934796 194.203669 
L 150.831095 195 
L 146.824845 197.327273 
L 145.984184 197.850518 
L 142.809127 199.654545 
L 140.033571 201.210322 
L 138.982605 201.981818 
L 134.671739 204.309091 
L 134.082959 204.680207 
L 130.43932 206.636364 
L 128.132347 207.880488 
L 126.249889 208.963636 
L 122.181735 211.118761 
L 121.93564 211.290909 
L 117.244642 213.618182 
L 116.231122 214.157532 
L 112.615057 215.945455 
L 110.28051 217.069609 
L 107.859753 218.272727 
L 104.329898 219.951552 
L 102.889591 220.6 
L 98.379286 222.661511 
L 97.678512 222.927273 
L 92.476884 225.254545 
L 92.428673 225.274725 
L 86.844571 227.581818 
L 86.478061 227.730463 
L 80.81708 229.909091 
L 80.527449 230.023308 
L 74.576837 232.15099 
L 74.345148 232.236364 
L 68.626224 234.128333 
L 66.908894 234.563636 
L 62.675612 235.748497 
L 57.678829 236.890909 
L 56.725 237.114978 
L 56.725 237.995739 
z
" clip-path="url(#p11623e5f2f)" style="fill: #e5f5e1; stroke: #e5f5e1"/>
   </g>
   <g id="matplotlib.axis_1">
    <g id="xtick_1">
     <g id="line2d_1">
      <path d="M 56.725 246.2 
L 56.725 15.8 
" clip-path="url(#p11623e5f2f)" style="fill: none; stroke: #b0b0b0; stroke-width: 0.8; stroke-linecap: square"/>
     </g>
     <g id="line2d_2">
      <defs>
       <path id="me39d99ca14" d="M 0 0 
L 0 3.5 
" style="stroke: #000000; stroke-width: 0.8"/>
      </defs>
      <g>
       <use xlink:href="#me39d99ca14" x="56.725" y="246.2" style="stroke: #000000; stroke-width: 0.8"/>
      </g>
     </g>
     <g id="text_1">
      <!-- 0.0 -->
      <g transform="translate(48.773438 260.798437)scale(0.1 -0.1)">
       <defs>
        <path id="DejaVuSans-30" d="M 2034 4250 
Q 1547 4250 1301 3770 
Q 1056 3291 1056 2328 
Q 1056 1369 1301 889 
Q 1547 409 2034 409 
Q 2525 409 2770 889 
Q 3016 1369 3016 2328 
Q 3016 3291 2770 3770 
Q 2525 4250 2034 4250 
z
M 2034 4750 
Q 2819 4750 3233 4129 
Q 3647 3509 3647 2328 
Q 3647 1150 3233 529 
Q 2819 -91 2034 -91 
Q 1250 -91 836 529 
Q 422 1150 422 2328 
Q 422 3509 836 4129 
Q 1250 4750 2034 4750 
z
" transform="scale(0.015625)"/>
        <path id="DejaVuSans-2e" d="M 684 794 
L 1344 794 
L 1344 0 
L 684 0 
L 684 794 
z
" transform="scale(0.015625)"/>
       </defs>
       <use xlink:href="#DejaVuSans-30"/>
       <use xlink:href="#DejaVuSans-2e" x="63.623047"/>
       <use xlink:href="#DejaVuSans-30" x="95.410156"/>
      </g>
     </g>
    </g>
    <g id="xtick_2">
     <g id="line2d_3">
      <path d="M 116.231122 246.2 
L 116.231122 15.8 
" clip-path="url(#p11623e5f2f)" style="fill: none; stroke: #b0b0b0; stroke-width: 0.8; stroke-linecap: square"/>
     </g>
     <g id="line2d_4">
      <g>
       <use xlink:href="#me39d99ca14" x="116.231122" y="246.2" style="stroke: #000000; stroke-width: 0.8"/>
      </g>
     </g>
     <g id="text_2">
      <!-- 0.5 -->
      <g transform="translate(108.27956 260.798437)scale(0.1 -0.1)">
       <defs>
        <path id="DejaVuSans-35" d="M 691 4666 
L 3169 4666 
L 3169 4134 
L 1269 4134 
L 1269 2991 
Q 1406 3038 1543 3061 
Q 1681 3084 1819 3084 
Q 2600 3084 3056 2656 
Q 3513 2228 3513 1497 
Q 3513 744 3044 326 
Q 2575 -91 1722 -91 
Q 1428 -91 1123 -41 
Q 819 9 494 109 
L 494 744 
Q 775 591 1075 516 
Q 1375 441 1709 441 
Q 2250 441 2565 725 
Q 2881 1009 2881 1497 
Q 2881 1984 2565 2268 
Q 2250 2553 1709 2553 
Q 1456 2553 1204 2497 
Q 953 2441 691 2322 
L 691 4666 
z
" transform="scale(0.015625)"/>
       </defs>
       <use xlink:href="#DejaVuSans-30"/>
       <use xlink:href="#DejaVuSans-2e" x="63.623047"/>
       <use xlink:href="#DejaVuSans-35" x="95.410156"/>
      </g>
     </g>
    </g>
    <g id="xtick_3">
     <g id="line2d_5">
      <path d="M 175.737245 246.2 
L 175.737245 15.8 
" clip-path="url(#p11623e5f2f)" style="fill: none; stroke: #b0b0b0; stroke-width: 0.8; stroke-linecap: square"/>
     </g>
     <g id="line2d_6">
      <g>
       <use xlink:href="#me39d99ca14" x="175.737245" y="246.2" style="stroke: #000000; stroke-width: 0.8"/>
      </g>
     </g>
     <g id="text_3">
      <!-- 1.0 -->
      <g transform="translate(167.785682 260.798437)scale(0.1 -0.1)">
       <defs>
        <path id="DejaVuSans-31" d="M 794 531 
L 1825 531 
L 1825 4091 
L 703 3866 
L 703 4441 
L 1819 4666 
L 2450 4666 
L 2450 531 
L 3481 531 
L 3481 0 
L 794 0 
L 794 531 
z
" transform="scale(0.015625)"/>
       </defs>
       <use xlink:href="#DejaVuSans-31"/>
       <use xlink:href="#DejaVuSans-2e" x="63.623047"/>
       <use xlink:href="#DejaVuSans-30" x="95.410156"/>
      </g>
     </g>
    </g>
    <g id="xtick_4">
     <g id="line2d_7">
      <path d="M 235.243367 246.2 
L 235.243367 15.8 
" clip-path="url(#p11623e5f2f)" style="fill: none; stroke: #b0b0b0; stroke-width: 0.8; stroke-linecap: square"/>
     </g>
     <g id="line2d_8">
      <g>
       <use xlink:href="#me39d99ca14" x="235.243367" y="246.2" style="stroke: #000000; stroke-width: 0.8"/>
      </g>
     </g>
     <g id="text_4">
      <!-- 1.5 -->
      <g transform="translate(227.291805 260.798437)scale(0.1 -0.1)">
       <use xlink:href="#DejaVuSans-31"/>
       <use xlink:href="#DejaVuSans-2e" x="63.623047"/>
       <use xlink:href="#DejaVuSans-35" x="95.410156"/>
      </g>
     </g>
    </g>
    <g id="xtick_5">
     <g id="line2d_9">
      <path d="M 294.74949 246.2 
L 294.74949 15.8 
" clip-path="url(#p11623e5f2f)" style="fill: none; stroke: #b0b0b0; stroke-width: 0.8; stroke-linecap: square"/>
     </g>
     <g id="line2d_10">
      <g>
       <use xlink:href="#me39d99ca14" x="294.74949" y="246.2" style="stroke: #000000; stroke-width: 0.8"/>
      </g>
     </g>
     <g id="text_5">
      <!-- 2.0 -->
      <g transform="translate(286.797927 260.798437)scale(0.1 -0.1)">
       <defs>
        <path id="DejaVuSans-32" d="M 1228 531 
L 3431 531 
L 3431 0 
L 469 0 
L 469 531 
Q 828 903 1448 1529 
Q 2069 2156 2228 2338 
Q 2531 2678 2651 2914 
Q 2772 3150 2772 3378 
Q 2772 3750 2511 3984 
Q 2250 4219 1831 4219 
Q 1534 4219 1204 4116 
Q 875 4013 500 3803 
L 500 4441 
Q 881 4594 1212 4672 
Q 1544 4750 1819 4750 
Q 2544 4750 2975 4387 
Q 3406 4025 3406 3419 
Q 3406 3131 3298 2873 
Q 3191 2616 2906 2266 
Q 2828 2175 2409 1742 
Q 1991 1309 1228 531 
z
" transform="scale(0.015625)"/>
       </defs>
       <use xlink:href="#DejaVuSans-32"/>
       <use xlink:href="#DejaVuSans-2e" x="63.623047"/>
       <use xlink:href="#DejaVuSans-30" x="95.410156"/>
      </g>
     </g>
    </g>
    <g id="text_6">
     <!-- $z$ -->
     <g transform="translate(199.865 274.476562)scale(0.1 -0.1)">
      <defs>
       <path id="DejaVuSans-Oblique-7a" d="M 744 3500 
L 3475 3500 
L 3372 2975 
L 738 459 
L 2913 459 
L 2822 0 
L -19 0 
L 84 525 
L 2719 3041 
L 653 3041 
L 744 3500 
z
" transform="scale(0.015625)"/>
      </defs>
      <use xlink:href="#DejaVuSans-Oblique-7a" transform="translate(0 0.3125)"/>
     </g>
    </g>
   </g>
   <g id="matplotlib.axis_2">
    <g id="ytick_1">
     <g id="line2d_11">
      <path d="M 56.725 232.671351 
L 348.305 232.671351 
" clip-path="url(#p11623e5f2f)" style="fill: none; stroke: #b0b0b0; stroke-width: 0.8; stroke-linecap: square"/>
     </g>
     <g id="line2d_12">
      <defs>
       <path id="m06fecf62aa" d="M 0 0 
L -3.5 0 
" style="stroke: #000000; stroke-width: 0.8"/>
      </defs>
      <g>
       <use xlink:href="#m06fecf62aa" x="56.725" y="232.671351" style="stroke: #000000; stroke-width: 0.8"/>
      </g>
     </g>
     <g id="text_7">
      <!-- 75 -->
      <g transform="translate(37 236.47057)scale(0.1 -0.1)">
       <defs>
        <path id="DejaVuSans-37" d="M 525 4666 
L 3525 4666 
L 3525 4397 
L 1831 0 
L 1172 0 
L 2766 4134 
L 525 4134 
L 525 4666 
z
" transform="scale(0.015625)"/>
       </defs>
       <use xlink:href="#DejaVuSans-37"/>
       <use xlink:href="#DejaVuSans-35" x="63.623047"/>
      </g>
     </g>
    </g>
    <g id="ytick_2">
     <g id="line2d_13">
      <path d="M 56.725 206.370533 
L 348.305 206.370533 
" clip-path="url(#p11623e5f2f)" style="fill: none; stroke: #b0b0b0; stroke-width: 0.8; stroke-linecap: square"/>
     </g>
     <g id="line2d_14">
      <g>
       <use xlink:href="#m06fecf62aa" x="56.725" y="206.370533" style="stroke: #000000; stroke-width: 0.8"/>
      </g>
     </g>
     <g id="text_8">
      <!-- 100 -->
      <g transform="translate(30.6375 210.169752)scale(0.1 -0.1)">
       <use xlink:href="#DejaVuSans-31"/>
       <use xlink:href="#DejaVuSans-30" x="63.623047"/>
       <use xlink:href="#DejaVuSans-30" x="127.246094"/>
      </g>
     </g>
    </g>
    <g id="ytick_3">
     <g id="line2d_15">
      <path d="M 56.725 180.069715 
L 348.305 180.069715 
" clip-path="url(#p11623e5f2f)" style="fill: none; stroke: #b0b0b0; stroke-width: 0.8; stroke-linecap: square"/>
     </g>
     <g id="line2d_16">
      <g>
       <use xlink:href="#m06fecf62aa" x="56.725" y="180.069715" style="stroke: #000000; stroke-width: 0.8"/>
      </g>
     </g>
     <g id="text_9">
      <!-- 125 -->
      <g transform="translate(30.6375 183.868933)scale(0.1 -0.1)">
       <use xlink:href="#DejaVuSans-31"/>
       <use xlink:href="#DejaVuSans-32" x="63.623047"/>
       <use xlink:href="#DejaVuSans-35" x="127.246094"/>
      </g>
     </g>
    </g>
    <g id="ytick_4">
     <g id="line2d_17">
      <path d="M 56.725 153.768896 
L 348.305 153.768896 
" clip-path="url(#p11623e5f2f)" style="fill: none; stroke: #b0b0b0; stroke-width: 0.8; stroke-linecap: square"/>
     </g>
     <g id="line2d_18">
      <g>
       <use xlink:href="#m06fecf62aa" x="56.725" y="153.768896" style="stroke: #000000; stroke-width: 0.8"/>
      </g>
     </g>
     <g id="text_10">
      <!-- 150 -->
      <g transform="translate(30.6375 157.568115)scale(0.1 -0.1)">
       <use xlink:href="#DejaVuSans-31"/>
       <use xlink:href="#DejaVuSans-35" x="63.623047"/>
       <use xlink:href="#DejaVuSans-30" x="127.246094"/>
      </g>
     </g>
    </g>
    <g id="ytick_5">
     <g id="line2d_19">
      <path d="M 56.725 127.468078 
L 348.305 127.468078 
" clip-path="url(#p11623e5f2f)" style="fill: none; stroke: #b0b0b0; stroke-width: 0.8; stroke-linecap: square"/>
     </g>
     <g id="line2d_20">
      <g>
       <use xlink:href="#m06fecf62aa" x="56.725" y="127.468078" style="stroke: #000000; stroke-width: 0.8"/>
      </g>
     </g>
     <g id="text_11">
      <!-- 175 -->
      <g transform="translate(30.6375 131.267297)scale(0.1 -0.1)">
       <use xlink:href="#DejaVuSans-31"/>
       <use xlink:href="#DejaVuSans-37" x="63.623047"/>
       <use xlink:href="#DejaVuSans-35" x="127.246094"/>
      </g>
     </g>
    </g>
    <g id="ytick_6">
     <g id="line2d_21">
      <path d="M 56.725 101.16726 
L 348.305 101.16726 
" clip-path="url(#p11623e5f2f)" style="fill: none; stroke: #b0b0b0; stroke-width: 0.8; stroke-linecap: square"/>
     </g>
     <g id="line2d_22">
      <g>
       <use xlink:href="#m06fecf62aa" x="56.725" y="101.16726" style="stroke: #000000; stroke-width: 0.8"/>
      </g>
     </g>
     <g id="text_12">
      <!-- 200 -->
      <g transform="translate(30.6375 104.966478)scale(0.1 -0.1)">
       <use xlink:href="#DejaVuSans-32"/>
       <use xlink:href="#DejaVuSans-30" x="63.623047"/>
       <use xlink:href="#DejaVuSans-30" x="127.246094"/>
      </g>
     </g>
    </g>
    <g id="ytick_7">
     <g id="line2d_23">
      <path d="M 56.725 74.866441 
L 348.305 74.866441 
" clip-path="url(#p11623e5f2f)" style="fill: none; stroke: #b0b0b0; stroke-width: 0.8; stroke-linecap: square"/>
     </g>
     <g id="line2d_24">
      <g>
       <use xlink:href="#m06fecf62aa" x="56.725" y="74.866441" style="stroke: #000000; stroke-width: 0.8"/>
      </g>
     </g>
     <g id="text_13">
      <!-- 225 -->
      <g transform="translate(30.6375 78.66566)scale(0.1 -0.1)">
       <use xlink:href="#DejaVuSans-32"/>
       <use xlink:href="#DejaVuSans-32" x="63.623047"/>
       <use xlink:href="#DejaVuSans-35" x="127.246094"/>
      </g>
     </g>
    </g>
    <g id="ytick_8">
     <g id="line2d_25">
      <path d="M 56.725 48.565623 
L 348.305 48.565623 
" clip-path="url(#p11623e5f2f)" style="fill: none; stroke: #b0b0b0; stroke-width: 0.8; stroke-linecap: square"/>
     </g>
     <g id="line2d_26">
      <g>
       <use xlink:href="#m06fecf62aa" x="56.725" y="48.565623" style="stroke: #000000; stroke-width: 0.8"/>
      </g>
     </g>
     <g id="text_14">
      <!-- 250 -->
      <g transform="translate(30.6375 52.364842)scale(0.1 -0.1)">
       <use xlink:href="#DejaVuSans-32"/>
       <use xlink:href="#DejaVuSans-35" x="63.623047"/>
       <use xlink:href="#DejaVuSans-30" x="127.246094"/>
      </g>
     </g>
    </g>
    <g id="ytick_9">
     <g id="line2d_27">
      <path d="M 56.725 22.264805 
L 348.305 22.264805 
" clip-path="url(#p11623e5f2f)" style="fill: none; stroke: #b0b0b0; stroke-width: 0.8; stroke-linecap: square"/>
     </g>
     <g id="line2d_28">
      <g>
       <use xlink:href="#m06fecf62aa" x="56.725" y="22.264805" style="stroke: #000000; stroke-width: 0.8"/>
      </g>
     </g>
     <g id="text_15">
      <!-- 275 -->
      <g transform="translate(30.6375 26.064024)scale(0.1 -0.1)">
       <use xlink:href="#DejaVuSans-32"/>
       <use xlink:href="#DejaVuSans-37" x="63.623047"/>
       <use xlink:href="#DejaVuSans-35" x="127.246094"/>
      </g>
     </g>
    </g>
    <g id="text_16">
     <!-- $H(z)[km\;s^{-1}Mpc^{-1}]$ -->
     <g transform="translate(24.5375 178.25)rotate(-90)scale(0.1 -0.1)">
      <defs>
       <path id="DejaVuSans-Oblique-48" d="M 1081 4666 
L 1716 4666 
L 1344 2753 
L 3634 2753 
L 4006 4666 
L 4641 4666 
L 3731 0 
L 3097 0 
L 3531 2222 
L 1241 2222 
L 806 0 
L 172 0 
L 1081 4666 
z
" transform="scale(0.015625)"/>
       <path id="DejaVuSans-28" d="M 1984 4856 
Q 1566 4138 1362 3434 
Q 1159 2731 1159 2009 
Q 1159 1288 1364 580 
Q 1569 -128 1984 -844 
L 1484 -844 
Q 1016 -109 783 600 
Q 550 1309 550 2009 
Q 550 2706 781 3412 
Q 1013 4119 1484 4856 
L 1984 4856 
z
" transform="scale(0.015625)"/>
       <path id="DejaVuSans-29" d="M 513 4856 
L 1013 4856 
Q 1481 4119 1714 3412 
Q 1947 2706 1947 2009 
Q 1947 1309 1714 600 
Q 1481 -109 1013 -844 
L 513 -844 
Q 928 -128 1133 580 
Q 1338 1288 1338 2009 
Q 1338 2731 1133 3434 
Q 928 4138 513 4856 
z
" transform="scale(0.015625)"/>
       <path id="DejaVuSans-5b" d="M 550 4863 
L 1875 4863 
L 1875 4416 
L 1125 4416 
L 1125 -397 
L 1875 -397 
L 1875 -844 
L 550 -844 
L 550 4863 
z
" transform="scale(0.015625)"/>
       <path id="DejaVuSans-Oblique-6b" d="M 1172 4863 
L 1747 4863 
L 1197 2028 
L 3169 3500 
L 3916 3500 
L 1716 1825 
L 3322 0 
L 2625 0 
L 1131 1709 
L 800 0 
L 225 0 
L 1172 4863 
z
" transform="scale(0.015625)"/>
       <path id="DejaVuSans-Oblique-6d" d="M 5747 2113 
L 5338 0 
L 4763 0 
L 5166 2094 
Q 5191 2228 5203 2325 
Q 5216 2422 5216 2491 
Q 5216 2772 5059 2928 
Q 4903 3084 4622 3084 
Q 4203 3084 3875 2770 
Q 3547 2456 3450 1953 
L 3066 0 
L 2491 0 
L 2900 2094 
Q 2925 2209 2937 2307 
Q 2950 2406 2950 2484 
Q 2950 2769 2794 2926 
Q 2638 3084 2363 3084 
Q 1938 3084 1609 2770 
Q 1281 2456 1184 1953 
L 800 0 
L 225 0 
L 909 3500 
L 1484 3500 
L 1375 2956 
Q 1609 3263 1923 3423 
Q 2238 3584 2597 3584 
Q 2978 3584 3223 3384 
Q 3469 3184 3519 2828 
Q 3781 3197 4126 3390 
Q 4472 3584 4856 3584 
Q 5306 3584 5551 3325 
Q 5797 3066 5797 2591 
Q 5797 2488 5784 2364 
Q 5772 2241 5747 2113 
z
" transform="scale(0.015625)"/>
       <path id="DejaVuSans-Oblique-73" d="M 3200 3397 
L 3091 2853 
Q 2863 2978 2609 3040 
Q 2356 3103 2088 3103 
Q 1634 3103 1373 2948 
Q 1113 2794 1113 2528 
Q 1113 2219 1719 2053 
Q 1766 2041 1788 2034 
L 1972 1978 
Q 2547 1819 2739 1644 
Q 2931 1469 2931 1166 
Q 2931 609 2489 259 
Q 2047 -91 1331 -91 
Q 1053 -91 747 -37 
Q 441 16 72 128 
L 184 722 
Q 500 559 806 475 
Q 1113 391 1394 391 
Q 1816 391 2080 572 
Q 2344 753 2344 1031 
Q 2344 1331 1650 1516 
L 1591 1531 
L 1394 1581 
Q 956 1697 753 1886 
Q 550 2075 550 2369 
Q 550 2928 970 3256 
Q 1391 3584 2113 3584 
Q 2397 3584 2667 3537 
Q 2938 3491 3200 3397 
z
" transform="scale(0.015625)"/>
       <path id="DejaVuSans-2212" d="M 678 2272 
L 4684 2272 
L 4684 1741 
L 678 1741 
L 678 2272 
z
" transform="scale(0.015625)"/>
       <path id="DejaVuSans-Oblique-4d" d="M 1081 4666 
L 2028 4666 
L 2572 1522 
L 4378 4666 
L 5350 4666 
L 4441 0 
L 3828 0 
L 4622 4091 
L 2791 897 
L 2175 897 
L 1581 4103 
L 788 0 
L 172 0 
L 1081 4666 
z
" transform="scale(0.015625)"/>
       <path id="DejaVuSans-Oblique-70" d="M 3175 2156 
Q 3175 2616 2975 2859 
Q 2775 3103 2400 3103 
Q 2144 3103 1911 2972 
Q 1678 2841 1497 2591 
Q 1319 2344 1212 1994 
Q 1106 1644 1106 1300 
Q 1106 863 1306 627 
Q 1506 391 1875 391 
Q 2147 391 2380 519 
Q 2613 647 2778 891 
Q 2956 1147 3065 1494 
Q 3175 1841 3175 2156 
z
M 1394 2969 
Q 1625 3272 1939 3428 
Q 2253 3584 2638 3584 
Q 3175 3584 3472 3232 
Q 3769 2881 3769 2247 
Q 3769 1728 3584 1258 
Q 3400 788 3053 416 
Q 2822 169 2531 39 
Q 2241 -91 1919 -91 
Q 1547 -91 1294 64 
Q 1041 219 916 525 
L 556 -1331 
L -19 -1331 
L 922 3500 
L 1497 3500 
L 1394 2969 
z
" transform="scale(0.015625)"/>
       <path id="DejaVuSans-Oblique-63" d="M 3431 3366 
L 3316 2797 
Q 3109 2947 2876 3022 
Q 2644 3097 2394 3097 
Q 2119 3097 1870 3000 
Q 1622 2903 1453 2725 
Q 1184 2453 1037 2087 
Q 891 1722 891 1331 
Q 891 859 1127 628 
Q 1363 397 1844 397 
Q 2081 397 2348 469 
Q 2616 541 2906 684 
L 2797 116 
Q 2547 13 2283 -39 
Q 2019 -91 1741 -91 
Q 1044 -91 669 257 
Q 294 606 294 1253 
Q 294 1797 489 2255 
Q 684 2713 1069 3078 
Q 1331 3328 1684 3456 
Q 2038 3584 2456 3584 
Q 2700 3584 2940 3529 
Q 3181 3475 3431 3366 
z
" transform="scale(0.015625)"/>
       <path id="DejaVuSans-5d" d="M 1947 4863 
L 1947 -844 
L 622 -844 
L 622 -397 
L 1369 -397 
L 1369 4416 
L 622 4416 
L 622 4863 
L 1947 4863 
z
" transform="scale(0.015625)"/>
      </defs>
      <use xlink:href="#DejaVuSans-Oblique-48" transform="translate(0 0.684375)"/>
      <use xlink:href="#DejaVuSans-28" transform="translate(75.195312 0.684375)"/>
      <use xlink:href="#DejaVuSans-Oblique-7a" transform="translate(114.208984 0.684375)"/>
      <use xlink:href="#DejaVuSans-29" transform="translate(166.699219 0.684375)"/>
      <use xlink:href="#DejaVuSans-5b" transform="translate(205.712891 0.684375)"/>
      <use xlink:href="#DejaVuSans-Oblique-6b" transform="translate(244.726562 0.684375)"/>
      <use xlink:href="#DejaVuSans-Oblique-6d" transform="translate(302.636719 0.684375)"/>
      <use xlink:href="#DejaVuSans-Oblique-73" transform="translate(427.107964 0.684375)"/>
      <use xlink:href="#DejaVuSans-2212" transform="translate(483.857469 38.965625)scale(0.7)"/>
      <use xlink:href="#DejaVuSans-31" transform="translate(542.509813 38.965625)scale(0.7)"/>
      <use xlink:href="#DejaVuSans-Oblique-4d" transform="translate(589.780321 0.684375)"/>
      <use xlink:href="#DejaVuSans-Oblique-70" transform="translate(676.059618 0.684375)"/>
      <use xlink:href="#DejaVuSans-Oblique-63" transform="translate(739.53618 0.684375)"/>
      <use xlink:href="#DejaVuSans-2212" transform="translate(799.166545 38.965625)scale(0.7)"/>
      <use xlink:href="#DejaVuSans-31" transform="translate(857.818888 38.965625)scale(0.7)"/>
      <use xlink:href="#DejaVuSans-5d" transform="translate(905.089396 0.684375)"/>
     </g>
    </g>
   </g>
   <g id="PathCollection_5">
    <path d="M 56.725 238.876499 
L 62.675612 237.570627 
L 64.328782 236.890909 
L 71.809333 234.563636 
L 74.576837 233.639889 
L 86.478061 229.127978 
L 95.878118 225.254545 
L 104.329898 221.453929 
L 106.880776 220.6 
L 110.28051 218.803449 
L 112.086605 218.272727 
L 116.231122 215.743308 
L 122.181735 212.637951 
L 125.193781 211.290909 
L 128.132347 209.733892 
L 130.652435 208.963636 
L 134.082959 206.590741 
L 137.702824 204.309091 
L 140.033571 203.04262 
L 142.700793 201.981818 
L 145.984184 200.08307 
L 147.51819 199.654545 
L 150.354918 197.327273 
L 154.458881 195 
L 157.885408 193.075339 
L 159.290513 192.672727 
L 162.183508 190.345455 
L 169.786633 185.879498 
L 170.478356 185.690909 
L 173.342487 183.363636 
L 175.737245 181.940887 
L 177.490533 181.036364 
L 181.687857 178.319242 
L 184.26206 176.381818 
L 187.638469 174.404969 
L 188.525691 174.054545 
L 191.437937 171.727273 
L 198.615409 167.072727 
L 201.769792 164.745455 
L 205.539524 162.418182 
L 208.463965 160.090909 
L 212.116421 157.763636 
L 215.108766 155.436364 
L 218.582635 153.109091 
L 223.342143 149.621907 
L 231.265936 143.8 
L 241.19398 136.408314 
L 243.600924 134.490909 
L 247.144592 131.864137 
L 249.652455 129.836364 
L 253.095204 127.247624 
L 258.65996 122.854545 
L 261.555558 120.527273 
L 273.217495 111.218182 
L 276.897653 108.149992 
L 278.95999 106.563636 
L 281.526405 104.236364 
L 284.63729 101.909091 
L 287.125993 99.581818 
L 290.232466 97.254545 
L 292.688746 94.927273 
L 295.714685 92.6 
L 298.23168 90.272727 
L 303.750402 85.618182 
L 306.650714 83.079996 
L 309.225272 80.963636 
L 311.672598 78.636364 
L 314.631366 76.309091 
L 317.004295 73.981818 
L 319.934692 71.654545 
L 322.340923 69.327273 
L 327.664803 64.672727 
L 330.453163 62.091249 
L 332.937912 60.018182 
L 335.259843 57.690909 
L 338.116385 55.363636 
L 340.460334 53.036364 
L 345.660911 48.381818 
L 348.305 45.857619 
L 348.305 45.857619 
" clip-path="url(#p11623e5f2f)" style="fill: none; stroke: #000000; stroke-width: 2"/>
    <path d="M 348.305 64.371103 
L 347.98804 64.672727 
L 345.281114 67 
L 342.354388 69.316211 
L 342.34262 69.327273 
L 339.67723 71.654545 
L 336.653533 73.981818 
L 336.403776 74.207091 
L 334.010564 76.309091 
L 330.941057 78.636364 
L 330.453163 79.070319 
L 328.304337 80.963636 
L 325.196859 83.290909 
L 324.502551 83.900697 
L 322.550949 85.618182 
L 319.405661 87.945455 
L 318.551939 88.686132 
L 316.729032 90.272727 
L 313.534386 92.6 
L 312.601327 93.39817 
L 310.832252 94.927273 
L 307.608207 97.254545 
L 306.650714 98.072182 
L 304.884581 99.581818 
L 301.633358 101.909091 
L 300.700102 102.7054 
L 298.879404 104.236364 
L 295.608928 106.563636 
L 294.74949 107.295571 
L 292.808616 108.890909 
L 289.535455 111.218182 
L 288.798878 111.841343 
L 286.649556 113.545455 
L 283.390281 115.872727 
L 282.848265 116.321323 
L 280.384472 118.2 
L 277.190254 120.527273 
L 276.897653 120.761491 
L 274.029235 122.854545 
L 270.947041 125.169183 
L 270.932103 125.181818 
L 267.590657 127.509091 
L 264.996429 129.494231 
L 264.581525 129.836364 
L 261.095438 132.163636 
L 259.045816 133.749322 
L 258.101092 134.490909 
L 254.58513 136.818182 
L 253.095204 137.952965 
L 251.463042 139.145455 
L 248.053823 141.472727 
L 247.144592 142.128993 
L 244.66961 143.8 
L 241.446705 146.127273 
L 241.19398 146.297019 
L 237.807319 148.454545 
L 235.243367 150.347337 
L 234.636295 150.781818 
L 230.976648 153.109091 
L 229.292755 154.291794 
L 227.558072 155.436364 
L 224.116841 157.763636 
L 223.342143 158.266566 
L 220.359089 160.090909 
L 217.391531 162.218806 
L 217.093963 162.418182 
L 213.257256 164.745455 
L 211.440918 165.948574 
L 209.605418 167.072727 
L 206.116117 169.4 
L 205.490306 169.791107 
L 202.131545 171.727273 
L 199.539694 173.495136 
L 198.629887 174.054545 
L 194.771438 176.381818 
L 193.589082 177.115854 
L 190.760779 178.709091 
L 187.638469 180.81657 
L 187.265068 181.036364 
L 183.106491 183.363636 
L 181.687857 184.235937 
L 179.030059 185.690909 
L 175.737245 187.821243 
L 175.38998 188.018182 
L 171.110879 190.345455 
L 169.786633 191.135037 
L 166.878358 192.672727 
L 163.83602 194.553902 
L 163.013147 195 
L 158.810607 197.327273 
L 157.885408 197.822194 
L 154.241577 199.654545 
L 151.934796 201.008597 
L 150.04041 201.981818 
L 146.05601 204.309091 
L 145.984184 204.344141 
L 141.37636 206.636364 
L 140.033571 207.330354 
L 136.64105 208.963636 
L 134.082959 210.381974 
L 132.289084 211.290909 
L 128.132347 213.481848 
L 127.67414 213.618182 
L 123.164331 215.945455 
L 122.181735 216.419418 
L 118.236395 218.272727 
L 116.231122 219.28219 
L 113.437402 220.6 
L 110.28051 222.136069 
L 108.586784 222.927273 
L 104.329898 224.942115 
L 103.320876 225.254545 
L 98.635465 227.581818 
L 98.379286 227.701246 
L 93.265464 229.909091 
L 92.428673 230.289569 
L 87.769391 232.236364 
L 86.478061 232.800273 
L 82.104963 234.563636 
L 80.527449 235.219066 
L 76.126395 236.890909 
L 74.576837 237.480222 
L 69.495079 239.218182 
L 68.626224 239.494105 
L 62.675612 241.097053 
L 61.330995 241.545455 
L 56.725 242.622521 
" clip-path="url(#p11623e5f2f)" style="fill: none; stroke: #000000; stroke-width: 2"/>
   </g>
   <g id="PathCollection_6">
    <path d="M 56.725 237.114978 
L 62.675612 235.748497 
L 68.626224 234.128333 
L 74.576837 232.15099 
L 80.81708 229.909091 
L 86.844571 227.581818 
L 92.476884 225.254545 
L 107.859753 218.272727 
L 122.181735 211.118761 
L 130.43932 206.636364 
L 138.982605 201.981818 
L 140.033571 201.210322 
L 146.824845 197.327273 
L 150.831095 195 
L 151.934796 194.203669 
L 154.604695 192.672727 
L 163.83602 186.905074 
L 165.879317 185.690909 
L 176.337607 178.709091 
L 183.500247 174.054545 
L 187.638469 171.073878 
L 190.329706 169.4 
L 193.589082 166.838064 
L 196.908071 164.745455 
L 199.831255 162.418182 
L 203.357894 160.090909 
L 206.415832 157.763636 
L 209.730972 155.436364 
L 211.440918 154.032373 
L 212.843634 153.109091 
L 222.074819 146.127273 
L 223.342143 145.070129 
L 225.264625 143.8 
L 229.292755 140.478897 
L 231.300667 139.145455 
L 235.243367 135.825422 
L 237.240003 134.490909 
L 241.19398 131.111855 
L 243.089801 129.836364 
L 247.144592 126.338225 
L 248.852089 125.181818 
L 259.045816 116.601256 
L 260.099778 115.872727 
L 268.46007 108.890909 
L 270.947041 106.551305 
L 274.015527 104.236364 
L 276.897653 101.4842 
L 279.501633 99.581818 
L 282.848265 96.38609 
L 284.891739 94.927273 
L 288.798878 91.23681 
L 290.149454 90.272727 
L 295.219527 85.618182 
L 298.016994 83.290909 
L 300.700102 80.612608 
L 303.289545 78.636364 
L 306.650714 75.296985 
L 308.434146 73.981818 
L 312.601327 69.916312 
L 313.396769 69.327273 
L 316.029702 67 
L 318.551939 64.42347 
L 321.174053 62.345455 
L 324.502551 58.945698 
L 326.150608 57.690909 
L 330.894775 53.036364 
L 333.578138 50.709091 
L 336.403776 47.754046 
L 338.548531 46.054545 
L 342.354388 42.152287 
L 343.319865 41.4 
L 345.799749 39.072727 
L 348.305 36.398268 
L 348.305 36.398268 
" clip-path="url(#p11623e5f2f)" style="fill: none; stroke: #000000; stroke-width: 1.5"/>
    <path d="M 348.305 72.678942 
L 346.804357 73.981818 
L 343.740398 76.309091 
L 342.354388 77.390374 
L 340.907712 78.636364 
L 337.793332 80.963636 
L 336.403776 82.032407 
L 334.938212 83.290909 
L 331.799225 85.618182 
L 330.453163 86.64572 
L 328.929467 87.945455 
L 325.765493 90.272727 
L 324.502551 91.227177 
L 322.871974 92.6 
L 319.679558 94.927273 
L 318.551939 95.766408 
L 316.738598 97.254545 
L 313.508147 99.581818 
L 312.601327 100.238822 
L 310.515924 101.909091 
L 307.280699 104.236364 
L 306.650714 104.680753 
L 304.229372 106.563636 
L 300.995026 108.890909 
L 300.700102 109.091857 
L 297.875992 111.218182 
L 294.74949 113.468883 
L 294.653397 113.545455 
L 291.459202 115.872727 
L 288.798878 117.791022 
L 288.28675 118.2 
L 284.967376 120.527273 
L 282.848265 122.028446 
L 281.80345 122.854545 
L 278.417592 125.181818 
L 276.897653 126.219216 
L 275.209685 127.509091 
L 271.80845 129.836364 
L 270.947041 130.388111 
L 268.496991 132.163636 
L 265.06604 134.490909 
L 264.996429 134.532069 
L 261.698328 136.818182 
L 259.045816 138.602921 
L 258.301869 139.145455 
L 254.867786 141.472727 
L 253.095204 142.602943 
L 251.411214 143.8 
L 247.951146 146.127273 
L 247.144592 146.592993 
L 244.402132 148.454545 
L 241.19398 150.527162 
L 240.821378 150.781818 
L 237.357453 153.109091 
L 235.243367 154.384215 
L 233.674645 155.436364 
L 230.164103 157.763636 
L 229.292755 158.233317 
L 226.440263 160.090909 
L 223.342143 161.978408 
L 222.668903 162.418182 
L 219.19924 164.745455 
L 217.391531 165.728941 
L 215.265181 167.072727 
L 211.440918 169.37075 
L 211.393381 169.4 
L 207.860755 171.727273 
L 205.490306 173.006963 
L 203.806559 174.054545 
L 199.936534 176.381818 
L 199.539694 176.584723 
L 196.23753 178.709091 
L 193.589082 180.106989 
L 192.051696 181.036364 
L 188.016055 183.363636 
L 187.638469 183.557742 
L 184.296021 185.690909 
L 181.687857 187.030902 
L 179.996 188.018182 
L 175.737245 190.26767 
L 175.591041 190.345455 
L 171.89013 192.672727 
L 169.786633 193.756103 
L 167.630061 195 
L 163.83602 196.897867 
L 163.019679 197.327273 
L 158.847091 199.654545 
L 157.885408 200.13473 
L 154.718869 201.981818 
L 151.934796 203.35818 
L 150.152563 204.309091 
L 145.984184 206.343212 
L 145.394891 206.636364 
L 141.048118 208.963636 
L 140.033571 209.438751 
L 136.622696 211.290909 
L 134.082959 212.515744 
L 131.873967 213.618182 
L 128.132347 215.399111 
L 127.01561 215.945455 
L 122.192956 218.272727 
L 122.181735 218.277886 
L 117.667179 220.6 
L 116.231122 221.277764 
L 112.825257 222.927273 
L 110.28051 224.062048 
L 107.710692 225.254545 
L 104.329898 226.810041 
L 102.640945 227.581818 
L 98.379286 229.56855 
L 97.590522 229.909091 
L 92.478893 232.236364 
L 92.428673 232.260369 
L 87.242301 234.563636 
L 86.478061 234.876103 
L 81.639739 236.890909 
L 80.527449 237.321734 
L 75.545803 239.218182 
L 74.576837 239.546917 
L 68.626224 241.462856 
L 68.33215 241.545455 
L 62.675612 242.942624 
L 58.523024 243.872727 
L 56.725 244.302418 
" clip-path="url(#p11623e5f2f)" style="fill: none; stroke: #000000; stroke-width: 1.5"/>
   </g>
   <g id="patch_3">
    <path d="M 56.725 246.2 
L 56.725 15.8 
" style="fill: none; stroke: #000000; stroke-width: 0.8; stroke-linejoin: miter; stroke-linecap: square"/>
   </g>
   <g id="patch_4">
    <path d="M 348.305 246.2 
L 348.305 15.8 
" style="fill: none; stroke: #000000; stroke-width: 0.8; stroke-linejoin: miter; stroke-linecap: square"/>
   </g>
   <g id="patch_5">
    <path d="M 56.725 246.2 
L 348.305 246.2 
" style="fill: none; stroke: #000000; stroke-width: 0.8; stroke-linejoin: miter; stroke-linecap: square"/>
   </g>
   <g id="patch_6">
    <path d="M 56.725 15.8 
L 348.305 15.8 
" style="fill: none; stroke: #000000; stroke-width: 0.8; stroke-linejoin: miter; stroke-linecap: square"/>
   </g>
   <g id="text_17">
    <!-- SN+HD+CBAO -->
    <g transform="translate(57.915122 48.565623)scale(0.13 -0.13)">
     <defs>
      <path id="DejaVuSans-53" d="M 3425 4513 
L 3425 3897 
Q 3066 4069 2747 4153 
Q 2428 4238 2131 4238 
Q 1616 4238 1336 4038 
Q 1056 3838 1056 3469 
Q 1056 3159 1242 3001 
Q 1428 2844 1947 2747 
L 2328 2669 
Q 3034 2534 3370 2195 
Q 3706 1856 3706 1288 
Q 3706 609 3251 259 
Q 2797 -91 1919 -91 
Q 1588 -91 1214 -16 
Q 841 59 441 206 
L 441 856 
Q 825 641 1194 531 
Q 1563 422 1919 422 
Q 2459 422 2753 634 
Q 3047 847 3047 1241 
Q 3047 1584 2836 1778 
Q 2625 1972 2144 2069 
L 1759 2144 
Q 1053 2284 737 2584 
Q 422 2884 422 3419 
Q 422 4038 858 4394 
Q 1294 4750 2059 4750 
Q 2388 4750 2728 4690 
Q 3069 4631 3425 4513 
z
" transform="scale(0.015625)"/>
      <path id="DejaVuSans-4e" d="M 628 4666 
L 1478 4666 
L 3547 763 
L 3547 4666 
L 4159 4666 
L 4159 0 
L 3309 0 
L 1241 3903 
L 1241 0 
L 628 0 
L 628 4666 
z
" transform="scale(0.015625)"/>
      <path id="DejaVuSans-2b" d="M 2944 4013 
L 2944 2272 
L 4684 2272 
L 4684 1741 
L 2944 1741 
L 2944 0 
L 2419 0 
L 2419 1741 
L 678 1741 
L 678 2272 
L 2419 2272 
L 2419 4013 
L 2944 4013 
z
" transform="scale(0.015625)"/>
      <path id="DejaVuSans-48" d="M 628 4666 
L 1259 4666 
L 1259 2753 
L 3553 2753 
L 3553 4666 
L 4184 4666 
L 4184 0 
L 3553 0 
L 3553 2222 
L 1259 2222 
L 1259 0 
L 628 0 
L 628 4666 
z
" transform="scale(0.015625)"/>
      <path id="DejaVuSans-44" d="M 1259 4147 
L 1259 519 
L 2022 519 
Q 2988 519 3436 956 
Q 3884 1394 3884 2338 
Q 3884 3275 3436 3711 
Q 2988 4147 2022 4147 
L 1259 4147 
z
M 628 4666 
L 1925 4666 
Q 3281 4666 3915 4102 
Q 4550 3538 4550 2338 
Q 4550 1131 3912 565 
Q 3275 0 1925 0 
L 628 0 
L 628 4666 
z
" transform="scale(0.015625)"/>
      <path id="DejaVuSans-43" d="M 4122 4306 
L 4122 3641 
Q 3803 3938 3442 4084 
Q 3081 4231 2675 4231 
Q 1875 4231 1450 3742 
Q 1025 3253 1025 2328 
Q 1025 1406 1450 917 
Q 1875 428 2675 428 
Q 3081 428 3442 575 
Q 3803 722 4122 1019 
L 4122 359 
Q 3791 134 3420 21 
Q 3050 -91 2638 -91 
Q 1578 -91 968 557 
Q 359 1206 359 2328 
Q 359 3453 968 4101 
Q 1578 4750 2638 4750 
Q 3056 4750 3426 4639 
Q 3797 4528 4122 4306 
z
" transform="scale(0.015625)"/>
      <path id="DejaVuSans-42" d="M 1259 2228 
L 1259 519 
L 2272 519 
Q 2781 519 3026 730 
Q 3272 941 3272 1375 
Q 3272 1813 3026 2020 
Q 2781 2228 2272 2228 
L 1259 2228 
z
M 1259 4147 
L 1259 2741 
L 2194 2741 
Q 2656 2741 2882 2914 
Q 3109 3088 3109 3444 
Q 3109 3797 2882 3972 
Q 2656 4147 2194 4147 
L 1259 4147 
z
M 628 4666 
L 2241 4666 
Q 2963 4666 3353 4366 
Q 3744 4066 3744 3513 
Q 3744 3084 3544 2831 
Q 3344 2578 2956 2516 
Q 3422 2416 3680 2098 
Q 3938 1781 3938 1306 
Q 3938 681 3513 340 
Q 3088 0 2303 0 
L 628 0 
L 628 4666 
z
" transform="scale(0.015625)"/>
      <path id="DejaVuSans-41" d="M 2188 4044 
L 1331 1722 
L 3047 1722 
L 2188 4044 
z
M 1831 4666 
L 2547 4666 
L 4325 0 
L 3669 0 
L 3244 1197 
L 1141 1197 
L 716 0 
L 50 0 
L 1831 4666 
z
" transform="scale(0.015625)"/>
      <path id="DejaVuSans-4f" d="M 2522 4238 
Q 1834 4238 1429 3725 
Q 1025 3213 1025 2328 
Q 1025 1447 1429 934 
Q 1834 422 2522 422 
Q 3209 422 3611 934 
Q 4013 1447 4013 2328 
Q 4013 3213 3611 3725 
Q 3209 4238 2522 4238 
z
M 2522 4750 
Q 3503 4750 4090 4092 
Q 4678 3434 4678 2328 
Q 4678 1225 4090 567 
Q 3503 -91 2522 -91 
Q 1538 -91 948 565 
Q 359 1222 359 2328 
Q 359 3434 948 4092 
Q 1538 4750 2522 4750 
z
" transform="scale(0.015625)"/>
     </defs>
     <use xlink:href="#DejaVuSans-53"/>
     <use xlink:href="#DejaVuSans-4e" x="63.476562"/>
     <use xlink:href="#DejaVuSans-2b" x="138.28125"/>
     <use xlink:href="#DejaVuSans-48" x="222.070312"/>
     <use xlink:href="#DejaVuSans-44" x="297.265625"/>
     <use xlink:href="#DejaVuSans-2b" x="374.267578"/>
     <use xlink:href="#DejaVuSans-43" x="458.056641"/>
     <use xlink:href="#DejaVuSans-42" x="527.880859"/>
     <use xlink:href="#DejaVuSans-41" x="596.484375"/>
     <use xlink:href="#DejaVuSans-4f" x="663.142578"/>
    </g>
   </g>
  </g>
  <g id="axes_2">
   <g id="patch_7">
    <path d="M 366.52875 246.2 
L 378.04875 246.2 
L 378.04875 15.8 
L 366.52875 15.8 
z
" style="fill: #ffffff"/>
   </g>
   <g id="patch_8">
    <path clip-path="url(#p05bd6c6b4f)" style="fill: #ffffff; stroke: #ffffff; stroke-width: 0.01; stroke-linejoin: miter"/>
   </g>
   <g id="QuadMesh_1">
    <path d="M 366.52875 246.2 
L 378.04875 246.2 
L 378.04875 188.6 
L 366.52875 188.6 
L 366.52875 246.2 
" clip-path="url(#p05bd6c6b4f)" style="fill: #006d2c"/>
    <path d="M 366.52875 188.6 
L 378.04875 188.6 
L 378.04875 131 
L 366.52875 131 
L 366.52875 188.6 
" clip-path="url(#p05bd6c6b4f)" style="fill: #42ab5d"/>
    <path d="M 366.52875 131 
L 378.04875 131 
L 378.04875 73.4 
L 366.52875 73.4 
L 366.52875 131 
" clip-path="url(#p05bd6c6b4f)" style="fill: #a2d99c"/>
    <path d="M 366.52875 73.4 
L 378.04875 73.4 
L 378.04875 15.8 
L 366.52875 15.8 
L 366.52875 73.4 
" clip-path="url(#p05bd6c6b4f)" style="fill: #e5f5e1"/>
   </g>
   <g id="matplotlib.axis_3">
    <g id="ytick_10">
     <g id="line2d_29">
      <defs>
       <path id="m32c857aea6" d="M 0 0 
L 3.5 0 
" style="stroke: #000000; stroke-width: 0.8"/>
      </defs>
      <g>
       <use xlink:href="#m32c857aea6" x="378.04875" y="246.2" style="stroke: #000000; stroke-width: 0.8"/>
      </g>
     </g>
    </g>
    <g id="ytick_11">
     <g id="line2d_30">
      <g>
       <use xlink:href="#m32c857aea6" x="378.04875" y="131" style="stroke: #000000; stroke-width: 0.8"/>
      </g>
     </g>
     <g id="text_18">
      <!-- $1\sigma$ -->
      <g transform="translate(385.04875 134.799219)scale(0.1 -0.1)">
       <defs>
        <path id="DejaVuSans-Oblique-3c3" d="M 2219 3044 
Q 1744 3044 1422 2700 
Q 1081 2341 969 1747 
Q 844 1119 1044 756 
Q 1241 397 1706 397 
Q 2166 397 2503 759 
Q 2844 1122 2966 1747 
Q 3075 2319 2881 2700 
Q 2700 3044 2219 3044 
z
M 2309 3503 
L 4219 3500 
L 4106 2925 
L 3463 2925 
Q 3706 2438 3575 1747 
Q 3406 888 2884 400 
Q 2359 -91 1609 -91 
Q 856 -91 525 400 
Q 194 888 363 1747 
Q 528 2609 1050 3097 
Q 1484 3503 2309 3503 
z
" transform="scale(0.015625)"/>
       </defs>
       <use xlink:href="#DejaVuSans-31" transform="translate(0 0.09375)"/>
       <use xlink:href="#DejaVuSans-Oblique-3c3" transform="translate(63.623047 0.09375)"/>
      </g>
     </g>
    </g>
    <g id="ytick_12">
     <g id="line2d_31">
      <g>
       <use xlink:href="#m32c857aea6" x="378.04875" y="15.8" style="stroke: #000000; stroke-width: 0.8"/>
      </g>
     </g>
     <g id="text_19">
      <!-- $2\sigma$ -->
      <g transform="translate(385.04875 19.599219)scale(0.1 -0.1)">
       <use xlink:href="#DejaVuSans-32" transform="translate(0 0.78125)"/>
       <use xlink:href="#DejaVuSans-Oblique-3c3" transform="translate(63.623047 0.78125)"/>
      </g>
     </g>
    </g>
   </g>
   <g id="LineCollection_1"/>
   <g id="patch_9">
    <path d="M 366.52875 246.2 
L 372.28875 246.2 
L 378.04875 246.2 
L 378.04875 15.8 
L 372.28875 15.8 
L 366.52875 15.8 
L 366.52875 246.2 
z
" style="fill: none; stroke: #000000; stroke-width: 0.8; stroke-linejoin: miter; stroke-linecap: square"/>
   </g>
  </g>
 </g>
 <defs>
  <clipPath id="p11623e5f2f">
   <rect x="56.725" y="15.8" width="291.58" height="230.4"/>
  </clipPath>
  <clipPath id="p05bd6c6b4f">
   <rect x="366.52875" y="15.8" width="11.52" height="230.4"/>
  </clipPath>
 </defs>
</svg>
