<?xml version="1.0" encoding="utf-8" standalone="no"?>
<!DOCTYPE svg PUBLIC "-//W3C//DTD SVG 1.1//EN"
  "http://www.w3.org/Graphics/SVG/1.1/DTD/svg11.dtd">
<svg height="360pt" version="1.1" viewBox="0 0 504 360" width="504pt" xmlns="http://www.w3.org/2000/svg" xmlns:xlink="http://www.w3.org/1999/xlink">
 <metadata>
  <rdf:RDF xmlns:cc="http://creativecommons.org/ns#" xmlns:dc="http://purl.org/dc/elements/1.1/" xmlns:rdf="http://www.w3.org/1999/02/22-rdf-syntax-ns#">
   <cc:Work>
    <dc:type rdf:resource="http://purl.org/dc/dcmitype/StillImage"/>
    <dc:date>2022-04-06T11:49:06.994296</dc:date>
    <dc:format>image/svg+xml</dc:format>
    <dc:creator>
     <cc:Agent>
      <dc:title>Matplotlib v3.4.3, https://matplotlib.org/</dc:title>
     </cc:Agent>
    </dc:creator>
   </cc:Work>
  </rdf:RDF>
 </metadata>
 <defs>
  <style type="text/css">*{stroke-linecap:butt;stroke-linejoin:round;}</style>
 </defs>
 <g id="figure_1">
  <g id="patch_1">
   <path d="M 0 360 
L 504 360 
L 504 0 
L 0 0 
z
" style="fill:none;"/>
  </g>
  <g id="axes_1">
   <g id="patch_2">
    <path d="M 46.742 318.04 
L 403.9084 318.04 
L 403.9084 14.76 
L 46.742 14.76 
z
" style="fill:#ffffff;"/>
   </g>
   <g id="PathCollection_1">
    <path clip-path="url(#p28ca383173)" d="M 112.222507 196.551728 
L 118.17528 196.992234 
L 124.128053 197.204687 
L 130.080827 197.055971 
L 136.0336 196.725417 
L 141.986373 196.074846 
L 142.05088 196.065475 
L 147.939147 195.17781 
L 153.89192 194.122451 
L 157.805432 193.241486 
L 159.844693 192.765715 
L 165.797467 191.269391 
L 168.863975 190.417496 
L 171.75024 189.604736 
L 177.703013 187.790132 
L 178.289584 187.593506 
L 183.655787 185.787301 
L 186.493954 184.769516 
L 189.60856 183.66476 
L 194.149936 181.945526 
L 195.561333 181.42059 
L 201.37163 179.121536 
L 201.514107 179.066093 
L 207.46688 176.638747 
L 208.255376 176.297546 
L 213.419653 174.110956 
L 214.835733 173.473557 
L 219.372427 171.478695 
L 221.15558 170.649567 
L 225.3252 168.74901 
L 227.259696 167.825577 
L 231.277973 165.932094 
L 233.186186 165.001587 
L 237.230747 163.0382 
L 238.964523 162.177597 
L 243.18352 160.076313 
L 244.617395 159.353607 
L 249.136293 157.054155 
L 250.163208 156.529617 
L 255.089067 153.978506 
L 255.617213 153.705628 
L 260.997227 150.881638 
L 261.04184 150.858171 
L 266.381286 148.057648 
L 266.994613 147.730507 
L 271.71747 145.233658 
L 272.947387 144.571131 
L 277.001812 142.409668 
L 278.90016 141.377182 
L 282.180362 139.585678 
L 284.852933 138.091688 
L 287.282018 136.761688 
L 290.805707 134.780363 
L 292.344279 133.937698 
L 296.75848 131.445947 
L 297.366009 131.113709 
L 302.380676 128.289719 
L 302.711253 128.102535 
L 307.447993 125.465729 
L 308.664027 124.777985 
L 312.425875 122.641739 
L 314.6168 121.369197 
L 317.353384 119.817749 
L 320.569573 117.940776 
L 322.254329 116.993759 
L 326.522347 114.516523 
L 327.145119 114.169769 
L 332.081373 111.34578 
L 332.47512 111.118651 
L 336.97222 108.52179 
L 338.427893 107.660643 
L 341.838897 105.6978 
L 344.380667 104.190628 
L 346.700788 102.87381 
L 350.33344 100.747785 
L 351.566258 100.04982 
L 356.286213 97.297689 
L 356.410708 97.22583 
L 361.24298 94.40184 
L 362.238987 93.804065 
L 366.124079 91.577851 
L 368.19176 90.356321 
L 371.021706 88.753861 
L 374.144533 86.933274 
L 375.870735 85.929871 
L 380.097307 83.400236 
L 380.613644 83.105881 
L 385.493825 80.281891 
L 386.05008 79.953323 
L 390.437804 77.457901 
L 392.002853 76.541444 
L 395.289701 74.633911 
L 397.955627 73.039491 
L 400.123938 71.809921 
L 403.9084 69.609412 
L 404.999735 68.985932 
L 409.833683 66.161942 
L 409.861173 66.14571 
L 409.861173 63.337952 
L 409.861173 60.513962 
L 409.861173 57.689972 
L 409.861173 54.865982 
L 409.861173 52.041992 
L 409.861173 49.218003 
L 409.861173 46.394013 
L 409.861173 43.570023 
L 409.861173 40.746033 
L 409.861173 40.657097 
L 409.720027 40.746033 
L 405.204195 43.570023 
L 403.9084 44.364457 
L 400.651401 46.394013 
L 397.955627 48.038066 
L 396.111816 49.218003 
L 392.002853 51.78815 
L 391.598376 52.041992 
L 387.050593 54.865982 
L 386.05008 55.476438 
L 382.539685 57.689972 
L 380.097307 59.195096 
L 378.052076 60.513962 
L 374.144533 62.974642 
L 373.566706 63.337952 
L 369.017535 66.161942 
L 368.19176 66.666459 
L 364.530802 68.985932 
L 362.238987 70.404861 
L 360.061879 71.809921 
L 356.286213 74.190203 
L 355.586249 74.633911 
L 351.065825 77.457901 
L 350.33344 77.908925 
L 346.578994 80.281891 
L 344.380667 81.641563 
L 342.098162 83.105881 
L 338.427893 85.408755 
L 337.618139 85.929871 
L 333.15406 88.753861 
L 332.47512 89.178158 
L 328.64155 91.577851 
L 326.522347 92.878962 
L 324.118327 94.40184 
L 320.569573 96.602871 
L 319.596976 97.22583 
L 315.092245 100.04982 
L 314.6168 100.34527 
L 310.622144 102.87381 
L 308.664027 104.09053 
L 306.078078 105.6978 
L 302.711253 107.74501 
L 301.473302 108.52179 
L 296.843305 111.34578 
L 296.75848 111.397219 
L 292.276821 114.169769 
L 290.805707 115.062889 
L 287.702634 116.993759 
L 284.852933 118.720492 
L 283.101256 119.817749 
L 278.90016 122.351986 
L 278.431928 122.641739 
L 273.683692 125.465729 
L 272.947387 125.896629 
L 268.953927 128.289719 
L 266.994613 129.426391 
L 264.191218 131.113709 
L 261.04184 132.926699 
L 259.370818 133.937698 
L 255.089067 136.381234 
L 254.463708 136.761688 
L 249.510978 139.585678 
L 249.136293 139.794364 
L 244.611644 142.409668 
L 243.18352 143.19432 
L 239.645621 145.233658 
L 237.230747 146.541089 
L 234.588515 148.057648 
L 231.277973 149.821225 
L 229.415892 150.881638 
L 225.3252 153.021657 
L 224.106187 153.705628 
L 219.372427 156.132149 
L 218.646548 156.529617 
L 213.419653 159.148402 
L 213.032534 159.353607 
L 207.46688 162.071176 
L 207.258566 162.177597 
L 201.514107 164.902149 
L 201.311568 165.001587 
L 195.561333 167.641313 
L 195.169454 167.825577 
L 189.60856 170.285129 
L 188.795134 170.649567 
L 183.655787 172.82389 
L 182.120884 173.473557 
L 177.703013 175.233644 
L 174.898912 176.297546 
L 171.75024 177.379771 
L 166.704062 179.121536 
L 165.797467 179.397953 
L 159.844693 181.248067 
L 157.572216 181.945526 
L 153.89192 182.8686 
L 147.939147 184.289102 
L 145.777933 184.769516 
L 141.986373 185.483743 
L 136.0336 186.282954 
L 130.080827 186.772889 
L 124.128053 187.090867 
L 118.17528 186.936548 
L 112.222507 186.525783 
L 106.269733 185.783297 
L 102.432648 184.769516 
L 100.31696 184.100663 
L 94.753069 181.945526 
L 94.364187 181.776984 
L 89.375329 179.121536 
L 88.411413 178.547095 
L 84.854252 176.297546 
L 82.45864 174.376531 
L 81.382676 173.473557 
L 77.795926 170.649567 
L 76.505867 169.330832 
L 75.023148 167.825577 
L 72.205722 165.001587 
L 70.553093 162.986229 
L 69.593704 162.177597 
L 67.543365 159.353607 
L 65.604508 156.529617 
L 64.60032 155.138874 
L 62.712659 153.705628 
L 61.747109 150.881638 
L 60.455848 148.057648 
L 58.647547 145.489223 
L 57.800188 145.233658 
L 56.42434 142.409668 
L 54.559845 139.585678 
L 54.423526 136.761688 
L 53.024673 133.937698 
L 52.694773 133.193727 
L 50.378166 133.937698 
L 49.765357 136.761688 
L 50.804811 139.585678 
L 50.353373 142.409668 
L 51.724371 145.233658 
L 52.694773 147.849491 
L 52.965829 148.057648 
L 54.42512 150.881638 
L 55.962128 153.705628 
L 57.245 156.529617 
L 58.406124 159.353607 
L 58.647547 159.898927 
L 60.085581 162.177597 
L 61.988123 165.001587 
L 63.825789 167.825577 
L 64.60032 169.057993 
L 65.775189 170.649567 
L 68.168938 173.473557 
L 70.553093 176.151286 
L 70.669466 176.297546 
L 73.418675 179.121536 
L 76.505867 181.614155 
L 76.874664 181.945526 
L 80.503952 184.769516 
L 82.45864 186.012245 
L 84.924222 187.593506 
L 88.411413 189.487638 
L 90.531288 190.417496 
L 94.364187 192.314722 
L 97.278978 193.241486 
L 100.31696 194.329598 
L 106.269733 195.758286 
L 108.551919 196.065475 
z
" style="fill:#006d2c;stroke:#006d2c;"/>
    <path clip-path="url(#p28ca383173)" d="M 49.77647 131.113709 
L 49.699684 128.289719 
L 49.327359 125.465729 
L 48.20127 122.641739 
L 47.264633 119.817749 
L 46.742 117.786766 
L 46.742 119.817749 
L 46.742 122.641739 
L 46.742 125.465729 
L 46.742 128.289719 
L 46.742 131.113709 
L 46.742 132.947566 
z
" style="fill:#006d2c;stroke:#006d2c;"/>
   </g>
   <g id="PathCollection_2">
    <defs>
     <path d="M 112.222507 -157.498035 
L 118.17528 -156.860036 
L 124.128053 -156.492474 
L 130.080827 -156.514193 
L 136.0336 -156.748019 
L 141.986373 -157.290973 
L 147.939147 -158.020464 
L 149.737959 -158.286545 
L 153.89192 -158.989372 
L 159.844693 -160.225257 
L 163.933349 -161.110535 
L 165.797467 -161.566015 
L 171.75024 -163.127383 
L 174.788172 -163.934525 
L 177.703013 -164.795792 
L 183.655787 -166.648564 
L 184.000382 -166.758514 
L 189.60856 -168.722201 
L 192.101358 -169.582504 
L 195.561333 -170.863295 
L 199.731411 -172.406494 
L 201.514107 -173.101189 
L 206.949483 -175.230484 
L 207.46688 -175.441816 
L 213.419653 -177.903305 
L 213.785914 -178.054474 
L 219.372427 -180.468505 
L 220.327104 -180.878464 
L 225.3252 -183.110265 
L 226.65872 -183.702454 
L 231.277973 -185.827866 
L 232.806818 -186.526443 
L 237.230747 -188.617518 
L 238.796164 -189.350433 
L 243.18352 -191.473658 
L 244.649549 -192.174423 
L 249.136293 -194.389655 
L 250.387723 -194.998413 
L 255.089067 -197.358222 
L 256.029492 -197.822403 
L 261.04184 -200.371715 
L 261.591807 -200.646393 
L 266.994613 -203.42238 
L 267.08985 -203.470383 
L 272.537398 -206.294372 
L 272.947387 -206.511152 
L 277.938193 -209.118362 
L 278.90016 -209.630696 
L 283.217643 -211.942352 
L 284.852933 -212.834872 
L 288.452038 -214.766342 
L 290.805707 -216.053615 
L 293.668428 -217.590332 
L 296.75848 -219.280215 
L 298.874814 -220.414322 
L 302.711253 -222.507789 
L 304.079532 -223.238312 
L 308.664027 -225.729242 
L 309.273286 -226.062302 
L 314.362565 -228.886291 
L 314.6168 -229.029808 
L 319.463305 -231.710281 
L 320.569573 -232.335043 
L 324.57437 -234.534271 
L 326.522347 -235.625248 
L 329.707397 -237.358261 
L 332.47512 -238.892168 
L 334.79687 -240.182251 
L 338.427893 -242.237458 
L 339.811878 -243.006241 
L 344.380667 -245.588373 
L 344.821643 -245.830231 
L 349.914076 -248.65422 
L 350.33344 -248.89106 
L 355.028215 -251.47821 
L 356.286213 -252.186528 
L 360.048533 -254.3022 
L 362.238987 -255.560922 
L 365.066984 -257.12619 
L 368.19176 -258.888983 
L 370.130737 -259.95018 
L 374.144533 -262.184944 
L 375.191765 -262.77417 
L 380.097307 -265.582203 
L 380.126238 -265.59816 
L 385.217273 -268.422149 
L 386.05008 -268.894308 
L 390.324445 -271.246139 
L 392.002853 -272.188364 
L 395.349602 -274.070129 
L 397.955627 -275.565263 
L 400.375699 -276.894119 
L 403.9084 -278.867654 
L 405.445235 -279.718109 
L 409.861173 -282.202391 
L 409.861173 -282.542099 
L 409.861173 -285.366089 
L 409.861173 -288.190079 
L 409.861173 -291.014068 
L 409.861173 -293.838058 
L 409.861173 -293.85429 
L 409.833683 -293.838058 
L 404.999735 -291.014068 
L 403.9084 -290.390588 
L 400.123938 -288.190079 
L 397.955627 -286.960509 
L 395.289701 -285.366089 
L 392.002853 -283.458556 
L 390.437804 -282.542099 
L 386.05008 -280.046677 
L 385.493825 -279.718109 
L 380.613644 -276.894119 
L 380.097307 -276.599764 
L 375.870735 -274.070129 
L 374.144533 -273.066726 
L 371.021706 -271.246139 
L 368.19176 -269.643679 
L 366.124079 -268.422149 
L 362.238987 -266.195935 
L 361.24298 -265.59816 
L 356.410708 -262.77417 
L 356.286213 -262.702311 
L 351.566258 -259.95018 
L 350.33344 -259.252215 
L 346.700788 -257.12619 
L 344.380667 -255.809372 
L 341.838897 -254.3022 
L 338.427893 -252.339357 
L 336.97222 -251.47821 
L 332.47512 -248.881349 
L 332.081373 -248.65422 
L 327.145119 -245.830231 
L 326.522347 -245.483477 
L 322.254329 -243.006241 
L 320.569573 -242.059224 
L 317.353384 -240.182251 
L 314.6168 -238.630803 
L 312.425875 -237.358261 
L 308.664027 -235.222015 
L 307.447993 -234.534271 
L 302.711253 -231.897465 
L 302.380676 -231.710281 
L 297.366009 -228.886291 
L 296.75848 -228.554053 
L 292.344279 -226.062302 
L 290.805707 -225.219637 
L 287.282018 -223.238312 
L 284.852933 -221.908312 
L 282.180362 -220.414322 
L 278.90016 -218.622818 
L 277.001812 -217.590332 
L 272.947387 -215.428869 
L 271.71747 -214.766342 
L 266.994613 -212.269493 
L 266.381286 -211.942352 
L 261.04184 -209.141829 
L 260.997227 -209.118362 
L 255.617213 -206.294372 
L 255.089067 -206.021494 
L 250.163208 -203.470383 
L 249.136293 -202.945845 
L 244.617395 -200.646393 
L 243.18352 -199.923687 
L 238.964523 -197.822403 
L 237.230747 -196.9618 
L 233.186186 -194.998413 
L 231.277973 -194.067906 
L 227.259696 -192.174423 
L 225.3252 -191.25099 
L 221.15558 -189.350433 
L 219.372427 -188.521305 
L 214.835733 -186.526443 
L 213.419653 -185.889044 
L 208.255376 -183.702454 
L 207.46688 -183.361253 
L 201.514107 -180.933907 
L 201.37163 -180.878464 
L 195.561333 -178.57941 
L 194.149936 -178.054474 
L 189.60856 -176.33524 
L 186.493954 -175.230484 
L 183.655787 -174.212699 
L 178.289584 -172.406494 
L 177.703013 -172.209868 
L 171.75024 -170.395264 
L 168.863975 -169.582504 
L 165.797467 -168.730609 
L 159.844693 -167.234285 
L 157.805432 -166.758514 
L 153.89192 -165.877549 
L 147.939147 -164.82219 
L 142.05088 -163.934525 
L 141.986373 -163.925154 
L 136.0336 -163.274583 
L 130.080827 -162.944029 
L 124.128053 -162.795313 
L 118.17528 -163.007766 
L 112.222507 -163.448272 
L 108.551919 -163.934525 
L 106.269733 -164.241714 
L 100.31696 -165.670402 
L 97.278978 -166.758514 
L 94.364187 -167.685278 
L 90.531288 -169.582504 
L 88.411413 -170.512362 
L 84.924222 -172.406494 
L 82.45864 -173.987755 
L 80.503952 -175.230484 
L 76.874664 -178.054474 
L 76.505867 -178.385845 
L 73.418675 -180.878464 
L 70.669466 -183.702454 
L 70.553093 -183.848714 
L 68.168938 -186.526443 
L 65.775189 -189.350433 
L 64.60032 -190.942007 
L 63.825789 -192.174423 
L 61.988123 -194.998413 
L 60.085581 -197.822403 
L 58.647547 -200.101073 
L 58.406124 -200.646393 
L 57.245 -203.470383 
L 55.962128 -206.294372 
L 54.42512 -209.118362 
L 52.965829 -211.942352 
L 52.694773 -212.150509 
L 51.724371 -214.766342 
L 50.353373 -217.590332 
L 50.804811 -220.414322 
L 49.765357 -223.238312 
L 50.378166 -226.062302 
L 52.694773 -226.806273 
L 53.024673 -226.062302 
L 54.423526 -223.238312 
L 54.559845 -220.414322 
L 56.42434 -217.590332 
L 57.800188 -214.766342 
L 58.647547 -214.510777 
L 60.455848 -211.942352 
L 61.747109 -209.118362 
L 62.712659 -206.294372 
L 64.60032 -204.861126 
L 65.604508 -203.470383 
L 67.543365 -200.646393 
L 69.593704 -197.822403 
L 70.553093 -197.013771 
L 72.205722 -194.998413 
L 75.023148 -192.174423 
L 76.505867 -190.669168 
L 77.795926 -189.350433 
L 81.382676 -186.526443 
L 82.45864 -185.623469 
L 84.854252 -183.702454 
L 88.411413 -181.452905 
L 89.375329 -180.878464 
L 94.364187 -178.223016 
L 94.753069 -178.054474 
L 100.31696 -175.899337 
L 102.432648 -175.230484 
L 106.269733 -174.216703 
L 112.222507 -173.474217 
L 118.17528 -173.063452 
L 124.128053 -172.909133 
L 130.080827 -173.227111 
L 136.0336 -173.717046 
L 141.986373 -174.516257 
L 145.777933 -175.230484 
L 147.939147 -175.710898 
L 153.89192 -177.1314 
L 157.572216 -178.054474 
L 159.844693 -178.751933 
L 165.797467 -180.602047 
L 166.704062 -180.878464 
L 171.75024 -182.620229 
L 174.898912 -183.702454 
L 177.703013 -184.766356 
L 182.120884 -186.526443 
L 183.655787 -187.17611 
L 188.795134 -189.350433 
L 189.60856 -189.714871 
L 195.169454 -192.174423 
L 195.561333 -192.358687 
L 201.311568 -194.998413 
L 201.514107 -195.097851 
L 207.258566 -197.822403 
L 207.46688 -197.928824 
L 213.032534 -200.646393 
L 213.419653 -200.851598 
L 218.646548 -203.470383 
L 219.372427 -203.867851 
L 224.106187 -206.294372 
L 225.3252 -206.978343 
L 229.415892 -209.118362 
L 231.277973 -210.178775 
L 234.588515 -211.942352 
L 237.230747 -213.458911 
L 239.645621 -214.766342 
L 243.18352 -216.80568 
L 244.611644 -217.590332 
L 249.136293 -220.205636 
L 249.510978 -220.414322 
L 254.463708 -223.238312 
L 255.089067 -223.618766 
L 259.370818 -226.062302 
L 261.04184 -227.073301 
L 264.191218 -228.886291 
L 266.994613 -230.573609 
L 268.953927 -231.710281 
L 272.947387 -234.103371 
L 273.683692 -234.534271 
L 278.431928 -237.358261 
L 278.90016 -237.648014 
L 283.101256 -240.182251 
L 284.852933 -241.279508 
L 287.702634 -243.006241 
L 290.805707 -244.937111 
L 292.276821 -245.830231 
L 296.75848 -248.602781 
L 296.843305 -248.65422 
L 301.473302 -251.47821 
L 302.711253 -252.25499 
L 306.078078 -254.3022 
L 308.664027 -255.90947 
L 310.622144 -257.12619 
L 314.6168 -259.65473 
L 315.092245 -259.95018 
L 319.596976 -262.77417 
L 320.569573 -263.397129 
L 324.118327 -265.59816 
L 326.522347 -267.121038 
L 328.64155 -268.422149 
L 332.47512 -270.821842 
L 333.15406 -271.246139 
L 337.618139 -274.070129 
L 338.427893 -274.591245 
L 342.098162 -276.894119 
L 344.380667 -278.358437 
L 346.578994 -279.718109 
L 350.33344 -282.091075 
L 351.065825 -282.542099 
L 355.586249 -285.366089 
L 356.286213 -285.809797 
L 360.061879 -288.190079 
L 362.238987 -289.595139 
L 364.530802 -291.014068 
L 368.19176 -293.333541 
L 369.017535 -293.838058 
L 373.566706 -296.662048 
L 374.144533 -297.025358 
L 378.052076 -299.486038 
L 380.097307 -300.804904 
L 382.539685 -302.310028 
L 386.05008 -304.523562 
L 387.050593 -305.134018 
L 391.598376 -307.958008 
L 392.002853 -308.21185 
L 396.111816 -310.781997 
L 397.955627 -311.961934 
L 400.651401 -313.605987 
L 403.9084 -315.635543 
L 405.204195 -316.429977 
L 409.720027 -319.253967 
L 409.861173 -319.342903 
L 409.861173 -322.077957 
L 409.861173 -324.901947 
L 409.861173 -327.725937 
L 409.861173 -330.549926 
L 409.861173 -332.692528 
L 406.559514 -330.549926 
L 403.9084 -328.878058 
L 402.11791 -327.725937 
L 397.955627 -325.103211 
L 397.649431 -324.901947 
L 393.368782 -322.077957 
L 392.002853 -321.206574 
L 388.987642 -319.253967 
L 386.05008 -317.406037 
L 384.552835 -316.429977 
L 380.134254 -313.605987 
L 380.097307 -313.582771 
L 375.909586 -310.781997 
L 374.144533 -309.64688 
L 371.546624 -307.958008 
L 368.19176 -305.837964 
L 367.11827 -305.134018 
L 362.772201 -302.310028 
L 362.238987 -301.973146 
L 358.534181 -299.486038 
L 356.286213 -298.034836 
L 354.194927 -296.662048 
L 350.33344 -294.189829 
L 349.796415 -293.838058 
L 345.502476 -291.014068 
L 344.380667 -290.304336 
L 341.221754 -288.190079 
L 338.427893 -286.384625 
L 336.899512 -285.366089 
L 332.598941 -282.542099 
L 332.47512 -282.463106 
L 328.309184 -279.718109 
L 326.522347 -278.588585 
L 323.964501 -276.894119 
L 320.569573 -274.700823 
L 319.618157 -274.070129 
L 315.378772 -271.246139 
L 314.6168 -270.759367 
L 311.12418 -268.422149 
L 308.664027 -266.828733 
L 306.773686 -265.59816 
L 302.711253 -262.976012 
L 302.400449 -262.77417 
L 298.119385 -259.95018 
L 296.75848 -259.087419 
L 293.771772 -257.12619 
L 290.805707 -255.207112 
L 289.41744 -254.3022 
L 285.138244 -251.47821 
L 284.852933 -251.297996 
L 280.826875 -248.65422 
L 278.90016 -247.413809 
L 276.417317 -245.830231 
L 272.947387 -243.600028 
L 272.006591 -243.006241 
L 267.625902 -240.182251 
L 266.994613 -239.789198 
L 263.143369 -237.358261 
L 261.04184 -236.027954 
L 258.64647 -234.534271 
L 255.089067 -232.264007 
L 254.192156 -231.710281 
L 249.710302 -228.886291 
L 249.136293 -228.532283 
L 245.089049 -226.062302 
L 243.18352 -224.87987 
L 240.456613 -223.238312 
L 237.230747 -221.248282 
L 235.827636 -220.414322 
L 231.277973 -217.644837 
L 231.185057 -217.590332 
L 226.326326 -214.766342 
L 225.3252 -214.180593 
L 221.394816 -211.942352 
L 219.372427 -210.780027 
L 216.396918 -209.118362 
L 213.419653 -207.445225 
L 211.312901 -206.294372 
L 207.46688 -204.187703 
L 206.120615 -203.470383 
L 201.514107 -201.020991 
L 200.790913 -200.646393 
L 195.561333 -197.961932 
L 195.28307 -197.822403 
L 189.60856 -195.029556 
L 189.544049 -194.998413 
L 183.655787 -192.241924 
L 183.509585 -192.174423 
L 177.703013 -189.611521 
L 177.089147 -189.350433 
L 171.75024 -187.228881 
L 169.977506 -186.526443 
L 165.797467 -185.013643 
L 162.218361 -183.702454 
L 159.844693 -182.931686 
L 153.89192 -180.954203 
L 153.6256 -180.878464 
L 147.939147 -179.480297 
L 141.98728 -178.054474 
L 141.986373 -178.054308 
L 136.0336 -177.113023 
L 130.080827 -176.461618 
L 124.128053 -176.126527 
L 118.17528 -176.371098 
L 112.222507 -177.064088 
L 107.506406 -178.054474 
L 106.269733 -178.296781 
L 100.31696 -180.146474 
L 98.614516 -180.878464 
L 94.364187 -182.556855 
L 92.397364 -183.702454 
L 88.411413 -185.744607 
L 87.255491 -186.526443 
L 83.120358 -189.350433 
L 82.45864 -189.816594 
L 79.968966 -192.174423 
L 76.505867 -194.920872 
L 76.420622 -194.998413 
L 74.152339 -197.822403 
L 71.555197 -200.646393 
L 70.553093 -201.707832 
L 69.250679 -203.470383 
L 67.371311 -206.294372 
L 65.123407 -209.118362 
L 64.60032 -209.870102 
L 63.489356 -211.942352 
L 61.839598 -214.766342 
L 60.132091 -217.590332 
L 58.647547 -220.205121 
L 58.504825 -220.414322 
L 57.292353 -223.238312 
L 55.912474 -226.062302 
L 54.570136 -228.886291 
L 53.374731 -231.710281 
L 52.694773 -233.506135 
L 52.264345 -234.534271 
L 51.036448 -237.358261 
L 49.925626 -240.182251 
L 49.002449 -243.006241 
L 48.168036 -245.830231 
L 47.410117 -248.65422 
L 46.742 -251.078064 
L 46.742 -248.65422 
L 46.742 -245.830231 
L 46.742 -243.006241 
L 46.742 -242.213234 
L 47.264633 -240.182251 
L 48.20127 -237.358261 
L 49.327359 -234.534271 
L 49.699684 -231.710281 
L 49.77647 -228.886291 
L 46.742 -227.052434 
L 46.742 -226.062302 
L 46.742 -223.238312 
L 46.742 -220.531075 
L 46.807181 -220.414322 
L 47.805577 -217.590332 
L 49.009004 -214.766342 
L 50.079775 -211.942352 
L 51.042575 -209.118362 
L 51.990004 -206.294372 
L 52.694773 -204.338877 
L 53.159832 -203.470383 
L 54.53813 -200.646393 
L 55.876092 -197.822403 
L 57.152991 -194.998413 
L 58.333644 -192.174423 
L 58.647547 -191.467396 
L 60.110061 -189.350433 
L 61.969472 -186.526443 
L 63.570454 -183.702454 
L 64.60032 -181.871907 
L 65.491533 -180.878464 
L 68.178616 -178.054474 
L 70.302993 -175.230484 
L 70.553093 -174.928148 
L 73.81426 -172.406494 
L 76.505867 -169.898549 
L 76.985579 -169.582504 
L 81.748382 -166.758514 
L 82.45864 -166.32942 
L 87.720218 -163.934525 
L 88.411413 -163.64718 
L 94.364187 -161.622338 
L 96.079142 -161.110535 
L 100.31696 -159.917954 
L 106.269733 -158.555972 
L 107.775089 -158.286545 
z
" id="mb95f0822f9" style="stroke:#42ab5d;"/>
    </defs>
    <g clip-path="url(#p28ca383173)">
     <use style="fill:#42ab5d;stroke:#42ab5d;" x="0" xlink:href="#mb95f0822f9" y="360"/>
    </g>
   </g>
   <g id="PathCollection_3">
    <path clip-path="url(#p28ca383173)" d="M 112.222507 207.73368 
L 118.17528 208.191997 
L 124.128053 208.438165 
L 130.080827 208.368706 
L 136.0336 208.144606 
L 141.986373 207.6572 
L 144.662356 207.361435 
L 147.939147 206.96131 
L 153.89192 206.089363 
L 159.844693 204.974426 
L 162.067196 204.537445 
L 165.797467 203.725391 
L 171.75024 202.261225 
L 173.930723 201.713455 
L 177.703013 200.707884 
L 183.655787 198.896414 
L 183.678981 198.889465 
L 189.60856 197.009084 
L 192.437711 196.065475 
L 195.561333 195.022995 
L 200.536556 193.241486 
L 201.514107 192.894982 
L 207.46688 190.679441 
L 208.157153 190.417496 
L 213.419653 188.407157 
L 215.465855 187.593506 
L 219.372427 186.039783 
L 222.452687 184.769516 
L 225.3252 183.582603 
L 229.178997 181.945526 
L 231.277973 181.047947 
L 235.700746 179.121536 
L 237.230747 178.447588 
L 242.060836 176.297546 
L 243.18352 175.790476 
L 248.289857 173.473557 
L 249.136293 173.083144 
L 254.409917 170.649567 
L 255.089067 170.330771 
L 260.438272 167.825577 
L 261.04184 167.53811 
L 266.389792 165.001587 
L 266.994613 164.710088 
L 272.278381 162.177597 
L 272.947387 161.852124 
L 278.101256 159.353607 
L 278.90016 158.961158 
L 283.762063 156.529617 
L 284.852933 155.97995 
L 289.374508 153.705628 
L 290.805707 152.981108 
L 294.967019 150.881638 
L 296.75848 149.972209 
L 300.551635 148.057648 
L 302.711253 146.96026 
L 306.138902 145.233658 
L 308.664027 143.951654 
L 311.645381 142.409668 
L 314.6168 140.863397 
L 317.083316 139.585678 
L 320.569573 137.763279 
L 322.516744 136.761688 
L 326.522347 134.674688 
L 327.967595 133.937698 
L 332.47512 131.602247 
L 333.412731 131.113709 
L 338.427893 128.446919 
L 338.729631 128.289719 
L 343.982569 125.465729 
L 344.380667 125.253773 
L 349.287193 122.641739 
L 350.33344 122.090954 
L 354.615883 119.817749 
L 356.286213 118.939259 
L 359.874547 116.993759 
L 362.238987 115.724867 
L 365.166953 114.169769 
L 368.19176 112.56702 
L 370.523579 111.34578 
L 374.144533 109.442687 
L 375.856954 108.52179 
L 380.097307 106.223252 
L 381.096385 105.6978 
L 386.05008 103.054155 
L 386.396038 102.87381 
L 391.681239 100.04982 
L 392.002853 99.879777 
L 396.817435 97.22583 
L 397.955627 96.61214 
L 402.087594 94.40184 
L 403.9084 93.440785 
L 407.369515 91.577851 
L 409.861173 90.251587 
L 409.861173 88.753861 
L 409.861173 85.929871 
L 409.861173 83.105881 
L 409.861173 80.281891 
L 409.861173 77.797609 
L 405.445235 80.281891 
L 403.9084 81.132346 
L 400.375699 83.105881 
L 397.955627 84.434737 
L 395.349602 85.929871 
L 392.002853 87.811636 
L 390.324445 88.753861 
L 386.05008 91.105692 
L 385.217273 91.577851 
L 380.126238 94.40184 
L 380.097307 94.417797 
L 375.191765 97.22583 
L 374.144533 97.815056 
L 370.130737 100.04982 
L 368.19176 101.111017 
L 365.066984 102.87381 
L 362.238987 104.439078 
L 360.048533 105.6978 
L 356.286213 107.813472 
L 355.028215 108.52179 
L 350.33344 111.10894 
L 349.914076 111.34578 
L 344.821643 114.169769 
L 344.380667 114.411627 
L 339.811878 116.993759 
L 338.427893 117.762542 
L 334.79687 119.817749 
L 332.47512 121.107832 
L 329.707397 122.641739 
L 326.522347 124.374752 
L 324.57437 125.465729 
L 320.569573 127.664957 
L 319.463305 128.289719 
L 314.6168 130.970192 
L 314.362565 131.113709 
L 309.273286 133.937698 
L 308.664027 134.270758 
L 304.079532 136.761688 
L 302.711253 137.492211 
L 298.874814 139.585678 
L 296.75848 140.719785 
L 293.668428 142.409668 
L 290.805707 143.946385 
L 288.452038 145.233658 
L 284.852933 147.165128 
L 283.217643 148.057648 
L 278.90016 150.369304 
L 277.938193 150.881638 
L 272.947387 153.488848 
L 272.537398 153.705628 
L 267.08985 156.529617 
L 266.994613 156.57762 
L 261.591807 159.353607 
L 261.04184 159.628285 
L 256.029492 162.177597 
L 255.089067 162.641778 
L 250.387723 165.001587 
L 249.136293 165.610345 
L 244.649549 167.825577 
L 243.18352 168.526342 
L 238.796164 170.649567 
L 237.230747 171.382482 
L 232.806818 173.473557 
L 231.277973 174.172134 
L 226.65872 176.297546 
L 225.3252 176.889735 
L 220.327104 179.121536 
L 219.372427 179.531495 
L 213.785914 181.945526 
L 213.419653 182.096695 
L 207.46688 184.558184 
L 206.949483 184.769516 
L 201.514107 186.898811 
L 199.731411 187.593506 
L 195.561333 189.136705 
L 192.101358 190.417496 
L 189.60856 191.277799 
L 184.000382 193.241486 
L 183.655787 193.351436 
L 177.703013 195.204208 
L 174.788172 196.065475 
L 171.75024 196.872617 
L 165.797467 198.433985 
L 163.933349 198.889465 
L 159.844693 199.774743 
L 153.89192 201.010628 
L 149.737959 201.713455 
L 147.939147 201.979536 
L 141.986373 202.709027 
L 136.0336 203.251981 
L 130.080827 203.485807 
L 124.128053 203.507526 
L 118.17528 203.139964 
L 112.222507 202.501965 
L 107.775089 201.713455 
L 106.269733 201.444028 
L 100.31696 200.082046 
L 96.079142 198.889465 
L 94.364187 198.377662 
L 88.411413 196.35282 
L 87.720218 196.065475 
L 82.45864 193.67058 
L 81.748382 193.241486 
L 76.985579 190.417496 
L 76.505867 190.101451 
L 73.81426 187.593506 
L 70.553093 185.071852 
L 70.302993 184.769516 
L 68.178616 181.945526 
L 65.491533 179.121536 
L 64.60032 178.128093 
L 63.570454 176.297546 
L 61.969472 173.473557 
L 60.110061 170.649567 
L 58.647547 168.532604 
L 58.333644 167.825577 
L 57.152991 165.001587 
L 55.876092 162.177597 
L 54.53813 159.353607 
L 53.159832 156.529617 
L 52.694773 155.661123 
L 51.990004 153.705628 
L 51.042575 150.881638 
L 50.079775 148.057648 
L 49.009004 145.233658 
L 47.805577 142.409668 
L 46.807181 139.585678 
L 46.742 139.468925 
L 46.742 139.585678 
L 46.742 142.409668 
L 46.742 145.233658 
L 46.742 146.384391 
L 47.388233 148.057648 
L 48.351537 150.881638 
L 49.240469 153.705628 
L 50.202559 156.529617 
L 51.26085 159.353607 
L 52.298176 162.177597 
L 52.694773 163.278539 
L 53.549215 165.001587 
L 54.832294 167.825577 
L 56.081709 170.649567 
L 57.42862 173.473557 
L 58.647547 176.238122 
L 58.684603 176.297546 
L 60.459435 179.121536 
L 62.381293 181.945526 
L 64.288691 184.769516 
L 64.60032 185.272613 
L 66.557275 187.593506 
L 69.350802 190.417496 
L 70.553093 191.603769 
L 72.524844 193.241486 
L 76.505867 196.054681 
L 76.524525 196.065475 
L 81.451154 198.889465 
L 82.45864 199.432727 
L 87.628978 201.713455 
L 88.411413 202.050423 
L 94.364187 204.060639 
L 96.113693 204.537445 
L 100.31696 205.617554 
L 106.269733 206.839861 
L 109.507008 207.361435 
z
" style="fill:#a2d99c;stroke:#a2d99c;"/>
    <path clip-path="url(#p28ca383173)" d="M 112.222507 182.935912 
L 118.17528 183.628902 
L 124.128053 183.873473 
L 130.080827 183.538382 
L 136.0336 182.886977 
L 141.986373 181.945692 
L 141.98728 181.945526 
L 147.939147 180.519703 
L 153.6256 179.121536 
L 153.89192 179.045797 
L 159.844693 177.068314 
L 162.218361 176.297546 
L 165.797467 174.986357 
L 169.977506 173.473557 
L 171.75024 172.771119 
L 177.089147 170.649567 
L 177.703013 170.388479 
L 183.509585 167.825577 
L 183.655787 167.758076 
L 189.544049 165.001587 
L 189.60856 164.970444 
L 195.28307 162.177597 
L 195.561333 162.038068 
L 200.790913 159.353607 
L 201.514107 158.979009 
L 206.120615 156.529617 
L 207.46688 155.812297 
L 211.312901 153.705628 
L 213.419653 152.554775 
L 216.396918 150.881638 
L 219.372427 149.219973 
L 221.394816 148.057648 
L 225.3252 145.819407 
L 226.326326 145.233658 
L 231.185057 142.409668 
L 231.277973 142.355163 
L 235.827636 139.585678 
L 237.230747 138.751718 
L 240.456613 136.761688 
L 243.18352 135.12013 
L 245.089049 133.937698 
L 249.136293 131.467717 
L 249.710302 131.113709 
L 254.192156 128.289719 
L 255.089067 127.735993 
L 258.64647 125.465729 
L 261.04184 123.972046 
L 263.143369 122.641739 
L 266.994613 120.210802 
L 267.625902 119.817749 
L 272.006591 116.993759 
L 272.947387 116.399972 
L 276.417317 114.169769 
L 278.90016 112.586191 
L 280.826875 111.34578 
L 284.852933 108.702004 
L 285.138244 108.52179 
L 289.41744 105.6978 
L 290.805707 104.792888 
L 293.771772 102.87381 
L 296.75848 100.912581 
L 298.119385 100.04982 
L 302.400449 97.22583 
L 302.711253 97.023988 
L 306.773686 94.40184 
L 308.664027 93.171267 
L 311.12418 91.577851 
L 314.6168 89.240633 
L 315.378772 88.753861 
L 319.618157 85.929871 
L 320.569573 85.299177 
L 323.964501 83.105881 
L 326.522347 81.411415 
L 328.309184 80.281891 
L 332.47512 77.536894 
L 332.598941 77.457901 
L 336.899512 74.633911 
L 338.427893 73.615375 
L 341.221754 71.809921 
L 344.380667 69.695664 
L 345.502476 68.985932 
L 349.796415 66.161942 
L 350.33344 65.810171 
L 354.194927 63.337952 
L 356.286213 61.965164 
L 358.534181 60.513962 
L 362.238987 58.026854 
L 362.772201 57.689972 
L 367.11827 54.865982 
L 368.19176 54.162036 
L 371.546624 52.041992 
L 374.144533 50.35312 
L 375.909586 49.218003 
L 380.097307 46.417229 
L 380.134254 46.394013 
L 384.552835 43.570023 
L 386.05008 42.593963 
L 388.987642 40.746033 
L 392.002853 38.793426 
L 393.368782 37.922043 
L 397.649431 35.098053 
L 397.955627 34.896789 
L 402.11791 32.274063 
L 403.9084 31.121942 
L 406.559514 29.450074 
L 409.861173 27.307472 
L 409.861173 26.626084 
L 409.861173 23.802094 
L 409.861173 20.978104 
L 409.861173 18.154114 
L 409.861173 15.330124 
L 409.861173 14.482672 
L 408.597467 15.330124 
L 404.278371 18.154114 
L 403.9084 18.400191 
L 399.967645 20.978104 
L 397.955627 22.300433 
L 395.743066 23.802094 
L 392.002853 26.303331 
L 391.523738 26.626084 
L 387.197308 29.450074 
L 386.05008 30.209833 
L 382.95661 32.274063 
L 380.097307 34.172881 
L 378.757754 35.098053 
L 374.550417 37.922043 
L 374.144533 38.199985 
L 370.290666 40.746033 
L 368.19176 42.137379 
L 366.078362 43.570023 
L 362.238987 46.12763 
L 361.858118 46.394013 
L 357.672567 49.218003 
L 356.286213 50.167488 
L 353.504017 52.041992 
L 350.33344 54.157157 
L 349.299548 54.865982 
L 345.043036 57.689972 
L 344.380667 58.137935 
L 340.891803 60.513962 
L 338.427893 62.189932 
L 336.771858 63.337952 
L 332.586282 66.161942 
L 332.47512 66.238463 
L 328.354814 68.985932 
L 326.522347 70.214384 
L 324.189681 71.809921 
L 320.569573 74.240293 
L 320.007795 74.633911 
L 315.815539 77.457901 
L 314.6168 78.278278 
L 311.69951 80.281891 
L 308.664027 82.339832 
L 307.544759 83.105881 
L 303.261793 85.929871 
L 302.711253 86.299495 
L 299.065202 88.753861 
L 296.75848 90.297341 
L 294.89519 91.577851 
L 290.805707 94.298411 
L 290.658041 94.40184 
L 286.453529 97.22583 
L 284.852933 98.30218 
L 282.30248 100.04982 
L 278.90016 102.316383 
L 278.085138 102.87381 
L 273.758912 105.6978 
L 272.947387 106.231804 
L 269.505155 108.52179 
L 266.994613 110.155942 
L 265.233223 111.34578 
L 261.04184 114.051763 
L 260.869381 114.169769 
L 256.550565 116.993759 
L 255.089067 117.935932 
L 252.250953 119.817749 
L 249.136293 121.80531 
L 247.885517 122.641739 
L 243.430372 125.465729 
L 243.18352 125.621716 
L 239.045422 128.289719 
L 237.230747 129.421893 
L 234.614106 131.113709 
L 231.277973 133.171072 
L 230.08954 133.937698 
L 225.470154 136.761688 
L 225.3252 136.84898 
L 220.894807 139.585678 
L 219.372427 140.487079 
L 216.231829 142.409668 
L 213.419653 144.047421 
L 211.452376 145.233658 
L 207.46688 147.51645 
L 206.549337 148.057648 
L 201.533249 150.881638 
L 201.514107 150.892113 
L 196.483271 153.705628 
L 195.561333 154.196933 
L 191.27007 156.529617 
L 189.60856 157.389798 
L 185.866672 159.353607 
L 183.655787 160.460946 
L 180.24201 162.177597 
L 177.703013 163.399692 
L 174.241866 165.001587 
L 171.75024 166.109375 
L 167.748937 167.825577 
L 165.797467 168.633761 
L 160.660551 170.649567 
L 159.844693 170.961935 
L 153.89192 173.07453 
L 152.581253 173.473557 
L 147.939147 174.851699 
L 142.379911 176.297546 
L 141.986373 176.395771 
L 136.0336 177.66677 
L 130.080827 178.553127 
L 124.306861 179.121536 
L 124.128053 179.13732 
L 118.17528 179.18354 
L 117.373932 179.121536 
L 112.222507 178.716513 
L 106.269733 177.565161 
L 101.954972 176.297546 
L 100.31696 175.807276 
L 94.843752 173.473557 
L 94.364187 173.267007 
L 89.753289 170.649567 
L 88.411413 169.84746 
L 85.486472 167.825577 
L 82.45864 165.316272 
L 82.110697 165.001587 
L 78.739474 162.177597 
L 76.505867 159.699728 
L 76.213707 159.353607 
L 73.367853 156.529617 
L 71.219824 153.705628 
L 70.553093 152.804446 
L 69.060662 150.881638 
L 66.879554 148.057648 
L 65.20641 145.233658 
L 64.60032 144.271961 
L 63.415124 142.409668 
L 61.675609 139.585678 
L 60.216695 136.761688 
L 58.79506 133.937698 
L 58.647547 133.657307 
L 57.325564 131.113709 
L 56.030943 128.289719 
L 54.890478 125.465729 
L 53.752905 122.641739 
L 52.694773 120.069603 
L 52.58662 119.817749 
L 51.450644 116.993759 
L 50.408566 114.169769 
L 49.581904 111.34578 
L 48.84097 108.52179 
L 48.021384 105.6978 
L 47.088719 102.87381 
L 46.742 101.714797 
L 46.742 102.87381 
L 46.742 105.6978 
L 46.742 108.52179 
L 46.742 108.921936 
L 47.410117 111.34578 
L 48.168036 114.169769 
L 49.002449 116.993759 
L 49.925626 119.817749 
L 51.036448 122.641739 
L 52.264345 125.465729 
L 52.694773 126.493865 
L 53.374731 128.289719 
L 54.570136 131.113709 
L 55.912474 133.937698 
L 57.292353 136.761688 
L 58.504825 139.585678 
L 58.647547 139.794879 
L 60.132091 142.409668 
L 61.839598 145.233658 
L 63.489356 148.057648 
L 64.60032 150.129898 
L 65.123407 150.881638 
L 67.371311 153.705628 
L 69.250679 156.529617 
L 70.553093 158.292168 
L 71.555197 159.353607 
L 74.152339 162.177597 
L 76.420622 165.001587 
L 76.505867 165.079128 
L 79.968966 167.825577 
L 82.45864 170.183406 
L 83.120358 170.649567 
L 87.255491 173.473557 
L 88.411413 174.255393 
L 92.397364 176.297546 
L 94.364187 177.443145 
L 98.614516 179.121536 
L 100.31696 179.853526 
L 106.269733 181.703219 
L 107.506406 181.945526 
z
" style="fill:#a2d99c;stroke:#a2d99c;"/>
   </g>
   <g id="PathCollection_4">
    <path clip-path="url(#p28ca383173)" d="M 100.31696 210.769377 
L 106.269733 211.643677 
L 112.222507 212.250187 
L 118.17528 212.598106 
L 124.128053 212.813543 
L 130.080827 212.779443 
L 136.0336 212.595106 
L 141.986373 212.135066 
L 147.939147 211.487733 
L 153.89192 210.6331 
L 156.278229 210.185425 
L 159.844693 209.611379 
L 165.797467 208.464509 
L 170.629281 207.361435 
L 171.75024 207.133177 
L 177.703013 205.776178 
L 182.205106 204.537445 
L 183.655787 204.155728 
L 189.60856 202.472117 
L 192.090943 201.713455 
L 195.561333 200.66274 
L 201.038595 198.889465 
L 201.514107 198.730548 
L 207.46688 196.72451 
L 209.36583 196.065475 
L 213.419653 194.612304 
L 217.192392 193.241486 
L 219.372427 192.41398 
L 224.627966 190.417496 
L 225.3252 190.140076 
L 231.277973 187.78527 
L 231.764249 187.593506 
L 237.230747 185.350227 
L 238.658266 184.769516 
L 243.18352 182.852547 
L 245.351847 181.945526 
L 249.136293 180.299052 
L 251.88328 179.121536 
L 255.089067 177.695478 
L 258.282542 176.297546 
L 261.04184 175.047432 
L 264.574516 173.473557 
L 266.994613 172.360784 
L 270.780827 170.649567 
L 272.947387 169.641765 
L 276.908744 167.825577 
L 278.90016 166.888411 
L 282.88349 165.001587 
L 284.852933 164.046747 
L 288.768534 162.177597 
L 290.805707 161.184314 
L 294.621267 159.353607 
L 296.75848 158.30816 
L 300.455909 156.529617 
L 302.711253 155.425366 
L 306.286326 153.705628 
L 308.664027 152.54304 
L 312.018824 150.881638 
L 314.6168 149.576131 
L 317.668761 148.057648 
L 320.569573 146.594891 
L 323.318098 145.233658 
L 326.522347 143.626609 
L 328.996776 142.409668 
L 332.47512 140.678295 
L 334.639764 139.585678 
L 338.427893 137.652998 
L 340.189621 136.761688 
L 344.380667 134.619801 
L 345.744184 133.937698 
L 350.33344 131.61883 
L 351.342716 131.113709 
L 356.286213 128.615543 
L 356.921481 128.289719 
L 362.238987 125.538557 
L 362.383202 125.465729 
L 367.922375 122.641739 
L 368.19176 122.502641 
L 373.509547 119.817749 
L 374.144533 119.493412 
L 378.94106 116.993759 
L 380.097307 116.384757 
L 384.430985 114.169769 
L 386.05008 113.333941 
L 389.966477 111.34578 
L 392.002853 110.302151 
L 395.422296 108.52179 
L 397.955627 107.191682 
L 400.895053 105.6978 
L 403.9084 104.153274 
L 406.400891 102.87381 
L 409.861173 101.08352 
L 409.861173 100.04982 
L 409.861173 97.22583 
L 409.861173 94.40184 
L 409.861173 91.577851 
L 409.861173 90.251587 
L 407.369515 91.577851 
L 403.9084 93.440785 
L 402.087594 94.40184 
L 397.955627 96.61214 
L 396.817435 97.22583 
L 392.002853 99.879777 
L 391.681239 100.04982 
L 386.396038 102.87381 
L 386.05008 103.054155 
L 381.096385 105.6978 
L 380.097307 106.223252 
L 375.856954 108.52179 
L 374.144533 109.442687 
L 370.523579 111.34578 
L 368.19176 112.56702 
L 365.166953 114.169769 
L 362.238987 115.724867 
L 359.874547 116.993759 
L 356.286213 118.939259 
L 354.615883 119.817749 
L 350.33344 122.090954 
L 349.287193 122.641739 
L 344.380667 125.253773 
L 343.982569 125.465729 
L 338.729631 128.289719 
L 338.427893 128.446919 
L 333.412731 131.113709 
L 332.47512 131.602247 
L 327.967595 133.937698 
L 326.522347 134.674688 
L 322.516744 136.761688 
L 320.569573 137.763279 
L 317.083316 139.585678 
L 314.6168 140.863397 
L 311.645381 142.409668 
L 308.664027 143.951654 
L 306.138902 145.233658 
L 302.711253 146.96026 
L 300.551635 148.057648 
L 296.75848 149.972209 
L 294.967019 150.881638 
L 290.805707 152.981108 
L 289.374508 153.705628 
L 284.852933 155.97995 
L 283.762063 156.529617 
L 278.90016 158.961158 
L 278.101256 159.353607 
L 272.947387 161.852124 
L 272.278381 162.177597 
L 266.994613 164.710088 
L 266.389792 165.001587 
L 261.04184 167.53811 
L 260.438272 167.825577 
L 255.089067 170.330771 
L 254.409917 170.649567 
L 249.136293 173.083144 
L 248.289857 173.473557 
L 243.18352 175.790476 
L 242.060836 176.297546 
L 237.230747 178.447588 
L 235.700746 179.121536 
L 231.277973 181.047947 
L 229.178997 181.945526 
L 225.3252 183.582603 
L 222.452687 184.769516 
L 219.372427 186.039783 
L 215.465855 187.593506 
L 213.419653 188.407157 
L 208.157153 190.417496 
L 207.46688 190.679441 
L 201.514107 192.894982 
L 200.536556 193.241486 
L 195.561333 195.022995 
L 192.437711 196.065475 
L 189.60856 197.009084 
L 183.678981 198.889465 
L 183.655787 198.896414 
L 177.703013 200.707884 
L 173.930723 201.713455 
L 171.75024 202.261225 
L 165.797467 203.725391 
L 162.067196 204.537445 
L 159.844693 204.974426 
L 153.89192 206.089363 
L 147.939147 206.96131 
L 144.662356 207.361435 
L 141.986373 207.6572 
L 136.0336 208.144606 
L 130.080827 208.368706 
L 124.128053 208.438165 
L 118.17528 208.191997 
L 112.222507 207.73368 
L 109.507008 207.361435 
L 106.269733 206.839861 
L 100.31696 205.617554 
L 96.113693 204.537445 
L 94.364187 204.060639 
L 88.411413 202.050423 
L 87.628978 201.713455 
L 82.45864 199.432727 
L 81.451154 198.889465 
L 76.524525 196.065475 
L 76.505867 196.054681 
L 72.524844 193.241486 
L 70.553093 191.603769 
L 69.350802 190.417496 
L 66.557275 187.593506 
L 64.60032 185.272613 
L 64.288691 184.769516 
L 62.381293 181.945526 
L 60.459435 179.121536 
L 58.684603 176.297546 
L 58.647547 176.238122 
L 57.42862 173.473557 
L 56.081709 170.649567 
L 54.832294 167.825577 
L 53.549215 165.001587 
L 52.694773 163.278539 
L 52.298176 162.177597 
L 51.26085 159.353607 
L 50.202559 156.529617 
L 49.240469 153.705628 
L 48.351537 150.881638 
L 47.388233 148.057648 
L 46.742 146.384391 
L 46.742 148.057648 
L 46.742 150.881638 
L 46.742 153.705628 
L 46.742 154.506979 
L 47.390181 156.529617 
L 48.521394 159.353607 
L 49.68024 162.177597 
L 50.623845 165.001587 
L 51.634131 167.825577 
L 52.604485 170.649567 
L 52.694773 170.889125 
L 53.973997 173.473557 
L 55.627991 176.297546 
L 56.80738 179.121536 
L 58.065929 181.945526 
L 58.647547 183.083068 
L 59.840006 184.769516 
L 61.708953 187.593506 
L 63.499866 190.417496 
L 64.60032 191.980318 
L 65.897358 193.241486 
L 68.610666 196.065475 
L 70.553093 198.12549 
L 71.623592 198.889465 
L 75.567947 201.713455 
L 76.505867 202.389869 
L 80.648676 204.537445 
L 82.45864 205.431526 
L 87.424089 207.361435 
L 88.411413 207.706565 
L 94.364187 209.435901 
L 97.535812 210.185425 
z
" style="fill:#e5f5e1;stroke:#e5f5e1;"/>
    <path clip-path="url(#p28ca383173)" d="M 118.17528 179.18354 
L 124.128053 179.13732 
L 124.306861 179.121536 
L 130.080827 178.553127 
L 136.0336 177.66677 
L 141.986373 176.395771 
L 142.379911 176.297546 
L 147.939147 174.851699 
L 152.581253 173.473557 
L 153.89192 173.07453 
L 159.844693 170.961935 
L 160.660551 170.649567 
L 165.797467 168.633761 
L 167.748937 167.825577 
L 171.75024 166.109375 
L 174.241866 165.001587 
L 177.703013 163.399692 
L 180.24201 162.177597 
L 183.655787 160.460946 
L 185.866672 159.353607 
L 189.60856 157.389798 
L 191.27007 156.529617 
L 195.561333 154.196933 
L 196.483271 153.705628 
L 201.514107 150.892113 
L 201.533249 150.881638 
L 206.549337 148.057648 
L 207.46688 147.51645 
L 211.452376 145.233658 
L 213.419653 144.047421 
L 216.231829 142.409668 
L 219.372427 140.487079 
L 220.894807 139.585678 
L 225.3252 136.84898 
L 225.470154 136.761688 
L 230.08954 133.937698 
L 231.277973 133.171072 
L 234.614106 131.113709 
L 237.230747 129.421893 
L 239.045422 128.289719 
L 243.18352 125.621716 
L 243.430372 125.465729 
L 247.885517 122.641739 
L 249.136293 121.80531 
L 252.250953 119.817749 
L 255.089067 117.935932 
L 256.550565 116.993759 
L 260.869381 114.169769 
L 261.04184 114.051763 
L 265.233223 111.34578 
L 266.994613 110.155942 
L 269.505155 108.52179 
L 272.947387 106.231804 
L 273.758912 105.6978 
L 278.085138 102.87381 
L 278.90016 102.316383 
L 282.30248 100.04982 
L 284.852933 98.30218 
L 286.453529 97.22583 
L 290.658041 94.40184 
L 290.805707 94.298411 
L 294.89519 91.577851 
L 296.75848 90.297341 
L 299.065202 88.753861 
L 302.711253 86.299495 
L 303.261793 85.929871 
L 307.544759 83.105881 
L 308.664027 82.339832 
L 311.69951 80.281891 
L 314.6168 78.278278 
L 315.815539 77.457901 
L 320.007795 74.633911 
L 320.569573 74.240293 
L 324.189681 71.809921 
L 326.522347 70.214384 
L 328.354814 68.985932 
L 332.47512 66.238463 
L 332.586282 66.161942 
L 336.771858 63.337952 
L 338.427893 62.189932 
L 340.891803 60.513962 
L 344.380667 58.137935 
L 345.043036 57.689972 
L 349.299548 54.865982 
L 350.33344 54.157157 
L 353.504017 52.041992 
L 356.286213 50.167488 
L 357.672567 49.218003 
L 361.858118 46.394013 
L 362.238987 46.12763 
L 366.078362 43.570023 
L 368.19176 42.137379 
L 370.290666 40.746033 
L 374.144533 38.199985 
L 374.550417 37.922043 
L 378.757754 35.098053 
L 380.097307 34.172881 
L 382.95661 32.274063 
L 386.05008 30.209833 
L 387.197308 29.450074 
L 391.523738 26.626084 
L 392.002853 26.303331 
L 395.743066 23.802094 
L 397.955627 22.300433 
L 399.967645 20.978104 
L 403.9084 18.400191 
L 404.278371 18.154114 
L 408.597467 15.330124 
L 409.861173 14.482672 
L 409.861173 12.506134 
L 409.861173 9.682144 
L 409.861173 6.858155 
L 409.861173 4.034165 
L 409.861173 1.9831 
L 406.860117 4.034165 
L 403.9084 6.004151 
L 402.650517 6.858155 
L 398.453622 9.682144 
L 397.955627 10.007599 
L 394.377093 12.506134 
L 392.002853 14.110897 
L 390.217697 15.330124 
L 386.05008 18.121669 
L 386.003112 18.154114 
L 381.92709 20.978104 
L 380.097307 22.196857 
L 377.820582 23.802094 
L 374.144533 26.326868 
L 373.709739 26.626084 
L 369.608311 29.450074 
L 368.19176 30.385719 
L 365.487106 32.274063 
L 362.238987 34.470086 
L 361.353563 35.098053 
L 357.35743 37.922043 
L 356.286213 38.645311 
L 353.284317 40.746033 
L 350.33344 42.732618 
L 349.137421 43.570023 
L 345.062428 46.394013 
L 344.380667 46.846392 
L 341.063859 49.218003 
L 338.427893 51.013381 
L 336.983577 52.041992 
L 332.955472 54.865982 
L 332.47512 55.187885 
L 328.931517 57.689972 
L 326.522347 59.301631 
L 324.810402 60.513962 
L 320.720976 63.337952 
L 320.569573 63.438351 
L 316.804874 66.161942 
L 314.6168 67.645913 
L 312.744744 68.985932 
L 308.677039 71.809921 
L 308.664027 71.818595 
L 304.711213 74.633911 
L 302.711253 75.965163 
L 300.601265 77.457901 
L 296.75848 80.087411 
L 296.482709 80.281891 
L 292.555426 83.105881 
L 290.805707 84.277383 
L 288.487822 85.929871 
L 284.852933 88.427925 
L 284.392088 88.753861 
L 280.469495 91.577851 
L 278.90016 92.629797 
L 276.372057 94.40184 
L 272.947387 96.710689 
L 272.204559 97.22583 
L 268.167424 100.04982 
L 266.994613 100.819373 
L 264.05622 102.87381 
L 261.04184 104.886308 
L 259.867604 105.6978 
L 255.749641 108.52179 
L 255.089067 108.951608 
L 251.639609 111.34578 
L 249.136293 112.99175 
L 247.414659 114.169769 
L 243.18352 116.967537 
L 243.144726 116.993759 
L 239.009414 119.817749 
L 237.230747 120.960169 
L 234.729092 122.641739 
L 231.277973 124.853794 
L 230.353244 125.465729 
L 225.99785 128.289719 
L 225.3252 128.709224 
L 221.648892 131.113709 
L 219.372427 132.517597 
L 217.158411 133.937698 
L 213.419653 136.21078 
L 212.541928 136.761688 
L 207.888078 139.585678 
L 207.46688 139.835571 
L 203.270113 142.409668 
L 201.514107 143.42653 
L 198.487495 145.233658 
L 195.561333 146.884815 
L 193.533699 148.057648 
L 189.60856 150.214369 
L 188.412678 150.881638 
L 183.655787 153.421898 
L 183.127045 153.705628 
L 177.703013 156.509557 
L 177.662835 156.529617 
L 171.855855 159.353607 
L 171.75024 159.403586 
L 165.797467 162.127811 
L 165.684544 162.177597 
L 159.844693 164.71095 
L 159.131288 165.001587 
L 153.89192 167.121848 
L 151.868498 167.825577 
L 147.939147 169.189333 
L 143.060894 170.649567 
L 141.986373 170.970841 
L 136.0336 172.465452 
L 130.224858 173.473557 
L 130.080827 173.499704 
L 124.128053 174.257518 
L 118.17528 174.441801 
L 112.222507 174.17494 
L 107.372477 173.473557 
L 106.269733 173.31284 
L 100.31696 171.653046 
L 97.976234 170.649567 
L 94.364187 169.146393 
L 92.138022 167.825577 
L 88.411413 165.699979 
L 87.478132 165.001587 
L 83.769608 162.177597 
L 82.45864 161.170133 
L 80.512937 159.353607 
L 77.682379 156.529617 
L 76.505867 155.372974 
L 74.972776 153.705628 
L 72.719351 150.881638 
L 70.553093 148.15204 
L 70.475869 148.057648 
L 68.457526 145.233658 
L 66.549547 142.409668 
L 64.810486 139.585678 
L 64.60032 139.226465 
L 63.190741 136.761688 
L 61.584255 133.937698 
L 60.017923 131.113709 
L 58.688802 128.289719 
L 58.647547 128.201112 
L 57.463232 125.465729 
L 56.302068 122.641739 
L 55.01706 119.817749 
L 53.857682 116.993759 
L 52.694773 114.282168 
L 52.649097 114.169769 
L 51.753691 111.34578 
L 51.052243 108.52179 
L 50.278933 105.6978 
L 49.163711 102.87381 
L 48.223091 100.04982 
L 47.400994 97.22583 
L 46.742 94.852876 
L 46.742 97.22583 
L 46.742 100.04982 
L 46.742 101.714797 
L 47.088719 102.87381 
L 48.021384 105.6978 
L 48.84097 108.52179 
L 49.581904 111.34578 
L 50.408566 114.169769 
L 51.450644 116.993759 
L 52.58662 119.817749 
L 52.694773 120.069603 
L 53.752905 122.641739 
L 54.890478 125.465729 
L 56.030943 128.289719 
L 57.325564 131.113709 
L 58.647547 133.657307 
L 58.79506 133.937698 
L 60.216695 136.761688 
L 61.675609 139.585678 
L 63.415124 142.409668 
L 64.60032 144.271961 
L 65.20641 145.233658 
L 66.879554 148.057648 
L 69.060662 150.881638 
L 70.553093 152.804446 
L 71.219824 153.705628 
L 73.367853 156.529617 
L 76.213707 159.353607 
L 76.505867 159.699728 
L 78.739474 162.177597 
L 82.110697 165.001587 
L 82.45864 165.316272 
L 85.486472 167.825577 
L 88.411413 169.84746 
L 89.753289 170.649567 
L 94.364187 173.267007 
L 94.843752 173.473557 
L 100.31696 175.807276 
L 101.954972 176.297546 
L 106.269733 177.565161 
L 112.222507 178.716513 
L 117.373932 179.121536 
z
" style="fill:#e5f5e1;stroke:#e5f5e1;"/>
   </g>
   <g id="matplotlib.axis_1">
    <g id="xtick_1">
     <g id="line2d_1">
      <path clip-path="url(#p28ca383173)" d="M 46.742 318.04 
L 46.742 14.76 
" style="fill:none;stroke:#b0b0b0;stroke-linecap:square;stroke-width:0.8;"/>
     </g>
     <g id="line2d_2">
      <defs>
       <path d="M 0 0 
L 0 3.5 
" id="m1844bc05e3" style="stroke:#000000;stroke-width:0.8;"/>
      </defs>
      <g>
       <use style="stroke:#000000;stroke-width:0.8;" x="46.742" xlink:href="#m1844bc05e3" y="318.04"/>
      </g>
     </g>
     <g id="text_1">
      <!-- 0.0 -->
      <g transform="translate(38.790437 332.638438)scale(0.1 -0.1)">
       <defs>
        <path d="M 2034 4250 
Q 1547 4250 1301 3770 
Q 1056 3291 1056 2328 
Q 1056 1369 1301 889 
Q 1547 409 2034 409 
Q 2525 409 2770 889 
Q 3016 1369 3016 2328 
Q 3016 3291 2770 3770 
Q 2525 4250 2034 4250 
z
M 2034 4750 
Q 2819 4750 3233 4129 
Q 3647 3509 3647 2328 
Q 3647 1150 3233 529 
Q 2819 -91 2034 -91 
Q 1250 -91 836 529 
Q 422 1150 422 2328 
Q 422 3509 836 4129 
Q 1250 4750 2034 4750 
z
" id="DejaVuSans-30" transform="scale(0.015625)"/>
        <path d="M 684 794 
L 1344 794 
L 1344 0 
L 684 0 
L 684 794 
z
" id="DejaVuSans-2e" transform="scale(0.015625)"/>
       </defs>
       <use xlink:href="#DejaVuSans-30"/>
       <use x="63.623047" xlink:href="#DejaVuSans-2e"/>
       <use x="95.410156" xlink:href="#DejaVuSans-30"/>
      </g>
     </g>
    </g>
    <g id="xtick_2">
     <g id="line2d_3">
      <path clip-path="url(#p28ca383173)" d="M 106.269733 318.04 
L 106.269733 14.76 
" style="fill:none;stroke:#b0b0b0;stroke-linecap:square;stroke-width:0.8;"/>
     </g>
     <g id="line2d_4">
      <g>
       <use style="stroke:#000000;stroke-width:0.8;" x="106.269733" xlink:href="#m1844bc05e3" y="318.04"/>
      </g>
     </g>
     <g id="text_2">
      <!-- 0.5 -->
      <g transform="translate(98.318171 332.638438)scale(0.1 -0.1)">
       <defs>
        <path d="M 691 4666 
L 3169 4666 
L 3169 4134 
L 1269 4134 
L 1269 2991 
Q 1406 3038 1543 3061 
Q 1681 3084 1819 3084 
Q 2600 3084 3056 2656 
Q 3513 2228 3513 1497 
Q 3513 744 3044 326 
Q 2575 -91 1722 -91 
Q 1428 -91 1123 -41 
Q 819 9 494 109 
L 494 744 
Q 775 591 1075 516 
Q 1375 441 1709 441 
Q 2250 441 2565 725 
Q 2881 1009 2881 1497 
Q 2881 1984 2565 2268 
Q 2250 2553 1709 2553 
Q 1456 2553 1204 2497 
Q 953 2441 691 2322 
L 691 4666 
z
" id="DejaVuSans-35" transform="scale(0.015625)"/>
       </defs>
       <use xlink:href="#DejaVuSans-30"/>
       <use x="63.623047" xlink:href="#DejaVuSans-2e"/>
       <use x="95.410156" xlink:href="#DejaVuSans-35"/>
      </g>
     </g>
    </g>
    <g id="xtick_3">
     <g id="line2d_5">
      <path clip-path="url(#p28ca383173)" d="M 165.797467 318.04 
L 165.797467 14.76 
" style="fill:none;stroke:#b0b0b0;stroke-linecap:square;stroke-width:0.8;"/>
     </g>
     <g id="line2d_6">
      <g>
       <use style="stroke:#000000;stroke-width:0.8;" x="165.797467" xlink:href="#m1844bc05e3" y="318.04"/>
      </g>
     </g>
     <g id="text_3">
      <!-- 1.0 -->
      <g transform="translate(157.845904 332.638438)scale(0.1 -0.1)">
       <defs>
        <path d="M 794 531 
L 1825 531 
L 1825 4091 
L 703 3866 
L 703 4441 
L 1819 4666 
L 2450 4666 
L 2450 531 
L 3481 531 
L 3481 0 
L 794 0 
L 794 531 
z
" id="DejaVuSans-31" transform="scale(0.015625)"/>
       </defs>
       <use xlink:href="#DejaVuSans-31"/>
       <use x="63.623047" xlink:href="#DejaVuSans-2e"/>
       <use x="95.410156" xlink:href="#DejaVuSans-30"/>
      </g>
     </g>
    </g>
    <g id="xtick_4">
     <g id="line2d_7">
      <path clip-path="url(#p28ca383173)" d="M 225.3252 318.04 
L 225.3252 14.76 
" style="fill:none;stroke:#b0b0b0;stroke-linecap:square;stroke-width:0.8;"/>
     </g>
     <g id="line2d_8">
      <g>
       <use style="stroke:#000000;stroke-width:0.8;" x="225.3252" xlink:href="#m1844bc05e3" y="318.04"/>
      </g>
     </g>
     <g id="text_4">
      <!-- 1.5 -->
      <g transform="translate(217.373637 332.638438)scale(0.1 -0.1)">
       <use xlink:href="#DejaVuSans-31"/>
       <use x="63.623047" xlink:href="#DejaVuSans-2e"/>
       <use x="95.410156" xlink:href="#DejaVuSans-35"/>
      </g>
     </g>
    </g>
    <g id="xtick_5">
     <g id="line2d_9">
      <path clip-path="url(#p28ca383173)" d="M 284.852933 318.04 
L 284.852933 14.76 
" style="fill:none;stroke:#b0b0b0;stroke-linecap:square;stroke-width:0.8;"/>
     </g>
     <g id="line2d_10">
      <g>
       <use style="stroke:#000000;stroke-width:0.8;" x="284.852933" xlink:href="#m1844bc05e3" y="318.04"/>
      </g>
     </g>
     <g id="text_5">
      <!-- 2.0 -->
      <g transform="translate(276.901371 332.638438)scale(0.1 -0.1)">
       <defs>
        <path d="M 1228 531 
L 3431 531 
L 3431 0 
L 469 0 
L 469 531 
Q 828 903 1448 1529 
Q 2069 2156 2228 2338 
Q 2531 2678 2651 2914 
Q 2772 3150 2772 3378 
Q 2772 3750 2511 3984 
Q 2250 4219 1831 4219 
Q 1534 4219 1204 4116 
Q 875 4013 500 3803 
L 500 4441 
Q 881 4594 1212 4672 
Q 1544 4750 1819 4750 
Q 2544 4750 2975 4387 
Q 3406 4025 3406 3419 
Q 3406 3131 3298 2873 
Q 3191 2616 2906 2266 
Q 2828 2175 2409 1742 
Q 1991 1309 1228 531 
z
" id="DejaVuSans-32" transform="scale(0.015625)"/>
       </defs>
       <use xlink:href="#DejaVuSans-32"/>
       <use x="63.623047" xlink:href="#DejaVuSans-2e"/>
       <use x="95.410156" xlink:href="#DejaVuSans-30"/>
      </g>
     </g>
    </g>
    <g id="xtick_6">
     <g id="line2d_11">
      <path clip-path="url(#p28ca383173)" d="M 344.380667 318.04 
L 344.380667 14.76 
" style="fill:none;stroke:#b0b0b0;stroke-linecap:square;stroke-width:0.8;"/>
     </g>
     <g id="line2d_12">
      <g>
       <use style="stroke:#000000;stroke-width:0.8;" x="344.380667" xlink:href="#m1844bc05e3" y="318.04"/>
      </g>
     </g>
     <g id="text_6">
      <!-- 2.5 -->
      <g transform="translate(336.429104 332.638438)scale(0.1 -0.1)">
       <use xlink:href="#DejaVuSans-32"/>
       <use x="63.623047" xlink:href="#DejaVuSans-2e"/>
       <use x="95.410156" xlink:href="#DejaVuSans-35"/>
      </g>
     </g>
    </g>
    <g id="xtick_7">
     <g id="line2d_13">
      <path clip-path="url(#p28ca383173)" d="M 403.9084 318.04 
L 403.9084 14.76 
" style="fill:none;stroke:#b0b0b0;stroke-linecap:square;stroke-width:0.8;"/>
     </g>
     <g id="line2d_14">
      <g>
       <use style="stroke:#000000;stroke-width:0.8;" x="403.9084" xlink:href="#m1844bc05e3" y="318.04"/>
      </g>
     </g>
     <g id="text_7">
      <!-- 3.0 -->
      <g transform="translate(395.956837 332.638438)scale(0.1 -0.1)">
       <defs>
        <path d="M 2597 2516 
Q 3050 2419 3304 2112 
Q 3559 1806 3559 1356 
Q 3559 666 3084 287 
Q 2609 -91 1734 -91 
Q 1441 -91 1130 -33 
Q 819 25 488 141 
L 488 750 
Q 750 597 1062 519 
Q 1375 441 1716 441 
Q 2309 441 2620 675 
Q 2931 909 2931 1356 
Q 2931 1769 2642 2001 
Q 2353 2234 1838 2234 
L 1294 2234 
L 1294 2753 
L 1863 2753 
Q 2328 2753 2575 2939 
Q 2822 3125 2822 3475 
Q 2822 3834 2567 4026 
Q 2313 4219 1838 4219 
Q 1578 4219 1281 4162 
Q 984 4106 628 3988 
L 628 4550 
Q 988 4650 1302 4700 
Q 1616 4750 1894 4750 
Q 2613 4750 3031 4423 
Q 3450 4097 3450 3541 
Q 3450 3153 3228 2886 
Q 3006 2619 2597 2516 
z
" id="DejaVuSans-33" transform="scale(0.015625)"/>
       </defs>
       <use xlink:href="#DejaVuSans-33"/>
       <use x="63.623047" xlink:href="#DejaVuSans-2e"/>
       <use x="95.410156" xlink:href="#DejaVuSans-30"/>
      </g>
     </g>
    </g>
    <g id="text_8">
     <!-- $z$ -->
     <g transform="translate(222.6752 346.316563)scale(0.1 -0.1)">
      <defs>
       <path d="M 744 3500 
L 3475 3500 
L 3372 2975 
L 738 459 
L 2913 459 
L 2822 0 
L -19 0 
L 84 525 
L 2719 3041 
L 653 3041 
L 744 3500 
z
" id="DejaVuSans-Oblique-7a" transform="scale(0.015625)"/>
      </defs>
      <use transform="translate(0 0.3125)" xlink:href="#DejaVuSans-Oblique-7a"/>
     </g>
    </g>
   </g>
   <g id="matplotlib.axis_2">
    <g id="ytick_1">
     <g id="line2d_15">
      <path clip-path="url(#p28ca383173)" d="M 46.742 318.04 
L 403.9084 318.04 
" style="fill:none;stroke:#b0b0b0;stroke-linecap:square;stroke-width:0.8;"/>
     </g>
     <g id="line2d_16">
      <defs>
       <path d="M 0 0 
L -3.5 0 
" id="m1ab8008114" style="stroke:#000000;stroke-width:0.8;"/>
      </defs>
      <g>
       <use style="stroke:#000000;stroke-width:0.8;" x="46.742" xlink:href="#m1ab8008114" y="318.04"/>
      </g>
     </g>
     <g id="text_9">
      <!-- 45 -->
      <g transform="translate(27.017 321.839219)scale(0.1 -0.1)">
       <defs>
        <path d="M 2419 4116 
L 825 1625 
L 2419 1625 
L 2419 4116 
z
M 2253 4666 
L 3047 4666 
L 3047 1625 
L 3713 1625 
L 3713 1100 
L 3047 1100 
L 3047 0 
L 2419 0 
L 2419 1100 
L 313 1100 
L 313 1709 
L 2253 4666 
z
" id="DejaVuSans-34" transform="scale(0.015625)"/>
       </defs>
       <use xlink:href="#DejaVuSans-34"/>
       <use x="63.623047" xlink:href="#DejaVuSans-35"/>
      </g>
     </g>
    </g>
    <g id="ytick_2">
     <g id="line2d_17">
      <path clip-path="url(#p28ca383173)" d="M 46.742 274.714286 
L 403.9084 274.714286 
" style="fill:none;stroke:#b0b0b0;stroke-linecap:square;stroke-width:0.8;"/>
     </g>
     <g id="line2d_18">
      <g>
       <use style="stroke:#000000;stroke-width:0.8;" x="46.742" xlink:href="#m1ab8008114" y="274.714286"/>
      </g>
     </g>
     <g id="text_10">
      <!-- 50 -->
      <g transform="translate(27.017 278.513504)scale(0.1 -0.1)">
       <use xlink:href="#DejaVuSans-35"/>
       <use x="63.623047" xlink:href="#DejaVuSans-30"/>
      </g>
     </g>
    </g>
    <g id="ytick_3">
     <g id="line2d_19">
      <path clip-path="url(#p28ca383173)" d="M 46.742 231.388571 
L 403.9084 231.388571 
" style="fill:none;stroke:#b0b0b0;stroke-linecap:square;stroke-width:0.8;"/>
     </g>
     <g id="line2d_20">
      <g>
       <use style="stroke:#000000;stroke-width:0.8;" x="46.742" xlink:href="#m1ab8008114" y="231.388571"/>
      </g>
     </g>
     <g id="text_11">
      <!-- 55 -->
      <g transform="translate(27.017 235.18779)scale(0.1 -0.1)">
       <use xlink:href="#DejaVuSans-35"/>
       <use x="63.623047" xlink:href="#DejaVuSans-35"/>
      </g>
     </g>
    </g>
    <g id="ytick_4">
     <g id="line2d_21">
      <path clip-path="url(#p28ca383173)" d="M 46.742 188.062857 
L 403.9084 188.062857 
" style="fill:none;stroke:#b0b0b0;stroke-linecap:square;stroke-width:0.8;"/>
     </g>
     <g id="line2d_22">
      <g>
       <use style="stroke:#000000;stroke-width:0.8;" x="46.742" xlink:href="#m1ab8008114" y="188.062857"/>
      </g>
     </g>
     <g id="text_12">
      <!-- 60 -->
      <g transform="translate(27.017 191.862076)scale(0.1 -0.1)">
       <defs>
        <path d="M 2113 2584 
Q 1688 2584 1439 2293 
Q 1191 2003 1191 1497 
Q 1191 994 1439 701 
Q 1688 409 2113 409 
Q 2538 409 2786 701 
Q 3034 994 3034 1497 
Q 3034 2003 2786 2293 
Q 2538 2584 2113 2584 
z
M 3366 4563 
L 3366 3988 
Q 3128 4100 2886 4159 
Q 2644 4219 2406 4219 
Q 1781 4219 1451 3797 
Q 1122 3375 1075 2522 
Q 1259 2794 1537 2939 
Q 1816 3084 2150 3084 
Q 2853 3084 3261 2657 
Q 3669 2231 3669 1497 
Q 3669 778 3244 343 
Q 2819 -91 2113 -91 
Q 1303 -91 875 529 
Q 447 1150 447 2328 
Q 447 3434 972 4092 
Q 1497 4750 2381 4750 
Q 2619 4750 2861 4703 
Q 3103 4656 3366 4563 
z
" id="DejaVuSans-36" transform="scale(0.015625)"/>
       </defs>
       <use xlink:href="#DejaVuSans-36"/>
       <use x="63.623047" xlink:href="#DejaVuSans-30"/>
      </g>
     </g>
    </g>
    <g id="ytick_5">
     <g id="line2d_23">
      <path clip-path="url(#p28ca383173)" d="M 46.742 144.737143 
L 403.9084 144.737143 
" style="fill:none;stroke:#b0b0b0;stroke-linecap:square;stroke-width:0.8;"/>
     </g>
     <g id="line2d_24">
      <g>
       <use style="stroke:#000000;stroke-width:0.8;" x="46.742" xlink:href="#m1ab8008114" y="144.737143"/>
      </g>
     </g>
     <g id="text_13">
      <!-- 65 -->
      <g transform="translate(27.017 148.536362)scale(0.1 -0.1)">
       <use xlink:href="#DejaVuSans-36"/>
       <use x="63.623047" xlink:href="#DejaVuSans-35"/>
      </g>
     </g>
    </g>
    <g id="ytick_6">
     <g id="line2d_25">
      <path clip-path="url(#p28ca383173)" d="M 46.742 101.411429 
L 403.9084 101.411429 
" style="fill:none;stroke:#b0b0b0;stroke-linecap:square;stroke-width:0.8;"/>
     </g>
     <g id="line2d_26">
      <g>
       <use style="stroke:#000000;stroke-width:0.8;" x="46.742" xlink:href="#m1ab8008114" y="101.411429"/>
      </g>
     </g>
     <g id="text_14">
      <!-- 70 -->
      <g transform="translate(27.017 105.210647)scale(0.1 -0.1)">
       <defs>
        <path d="M 525 4666 
L 3525 4666 
L 3525 4397 
L 1831 0 
L 1172 0 
L 2766 4134 
L 525 4134 
L 525 4666 
z
" id="DejaVuSans-37" transform="scale(0.015625)"/>
       </defs>
       <use xlink:href="#DejaVuSans-37"/>
       <use x="63.623047" xlink:href="#DejaVuSans-30"/>
      </g>
     </g>
    </g>
    <g id="ytick_7">
     <g id="line2d_27">
      <path clip-path="url(#p28ca383173)" d="M 46.742 58.085714 
L 403.9084 58.085714 
" style="fill:none;stroke:#b0b0b0;stroke-linecap:square;stroke-width:0.8;"/>
     </g>
     <g id="line2d_28">
      <g>
       <use style="stroke:#000000;stroke-width:0.8;" x="46.742" xlink:href="#m1ab8008114" y="58.085714"/>
      </g>
     </g>
     <g id="text_15">
      <!-- 75 -->
      <g transform="translate(27.017 61.884933)scale(0.1 -0.1)">
       <use xlink:href="#DejaVuSans-37"/>
       <use x="63.623047" xlink:href="#DejaVuSans-35"/>
      </g>
     </g>
    </g>
    <g id="ytick_8">
     <g id="line2d_29">
      <path clip-path="url(#p28ca383173)" d="M 46.742 14.76 
L 403.9084 14.76 
" style="fill:none;stroke:#b0b0b0;stroke-linecap:square;stroke-width:0.8;"/>
     </g>
     <g id="line2d_30">
      <g>
       <use style="stroke:#000000;stroke-width:0.8;" x="46.742" xlink:href="#m1ab8008114" y="14.76"/>
      </g>
     </g>
     <g id="text_16">
      <!-- 80 -->
      <g transform="translate(27.017 18.559219)scale(0.1 -0.1)">
       <defs>
        <path d="M 2034 2216 
Q 1584 2216 1326 1975 
Q 1069 1734 1069 1313 
Q 1069 891 1326 650 
Q 1584 409 2034 409 
Q 2484 409 2743 651 
Q 3003 894 3003 1313 
Q 3003 1734 2745 1975 
Q 2488 2216 2034 2216 
z
M 1403 2484 
Q 997 2584 770 2862 
Q 544 3141 544 3541 
Q 544 4100 942 4425 
Q 1341 4750 2034 4750 
Q 2731 4750 3128 4425 
Q 3525 4100 3525 3541 
Q 3525 3141 3298 2862 
Q 3072 2584 2669 2484 
Q 3125 2378 3379 2068 
Q 3634 1759 3634 1313 
Q 3634 634 3220 271 
Q 2806 -91 2034 -91 
Q 1263 -91 848 271 
Q 434 634 434 1313 
Q 434 1759 690 2068 
Q 947 2378 1403 2484 
z
M 1172 3481 
Q 1172 3119 1398 2916 
Q 1625 2713 2034 2713 
Q 2441 2713 2670 2916 
Q 2900 3119 2900 3481 
Q 2900 3844 2670 4047 
Q 2441 4250 2034 4250 
Q 1625 4250 1398 4047 
Q 1172 3844 1172 3481 
z
" id="DejaVuSans-38" transform="scale(0.015625)"/>
       </defs>
       <use xlink:href="#DejaVuSans-38"/>
       <use x="63.623047" xlink:href="#DejaVuSans-30"/>
      </g>
     </g>
    </g>
    <g id="text_17">
     <!-- $H(z)/(1+z)[km\;s^{-1}Mpc^{-1}]$ -->
     <g transform="translate(20.917 231.15)rotate(-90)scale(0.1 -0.1)">
      <defs>
       <path d="M 1081 4666 
L 1716 4666 
L 1344 2753 
L 3634 2753 
L 4006 4666 
L 4641 4666 
L 3731 0 
L 3097 0 
L 3531 2222 
L 1241 2222 
L 806 0 
L 172 0 
L 1081 4666 
z
" id="DejaVuSans-Oblique-48" transform="scale(0.015625)"/>
       <path d="M 1984 4856 
Q 1566 4138 1362 3434 
Q 1159 2731 1159 2009 
Q 1159 1288 1364 580 
Q 1569 -128 1984 -844 
L 1484 -844 
Q 1016 -109 783 600 
Q 550 1309 550 2009 
Q 550 2706 781 3412 
Q 1013 4119 1484 4856 
L 1984 4856 
z
" id="DejaVuSans-28" transform="scale(0.015625)"/>
       <path d="M 513 4856 
L 1013 4856 
Q 1481 4119 1714 3412 
Q 1947 2706 1947 2009 
Q 1947 1309 1714 600 
Q 1481 -109 1013 -844 
L 513 -844 
Q 928 -128 1133 580 
Q 1338 1288 1338 2009 
Q 1338 2731 1133 3434 
Q 928 4138 513 4856 
z
" id="DejaVuSans-29" transform="scale(0.015625)"/>
       <path d="M 1625 4666 
L 2156 4666 
L 531 -594 
L 0 -594 
L 1625 4666 
z
" id="DejaVuSans-2f" transform="scale(0.015625)"/>
       <path d="M 2944 4013 
L 2944 2272 
L 4684 2272 
L 4684 1741 
L 2944 1741 
L 2944 0 
L 2419 0 
L 2419 1741 
L 678 1741 
L 678 2272 
L 2419 2272 
L 2419 4013 
L 2944 4013 
z
" id="DejaVuSans-2b" transform="scale(0.015625)"/>
       <path d="M 550 4863 
L 1875 4863 
L 1875 4416 
L 1125 4416 
L 1125 -397 
L 1875 -397 
L 1875 -844 
L 550 -844 
L 550 4863 
z
" id="DejaVuSans-5b" transform="scale(0.015625)"/>
       <path d="M 1172 4863 
L 1747 4863 
L 1197 2028 
L 3169 3500 
L 3916 3500 
L 1716 1825 
L 3322 0 
L 2625 0 
L 1131 1709 
L 800 0 
L 225 0 
L 1172 4863 
z
" id="DejaVuSans-Oblique-6b" transform="scale(0.015625)"/>
       <path d="M 5747 2113 
L 5338 0 
L 4763 0 
L 5166 2094 
Q 5191 2228 5203 2325 
Q 5216 2422 5216 2491 
Q 5216 2772 5059 2928 
Q 4903 3084 4622 3084 
Q 4203 3084 3875 2770 
Q 3547 2456 3450 1953 
L 3066 0 
L 2491 0 
L 2900 2094 
Q 2925 2209 2937 2307 
Q 2950 2406 2950 2484 
Q 2950 2769 2794 2926 
Q 2638 3084 2363 3084 
Q 1938 3084 1609 2770 
Q 1281 2456 1184 1953 
L 800 0 
L 225 0 
L 909 3500 
L 1484 3500 
L 1375 2956 
Q 1609 3263 1923 3423 
Q 2238 3584 2597 3584 
Q 2978 3584 3223 3384 
Q 3469 3184 3519 2828 
Q 3781 3197 4126 3390 
Q 4472 3584 4856 3584 
Q 5306 3584 5551 3325 
Q 5797 3066 5797 2591 
Q 5797 2488 5784 2364 
Q 5772 2241 5747 2113 
z
" id="DejaVuSans-Oblique-6d" transform="scale(0.015625)"/>
       <path d="M 3200 3397 
L 3091 2853 
Q 2863 2978 2609 3040 
Q 2356 3103 2088 3103 
Q 1634 3103 1373 2948 
Q 1113 2794 1113 2528 
Q 1113 2219 1719 2053 
Q 1766 2041 1788 2034 
L 1972 1978 
Q 2547 1819 2739 1644 
Q 2931 1469 2931 1166 
Q 2931 609 2489 259 
Q 2047 -91 1331 -91 
Q 1053 -91 747 -37 
Q 441 16 72 128 
L 184 722 
Q 500 559 806 475 
Q 1113 391 1394 391 
Q 1816 391 2080 572 
Q 2344 753 2344 1031 
Q 2344 1331 1650 1516 
L 1591 1531 
L 1394 1581 
Q 956 1697 753 1886 
Q 550 2075 550 2369 
Q 550 2928 970 3256 
Q 1391 3584 2113 3584 
Q 2397 3584 2667 3537 
Q 2938 3491 3200 3397 
z
" id="DejaVuSans-Oblique-73" transform="scale(0.015625)"/>
       <path d="M 678 2272 
L 4684 2272 
L 4684 1741 
L 678 1741 
L 678 2272 
z
" id="DejaVuSans-2212" transform="scale(0.015625)"/>
       <path d="M 1081 4666 
L 2028 4666 
L 2572 1522 
L 4378 4666 
L 5350 4666 
L 4441 0 
L 3828 0 
L 4622 4091 
L 2791 897 
L 2175 897 
L 1581 4103 
L 788 0 
L 172 0 
L 1081 4666 
z
" id="DejaVuSans-Oblique-4d" transform="scale(0.015625)"/>
       <path d="M 3175 2156 
Q 3175 2616 2975 2859 
Q 2775 3103 2400 3103 
Q 2144 3103 1911 2972 
Q 1678 2841 1497 2591 
Q 1319 2344 1212 1994 
Q 1106 1644 1106 1300 
Q 1106 863 1306 627 
Q 1506 391 1875 391 
Q 2147 391 2380 519 
Q 2613 647 2778 891 
Q 2956 1147 3065 1494 
Q 3175 1841 3175 2156 
z
M 1394 2969 
Q 1625 3272 1939 3428 
Q 2253 3584 2638 3584 
Q 3175 3584 3472 3232 
Q 3769 2881 3769 2247 
Q 3769 1728 3584 1258 
Q 3400 788 3053 416 
Q 2822 169 2531 39 
Q 2241 -91 1919 -91 
Q 1547 -91 1294 64 
Q 1041 219 916 525 
L 556 -1331 
L -19 -1331 
L 922 3500 
L 1497 3500 
L 1394 2969 
z
" id="DejaVuSans-Oblique-70" transform="scale(0.015625)"/>
       <path d="M 3431 3366 
L 3316 2797 
Q 3109 2947 2876 3022 
Q 2644 3097 2394 3097 
Q 2119 3097 1870 3000 
Q 1622 2903 1453 2725 
Q 1184 2453 1037 2087 
Q 891 1722 891 1331 
Q 891 859 1127 628 
Q 1363 397 1844 397 
Q 2081 397 2348 469 
Q 2616 541 2906 684 
L 2797 116 
Q 2547 13 2283 -39 
Q 2019 -91 1741 -91 
Q 1044 -91 669 257 
Q 294 606 294 1253 
Q 294 1797 489 2255 
Q 684 2713 1069 3078 
Q 1331 3328 1684 3456 
Q 2038 3584 2456 3584 
Q 2700 3584 2940 3529 
Q 3181 3475 3431 3366 
z
" id="DejaVuSans-Oblique-63" transform="scale(0.015625)"/>
       <path d="M 1947 4863 
L 1947 -844 
L 622 -844 
L 622 -397 
L 1369 -397 
L 1369 4416 
L 622 4416 
L 622 4863 
L 1947 4863 
z
" id="DejaVuSans-5d" transform="scale(0.015625)"/>
      </defs>
      <use transform="translate(0 0.684375)" xlink:href="#DejaVuSans-Oblique-48"/>
      <use transform="translate(75.195312 0.684375)" xlink:href="#DejaVuSans-28"/>
      <use transform="translate(114.208984 0.684375)" xlink:href="#DejaVuSans-Oblique-7a"/>
      <use transform="translate(166.699219 0.684375)" xlink:href="#DejaVuSans-29"/>
      <use transform="translate(205.712891 0.684375)" xlink:href="#DejaVuSans-2f"/>
      <use transform="translate(239.404297 0.684375)" xlink:href="#DejaVuSans-28"/>
      <use transform="translate(278.417969 0.684375)" xlink:href="#DejaVuSans-31"/>
      <use transform="translate(361.523438 0.684375)" xlink:href="#DejaVuSans-2b"/>
      <use transform="translate(464.794922 0.684375)" xlink:href="#DejaVuSans-Oblique-7a"/>
      <use transform="translate(517.285156 0.684375)" xlink:href="#DejaVuSans-29"/>
      <use transform="translate(556.298828 0.684375)" xlink:href="#DejaVuSans-5b"/>
      <use transform="translate(595.3125 0.684375)" xlink:href="#DejaVuSans-Oblique-6b"/>
      <use transform="translate(653.222656 0.684375)" xlink:href="#DejaVuSans-Oblique-6d"/>
      <use transform="translate(777.693901 0.684375)" xlink:href="#DejaVuSans-Oblique-73"/>
      <use transform="translate(834.443407 38.965625)scale(0.7)" xlink:href="#DejaVuSans-2212"/>
      <use transform="translate(893.09575 38.965625)scale(0.7)" xlink:href="#DejaVuSans-31"/>
      <use transform="translate(940.366258 0.684375)" xlink:href="#DejaVuSans-Oblique-4d"/>
      <use transform="translate(1026.645555 0.684375)" xlink:href="#DejaVuSans-Oblique-70"/>
      <use transform="translate(1090.122118 0.684375)" xlink:href="#DejaVuSans-Oblique-63"/>
      <use transform="translate(1149.752482 38.965625)scale(0.7)" xlink:href="#DejaVuSans-2212"/>
      <use transform="translate(1208.404826 38.965625)scale(0.7)" xlink:href="#DejaVuSans-31"/>
      <use transform="translate(1255.675334 0.684375)" xlink:href="#DejaVuSans-5d"/>
     </g>
    </g>
   </g>
   <g id="LineCollection_1">
    <path clip-path="url(#p28ca383173)" d="M 46.742 108.921936 
L 49.002449 116.993759 
L 49.925626 119.817749 
L 52.264345 125.465729 
L 55.912474 133.937698 
L 57.292353 136.761688 
L 58.647547 139.794879 
L 61.839598 145.233658 
L 65.123407 150.881638 
L 67.371311 153.705628 
L 70.553093 158.292168 
L 74.152339 162.177597 
L 76.505867 165.079128 
L 79.968966 167.825577 
L 82.45864 170.183406 
L 88.411413 174.255393 
L 92.397364 176.297546 
L 94.364187 177.443145 
L 100.31696 179.853526 
L 106.269733 181.703219 
L 112.222507 182.935912 
L 118.17528 183.628902 
L 124.128053 183.873473 
L 130.080827 183.538382 
L 136.0336 182.886977 
L 141.98728 181.945526 
L 153.89192 179.045797 
L 165.797467 174.986357 
L 171.75024 172.771119 
L 177.703013 170.388479 
L 183.655787 167.758076 
L 189.60856 164.970444 
L 200.790913 159.353607 
L 207.46688 155.812297 
L 221.394816 148.057648 
L 231.277973 142.355163 
L 255.089067 127.735993 
L 289.41744 105.6978 
L 336.899512 74.633911 
L 350.33344 65.810171 
L 358.534181 60.513962 
L 368.19176 54.162036 
L 375.909586 49.218003 
L 384.552835 43.570023 
L 397.955627 34.896789 
L 409.861173 27.307472 
L 409.861173 27.307472 
" style="fill:none;stroke:#000000;stroke-width:2;"/>
    <path clip-path="url(#p28ca383173)" d="M 409.861173 77.797609 
L 370.130737 100.04982 
L 362.238987 104.439078 
L 355.028215 108.52179 
L 338.427893 117.762542 
L 326.522347 124.374752 
L 308.664027 134.270758 
L 277.938193 150.881638 
L 261.04184 159.628285 
L 249.136293 165.610345 
L 237.230747 171.382482 
L 225.3252 176.889735 
L 213.419653 182.096695 
L 206.949483 184.769516 
L 195.561333 189.136705 
L 189.60856 191.277799 
L 183.655787 193.351436 
L 174.788172 196.065475 
L 163.933349 198.889465 
L 153.89192 201.010628 
L 147.939147 201.979536 
L 141.986373 202.709027 
L 136.0336 203.251981 
L 130.080827 203.485807 
L 124.128053 203.507526 
L 118.17528 203.139964 
L 112.222507 202.501965 
L 106.269733 201.444028 
L 100.31696 200.082046 
L 94.364187 198.377662 
L 87.720218 196.065475 
L 81.748382 193.241486 
L 76.505867 190.101451 
L 73.81426 187.593506 
L 70.302993 184.769516 
L 68.178616 181.945526 
L 64.60032 178.128093 
L 61.969472 173.473557 
L 58.333644 167.825577 
L 55.876092 162.177597 
L 52.694773 155.661123 
L 51.042575 150.881638 
L 49.009004 145.233658 
L 47.805577 142.409668 
L 46.742 139.468925 
L 46.742 139.468925 
" style="fill:none;stroke:#000000;stroke-width:2;"/>
   </g>
   <g id="LineCollection_2">
    <path clip-path="url(#p28ca383173)" d="M 409.861173 101.08352 
L 406.400891 102.87381 
L 403.9084 104.153274 
L 400.895053 105.6978 
L 397.955627 107.191682 
L 395.422296 108.52179 
L 392.002853 110.302151 
L 389.966477 111.34578 
L 386.05008 113.333941 
L 384.430985 114.169769 
L 380.097307 116.384757 
L 378.94106 116.993759 
L 374.144533 119.493412 
L 373.509547 119.817749 
L 368.19176 122.502641 
L 367.922375 122.641739 
L 362.383202 125.465729 
L 362.238987 125.538557 
L 356.921481 128.289719 
L 356.286213 128.615543 
L 351.342716 131.113709 
L 350.33344 131.61883 
L 345.744184 133.937698 
L 344.380667 134.619801 
L 340.189621 136.761688 
L 338.427893 137.652998 
L 334.639764 139.585678 
L 332.47512 140.678295 
L 328.996776 142.409668 
L 326.522347 143.626609 
L 323.318098 145.233658 
L 320.569573 146.594891 
L 317.668761 148.057648 
L 314.6168 149.576131 
L 312.018824 150.881638 
L 308.664027 152.54304 
L 306.286326 153.705628 
L 302.711253 155.425366 
L 300.455909 156.529617 
L 296.75848 158.30816 
L 294.621267 159.353607 
L 290.805707 161.184314 
L 288.768534 162.177597 
L 284.852933 164.046747 
L 282.88349 165.001587 
L 278.90016 166.888411 
L 276.908744 167.825577 
L 272.947387 169.641765 
L 270.780827 170.649567 
L 266.994613 172.360784 
L 264.574516 173.473557 
L 261.04184 175.047432 
L 258.282542 176.297546 
L 255.089067 177.695478 
L 251.88328 179.121536 
L 249.136293 180.299052 
L 245.351847 181.945526 
L 243.18352 182.852547 
L 238.658266 184.769516 
L 237.230747 185.350227 
L 231.764249 187.593506 
L 231.277973 187.78527 
L 225.3252 190.140076 
L 224.627966 190.417496 
L 219.372427 192.41398 
L 217.192392 193.241486 
L 213.419653 194.612304 
L 209.36583 196.065475 
L 207.46688 196.72451 
L 201.514107 198.730548 
L 201.038595 198.889465 
L 195.561333 200.66274 
L 192.090943 201.713455 
L 189.60856 202.472117 
L 183.655787 204.155728 
L 182.205106 204.537445 
L 177.703013 205.776178 
L 171.75024 207.133177 
L 170.629281 207.361435 
L 165.797467 208.464509 
L 159.844693 209.611379 
L 156.278229 210.185425 
L 153.89192 210.6331 
L 147.939147 211.487733 
L 141.986373 212.135066 
L 136.0336 212.595106 
L 130.080827 212.779443 
L 124.128053 212.813543 
L 118.17528 212.598106 
L 112.222507 212.250187 
L 106.269733 211.643677 
L 100.31696 210.769377 
L 97.535812 210.185425 
L 94.364187 209.435901 
L 88.411413 207.706565 
L 87.424089 207.361435 
L 82.45864 205.431526 
L 80.648676 204.537445 
L 76.505867 202.389869 
L 75.567947 201.713455 
L 71.623592 198.889465 
L 70.553093 198.12549 
L 68.610666 196.065475 
L 65.897358 193.241486 
L 64.60032 191.980318 
L 63.499866 190.417496 
L 61.708953 187.593506 
L 59.840006 184.769516 
L 58.647547 183.083068 
L 58.065929 181.945526 
L 56.80738 179.121536 
L 55.627991 176.297546 
L 53.973997 173.473557 
L 52.694773 170.889125 
L 52.604485 170.649567 
L 51.634131 167.825577 
L 50.623845 165.001587 
L 49.68024 162.177597 
L 48.521394 159.353607 
L 47.390181 156.529617 
L 46.742 154.506979 
" style="fill:none;stroke:#000000;stroke-width:1.5;"/>
    <path clip-path="url(#p28ca383173)" d="M 46.742 94.852876 
L 48.223091 100.04982 
L 49.163711 102.87381 
L 50.278933 105.6978 
L 52.694773 114.282168 
L 60.017923 131.113709 
L 64.810486 139.585678 
L 66.549547 142.409668 
L 70.553093 148.15204 
L 74.972776 153.705628 
L 77.682379 156.529617 
L 82.45864 161.170133 
L 88.411413 165.699979 
L 94.364187 169.146393 
L 100.31696 171.653046 
L 106.269733 173.31284 
L 112.222507 174.17494 
L 118.17528 174.441801 
L 124.128053 174.257518 
L 130.224858 173.473557 
L 136.0336 172.465452 
L 143.060894 170.649567 
L 147.939147 169.189333 
L 153.89192 167.121848 
L 159.844693 164.71095 
L 165.797467 162.127811 
L 171.855855 159.353607 
L 177.703013 156.509557 
L 188.412678 150.881638 
L 198.487495 145.233658 
L 213.419653 136.21078 
L 221.648892 131.113709 
L 247.414659 114.169769 
L 284.852933 88.427925 
L 292.555426 83.105881 
L 296.75848 80.087411 
L 308.677039 71.809921 
L 336.983577 52.041992 
L 345.062428 46.394013 
L 386.05008 18.121669 
L 394.377093 12.506134 
L 402.650517 6.858155 
L 409.861173 1.9831 
L 409.861173 1.9831 
" style="fill:none;stroke:#000000;stroke-width:1.5;"/>
   </g>
   <g id="LineCollection_3">
    <path clip-path="url(#p28ca383173)" d="M 326.522347 159.551633 
L 326.522347 114.883957 
" style="fill:none;stroke:#ff0000;stroke-width:1.5;"/>
   </g>
   <g id="LineCollection_4">
    <path clip-path="url(#p28ca383173)" d="M 325.331792 132.997396 
L 325.331792 94.084335 
" style="fill:none;stroke:#ff0000;stroke-width:1.5;"/>
   </g>
   <g id="LineCollection_5">
    <path clip-path="url(#p28ca383173)" d="M 91.983077 212.971569 
L 91.983077 183.121649 
" style="fill:none;stroke:#ff0000;stroke-width:1.5;"/>
   </g>
   <g id="LineCollection_6">
    <path clip-path="url(#p28ca383173)" d="M 107.460288 201.001735 
L 107.460288 171.680876 
" style="fill:none;stroke:#ff0000;stroke-width:1.5;"/>
   </g>
   <g id="LineCollection_7">
    <path clip-path="url(#p28ca383173)" d="M 119.365835 191.092124 
L 119.365835 159.630191 
" style="fill:none;stroke:#ff0000;stroke-width:1.5;"/>
   </g>
   <g id="LineCollection_8">
    <path clip-path="url(#p28ca383173)" d="M 47.932555 110.076571 
L 47.932555 96.212343 
" style="fill:none;stroke:#ff0000;stroke-width:1.5;"/>
   </g>
   <g id="LineCollection_9">
    <path clip-path="url(#p28ca383173)" d="M 227.706309 202.504762 
L 227.706309 119.979592 
" style="fill:none;stroke:#ff0000;stroke-width:1.5;"/>
   </g>
   <g id="line2d_31">
    <path clip-path="url(#p28ca383173)" d="M 46.742 118.741714 
L 50.349741 127.825464 
L 53.957483 136.027286 
L 57.565224 143.422551 
L 61.172966 150.079004 
L 64.780707 156.05772 
L 68.388448 161.413896 
L 71.99619 166.19755 
L 75.603931 170.454109 
L 79.211673 174.224914 
L 82.819414 177.547656 
L 86.427156 180.456756 
L 90.034897 182.983697 
L 93.642638 185.157319 
L 97.25038 187.004069 
L 100.858121 188.54824 
L 104.465863 189.812145 
L 108.073604 190.816322 
L 111.681345 191.579686 
L 115.289087 192.119673 
L 118.896828 192.452367 
L 122.50457 192.592618 
L 126.112311 192.554143 
L 129.720053 192.349627 
L 133.327794 191.990803 
L 136.935535 191.488532 
L 140.543277 190.852875 
L 144.151018 190.093168 
L 147.75876 189.218046 
L 151.366501 188.235529 
L 154.974242 187.153064 
L 158.581984 185.977568 
L 162.189725 184.715469 
L 165.797467 183.37274 
L 169.405208 181.954941 
L 173.012949 180.467245 
L 176.620691 178.914467 
L 180.228432 177.301093 
L 183.836174 175.631304 
L 187.443915 173.908997 
L 191.051657 172.137807 
L 194.659398 170.321127 
L 198.267139 168.462136 
L 201.874881 166.563781 
L 205.482622 164.628823 
L 209.090364 162.659843 
L 212.698105 160.659256 
L 216.305846 158.62932 
L 219.913588 156.572148 
L 223.521329 154.489718 
L 227.129071 152.383881 
L 230.736812 150.256373 
L 234.344554 148.108819 
L 237.952295 145.942741 
L 241.560036 143.75957 
L 245.167778 141.560643 
L 248.775519 139.347218 
L 252.383261 137.120475 
L 255.991002 134.881519 
L 259.598743 132.63139 
L 263.206485 130.371065 
L 266.814226 128.10147 
L 270.421968 125.823464 
L 274.029709 123.537849 
L 277.637451 121.245387 
L 281.245192 118.946792 
L 284.852933 116.642736 
L 288.460675 114.333853 
L 292.068416 112.020737 
L 295.676158 109.703949 
L 299.283899 107.384014 
L 302.89164 105.061428 
L 306.499382 102.736657 
L 310.107123 100.41014 
L 313.714865 98.082289 
L 317.322606 95.753494 
L 320.930347 93.42412 
L 324.538089 91.094511 
L 328.14583 88.764991 
L 331.753572 86.435865 
L 335.361313 84.10742 
L 338.969055 81.779925 
L 342.576796 79.453634 
L 346.184537 77.128788 
L 349.792279 74.805609 
L 353.40002 72.484316 
L 357.007762 70.165114 
L 360.615503 67.848177 
L 364.223244 65.533681 
L 367.830986 63.221789 
L 371.438727 60.912658 
L 375.046469 58.606433 
L 378.65421 56.303249 
L 382.261952 54.003236 
L 385.869693 51.706512 
L 389.477434 49.41319 
L 393.085176 47.123376 
L 396.692917 44.837167 
L 400.300659 42.554656 
L 403.9084 40.275929 
" style="fill:none;stroke:#0000ff;stroke-dasharray:14.8,6.4;stroke-dashoffset:0;stroke-width:4;"/>
   </g>
   <g id="line2d_32">
    <defs>
     <path d="M -3 3 
L 3 3 
L 3 -3 
L -3 -3 
z
" id="m18d796c86f" style="stroke:#ff0000;stroke-linejoin:miter;"/>
    </defs>
    <g clip-path="url(#p28ca383173)">
     <use style="fill:#ff0000;stroke:#ff0000;stroke-linejoin:miter;" x="326.522347" xlink:href="#m18d796c86f" y="137.217795"/>
    </g>
   </g>
   <g id="line2d_33">
    <g clip-path="url(#p28ca383173)">
     <use style="fill:#ff0000;stroke:#ff0000;stroke-linejoin:miter;" x="325.331792" xlink:href="#m18d796c86f" y="113.540866"/>
    </g>
   </g>
   <g id="line2d_34">
    <defs>
     <path d="M -0 4.242641 
L 2.545584 0 
L 0 -4.242641 
L -2.545584 -0 
z
" id="m157fc90411" style="stroke:#ff0000;stroke-linejoin:miter;"/>
    </defs>
    <g clip-path="url(#p28ca383173)">
     <use style="fill:#ff0000;stroke:#ff0000;stroke-linejoin:miter;" x="91.983077" xlink:href="#m157fc90411" y="198.046609"/>
    </g>
   </g>
   <g id="line2d_35">
    <g clip-path="url(#p28ca383173)">
     <use style="fill:#ff0000;stroke:#ff0000;stroke-linejoin:miter;" x="107.460288" xlink:href="#m157fc90411" y="186.341306"/>
    </g>
   </g>
   <g id="line2d_36">
    <g clip-path="url(#p28ca383173)">
     <use style="fill:#ff0000;stroke:#ff0000;stroke-linejoin:miter;" x="119.365835" xlink:href="#m157fc90411" y="175.361157"/>
    </g>
   </g>
   <g id="line2d_37">
    <g clip-path="url(#p28ca383173)">
     <use style="fill:#ff0000;stroke:#ff0000;stroke-linejoin:miter;" x="47.932555" xlink:href="#m157fc90411" y="103.144457"/>
    </g>
   </g>
   <g id="line2d_38">
    <g clip-path="url(#p28ca383173)">
     <use style="fill:#ff0000;stroke:#ff0000;stroke-linejoin:miter;" x="227.706309" xlink:href="#m157fc90411" y="161.242177"/>
    </g>
   </g>
   <g id="patch_3">
    <path d="M 46.742 318.04 
L 46.742 14.76 
" style="fill:none;stroke:#000000;stroke-linecap:square;stroke-linejoin:miter;stroke-width:0.8;"/>
   </g>
   <g id="patch_4">
    <path d="M 403.9084 318.04 
L 403.9084 14.76 
" style="fill:none;stroke:#000000;stroke-linecap:square;stroke-linejoin:miter;stroke-width:0.8;"/>
   </g>
   <g id="patch_5">
    <path d="M 46.742 318.04 
L 403.9084 318.04 
" style="fill:none;stroke:#000000;stroke-linecap:square;stroke-linejoin:miter;stroke-width:0.8;"/>
   </g>
   <g id="patch_6">
    <path d="M 46.742 14.76 
L 403.9084 14.76 
" style="fill:none;stroke:#000000;stroke-linecap:square;stroke-linejoin:miter;stroke-width:0.8;"/>
   </g>
   <g id="text_18">
    <!-- BAO+HD+SN -->
    <g transform="translate(47.932555 49.420571)scale(0.13 -0.13)">
     <defs>
      <path d="M 1259 2228 
L 1259 519 
L 2272 519 
Q 2781 519 3026 730 
Q 3272 941 3272 1375 
Q 3272 1813 3026 2020 
Q 2781 2228 2272 2228 
L 1259 2228 
z
M 1259 4147 
L 1259 2741 
L 2194 2741 
Q 2656 2741 2882 2914 
Q 3109 3088 3109 3444 
Q 3109 3797 2882 3972 
Q 2656 4147 2194 4147 
L 1259 4147 
z
M 628 4666 
L 2241 4666 
Q 2963 4666 3353 4366 
Q 3744 4066 3744 3513 
Q 3744 3084 3544 2831 
Q 3344 2578 2956 2516 
Q 3422 2416 3680 2098 
Q 3938 1781 3938 1306 
Q 3938 681 3513 340 
Q 3088 0 2303 0 
L 628 0 
L 628 4666 
z
" id="DejaVuSans-42" transform="scale(0.015625)"/>
      <path d="M 2188 4044 
L 1331 1722 
L 3047 1722 
L 2188 4044 
z
M 1831 4666 
L 2547 4666 
L 4325 0 
L 3669 0 
L 3244 1197 
L 1141 1197 
L 716 0 
L 50 0 
L 1831 4666 
z
" id="DejaVuSans-41" transform="scale(0.015625)"/>
      <path d="M 2522 4238 
Q 1834 4238 1429 3725 
Q 1025 3213 1025 2328 
Q 1025 1447 1429 934 
Q 1834 422 2522 422 
Q 3209 422 3611 934 
Q 4013 1447 4013 2328 
Q 4013 3213 3611 3725 
Q 3209 4238 2522 4238 
z
M 2522 4750 
Q 3503 4750 4090 4092 
Q 4678 3434 4678 2328 
Q 4678 1225 4090 567 
Q 3503 -91 2522 -91 
Q 1538 -91 948 565 
Q 359 1222 359 2328 
Q 359 3434 948 4092 
Q 1538 4750 2522 4750 
z
" id="DejaVuSans-4f" transform="scale(0.015625)"/>
      <path d="M 628 4666 
L 1259 4666 
L 1259 2753 
L 3553 2753 
L 3553 4666 
L 4184 4666 
L 4184 0 
L 3553 0 
L 3553 2222 
L 1259 2222 
L 1259 0 
L 628 0 
L 628 4666 
z
" id="DejaVuSans-48" transform="scale(0.015625)"/>
      <path d="M 1259 4147 
L 1259 519 
L 2022 519 
Q 2988 519 3436 956 
Q 3884 1394 3884 2338 
Q 3884 3275 3436 3711 
Q 2988 4147 2022 4147 
L 1259 4147 
z
M 628 4666 
L 1925 4666 
Q 3281 4666 3915 4102 
Q 4550 3538 4550 2338 
Q 4550 1131 3912 565 
Q 3275 0 1925 0 
L 628 0 
L 628 4666 
z
" id="DejaVuSans-44" transform="scale(0.015625)"/>
      <path d="M 3425 4513 
L 3425 3897 
Q 3066 4069 2747 4153 
Q 2428 4238 2131 4238 
Q 1616 4238 1336 4038 
Q 1056 3838 1056 3469 
Q 1056 3159 1242 3001 
Q 1428 2844 1947 2747 
L 2328 2669 
Q 3034 2534 3370 2195 
Q 3706 1856 3706 1288 
Q 3706 609 3251 259 
Q 2797 -91 1919 -91 
Q 1588 -91 1214 -16 
Q 841 59 441 206 
L 441 856 
Q 825 641 1194 531 
Q 1563 422 1919 422 
Q 2459 422 2753 634 
Q 3047 847 3047 1241 
Q 3047 1584 2836 1778 
Q 2625 1972 2144 2069 
L 1759 2144 
Q 1053 2284 737 2584 
Q 422 2884 422 3419 
Q 422 4038 858 4394 
Q 1294 4750 2059 4750 
Q 2388 4750 2728 4690 
Q 3069 4631 3425 4513 
z
" id="DejaVuSans-53" transform="scale(0.015625)"/>
      <path d="M 628 4666 
L 1478 4666 
L 3547 763 
L 3547 4666 
L 4159 4666 
L 4159 0 
L 3309 0 
L 1241 3903 
L 1241 0 
L 628 0 
L 628 4666 
z
" id="DejaVuSans-4e" transform="scale(0.015625)"/>
     </defs>
     <use xlink:href="#DejaVuSans-42"/>
     <use x="68.603516" xlink:href="#DejaVuSans-41"/>
     <use x="135.261719" xlink:href="#DejaVuSans-4f"/>
     <use x="213.972656" xlink:href="#DejaVuSans-2b"/>
     <use x="297.761719" xlink:href="#DejaVuSans-48"/>
     <use x="372.957031" xlink:href="#DejaVuSans-44"/>
     <use x="449.958984" xlink:href="#DejaVuSans-2b"/>
     <use x="533.748047" xlink:href="#DejaVuSans-53"/>
     <use x="597.224609" xlink:href="#DejaVuSans-4e"/>
    </g>
   </g>
   <g id="legend_1">
    <g id="patch_7">
     <path d="M 53.742 313.04 
L 115.942 313.04 
Q 117.942 313.04 117.942 311.04 
L 117.942 297.361875 
Q 117.942 295.361875 115.942 295.361875 
L 53.742 295.361875 
Q 51.742 295.361875 51.742 297.361875 
L 51.742 311.04 
Q 51.742 313.04 53.742 313.04 
z
" style="fill:#ffffff;opacity:0.8;stroke:#cccccc;stroke-linejoin:miter;"/>
    </g>
    <g id="line2d_39">
     <path d="M 55.742 303.460312 
L 75.742 303.460312 
" style="fill:none;stroke:#0000ff;stroke-dasharray:14.8,6.4;stroke-dashoffset:0;stroke-width:4;"/>
    </g>
    <g id="line2d_40"/>
    <g id="text_19">
     <!-- $\Lambda CDM$ -->
     <g transform="translate(83.742 306.960312)scale(0.1 -0.1)">
      <defs>
       <path d="M 716 0 
L 50 0 
L 1831 4666 
L 2547 4666 
L 4325 0 
L 3669 0 
L 2188 4044 
L 716 0 
z
" id="DejaVuSans-39b" transform="scale(0.015625)"/>
       <path d="M 4447 4306 
L 4319 3641 
Q 4019 3944 3683 4091 
Q 3347 4238 2956 4238 
Q 2422 4238 2017 3981 
Q 1613 3725 1319 3200 
Q 1131 2863 1032 2486 
Q 934 2109 934 1728 
Q 934 1091 1264 756 
Q 1594 422 2222 422 
Q 2656 422 3056 561 
Q 3456 700 3834 978 
L 3688 231 
Q 3316 72 2936 -9 
Q 2556 -91 2175 -91 
Q 1278 -91 773 396 
Q 269 884 269 1753 
Q 269 2309 461 2846 
Q 653 3384 1013 3828 
Q 1394 4300 1883 4525 
Q 2372 4750 3022 4750 
Q 3422 4750 3780 4639 
Q 4138 4528 4447 4306 
z
" id="DejaVuSans-Oblique-43" transform="scale(0.015625)"/>
       <path d="M 1081 4666 
L 2438 4666 
Q 3519 4666 4070 4208 
Q 4622 3750 4622 2847 
Q 4622 2250 4412 1698 
Q 4203 1147 3834 769 
Q 3463 381 2891 190 
Q 2319 0 1538 0 
L 172 0 
L 1081 4666 
z
M 1613 4147 
L 909 519 
L 1734 519 
Q 2794 519 3375 1128 
Q 3956 1738 3956 2847 
Q 3956 3519 3581 3833 
Q 3206 4147 2406 4147 
L 1613 4147 
z
" id="DejaVuSans-Oblique-44" transform="scale(0.015625)"/>
      </defs>
      <use transform="translate(0 0.78125)" xlink:href="#DejaVuSans-39b"/>
      <use transform="translate(68.408203 0.78125)" xlink:href="#DejaVuSans-Oblique-43"/>
      <use transform="translate(138.232422 0.78125)" xlink:href="#DejaVuSans-Oblique-44"/>
      <use transform="translate(215.234375 0.78125)" xlink:href="#DejaVuSans-Oblique-4d"/>
     </g>
    </g>
   </g>
  </g>
  <g id="axes_2">
   <g id="patch_8">
    <path d="M 426.2313 318.04 
L 441.3953 318.04 
L 441.3953 14.76 
L 426.2313 14.76 
z
" style="fill:#ffffff;"/>
   </g>
   <g id="patch_9">
    <path clip-path="url(#ped6b088a18)" d="M 426.2313 318.04 
L 426.2313 242.22 
L 426.2313 90.58 
L 426.2313 14.76 
L 441.3953 14.76 
L 441.3953 90.58 
L 441.3953 242.22 
L 441.3953 318.04 
L 441.3953 318.04 
z
" style="fill:#ffffff;stroke:#ffffff;stroke-linejoin:miter;stroke-width:0.01;"/>
   </g>
   <g id="QuadMesh_1">
    <path clip-path="url(#ped6b088a18)" d="M 426.2313 318.04 
L 441.3953 318.04 
L 441.3953 242.22 
L 426.2313 242.22 
L 426.2313 318.04 
" style="fill:#006d2c;"/>
    <path clip-path="url(#ped6b088a18)" d="M 426.2313 242.22 
L 441.3953 242.22 
L 441.3953 166.4 
L 426.2313 166.4 
L 426.2313 242.22 
" style="fill:#42ab5d;"/>
    <path clip-path="url(#ped6b088a18)" d="M 426.2313 166.4 
L 441.3953 166.4 
L 441.3953 90.58 
L 426.2313 90.58 
L 426.2313 166.4 
" style="fill:#a2d99c;"/>
    <path clip-path="url(#ped6b088a18)" d="M 426.2313 90.58 
L 441.3953 90.58 
L 441.3953 14.76 
L 426.2313 14.76 
L 426.2313 90.58 
" style="fill:#e5f5e1;"/>
   </g>
   <g id="matplotlib.axis_3"/>
   <g id="matplotlib.axis_4">
    <g id="ytick_9">
     <g id="line2d_41">
      <defs>
       <path d="M 0 0 
L 3.5 0 
" id="m1ad27ab085" style="stroke:#000000;stroke-width:0.8;"/>
      </defs>
      <g>
       <use style="stroke:#000000;stroke-width:0.8;" x="441.3953" xlink:href="#m1ad27ab085" y="318.04"/>
      </g>
     </g>
    </g>
    <g id="ytick_10">
     <g id="line2d_42">
      <g>
       <use style="stroke:#000000;stroke-width:0.8;" x="441.3953" xlink:href="#m1ad27ab085" y="166.4"/>
      </g>
     </g>
     <g id="text_20">
      <!-- $1\sigma$ -->
      <g transform="translate(448.3953 170.199219)scale(0.1 -0.1)">
       <defs>
        <path d="M 2219 3044 
Q 1744 3044 1422 2700 
Q 1081 2341 969 1747 
Q 844 1119 1044 756 
Q 1241 397 1706 397 
Q 2166 397 2503 759 
Q 2844 1122 2966 1747 
Q 3075 2319 2881 2700 
Q 2700 3044 2219 3044 
z
M 2309 3503 
L 4219 3500 
L 4106 2925 
L 3463 2925 
Q 3706 2438 3575 1747 
Q 3406 888 2884 400 
Q 2359 -91 1609 -91 
Q 856 -91 525 400 
Q 194 888 363 1747 
Q 528 2609 1050 3097 
Q 1484 3503 2309 3503 
z
" id="DejaVuSans-Oblique-3c3" transform="scale(0.015625)"/>
       </defs>
       <use transform="translate(0 0.09375)" xlink:href="#DejaVuSans-31"/>
       <use transform="translate(63.623047 0.09375)" xlink:href="#DejaVuSans-Oblique-3c3"/>
      </g>
     </g>
    </g>
    <g id="ytick_11">
     <g id="line2d_43">
      <g>
       <use style="stroke:#000000;stroke-width:0.8;" x="441.3953" xlink:href="#m1ad27ab085" y="14.76"/>
      </g>
     </g>
     <g id="text_21">
      <!-- $2\sigma$ -->
      <g transform="translate(448.3953 18.559219)scale(0.1 -0.1)">
       <use transform="translate(0 0.78125)" xlink:href="#DejaVuSans-32"/>
       <use transform="translate(63.623047 0.78125)" xlink:href="#DejaVuSans-Oblique-3c3"/>
      </g>
     </g>
    </g>
   </g>
   <g id="LineCollection_10"/>
   <g id="patch_10">
    <path d="M 426.2313 318.04 
L 426.2313 242.22 
L 426.2313 90.58 
L 426.2313 14.76 
L 441.3953 14.76 
L 441.3953 90.58 
L 441.3953 242.22 
L 441.3953 318.04 
z
" style="fill:none;stroke:#000000;stroke-linecap:square;stroke-linejoin:miter;stroke-width:0.8;"/>
   </g>
  </g>
 </g>
 <defs>
  <clipPath id="p28ca383173">
   <rect height="303.28" width="357.1664" x="46.742" y="14.76"/>
  </clipPath>
  <clipPath id="ped6b088a18">
   <rect height="303.28" width="15.164" x="426.2313" y="14.76"/>
  </clipPath>
 </defs>
</svg>
