<?xml version="1.0" encoding="utf-8" standalone="no"?>
<!DOCTYPE svg PUBLIC "-//W3C//DTD SVG 1.1//EN"
  "http://www.w3.org/Graphics/SVG/1.1/DTD/svg11.dtd">
<svg height="360pt" version="1.1" viewBox="0 0 504 360" width="504pt" xmlns="http://www.w3.org/2000/svg" xmlns:xlink="http://www.w3.org/1999/xlink">
 <metadata>
  <rdf:RDF xmlns:cc="http://creativecommons.org/ns#" xmlns:dc="http://purl.org/dc/elements/1.1/" xmlns:rdf="http://www.w3.org/1999/02/22-rdf-syntax-ns#">
   <cc:Work>
    <dc:type rdf:resource="http://purl.org/dc/dcmitype/StillImage"/>
    <dc:date>2022-04-06T12:21:12.232627</dc:date>
    <dc:format>image/svg+xml</dc:format>
    <dc:creator>
     <cc:Agent>
      <dc:title>Matplotlib v3.4.3, https://matplotlib.org/</dc:title>
     </cc:Agent>
    </dc:creator>
   </cc:Work>
  </rdf:RDF>
 </metadata>
 <defs>
  <style type="text/css">*{stroke-linecap:butt;stroke-linejoin:round;}</style>
 </defs>
 <g id="figure_1">
  <g id="patch_1">
   <path d="M 0 360 
L 504 360 
L 504 0 
L 0 0 
z
" style="fill:none;"/>
  </g>
  <g id="axes_1">
   <g id="patch_2">
    <path d="M 46.742 318.04 
L 403.9084 318.04 
L 403.9084 14.76 
L 46.742 14.76 
z
" style="fill:#ffffff;"/>
   </g>
   <g id="PathCollection_1">
    <defs>
     <path d="M 82.45864 -146.340837 
L 88.411413 -145.602196 
L 94.364187 -145.797996 
L 100.31696 -146.388085 
L 106.269733 -146.947445 
L 112.222507 -147.420644 
L 118.17528 -147.902416 
L 120.953009 -148.165509 
L 124.128053 -148.431373 
L 130.080827 -148.939384 
L 136.0336 -149.449103 
L 141.986373 -150.127375 
L 147.939147 -150.923301 
L 153.89192 -151.792715 
L 156.031019 -152.132385 
L 159.844693 -152.654293 
L 165.797467 -153.552568 
L 171.75024 -154.603482 
L 177.703013 -155.7802 
L 179.264446 -156.099262 
L 183.655787 -157.030229 
L 189.60856 -158.354223 
L 195.561333 -159.730209 
L 196.957472 -160.066138 
L 201.514107 -161.284292 
L 207.46688 -162.881365 
L 211.625598 -164.033015 
L 213.419653 -164.58745 
L 219.372427 -166.438674 
L 224.306487 -167.999891 
L 225.3252 -168.349236 
L 231.277973 -170.383301 
L 235.768288 -171.966768 
L 237.230747 -172.506364 
L 243.18352 -174.653112 
L 246.611309 -175.933644 
L 249.136293 -176.89034 
L 255.089067 -179.135066 
L 257.08684 -179.900521 
L 261.04184 -181.419256 
L 266.994613 -183.762821 
L 267.263071 -183.867397 
L 272.947387 -186.096289 
L 277.255652 -187.834274 
L 278.90016 -188.510094 
L 284.852933 -191.004423 
L 286.746784 -191.80115 
L 290.805707 -193.531057 
L 295.987902 -195.768027 
L 296.75848 -196.104142 
L 302.711253 -198.678013 
L 305.143139 -199.734903 
L 308.664027 -201.270566 
L 314.014326 -203.70178 
L 314.6168 -203.976413 
L 320.569573 -206.686406 
L 322.71947 -207.668656 
L 326.522347 -209.403652 
L 331.395245 -211.635533 
L 332.47512 -212.13014 
L 338.427893 -214.924885 
L 339.858574 -215.602409 
L 344.380667 -217.736296 
L 348.266689 -219.569286 
L 350.33344 -220.542861 
L 356.286213 -223.360201 
L 356.649073 -223.536162 
L 362.238987 -226.233923 
L 364.879999 -227.503039 
L 368.19176 -229.090189 
L 373.17058 -231.469915 
L 374.144533 -231.936381 
L 380.097307 -234.86412 
L 381.278612 -235.436792 
L 386.05008 -237.74002 
L 389.488573 -239.403668 
L 392.002853 -240.6199 
L 397.523535 -243.370545 
L 397.955627 -243.587049 
L 403.9084 -246.461741 
L 405.688879 -247.337421 
L 409.861173 -249.3849 
L 409.861173 -251.304298 
L 409.861173 -255.271174 
L 409.861173 -259.238051 
L 409.861173 -263.204927 
L 409.861173 -267.171804 
L 409.861173 -271.13868 
L 409.861173 -275.105557 
L 409.861173 -279.072433 
L 409.861173 -283.03931 
L 409.861173 -287.006186 
L 409.861173 -288.164751 
L 407.825708 -287.006186 
L 403.9084 -284.799969 
L 400.780433 -283.03931 
L 397.955627 -281.467638 
L 393.790307 -279.072433 
L 392.002853 -278.057842 
L 386.732919 -275.105557 
L 386.05008 -274.728401 
L 380.097307 -271.37474 
L 379.69112 -271.13868 
L 374.144533 -267.958205 
L 372.746872 -267.171804 
L 368.19176 -264.644949 
L 365.65144 -263.204927 
L 362.238987 -261.300808 
L 358.644099 -259.238051 
L 356.286213 -257.908525 
L 351.56728 -255.271174 
L 350.33344 -254.594523 
L 344.422663 -251.304298 
L 344.380667 -251.281401 
L 338.427893 -247.932625 
L 337.384118 -247.337421 
L 332.47512 -244.595164 
L 330.264707 -243.370545 
L 326.522347 -241.34228 
L 323.028614 -239.403668 
L 320.569573 -238.07116 
L 315.814845 -235.436792 
L 314.6168 -234.789386 
L 308.664027 -231.526455 
L 308.560327 -231.469915 
L 302.711253 -228.359259 
L 301.128438 -227.503039 
L 296.75848 -225.195973 
L 293.656642 -223.536162 
L 290.805707 -222.044826 
L 286.118034 -219.569286 
L 284.852933 -218.914775 
L 278.90016 -215.813519 
L 278.489636 -215.602409 
L 272.947387 -212.807105 
L 270.621073 -211.635533 
L 266.994613 -209.838978 
L 262.607203 -207.668656 
L 261.04184 -206.907196 
L 255.089067 -204.002413 
L 254.476161 -203.70178 
L 249.136293 -201.120655 
L 246.253647 -199.734903 
L 243.18352 -198.285321 
L 237.84772 -195.768027 
L 237.230747 -195.487894 
L 231.277973 -192.75424 
L 229.175083 -191.80115 
L 225.3252 -190.134511 
L 220.050014 -187.834274 
L 219.372427 -187.563947 
L 213.419653 -185.171638 
L 210.143855 -183.867397 
L 207.46688 -182.892924 
L 201.514107 -180.708853 
L 199.210014 -179.900521 
L 195.561333 -178.712214 
L 189.60856 -176.792437 
L 186.759917 -175.933644 
L 183.655787 -175.025525 
L 177.703013 -173.346156 
L 172.177332 -171.966768 
L 171.75024 -171.859304 
L 165.797467 -170.446494 
L 159.844693 -169.19018 
L 153.89192 -168.071578 
L 153.460894 -167.999891 
L 147.939147 -167.063561 
L 141.986373 -166.180268 
L 136.0336 -165.557398 
L 130.080827 -165.31663 
L 124.128053 -165.261914 
L 118.17528 -165.440373 
L 112.222507 -165.867495 
L 106.269733 -166.467728 
L 100.31696 -167.17735 
L 94.364187 -167.900215 
L 93.732987 -167.999891 
L 88.411413 -169.025981 
L 82.45864 -170.353956 
L 76.867792 -171.966768 
L 76.505867 -172.086467 
L 71.408723 -175.933644 
L 70.553093 -176.499088 
L 68.198609 -179.900521 
L 65.69375 -183.867397 
L 64.60032 -185.032731 
L 62.429436 -187.834274 
L 60.168195 -191.80115 
L 58.647547 -195.205854 
L 58.33437 -195.768027 
L 56.792594 -199.734903 
L 55.313264 -203.70178 
L 53.983013 -207.668656 
L 52.721516 -211.635533 
L 52.694773 -211.721719 
L 50.40209 -215.602409 
L 49.8805 -219.569286 
L 49.698431 -223.536162 
L 49.39729 -227.503039 
L 48.600995 -231.469915 
L 47.627557 -235.436792 
L 46.742 -238.950385 
L 46.742 -235.436792 
L 46.742 -231.469915 
L 46.742 -227.503039 
L 46.742 -223.536162 
L 46.742 -219.569286 
L 46.742 -215.602409 
L 46.742 -211.635533 
L 46.742 -207.668656 
L 46.742 -205.474316 
L 47.495852 -203.70178 
L 48.190845 -199.734903 
L 48.867584 -195.768027 
L 50.091333 -191.80115 
L 51.576986 -187.834274 
L 52.694773 -185.195656 
L 53.342316 -183.867397 
L 55.073525 -179.900521 
L 56.736204 -175.933644 
L 58.647547 -172.033276 
L 58.70099 -171.966768 
L 61.674824 -167.999891 
L 63.98684 -164.033015 
L 64.60032 -162.736467 
L 66.314997 -160.066138 
L 69.04767 -156.099262 
L 70.553093 -153.862379 
L 72.432034 -152.132385 
L 76.505867 -148.488039 
L 77.449068 -148.165509 
z
" id="m99d545b7d5" style="stroke:#006d2c;"/>
    </defs>
    <g clip-path="url(#p4f94d0e0de)">
     <use style="fill:#006d2c;stroke:#006d2c;" x="0" xlink:href="#m99d545b7d5" y="360"/>
    </g>
   </g>
   <g id="PathCollection_2">
    <path clip-path="url(#p4f94d0e0de)" d="M 82.45864 228.038105 
L 88.411413 228.382834 
L 93.645197 227.701997 
L 94.364187 227.609541 
L 100.31696 226.530361 
L 106.269733 225.197855 
L 112.222507 223.750342 
L 112.285228 223.735121 
L 118.17528 222.441651 
L 124.128053 221.254248 
L 130.080827 219.970712 
L 131.022205 219.768244 
L 136.0336 218.826578 
L 141.986373 217.772154 
L 147.939147 216.880183 
L 153.89192 215.997288 
L 155.094305 215.801368 
L 159.844693 215.128721 
L 165.797467 214.221766 
L 171.75024 213.229949 
L 177.703013 212.15637 
L 179.293368 211.834491 
L 183.655787 211.018775 
L 189.60856 209.809368 
L 195.561333 208.484013 
L 198.160173 207.867615 
L 201.514107 207.13779 
L 207.46688 205.794694 
L 213.419653 204.330016 
L 215.138361 203.900738 
L 219.372427 202.862972 
L 225.3252 201.343707 
L 230.852293 199.933862 
L 231.277973 199.814674 
L 237.230747 198.054398 
L 243.18352 196.416707 
L 244.693549 195.966985 
L 249.136293 194.484859 
L 255.089067 192.669276 
L 257.168186 192.000109 
L 261.04184 190.610115 
L 266.994613 188.649766 
L 268.783108 188.033232 
L 272.947387 186.490714 
L 278.90016 184.403283 
L 279.809579 184.066356 
L 284.852933 182.139922 
L 290.247497 180.099479 
L 290.805707 179.878653 
L 296.75848 177.620705 
L 300.626423 176.132603 
L 302.711253 175.312303 
L 308.664027 173.040375 
L 310.863915 172.165726 
L 314.6168 170.653998 
L 320.569573 168.245258 
L 320.686417 168.19885 
L 326.522347 165.857394 
L 330.576769 164.231973 
L 332.47512 163.451959 
L 338.427893 160.974643 
L 340.139106 160.265097 
L 344.380667 158.46797 
L 349.576556 156.29822 
L 350.33344 155.973913 
L 356.286213 153.468531 
L 358.929998 152.331344 
L 362.238987 150.874723 
L 368.064999 148.364467 
L 368.19176 148.308616 
L 374.144533 145.757558 
L 377.224703 144.397591 
L 380.097307 143.102189 
L 386.05008 140.487475 
L 386.182336 140.430714 
L 392.002853 137.879227 
L 395.161813 136.463838 
L 397.955627 135.188728 
L 403.9084 132.552629 
L 404.034617 132.496961 
L 409.861173 129.876739 
L 409.861173 128.530085 
L 409.861173 124.563208 
L 409.861173 120.596332 
L 409.861173 116.629455 
L 409.861173 112.662579 
L 409.861173 110.6151 
L 405.688879 112.662579 
L 403.9084 113.538259 
L 397.955627 116.412951 
L 397.523535 116.629455 
L 392.002853 119.3801 
L 389.488573 120.596332 
L 386.05008 122.25998 
L 381.278612 124.563208 
L 380.097307 125.13588 
L 374.144533 128.063619 
L 373.17058 128.530085 
L 368.19176 130.909811 
L 364.879999 132.496961 
L 362.238987 133.766077 
L 356.649073 136.463838 
L 356.286213 136.639799 
L 350.33344 139.457139 
L 348.266689 140.430714 
L 344.380667 142.263704 
L 339.858574 144.397591 
L 338.427893 145.075115 
L 332.47512 147.86986 
L 331.395245 148.364467 
L 326.522347 150.596348 
L 322.71947 152.331344 
L 320.569573 153.313594 
L 314.6168 156.023587 
L 314.014326 156.29822 
L 308.664027 158.729434 
L 305.143139 160.265097 
L 302.711253 161.321987 
L 296.75848 163.895858 
L 295.987902 164.231973 
L 290.805707 166.468943 
L 286.746784 168.19885 
L 284.852933 168.995577 
L 278.90016 171.489906 
L 277.255652 172.165726 
L 272.947387 173.903711 
L 267.263071 176.132603 
L 266.994613 176.237179 
L 261.04184 178.580744 
L 257.08684 180.099479 
L 255.089067 180.864934 
L 249.136293 183.10966 
L 246.611309 184.066356 
L 243.18352 185.346888 
L 237.230747 187.493636 
L 235.768288 188.033232 
L 231.277973 189.616699 
L 225.3252 191.650764 
L 224.306487 192.000109 
L 219.372427 193.561326 
L 213.419653 195.41255 
L 211.625598 195.966985 
L 207.46688 197.118635 
L 201.514107 198.715708 
L 196.957472 199.933862 
L 195.561333 200.269791 
L 189.60856 201.645777 
L 183.655787 202.969771 
L 179.264446 203.900738 
L 177.703013 204.2198 
L 171.75024 205.396518 
L 165.797467 206.447432 
L 159.844693 207.345707 
L 156.031019 207.867615 
L 153.89192 208.207285 
L 147.939147 209.076699 
L 141.986373 209.872625 
L 136.0336 210.550897 
L 130.080827 211.060616 
L 124.128053 211.568627 
L 120.953009 211.834491 
L 118.17528 212.097584 
L 112.222507 212.579356 
L 106.269733 213.052555 
L 100.31696 213.611915 
L 94.364187 214.202004 
L 88.411413 214.397804 
L 82.45864 213.659163 
L 77.449068 211.834491 
L 76.505867 211.511961 
L 72.432034 207.867615 
L 70.553093 206.137621 
L 69.04767 203.900738 
L 66.314997 199.933862 
L 64.60032 197.263533 
L 63.98684 195.966985 
L 61.674824 192.000109 
L 58.70099 188.033232 
L 58.647547 187.966724 
L 56.736204 184.066356 
L 55.073525 180.099479 
L 53.342316 176.132603 
L 52.694773 174.804344 
L 51.576986 172.165726 
L 50.091333 168.19885 
L 48.867584 164.231973 
L 48.190845 160.265097 
L 47.495852 156.29822 
L 46.742 154.525684 
L 46.742 156.29822 
L 46.742 160.265097 
L 46.742 164.231973 
L 46.742 168.19885 
L 46.742 172.165726 
L 46.742 173.61175 
L 47.621888 176.132603 
L 49.211524 180.099479 
L 51.114144 184.066356 
L 52.694773 186.943272 
L 53.184523 188.033232 
L 55.026812 192.000109 
L 56.931801 195.966985 
L 58.647547 199.364389 
L 58.980231 199.933862 
L 61.134963 203.900738 
L 63.17358 207.867615 
L 64.60032 210.76285 
L 65.37247 211.834491 
L 68.220463 215.801368 
L 70.553093 219.414195 
L 70.941238 219.768244 
L 75.157921 223.735121 
L 76.505867 225.097197 
L 81.769137 227.701997 
z
" style="fill:#42ab5d;stroke:#42ab5d;"/>
    <path clip-path="url(#p4f94d0e0de)" d="M 94.364187 192.099785 
L 100.31696 192.82265 
L 106.269733 193.532272 
L 112.222507 194.132505 
L 118.17528 194.559627 
L 124.128053 194.738086 
L 130.080827 194.68337 
L 136.0336 194.442602 
L 141.986373 193.819732 
L 147.939147 192.936439 
L 153.460894 192.000109 
L 153.89192 191.928422 
L 159.844693 190.80982 
L 165.797467 189.553506 
L 171.75024 188.140696 
L 172.177332 188.033232 
L 177.703013 186.653844 
L 183.655787 184.974475 
L 186.759917 184.066356 
L 189.60856 183.207563 
L 195.561333 181.287786 
L 199.210014 180.099479 
L 201.514107 179.291147 
L 207.46688 177.107076 
L 210.143855 176.132603 
L 213.419653 174.828362 
L 219.372427 172.436053 
L 220.050014 172.165726 
L 225.3252 169.865489 
L 229.175083 168.19885 
L 231.277973 167.24576 
L 237.230747 164.512106 
L 237.84772 164.231973 
L 243.18352 161.714679 
L 246.253647 160.265097 
L 249.136293 158.879345 
L 254.476161 156.29822 
L 255.089067 155.997587 
L 261.04184 153.092804 
L 262.607203 152.331344 
L 266.994613 150.161022 
L 270.621073 148.364467 
L 272.947387 147.192895 
L 278.489636 144.397591 
L 278.90016 144.186481 
L 284.852933 141.085225 
L 286.118034 140.430714 
L 290.805707 137.955174 
L 293.656642 136.463838 
L 296.75848 134.804027 
L 301.128438 132.496961 
L 302.711253 131.640741 
L 308.560327 128.530085 
L 308.664027 128.473545 
L 314.6168 125.210614 
L 315.814845 124.563208 
L 320.569573 121.92884 
L 323.028614 120.596332 
L 326.522347 118.65772 
L 330.264707 116.629455 
L 332.47512 115.404836 
L 337.384118 112.662579 
L 338.427893 112.067375 
L 344.380667 108.718599 
L 344.422663 108.695702 
L 350.33344 105.405477 
L 351.56728 104.728826 
L 356.286213 102.091475 
L 358.644099 100.761949 
L 362.238987 98.699192 
L 365.65144 96.795073 
L 368.19176 95.355051 
L 372.746872 92.828196 
L 374.144533 92.041795 
L 379.69112 88.86132 
L 380.097307 88.62526 
L 386.05008 85.271599 
L 386.732919 84.894443 
L 392.002853 81.942158 
L 393.790307 80.927567 
L 397.955627 78.532362 
L 400.780433 76.96069 
L 403.9084 75.200031 
L 407.825708 72.993814 
L 409.861173 71.835249 
L 409.861173 69.026937 
L 409.861173 65.06006 
L 409.861173 61.093184 
L 409.861173 57.126307 
L 409.861173 53.159431 
L 409.861173 49.917846 
L 404.469772 53.159431 
L 403.9084 53.494577 
L 397.955627 57.040652 
L 397.816158 57.126307 
L 392.002853 60.668421 
L 391.29466 61.093184 
L 386.05008 64.215132 
L 384.649748 65.06006 
L 380.097307 67.78756 
L 378.079477 69.026937 
L 374.144533 71.427794 
L 371.517794 72.993814 
L 368.19176 74.964442 
L 364.873723 76.96069 
L 362.238987 78.53653 
L 358.319641 80.927567 
L 356.286213 82.161079 
L 351.702456 84.894443 
L 350.33344 85.706368 
L 345.04011 88.86132 
L 344.380667 89.252213 
L 338.442897 92.828196 
L 338.427893 92.837181 
L 332.47512 96.420952 
L 331.842279 96.795073 
L 326.522347 99.925329 
L 325.117317 100.761949 
L 320.569573 103.45653 
L 318.444929 104.728826 
L 314.6168 107.008448 
L 311.793313 108.695702 
L 308.664027 110.553534 
L 305.050789 112.662579 
L 302.711253 114.01754 
L 298.255917 116.629455 
L 296.75848 117.497895 
L 291.488039 120.596332 
L 290.805707 120.991567 
L 284.852933 124.495556 
L 284.737628 124.563208 
L 278.90016 127.991744 
L 277.959306 128.530085 
L 272.947387 131.38996 
L 270.998852 132.496961 
L 266.994613 134.744597 
L 263.945692 136.463838 
L 261.04184 138.059669 
L 256.782119 140.430714 
L 255.089067 141.334964 
L 249.468706 144.397591 
L 249.136293 144.569226 
L 243.18352 147.677886 
L 241.877902 148.364467 
L 237.230747 150.6788 
L 233.963507 152.331344 
L 231.277973 153.609836 
L 225.691705 156.29822 
L 225.3252 156.465868 
L 219.372427 159.212419 
L 217.07155 160.265097 
L 213.419653 161.882434 
L 207.99894 164.231973 
L 207.46688 164.457988 
L 201.514107 167.028058 
L 198.684585 168.19885 
L 195.561333 169.473452 
L 189.60856 171.807406 
L 188.685092 172.165726 
L 183.655787 174.07098 
L 177.723141 176.132603 
L 177.703013 176.139409 
L 171.75024 178.033829 
L 165.797467 179.685429 
L 164.176395 180.099479 
L 159.844693 181.232251 
L 153.89192 182.604439 
L 147.939147 183.650455 
L 145.029459 184.066356 
L 141.986373 184.548078 
L 136.0336 185.449675 
L 130.080827 186.08325 
L 124.128053 186.389187 
L 118.17528 186.222328 
L 112.222507 185.808152 
L 106.269733 185.00309 
L 101.425979 184.066356 
L 100.31696 183.860459 
L 94.364187 182.54161 
L 88.411413 181.214962 
L 83.243642 180.099479 
L 82.45864 179.899338 
L 76.505867 177.400762 
L 74.611547 176.132603 
L 70.553093 173.278785 
L 69.75398 172.165726 
L 66.449315 168.19885 
L 64.60032 166.212167 
L 63.697861 164.231973 
L 62.081513 160.265097 
L 60.29266 156.29822 
L 58.647547 153.238541 
L 58.310251 152.331344 
L 56.939573 148.364467 
L 55.68674 144.397591 
L 54.49183 140.430714 
L 53.292022 136.463838 
L 52.694773 134.459069 
L 52.293729 132.496961 
L 51.502839 128.530085 
L 50.644159 124.563208 
L 49.722552 120.596332 
L 48.792732 116.629455 
L 47.869254 112.662579 
L 47.047812 108.695702 
L 46.742 107.074547 
L 46.742 108.695702 
L 46.742 112.662579 
L 46.742 116.629455 
L 46.742 120.596332 
L 46.742 121.049615 
L 47.627557 124.563208 
L 48.600995 128.530085 
L 49.39729 132.496961 
L 49.698431 136.463838 
L 49.8805 140.430714 
L 50.40209 144.397591 
L 52.694773 148.278281 
L 52.721516 148.364467 
L 53.983013 152.331344 
L 55.313264 156.29822 
L 56.792594 160.265097 
L 58.33437 164.231973 
L 58.647547 164.794146 
L 60.168195 168.19885 
L 62.429436 172.165726 
L 64.60032 174.967269 
L 65.69375 176.132603 
L 68.198609 180.099479 
L 70.553093 183.500912 
L 71.408723 184.066356 
L 76.505867 187.913533 
L 76.867792 188.033232 
L 82.45864 189.646044 
L 88.411413 190.974019 
L 93.732987 192.000109 
z
" style="fill:#42ab5d;stroke:#42ab5d;"/>
   </g>
   <g id="PathCollection_3">
    <path clip-path="url(#p4f94d0e0de)" d="M 82.45864 240.704696 
L 88.411413 242.287475 
L 94.364187 242.042934 
L 100.31696 240.724628 
L 103.625392 239.602627 
L 106.269733 238.77985 
L 112.222507 236.548569 
L 114.412851 235.63575 
L 118.17528 234.242104 
L 124.128053 232.26452 
L 126.098643 231.668874 
L 130.080827 230.590919 
L 136.0336 229.308495 
L 141.986373 228.199169 
L 144.352497 227.701997 
L 147.939147 226.892469 
L 153.89192 225.67373 
L 159.844693 224.489858 
L 163.643606 223.735121 
L 165.797467 223.280015 
L 171.75024 222.16992 
L 177.703013 221.11681 
L 183.655787 220.033111 
L 185.15741 219.768244 
L 189.60856 218.974908 
L 195.561333 217.900512 
L 201.514107 216.77398 
L 206.376316 215.801368 
L 207.46688 215.58041 
L 213.419653 214.362193 
L 219.372427 213.080284 
L 224.93731 211.834491 
L 225.3252 211.746033 
L 231.277973 210.391687 
L 237.230747 208.973505 
L 241.769581 207.867615 
L 243.18352 207.516114 
L 249.136293 206.005414 
L 255.089067 204.440729 
L 257.104916 203.900738 
L 261.04184 202.83156 
L 266.994613 201.167406 
L 271.302246 199.933862 
L 272.947387 199.45861 
L 278.90016 197.699306 
L 284.451024 195.966985 
L 284.852933 195.840305 
L 290.805707 193.941525 
L 296.75848 192.00859 
L 296.784437 192.000109 
L 302.711253 190.042844 
L 308.664027 188.061469 
L 308.745681 188.033232 
L 314.6168 185.9728 
L 319.996467 184.066356 
L 320.569573 183.858837 
L 326.522347 181.72533 
L 331.090938 180.099479 
L 332.47512 179.596495 
L 338.427893 177.374951 
L 341.74771 176.132603 
L 344.380667 175.128905 
L 350.33344 172.897091 
L 352.285972 172.165726 
L 356.286213 170.64318 
L 362.238987 168.311434 
L 362.532913 168.19885 
L 368.19176 166.001036 
L 372.792148 164.231973 
L 374.144533 163.705075 
L 380.097307 161.308104 
L 382.747031 160.265097 
L 386.05008 158.949808 
L 392.002853 156.59575 
L 392.737352 156.29822 
L 397.955627 154.161412 
L 402.534251 152.331344 
L 403.9084 151.776613 
L 409.861173 149.354549 
L 409.861173 148.364467 
L 409.861173 144.397591 
L 409.861173 140.430714 
L 409.861173 136.463838 
L 409.861173 132.496961 
L 409.861173 129.876739 
L 404.034617 132.496961 
L 403.9084 132.552629 
L 397.955627 135.188728 
L 395.161813 136.463838 
L 392.002853 137.879227 
L 386.182336 140.430714 
L 386.05008 140.487475 
L 380.097307 143.102189 
L 377.224703 144.397591 
L 374.144533 145.757558 
L 368.19176 148.308616 
L 368.064999 148.364467 
L 362.238987 150.874723 
L 358.929998 152.331344 
L 356.286213 153.468531 
L 350.33344 155.973913 
L 349.576556 156.29822 
L 344.380667 158.46797 
L 340.139106 160.265097 
L 338.427893 160.974643 
L 332.47512 163.451959 
L 330.576769 164.231973 
L 326.522347 165.857394 
L 320.686417 168.19885 
L 320.569573 168.245258 
L 314.6168 170.653998 
L 310.863915 172.165726 
L 308.664027 173.040375 
L 302.711253 175.312303 
L 300.626423 176.132603 
L 296.75848 177.620705 
L 290.805707 179.878653 
L 290.247497 180.099479 
L 284.852933 182.139922 
L 279.809579 184.066356 
L 278.90016 184.403283 
L 272.947387 186.490714 
L 268.783108 188.033232 
L 266.994613 188.649766 
L 261.04184 190.610115 
L 257.168186 192.000109 
L 255.089067 192.669276 
L 249.136293 194.484859 
L 244.693549 195.966985 
L 243.18352 196.416707 
L 237.230747 198.054398 
L 231.277973 199.814674 
L 230.852293 199.933862 
L 225.3252 201.343707 
L 219.372427 202.862972 
L 215.138361 203.900738 
L 213.419653 204.330016 
L 207.46688 205.794694 
L 201.514107 207.13779 
L 198.160173 207.867615 
L 195.561333 208.484013 
L 189.60856 209.809368 
L 183.655787 211.018775 
L 179.293368 211.834491 
L 177.703013 212.15637 
L 171.75024 213.229949 
L 165.797467 214.221766 
L 159.844693 215.128721 
L 155.094305 215.801368 
L 153.89192 215.997288 
L 147.939147 216.880183 
L 141.986373 217.772154 
L 136.0336 218.826578 
L 131.022205 219.768244 
L 130.080827 219.970712 
L 124.128053 221.254248 
L 118.17528 222.441651 
L 112.285228 223.735121 
L 112.222507 223.750342 
L 106.269733 225.197855 
L 100.31696 226.530361 
L 94.364187 227.609541 
L 93.645197 227.701997 
L 88.411413 228.382834 
L 82.45864 228.038105 
L 81.769137 227.701997 
L 76.505867 225.097197 
L 75.157921 223.735121 
L 70.941238 219.768244 
L 70.553093 219.414195 
L 68.220463 215.801368 
L 65.37247 211.834491 
L 64.60032 210.76285 
L 63.17358 207.867615 
L 61.134963 203.900738 
L 58.980231 199.933862 
L 58.647547 199.364389 
L 56.931801 195.966985 
L 55.026812 192.000109 
L 53.184523 188.033232 
L 52.694773 186.943272 
L 51.114144 184.066356 
L 49.211524 180.099479 
L 47.621888 176.132603 
L 46.742 173.61175 
L 46.742 176.132603 
L 46.742 180.099479 
L 46.742 184.066356 
L 46.742 188.033232 
L 46.742 189.717488 
L 47.859953 192.000109 
L 50.129676 195.966985 
L 52.694773 199.535726 
L 52.879923 199.933862 
L 54.807557 203.900738 
L 57.039365 207.867615 
L 58.647547 210.220128 
L 59.542958 211.834491 
L 61.569304 215.801368 
L 64.022048 219.768244 
L 64.60032 220.853499 
L 66.280389 223.735121 
L 68.669311 227.701997 
L 70.553093 230.471717 
L 71.707327 231.668874 
L 75.328585 235.63575 
L 76.505867 236.933154 
L 80.852366 239.602627 
z
" style="fill:#a2d99c;stroke:#a2d99c;"/>
    <path clip-path="url(#p4f94d0e0de)" d="M 106.269733 185.00309 
L 112.222507 185.808152 
L 118.17528 186.222328 
L 124.128053 186.389187 
L 130.080827 186.08325 
L 136.0336 185.449675 
L 141.986373 184.548078 
L 145.029459 184.066356 
L 147.939147 183.650455 
L 153.89192 182.604439 
L 159.844693 181.232251 
L 164.176395 180.099479 
L 165.797467 179.685429 
L 171.75024 178.033829 
L 177.703013 176.139409 
L 177.723141 176.132603 
L 183.655787 174.07098 
L 188.685092 172.165726 
L 189.60856 171.807406 
L 195.561333 169.473452 
L 198.684585 168.19885 
L 201.514107 167.028058 
L 207.46688 164.457988 
L 207.99894 164.231973 
L 213.419653 161.882434 
L 217.07155 160.265097 
L 219.372427 159.212419 
L 225.3252 156.465868 
L 225.691705 156.29822 
L 231.277973 153.609836 
L 233.963507 152.331344 
L 237.230747 150.6788 
L 241.877902 148.364467 
L 243.18352 147.677886 
L 249.136293 144.569226 
L 249.468706 144.397591 
L 255.089067 141.334964 
L 256.782119 140.430714 
L 261.04184 138.059669 
L 263.945692 136.463838 
L 266.994613 134.744597 
L 270.998852 132.496961 
L 272.947387 131.38996 
L 277.959306 128.530085 
L 278.90016 127.991744 
L 284.737628 124.563208 
L 284.852933 124.495556 
L 290.805707 120.991567 
L 291.488039 120.596332 
L 296.75848 117.497895 
L 298.255917 116.629455 
L 302.711253 114.01754 
L 305.050789 112.662579 
L 308.664027 110.553534 
L 311.793313 108.695702 
L 314.6168 107.008448 
L 318.444929 104.728826 
L 320.569573 103.45653 
L 325.117317 100.761949 
L 326.522347 99.925329 
L 331.842279 96.795073 
L 332.47512 96.420952 
L 338.427893 92.837181 
L 338.442897 92.828196 
L 344.380667 89.252213 
L 345.04011 88.86132 
L 350.33344 85.706368 
L 351.702456 84.894443 
L 356.286213 82.161079 
L 358.319641 80.927567 
L 362.238987 78.53653 
L 364.873723 76.96069 
L 368.19176 74.964442 
L 371.517794 72.993814 
L 374.144533 71.427794 
L 378.079477 69.026937 
L 380.097307 67.78756 
L 384.649748 65.06006 
L 386.05008 64.215132 
L 391.29466 61.093184 
L 392.002853 60.668421 
L 397.816158 57.126307 
L 397.955627 57.040652 
L 403.9084 53.494577 
L 404.469772 53.159431 
L 409.861173 49.917846 
L 409.861173 49.192554 
L 409.861173 45.225678 
L 409.861173 41.258801 
L 409.861173 37.291925 
L 409.861173 33.325048 
L 409.861173 29.358172 
L 409.861173 27.056079 
L 406.304815 29.358172 
L 403.9084 30.889756 
L 400.120754 33.325048 
L 397.955627 34.698446 
L 394.016096 37.291925 
L 392.002853 38.59915 
L 387.881088 41.258801 
L 386.05008 42.422838 
L 381.742707 45.225678 
L 380.097307 46.279884 
L 375.708441 49.192554 
L 374.144533 50.214132 
L 369.592553 53.159431 
L 368.19176 54.050292 
L 363.491357 57.126307 
L 362.238987 57.931417 
L 357.483447 61.093184 
L 356.286213 61.874875 
L 351.405114 65.06006 
L 350.33344 65.745881 
L 345.314873 69.026937 
L 344.380667 69.625455 
L 339.28886 72.993814 
L 338.427893 73.551731 
L 333.27496 76.96069 
L 332.47512 77.478583 
L 327.15515 80.927567 
L 326.522347 81.328352 
L 321.062604 84.894443 
L 320.569573 85.208759 
L 315.007174 88.86132 
L 314.6168 89.111206 
L 308.941727 92.828196 
L 308.664027 93.005153 
L 302.740385 96.795073 
L 302.711253 96.813149 
L 296.75848 100.621306 
L 296.546273 100.761949 
L 290.805707 104.429173 
L 290.353197 104.728826 
L 284.852933 108.229578 
L 284.146575 108.695702 
L 278.90016 112.013925 
L 277.892747 112.662579 
L 272.947387 115.703127 
L 271.493496 116.629455 
L 266.994613 119.359601 
L 265.03101 120.596332 
L 261.04184 122.985616 
L 258.498306 124.563208 
L 255.089067 126.574554 
L 251.874428 128.530085 
L 249.136293 130.120128 
L 245.136615 132.496961 
L 243.18352 133.614288 
L 238.258812 136.463838 
L 237.230747 137.044401 
L 231.277973 140.391747 
L 231.209105 140.430714 
L 225.3252 143.648968 
L 223.953254 144.397591 
L 219.372427 146.851713 
L 216.498513 148.364467 
L 213.419653 149.974471 
L 208.776553 152.331344 
L 207.46688 152.991703 
L 201.514107 155.887929 
L 200.643424 156.29822 
L 195.561333 158.645353 
L 191.915905 160.265097 
L 189.60856 161.270019 
L 183.655787 163.761541 
L 182.488456 164.231973 
L 177.703013 166.12665 
L 172.065098 168.19885 
L 171.75024 168.311613 
L 165.797467 170.35281 
L 160.158598 172.165726 
L 159.844693 172.261112 
L 153.89192 173.960587 
L 147.939147 175.388821 
L 143.898792 176.132603 
L 141.986373 176.43539 
L 136.0336 177.075493 
L 130.080827 177.451923 
L 124.128053 177.80535 
L 118.17528 177.844921 
L 112.222507 177.536325 
L 106.269733 176.744371 
L 103.262325 176.132603 
L 100.31696 175.478684 
L 94.364187 173.75674 
L 89.946671 172.165726 
L 88.411413 171.592283 
L 82.45864 168.624457 
L 81.722907 168.19885 
L 76.505867 164.802089 
L 75.775488 164.231973 
L 71.226104 160.265097 
L 70.553093 159.61825 
L 67.802623 156.29822 
L 65.106426 152.331344 
L 64.60032 151.585088 
L 62.774444 148.364467 
L 60.448122 144.397591 
L 58.728046 140.430714 
L 58.647547 140.229615 
L 57.513702 136.463838 
L 56.20274 132.496961 
L 54.921032 128.530085 
L 53.820376 124.563208 
L 52.823878 120.596332 
L 52.694773 120.049419 
L 51.905309 116.629455 
L 50.971796 112.662579 
L 50.061726 108.695702 
L 49.206105 104.728826 
L 48.454943 100.761949 
L 47.790758 96.795073 
L 47.166911 92.828196 
L 46.742 90.066901 
L 46.742 92.828196 
L 46.742 96.795073 
L 46.742 100.761949 
L 46.742 104.728826 
L 46.742 107.074547 
L 47.047812 108.695702 
L 47.869254 112.662579 
L 48.792732 116.629455 
L 49.722552 120.596332 
L 50.644159 124.563208 
L 51.502839 128.530085 
L 52.293729 132.496961 
L 52.694773 134.459069 
L 53.292022 136.463838 
L 54.49183 140.430714 
L 55.68674 144.397591 
L 56.939573 148.364467 
L 58.310251 152.331344 
L 58.647547 153.238541 
L 60.29266 156.29822 
L 62.081513 160.265097 
L 63.697861 164.231973 
L 64.60032 166.212167 
L 66.449315 168.19885 
L 69.75398 172.165726 
L 70.553093 173.278785 
L 74.611547 176.132603 
L 76.505867 177.400762 
L 82.45864 179.899338 
L 83.243642 180.099479 
L 88.411413 181.214962 
L 94.364187 182.54161 
L 100.31696 183.860459 
L 101.425979 184.066356 
z
" style="fill:#a2d99c;stroke:#a2d99c;"/>
   </g>
   <g id="PathCollection_4">
    <path clip-path="url(#p4f94d0e0de)" d="M 88.411413 261.110409 
L 94.364187 261.218286 
L 100.31696 259.638614 
L 100.75539 259.437009 
L 106.269733 256.65902 
L 108.345138 255.470133 
L 112.222507 253.404675 
L 115.541923 251.503256 
L 118.17528 250.160506 
L 122.895081 247.53638 
L 124.128053 246.901377 
L 130.080827 243.666775 
L 130.284491 243.569503 
L 136.0336 240.664456 
L 138.418477 239.602627 
L 141.986373 238.10631 
L 147.939147 235.945945 
L 148.956329 235.63575 
L 153.89192 234.384572 
L 159.844693 233.161923 
L 165.797467 232.168601 
L 169.528506 231.668874 
L 171.75024 231.416271 
L 177.703013 230.694504 
L 183.655787 229.861166 
L 189.60856 228.998027 
L 195.561333 228.097682 
L 198.086739 227.701997 
L 201.514107 227.219293 
L 207.46688 226.35199 
L 213.419653 225.429544 
L 219.372427 224.395646 
L 222.761703 223.735121 
L 225.3252 223.286919 
L 231.277973 222.245808 
L 237.230747 221.097291 
L 243.18352 219.768813 
L 243.186116 219.768244 
L 249.136293 218.636981 
L 255.089067 217.396317 
L 261.04184 216.009485 
L 261.971212 215.801368 
L 266.994613 214.772679 
L 272.947387 213.440663 
L 278.90016 212.01043 
L 279.642834 211.834491 
L 284.852933 210.613864 
L 290.805707 209.099927 
L 295.611393 207.867615 
L 296.75848 207.574731 
L 302.711253 206.029137 
L 308.664027 204.421722 
L 310.580026 203.900738 
L 314.6168 202.762767 
L 320.569573 201.009206 
L 324.30999 199.933862 
L 326.522347 199.281127 
L 332.47512 197.494107 
L 337.405049 195.966985 
L 338.427893 195.645653 
L 344.380667 193.730916 
L 349.819461 192.000109 
L 350.33344 191.835722 
L 356.286213 189.89727 
L 361.784826 188.033232 
L 362.238987 187.879248 
L 368.19176 185.868895 
L 373.552312 184.066356 
L 374.144533 183.867741 
L 380.097307 181.756954 
L 384.855724 180.099479 
L 386.05008 179.684186 
L 392.002853 177.599904 
L 396.052024 176.132603 
L 397.955627 175.443009 
L 403.9084 173.31661 
L 407.092353 172.165726 
L 409.861173 171.164212 
L 409.861173 168.19885 
L 409.861173 164.231973 
L 409.861173 160.265097 
L 409.861173 156.29822 
L 409.861173 152.331344 
L 409.861173 149.354549 
L 403.9084 151.776613 
L 402.534251 152.331344 
L 397.955627 154.161412 
L 392.737352 156.29822 
L 392.002853 156.59575 
L 386.05008 158.949808 
L 382.747031 160.265097 
L 380.097307 161.308104 
L 374.144533 163.705075 
L 372.792148 164.231973 
L 368.19176 166.001036 
L 362.532913 168.19885 
L 362.238987 168.311434 
L 356.286213 170.64318 
L 352.285972 172.165726 
L 350.33344 172.897091 
L 344.380667 175.128905 
L 341.74771 176.132603 
L 338.427893 177.374951 
L 332.47512 179.596495 
L 331.090938 180.099479 
L 326.522347 181.72533 
L 320.569573 183.858837 
L 319.996467 184.066356 
L 314.6168 185.9728 
L 308.745681 188.033232 
L 308.664027 188.061469 
L 302.711253 190.042844 
L 296.784437 192.000109 
L 296.75848 192.00859 
L 290.805707 193.941525 
L 284.852933 195.840305 
L 284.451024 195.966985 
L 278.90016 197.699306 
L 272.947387 199.45861 
L 271.302246 199.933862 
L 266.994613 201.167406 
L 261.04184 202.83156 
L 257.104916 203.900738 
L 255.089067 204.440729 
L 249.136293 206.005414 
L 243.18352 207.516114 
L 241.769581 207.867615 
L 237.230747 208.973505 
L 231.277973 210.391687 
L 225.3252 211.746033 
L 224.93731 211.834491 
L 219.372427 213.080284 
L 213.419653 214.362193 
L 207.46688 215.58041 
L 206.376316 215.801368 
L 201.514107 216.77398 
L 195.561333 217.900512 
L 189.60856 218.974908 
L 185.15741 219.768244 
L 183.655787 220.033111 
L 177.703013 221.11681 
L 171.75024 222.16992 
L 165.797467 223.280015 
L 163.643606 223.735121 
L 159.844693 224.489858 
L 153.89192 225.67373 
L 147.939147 226.892469 
L 144.352497 227.701997 
L 141.986373 228.199169 
L 136.0336 229.308495 
L 130.080827 230.590919 
L 126.098643 231.668874 
L 124.128053 232.26452 
L 118.17528 234.242104 
L 114.412851 235.63575 
L 112.222507 236.548569 
L 106.269733 238.77985 
L 103.625392 239.602627 
L 100.31696 240.724628 
L 94.364187 242.042934 
L 88.411413 242.287475 
L 82.45864 240.704696 
L 80.852366 239.602627 
L 76.505867 236.933154 
L 75.328585 235.63575 
L 71.707327 231.668874 
L 70.553093 230.471717 
L 68.669311 227.701997 
L 66.280389 223.735121 
L 64.60032 220.853499 
L 64.022048 219.768244 
L 61.569304 215.801368 
L 59.542958 211.834491 
L 58.647547 210.220128 
L 57.039365 207.867615 
L 54.807557 203.900738 
L 52.879923 199.933862 
L 52.694773 199.535726 
L 50.129676 195.966985 
L 47.859953 192.000109 
L 46.742 189.717488 
L 46.742 192.000109 
L 46.742 195.966985 
L 46.742 199.933862 
L 46.742 203.900738 
L 46.742 207.499665 
L 47.05272 207.867615 
L 51.258306 211.834491 
L 52.694773 212.815006 
L 54.543621 215.801368 
L 57.248545 219.768244 
L 58.647547 221.780541 
L 59.631013 223.735121 
L 61.408936 227.701997 
L 63.125824 231.668874 
L 64.60032 234.681066 
L 65.190183 235.63575 
L 67.453261 239.602627 
L 69.379987 243.569503 
L 70.553093 246.202482 
L 71.649179 247.53638 
L 74.571101 251.503256 
L 76.505867 254.323578 
L 77.987825 255.470133 
L 82.45864 258.842021 
L 84.02327 259.437009 
z
" style="fill:#e5f5e1;stroke:#e5f5e1;"/>
    <path clip-path="url(#p4f94d0e0de)" d="M 106.269733 176.744371 
L 112.222507 177.536325 
L 118.17528 177.844921 
L 124.128053 177.80535 
L 130.080827 177.451923 
L 136.0336 177.075493 
L 141.986373 176.43539 
L 143.898792 176.132603 
L 147.939147 175.388821 
L 153.89192 173.960587 
L 159.844693 172.261112 
L 160.158598 172.165726 
L 165.797467 170.35281 
L 171.75024 168.311613 
L 172.065098 168.19885 
L 177.703013 166.12665 
L 182.488456 164.231973 
L 183.655787 163.761541 
L 189.60856 161.270019 
L 191.915905 160.265097 
L 195.561333 158.645353 
L 200.643424 156.29822 
L 201.514107 155.887929 
L 207.46688 152.991703 
L 208.776553 152.331344 
L 213.419653 149.974471 
L 216.498513 148.364467 
L 219.372427 146.851713 
L 223.953254 144.397591 
L 225.3252 143.648968 
L 231.209105 140.430714 
L 231.277973 140.391747 
L 237.230747 137.044401 
L 238.258812 136.463838 
L 243.18352 133.614288 
L 245.136615 132.496961 
L 249.136293 130.120128 
L 251.874428 128.530085 
L 255.089067 126.574554 
L 258.498306 124.563208 
L 261.04184 122.985616 
L 265.03101 120.596332 
L 266.994613 119.359601 
L 271.493496 116.629455 
L 272.947387 115.703127 
L 277.892747 112.662579 
L 278.90016 112.013925 
L 284.146575 108.695702 
L 284.852933 108.229578 
L 290.353197 104.728826 
L 290.805707 104.429173 
L 296.546273 100.761949 
L 296.75848 100.621306 
L 302.711253 96.813149 
L 302.740385 96.795073 
L 308.664027 93.005153 
L 308.941727 92.828196 
L 314.6168 89.111206 
L 315.007174 88.86132 
L 320.569573 85.208759 
L 321.062604 84.894443 
L 326.522347 81.328352 
L 327.15515 80.927567 
L 332.47512 77.478583 
L 333.27496 76.96069 
L 338.427893 73.551731 
L 339.28886 72.993814 
L 344.380667 69.625455 
L 345.314873 69.026937 
L 350.33344 65.745881 
L 351.405114 65.06006 
L 356.286213 61.874875 
L 357.483447 61.093184 
L 362.238987 57.931417 
L 363.491357 57.126307 
L 368.19176 54.050292 
L 369.592553 53.159431 
L 374.144533 50.214132 
L 375.708441 49.192554 
L 380.097307 46.279884 
L 381.742707 45.225678 
L 386.05008 42.422838 
L 387.881088 41.258801 
L 392.002853 38.59915 
L 394.016096 37.291925 
L 397.955627 34.698446 
L 400.120754 33.325048 
L 403.9084 30.889756 
L 406.304815 29.358172 
L 409.861173 27.056079 
L 409.861173 25.391295 
L 409.861173 21.424419 
L 409.861173 17.457542 
L 409.861173 13.490666 
L 409.861173 9.523789 
L 409.861173 5.556913 
L 409.861173 3.968364 
L 407.56947 5.556913 
L 403.9084 8.047829 
L 401.767706 9.523789 
L 397.955627 12.104876 
L 395.995974 13.490666 
L 392.002853 16.255744 
L 390.270899 17.457542 
L 386.05008 20.332622 
L 384.491337 21.424419 
L 380.097307 24.445237 
L 378.772967 25.391295 
L 374.144533 28.638099 
L 373.111574 29.358172 
L 368.19176 32.737411 
L 367.357731 33.325048 
L 362.238987 36.887398 
L 361.67286 37.291925 
L 356.286213 41.110084 
L 356.074276 41.258801 
L 350.401536 45.225678 
L 350.33344 45.272332 
L 344.784852 49.192554 
L 344.380667 49.470529 
L 339.232825 53.159431 
L 338.427893 53.719769 
L 333.670295 57.126307 
L 332.47512 57.960821 
L 327.994919 61.093184 
L 326.522347 62.107998 
L 322.330875 65.06006 
L 320.569573 66.285526 
L 316.694359 69.026937 
L 314.6168 70.483731 
L 311.053795 72.993814 
L 308.664027 74.671045 
L 305.330671 76.96069 
L 302.711253 78.768231 
L 299.571263 80.927567 
L 296.75848 82.875167 
L 293.819913 84.894443 
L 290.805707 86.984119 
L 288.067652 88.86132 
L 284.852933 91.088006 
L 282.306493 92.828196 
L 278.90016 95.180676 
L 276.482771 96.795073 
L 272.947387 99.188154 
L 270.581244 100.761949 
L 266.994613 103.175722 
L 264.655727 104.728826 
L 261.04184 107.149755 
L 258.707462 108.695702 
L 255.089067 111.106182 
L 252.72803 112.662579 
L 249.136293 115.03875 
L 246.705673 116.629455 
L 243.18352 118.938085 
L 240.623728 120.596332 
L 237.230747 122.791642 
L 234.459268 124.563208 
L 231.277973 126.584404 
L 228.181899 128.530085 
L 225.3252 130.300038 
L 221.752399 132.496961 
L 219.372427 133.922697 
L 215.121015 136.463838 
L 213.419653 137.439925 
L 208.226329 140.430714 
L 207.46688 140.844581 
L 201.514107 144.157834 
L 201.073746 144.397591 
L 195.561333 147.350324 
L 193.586172 148.364467 
L 189.60856 150.354801 
L 185.474229 152.331344 
L 183.655787 153.172755 
L 177.703013 155.823733 
L 176.497177 156.29822 
L 171.75024 158.221034 
L 165.797467 160.154304 
L 165.388734 160.265097 
L 159.844693 162.198143 
L 153.89192 163.998904 
L 153.008207 164.231973 
L 147.939147 165.660773 
L 141.986373 167.034861 
L 136.880097 168.19885 
L 136.0336 168.376354 
L 130.080827 168.937588 
L 124.128053 168.988599 
L 118.17528 168.683542 
L 114.130233 168.19885 
L 112.222507 167.930938 
L 106.269733 166.946819 
L 100.31696 166.008412 
L 94.364187 164.59295 
L 93.384166 164.231973 
L 88.411413 161.948589 
L 85.341939 160.265097 
L 82.45864 158.723065 
L 79.044468 156.29822 
L 76.505867 154.695503 
L 74.03559 152.331344 
L 70.553093 148.95735 
L 70.102355 148.364467 
L 67.11651 144.397591 
L 64.60032 140.925574 
L 64.340712 140.430714 
L 62.591011 136.463838 
L 60.724097 132.496961 
L 58.716356 128.530085 
L 58.647547 128.39004 
L 57.335424 124.563208 
L 56.006848 120.596332 
L 54.983227 116.629455 
L 54.075086 112.662579 
L 53.093514 108.695702 
L 52.694773 107.196185 
L 52.094236 104.728826 
L 51.25276 100.761949 
L 50.543791 96.795073 
L 49.877225 92.828196 
L 49.160323 88.86132 
L 48.442429 84.894443 
L 47.801033 80.927567 
L 47.266318 76.96069 
L 46.771856 72.993814 
L 46.742 72.741292 
L 46.742 72.993814 
L 46.742 76.96069 
L 46.742 80.927567 
L 46.742 84.894443 
L 46.742 88.86132 
L 46.742 90.066901 
L 47.166911 92.828196 
L 47.790758 96.795073 
L 48.454943 100.761949 
L 49.206105 104.728826 
L 50.061726 108.695702 
L 50.971796 112.662579 
L 51.905309 116.629455 
L 52.694773 120.049419 
L 52.823878 120.596332 
L 53.820376 124.563208 
L 54.921032 128.530085 
L 56.20274 132.496961 
L 57.513702 136.463838 
L 58.647547 140.229615 
L 58.728046 140.430714 
L 60.448122 144.397591 
L 62.774444 148.364467 
L 64.60032 151.585088 
L 65.106426 152.331344 
L 67.802623 156.29822 
L 70.553093 159.61825 
L 71.226104 160.265097 
L 75.775488 164.231973 
L 76.505867 164.802089 
L 81.722907 168.19885 
L 82.45864 168.624457 
L 88.411413 171.592283 
L 89.946671 172.165726 
L 94.364187 173.75674 
L 100.31696 175.478684 
L 103.262325 176.132603 
z
" style="fill:#e5f5e1;stroke:#e5f5e1;"/>
   </g>
   <g id="matplotlib.axis_1">
    <g id="xtick_1">
     <g id="line2d_1">
      <path clip-path="url(#p4f94d0e0de)" d="M 46.742 318.04 
L 46.742 14.76 
" style="fill:none;stroke:#b0b0b0;stroke-linecap:square;stroke-width:0.8;"/>
     </g>
     <g id="line2d_2">
      <defs>
       <path d="M 0 0 
L 0 3.5 
" id="mc220040e1b" style="stroke:#000000;stroke-width:0.8;"/>
      </defs>
      <g>
       <use style="stroke:#000000;stroke-width:0.8;" x="46.742" xlink:href="#mc220040e1b" y="318.04"/>
      </g>
     </g>
     <g id="text_1">
      <!-- 0.0 -->
      <g transform="translate(38.790437 332.638438)scale(0.1 -0.1)">
       <defs>
        <path d="M 2034 4250 
Q 1547 4250 1301 3770 
Q 1056 3291 1056 2328 
Q 1056 1369 1301 889 
Q 1547 409 2034 409 
Q 2525 409 2770 889 
Q 3016 1369 3016 2328 
Q 3016 3291 2770 3770 
Q 2525 4250 2034 4250 
z
M 2034 4750 
Q 2819 4750 3233 4129 
Q 3647 3509 3647 2328 
Q 3647 1150 3233 529 
Q 2819 -91 2034 -91 
Q 1250 -91 836 529 
Q 422 1150 422 2328 
Q 422 3509 836 4129 
Q 1250 4750 2034 4750 
z
" id="DejaVuSans-30" transform="scale(0.015625)"/>
        <path d="M 684 794 
L 1344 794 
L 1344 0 
L 684 0 
L 684 794 
z
" id="DejaVuSans-2e" transform="scale(0.015625)"/>
       </defs>
       <use xlink:href="#DejaVuSans-30"/>
       <use x="63.623047" xlink:href="#DejaVuSans-2e"/>
       <use x="95.410156" xlink:href="#DejaVuSans-30"/>
      </g>
     </g>
    </g>
    <g id="xtick_2">
     <g id="line2d_3">
      <path clip-path="url(#p4f94d0e0de)" d="M 106.269733 318.04 
L 106.269733 14.76 
" style="fill:none;stroke:#b0b0b0;stroke-linecap:square;stroke-width:0.8;"/>
     </g>
     <g id="line2d_4">
      <g>
       <use style="stroke:#000000;stroke-width:0.8;" x="106.269733" xlink:href="#mc220040e1b" y="318.04"/>
      </g>
     </g>
     <g id="text_2">
      <!-- 0.5 -->
      <g transform="translate(98.318171 332.638438)scale(0.1 -0.1)">
       <defs>
        <path d="M 691 4666 
L 3169 4666 
L 3169 4134 
L 1269 4134 
L 1269 2991 
Q 1406 3038 1543 3061 
Q 1681 3084 1819 3084 
Q 2600 3084 3056 2656 
Q 3513 2228 3513 1497 
Q 3513 744 3044 326 
Q 2575 -91 1722 -91 
Q 1428 -91 1123 -41 
Q 819 9 494 109 
L 494 744 
Q 775 591 1075 516 
Q 1375 441 1709 441 
Q 2250 441 2565 725 
Q 2881 1009 2881 1497 
Q 2881 1984 2565 2268 
Q 2250 2553 1709 2553 
Q 1456 2553 1204 2497 
Q 953 2441 691 2322 
L 691 4666 
z
" id="DejaVuSans-35" transform="scale(0.015625)"/>
       </defs>
       <use xlink:href="#DejaVuSans-30"/>
       <use x="63.623047" xlink:href="#DejaVuSans-2e"/>
       <use x="95.410156" xlink:href="#DejaVuSans-35"/>
      </g>
     </g>
    </g>
    <g id="xtick_3">
     <g id="line2d_5">
      <path clip-path="url(#p4f94d0e0de)" d="M 165.797467 318.04 
L 165.797467 14.76 
" style="fill:none;stroke:#b0b0b0;stroke-linecap:square;stroke-width:0.8;"/>
     </g>
     <g id="line2d_6">
      <g>
       <use style="stroke:#000000;stroke-width:0.8;" x="165.797467" xlink:href="#mc220040e1b" y="318.04"/>
      </g>
     </g>
     <g id="text_3">
      <!-- 1.0 -->
      <g transform="translate(157.845904 332.638438)scale(0.1 -0.1)">
       <defs>
        <path d="M 794 531 
L 1825 531 
L 1825 4091 
L 703 3866 
L 703 4441 
L 1819 4666 
L 2450 4666 
L 2450 531 
L 3481 531 
L 3481 0 
L 794 0 
L 794 531 
z
" id="DejaVuSans-31" transform="scale(0.015625)"/>
       </defs>
       <use xlink:href="#DejaVuSans-31"/>
       <use x="63.623047" xlink:href="#DejaVuSans-2e"/>
       <use x="95.410156" xlink:href="#DejaVuSans-30"/>
      </g>
     </g>
    </g>
    <g id="xtick_4">
     <g id="line2d_7">
      <path clip-path="url(#p4f94d0e0de)" d="M 225.3252 318.04 
L 225.3252 14.76 
" style="fill:none;stroke:#b0b0b0;stroke-linecap:square;stroke-width:0.8;"/>
     </g>
     <g id="line2d_8">
      <g>
       <use style="stroke:#000000;stroke-width:0.8;" x="225.3252" xlink:href="#mc220040e1b" y="318.04"/>
      </g>
     </g>
     <g id="text_4">
      <!-- 1.5 -->
      <g transform="translate(217.373637 332.638438)scale(0.1 -0.1)">
       <use xlink:href="#DejaVuSans-31"/>
       <use x="63.623047" xlink:href="#DejaVuSans-2e"/>
       <use x="95.410156" xlink:href="#DejaVuSans-35"/>
      </g>
     </g>
    </g>
    <g id="xtick_5">
     <g id="line2d_9">
      <path clip-path="url(#p4f94d0e0de)" d="M 284.852933 318.04 
L 284.852933 14.76 
" style="fill:none;stroke:#b0b0b0;stroke-linecap:square;stroke-width:0.8;"/>
     </g>
     <g id="line2d_10">
      <g>
       <use style="stroke:#000000;stroke-width:0.8;" x="284.852933" xlink:href="#mc220040e1b" y="318.04"/>
      </g>
     </g>
     <g id="text_5">
      <!-- 2.0 -->
      <g transform="translate(276.901371 332.638438)scale(0.1 -0.1)">
       <defs>
        <path d="M 1228 531 
L 3431 531 
L 3431 0 
L 469 0 
L 469 531 
Q 828 903 1448 1529 
Q 2069 2156 2228 2338 
Q 2531 2678 2651 2914 
Q 2772 3150 2772 3378 
Q 2772 3750 2511 3984 
Q 2250 4219 1831 4219 
Q 1534 4219 1204 4116 
Q 875 4013 500 3803 
L 500 4441 
Q 881 4594 1212 4672 
Q 1544 4750 1819 4750 
Q 2544 4750 2975 4387 
Q 3406 4025 3406 3419 
Q 3406 3131 3298 2873 
Q 3191 2616 2906 2266 
Q 2828 2175 2409 1742 
Q 1991 1309 1228 531 
z
" id="DejaVuSans-32" transform="scale(0.015625)"/>
       </defs>
       <use xlink:href="#DejaVuSans-32"/>
       <use x="63.623047" xlink:href="#DejaVuSans-2e"/>
       <use x="95.410156" xlink:href="#DejaVuSans-30"/>
      </g>
     </g>
    </g>
    <g id="xtick_6">
     <g id="line2d_11">
      <path clip-path="url(#p4f94d0e0de)" d="M 344.380667 318.04 
L 344.380667 14.76 
" style="fill:none;stroke:#b0b0b0;stroke-linecap:square;stroke-width:0.8;"/>
     </g>
     <g id="line2d_12">
      <g>
       <use style="stroke:#000000;stroke-width:0.8;" x="344.380667" xlink:href="#mc220040e1b" y="318.04"/>
      </g>
     </g>
     <g id="text_6">
      <!-- 2.5 -->
      <g transform="translate(336.429104 332.638438)scale(0.1 -0.1)">
       <use xlink:href="#DejaVuSans-32"/>
       <use x="63.623047" xlink:href="#DejaVuSans-2e"/>
       <use x="95.410156" xlink:href="#DejaVuSans-35"/>
      </g>
     </g>
    </g>
    <g id="xtick_7">
     <g id="line2d_13">
      <path clip-path="url(#p4f94d0e0de)" d="M 403.9084 318.04 
L 403.9084 14.76 
" style="fill:none;stroke:#b0b0b0;stroke-linecap:square;stroke-width:0.8;"/>
     </g>
     <g id="line2d_14">
      <g>
       <use style="stroke:#000000;stroke-width:0.8;" x="403.9084" xlink:href="#mc220040e1b" y="318.04"/>
      </g>
     </g>
     <g id="text_7">
      <!-- 3.0 -->
      <g transform="translate(395.956837 332.638438)scale(0.1 -0.1)">
       <defs>
        <path d="M 2597 2516 
Q 3050 2419 3304 2112 
Q 3559 1806 3559 1356 
Q 3559 666 3084 287 
Q 2609 -91 1734 -91 
Q 1441 -91 1130 -33 
Q 819 25 488 141 
L 488 750 
Q 750 597 1062 519 
Q 1375 441 1716 441 
Q 2309 441 2620 675 
Q 2931 909 2931 1356 
Q 2931 1769 2642 2001 
Q 2353 2234 1838 2234 
L 1294 2234 
L 1294 2753 
L 1863 2753 
Q 2328 2753 2575 2939 
Q 2822 3125 2822 3475 
Q 2822 3834 2567 4026 
Q 2313 4219 1838 4219 
Q 1578 4219 1281 4162 
Q 984 4106 628 3988 
L 628 4550 
Q 988 4650 1302 4700 
Q 1616 4750 1894 4750 
Q 2613 4750 3031 4423 
Q 3450 4097 3450 3541 
Q 3450 3153 3228 2886 
Q 3006 2619 2597 2516 
z
" id="DejaVuSans-33" transform="scale(0.015625)"/>
       </defs>
       <use xlink:href="#DejaVuSans-33"/>
       <use x="63.623047" xlink:href="#DejaVuSans-2e"/>
       <use x="95.410156" xlink:href="#DejaVuSans-30"/>
      </g>
     </g>
    </g>
    <g id="text_8">
     <!-- $z$ -->
     <g transform="translate(222.6752 346.316563)scale(0.1 -0.1)">
      <defs>
       <path d="M 744 3500 
L 3475 3500 
L 3372 2975 
L 738 459 
L 2913 459 
L 2822 0 
L -19 0 
L 84 525 
L 2719 3041 
L 653 3041 
L 744 3500 
z
" id="DejaVuSans-Oblique-7a" transform="scale(0.015625)"/>
      </defs>
      <use transform="translate(0 0.3125)" xlink:href="#DejaVuSans-Oblique-7a"/>
     </g>
    </g>
   </g>
   <g id="matplotlib.axis_2">
    <g id="ytick_1">
     <g id="line2d_15">
      <path clip-path="url(#p4f94d0e0de)" d="M 46.742 318.04 
L 403.9084 318.04 
" style="fill:none;stroke:#b0b0b0;stroke-linecap:square;stroke-width:0.8;"/>
     </g>
     <g id="line2d_16">
      <defs>
       <path d="M 0 0 
L -3.5 0 
" id="macd603730e" style="stroke:#000000;stroke-width:0.8;"/>
      </defs>
      <g>
       <use style="stroke:#000000;stroke-width:0.8;" x="46.742" xlink:href="#macd603730e" y="318.04"/>
      </g>
     </g>
     <g id="text_9">
      <!-- 45 -->
      <g transform="translate(27.017 321.839219)scale(0.1 -0.1)">
       <defs>
        <path d="M 2419 4116 
L 825 1625 
L 2419 1625 
L 2419 4116 
z
M 2253 4666 
L 3047 4666 
L 3047 1625 
L 3713 1625 
L 3713 1100 
L 3047 1100 
L 3047 0 
L 2419 0 
L 2419 1100 
L 313 1100 
L 313 1709 
L 2253 4666 
z
" id="DejaVuSans-34" transform="scale(0.015625)"/>
       </defs>
       <use xlink:href="#DejaVuSans-34"/>
       <use x="63.623047" xlink:href="#DejaVuSans-35"/>
      </g>
     </g>
    </g>
    <g id="ytick_2">
     <g id="line2d_17">
      <path clip-path="url(#p4f94d0e0de)" d="M 46.742 274.714286 
L 403.9084 274.714286 
" style="fill:none;stroke:#b0b0b0;stroke-linecap:square;stroke-width:0.8;"/>
     </g>
     <g id="line2d_18">
      <g>
       <use style="stroke:#000000;stroke-width:0.8;" x="46.742" xlink:href="#macd603730e" y="274.714286"/>
      </g>
     </g>
     <g id="text_10">
      <!-- 50 -->
      <g transform="translate(27.017 278.513504)scale(0.1 -0.1)">
       <use xlink:href="#DejaVuSans-35"/>
       <use x="63.623047" xlink:href="#DejaVuSans-30"/>
      </g>
     </g>
    </g>
    <g id="ytick_3">
     <g id="line2d_19">
      <path clip-path="url(#p4f94d0e0de)" d="M 46.742 231.388571 
L 403.9084 231.388571 
" style="fill:none;stroke:#b0b0b0;stroke-linecap:square;stroke-width:0.8;"/>
     </g>
     <g id="line2d_20">
      <g>
       <use style="stroke:#000000;stroke-width:0.8;" x="46.742" xlink:href="#macd603730e" y="231.388571"/>
      </g>
     </g>
     <g id="text_11">
      <!-- 55 -->
      <g transform="translate(27.017 235.18779)scale(0.1 -0.1)">
       <use xlink:href="#DejaVuSans-35"/>
       <use x="63.623047" xlink:href="#DejaVuSans-35"/>
      </g>
     </g>
    </g>
    <g id="ytick_4">
     <g id="line2d_21">
      <path clip-path="url(#p4f94d0e0de)" d="M 46.742 188.062857 
L 403.9084 188.062857 
" style="fill:none;stroke:#b0b0b0;stroke-linecap:square;stroke-width:0.8;"/>
     </g>
     <g id="line2d_22">
      <g>
       <use style="stroke:#000000;stroke-width:0.8;" x="46.742" xlink:href="#macd603730e" y="188.062857"/>
      </g>
     </g>
     <g id="text_12">
      <!-- 60 -->
      <g transform="translate(27.017 191.862076)scale(0.1 -0.1)">
       <defs>
        <path d="M 2113 2584 
Q 1688 2584 1439 2293 
Q 1191 2003 1191 1497 
Q 1191 994 1439 701 
Q 1688 409 2113 409 
Q 2538 409 2786 701 
Q 3034 994 3034 1497 
Q 3034 2003 2786 2293 
Q 2538 2584 2113 2584 
z
M 3366 4563 
L 3366 3988 
Q 3128 4100 2886 4159 
Q 2644 4219 2406 4219 
Q 1781 4219 1451 3797 
Q 1122 3375 1075 2522 
Q 1259 2794 1537 2939 
Q 1816 3084 2150 3084 
Q 2853 3084 3261 2657 
Q 3669 2231 3669 1497 
Q 3669 778 3244 343 
Q 2819 -91 2113 -91 
Q 1303 -91 875 529 
Q 447 1150 447 2328 
Q 447 3434 972 4092 
Q 1497 4750 2381 4750 
Q 2619 4750 2861 4703 
Q 3103 4656 3366 4563 
z
" id="DejaVuSans-36" transform="scale(0.015625)"/>
       </defs>
       <use xlink:href="#DejaVuSans-36"/>
       <use x="63.623047" xlink:href="#DejaVuSans-30"/>
      </g>
     </g>
    </g>
    <g id="ytick_5">
     <g id="line2d_23">
      <path clip-path="url(#p4f94d0e0de)" d="M 46.742 144.737143 
L 403.9084 144.737143 
" style="fill:none;stroke:#b0b0b0;stroke-linecap:square;stroke-width:0.8;"/>
     </g>
     <g id="line2d_24">
      <g>
       <use style="stroke:#000000;stroke-width:0.8;" x="46.742" xlink:href="#macd603730e" y="144.737143"/>
      </g>
     </g>
     <g id="text_13">
      <!-- 65 -->
      <g transform="translate(27.017 148.536362)scale(0.1 -0.1)">
       <use xlink:href="#DejaVuSans-36"/>
       <use x="63.623047" xlink:href="#DejaVuSans-35"/>
      </g>
     </g>
    </g>
    <g id="ytick_6">
     <g id="line2d_25">
      <path clip-path="url(#p4f94d0e0de)" d="M 46.742 101.411429 
L 403.9084 101.411429 
" style="fill:none;stroke:#b0b0b0;stroke-linecap:square;stroke-width:0.8;"/>
     </g>
     <g id="line2d_26">
      <g>
       <use style="stroke:#000000;stroke-width:0.8;" x="46.742" xlink:href="#macd603730e" y="101.411429"/>
      </g>
     </g>
     <g id="text_14">
      <!-- 70 -->
      <g transform="translate(27.017 105.210647)scale(0.1 -0.1)">
       <defs>
        <path d="M 525 4666 
L 3525 4666 
L 3525 4397 
L 1831 0 
L 1172 0 
L 2766 4134 
L 525 4134 
L 525 4666 
z
" id="DejaVuSans-37" transform="scale(0.015625)"/>
       </defs>
       <use xlink:href="#DejaVuSans-37"/>
       <use x="63.623047" xlink:href="#DejaVuSans-30"/>
      </g>
     </g>
    </g>
    <g id="ytick_7">
     <g id="line2d_27">
      <path clip-path="url(#p4f94d0e0de)" d="M 46.742 58.085714 
L 403.9084 58.085714 
" style="fill:none;stroke:#b0b0b0;stroke-linecap:square;stroke-width:0.8;"/>
     </g>
     <g id="line2d_28">
      <g>
       <use style="stroke:#000000;stroke-width:0.8;" x="46.742" xlink:href="#macd603730e" y="58.085714"/>
      </g>
     </g>
     <g id="text_15">
      <!-- 75 -->
      <g transform="translate(27.017 61.884933)scale(0.1 -0.1)">
       <use xlink:href="#DejaVuSans-37"/>
       <use x="63.623047" xlink:href="#DejaVuSans-35"/>
      </g>
     </g>
    </g>
    <g id="ytick_8">
     <g id="line2d_29">
      <path clip-path="url(#p4f94d0e0de)" d="M 46.742 14.76 
L 403.9084 14.76 
" style="fill:none;stroke:#b0b0b0;stroke-linecap:square;stroke-width:0.8;"/>
     </g>
     <g id="line2d_30">
      <g>
       <use style="stroke:#000000;stroke-width:0.8;" x="46.742" xlink:href="#macd603730e" y="14.76"/>
      </g>
     </g>
     <g id="text_16">
      <!-- 80 -->
      <g transform="translate(27.017 18.559219)scale(0.1 -0.1)">
       <defs>
        <path d="M 2034 2216 
Q 1584 2216 1326 1975 
Q 1069 1734 1069 1313 
Q 1069 891 1326 650 
Q 1584 409 2034 409 
Q 2484 409 2743 651 
Q 3003 894 3003 1313 
Q 3003 1734 2745 1975 
Q 2488 2216 2034 2216 
z
M 1403 2484 
Q 997 2584 770 2862 
Q 544 3141 544 3541 
Q 544 4100 942 4425 
Q 1341 4750 2034 4750 
Q 2731 4750 3128 4425 
Q 3525 4100 3525 3541 
Q 3525 3141 3298 2862 
Q 3072 2584 2669 2484 
Q 3125 2378 3379 2068 
Q 3634 1759 3634 1313 
Q 3634 634 3220 271 
Q 2806 -91 2034 -91 
Q 1263 -91 848 271 
Q 434 634 434 1313 
Q 434 1759 690 2068 
Q 947 2378 1403 2484 
z
M 1172 3481 
Q 1172 3119 1398 2916 
Q 1625 2713 2034 2713 
Q 2441 2713 2670 2916 
Q 2900 3119 2900 3481 
Q 2900 3844 2670 4047 
Q 2441 4250 2034 4250 
Q 1625 4250 1398 4047 
Q 1172 3844 1172 3481 
z
" id="DejaVuSans-38" transform="scale(0.015625)"/>
       </defs>
       <use xlink:href="#DejaVuSans-38"/>
       <use x="63.623047" xlink:href="#DejaVuSans-30"/>
      </g>
     </g>
    </g>
    <g id="text_17">
     <!-- $H(z)/(1+z)[km\;s^{-1}Mpc^{-1}]$ -->
     <g transform="translate(20.917 231.15)rotate(-90)scale(0.1 -0.1)">
      <defs>
       <path d="M 1081 4666 
L 1716 4666 
L 1344 2753 
L 3634 2753 
L 4006 4666 
L 4641 4666 
L 3731 0 
L 3097 0 
L 3531 2222 
L 1241 2222 
L 806 0 
L 172 0 
L 1081 4666 
z
" id="DejaVuSans-Oblique-48" transform="scale(0.015625)"/>
       <path d="M 1984 4856 
Q 1566 4138 1362 3434 
Q 1159 2731 1159 2009 
Q 1159 1288 1364 580 
Q 1569 -128 1984 -844 
L 1484 -844 
Q 1016 -109 783 600 
Q 550 1309 550 2009 
Q 550 2706 781 3412 
Q 1013 4119 1484 4856 
L 1984 4856 
z
" id="DejaVuSans-28" transform="scale(0.015625)"/>
       <path d="M 513 4856 
L 1013 4856 
Q 1481 4119 1714 3412 
Q 1947 2706 1947 2009 
Q 1947 1309 1714 600 
Q 1481 -109 1013 -844 
L 513 -844 
Q 928 -128 1133 580 
Q 1338 1288 1338 2009 
Q 1338 2731 1133 3434 
Q 928 4138 513 4856 
z
" id="DejaVuSans-29" transform="scale(0.015625)"/>
       <path d="M 1625 4666 
L 2156 4666 
L 531 -594 
L 0 -594 
L 1625 4666 
z
" id="DejaVuSans-2f" transform="scale(0.015625)"/>
       <path d="M 2944 4013 
L 2944 2272 
L 4684 2272 
L 4684 1741 
L 2944 1741 
L 2944 0 
L 2419 0 
L 2419 1741 
L 678 1741 
L 678 2272 
L 2419 2272 
L 2419 4013 
L 2944 4013 
z
" id="DejaVuSans-2b" transform="scale(0.015625)"/>
       <path d="M 550 4863 
L 1875 4863 
L 1875 4416 
L 1125 4416 
L 1125 -397 
L 1875 -397 
L 1875 -844 
L 550 -844 
L 550 4863 
z
" id="DejaVuSans-5b" transform="scale(0.015625)"/>
       <path d="M 1172 4863 
L 1747 4863 
L 1197 2028 
L 3169 3500 
L 3916 3500 
L 1716 1825 
L 3322 0 
L 2625 0 
L 1131 1709 
L 800 0 
L 225 0 
L 1172 4863 
z
" id="DejaVuSans-Oblique-6b" transform="scale(0.015625)"/>
       <path d="M 5747 2113 
L 5338 0 
L 4763 0 
L 5166 2094 
Q 5191 2228 5203 2325 
Q 5216 2422 5216 2491 
Q 5216 2772 5059 2928 
Q 4903 3084 4622 3084 
Q 4203 3084 3875 2770 
Q 3547 2456 3450 1953 
L 3066 0 
L 2491 0 
L 2900 2094 
Q 2925 2209 2937 2307 
Q 2950 2406 2950 2484 
Q 2950 2769 2794 2926 
Q 2638 3084 2363 3084 
Q 1938 3084 1609 2770 
Q 1281 2456 1184 1953 
L 800 0 
L 225 0 
L 909 3500 
L 1484 3500 
L 1375 2956 
Q 1609 3263 1923 3423 
Q 2238 3584 2597 3584 
Q 2978 3584 3223 3384 
Q 3469 3184 3519 2828 
Q 3781 3197 4126 3390 
Q 4472 3584 4856 3584 
Q 5306 3584 5551 3325 
Q 5797 3066 5797 2591 
Q 5797 2488 5784 2364 
Q 5772 2241 5747 2113 
z
" id="DejaVuSans-Oblique-6d" transform="scale(0.015625)"/>
       <path d="M 3200 3397 
L 3091 2853 
Q 2863 2978 2609 3040 
Q 2356 3103 2088 3103 
Q 1634 3103 1373 2948 
Q 1113 2794 1113 2528 
Q 1113 2219 1719 2053 
Q 1766 2041 1788 2034 
L 1972 1978 
Q 2547 1819 2739 1644 
Q 2931 1469 2931 1166 
Q 2931 609 2489 259 
Q 2047 -91 1331 -91 
Q 1053 -91 747 -37 
Q 441 16 72 128 
L 184 722 
Q 500 559 806 475 
Q 1113 391 1394 391 
Q 1816 391 2080 572 
Q 2344 753 2344 1031 
Q 2344 1331 1650 1516 
L 1591 1531 
L 1394 1581 
Q 956 1697 753 1886 
Q 550 2075 550 2369 
Q 550 2928 970 3256 
Q 1391 3584 2113 3584 
Q 2397 3584 2667 3537 
Q 2938 3491 3200 3397 
z
" id="DejaVuSans-Oblique-73" transform="scale(0.015625)"/>
       <path d="M 678 2272 
L 4684 2272 
L 4684 1741 
L 678 1741 
L 678 2272 
z
" id="DejaVuSans-2212" transform="scale(0.015625)"/>
       <path d="M 1081 4666 
L 2028 4666 
L 2572 1522 
L 4378 4666 
L 5350 4666 
L 4441 0 
L 3828 0 
L 4622 4091 
L 2791 897 
L 2175 897 
L 1581 4103 
L 788 0 
L 172 0 
L 1081 4666 
z
" id="DejaVuSans-Oblique-4d" transform="scale(0.015625)"/>
       <path d="M 3175 2156 
Q 3175 2616 2975 2859 
Q 2775 3103 2400 3103 
Q 2144 3103 1911 2972 
Q 1678 2841 1497 2591 
Q 1319 2344 1212 1994 
Q 1106 1644 1106 1300 
Q 1106 863 1306 627 
Q 1506 391 1875 391 
Q 2147 391 2380 519 
Q 2613 647 2778 891 
Q 2956 1147 3065 1494 
Q 3175 1841 3175 2156 
z
M 1394 2969 
Q 1625 3272 1939 3428 
Q 2253 3584 2638 3584 
Q 3175 3584 3472 3232 
Q 3769 2881 3769 2247 
Q 3769 1728 3584 1258 
Q 3400 788 3053 416 
Q 2822 169 2531 39 
Q 2241 -91 1919 -91 
Q 1547 -91 1294 64 
Q 1041 219 916 525 
L 556 -1331 
L -19 -1331 
L 922 3500 
L 1497 3500 
L 1394 2969 
z
" id="DejaVuSans-Oblique-70" transform="scale(0.015625)"/>
       <path d="M 3431 3366 
L 3316 2797 
Q 3109 2947 2876 3022 
Q 2644 3097 2394 3097 
Q 2119 3097 1870 3000 
Q 1622 2903 1453 2725 
Q 1184 2453 1037 2087 
Q 891 1722 891 1331 
Q 891 859 1127 628 
Q 1363 397 1844 397 
Q 2081 397 2348 469 
Q 2616 541 2906 684 
L 2797 116 
Q 2547 13 2283 -39 
Q 2019 -91 1741 -91 
Q 1044 -91 669 257 
Q 294 606 294 1253 
Q 294 1797 489 2255 
Q 684 2713 1069 3078 
Q 1331 3328 1684 3456 
Q 2038 3584 2456 3584 
Q 2700 3584 2940 3529 
Q 3181 3475 3431 3366 
z
" id="DejaVuSans-Oblique-63" transform="scale(0.015625)"/>
       <path d="M 1947 4863 
L 1947 -844 
L 622 -844 
L 622 -397 
L 1369 -397 
L 1369 4416 
L 622 4416 
L 622 4863 
L 1947 4863 
z
" id="DejaVuSans-5d" transform="scale(0.015625)"/>
      </defs>
      <use transform="translate(0 0.684375)" xlink:href="#DejaVuSans-Oblique-48"/>
      <use transform="translate(75.195312 0.684375)" xlink:href="#DejaVuSans-28"/>
      <use transform="translate(114.208984 0.684375)" xlink:href="#DejaVuSans-Oblique-7a"/>
      <use transform="translate(166.699219 0.684375)" xlink:href="#DejaVuSans-29"/>
      <use transform="translate(205.712891 0.684375)" xlink:href="#DejaVuSans-2f"/>
      <use transform="translate(239.404297 0.684375)" xlink:href="#DejaVuSans-28"/>
      <use transform="translate(278.417969 0.684375)" xlink:href="#DejaVuSans-31"/>
      <use transform="translate(361.523438 0.684375)" xlink:href="#DejaVuSans-2b"/>
      <use transform="translate(464.794922 0.684375)" xlink:href="#DejaVuSans-Oblique-7a"/>
      <use transform="translate(517.285156 0.684375)" xlink:href="#DejaVuSans-29"/>
      <use transform="translate(556.298828 0.684375)" xlink:href="#DejaVuSans-5b"/>
      <use transform="translate(595.3125 0.684375)" xlink:href="#DejaVuSans-Oblique-6b"/>
      <use transform="translate(653.222656 0.684375)" xlink:href="#DejaVuSans-Oblique-6d"/>
      <use transform="translate(777.693901 0.684375)" xlink:href="#DejaVuSans-Oblique-73"/>
      <use transform="translate(834.443407 38.965625)scale(0.7)" xlink:href="#DejaVuSans-2212"/>
      <use transform="translate(893.09575 38.965625)scale(0.7)" xlink:href="#DejaVuSans-31"/>
      <use transform="translate(940.366258 0.684375)" xlink:href="#DejaVuSans-Oblique-4d"/>
      <use transform="translate(1026.645555 0.684375)" xlink:href="#DejaVuSans-Oblique-70"/>
      <use transform="translate(1090.122118 0.684375)" xlink:href="#DejaVuSans-Oblique-63"/>
      <use transform="translate(1149.752482 38.965625)scale(0.7)" xlink:href="#DejaVuSans-2212"/>
      <use transform="translate(1208.404826 38.965625)scale(0.7)" xlink:href="#DejaVuSans-31"/>
      <use transform="translate(1255.675334 0.684375)" xlink:href="#DejaVuSans-5d"/>
     </g>
    </g>
   </g>
   <g id="LineCollection_1">
    <path clip-path="url(#p4f94d0e0de)" d="M 409.861173 129.876739 
L 404.034617 132.496961 
L 403.9084 132.552629 
L 397.955627 135.188728 
L 395.161813 136.463838 
L 392.002853 137.879227 
L 386.182336 140.430714 
L 386.05008 140.487475 
L 380.097307 143.102189 
L 377.224703 144.397591 
L 374.144533 145.757558 
L 368.19176 148.308616 
L 368.064999 148.364467 
L 362.238987 150.874723 
L 358.929998 152.331344 
L 356.286213 153.468531 
L 350.33344 155.973913 
L 349.576556 156.29822 
L 344.380667 158.46797 
L 340.139106 160.265097 
L 338.427893 160.974643 
L 332.47512 163.451959 
L 330.576769 164.231973 
L 326.522347 165.857394 
L 320.686417 168.19885 
L 320.569573 168.245258 
L 314.6168 170.653998 
L 310.863915 172.165726 
L 308.664027 173.040375 
L 302.711253 175.312303 
L 300.626423 176.132603 
L 296.75848 177.620705 
L 290.805707 179.878653 
L 290.247497 180.099479 
L 284.852933 182.139922 
L 279.809579 184.066356 
L 278.90016 184.403283 
L 272.947387 186.490714 
L 268.783108 188.033232 
L 266.994613 188.649766 
L 261.04184 190.610115 
L 257.168186 192.000109 
L 255.089067 192.669276 
L 249.136293 194.484859 
L 244.693549 195.966985 
L 243.18352 196.416707 
L 237.230747 198.054398 
L 231.277973 199.814674 
L 230.852293 199.933862 
L 225.3252 201.343707 
L 219.372427 202.862972 
L 215.138361 203.900738 
L 213.419653 204.330016 
L 207.46688 205.794694 
L 201.514107 207.13779 
L 198.160173 207.867615 
L 195.561333 208.484013 
L 189.60856 209.809368 
L 183.655787 211.018775 
L 179.293368 211.834491 
L 177.703013 212.15637 
L 171.75024 213.229949 
L 165.797467 214.221766 
L 159.844693 215.128721 
L 155.094305 215.801368 
L 153.89192 215.997288 
L 147.939147 216.880183 
L 141.986373 217.772154 
L 136.0336 218.826578 
L 131.022205 219.768244 
L 130.080827 219.970712 
L 124.128053 221.254248 
L 118.17528 222.441651 
L 112.285228 223.735121 
L 112.222507 223.750342 
L 106.269733 225.197855 
L 100.31696 226.530361 
L 94.364187 227.609541 
L 93.645197 227.701997 
L 88.411413 228.382834 
L 82.45864 228.038105 
L 81.769137 227.701997 
L 76.505867 225.097197 
L 75.157921 223.735121 
L 70.941238 219.768244 
L 70.553093 219.414195 
L 68.220463 215.801368 
L 65.37247 211.834491 
L 64.60032 210.76285 
L 63.17358 207.867615 
L 61.134963 203.900738 
L 58.980231 199.933862 
L 58.647547 199.364389 
L 56.931801 195.966985 
L 55.026812 192.000109 
L 53.184523 188.033232 
L 52.694773 186.943272 
L 51.114144 184.066356 
L 49.211524 180.099479 
L 47.621888 176.132603 
L 46.742 173.61175 
" style="fill:none;stroke:#000000;stroke-width:2;"/>
    <path clip-path="url(#p4f94d0e0de)" d="M 46.742 107.074547 
L 47.047812 108.695702 
L 47.869254 112.662579 
L 48.792732 116.629455 
L 49.722552 120.596332 
L 50.644159 124.563208 
L 51.502839 128.530085 
L 52.293729 132.496961 
L 52.694773 134.459069 
L 53.292022 136.463838 
L 54.49183 140.430714 
L 55.68674 144.397591 
L 56.939573 148.364467 
L 58.310251 152.331344 
L 58.647547 153.238541 
L 60.29266 156.29822 
L 62.081513 160.265097 
L 63.697861 164.231973 
L 64.60032 166.212167 
L 66.449315 168.19885 
L 69.75398 172.165726 
L 70.553093 173.278785 
L 74.611547 176.132603 
L 76.505867 177.400762 
L 82.45864 179.899338 
L 83.243642 180.099479 
L 88.411413 181.214962 
L 94.364187 182.54161 
L 100.31696 183.860459 
L 101.425979 184.066356 
L 106.269733 185.00309 
L 112.222507 185.808152 
L 118.17528 186.222328 
L 124.128053 186.389187 
L 130.080827 186.08325 
L 136.0336 185.449675 
L 141.986373 184.548078 
L 145.029459 184.066356 
L 147.939147 183.650455 
L 153.89192 182.604439 
L 159.844693 181.232251 
L 164.176395 180.099479 
L 165.797467 179.685429 
L 171.75024 178.033829 
L 177.703013 176.139409 
L 177.723141 176.132603 
L 183.655787 174.07098 
L 188.685092 172.165726 
L 189.60856 171.807406 
L 195.561333 169.473452 
L 198.684585 168.19885 
L 201.514107 167.028058 
L 207.46688 164.457988 
L 207.99894 164.231973 
L 213.419653 161.882434 
L 217.07155 160.265097 
L 219.372427 159.212419 
L 225.3252 156.465868 
L 225.691705 156.29822 
L 231.277973 153.609836 
L 233.963507 152.331344 
L 237.230747 150.6788 
L 241.877902 148.364467 
L 243.18352 147.677886 
L 249.136293 144.569226 
L 249.468706 144.397591 
L 255.089067 141.334964 
L 256.782119 140.430714 
L 261.04184 138.059669 
L 263.945692 136.463838 
L 266.994613 134.744597 
L 270.998852 132.496961 
L 272.947387 131.38996 
L 277.959306 128.530085 
L 278.90016 127.991744 
L 284.737628 124.563208 
L 284.852933 124.495556 
L 290.805707 120.991567 
L 291.488039 120.596332 
L 296.75848 117.497895 
L 298.255917 116.629455 
L 302.711253 114.01754 
L 305.050789 112.662579 
L 308.664027 110.553534 
L 311.793313 108.695702 
L 314.6168 107.008448 
L 318.444929 104.728826 
L 320.569573 103.45653 
L 325.117317 100.761949 
L 326.522347 99.925329 
L 331.842279 96.795073 
L 332.47512 96.420952 
L 338.427893 92.837181 
L 338.442897 92.828196 
L 344.380667 89.252213 
L 345.04011 88.86132 
L 350.33344 85.706368 
L 351.702456 84.894443 
L 356.286213 82.161079 
L 358.319641 80.927567 
L 362.238987 78.53653 
L 364.873723 76.96069 
L 368.19176 74.964442 
L 371.517794 72.993814 
L 374.144533 71.427794 
L 378.079477 69.026937 
L 380.097307 67.78756 
L 384.649748 65.06006 
L 386.05008 64.215132 
L 391.29466 61.093184 
L 392.002853 60.668421 
L 397.816158 57.126307 
L 397.955627 57.040652 
L 403.9084 53.494577 
L 404.469772 53.159431 
L 409.861173 49.917846 
" style="fill:none;stroke:#000000;stroke-width:2;"/>
   </g>
   <g id="LineCollection_2">
    <path clip-path="url(#p4f94d0e0de)" d="M 409.861173 171.164212 
L 407.092353 172.165726 
L 403.9084 173.31661 
L 397.955627 175.443009 
L 396.052024 176.132603 
L 392.002853 177.599904 
L 386.05008 179.684186 
L 384.855724 180.099479 
L 380.097307 181.756954 
L 374.144533 183.867741 
L 373.552312 184.066356 
L 368.19176 185.868895 
L 362.238987 187.879248 
L 361.784826 188.033232 
L 356.286213 189.89727 
L 350.33344 191.835722 
L 349.819461 192.000109 
L 344.380667 193.730916 
L 338.427893 195.645653 
L 337.405049 195.966985 
L 332.47512 197.494107 
L 326.522347 199.281127 
L 324.30999 199.933862 
L 320.569573 201.009206 
L 314.6168 202.762767 
L 310.580026 203.900738 
L 308.664027 204.421722 
L 302.711253 206.029137 
L 296.75848 207.574731 
L 295.611393 207.867615 
L 290.805707 209.099927 
L 284.852933 210.613864 
L 279.642834 211.834491 
L 278.90016 212.01043 
L 272.947387 213.440663 
L 266.994613 214.772679 
L 261.971212 215.801368 
L 261.04184 216.009485 
L 255.089067 217.396317 
L 249.136293 218.636981 
L 243.186116 219.768244 
L 243.18352 219.768813 
L 237.230747 221.097291 
L 231.277973 222.245808 
L 225.3252 223.286919 
L 222.761703 223.735121 
L 219.372427 224.395646 
L 213.419653 225.429544 
L 207.46688 226.35199 
L 201.514107 227.219293 
L 198.086739 227.701997 
L 195.561333 228.097682 
L 189.60856 228.998027 
L 183.655787 229.861166 
L 177.703013 230.694504 
L 171.75024 231.416271 
L 169.528506 231.668874 
L 165.797467 232.168601 
L 159.844693 233.161923 
L 153.89192 234.384572 
L 148.956329 235.63575 
L 147.939147 235.945945 
L 141.986373 238.10631 
L 138.418477 239.602627 
L 136.0336 240.664456 
L 130.284491 243.569503 
L 130.080827 243.666775 
L 124.128053 246.901377 
L 122.895081 247.53638 
L 118.17528 250.160506 
L 115.541923 251.503256 
L 112.222507 253.404675 
L 108.345138 255.470133 
L 106.269733 256.65902 
L 100.75539 259.437009 
L 100.31696 259.638614 
L 94.364187 261.218286 
L 88.411413 261.110409 
L 84.02327 259.437009 
L 82.45864 258.842021 
L 77.987825 255.470133 
L 76.505867 254.323578 
L 74.571101 251.503256 
L 71.649179 247.53638 
L 70.553093 246.202482 
L 69.379987 243.569503 
L 67.453261 239.602627 
L 65.190183 235.63575 
L 64.60032 234.681066 
L 63.125824 231.668874 
L 61.408936 227.701997 
L 59.631013 223.735121 
L 58.647547 221.780541 
L 57.248545 219.768244 
L 54.543621 215.801368 
L 52.694773 212.815006 
L 51.258306 211.834491 
L 47.05272 207.867615 
L 46.742 207.499665 
" style="fill:none;stroke:#000000;stroke-width:1.5;"/>
    <path clip-path="url(#p4f94d0e0de)" d="M 46.742 72.741292 
L 47.801033 80.927567 
L 49.160323 88.86132 
L 52.094236 104.728826 
L 56.006848 120.596332 
L 58.716356 128.530085 
L 60.724097 132.496961 
L 64.60032 140.925574 
L 70.553093 148.95735 
L 76.505867 154.695503 
L 79.044468 156.29822 
L 82.45864 158.723065 
L 88.411413 161.948589 
L 94.364187 164.59295 
L 100.31696 166.008412 
L 114.130233 168.19885 
L 118.17528 168.683542 
L 124.128053 168.988599 
L 130.080827 168.937588 
L 136.880097 168.19885 
L 147.939147 165.660773 
L 159.844693 162.198143 
L 165.797467 160.154304 
L 171.75024 158.221034 
L 177.703013 155.823733 
L 185.474229 152.331344 
L 193.586172 148.364467 
L 201.073746 144.397591 
L 208.226329 140.430714 
L 219.372427 133.922697 
L 228.181899 128.530085 
L 240.623728 120.596332 
L 255.089067 111.106182 
L 278.90016 95.180676 
L 322.330875 65.06006 
L 380.097307 24.445237 
L 409.861173 3.968364 
L 409.861173 3.968364 
" style="fill:none;stroke:#000000;stroke-width:1.5;"/>
   </g>
   <g id="LineCollection_3">
    <path clip-path="url(#p4f94d0e0de)" d="M 326.522347 159.551633 
L 326.522347 114.883957 
" style="fill:none;stroke:#ff0000;stroke-width:1.5;"/>
   </g>
   <g id="LineCollection_4">
    <path clip-path="url(#p4f94d0e0de)" d="M 325.331792 132.997396 
L 325.331792 94.084335 
" style="fill:none;stroke:#ff0000;stroke-width:1.5;"/>
   </g>
   <g id="LineCollection_5">
    <path clip-path="url(#p4f94d0e0de)" d="M 91.983077 212.971569 
L 91.983077 183.121649 
" style="fill:none;stroke:#ff0000;stroke-width:1.5;"/>
   </g>
   <g id="LineCollection_6">
    <path clip-path="url(#p4f94d0e0de)" d="M 107.460288 201.001735 
L 107.460288 171.680876 
" style="fill:none;stroke:#ff0000;stroke-width:1.5;"/>
   </g>
   <g id="LineCollection_7">
    <path clip-path="url(#p4f94d0e0de)" d="M 119.365835 191.092124 
L 119.365835 159.630191 
" style="fill:none;stroke:#ff0000;stroke-width:1.5;"/>
   </g>
   <g id="LineCollection_8">
    <path clip-path="url(#p4f94d0e0de)" d="M 47.932555 110.076571 
L 47.932555 96.212343 
" style="fill:none;stroke:#ff0000;stroke-width:1.5;"/>
   </g>
   <g id="LineCollection_9">
    <path clip-path="url(#p4f94d0e0de)" d="M 227.706309 202.504762 
L 227.706309 119.979592 
" style="fill:none;stroke:#ff0000;stroke-width:1.5;"/>
   </g>
   <g id="line2d_31">
    <path clip-path="url(#p4f94d0e0de)" d="M 46.742 118.741714 
L 50.349741 127.825464 
L 53.957483 136.027286 
L 57.565224 143.422551 
L 61.172966 150.079004 
L 64.780707 156.05772 
L 68.388448 161.413896 
L 71.99619 166.19755 
L 75.603931 170.454109 
L 79.211673 174.224914 
L 82.819414 177.547656 
L 86.427156 180.456756 
L 90.034897 182.983697 
L 93.642638 185.157319 
L 97.25038 187.004069 
L 100.858121 188.54824 
L 104.465863 189.812145 
L 108.073604 190.816322 
L 111.681345 191.579686 
L 115.289087 192.119673 
L 118.896828 192.452367 
L 122.50457 192.592618 
L 126.112311 192.554143 
L 129.720053 192.349627 
L 133.327794 191.990803 
L 136.935535 191.488532 
L 140.543277 190.852875 
L 144.151018 190.093168 
L 147.75876 189.218046 
L 151.366501 188.235529 
L 154.974242 187.153064 
L 158.581984 185.977568 
L 162.189725 184.715469 
L 165.797467 183.37274 
L 169.405208 181.954941 
L 173.012949 180.467245 
L 176.620691 178.914467 
L 180.228432 177.301093 
L 183.836174 175.631304 
L 187.443915 173.908997 
L 191.051657 172.137807 
L 194.659398 170.321127 
L 198.267139 168.462136 
L 201.874881 166.563781 
L 205.482622 164.628823 
L 209.090364 162.659843 
L 212.698105 160.659256 
L 216.305846 158.62932 
L 219.913588 156.572148 
L 223.521329 154.489718 
L 227.129071 152.383881 
L 230.736812 150.256373 
L 234.344554 148.108819 
L 237.952295 145.942741 
L 241.560036 143.75957 
L 245.167778 141.560643 
L 248.775519 139.347218 
L 252.383261 137.120475 
L 255.991002 134.881519 
L 259.598743 132.63139 
L 263.206485 130.371065 
L 266.814226 128.10147 
L 270.421968 125.823464 
L 274.029709 123.537849 
L 277.637451 121.245387 
L 281.245192 118.946792 
L 284.852933 116.642736 
L 288.460675 114.333853 
L 292.068416 112.020737 
L 295.676158 109.703949 
L 299.283899 107.384014 
L 302.89164 105.061428 
L 306.499382 102.736657 
L 310.107123 100.41014 
L 313.714865 98.082289 
L 317.322606 95.753494 
L 320.930347 93.42412 
L 324.538089 91.094511 
L 328.14583 88.764991 
L 331.753572 86.435865 
L 335.361313 84.10742 
L 338.969055 81.779925 
L 342.576796 79.453634 
L 346.184537 77.128788 
L 349.792279 74.805609 
L 353.40002 72.484316 
L 357.007762 70.165114 
L 360.615503 67.848177 
L 364.223244 65.533681 
L 367.830986 63.221789 
L 371.438727 60.912658 
L 375.046469 58.606433 
L 378.65421 56.303249 
L 382.261952 54.003236 
L 385.869693 51.706512 
L 389.477434 49.41319 
L 393.085176 47.123376 
L 396.692917 44.837167 
L 400.300659 42.554656 
L 403.9084 40.275929 
" style="fill:none;stroke:#0000ff;stroke-dasharray:14.8,6.4;stroke-dashoffset:0;stroke-width:4;"/>
   </g>
   <g id="line2d_32">
    <defs>
     <path d="M -3 3 
L 3 3 
L 3 -3 
L -3 -3 
z
" id="m5d37c77d46" style="stroke:#ff0000;stroke-linejoin:miter;"/>
    </defs>
    <g clip-path="url(#p4f94d0e0de)">
     <use style="fill:#ff0000;stroke:#ff0000;stroke-linejoin:miter;" x="326.522347" xlink:href="#m5d37c77d46" y="137.217795"/>
    </g>
   </g>
   <g id="line2d_33">
    <g clip-path="url(#p4f94d0e0de)">
     <use style="fill:#ff0000;stroke:#ff0000;stroke-linejoin:miter;" x="325.331792" xlink:href="#m5d37c77d46" y="113.540866"/>
    </g>
   </g>
   <g id="line2d_34">
    <defs>
     <path d="M -0 4.242641 
L 2.545584 0 
L 0 -4.242641 
L -2.545584 -0 
z
" id="m65dbaa912b" style="stroke:#ff0000;stroke-linejoin:miter;"/>
    </defs>
    <g clip-path="url(#p4f94d0e0de)">
     <use style="fill:#ff0000;stroke:#ff0000;stroke-linejoin:miter;" x="91.983077" xlink:href="#m65dbaa912b" y="198.046609"/>
    </g>
   </g>
   <g id="line2d_35">
    <g clip-path="url(#p4f94d0e0de)">
     <use style="fill:#ff0000;stroke:#ff0000;stroke-linejoin:miter;" x="107.460288" xlink:href="#m65dbaa912b" y="186.341306"/>
    </g>
   </g>
   <g id="line2d_36">
    <g clip-path="url(#p4f94d0e0de)">
     <use style="fill:#ff0000;stroke:#ff0000;stroke-linejoin:miter;" x="119.365835" xlink:href="#m65dbaa912b" y="175.361157"/>
    </g>
   </g>
   <g id="line2d_37">
    <g clip-path="url(#p4f94d0e0de)">
     <use style="fill:#ff0000;stroke:#ff0000;stroke-linejoin:miter;" x="47.932555" xlink:href="#m65dbaa912b" y="103.144457"/>
    </g>
   </g>
   <g id="line2d_38">
    <g clip-path="url(#p4f94d0e0de)">
     <use style="fill:#ff0000;stroke:#ff0000;stroke-linejoin:miter;" x="227.706309" xlink:href="#m65dbaa912b" y="161.242177"/>
    </g>
   </g>
   <g id="patch_3">
    <path d="M 46.742 318.04 
L 46.742 14.76 
" style="fill:none;stroke:#000000;stroke-linecap:square;stroke-linejoin:miter;stroke-width:0.8;"/>
   </g>
   <g id="patch_4">
    <path d="M 403.9084 318.04 
L 403.9084 14.76 
" style="fill:none;stroke:#000000;stroke-linecap:square;stroke-linejoin:miter;stroke-width:0.8;"/>
   </g>
   <g id="patch_5">
    <path d="M 46.742 318.04 
L 403.9084 318.04 
" style="fill:none;stroke:#000000;stroke-linecap:square;stroke-linejoin:miter;stroke-width:0.8;"/>
   </g>
   <g id="patch_6">
    <path d="M 46.742 14.76 
L 403.9084 14.76 
" style="fill:none;stroke:#000000;stroke-linecap:square;stroke-linejoin:miter;stroke-width:0.8;"/>
   </g>
   <g id="text_18">
    <!-- BAO -->
    <g transform="translate(47.932555 49.420571)scale(0.13 -0.13)">
     <defs>
      <path d="M 1259 2228 
L 1259 519 
L 2272 519 
Q 2781 519 3026 730 
Q 3272 941 3272 1375 
Q 3272 1813 3026 2020 
Q 2781 2228 2272 2228 
L 1259 2228 
z
M 1259 4147 
L 1259 2741 
L 2194 2741 
Q 2656 2741 2882 2914 
Q 3109 3088 3109 3444 
Q 3109 3797 2882 3972 
Q 2656 4147 2194 4147 
L 1259 4147 
z
M 628 4666 
L 2241 4666 
Q 2963 4666 3353 4366 
Q 3744 4066 3744 3513 
Q 3744 3084 3544 2831 
Q 3344 2578 2956 2516 
Q 3422 2416 3680 2098 
Q 3938 1781 3938 1306 
Q 3938 681 3513 340 
Q 3088 0 2303 0 
L 628 0 
L 628 4666 
z
" id="DejaVuSans-42" transform="scale(0.015625)"/>
      <path d="M 2188 4044 
L 1331 1722 
L 3047 1722 
L 2188 4044 
z
M 1831 4666 
L 2547 4666 
L 4325 0 
L 3669 0 
L 3244 1197 
L 1141 1197 
L 716 0 
L 50 0 
L 1831 4666 
z
" id="DejaVuSans-41" transform="scale(0.015625)"/>
      <path d="M 2522 4238 
Q 1834 4238 1429 3725 
Q 1025 3213 1025 2328 
Q 1025 1447 1429 934 
Q 1834 422 2522 422 
Q 3209 422 3611 934 
Q 4013 1447 4013 2328 
Q 4013 3213 3611 3725 
Q 3209 4238 2522 4238 
z
M 2522 4750 
Q 3503 4750 4090 4092 
Q 4678 3434 4678 2328 
Q 4678 1225 4090 567 
Q 3503 -91 2522 -91 
Q 1538 -91 948 565 
Q 359 1222 359 2328 
Q 359 3434 948 4092 
Q 1538 4750 2522 4750 
z
" id="DejaVuSans-4f" transform="scale(0.015625)"/>
     </defs>
     <use xlink:href="#DejaVuSans-42"/>
     <use x="68.603516" xlink:href="#DejaVuSans-41"/>
     <use x="135.261719" xlink:href="#DejaVuSans-4f"/>
    </g>
   </g>
   <g id="legend_1">
    <g id="patch_7">
     <path d="M 53.742 313.04 
L 115.942 313.04 
Q 117.942 313.04 117.942 311.04 
L 117.942 297.361875 
Q 117.942 295.361875 115.942 295.361875 
L 53.742 295.361875 
Q 51.742 295.361875 51.742 297.361875 
L 51.742 311.04 
Q 51.742 313.04 53.742 313.04 
z
" style="fill:#ffffff;opacity:0.8;stroke:#cccccc;stroke-linejoin:miter;"/>
    </g>
    <g id="line2d_39">
     <path d="M 55.742 303.460312 
L 75.742 303.460312 
" style="fill:none;stroke:#0000ff;stroke-dasharray:14.8,6.4;stroke-dashoffset:0;stroke-width:4;"/>
    </g>
    <g id="line2d_40"/>
    <g id="text_19">
     <!-- $\Lambda CDM$ -->
     <g transform="translate(83.742 306.960312)scale(0.1 -0.1)">
      <defs>
       <path d="M 716 0 
L 50 0 
L 1831 4666 
L 2547 4666 
L 4325 0 
L 3669 0 
L 2188 4044 
L 716 0 
z
" id="DejaVuSans-39b" transform="scale(0.015625)"/>
       <path d="M 4447 4306 
L 4319 3641 
Q 4019 3944 3683 4091 
Q 3347 4238 2956 4238 
Q 2422 4238 2017 3981 
Q 1613 3725 1319 3200 
Q 1131 2863 1032 2486 
Q 934 2109 934 1728 
Q 934 1091 1264 756 
Q 1594 422 2222 422 
Q 2656 422 3056 561 
Q 3456 700 3834 978 
L 3688 231 
Q 3316 72 2936 -9 
Q 2556 -91 2175 -91 
Q 1278 -91 773 396 
Q 269 884 269 1753 
Q 269 2309 461 2846 
Q 653 3384 1013 3828 
Q 1394 4300 1883 4525 
Q 2372 4750 3022 4750 
Q 3422 4750 3780 4639 
Q 4138 4528 4447 4306 
z
" id="DejaVuSans-Oblique-43" transform="scale(0.015625)"/>
       <path d="M 1081 4666 
L 2438 4666 
Q 3519 4666 4070 4208 
Q 4622 3750 4622 2847 
Q 4622 2250 4412 1698 
Q 4203 1147 3834 769 
Q 3463 381 2891 190 
Q 2319 0 1538 0 
L 172 0 
L 1081 4666 
z
M 1613 4147 
L 909 519 
L 1734 519 
Q 2794 519 3375 1128 
Q 3956 1738 3956 2847 
Q 3956 3519 3581 3833 
Q 3206 4147 2406 4147 
L 1613 4147 
z
" id="DejaVuSans-Oblique-44" transform="scale(0.015625)"/>
      </defs>
      <use transform="translate(0 0.78125)" xlink:href="#DejaVuSans-39b"/>
      <use transform="translate(68.408203 0.78125)" xlink:href="#DejaVuSans-Oblique-43"/>
      <use transform="translate(138.232422 0.78125)" xlink:href="#DejaVuSans-Oblique-44"/>
      <use transform="translate(215.234375 0.78125)" xlink:href="#DejaVuSans-Oblique-4d"/>
     </g>
    </g>
   </g>
  </g>
  <g id="axes_2">
   <g id="patch_8">
    <path d="M 426.2313 318.04 
L 441.3953 318.04 
L 441.3953 14.76 
L 426.2313 14.76 
z
" style="fill:#ffffff;"/>
   </g>
   <g id="patch_9">
    <path clip-path="url(#p8380282b27)" d="M 426.2313 318.04 
L 426.2313 242.22 
L 426.2313 90.58 
L 426.2313 14.76 
L 441.3953 14.76 
L 441.3953 90.58 
L 441.3953 242.22 
L 441.3953 318.04 
L 441.3953 318.04 
z
" style="fill:#ffffff;stroke:#ffffff;stroke-linejoin:miter;stroke-width:0.01;"/>
   </g>
   <g id="QuadMesh_1">
    <path clip-path="url(#p8380282b27)" d="M 426.2313 318.04 
L 441.3953 318.04 
L 441.3953 242.22 
L 426.2313 242.22 
L 426.2313 318.04 
" style="fill:#006d2c;"/>
    <path clip-path="url(#p8380282b27)" d="M 426.2313 242.22 
L 441.3953 242.22 
L 441.3953 166.4 
L 426.2313 166.4 
L 426.2313 242.22 
" style="fill:#42ab5d;"/>
    <path clip-path="url(#p8380282b27)" d="M 426.2313 166.4 
L 441.3953 166.4 
L 441.3953 90.58 
L 426.2313 90.58 
L 426.2313 166.4 
" style="fill:#a2d99c;"/>
    <path clip-path="url(#p8380282b27)" d="M 426.2313 90.58 
L 441.3953 90.58 
L 441.3953 14.76 
L 426.2313 14.76 
L 426.2313 90.58 
" style="fill:#e5f5e1;"/>
   </g>
   <g id="matplotlib.axis_3"/>
   <g id="matplotlib.axis_4">
    <g id="ytick_9">
     <g id="line2d_41">
      <defs>
       <path d="M 0 0 
L 3.5 0 
" id="m8e9af98c31" style="stroke:#000000;stroke-width:0.8;"/>
      </defs>
      <g>
       <use style="stroke:#000000;stroke-width:0.8;" x="441.3953" xlink:href="#m8e9af98c31" y="318.04"/>
      </g>
     </g>
    </g>
    <g id="ytick_10">
     <g id="line2d_42">
      <g>
       <use style="stroke:#000000;stroke-width:0.8;" x="441.3953" xlink:href="#m8e9af98c31" y="166.4"/>
      </g>
     </g>
     <g id="text_20">
      <!-- $1\sigma$ -->
      <g transform="translate(448.3953 170.199219)scale(0.1 -0.1)">
       <defs>
        <path d="M 2219 3044 
Q 1744 3044 1422 2700 
Q 1081 2341 969 1747 
Q 844 1119 1044 756 
Q 1241 397 1706 397 
Q 2166 397 2503 759 
Q 2844 1122 2966 1747 
Q 3075 2319 2881 2700 
Q 2700 3044 2219 3044 
z
M 2309 3503 
L 4219 3500 
L 4106 2925 
L 3463 2925 
Q 3706 2438 3575 1747 
Q 3406 888 2884 400 
Q 2359 -91 1609 -91 
Q 856 -91 525 400 
Q 194 888 363 1747 
Q 528 2609 1050 3097 
Q 1484 3503 2309 3503 
z
" id="DejaVuSans-Oblique-3c3" transform="scale(0.015625)"/>
       </defs>
       <use transform="translate(0 0.09375)" xlink:href="#DejaVuSans-31"/>
       <use transform="translate(63.623047 0.09375)" xlink:href="#DejaVuSans-Oblique-3c3"/>
      </g>
     </g>
    </g>
    <g id="ytick_11">
     <g id="line2d_43">
      <g>
       <use style="stroke:#000000;stroke-width:0.8;" x="441.3953" xlink:href="#m8e9af98c31" y="14.76"/>
      </g>
     </g>
     <g id="text_21">
      <!-- $2\sigma$ -->
      <g transform="translate(448.3953 18.559219)scale(0.1 -0.1)">
       <use transform="translate(0 0.78125)" xlink:href="#DejaVuSans-32"/>
       <use transform="translate(63.623047 0.78125)" xlink:href="#DejaVuSans-Oblique-3c3"/>
      </g>
     </g>
    </g>
   </g>
   <g id="LineCollection_10"/>
   <g id="patch_10">
    <path d="M 426.2313 318.04 
L 426.2313 242.22 
L 426.2313 90.58 
L 426.2313 14.76 
L 441.3953 14.76 
L 441.3953 90.58 
L 441.3953 242.22 
L 441.3953 318.04 
z
" style="fill:none;stroke:#000000;stroke-linecap:square;stroke-linejoin:miter;stroke-width:0.8;"/>
   </g>
  </g>
 </g>
 <defs>
  <clipPath id="p4f94d0e0de">
   <rect height="303.28" width="357.1664" x="46.742" y="14.76"/>
  </clipPath>
  <clipPath id="p8380282b27">
   <rect height="303.28" width="15.164" x="426.2313" y="14.76"/>
  </clipPath>
 </defs>
</svg>
